<svg width="85" height="54" viewBox="0 0 85 54" fill="none" xmlns="http://www.w3.org/2000/svg">
<path d="M30.3285 23.9351C30.4378 23.9351 30.5358 23.9169 30.6219 23.8805C30.708 23.8441 30.7808 23.793 30.8403 23.7272C30.8998 23.6613 30.9454 23.5815 30.9769 23.4884C31.0084 23.3946 31.0238 23.2896 31.0238 23.1733V21.3557H31.5888V23.1747C31.5888 23.3554 31.5601 23.522 31.502 23.6753C31.4439 23.8287 31.3598 23.961 31.2506 24.0723C31.1414 24.1837 31.0091 24.2705 30.8536 24.3328C30.6982 24.3951 30.5232 24.4266 30.3285 24.4266C30.1339 24.4266 29.9588 24.3951 29.8034 24.3328C29.648 24.2705 29.5164 24.1837 29.4078 24.0723C29.2993 23.961 29.216 23.8287 29.1579 23.6753C29.0998 23.522 29.0704 23.3554 29.0704 23.1747V21.3557H29.6354V23.1712C29.6354 23.2875 29.6515 23.3925 29.683 23.4863C29.7145 23.5794 29.7593 23.6599 29.8181 23.7265C29.8769 23.793 29.9497 23.8441 30.0359 23.8805C30.122 23.9169 30.2193 23.9351 30.3285 23.9351V23.9351Z" fill="black"/>
<path d="M34.001 21.3557C34.0262 21.3557 34.0472 21.3564 34.064 21.3586C34.0808 21.3607 34.0962 21.3649 34.1096 21.3712C34.1229 21.3775 34.1355 21.3866 34.1481 21.3985C34.1607 21.4104 34.1747 21.4265 34.1901 21.4461L35.7843 23.4772C35.7787 23.4282 35.7752 23.3799 35.7731 23.333C35.771 23.2861 35.7696 23.2427 35.7696 23.202V21.3557H36.2674V24.393H35.9755C35.9306 24.393 35.8935 24.386 35.8641 24.372C35.8347 24.358 35.806 24.3328 35.778 24.2964L34.1901 22.2736C34.1943 22.3185 34.1978 22.3626 34.1999 22.4067C34.202 22.4508 34.2027 22.4914 34.2027 22.5278V24.393H33.7049V21.3557H34.001V21.3557Z" fill="black"/>
<path d="M38.9863 23.9267H40.2024V24.393H38.4213V21.3557H38.9863V23.9267Z" fill="black"/>
<path d="M42.7701 24.393H42.203V21.3557H42.7701V24.393Z" fill="black"/>
<path d="M46.5182 23.1327C46.542 23.1775 46.5644 23.2237 46.5847 23.2721C46.605 23.3204 46.6246 23.3694 46.6442 23.4184C46.6638 23.368 46.6841 23.3183 46.7051 23.2693C46.7261 23.2202 46.7485 23.1733 46.7723 23.1285L47.6713 21.4461C47.6825 21.4251 47.6944 21.4083 47.7063 21.3957C47.7182 21.3831 47.7316 21.374 47.7463 21.3684C47.761 21.3628 47.7771 21.3593 47.7953 21.3578C47.8135 21.3564 47.8352 21.3557 47.8604 21.3557H48.2868V24.393H47.789V22.4312C47.789 22.3948 47.7904 22.3549 47.7925 22.3115C47.7946 22.268 47.7974 22.2239 47.8016 22.1791L46.8837 23.9015C46.8627 23.9407 46.8354 23.9708 46.8018 23.9925C46.7681 24.0142 46.7289 24.0254 46.6841 24.0254H46.6064C46.5616 24.0254 46.5224 24.0142 46.4888 23.9925C46.4552 23.9708 46.4279 23.9407 46.4069 23.9015L45.4764 22.1728C45.482 22.219 45.4862 22.2638 45.4883 22.308C45.4904 22.3521 45.4911 22.3934 45.4911 22.4312V24.393H44.9933V21.3557H45.4197C45.4449 21.3557 45.4666 21.3564 45.4848 21.3578C45.503 21.3593 45.5198 21.3628 45.5345 21.3684C45.5492 21.374 45.5625 21.3831 45.5751 21.3957C45.5877 21.4083 45.5996 21.4251 45.6108 21.4461L46.5182 23.1327V23.1327Z" fill="black"/>
<path d="M51.077 24.393H50.5099V21.3557H51.077V24.393Z" fill="black"/>
<path d="M55.4405 21.3515V21.8178H54.5268V24.3909H53.9618V21.8178H53.0439V21.3515H55.4405Z" fill="black"/>
<path d="M59.2558 21.3557V21.8052H57.9094V22.6454H58.9701V23.0823H57.9094V23.9393H59.2558V24.393H57.3402V21.3557H59.2558Z" fill="black"/>
<path d="M63.9826 22.8744C63.9826 23.097 63.9455 23.3015 63.8713 23.4877C63.7971 23.6739 63.6928 23.8343 63.5584 23.9687C63.4239 24.1031 63.2622 24.2075 63.0731 24.2817C62.8841 24.3559 62.6748 24.393 62.4451 24.393H61.2857V21.3557H62.4451C62.6748 21.3557 62.8841 21.3929 63.0731 21.4678C63.2622 21.5427 63.4239 21.647 63.5584 21.7807C63.6928 21.9145 63.7971 22.0748 63.8713 22.261C63.9455 22.4473 63.9826 22.6517 63.9826 22.8744V22.8744ZM63.405 22.8744C63.405 22.7077 63.3826 22.5579 63.3378 22.4256C63.293 22.2933 63.2293 22.1812 63.1467 22.0895C63.064 21.9978 62.9639 21.9278 62.8456 21.8788C62.7273 21.8298 62.5935 21.8052 62.4451 21.8052H61.8549V23.9435H62.4451C62.5935 23.9435 62.7273 23.919 62.8456 23.87C62.9639 23.821 63.064 23.7503 63.1467 23.6585C63.2293 23.5668 63.293 23.4548 63.3378 23.3225C63.3826 23.1901 63.405 23.041 63.405 22.8744V22.8744Z" fill="black"/>
<path d="M79.1886 20.3001C79.305 20.1562 79.5826 20.1803 79.6576 20.357C80.5705 21.9355 80.5696 24.0027 79.6352 25.5717C79.5205 25.7777 79.1576 25.7544 79.1007 25.5182C79.0326 25.3294 79.1835 25.1656 79.249 25.0001C79.9119 23.7053 79.8929 22.0924 79.2102 20.8096C79.1309 20.6527 79.005 20.4381 79.1886 20.3001Z" fill="black"/>
<path d="M77.0438 21.4346C77.205 21.3251 77.4559 21.2975 77.5628 21.4958C78.1283 22.3889 78.0947 23.6053 77.5162 24.4846C77.3886 24.6311 77.136 24.6268 77.0326 24.4562C76.9093 24.307 77.0214 24.1277 77.0955 23.9872C77.3912 23.4596 77.4498 22.8036 77.2412 22.2338C77.1576 21.97 76.9274 21.7268 77.0438 21.4346V21.4346Z" fill="black"/>
<path d="M78.0403 21.1174C78.0007 20.8277 78.4205 20.676 78.5826 20.9079C79.3291 22.1372 79.3334 23.7915 78.5619 25.0104C78.3835 25.2561 78.0498 25.082 77.9947 24.8294C78.4438 24.0536 78.6645 23.1268 78.4628 22.2398C78.399 21.8389 78.1757 21.4932 78.0403 21.1174V21.1174Z" fill="black"/>
<path d="M76.0223 22.1527C76.0154 21.8682 76.4162 21.7415 76.574 21.9769C76.9654 22.5372 76.9722 23.3346 76.5886 23.9001C76.5257 24.0036 76.4041 24.0423 76.3076 24.1018C76.1455 24.038 75.9429 23.9105 76.0154 23.7036C76.1266 23.4561 76.2886 23.2139 76.2671 22.9294C76.2895 22.6432 76.0895 22.4156 76.0223 22.1527Z" fill="black"/>
<path d="M7.64432 6.09522C7.46382 5.77332 7.47812 5.35242 7.68432 5.04572C7.71102 5.14752 7.74272 5.24882 7.79622 5.34012C8.04232 5.76692 8.28992 6.19302 8.53612 6.61982C8.61722 6.76192 8.66312 6.92281 8.67232 7.08601C8.99762 7.17601 9.31922 7.30342 9.58732 7.51272C9.76562 7.65232 9.92242 7.83532 9.98112 8.05822C10.0311 8.24122 9.99962 8.44102 9.90642 8.60502C9.77792 8.83522 9.56272 9.00292 9.33612 9.12992C8.98402 9.32312 8.58952 9.42842 8.19292 9.48032C7.64832 9.54672 7.08902 9.51602 6.55982 9.36772C6.22692 9.27112 5.89932 9.12771 5.63802 8.89541C5.45562 8.73291 5.30862 8.50842 5.30352 8.25742C5.29542 8.01212 5.42632 7.78461 5.59902 7.61911C5.88372 7.34721 6.25752 7.19152 6.63282 7.09082C6.63672 7.19832 6.64182 7.30682 6.67342 7.41062C6.71152 7.55742 6.79562 7.68512 6.86982 7.81532C7.08112 8.18272 7.29282 8.54991 7.50402 8.91731C7.55962 9.01221 7.59682 9.11651 7.62322 9.22291C7.83062 8.91611 7.84402 8.49402 7.66302 8.17182C7.49592 7.88022 7.32622 7.59022 7.15812 7.29932C7.09532 7.18912 7.02472 7.08171 6.98472 6.96041C6.88302 6.66681 6.92222 6.32602 7.09682 6.06792C7.12192 6.17492 7.15892 6.27962 7.21532 6.37452C7.46242 6.80072 7.70832 7.22772 7.95382 7.65492C8.05132 7.83162 8.17402 8.00021 8.21102 8.20291C8.42212 7.89191 8.43252 7.46211 8.24442 7.13791C8.04512 6.79001 7.84302 6.44362 7.64432 6.09522V6.09522Z" fill="black"/>
<path d="M11.6347 6.26513C12.018 6.20003 12.4144 6.24373 12.7835 6.36003C12.7846 6.51133 12.7429 6.65873 12.7027 6.80323C12.4374 6.71853 12.1587 6.66453 11.8791 6.68073C11.7529 6.69093 11.6195 6.71963 11.5223 6.80643C11.3895 6.92643 11.3845 7.14893 11.4889 7.28853C11.5817 7.41043 11.7247 7.47833 11.861 7.54043C12.1535 7.66783 12.4684 7.77463 12.7022 8.00123C12.9499 8.23463 12.9927 8.63013 12.8563 8.93223C12.7467 9.17313 12.5022 9.32183 12.2527 9.38313C12.0453 9.43673 11.8289 9.44163 11.6161 9.43033C11.391 9.41863 11.1651 9.37993 10.9553 9.29523C10.9336 9.28453 10.9072 9.27863 10.8921 9.25843C10.8964 9.11033 10.926 8.96293 10.9749 8.82313C11.2745 8.95033 11.604 9.01293 11.9293 8.98763C12.0706 8.97273 12.2229 8.94183 12.328 8.83863C12.4295 8.74103 12.4404 8.58233 12.3989 8.45443C12.3604 8.34043 12.2618 8.26163 12.1618 8.20203C11.861 8.02103 11.5049 7.94273 11.227 7.72233C11.0758 7.60573 10.9653 7.43533 10.9321 7.24623C10.8923 7.01793 10.9207 6.76413 11.0658 6.57623C11.2015 6.39793 11.4195 6.30413 11.6347 6.26513V6.26513Z" fill="black"/>
<path d="M18.2787 6.33853C18.4362 6.29923 18.5978 6.26513 18.7612 6.27303C18.7596 6.55073 18.7596 6.82873 18.7612 7.10643C19.0161 7.10683 19.2712 7.10593 19.5263 7.10683C19.521 7.24573 19.5048 7.38403 19.4831 7.52133C19.2425 7.52343 19.0017 7.52153 18.7612 7.52233C18.7591 7.84293 18.761 8.16363 18.7602 8.48423C18.761 8.60713 18.7502 8.73973 18.8144 8.85033C18.8613 8.93593 18.9563 8.98353 19.0506 8.99463C19.2067 9.01273 19.3642 8.98433 19.5129 8.93693C19.5029 9.07413 19.4829 9.21053 19.458 9.34583C19.254 9.42183 19.0298 9.42963 18.8168 9.39333C18.6478 9.36283 18.4815 9.27463 18.3894 9.12543C18.2858 8.96393 18.2704 8.76543 18.2755 8.57863C18.2777 7.83193 18.2713 7.08513 18.2787 6.33853V6.33853Z" fill="black"/>
<path d="M26.21 6.33903C26.3636 6.28623 26.5274 6.26923 26.6893 6.27093C26.6893 7.30023 26.6889 8.32953 26.6897 9.35903C26.5408 9.36053 26.3919 9.36333 26.2432 9.35733C26.2368 9.26653 26.2291 9.17603 26.2189 9.08563C26.1304 9.21963 26.0051 9.33483 25.8474 9.37803C25.5185 9.46923 25.1294 9.38793 24.8986 9.12613C24.6841 8.88613 24.6154 8.55233 24.6169 8.23873C24.6177 7.93613 24.6867 7.61593 24.8934 7.38443C25.0843 7.16723 25.3734 7.06453 25.6553 7.03983C25.8402 7.02043 26.0266 7.03473 26.21 7.06283C26.2106 6.82153 26.2104 6.58043 26.21 6.33903V6.33903ZM25.6617 7.45963C25.5315 7.48043 25.4038 7.53633 25.3117 7.63273C25.1985 7.74803 25.1439 7.90783 25.1234 8.06533C25.1039 8.22893 25.107 8.39713 25.146 8.55763C25.1826 8.71463 25.2717 8.86783 25.4166 8.94693C25.5957 9.04313 25.8168 9.03673 26.004 8.96713C26.0761 8.93483 26.1587 8.90413 26.2085 8.84143C26.2119 8.39553 26.211 7.94933 26.2089 7.50323L26.1985 7.48983C26.0232 7.45133 25.8402 7.43343 25.6617 7.45963V7.45963Z" fill="black"/>
<path d="M13.9254 7.11622C14.1522 7.03472 14.397 7.02302 14.6358 7.03432C14.8627 7.04342 15.0891 7.08062 15.3038 7.15572C15.3059 7.89162 15.3032 8.62762 15.3049 9.36352C15.1574 9.36372 15.0096 9.36302 14.8621 9.36412C14.8502 9.27772 14.8438 9.19072 14.836 9.10392C14.7436 9.22862 14.6223 9.33842 14.4689 9.37902C14.2075 9.44942 13.9118 9.41452 13.6835 9.26462C13.4228 9.09412 13.2907 8.78482 13.2558 8.48422C13.2218 8.17422 13.2431 7.84442 13.3922 7.56462C13.5035 7.35342 13.7009 7.19402 13.9254 7.11622V7.11622ZM14.3136 7.45812C14.1566 7.47962 14.0024 7.55142 13.9017 7.67612C13.7824 7.82232 13.74 8.01512 13.7343 8.20012C13.7294 8.38252 13.7481 8.57272 13.8349 8.73632C13.8984 8.85782 14.0111 8.95352 14.1436 8.99122C14.3722 9.05652 14.6304 9.00432 14.817 8.85732C14.8151 8.39552 14.8164 7.93382 14.8164 7.47192C14.6502 7.44742 14.4804 7.43572 14.3136 7.45812V7.45812Z" fill="black"/>
<path d="M15.8325 7.15933C16.2161 7.06323 16.6161 7.00603 17.0114 7.04923C17.2315 7.07553 17.4651 7.14133 17.6162 7.31383C17.7566 7.47293 17.7924 7.69403 17.79 7.89953C17.7879 8.38763 17.7939 8.87613 17.787 9.36433C17.6307 9.36133 17.4747 9.36643 17.3186 9.36223L17.3058 9.35223C17.3028 8.88013 17.3064 8.40783 17.3041 7.93573C17.3015 7.82123 17.2871 7.69743 17.2132 7.60493C17.1424 7.51683 17.0294 7.47893 16.9216 7.46233C16.739 7.43493 16.5529 7.45003 16.3708 7.47323C16.3514 7.47803 16.3127 7.47423 16.319 7.50573C16.3161 8.12523 16.3231 8.74503 16.3154 9.36433C16.1591 9.36143 16.0027 9.36623 15.8465 9.36243L15.8348 9.35113C15.831 8.62073 15.8355 7.88993 15.8325 7.15933V7.15933Z" fill="black"/>
<path d="M20.2899 7.14C20.5937 7.0096 20.9337 7.0149 21.2568 7.0474C21.4211 7.0645 21.5832 7.1004 21.74 7.1525C21.7411 7.8606 21.7392 8.5688 21.7409 9.2771C21.7355 9.3033 21.7521 9.3397 21.7281 9.359C21.5839 9.3624 21.4396 9.3605 21.2956 9.3592C21.2866 9.2737 21.2777 9.1884 21.269 9.1029C21.1777 9.2205 21.0647 9.328 20.9184 9.3707C20.6671 9.4447 20.3826 9.4167 20.1546 9.2856C19.8986 9.1378 19.7512 8.8554 19.7025 8.5714C19.6521 8.2657 19.6625 7.9406 19.7816 7.6512C19.8752 7.4225 20.0618 7.2355 20.2899 7.14V7.14ZM20.7477 7.4591C20.5913 7.4812 20.4375 7.5532 20.3375 7.678C20.2186 7.8236 20.176 8.0155 20.1699 8.1997C20.1656 8.3774 20.1827 8.5622 20.2637 8.7231C20.3263 8.8501 20.4411 8.9518 20.578 8.9909C20.8077 9.0571 21.0658 9.0041 21.2552 8.8595C21.2541 8.3967 21.2569 7.9336 21.2537 7.471C21.0864 7.4481 20.9156 7.4351 20.7477 7.4591V7.4591Z" fill="black"/>
<path d="M23.0042 7.03922C23.2567 7.02642 23.5169 7.03432 23.7576 7.11942C23.9292 7.17932 24.0831 7.30342 24.1535 7.47382C24.2467 7.68492 24.2224 7.92022 24.2258 8.14462C24.2233 8.55122 24.2305 8.95802 24.2222 9.36452C24.0629 9.36302 23.9039 9.36262 23.7448 9.36482C23.7329 8.87092 23.7471 8.37632 23.7376 7.88232C23.7341 7.73592 23.6739 7.57442 23.5303 7.51292C23.3072 7.41792 23.0563 7.44642 22.8217 7.47122C22.8019 7.47982 22.7525 7.46952 22.7583 7.50292C22.757 8.12312 22.7574 8.74332 22.7582 9.36352C22.5965 9.36432 22.4349 9.36222 22.2734 9.36472C22.2634 8.62972 22.273 7.89422 22.2685 7.15912C22.5089 7.09492 22.7563 7.05852 23.0042 7.03922V7.03922Z" fill="black"/>
<path d="M27.5224 7.20192C27.7475 7.04892 28.0311 7.01232 28.2971 7.03342C28.5764 7.05302 28.8577 7.18942 29.0045 7.43532C29.1872 7.72742 29.1743 8.08892 29.1338 8.41802C28.6177 8.41932 28.1016 8.41652 27.5858 8.41952C27.6086 8.57062 27.6639 8.72502 27.7782 8.83142C27.8864 8.93412 28.0354 8.98012 28.1811 8.99392C28.4885 9.02072 28.7983 8.95672 29.0806 8.83562C29.0643 8.98242 29.0383 9.12782 29.0087 9.27242C28.6985 9.41202 28.3468 9.43902 28.0128 9.39302C27.732 9.35392 27.4535 9.21822 27.2929 8.97772C27.0995 8.69202 27.069 8.32912 27.1014 7.99442C27.1322 7.69082 27.2607 7.37662 27.5224 7.20192V7.20192ZM27.7571 7.56892C27.6373 7.68252 27.5912 7.85062 27.5756 8.01012C27.9409 8.01062 28.3064 8.01122 28.6719 8.00992C28.6683 7.86832 28.6405 7.71982 28.5486 7.60762C28.4607 7.49792 28.3192 7.44472 28.1818 7.43932C28.0318 7.43122 27.8694 7.46252 27.7571 7.56892V7.56892Z" fill="black"/>
<path d="M29.5838 7.1534C29.9878 7.0357 30.4146 7.0125 30.8325 7.0494C30.8352 7.1885 30.818 7.327 30.7929 7.4636C30.552 7.4447 30.3093 7.4381 30.0695 7.4712C30.0629 8.1021 30.0697 8.7333 30.0659 9.3645C29.9048 9.3628 29.7436 9.3631 29.5825 9.3643C29.5819 8.6273 29.5795 7.8902 29.5838 7.1534V7.1534Z" fill="black"/>
<path d="M74.5185 8.37162C74.5185 8.49492 74.505 8.60522 74.4781 8.70382C74.4517 8.80232 74.4124 8.88632 74.3602 8.95522C74.3085 9.02472 74.2444 9.07802 74.1691 9.11462C74.0937 9.15182 74.007 9.17012 73.9095 9.17012C73.8643 9.17012 73.8223 9.16582 73.7841 9.15662C73.7458 9.14802 73.7081 9.13352 73.6715 9.11352C73.6349 9.09312 73.5983 9.06832 73.5611 9.03762C73.5245 9.00692 73.4858 8.97032 73.4448 8.92722V9.10172C73.4448 9.10982 73.4427 9.11732 73.4384 9.12382C73.4341 9.13022 73.4276 9.13512 73.4179 9.13882C73.4082 9.14262 73.3964 9.14532 73.3824 9.14752C73.3678 9.14962 73.3495 9.15072 73.3275 9.15072C73.3065 9.15072 73.2881 9.14962 73.2736 9.14752C73.2585 9.14532 73.2467 9.14262 73.237 9.13882C73.2278 9.13512 73.2214 9.13022 73.2181 9.12382C73.2149 9.11732 73.2133 9.11032 73.2133 9.10172V6.99472C73.2133 6.98612 73.2149 6.97862 73.2187 6.97272C73.2225 6.96622 73.2295 6.96082 73.2397 6.95652C73.2494 6.95272 73.2628 6.94952 73.2801 6.94742C73.2968 6.94522 73.3178 6.94412 73.3436 6.94412C73.37 6.94412 73.3915 6.94522 73.4082 6.94742C73.4255 6.94952 73.4384 6.95272 73.4481 6.95652C73.4578 6.96082 73.4642 6.96622 73.4685 6.97272C73.4728 6.97862 73.475 6.98612 73.475 6.99472V7.84332C73.517 7.80032 73.5574 7.76362 73.5972 7.73402C73.6365 7.70502 73.6748 7.68072 73.7124 7.66242C73.7507 7.64412 73.7884 7.63062 73.8261 7.62202C73.8638 7.61402 73.9036 7.60962 73.9456 7.60962C74.0484 7.60962 74.1362 7.63012 74.2094 7.67102C74.2821 7.71202 74.3414 7.76742 74.3871 7.83582C74.4329 7.90472 74.4663 7.98552 74.4873 8.07812C74.5083 8.17072 74.5185 8.26872 74.5185 8.37162V8.37162ZM74.2471 8.40172C74.2471 8.32902 74.2417 8.25852 74.2304 8.19012C74.2197 8.12122 74.2003 8.06092 74.1728 8.00812C74.1454 7.95532 74.1093 7.91282 74.0641 7.88102C74.0188 7.84872 73.9623 7.83262 73.895 7.83262C73.8616 7.83262 73.8282 7.83742 73.7954 7.84662C73.7631 7.85632 73.7297 7.87242 73.6963 7.89452C73.6624 7.91662 73.6274 7.94512 73.5913 7.98012C73.5547 8.01462 73.5159 8.05872 73.475 8.11152V8.67792C73.5466 8.76572 73.615 8.83252 73.6801 8.87822C73.7453 8.92402 73.8137 8.94722 73.8842 8.94722C73.9494 8.94722 74.0048 8.93152 74.0511 8.89982C74.0974 8.86802 74.1351 8.82602 74.1642 8.77382C74.1933 8.72212 74.2143 8.66342 74.2272 8.59882C74.2407 8.53362 74.2471 8.46792 74.2471 8.40172V8.40172Z" fill="black"/>
<path d="M75.1722 9.10172C75.1722 9.11032 75.17 9.11732 75.1657 9.12322C75.1614 9.12862 75.155 9.13402 75.1453 9.13832C75.1356 9.14212 75.1227 9.14532 75.1054 9.14752C75.0887 9.14962 75.0672 9.15072 75.0408 9.15072C75.015 9.15072 74.994 9.14962 74.9773 9.14752C74.96 9.14532 74.9466 9.14212 74.9369 9.13832C74.9267 9.13402 74.9197 9.12862 74.9159 9.12322C74.9121 9.11732 74.9105 9.11032 74.9105 9.10172V6.99472C74.9105 6.98612 74.9121 6.97862 74.9159 6.97272C74.9197 6.96622 74.9267 6.96082 74.9369 6.95652C74.9466 6.95272 74.96 6.94952 74.9773 6.94742C74.994 6.94522 75.015 6.94412 75.0408 6.94412C75.0672 6.94412 75.0887 6.94522 75.1054 6.94742C75.1227 6.94952 75.1356 6.95272 75.1453 6.95652C75.155 6.96082 75.1614 6.96622 75.1657 6.97272C75.17 6.97862 75.1722 6.98612 75.1722 6.99472V9.10172V9.10172Z" fill="black"/>
<path d="M76.7213 9.10332C76.7213 9.11572 76.717 9.12542 76.7089 9.13182C76.7003 9.13832 76.689 9.14262 76.6739 9.14582C76.6593 9.14912 76.6378 9.15072 76.6093 9.15072C76.5823 9.15072 76.5603 9.14912 76.5441 9.14582C76.528 9.14262 76.5161 9.13832 76.5086 9.13182C76.501 9.12542 76.4973 9.11622 76.4973 9.10332V8.96122C76.4353 9.02742 76.3664 9.07912 76.29 9.11572C76.2135 9.15182 76.1327 9.17012 76.0477 9.17012C75.9728 9.17012 75.905 9.16042 75.8447 9.14102C75.7844 9.12162 75.7327 9.09312 75.6901 9.05652C75.6476 9.01982 75.6142 8.97412 75.5905 8.92082C75.5668 8.86692 75.555 8.80612 75.555 8.73772C75.555 8.65752 75.5711 8.58802 75.604 8.52932C75.6363 8.47012 75.6831 8.42112 75.7445 8.38232C75.8054 8.34362 75.8802 8.31392 75.9685 8.29462C76.0568 8.27522 76.1564 8.26552 76.2668 8.26552H76.4628V8.15462C76.4628 8.10022 76.4569 8.05172 76.4456 8.00922C76.4337 7.96722 76.4154 7.93222 76.3896 7.90422C76.3637 7.87622 76.3303 7.85522 76.2894 7.84122C76.2485 7.82662 76.1979 7.81962 76.1381 7.81962C76.074 7.81962 76.0164 7.82722 75.9658 7.84282C75.9147 7.85842 75.87 7.87512 75.8317 7.89392C75.7935 7.91282 75.7612 7.92952 75.7354 7.94512C75.7101 7.96072 75.6907 7.96832 75.6783 7.96832C75.6697 7.96832 75.6621 7.96612 75.6562 7.96182C75.6497 7.95802 75.6444 7.95162 75.6395 7.94292C75.6347 7.93492 75.6314 7.92412 75.6293 7.91122C75.6271 7.89772 75.6261 7.88372 75.6261 7.86762C75.6261 7.84172 75.6277 7.82072 75.6314 7.80562C75.6352 7.79062 75.6444 7.77602 75.6584 7.76262C75.6724 7.74912 75.6971 7.73302 75.7316 7.71412C75.7661 7.69582 75.8064 7.67862 75.8517 7.66302C75.8964 7.64792 75.9459 7.63502 75.9997 7.62472C76.053 7.61452 76.1074 7.60962 76.1618 7.60962C76.2636 7.60962 76.3503 7.62102 76.4219 7.64412C76.4935 7.66732 76.5511 7.70172 76.5953 7.74642C76.6394 7.79112 76.6712 7.84662 76.6911 7.91282C76.711 7.97902 76.7213 8.05662 76.7213 8.14492V9.10332V9.10332ZM76.4628 8.45292H76.2404C76.1694 8.45292 76.1074 8.45882 76.0547 8.47122C76.0024 8.48302 75.9588 8.50132 75.9238 8.52502C75.8894 8.54872 75.8641 8.57672 75.8474 8.61012C75.8312 8.64352 75.8231 8.68172 75.8231 8.72482C75.8231 8.79852 75.8463 8.85722 75.8931 8.90092C75.94 8.94452 76.0051 8.96652 76.0897 8.96652C76.1575 8.96652 76.221 8.94932 76.2792 8.91432C76.3373 8.87992 76.3987 8.82652 76.4628 8.75492V8.45292V8.45292Z" fill="black"/>
<path d="M78.2203 8.88312C78.2203 8.90092 78.2198 8.91652 78.2187 8.92942C78.2176 8.94292 78.216 8.95362 78.2133 8.96282C78.2106 8.97192 78.2074 8.97952 78.2036 8.98652C78.1998 8.99352 78.1918 9.00371 78.1783 9.01661C78.1654 9.03011 78.1428 9.04622 78.1115 9.06622C78.0798 9.08552 78.0442 9.10332 78.0049 9.11842C77.9651 9.13402 77.9225 9.14642 77.8762 9.15552C77.8299 9.16522 77.782 9.17012 77.7325 9.17012C77.6302 9.17012 77.5397 9.15342 77.4611 9.11952C77.3819 9.08612 77.3157 9.03712 77.2629 8.97252C77.2096 8.90792 77.1692 8.82822 77.1412 8.73452C77.1133 8.64022 77.0993 8.53202 77.0993 8.40872C77.0993 8.26922 77.1165 8.14921 77.1504 8.04852C77.1849 7.94832 77.2317 7.86602 77.2909 7.80192C77.3507 7.73782 77.4207 7.69042 77.5009 7.65922C77.5817 7.62852 77.6689 7.61292 77.7626 7.61292C77.8079 7.61292 77.8515 7.61722 77.894 7.62582C77.9371 7.63392 77.9758 7.64522 78.0119 7.65862C78.0475 7.67262 78.0798 7.68831 78.1072 7.70661C78.1352 7.72431 78.1557 7.74002 78.1681 7.75232C78.181 7.76532 78.1896 7.77552 78.1945 7.78252C78.1988 7.79002 78.2031 7.79862 78.2063 7.80892C78.209 7.81862 78.2112 7.82992 78.2122 7.84282C78.2133 7.85522 78.2138 7.87132 78.2138 7.89022C78.2138 7.93112 78.209 7.95962 78.1998 7.97632C78.1902 7.99252 78.1788 8.00062 78.1648 8.00062C78.1492 8.00062 78.1309 7.99192 78.1105 7.97422C78.09 7.95692 78.0642 7.93761 78.0324 7.91661C78.0006 7.89561 77.9624 7.87622 77.9177 7.85902C77.873 7.84122 77.8202 7.83262 77.7594 7.83262C77.6339 7.83262 77.5375 7.88052 77.4708 7.97692C77.404 8.07272 77.3706 8.21221 77.3706 8.39471C77.3706 8.48571 77.3792 8.56592 77.3965 8.63492C77.4142 8.70322 77.4396 8.76091 77.4735 8.80721C77.5069 8.85291 77.5483 8.88742 77.5973 8.91002C77.6463 8.93262 77.7023 8.94392 77.7653 8.94392C77.8256 8.94392 77.8784 8.93422 77.9236 8.91542C77.9688 8.89652 78.0076 8.87552 78.041 8.85242C78.0744 8.82982 78.1024 8.80931 78.125 8.79101C78.1476 8.77221 78.1648 8.76302 78.1778 8.76302C78.1848 8.76302 78.1912 8.76522 78.1966 8.76952C78.202 8.77382 78.2063 8.78082 78.2101 8.79052C78.2138 8.80072 78.2165 8.81312 78.2181 8.82872C78.2198 8.84382 78.2203 8.86212 78.2203 8.88312V8.88312Z" fill="black"/>
<path d="M79.7317 9.10012C79.7317 9.10872 79.7295 9.11622 79.7252 9.12222C79.7209 9.12862 79.7139 9.13402 79.7042 9.13832C79.694 9.14212 79.68 9.14532 79.6622 9.14752C79.6445 9.14962 79.6218 9.15072 79.5944 9.15072C79.5664 9.15072 79.5427 9.15022 79.5244 9.14852C79.5061 9.14692 79.4905 9.14422 79.4781 9.14052C79.4652 9.13672 79.4549 9.13132 79.4474 9.12482C79.4393 9.11782 79.4323 9.10982 79.4258 9.10012L78.8271 8.31392V9.10172C78.8271 9.11032 78.8249 9.11732 78.8206 9.12322C78.8163 9.12862 78.8099 9.13402 78.8002 9.13832C78.7905 9.14212 78.7776 9.14532 78.7603 9.14752C78.7436 9.14962 78.7221 9.15072 78.6957 9.15072C78.6699 9.15072 78.6489 9.14962 78.6322 9.14752C78.6149 9.14532 78.6015 9.14212 78.5918 9.13832C78.5816 9.13402 78.5746 9.12862 78.5708 9.12322C78.567 9.11732 78.5654 9.11032 78.5654 9.10172V6.99472C78.5654 6.98612 78.567 6.97862 78.5708 6.97272C78.5746 6.96622 78.5816 6.96082 78.5918 6.95652C78.6015 6.95272 78.6149 6.94952 78.6322 6.94742C78.6489 6.94522 78.6699 6.94412 78.6957 6.94412C78.7221 6.94412 78.7436 6.94522 78.7603 6.94742C78.7776 6.94952 78.7905 6.95272 78.8002 6.95652C78.8099 6.96082 78.8163 6.96622 78.8206 6.97272C78.8249 6.97862 78.8271 6.98612 78.8271 6.99472V8.27792L79.3618 7.68772C79.3704 7.67702 79.3795 7.66832 79.3887 7.66132C79.3984 7.65492 79.4097 7.64902 79.4226 7.64412C79.4355 7.63932 79.4512 7.63602 79.4689 7.63442C79.4867 7.63282 79.5082 7.63232 79.5335 7.63232C79.5599 7.63232 79.582 7.63282 79.5998 7.63442C79.6175 7.63602 79.6321 7.63872 79.6428 7.64252C79.6536 7.64632 79.6617 7.65112 79.6665 7.65652C79.6714 7.66242 79.6735 7.67002 79.6735 7.67962C79.6735 7.69202 79.6703 7.70502 79.6633 7.71732C79.6563 7.73032 79.6455 7.74482 79.6294 7.76152L79.1179 8.27622L79.694 9.02582C79.7075 9.04412 79.7171 9.05812 79.7231 9.06942C79.729 9.08072 79.7317 9.09092 79.7317 9.10012V9.10012Z" fill="black"/>
</svg>
