<svg width="85" height="54" viewBox="0 0 85 54" fill="none" xmlns="http://www.w3.org/2000/svg">
<path d="M24.6888 13.9869C26.1164 12.6755 27.4344 11.2493 28.8527 9.92859C29.5374 10.5276 30.1034 11.244 30.7763 11.8549C31.7447 12.7481 32.6129 13.7455 33.5984 14.6189C35.1262 13.1439 36.6039 11.6174 38.1198 10.1318C38.3058 9.91139 38.6185 9.98139 38.8718 9.96029C41.5673 9.97879 44.2627 9.95629 46.9581 9.97079C44.6822 12.2797 42.3655 14.5463 40.05 16.8143C39.3719 17.5597 38.5789 18.1943 37.943 18.9793C38.8916 20.0783 40.0843 20.9768 40.959 22.1352C41.0488 26.1684 40.9313 30.2109 41.0184 34.2455C40.302 33.6333 39.6806 32.9196 39.0077 32.2612C36.9297 30.1634 34.8584 28.0591 32.7777 25.9626C32.5086 25.6961 32.2606 25.4045 31.9571 25.1776C31.8067 25.0338 31.6405 25.2027 31.5283 25.3003C28.5189 28.2833 25.5557 31.3152 22.5225 34.2732C22.5119 31.492 22.5212 28.7095 22.5172 25.927C22.4605 25.5233 22.8378 25.2964 23.0753 25.0365C24.0793 24.0179 25.1493 23.0653 26.1243 22.0178C26.5636 21.5652 27.0584 21.1655 27.4449 20.6641C25.9172 19.0387 24.2733 17.5241 22.7428 15.9026C23.3418 15.2139 24.0714 14.6572 24.6888 13.9869V13.9869Z" fill="black"/>
<path d="M50.1773 11.1055C51.5455 10.4313 53.068 10.1384 54.5734 9.97078C58.0156 9.96288 61.4577 9.96418 64.8999 9.97078C63.0673 11.8839 61.1516 13.7178 59.2993 15.611C59.1212 15.7905 58.9483 15.9778 58.7438 16.1282C56.9508 16.3248 55.076 15.8709 53.3411 16.5121C51.2988 17.2483 49.5651 19.0229 49.1944 21.2037C49.1443 22.1062 49.1007 23.0337 49.3408 23.9163C49.8527 25.5339 50.9993 27.0062 52.6062 27.6421C54.0641 28.2675 55.675 27.968 57.2094 28.0498C57.2226 30.0671 57.2226 32.0857 57.2107 34.103C55.8492 34.1149 54.4876 34.1215 53.1274 34.1017C51.0507 33.8893 48.9912 33.1623 47.3579 31.8417C45.8644 30.7215 44.7033 29.2095 43.8524 27.5577C42.7467 25.0945 42.3589 22.2711 42.9974 19.6298C43.8022 15.8274 46.7312 12.7375 50.1773 11.1055V11.1055Z" fill="black"/>
<path d="M44.9276 37.3763C45.524 37.2246 46.1309 37.3763 46.7206 37.4845C47.0175 37.5544 47.3486 37.6111 47.5703 37.8433C47.6019 38.1006 47.5874 38.3605 47.5848 38.6205C46.5135 38.2299 45.2601 37.9265 44.1941 38.4898C42.8444 39.1812 42.7045 41.271 43.793 42.2579C44.2627 42.6418 44.8603 42.8859 45.4752 42.8318C46.2615 42.9057 46.9594 42.4703 47.7273 42.403C47.6732 42.6774 47.7326 43.0469 47.4898 43.2395C46.6309 43.7039 45.6242 43.6274 44.6835 43.6076C43.6782 43.5469 42.7758 42.8292 42.4486 41.8832C42.0343 40.9557 42.0871 39.8527 42.5343 38.949C43.0476 38.1072 43.9262 37.4634 44.9276 37.3763V37.3763Z" fill="black"/>
<path d="M22.6254 37.4106C22.9737 37.4001 23.322 37.4053 23.6703 37.4198C24.2772 38.1666 24.8115 38.9674 25.4211 39.7102C26.0715 39.0017 26.6019 38.1917 27.1916 37.433C27.5307 37.4066 27.8698 37.3987 28.2102 37.408C27.6112 38.4582 26.6797 39.2762 26.0874 40.3277C26.1824 40.771 26.6402 41.1008 26.8842 41.4953C27.3618 42.2091 28.0162 42.8107 28.3658 43.6036C27.9912 43.5548 27.5056 43.7171 27.2352 43.3767C26.6072 42.6194 26.0254 41.8252 25.425 41.0454C24.7033 41.7249 24.2218 42.6075 23.6004 43.3727C23.3326 43.7158 22.8444 43.5311 22.475 43.5693C23.0977 42.3951 24.0965 41.4597 24.7812 40.3184C24.0556 39.3553 23.2745 38.4278 22.6254 37.4106V37.4106Z" fill="black"/>
<path d="M28.5994 37.4211C29.829 37.3987 31.0586 37.4001 32.2883 37.4198C32.2843 37.7127 32.2738 38.007 32.254 38.2998C31.345 38.3777 30.4306 38.3038 29.5203 38.3407C29.4992 38.9067 29.4992 39.4741 29.5203 40.0414C30.3963 40.0691 31.2737 40.0256 32.1497 40.0572C32.1497 40.3145 32.1497 40.5718 32.1497 40.8303C31.2737 40.862 30.3963 40.8185 29.5203 40.8462C29.4992 41.4636 29.4992 42.0811 29.5203 42.6985C30.4847 42.7394 31.4492 42.6735 32.4149 42.6999C32.4176 42.9888 32.4176 43.2777 32.4149 43.568C31.1431 43.539 29.8726 43.6261 28.6007 43.5825C28.5757 41.5283 28.5809 39.4741 28.5994 37.4211V37.4211Z" fill="black"/>
<path d="M32.9478 37.4172C34.0693 37.4502 35.2264 37.2655 36.3175 37.5913C37.3677 37.9647 37.6342 39.511 36.8492 40.267C36.6183 40.4424 36.3623 40.5823 36.1143 40.7314C36.5193 41.0758 36.8386 41.5032 37.0932 41.9676C37.394 42.5085 37.8519 42.9809 37.9891 43.5997C37.6711 43.5851 37.3479 43.5851 37.0405 43.4981C36.3636 42.7817 36.1024 41.7183 35.2554 41.1536C34.8068 41.0256 34.3332 41.0639 33.874 41.1074C33.8384 41.9228 33.9017 42.7408 33.8358 43.5548C33.5429 43.5838 33.25 43.6049 32.9558 43.6168C32.9254 41.5507 32.9399 39.4833 32.9478 37.4172V37.4172ZM33.8925 38.2668C33.8437 38.9002 33.8529 39.5361 33.874 40.1707C34.5271 40.1456 35.2303 40.3079 35.8517 40.0546C36.4547 39.7986 36.5708 38.9067 36.0641 38.503C35.3979 38.1547 34.6182 38.1653 33.8925 38.2668Z" fill="black"/>
<path d="M38.3586 37.4159C39.542 37.4066 40.7281 37.3934 41.9116 37.4238C41.9367 37.7141 41.9551 38.0056 41.9697 38.2972C41.0738 38.3803 40.174 38.3012 39.2769 38.3407C39.236 38.9054 39.2188 39.4727 39.2716 40.0374C40.1081 40.0704 40.9445 40.0256 41.781 40.0572C41.781 40.3145 41.781 40.5718 41.781 40.8303C40.9445 40.8607 40.1067 40.8171 39.2703 40.8501C39.2333 41.4702 39.2122 42.093 39.2624 42.7131C40.2334 42.75 41.2044 42.6972 42.1755 42.7038C42.1781 42.9862 42.1807 43.2711 42.1821 43.5561C40.9076 43.5904 39.6318 43.5561 38.3573 43.5997C38.3454 41.5388 38.3441 39.4767 38.3586 37.4159V37.4159Z" fill="black"/>
<path d="M50.5295 37.4159C50.8092 37.4066 51.0902 37.3869 51.3699 37.4238C51.5691 37.6666 51.6179 37.9911 51.742 38.2748C52.3066 39.6429 52.8528 41.0203 53.4241 42.3872C53.5798 42.7764 53.7948 43.1564 53.8186 43.5851C53.5151 43.5706 53.2143 43.5508 52.9135 43.5218C52.6945 42.9888 52.4689 42.4597 52.275 41.9175C51.3857 41.8727 50.4938 41.8845 49.6046 41.9096C49.3737 42.4452 49.156 42.9849 48.9502 43.5324C48.6336 43.5403 48.3156 43.5495 47.999 43.5522C48.3011 42.6392 48.7193 41.7697 49.0729 40.8765C49.5347 39.7129 50.0163 38.5571 50.5295 37.4159V37.4159ZM49.9278 41.0876C50.5981 41.118 51.2696 41.1206 51.9399 41.0784C51.6364 40.2274 51.267 39.4028 50.953 38.5558C50.5348 39.3632 50.2036 40.2208 49.9278 41.0876Z" fill="black"/>
<path d="M54.1696 37.4225C55.1539 37.4291 56.1526 37.3209 57.1263 37.4964C57.9549 37.6178 58.571 38.4687 58.4351 39.2946C58.4536 39.9781 57.8849 40.4556 57.315 40.7129C58.104 41.5652 58.7029 42.5811 59.2346 43.6076C58.9721 43.6049 58.7056 43.6339 58.4496 43.5746C58.0037 43.4229 57.8401 42.9321 57.5868 42.5811C57.2398 42.0679 57.0089 41.3739 56.3782 41.147C55.9191 41.052 55.4468 41.1021 54.9837 41.1035C54.9546 41.9201 54.9876 42.7368 54.9745 43.5522C54.6842 43.5469 54.3953 43.5495 54.105 43.5442C54.1749 42.0257 54.2079 40.5045 54.1749 38.9859C54.138 38.4648 54.0469 37.9396 54.1696 37.4225V37.4225ZM54.9784 38.3381C54.9665 38.949 54.9613 39.5598 54.9837 40.1707C55.5866 40.1773 56.1922 40.2195 56.7938 40.1575C57.2028 40.0401 57.5577 39.6984 57.592 39.2564C57.5524 38.8975 57.3519 38.5518 57.0274 38.3817C56.373 38.1573 55.6368 38.1046 54.9784 38.3381V38.3381Z" fill="black"/>
<path d="M59.4682 37.4172C60.8719 37.4489 62.3588 37.214 63.6835 37.8064C64.6558 38.2299 65.0305 39.3382 65.1255 40.3171C65.1136 41.4848 64.541 42.7276 63.4434 43.2408C62.1939 43.8028 60.8007 43.4954 59.4813 43.5719C59.4404 41.5204 59.4615 39.4675 59.4682 37.4172V37.4172ZM60.3943 38.3368C60.3851 39.8197 60.3561 41.304 60.4102 42.7843C61.1345 42.7869 61.8601 42.7236 62.5778 42.6339C63.636 42.4558 64.2416 41.3132 64.2165 40.3171C64.1399 39.6297 63.855 38.8711 63.1914 38.5545C62.3232 38.123 61.3231 38.251 60.3943 38.3368V38.3368Z" fill="black"/>
</svg>
