<svg width="85" height="54" viewBox="0 0 85 54" fill="none" xmlns="http://www.w3.org/2000/svg">
<path d="M12.2632 22.5866C12.2396 22.1495 12.1899 21.674 12.4342 21.2839C12.5738 21.352 12.7126 21.4209 12.8504 21.4907C12.8111 20.4795 12.9883 19.4752 13.2588 18.504C13.6732 16.9605 14.2953 15.479 15.0396 14.0663C15.7254 12.8229 16.5003 11.6031 17.5482 10.632C17.6258 10.5439 17.7358 10.5072 17.8518 10.5334C18.3134 10.5858 18.7915 10.5657 19.2304 10.4008C19.4826 10.3153 19.5707 10.0395 19.6841 9.82489C19.877 9.82929 20.0776 9.79519 20.2652 9.84929C20.7565 10.2559 20.9816 10.8754 21.1753 11.4626C21.3873 12.1136 21.4065 12.8168 21.3001 13.4895C21.2189 13.8124 21.5086 14.041 21.7049 14.2504C21.8428 14.4153 22.0513 14.4747 22.2546 14.5139C22.3349 14.1911 22.1874 13.8839 22.0819 13.5873C22.5199 13.5358 22.7808 13.9398 22.8811 14.3071C23.7615 13.5943 24.5093 12.7331 25.4115 12.0464C25.6698 11.8265 26.0729 11.8413 26.3294 12.056C26.6688 12.3299 26.8189 12.754 27.003 13.1336C27.4113 12.9207 27.7699 12.59 28.2368 12.5053C28.4523 12.4495 28.6573 12.5629 28.851 12.6414C29.2533 11.5743 29.6398 10.5011 30.0569 9.43919C30.2846 9.48719 30.5158 9.52129 30.747 9.55349C30.467 10.5692 30.0944 11.5577 29.7742 12.5603C29.9757 12.5472 30.1878 12.4922 30.3858 12.5603C30.5368 12.6467 30.6354 12.7968 30.7479 12.9241C30.9931 12.9285 31.2714 12.9582 31.4617 12.768C31.7479 12.521 32.1257 12.3273 32.514 12.4102C32.876 12.5018 33.2347 12.6624 33.5034 12.9268C33.6779 13.0926 33.6107 13.3517 33.6238 13.5646C33.5845 14.7608 33.8219 15.9929 34.4815 17.0085C34.7738 17.491 35.108 17.9605 35.5521 18.3156C35.7825 18.2885 36.0687 18.367 36.2414 18.169C36.5198 17.888 36.7737 17.58 37.0965 17.3453C37.5441 16.957 38.1174 16.7118 38.4812 16.2311C38.7604 15.1849 38.8084 14.0855 39.1496 13.0524C39.5204 11.7471 40.1478 10.5273 40.927 9.4209C41.7026 8.4751 42.7593 7.76219 43.9363 7.42369C44.4538 7.28489 44.9668 7.01359 45.5165 7.09909C46.4335 7.22469 47.3384 6.9734 48.231 6.8007C49.3094 6.5101 50.4132 6.3016 51.5318 6.2658C52.2455 6.2676 52.9654 6.189 53.6521 5.9883C55.1127 5.5041 56.4712 4.7231 57.986 4.4047C58.9065 4.19 59.8558 4.1839 60.7903 4.0592C61.9508 3.9169 63.1741 4.10979 64.2813 3.65519C64.448 4.10889 64.893 4.341 65.3362 4.4509C65.8711 3.8436 66.3641 3.1849 67.0098 2.6867C67.884 2.1265 68.9782 2.26089 69.965 2.29309C70.3062 2.45459 70.451 2.86639 70.7346 3.11069C70.9798 2.9554 71.1613 2.72589 71.3855 2.54439C71.7058 2.40569 72.06 2.52349 72.3959 2.48769C73.1402 2.42399 73.8941 2.42929 74.6244 2.25389C74.9813 2.17359 75.2369 1.8944 75.5301 1.6963C75.859 1.4459 76.2456 1.2583 76.66 1.2086C77.0623 1.1623 77.4453 1.3255 77.8371 1.38749C78.892 1.65709 79.967 1.8403 81.0367 2.041C81.8281 2.2138 82.6483 2.25559 83.4205 2.51479C83.9483 2.69189 84.4867 2.84199 84.9989 3.06269C84.9727 5.32779 84.991 7.59379 84.9902 9.85979C84.7197 9.54389 84.4361 9.2115 84.0408 9.0509C83.4745 8.8075 82.8455 8.90699 82.2486 8.88689C81.2365 8.83719 80.3762 9.4741 79.604 10.0465C78.947 10.5028 78.344 11.1049 77.53 11.2637C76.9689 11.3553 76.3581 11.4103 75.8276 11.1634C75.5345 11.0412 75.3591 10.6704 75.5065 10.3763C75.6374 10.1486 75.8966 10.043 76.1313 9.95309C76.8834 9.69659 77.6879 9.8057 78.4662 9.7551C78.4679 9.5623 78.4784 9.366 78.4444 9.174C77.8537 9.1321 77.2586 9.15739 76.667 9.14169C75.9594 9.14689 75.25 9.09199 74.5433 9.14869C74.5424 9.36849 74.5249 9.5902 74.5598 9.8083C74.6575 9.9139 74.771 10.0038 74.8783 10.0997C74.6663 10.3641 74.4429 10.6791 74.552 11.0386C74.7893 11.6049 75.2954 12.1153 75.9332 12.1738C76.6775 12.2471 77.434 12.2235 78.1713 12.0909C78.9705 11.8989 79.6179 11.3623 80.2959 10.9278C80.918 10.5369 81.4852 9.9654 82.2452 9.872C82.7669 9.8441 83.3018 9.82139 83.8122 9.95669C84.0801 10.0378 84.2241 10.3345 84.2267 10.5988C84.245 10.8833 83.9946 11.0892 83.7808 11.2306C82.9693 11.6616 82.027 11.4408 81.1527 11.5211C81.1466 11.7488 81.1492 11.9757 81.1667 12.2026C82.4389 12.2392 83.7128 12.2287 84.9858 12.2174C84.9858 12.4626 84.9867 12.7086 84.9893 12.9529C84.3541 12.5202 83.5339 12.5498 82.8036 12.638C82.7992 12.8404 82.8053 13.0411 82.8158 13.2417C83.2494 13.3081 83.6883 13.2566 84.1246 13.2767C84.1255 13.384 84.1246 13.4913 84.1229 13.5969C83.1788 13.637 82.2294 13.5463 81.2862 13.6231C80.7243 13.7007 80.2436 14.0262 79.8797 14.4476C79.3727 13.9372 78.7192 13.521 77.9758 13.5253C77.2787 13.548 76.5632 13.4669 75.887 13.6841C75.3434 13.8264 74.853 14.2434 74.7029 14.7931C74.6741 15.7686 74.6008 16.7424 74.6087 17.7196C74.8975 17.7816 75.1933 17.7711 75.4873 17.7702C75.5746 17.5826 75.5877 17.2153 75.8739 17.2493C78.4941 17.2467 81.1135 17.2493 83.7337 17.2485C83.8663 17.2537 84.0216 17.2476 84.122 17.3531C84.1857 17.4849 84.204 17.6324 84.2415 17.772C84.4893 17.7772 84.738 17.7763 84.9875 17.7685C84.9849 17.9831 84.9858 18.1978 84.9919 18.4115C83.7093 18.381 82.4266 18.3583 81.1449 18.3208C81.0733 18.5442 81.0794 18.7806 81.0882 19.0118C81.7705 19.0145 82.4476 19.1017 83.1299 19.1009C83.4841 19.0878 83.8498 19.2335 84.0591 19.5266C84.2023 19.7256 84.211 20.0467 84.0042 20.2055C83.8602 20.3425 83.6491 20.2962 83.4711 20.3084C82.4432 20.2971 81.4127 20.3512 80.3858 20.305C80.3413 20.1575 80.3884 20.0598 80.5271 20.0127C80.7618 19.9559 81.007 19.9743 81.247 19.9603C81.2496 19.7334 81.2504 19.5066 81.2478 19.2797C80.5332 19.2309 79.8169 19.2701 79.1031 19.2396C78.9199 19.2343 78.7367 19.1541 78.5552 19.2038C78.5273 19.4272 78.5351 19.6532 78.5439 19.8765C78.7716 19.9237 79.1555 19.7928 79.2235 20.1008C79.3125 20.3032 79.0325 20.2203 78.9356 20.2526C78.002 20.2561 77.0692 20.2631 76.1356 20.2639C75.9219 20.2674 75.6374 20.2386 75.5589 20.0013C75.4568 19.6985 75.7186 19.4394 75.9707 19.3207C76.7883 18.8871 77.7437 19.004 78.6346 19.0005C78.6974 18.5939 78.228 18.3749 77.8912 18.347C76.8197 18.3391 75.7491 18.3147 74.6785 18.3156C74.6602 19.5607 74.5956 20.8049 74.6148 22.05C74.894 22.0587 75.1732 22.0622 75.4533 22.0631C75.5955 21.8415 75.736 21.5204 76.0536 21.5483C78.6442 21.5361 81.2365 21.5291 83.8271 21.5326C84.1106 21.5204 84.1883 21.8476 84.2502 22.0631C84.4893 22.064 84.7284 22.0649 84.9683 22.0666C84.9692 22.6294 84.9675 23.1913 84.9701 23.7532C84.587 23.0692 83.7773 22.7786 83.0383 22.6975C81.0576 22.6879 79.0778 22.6861 77.0972 22.6722C76.3529 22.6643 75.5659 22.8214 74.9821 23.3109C74.6663 23.5665 74.5267 23.9818 74.5433 24.3788C74.5494 25.1406 74.4979 25.9032 74.5275 26.664C74.7849 26.8691 75.1575 26.7408 75.4646 26.7775C75.5528 26.6213 75.5606 26.3141 75.7988 26.3316C78.3833 26.3202 80.9686 26.3325 83.554 26.3263C83.6953 26.3351 83.855 26.3133 83.9789 26.3996C84.1525 26.486 84.1743 26.698 84.2502 26.8568C84.4893 26.8542 84.7293 26.8473 84.9692 26.8438C84.9666 27.2573 84.9666 27.6701 84.9701 28.0828C81.9686 28.0627 78.9661 28.0958 75.9646 28.0906C75.6331 28.1142 75.5694 27.7329 75.4612 27.5016C75.1776 27.4912 74.894 27.4912 74.6122 27.4921C74.5537 27.7303 74.538 27.9754 74.5502 28.2198C74.5677 28.6377 74.5258 29.06 74.6104 29.4736C74.8966 29.4736 75.1854 29.4683 75.4664 29.4038C75.5275 29.1865 75.5973 28.889 75.8809 28.8864C77.5081 28.8837 79.1372 28.8742 80.7653 28.9064C78.7149 29.3157 76.6714 29.7641 74.6244 30.1926C74.6183 30.8583 74.5799 31.5267 74.6183 32.1924C74.9027 32.2072 75.1872 32.2081 75.4716 32.2125C75.5275 32.0319 75.51 31.7701 75.7029 31.6724C76.311 31.5633 76.9288 31.6593 77.5404 31.6069C79.6083 31.6043 81.6771 31.5947 83.7459 31.5982C84.0853 31.5729 84.163 31.9429 84.2153 32.1977C84.4649 32.1985 84.7162 32.1985 84.9675 32.2029C84.9692 32.4551 84.9692 32.7072 84.9692 32.9594C84.7162 32.9603 84.4649 32.9533 84.2136 32.9489C84.1351 33.1313 84.0853 33.4402 83.8271 33.4279C81.1789 33.4201 78.529 33.4157 75.8809 33.4044C75.5414 33.4445 75.5476 33.0327 75.5449 32.8032C75.298 32.6959 75.0205 32.7133 74.7605 32.7473C74.4604 32.8416 74.5825 33.222 74.5555 33.4567C74.5895 34.0178 74.4647 34.5971 74.6174 35.1442C74.9106 35.139 75.2038 35.1381 75.4978 35.1477C75.5763 34.9863 75.6191 34.8118 75.6662 34.6381C76.9593 34.5954 78.2541 34.6216 79.5481 34.6076C80.9163 34.5657 82.2844 34.5832 83.6534 34.5727C83.9518 34.5422 84.1255 34.8031 84.1787 35.0622C84.4431 35.1346 84.7179 35.1477 84.9919 35.1556C84.9762 35.2201 84.9448 35.3493 84.9291 35.4138C83.6534 35.4592 82.3734 35.4051 81.096 35.4339C81.0951 35.7096 81.0419 36.0011 81.137 36.2663C81.8735 36.3056 82.6142 36.2724 83.3515 36.2986C83.7206 36.3282 84.0923 36.5743 84.2031 36.9364C84.2145 37.2374 83.9562 37.5088 83.6517 37.4905C82.7469 37.4922 81.842 37.5018 80.9381 37.4774C79.1825 37.4154 77.4226 37.4721 75.6653 37.4364C75.5824 37.2348 75.5528 37.0184 75.4891 36.8116C75.1985 36.7706 74.9045 36.7977 74.6139 36.823C74.5546 37.5629 74.5433 38.3045 74.545 39.0471C74.5712 39.0829 74.6226 39.1553 74.6488 39.1919C74.9525 39.1928 75.257 39.1972 75.5606 39.1684C75.5798 39.0253 75.5973 38.8831 75.6156 38.7391C75.9254 38.63 76.256 38.6684 76.5789 38.664C78.9068 38.6553 81.2356 38.644 83.5644 38.6361C83.7162 38.6422 83.9038 38.623 84.012 38.7574C84.0993 38.8804 84.1569 39.0209 84.245 39.1439C84.4815 39.1954 84.7258 39.1841 84.9666 39.198C84.9622 39.739 84.9806 40.28 84.9413 40.8201C84.601 40.3768 84.1325 39.9781 83.5662 39.8873C82.924 39.8437 82.2783 39.821 81.6352 39.8664C80.9581 39.9344 80.2531 40.2206 79.8936 40.8306C79.6406 40.5749 79.3623 40.3402 79.0403 40.1753C78.4784 39.8673 77.817 39.8559 77.1932 39.8516C76.5736 39.8708 75.9044 39.9126 75.3931 40.3035C75.0031 40.5784 74.5729 40.9597 74.5956 41.4823C74.6078 42.3051 74.5302 43.1262 74.5494 43.9499C74.5738 43.9822 74.6218 44.0476 74.6453 44.0799C74.9472 44.0642 75.2666 44.127 75.558 44.045C75.6112 43.9054 75.6426 43.7579 75.6819 43.6131C78.4522 43.5101 81.2278 43.5694 84.0007 43.5398C84.06 43.6026 84.1202 43.6663 84.1813 43.73C84.2232 43.8364 84.2127 43.9795 84.3192 44.0493C84.5268 44.0642 84.7371 44.0502 84.9465 44.0441C84.9343 45.6967 84.9622 47.3493 84.9317 49.0019C84.5251 48.6703 84.0295 48.3553 83.4815 48.4304C83.2215 48.4496 82.9091 48.5813 82.6945 48.3684C82.4781 48.1389 82.5915 47.8013 82.5811 47.5203C82.3289 47.6451 81.9904 47.6843 81.8508 47.3824C81.6178 46.8641 81.0524 46.482 80.4748 46.6399C80.4582 47.2804 80.0437 47.8248 79.5883 48.2393C79.0874 48.6895 78.5063 49.0446 77.8999 49.3326C77.3964 49.5516 76.8695 49.7313 76.4157 50.048C74.8984 51.075 73.2318 51.8673 71.5112 52.4894C70.3664 52.8192 69.1972 53.1211 67.9992 53.1438C67.1328 53.1613 66.255 53.1648 65.4052 52.9693C64.4174 52.7512 63.4437 52.4772 62.4525 52.2748C61.7867 52.1369 61.1044 52.2189 60.4308 52.2015C59.7877 52.2146 59.1552 52.0837 58.5208 51.9999C57.5986 51.8882 56.6998 51.6457 55.795 51.4415C53.6372 50.9267 51.4725 50.4442 49.3182 49.9163C47.7258 49.501 46.1159 49.1458 44.5532 48.6249C43.5725 48.2785 42.5979 47.9112 41.6346 47.5194C41.2542 47.3004 41.3816 46.8205 41.3903 46.461C41.454 46.078 41.1617 45.7848 41.0159 45.4602C40.489 44.4132 40.0963 43.3042 39.6365 42.2275C39.2499 41.0915 38.7683 39.9798 38.5685 38.7897C38.49 38.1711 38.1217 37.6519 37.8469 37.1083C37.3513 36.2026 36.9883 35.2262 36.7492 34.222C35.8549 33.7211 35.0914 33.0187 34.3724 32.2963C34.177 32.1401 34.2285 31.9106 34.2965 31.702C33.5741 31.0442 32.5803 30.6899 32.0367 29.8418C31.7601 29.5015 31.7557 29.0478 31.6981 28.6351C30.7924 29.3226 29.762 29.82 28.7454 30.3199C27.434 30.8949 26.7028 32.2535 25.4377 32.8983C24.6026 33.3189 23.6585 33.4245 22.7398 33.4951C20.8673 33.5693 18.9163 33.4489 17.1974 32.6383C16.5037 32.1854 15.9453 31.552 15.4349 30.9054C14.2334 29.3296 13.4193 27.4615 13.0572 25.514C12.9281 24.8439 12.8897 24.1598 12.9098 23.4775C12.7422 23.4182 12.5511 23.3964 12.4098 23.2803C12.2981 23.0674 12.2946 22.8205 12.2632 22.5866V22.5866ZM58.0627 36.9678C58.4484 37.0088 58.8384 37.0062 59.2258 36.9992C59.4143 37.0036 59.4579 36.782 59.5487 36.6581C59.6761 36.3893 59.9579 36.1948 60.2598 36.2017C63.8965 36.1965 67.5333 36.1843 71.1709 36.1791C71.6595 36.1738 72.1586 36.0839 72.642 36.1852C72.9927 36.2881 73.1184 36.6738 73.155 36.9992C73.5564 37.0062 73.9595 37.0237 74.36 36.9835C74.3775 35.0989 74.3574 33.2142 74.3452 31.3295C74.2222 31.2885 74.0991 31.2405 73.9682 31.244C72.0652 31.2344 70.164 31.1567 68.261 31.1454C68.1746 31.4927 68.1711 31.8521 68.2252 32.2038C69.4127 32.2674 70.6011 32.3172 71.7878 32.3818C72.2799 32.4516 72.7755 32.7386 72.9849 33.2054C73.114 33.4707 73.0826 33.8145 72.8706 34.0291C72.6751 34.2839 72.3226 34.2569 72.0382 34.2612C70.4118 34.2516 68.7854 34.3005 67.159 34.2726C67.1249 34.2158 67.0551 34.1033 67.0211 34.0474C67.3274 33.571 67.9704 33.7735 68.4407 33.6888C68.4556 33.3381 68.4617 32.9856 68.4294 32.6348C67.2497 32.5763 66.0674 32.5711 64.8869 32.5676C64.6713 32.5886 64.4785 32.4236 64.2656 32.4795C64.1103 32.8276 64.1504 33.2229 64.222 33.5867C64.4873 33.6051 64.7543 33.6051 65.0212 33.5928C65.1338 33.7063 65.2245 33.838 65.304 33.9768C65.2621 34.0274 65.1792 34.1295 65.1373 34.1801C63.5117 34.1931 61.8862 34.1992 60.2607 34.2028C59.8541 34.2272 59.3541 33.9174 59.4405 33.4593C59.5705 32.9515 60.0844 32.6924 60.532 32.5118C61.7248 32.0764 63.0144 32.1662 64.2604 32.1968C64.3031 32.0677 64.3974 31.9167 64.304 31.7858C64.0135 31.4054 63.5397 31.1523 63.0554 31.1698C61.4072 31.1724 59.759 31.114 58.1107 31.1227C58.0278 31.6061 58.0662 32.0973 58.0505 32.5851C58.0243 33.8633 58.0444 35.1425 57.9737 36.419C57.9947 36.6005 57.9074 36.8308 58.0627 36.9678V36.9678ZM58.2896 28.2494C63.0807 28.6202 67.8701 28.992 72.6621 29.3445C73.1105 29.4378 73.2179 29.9413 73.2353 30.3295C73.6419 30.3365 74.052 30.3566 74.4534 30.2737C74.4831 29.4448 74.4133 28.6159 74.4211 27.7861C74.4063 27.6282 74.4639 27.4301 74.3077 27.3254C73.9543 27.2905 73.5966 27.3062 73.2432 27.3333C73.0521 27.5732 73.0661 28.0025 72.6935 28.0784C72.2022 28.136 71.6997 28.0967 71.2128 28.013C71.0662 27.5575 71.1151 27.075 71.1543 26.6064C71.5635 26.5375 71.9806 26.5279 72.3916 26.4642C72.5757 26.4241 72.7589 26.479 72.9369 26.5262C73.0469 26.7408 73.1358 26.9659 73.1847 27.2032C73.5992 27.239 74.0415 27.2949 74.4333 27.1186C74.4185 25.8691 74.442 24.617 74.367 23.3702C73.8836 23.2568 73.3662 23.3257 72.9038 23.4932C72.8732 23.734 72.9029 24.0071 72.738 24.2069C72.5643 24.4024 72.2965 24.4687 72.0487 24.5062C67.4068 25.179 62.7622 25.8307 58.1229 26.5183C58.0156 26.9589 58.0619 27.4161 58.0601 27.8637C58.0758 28.0103 58.102 28.2381 58.2896 28.2494V28.2494ZM58.4205 44.2073C58.7948 44.2326 59.1717 44.2082 59.5443 44.1689C59.5347 43.9577 59.471 43.7221 59.5967 43.5319C59.7136 43.3339 59.9439 43.223 60.1734 43.2492C62.5302 43.2885 64.8877 43.271 67.2436 43.3356C69.0192 43.3566 70.7948 43.3574 72.5704 43.3862C72.9936 43.3819 72.8671 43.8879 72.9404 44.1602C73.4063 44.1637 73.8723 44.1715 74.3373 44.1366C74.4097 42.9238 74.3434 41.7075 74.3548 40.4929C73.9709 40.3908 73.566 40.3646 73.1725 40.417C72.943 40.4911 73.0608 40.732 73.1228 40.8847C72.9596 41.2276 72.5731 41.3497 72.2179 41.3305C70.4851 41.2642 68.7496 41.2721 67.0159 41.2337C66.8998 40.4056 66.6511 39.5793 66.1756 38.8839C65.4985 37.9503 64.3546 37.466 63.2317 37.3631C62.1872 37.2846 61.1035 37.2523 60.1027 37.6091C59.3515 37.8596 58.6308 38.3351 58.2774 39.0654C58.0252 39.5087 58.1334 40.0348 58.0715 40.5182C58.027 41.6263 58.0252 42.7353 58.0523 43.8425C58.02 44.0554 58.2373 44.1872 58.4205 44.2073ZM58.2599 18.6698C58.6386 18.7012 59.0191 18.6812 59.3986 18.6716C59.5024 18.3854 59.6333 18.0817 59.9204 17.9343C60.1621 17.7589 60.4587 17.9072 60.71 17.9814C61.9525 18.367 63.1968 18.7501 64.441 19.1305C65.1129 19.3338 65.7742 19.572 66.4609 19.7212C64.5413 19.7753 62.6235 19.7561 60.703 19.7753C60.3479 19.7727 59.9195 19.7753 59.6822 19.4638C59.4972 19.3015 59.6167 18.9769 59.3969 18.8478C59.0199 18.8304 58.6395 18.833 58.2643 18.8644C58.232 18.8949 58.1675 18.9543 58.1352 18.9839C58.0976 19.9961 58.136 21.0126 58.129 22.0256C58.1037 22.2045 58.2311 22.4017 58.4249 22.3921C58.7747 22.4087 59.1264 22.42 59.4754 22.3947C59.7275 22.2324 59.5923 21.7673 59.9256 21.6905C60.4605 21.5466 61.0241 21.6303 61.5721 21.6068C62.8198 21.5405 64.071 21.5736 65.3205 21.5597C67.7636 21.5475 70.2067 21.537 72.6507 21.5291C72.7816 21.5405 72.9491 21.5134 73.0407 21.6338C73.1428 21.8232 73.1899 22.0352 73.251 22.2394C73.5704 22.324 73.9028 22.3345 74.2309 22.31C74.3399 22.3092 74.4857 22.249 74.4621 22.1137C74.4865 21.1853 74.463 20.2552 74.4735 19.326C74.456 19.1637 74.5171 18.9202 74.3016 18.8714C73.9499 18.8304 73.5913 18.8487 73.2458 18.922C73.1856 19.3111 72.9072 19.7038 72.4876 19.7343C70.9589 19.7945 69.4031 19.5772 67.9948 18.9578C69.2539 18.6628 70.5139 18.3688 71.7756 18.087C72.0748 18.0224 72.3698 17.9316 72.6778 17.9133C73.0189 18.0381 73.0948 18.4447 73.3392 18.6716C73.6323 18.6934 73.9281 18.6838 74.2213 18.6611C74.3382 18.6585 74.4865 18.5817 74.4534 18.4421C74.4499 17.3662 74.4577 16.2904 74.4612 15.2146C74.4534 15.0872 74.4874 14.8952 74.3094 14.8795C73.9368 14.8132 73.5503 14.8263 73.1734 14.8481C72.9517 15.0566 73.1646 15.4091 72.9893 15.6465C72.7816 16.0129 72.3253 16.054 71.9579 16.1395C69.6012 16.6988 67.2515 17.2834 64.8947 17.8418C64.6958 17.8959 64.4855 17.9055 64.2918 17.8304C62.8085 17.3636 61.3147 16.9282 59.8375 16.4475C59.4318 16.3061 59.6665 15.7739 59.3768 15.5313C58.9763 15.5234 58.5758 15.5156 58.1753 15.5156C58.0313 16.3977 58.1587 17.2982 58.1064 18.1873C58.1194 18.3444 58.0357 18.641 58.2599 18.6698V18.6698ZM58.1823 9.6382C58.2076 9.96279 58.1282 10.3065 58.246 10.6172C58.6596 10.6433 59.0758 10.618 59.4902 10.6067C59.6272 10.5823 59.6036 10.4269 59.6412 10.3284C59.6839 10.043 59.9439 9.71059 60.2659 9.81359C61.648 10.1041 63.0397 10.3519 64.4157 10.6713C63.0301 10.9932 61.6559 11.3693 60.2668 11.6747C59.8462 11.6947 59.7162 11.2698 59.6551 10.9383C59.2014 10.755 58.6674 10.8013 58.1971 10.906C58.1954 12.0254 58.198 13.1449 58.1997 14.2644C58.2067 14.3691 58.1884 14.5575 58.3446 14.5549C58.7477 14.5846 59.1586 14.5837 59.56 14.527C59.7982 14.4022 59.6656 14.034 59.8959 13.8953C60.0844 13.7557 60.3086 13.6693 60.5338 13.6047C62.4795 13.1397 64.4288 12.6894 66.3754 12.227C66.7166 12.145 67.0621 12.056 67.4172 12.0621C69.164 12.0638 70.9117 12.0472 72.6586 12.0446C73.0599 12.0821 73.2083 12.5463 73.2467 12.8892C73.6524 12.8718 74.0721 12.9433 74.4656 12.8133C74.456 11.7794 74.4543 10.7463 74.4569 9.71229C74.4543 9.53519 74.4595 9.35459 74.4158 9.18099C74.0023 9.11199 73.5739 9.15569 73.1568 9.17659C73.1542 9.49329 73.1472 9.99679 72.7345 10.043C70.876 10.0666 69.0166 10.0395 67.1572 10.0518C66.7654 10.0666 66.3902 9.94009 66.0107 9.86419C64.1784 9.46979 62.346 9.07539 60.5128 8.68189C60.2214 8.59719 59.8776 8.551 59.6796 8.2953C59.5129 8.0929 59.492 7.82239 59.4326 7.57809C59.0051 7.48299 58.5688 7.54929 58.1413 7.59989C58.1413 8.27959 58.1413 8.96019 58.1823 9.6382V9.6382Z" fill="black"/>
<path d="M25.2422 8.61819C24.9359 8.42009 24.6873 8.12339 24.5625 7.77789C24.7239 7.98119 24.8504 8.22639 25.0904 8.34939C25.3687 8.53349 25.7143 8.53609 26.0345 8.50999C26.0249 8.38169 26.0144 8.25339 26.0039 8.12429C26.0441 8.21939 26.0842 8.31539 26.1243 8.41049C26.5135 8.21769 26.921 7.94809 27.3764 8.01789C27.6652 8.09029 27.9218 8.25609 28.1355 8.45939C28.6599 8.22899 29.248 8.48549 29.5874 8.90789C29.2454 8.67579 28.8571 8.37299 28.4165 8.50739C28.0169 8.66969 27.7202 9.04049 27.2787 9.11469C26.866 9.18009 26.496 8.93489 26.2299 8.64349C25.9193 8.77169 25.5371 8.80749 25.2422 8.61819V8.61819ZM27.01 8.89389C27.4244 8.94189 27.7499 8.63819 28.098 8.46899C27.7952 8.24559 27.414 8.04489 27.0266 8.14089C26.7491 8.23249 26.5336 8.44189 26.2962 8.60249C26.5196 8.72809 26.7412 8.89739 27.01 8.89389V8.89389Z" fill="black"/>
<path d="M59.608 41.0888C59.3637 40.9143 59.3628 40.5653 59.4518 40.3079C59.7214 39.7355 60.3523 39.4467 60.9552 39.3874C61.9159 39.308 62.8809 39.3577 63.8433 39.3699C64.277 39.4144 64.7551 39.5139 65.0623 39.8463C65.29 40.2573 65.3816 40.7337 65.3903 41.1996C64.7918 41.3078 64.181 41.2197 63.5772 41.2398C62.4411 41.2406 61.3068 41.1996 60.1708 41.2057C59.9806 41.1961 59.7563 41.238 59.608 41.0888V41.0888Z" fill="black"/>
<path d="M64.359 27.527C66.0849 27.2748 67.8108 27.013 69.541 26.7853C69.6038 27.1465 69.6954 27.5549 69.5253 27.8978C67.802 27.8227 66.0814 27.6291 64.359 27.527Z" fill="black"/>
<path d="M76.1426 42.2187C75.8896 42.238 75.5955 42.0888 75.5554 41.8191C75.5318 41.5303 75.7831 41.3017 76.0283 41.1961C76.4855 41.0155 76.9837 41.1185 77.4593 41.1377C77.9374 41.1883 78.4226 41.1665 78.8981 41.2476C79.3134 41.3803 79.4539 41.8628 79.4347 42.2572C78.3371 42.238 77.2394 42.2345 76.1426 42.2187V42.2187Z" fill="black"/>
<path d="M75.5545 24.8788C75.3207 24.4102 75.839 23.8797 76.3145 23.9321C78.7288 23.9792 81.144 23.9705 83.5583 24.0001C83.8995 23.9827 84.259 24.2881 84.1874 24.6502C84.1717 24.9268 83.9222 25.1248 83.6499 25.0882C81.1126 25.0455 78.5735 25.0542 76.0353 25.0324C75.8721 25.0167 75.6488 25.0428 75.5545 24.8788V24.8788Z" fill="black"/>
<path d="M75.7927 15.9388C75.5781 15.9737 75.4507 15.7442 75.5345 15.561C75.6016 15.1037 76.0606 14.8533 76.4855 14.8132C77.2455 14.7181 78.0578 14.6579 78.7847 14.9528C79.1773 15.1195 79.3352 15.5636 79.3597 15.9606C78.1704 15.958 76.9811 15.944 75.7927 15.9388V15.9388Z" fill="black"/>
<path d="M78.1137 30.8801C78.1102 30.833 78.1076 30.7859 78.1084 30.7379C78.7498 30.6995 79.3658 30.491 79.9931 30.3645C81.6544 30.0137 83.3044 29.6027 84.9701 29.2703C84.9701 29.5783 84.9701 29.8854 84.9622 30.1926C84.7441 30.1934 84.526 30.1926 84.3096 30.1926C84.238 30.3514 84.1865 30.5215 84.0888 30.6664C83.9396 30.8583 83.6735 30.7789 83.4676 30.7972C81.6989 30.778 79.9285 30.8339 78.1608 30.7815L78.1137 30.8801V30.8801Z" fill="black"/>
<path d="M80.2933 15.9929C80.2863 15.3899 80.7653 14.8245 81.3752 14.7827C82.3324 14.739 83.2931 14.7635 84.252 14.7425C84.5556 14.7469 84.7973 14.5383 84.9954 14.3315C84.9814 14.7006 84.9849 15.0697 84.9875 15.4388C84.7441 15.4379 84.5007 15.4362 84.2581 15.4379C84.2572 15.7224 84.0365 15.9955 83.7389 15.9815C82.5907 15.9911 81.4415 15.9911 80.2933 15.9929V15.9929Z" fill="black"/>
<path d="M80.4224 42.2563C80.4102 41.8654 80.5315 41.3863 80.9468 41.2511C81.6091 41.1517 82.2844 41.17 82.951 41.1019C83.4231 41.053 84.0138 41.1176 84.259 41.5862C84.4344 41.8916 84.1089 42.2118 83.8061 42.2144C82.6788 42.2415 81.5506 42.2397 80.4224 42.2563V42.2563Z" fill="black"/>
</svg>
