<?xml version="1.0" encoding="UTF-8"?>
<!DOCTYPE svg PUBLIC "-//W3C//DTD SVG 1.1//EN" "http://www.w3.org/Graphics/SVG/1.1/DTD/svg11.dtd">
<!-- Creator: CorelDRAW 2020 (64 Bit) -->
<svg xmlns="http://www.w3.org/2000/svg" xml:space="preserve" width="85mm" height="54mm" version="1.1" style="shape-rendering:geometricPrecision; text-rendering:geometricPrecision; image-rendering:optimizeQuality; fill-rule:evenodd; clip-rule:evenodd"
viewBox="0 0 8500 5400"
 xmlns:xlink="http://www.w3.org/1999/xlink"
 xmlns:xodm="http://www.corel.com/coreldraw/odm/2003">
 <defs>
  <style type="text/css">
   <![CDATA[
    .fil0 {fill:#FEFEFE;fill-rule:nonzero}
   ]]>
  </style>
 </defs>
 <g id="Camada_x0020_1">
  <metadata id="CorelCorpID_0Corel-Layer"/>
  <g id="_1799515943648">
   <g>
    <path class="fil0" d="M-324.88 -10.06l2179.67 0c-0.19,1818.08 0,3636.15 -0.19,5454.22l-2179.48 0 0 -5454.22z"/>
    <path class="fil0" d="M6677.92 -10.06l2179.4 0 0 5454.22 -2179.67 0c0.46,-1818.07 -0.09,-3636.14 0.27,-5454.22z"/>
    <path class="fil0" d="M4266.31 1183.44c86.68,172.81 173.64,345.53 260.31,518.34 10.47,20.47 21.68,42.33 42.33,54.36 30.86,9.91 65.47,5.32 93.76,-10.29 68.77,-37.92 137.09,-76.58 206.23,-114.04 -48.3,279.41 -98.07,558.55 -147.01,837.78 -3.76,30.49 -6.7,64.74 11.57,91.46 25.34,32.5 75.66,15.15 97.52,-13.13 113.49,-134.98 226.15,-270.79 340.2,-405.31 2.57,-0.73 7.71,-2.11 10.28,-2.75 18.09,66.66 35.07,133.6 53.53,200.17 7.16,33.88 45.45,54.91 78.14,46.28 142.24,-31.22 284.01,-64.74 426.42,-95.5 -42.42,170.33 -88.33,339.66 -130.29,510.08 -7.62,26.81 -9.46,63.17 19.1,78.32 58.31,30.3 117.16,59.69 176.57,87.87 -247,216.52 -496.66,430.1 -744.13,645.97 -31.21,28.56 -37.37,74.93 -25.61,114.04 20.38,71.81 41.41,143.43 62.07,215.05 -233.23,-28.19 -466.36,-57.2 -699.5,-86.31 -25.44,-4.78 -54.82,-9.83 -75.11,10.65 -24.7,15.7 -17.26,47.38 -17.82,71.99 3.86,85.58 2.21,171.43 8.91,256.92 4.13,106.05 2.85,212.29 10.93,318.16 -42.15,2.94 -84.39,1.38 -126.53,1.1 12.39,-201.46 21.67,-403.01 34.06,-604.46 6.43,-36.27 -34.7,-61.06 -66.38,-58.58 -243.42,31.03 -486.93,60.69 -730.45,90.81 20.94,-71.62 40.96,-143.43 61.52,-215.14 12.58,-40.77 5.15,-89.99 -29.01,-118.09 -246.73,-214.12 -494.46,-427.15 -740.46,-642.11 57.3,-26.72 113.22,-56.47 170.34,-83.65 31.86,-13.95 35.44,-52.89 25.98,-82.27 -43.25,-170.33 -87.41,-340.38 -131.21,-510.53 142.6,30.94 284.64,64.37 427.24,95.68 31.77,8.82 69.7,-12.12 76.95,-45.18 19.74,-69.69 37.1,-140.12 57.94,-209.54 108.9,135.53 223.4,266.47 333.41,401.08 18.27,22.13 41.78,47.66 73.27,45.36 26.26,3.77 45.91,-21.57 50.04,-44.99 7.07,-46 -6.33,-91.73 -13.49,-136.81 -44.72,-255.18 -90.54,-510.07 -134.8,-765.25 66.85,37.74 134.34,74.38 201.37,111.84 26.53,13.32 57.75,28.19 87.69,16.8 25.06,-5.32 39.66,-28.46 50.22,-49.86 87.79,-175.56 176.58,-350.57 263.9,-526.32z"/>
   </g>
  </g>
 </g>
</svg>
