<?xml version="1.0" encoding="UTF-8"?>
<!DOCTYPE svg PUBLIC "-//W3C//DTD SVG 1.1//EN" "http://www.w3.org/Graphics/SVG/1.1/DTD/svg11.dtd">
<!-- Creator: CorelDRAW 2020 (64 Bit) -->
<svg xmlns="http://www.w3.org/2000/svg" xml:space="preserve" width="85mm" height="54mm" version="1.1" style="shape-rendering:geometricPrecision; text-rendering:geometricPrecision; image-rendering:optimizeQuality; fill-rule:evenodd; clip-rule:evenodd"
viewBox="0 0 8500 5400"
 xmlns:xlink="http://www.w3.org/1999/xlink"
 xmlns:xodm="http://www.corel.com/coreldraw/odm/2003">
 <defs>
  <style type="text/css">
   <![CDATA[
    .fil0 {fill:#FEFEFE;fill-rule:nonzero}
   ]]>
  </style>
 </defs>
 <g id="Camada_x0020_1">
  <metadata id="CorelCorpID_0Corel-Layer"/>
  <g id="_2508167472176">
   <g id="__x0023_000000ff">
   </g>
   <g id="__x0023_ffffffff">
    <path class="fil0" d="M8199.22 132.67c17.21,-6.01 23.74,-1.14 19.59,14.62 -17.41,6.63 -23.94,1.65 -19.59,-14.62z"/>
    <path class="fil0" d="M6641.05 151.12c8.09,-14.72 16.69,-14.93 25.81,-0.62 -8.18,15.44 -16.79,15.65 -25.81,0.62z"/>
    <path class="fil0" d="M5642.33 165.32c13.57,2.18 16.06,9.64 7.25,22.29 -13.89,-2.18 -16.27,-9.54 -7.25,-22.29z"/>
    <path class="fil0" d="M2502.98 316.76c8.61,11.41 13.38,24.16 6.84,38.05 -5.28,-3.11 -15.75,-9.33 -21.04,-12.44 4.56,-8.6 9.33,-17.1 14.2,-25.61z"/>
    <path class="fil0" d="M582.13 351.28c34.51,4.36 -18.56,28.51 0,0z"/>
    <g>
     <path class="fil0" d="M-40.12 525.32c51.1,29.34 91.42,73.81 139.72,107.49 283.92,228.05 567.01,457.65 851.85,684.55 136.62,116.3 280.7,224 417.33,340.41 15.44,2.38 29.85,-0.93 43.12,-9.85 46.23,-6.94 83.75,25.4 99.51,66.24 -12.44,28.92 -23.22,64.58 -57.84,73.18 -42.3,22.49 -85.21,-13.79 -102.31,-51.21 0.31,-17.31 0.52,-34.62 0.62,-52.03 -29.44,-15.45 -49.76,-42.5 -75.15,-63.03 -26.64,-21.87 -54.63,-41.98 -81.58,-63.43 -41.46,-30.27 -78.57,-65.72 -117.86,-98.58 -30.57,-25.81 -60.32,-52.56 -93.08,-75.67 -39.81,-28.3 -72.25,-65.51 -113.61,-91.73 -278.94,-229.5 -559.12,-457.86 -840.45,-684.66 -25.39,-19.07 -50.79,-38.76 -70.27,-64.06l0 -17.62 0 0zm1421.54 1199.31c18.14,31.2 57.22,34.31 85.52,15.03 -0.11,-14.41 -0.21,-28.82 -0.31,-43.23 -7.05,1.04 -21.15,3.01 -28.2,4.05l-1.14 -11.61 -8.91 0.2c-1.45,-2.28 -4.35,-6.63 -5.7,-8.81 -14.93,12.44 -40.95,21.77 -41.26,44.37z"/>
    </g>
    <g>
     <path class="fil0" d="M8404.25 643.59c46.86,-37.73 96.51,-72.45 138.38,-115.99l0 33.48c-202.33,166.48 -407.99,329.01 -609.81,496.1 -95.88,78.68 -192.9,155.9 -287.96,235.41 -12.43,8.81 -24.67,17.83 -36.79,26.95 -47.89,46.02 -103.14,83.44 -153.62,126.36 -86.76,77.95 -178.91,150.3 -272.51,219.44 0.93,3.52 3,10.57 3.93,14.09 -5.18,-0.2 -15.65,-0.52 -20.93,-0.62 -0.21,18.45 -0.42,37.01 -0.73,55.56 -6.22,12.13 -12.13,24.26 -17.72,36.59 -25.71,16.17 -57.02,33.9 -86.35,14.93 -34.1,-7.46 -41.78,-44.26 -54.53,-71.32 10.58,-18.97 21.77,-37.62 34.42,-55.45 20.42,-4.98 40.84,-9.95 61.98,-12.34 13.69,8.4 29.44,11.61 45.41,13.68 26.84,-30.78 61.26,-53.38 92.66,-79.19 387.27,-313.46 777.02,-624.01 1164.17,-937.68l0 0zm-1317.16 1038.95l-1.66 16.17c-12.13,-0.41 -24.15,-0.72 -36.07,-1.14 0.31,13.79 0.72,27.57 1.35,41.47 6.63,3.42 19.9,10.47 26.63,13.89 25.19,4.25 43.23,-11.82 59.71,-28.41 -7.88,-23.11 -28.19,-34.51 -49.96,-41.98z"/>
    </g>
    <g>
     <path class="fil0" d="M-40.02 830.59c83.44,57.74 159.94,125.01 240.07,187.31 147.19,115.26 292.72,232.71 438.88,349.22 40.63,33.17 83.75,63.23 121.38,99.82 42.92,24.56 75.67,64.47 118.59,89.35 15.75,15.65 31.09,32.44 51.82,41.67 32.86,29.65 66.86,59.5 103.87,83.34 12.75,12.02 25.08,24.57 37.94,36.59 46.95,26.54 83.33,68.72 129.05,97.65 32.34,-16.69 83.03,-21.98 106.04,12.74 28.81,24.57 18.76,67.07 -1.35,93.5 -29.44,38.56 -92.15,30.99 -121.59,-3.83 -4.25,-2.18 -12.65,-6.53 -16.79,-8.71 6.22,-23.01 6.84,-46.85 6.84,-70.59 -16.9,-14.41 -33.69,-29.54 -54.21,-38.66 -41.78,-38.98 -86.97,-74.12 -133.1,-107.7 -17,-12.03 -27.26,-33.59 -49.13,-37.53 -0.21,-3.11 -0.62,-9.53 -0.73,-12.75 -34.2,-14.72 -56.8,-46.64 -88.42,-65.61 -23.94,-13.58 -43.84,-32.55 -63.74,-51.41 -45.92,-26.95 -79.92,-69.04 -124.91,-97.24 -36.59,-36.69 -82.41,-63.43 -117.13,-101.58l-7.36 1.45c-3.11,-4.35 -9.43,-13.16 -12.65,-17.62 -14.1,-6.63 -26.12,-16.48 -37.83,-26.64 -19.8,-16.17 -40.22,-31.82 -56.39,-51.72l-8.71 2.59 0.62 -10.37c-17.51,0.73 -26.74,-14.71 -38.76,-24.15 -21.77,-20.32 -51.62,-30.89 -68.42,-56.7 -62.29,-51.1 -126.35,-100.23 -187.72,-152.48 -9.43,-8.5 -20.21,-15.44 -32.55,-18.86 -34.93,-44.37 -87.9,-69.76 -128.22,-108.74 -1.35,-8.08 -4.04,-24.25 -5.39,-32.34l0 0zm1242.12 1029.31c1.76,7.05 5.28,21.14 7.04,28.19 14,19.08 42.61,7.05 62.82,10.99 4.35,-3.94 12.85,-11.81 17.21,-15.75 0,-9.33 0.1,-18.66 0.2,-27.89 -29.43,-13.06 -59.5,-11.4 -87.27,4.46z"/>
    </g>
    <g>
     <path class="fil0" d="M7650.67 1548.52c298.01,-235.41 592.71,-475.06 891.96,-708.7l0 31.61c-40.53,32.65 -84.17,61.47 -120.86,98.68 -68.21,45.4 -127.29,103.14 -193.11,151.86 3.73,1.24 11.19,3.83 14.82,5.18 -15.03,0.93 -30.99,3.53 -40.74,16.07 -27.16,28.4 -61.36,48.41 -90.38,74.73 -101.59,78.78 -199.02,163.16 -299.99,242.87 -92.98,80.65 -195.49,149.37 -285.88,233.02 -62.2,47.06 -121.07,98.16 -184.09,144.09 1.76,32.13 1.14,68.41 -21.77,93.7 -30.27,16.79 -74.12,24.88 -101.27,-1.87 -20.01,-15.65 -24.47,-41.87 -33.59,-63.95 10.26,-24.36 27.68,-44.37 46.54,-62.61 27.78,1.14 56.7,-1.25 82.51,11.61 114.34,-85.52 223.59,-177.98 335.85,-266.29l0 0zm-422.09 306.82c-0.52,6.53 -1.56,19.38 -2.07,25.91 3.31,4.15 9.95,12.54 13.27,16.8 19.27,0.3 38.66,0.51 58.04,1.14 8.71,-11.82 13.06,-25.71 15.24,-40.02 -26.85,-14.82 -56.49,-16.68 -84.48,-3.83z"/>
    </g>
    <path class="fil0" d="M1411.58 950.31c16.38,-4.04 22.08,2.18 17.11,18.76 -16.9,4.26 -22.6,-1.96 -17.11,-18.76z"/>
    <path class="fil0" d="M7087.81 968.45c-4.35,-14.61 0.32,-20.52 14.1,-17.72 4.67,14.92 0,20.83 -14.1,17.72z"/>
    <g>
     <path class="fil0" d="M-40.12 1143.74c193.21,152.89 386.84,305.26 580.16,458.06 154.14,124.49 313.67,242.76 463.97,371.81 21.87,-6.32 43.22,-14.3 64.37,-22.7 13.27,4.46 26.64,8.5 40.11,12.23 47.48,26.02 48.31,96.61 5.4,126.98 -26.85,22.8 -62.2,9.95 -92.16,2.39 -20.94,-24.88 -28.71,-56.19 -34.83,-87.28 -43.74,-43.13 -97.95,-73.39 -142.63,-115.37 -34,-26.75 -67.27,-54.42 -102.2,-79.92 -82.3,-75.05 -175.91,-137.24 -259.45,-211.05 -89.67,-66.44 -173.42,-140.04 -262.46,-207.1 -41.36,-39.5 -88.32,-72.46 -135.59,-104.39 -37.21,-42.8 -87.59,-70.9 -124.69,-113.5l0 -30.16 0 0zm1081.34 851.85c-19.07,21.04 -18.24,51.1 11.3,59.49 10.99,-0.1 21.87,-0.2 32.86,-0.31 9.43,-5.28 18.97,-10.57 28.51,-15.65 -3.01,-12.13 -6.12,-24.15 -9.33,-36.17 -18.25,-0.83 -36.39,-1.56 -54.63,-2.18 -3.53,11.09 -6.95,22.18 -10.06,33.37l-1.97 1.66c1.25,-13.37 2.39,-26.84 3.32,-40.21z"/>
    </g>
    <g>
     <path class="fil0" d="M8125.83 1485.18c138.07,-112.05 280.81,-218.61 416.8,-332.94l0 33.37c-14.61,21.67 -36.38,36.49 -59.6,47.48l5.81 6.94c-38.77,23.84 -68.73,59.4 -107.18,84.07 -52.77,29.54 -89.67,79.09 -141.39,110.08 -152.9,127.81 -313.46,247.12 -465.73,375.45 -61.88,44.57 -117.03,97.54 -179.33,141.49 -21.25,16.27 -43.12,32.03 -61.57,51.31 -14.93,23.42 -10.05,56.28 -32.24,75.67 9.54,10.57 19.18,21.25 24.15,35.03 -28.91,-42.81 -75.46,6.33 -112.36,-16.48 -32.96,-15.45 -47.78,-56.7 -42.29,-90.8 10.68,-32.55 45.61,-43.95 74.01,-56.29 21.87,6.84 43.23,22.5 66.55,20.84 203.79,-162.95 409.44,-323.62 614.37,-485.22l0 0zm-722.28 526.89c0.42,7.36 1.14,21.97 1.56,29.33 26.43,22.5 95.98,19.39 82.51,-27.16 -25.09,-18.45 -57.64,-15.55 -84.07,-2.17z"/>
    </g>
    <path class="fil0" d="M1920.85 1203.34c11.92,-8.4 43.74,-29.34 37.63,0.93 -8.61,19.49 -24.98,5.81 -37.63,-0.93z"/>
    <path class="fil0" d="M6557.61 1189.24c12.65,-0.52 24.46,3.94 35.97,8.92 -3.11,4.66 -9.43,13.99 -12.65,18.76 -5.08,-2.18 -15.13,-6.53 -20.21,-8.71 -0.72,-4.77 -2.38,-14.2 -3.11,-18.97z"/>
    <path class="fil0" d="M1140.32 1239.1c2.9,-16.89 26.33,-10.57 28.09,3.73 -3.11,8.5 -7.16,16.59 -11.09,24.78 -6.12,-9.23 -11.82,-18.77 -17,-28.51z"/>
    <path class="fil0" d="M2636.49 1323.17c15.14,-13.58 33.38,13.78 16.69,23.73 -14.72,11.3 -31.61,-13.37 -16.69,-23.73z"/>
    <path class="fil0" d="M5859.8 1324.41c5.9,0.21 17.52,0.62 23.32,0.83 -0.73,5.29 -2.18,15.76 -2.9,21.04 -15.24,2.08 -24.36,-5.7 -20.42,-21.87z"/>
    <path class="fil0" d="M6714.65 1424.96c-2.9,-14.1 23.43,-26.95 27.88,-9.85 3.01,15.03 -22.28,25.81 -27.88,9.85z"/>
    <g>
     <path class="fil0" d="M-40.12 1458.02c178.7,141.91 359.37,281.43 537.66,423.96 114.13,84.69 221.41,178.29 336.26,262.04 42.82,-35.45 135.9,-17.93 132.48,47.68 6.01,39.39 -25.92,69.14 -58.05,84.69l4.98 -20.94c-6.85,14.2 -16.8,17.31 -29.96,9.44l-4.04 -2.49c-1.97,0.41 -6.12,1.14 -8.09,1.45 -6.95,0.31 -20.73,0.93 -27.68,1.35 -18.14,-27.47 -33.37,-57.43 -36.38,-90.7 -77.53,-57.53 -150.3,-120.97 -226.9,-179.54 -36.18,-27.46 -71.94,-55.35 -105.73,-85.72 -56.08,-37.52 -104.28,-85.52 -159.32,-124.39 -116.72,-97.02 -240.38,-185.85 -355.23,-284.85l0 -41.98 0 0zm893.93 720.1c-2.7,16.07 -5.49,34.42 11.71,43.54 18.14,1.45 36.7,1.45 54.84,-1.04 10.47,-7.67 22.59,-24.15 9.22,-35.55 -21.14,-18.66 -50.89,-9.02 -75.77,-6.95z"/>
    </g>
    <g>
     <path class="fil0" d="M8456.29 1538.46c28.29,-25.08 60.95,-44.99 86.34,-73.39l0 49.55c-27.16,21.56 -55.66,41.57 -81.16,65.2 -65.61,49.24 -129.88,100.44 -193.84,151.86 -59.81,49.55 -122.83,94.94 -181.71,145.63 -66.96,47.48 -125.63,105.63 -193.63,151.76 -60.64,49.13 -120.86,98.89 -182.95,146.26 -3.11,42.7 -23.94,86.24 -66.44,101.99 -0.42,-5.59 -1.46,-17 -1.87,-22.7 -1.04,5.91 -2.9,17.73 -3.94,23.64 -7.78,-5.08 -23.32,-15.03 -31.1,-20.11 -0.31,4.46 -1.14,13.26 -1.55,17.72 -28.09,-19.59 -62.2,-45.29 -54.01,-84.69 -6.73,-32.44 24.78,-48.61 46.44,-64.57 29.75,-0.52 60.54,0.31 87.28,15.34 41.46,-29.54 83.96,-58.26 120.76,-93.71 -4.97,-6.42 -9.74,-12.85 -14.3,-19.38 9.95,3.42 19.48,7.88 29.33,12.02 67.58,-57.84 138.18,-112.15 209.08,-165.85 141.9,-112.77 284.22,-225.24 427.27,-336.57l0 0zm-873 648.89c-7.05,15.13 5.5,26.12 15.34,35.45 23.43,-0.21 48.2,1.87 68.42,-12.44 -0.94,-10.47 -1.66,-20.94 -2.39,-31.41 -27.16,-3.83 -58.67,-12.54 -81.37,8.4z"/>
    </g>
    <g>
     <path class="fil0" d="M-40.12 1873.27c32.54,21.77 64.89,43.85 95.46,68.31 82.93,62.3 169.58,119.72 249.2,186.17 35.13,-0.83 71.41,4.35 105.93,-3.01 15.55,-16.17 22.7,-42.29 45.2,-50.48 13.57,-4.35 21.76,-17.21 32.34,-26.02 -1.76,7.36 -5.29,21.98 -7.05,29.34 17.31,4.04 34.1,3.83 50.48,-0.62l3.32 -3.32c1.76,5.6 3.62,11.3 5.39,17 13.16,16.79 28.92,35.24 27.88,57.94 -5.81,20.11 -15.45,38.87 -23.64,57.95 -26.84,15.44 -57.94,15.65 -88,16.06 -16.48,-14.72 -32.34,-30.27 -44.57,-48.71 -32.55,-0.83 -64.99,1.14 -97.54,0.72 -32.55,-8.4 -58.88,-31.3 -85,-51.31 -68.1,-51.1 -136.72,-101.48 -205.14,-152.17 -23.22,-18.14 -52.65,-31.51 -64.26,-60.53l0 -37.32 0 0zm479.72 278.63c17.52,13.37 34.2,36.59 59.5,27.78 12.85,-8.19 35.14,-19.69 28.71,-38.04 -23.32,-22.6 -76.71,-26.23 -88.21,10.26z"/>
    </g>
    <g>
     <path class="fil0" d="M8341.13 2029.58c68.51,-46.85 132.57,-99.92 201.5,-146.25l0 51.82c-90.18,65.82 -181.08,130.92 -268.67,200.06 -22.08,14.41 -44.47,27.99 -67.17,41.05 -32.65,-2.38 -65.2,-2.49 -97.75,-4.56 -15.03,18.34 -29.03,40.32 -52.24,48.92 -26.64,1.35 -58.67,5.91 -79.82,-13.99 -12.65,-17.31 -20.73,-37.21 -30.68,-55.97 8.08,-24.78 17.31,-49.97 39.91,-65.83l-16.69 -15.34c11.4,3.63 22.39,7.47 33.38,12.86 3.62,-12.34 7.35,-24.78 11.29,-37.11 3.22,7.56 2.39,27.57 15.76,19.07 3.83,-3.84 11.5,-11.3 15.24,-15.13 5.28,16.17 2.38,36.69 23.11,44.36l2.28 -24.98c0.62,3.84 1.76,11.5 2.28,15.34 13.89,12.96 25.81,27.88 36.49,43.64 34.21,0.31 68.51,2.49 102.72,-0.62 22.29,-7.36 28.51,-33.17 33.8,-53.28 -0.52,7.46 -1.35,22.39 -1.77,29.85 31.93,-25.08 63.96,-50.27 97.03,-73.91l0 0zm-357.72 119.94c10.26,11.19 20.94,22.49 34.2,30.37 22.08,6.63 39.39,-9.85 55.67,-21.88 -0.42,-6.21 -1.35,-18.76 -1.87,-24.98 -30.27,-9.63 -67.69,-13.89 -88,16.49z"/>
    </g>
    <path class="fil0" d="M283.39 1915.98c9.95,1.45 19.9,3 29.85,4.56 -3.52,11.09 -7.15,22.39 -11.19,33.48 -6.22,-12.75 -12.55,-25.29 -18.66,-38.04z"/>
    <path class="fil0" d="M2122.87 2001.39c12.76,-0.83 34.01,3.94 21.25,21.46 -17.2,9.53 -23.84,-8.09 -21.25,-21.46z"/>
    <g>
     <path class="fil0" d="M-40.12 2049.38c137.44,88.73 269.61,186.27 407.06,274.8 55.24,5.28 111.22,0.83 166.78,1.34 11.81,-32.34 45.3,-54.72 79.81,-51.93 28.72,-2.79 50.69,18.76 72.15,34.31 1.24,22.08 0.93,44.27 -1.45,66.34 -11.3,11.51 -22.39,23.22 -33.59,35.04 -6.84,-1.76 -13.68,-3.53 -20.52,-5.18l-0.31 14.2c-40.01,5.49 -72.87,-14.62 -93.29,-47.69 -50.17,-2.28 -100.34,-4.14 -150.51,-3.83 -47.37,3.32 -82,-34.93 -118.79,-58.57 -101.9,-68.41 -202.13,-139.1 -303.92,-207.62 -0.83,-6.74 -2.6,-20.01 -3.42,-26.64l0 -24.57 0 0zm637.79 256.24c-10.47,13.79 -27.98,23.95 -30.16,42.6 8.19,17.11 28.51,23.43 44.99,29.86 15.13,-6.43 29.23,-15.03 43.33,-23.43 -1.66,-18.86 -10.06,-37.52 -28.72,-44.88 -8.7,3.73 -26.12,11.09 -34.82,14.82 1.34,-4.77 4.04,-14.2 5.38,-18.97z"/>
    </g>
    <g>
     <path class="fil0" d="M8149.88 2326.46c130.81,-90.6 264.32,-177.36 392.75,-271.17l0 51.31c-24.25,18.14 -49.54,34.73 -73.8,52.76 -12.75,7.88 -25.6,15.34 -38.46,22.7 -62.81,49.55 -131.02,91.53 -197.15,136.62 -25.5,18.97 -51.31,41.67 -83.34,47.37 -55.97,0.94 -112.05,0.52 -168.03,3.53 -10.57,12.54 -21.04,25.29 -30.58,38.56 -22.59,6.84 -45.92,8.81 -69.14,10.26l3.63 -15.96c-4.04,2.28 -12.23,6.84 -16.27,9.12 -12.44,-12.86 -24.67,-25.6 -37.01,-38.35 -0.51,-21.56 -0.72,-43.23 -0.72,-64.79 19.9,-15.03 40.32,-34.83 66.96,-34.72 35.97,-4.05 73.49,17 85.52,51.82 55.14,1.25 110.39,0.42 165.64,0.94l0 0zm-263.39 -5.19c-23.53,-2.69 -21.98,18.66 -23.43,35.66 14.51,7.36 29.23,14.93 44.06,22.19 14.41,-8.3 29.02,-16.18 43.53,-24.57 0.11,-29.85 -34.72,-57.95 -60.22,-29.96l2.49 -14.82 -4.98 -0.73c-0.42,3.11 -1.14,9.12 -1.45,12.23z"/>
    </g>
    <g>
     <path class="fil0" d="M1758.31 2249.44c26.54,-4.25 42.92,-27.47 66.55,-37.83 35.97,-5.4 79.71,2.79 99.2,36.8 9.44,35.65 -0.83,71.1 -23.42,99.3 -46.65,21.35 -106.35,8.91 -128.43,-40.64 -130.51,1.14 -261.11,-2.28 -391.51,0.52 -25.71,-1.76 -37.22,24.15 -51.73,40.32 -42.5,59.81 -91.94,114.34 -134.55,174.15 -97.12,3.93 -194.46,-3.42 -291.58,2.17 -114.23,-5.7 -228.56,5.29 -342.79,-2.9 -197.37,-0.21 -394.62,-0.62 -591.98,-0.93 -2.08,-4.87 -6.12,-14.72 -8.19,-19.59l0 -16.28c406.74,-4.87 813.8,0.21 1220.55,-2.48 44.16,-63.44 90.7,-125.43 140.66,-184.2 -2.8,-6.22 -5.49,-12.34 -8.19,-18.45 0,-15.35 -0.2,-30.58 -0.62,-45.82 1.66,10.88 3.42,21.87 5.08,32.96 8.5,3.94 17,8.09 25.4,12.13l-2.8 -15.86c143.36,-0.2 286.82,3.22 430.17,-1.14 -3,-3.11 -8.91,-9.22 -11.82,-12.23l0 0zm68.42 -1.03c-4.25,6.01 -12.75,18.13 -16.9,24.15 -7.25,47.78 93.19,49.85 84.48,2.07 -18.34,-18.24 -43.74,-21.25 -67.99,-15.14l2.69 -10.67c-0.52,-0.11 -1.66,-0.31 -2.28,-0.41z"/>
    </g>
    <g>
     <path class="fil0" d="M6590.47 2249.13c35.24,-50.48 129.16,-56.28 150.41,9.85 4.56,-4.98 9.22,-9.95 14.09,-14.83 0.42,5.81 1.14,17.32 1.56,23.12 107.39,-8.5 215.6,-1.04 323.41,-3.94 19.79,-2.38 45.09,7.36 60.43,-9.95 5.8,-8.5 11.4,-17.21 16.9,-26.02 3.93,3.32 7.98,6.84 12.12,10.26 -13.27,6.22 -26.02,13.37 -30.79,27.99 26.02,7.15 59.3,3.84 64.07,-27.68 -1.04,21.56 -3.63,43.02 -5.91,64.38 21.46,11.4 41.88,25.39 66.85,28.29 -12.43,3.84 -24.67,7.88 -36.69,12.24 40.84,42.18 74.43,91 108.43,138.9 402.39,2.07 804.78,0.31 1207.28,0.82l0 39.29c-103.86,-2.8 -207.83,-1.87 -311.69,0 -134.45,-1.35 -268.99,-2.38 -403.33,2.7 -69.45,-1.35 -138.9,-3.84 -208.24,-0.21 -89.46,-3.84 -178.92,-2.7 -268.37,1.14 -11.61,-0.83 -27.68,2.17 -34.21,-10.26 -50.17,-68.52 -107.08,-131.86 -153.62,-202.86 -137.65,-14.3 -276.97,0.52 -415.04,-6.74 -19.38,33.38 -52.55,53.28 -91.21,54.63 -6.85,-17.21 -21.77,-16.79 -36.49,-15.55 -11.3,-10.68 -20.21,-23.43 -29.65,-35.55 0.21,-20.01 0.11,-40.12 -0.31,-60.02l0 0zm91.43 8.6c-26.85,-6.74 -50.79,5.81 -65.52,27.78 22.6,29.13 62.93,28.72 91.22,8.19 -1.45,-10.78 -2.8,-21.46 -4.14,-32.23l-15.55 3 2.38 -18.86c-2.07,3 -6.32,9.12 -8.39,12.12z"/>
    </g>
    <g>
     <path class="fil0" d="M1359.76 2404.72c16.37,-33.69 50.27,-47.58 84.79,-55.35 29.23,6.42 59.29,18.65 73.39,47.05 0.93,15.03 1.34,30.17 1.34,45.41 -8.6,13.89 -16.79,27.98 -24.77,42.29 -12.54,4.87 -25.19,9.74 -37.73,14.61 -1.14,54.84 -0.31,109.57 -1.04,164.4 -377.93,5.08 -756.07,-1.55 -1134,1.25 -59.81,-4.25 -119.93,2.38 -179.53,-4.56 -46.44,5.39 -93.29,1.03 -139.94,3.73 -14.41,-0.31 -33.27,6.63 -38.87,-14.83l-3.52 9.33 0 -28.92c488.32,-1.14 976.75,-0.2 1465.08,-0.52 -0.31,-44.88 0.21,-89.76 -0.63,-134.64 -42.91,-6.64 -61.05,-50.9 -64.57,-89.25l0 0zm108.32 -12.65l2.69 12.54c-21.45,-10.05 -43.64,-6.32 -65.2,-0.1 -1.03,11.51 -2.07,23.01 -3.11,34.52 18.04,10.78 38.67,13.78 59.4,12.75 9.43,-9.85 18.97,-19.59 28.4,-29.44 -8.19,-8.91 -13.99,-19.18 -17.42,-30.79 -1.24,0.21 -3.62,0.42 -4.76,0.52z"/>
    </g>
    <g>
     <path class="fil0" d="M7032.88 2359.42c13.06,-2.9 26.33,-5.81 39.49,-9.12 35.45,5.18 67.17,22.18 83.86,55.04 -5.18,36.38 -19.39,84.58 -63.75,86.76 -0.93,45.4 -0.41,91.01 -0.83,136.51 483.66,0.11 967.32,0 1450.98,0l0 38.46c-17.1,-3.11 -34.52,-4.97 -51.72,-4.97 -474.85,3.31 -949.81,1.03 -1424.76,3.94 -12.75,-53.7 -0.21,-109.26 -7.98,-163.37 -9.43,-12.02 -18.97,-30.58 -37.01,-23.21 -20.42,-24.57 -26.64,-54.84 -23.73,-86.04 11.92,-11.2 23.73,-22.6 35.45,-34l0 0zm-5.7 62.19c8.6,9.85 17.31,19.7 26.01,29.55 12.86,0.1 25.71,0.1 38.77,0.2 5.29,-3.42 15.96,-10.16 21.36,-13.47 -1.25,-11.72 -2.39,-23.22 -3.43,-34.83 -19.38,-3.94 -38.87,-6.53 -58.15,-1.87 -12.23,-33.58 -4.14,17.42 -24.56,20.42z"/>
    </g>
    <path class="fil0" d="M2779.75 2376.73c12.64,-1.14 25.29,-1.56 38.04,-1.97 12.13,-3.01 24.26,-6.63 36.9,-4.15 -0.52,14.93 -0.83,29.75 -0.93,44.78 -3.84,-0.31 -11.61,-0.72 -15.55,-0.93 -19.69,-12.33 -39.08,-24.98 -58.46,-37.73z"/>
    <path class="fil0" d="M5657.46 2383.99c3.21,-3.94 9.64,-11.61 12.85,-15.55 23.53,6.01 47.69,7.56 72.04,5.91 -17.83,10.36 -35.03,21.66 -51.82,33.48 -9.44,3.52 -18.87,6.94 -28.3,10.26 3.11,-9.22 6.32,-18.45 9.64,-27.57l-14.41 -6.53z"/>
    <path class="fil0" d="M1009.5 2379.43c16.27,-13.48 27.58,15.23 11.61,23.11 -14.61,11.71 -23.53,-15.24 -11.61,-23.11z"/>
    <path class="fil0" d="M7491.97 2402.44c-14.09,-9.02 -6.11,-35.35 11.92,-27.58 11.09,7.16 13.48,16.69 7.16,28.51 -4.77,-0.21 -14.31,-0.72 -19.08,-0.93z"/>
    <path class="fil0" d="M88.83 2431.56c9.22,-4.76 18.45,-9.63 27.67,-14.09 1.97,12.95 3.63,26.01 5.19,39.18 -4.57,0.42 -13.69,1.35 -18.25,1.76 -3.63,-6.74 -10.99,-20.11 -14.61,-26.85z"/>
    <path class="fil0" d="M8401.76 2458.52c-12.85,-13.9 -4.25,-34.31 10.89,-41.99 3.21,4.98 9.74,14.93 12.95,19.8 -7.56,7.88 -9.01,27.89 -23.84,22.19z"/>
    <g>
     <path class="fil0" d="M1962.83 2680.55c31.41,0.52 67.38,-5.08 92.46,18.86 24.26,15.03 15.03,46.55 18.56,70.39 -13.27,13.06 -24.16,29.85 -41.05,38.35 -24.15,3.94 -48.82,2.8 -73.18,3.42 -14.31,-13.58 -28.09,-27.88 -37.73,-45.3 -125.12,4.25 -250.44,0.62 -375.66,2.39 -473.19,-2.8 -946.59,-2.08 -1419.78,-3.84 -55.45,-1.35 -112.15,6.84 -166.47,-6.63l-0.1 12.95 0 -37.42c653.24,-1.86 1306.48,0.21 1959.73,-1.03 12.43,-18.87 27.26,-36.07 43.22,-52.14l0 0zm-8.29 73.28c8.71,17.73 28.4,22.6 45.61,27.68 6.63,-1.97 19.8,-6.01 26.43,-8.08 4.25,-3.63 12.64,-10.99 16.9,-14.62 8.81,-54.21 -98.27,-61.47 -88.94,-4.98z"/>
    </g>
    <g>
     <path class="fil0" d="M6444.63 2715.89c21.25,-19.07 46.02,-40.32 77.01,-35.76 35.87,-6.53 61.47,23.74 75.78,52.45 648.37,1.04 1296.84,0.11 1945.21,0.42l0 24.77c-89.56,14.41 -180.25,3.11 -270.44,7.98 -234.26,-0.82 -468.63,0.63 -702.89,1.04 -90.08,-5.81 -180.47,7.98 -270.23,-3.94 -232.81,9.74 -466.98,4.36 -700.2,4.87 -15.97,16.07 -31.51,32.45 -47.27,48.62 -42.92,5.39 -86.35,-9.85 -107.6,-49.34 0.42,-17.11 0.52,-34.11 0.63,-51.11l0 0zm64.16 -0.1c-10.47,5.81 -21.25,10.57 -32.44,14.2 0.31,7.98 1.03,24.05 1.45,32.13 23.73,26.33 59.7,18.56 84.89,-0.82 -1.14,-11.72 -2.59,-23.33 -4.25,-34.94 -14.61,-10.67 -32.75,-9.63 -49.65,-10.57z"/>
    </g>
    <g>
     <path class="fil0" d="M-40.12 2900.61c545.02,-0.52 1090.26,-1.87 1635.07,0.73 51.11,25.6 88.53,72.87 136.62,103.86 28.51,5.18 57.22,-23.11 84.69,-4.15 35.35,11.41 54.32,45.82 49.13,82.1 -16.48,18.45 -32.86,39.29 -58.87,43.64 -33.17,13.37 -63.44,-12.65 -89.25,-29.96 -0.52,-21.97 -0.83,-43.84 -1.14,-65.82 -40.22,-26.12 -77.23,-56.8 -112.88,-88.83 -12.44,-13.89 -32.76,-8.81 -49.24,-10.78 -321.13,0.1 -642.36,0.62 -963.49,-1.45 -30.47,-10.06 -61.26,1.96 -92.15,1.03 -51.41,-0.21 -102.82,-1.24 -154.14,-1.55 -34.93,-0.52 -70.59,4.97 -104.79,-4.25 -93.19,-1.45 -186.38,-0.31 -279.56,-0.42l0 -24.15 0 0zm1785.07 150.82c1.34,11.61 2.69,23.43 4.04,35.24 17.31,10.58 37.11,12.75 57.01,12.65 9.33,-9.02 18.76,-18.03 28.3,-26.74 1.76,-21.04 -14.1,-34.31 -26.95,-48.1 -24.99,-1.87 -45.92,8.71 -62.4,26.95z"/>
    </g>
    <g>
     <path class="fil0" d="M6898.02 2910.46c15.34,-6.01 31.2,-11.61 48.2,-10.58 532.07,0.32 1064.24,0.11 1596.41,0.11l0 30.47c-85.82,-12.95 -173.31,-2.9 -259.86,-5.7 -51.21,15.76 -103.87,-6.11 -155.8,2.08 -27.36,3.93 -54.94,3.83 -82.3,1.97 -20.94,1.76 -42.5,5.07 -62.51,-2.7 -17.52,-0.93 -35.03,-0.72 -52.03,3.63 -335.33,3.63 -670.87,-0.62 -1006.3,3.83 -40.01,33.79 -78.88,69.56 -123.56,97.54 -0.1,21.36 -0.1,42.71 0.1,64.06 -27.98,24.05 -67.27,47.89 -103.96,26.95 -44.47,-13.47 -55.04,-71.31 -26.85,-105.31 16.38,-7.67 32.34,-16.38 49.65,-22.08 21.04,-2.07 40.53,9.54 60.54,14.62 28.61,-18.25 51.41,-44.06 80.64,-61.57 12.96,-11.93 25.5,-24.37 37.63,-37.32l0 0zm-215.4 153.31c7.36,14.72 20.11,25.29 31.3,37.1 17.63,-2.69 37.32,-1.55 51.73,-14.3 22.39,-24.67 -9.12,-63.75 -37.73,-60.12 -22.49,-6.32 -38.87,19.59 -45.3,37.32z"/>
    </g>
    <g>
     <path class="fil0" d="M147.18 3067.08c23.02,-27.78 52.35,-55.45 91.53,-52.45 19.39,13.69 49.24,16.9 57.12,42.81 3.42,15.55 2.17,31.72 3.42,47.58 -13.58,33.38 -50.59,37.42 -81.58,42.91 -31.2,-3.21 -52.14,-23.94 -69.76,-47.88 -61.99,-4.26 -124.49,0.41 -186.69,-2.28 0.31,-7.16 0.94,-21.46 1.14,-28.61 61.47,-4.77 123.25,-0.63 184.82,-2.08l0 0zm36.39 -4.66c-0.31,14.2 -0.62,28.4 -0.73,42.6 6.74,3.32 20.22,9.85 26.95,13.16 7.67,0.21 22.91,0.63 30.48,0.84 6.84,-3.32 20.31,-10.16 27.05,-13.58 -0.31,-15.03 -0.83,-30.06 -1.55,-44.99 -5.81,-3.11 -17.42,-9.33 -23.22,-12.34 -8.71,-0.41 -26.12,-1.03 -34.93,-1.45 -6.02,3.94 -18.04,11.82 -24.05,15.76z"/>
    </g>
    <g>
     <path class="fil0" d="M8223.37 3055.37c9.23,-24.57 37.42,-31.2 59.29,-40.11 38.87,-4.77 63.75,29.64 90.6,51.2 56.39,2.18 112.88,0 169.37,0.52l0 31.51c-57.53,0 -115.05,0 -172.59,0 -16.27,17.93 -30.68,44.47 -58.25,43.85 -25.6,1.35 -54.73,3.83 -75.98,-13.27 -19.9,-18.45 -21.25,-49.76 -12.44,-73.7l0 0zm27.88 49.75c25.3,21.15 57.74,15.34 84.28,0.42 0.31,-24.88 0.83,-51.52 -28.09,-59.09 -9.02,0.21 -27.16,0.63 -36.28,0.83 -22.7,10.47 -25.92,35.87 -19.91,57.84z"/>
    </g>
    <path class="fil0" d="M692.93 3060.86c9.23,-15.55 17.73,-15.65 25.61,-0.2 -8.92,14.72 -17.42,14.82 -25.61,0.2z"/>
    <g>
     <path class="fil0" d="M2286.03 3182.25c15.45,-49.76 73.8,-47.06 115.68,-43.12 18.76,21.97 49.86,52.13 27.78,82.19 -18.97,44.16 -74.11,47.69 -114.02,33.49 -11.4,-13.58 -22.7,-27.27 -33.48,-41.16 -110.81,-0.72 -221.52,0 -332.22,-0.31 -30.68,42.71 -60.64,86.04 -96.3,124.91 -142.63,0.72 -285.36,0.41 -428.1,0.21 -40.74,-40.95 -80.12,-83.24 -120.14,-124.91 -448.41,-0.52 -896.93,0.52 -1345.35,-0.73l0 -30.16c451.94,-1.35 903.99,-0.62 1355.93,-0.41 40.53,38.66 74.73,83.03 111.53,125 140.25,0 280.39,0.11 420.64,-0.1 27.36,-44.16 58.57,-85.83 92.25,-125.32 115.27,0.52 230.54,-0.31 345.8,0.42l0 0zm21.56 15.44c9.02,12.75 18.97,24.98 29.03,37.01 14.92,-0.31 29.95,-0.31 44.98,-0.11 15.76,-14.41 38.67,-40.53 14,-58.67 -25.09,-33.37 -73.29,-10.36 -88.01,21.77z"/>
    </g>
    <g>
     <path class="fil0" d="M6112.93 3140.68c42.08,-9.54 101.16,-7.15 118.27,40.84 115.37,0.73 230.74,1.04 346.11,-0.21 34.83,39.49 64.99,82.83 94.43,126.36 138.79,-0.73 277.59,-0.62 416.39,0 32.13,-33.69 58.46,-72.46 91.63,-105.21 10.05,-9.02 19.38,-23.32 35.24,-20.32 442.51,0.21 885.12,-1.14 1327.63,0.62l0 30.58c-442.92,0.31 -885.85,-0.62 -1328.77,0.73 -43.64,33.17 -72.97,81.06 -114.44,116.82 -9.95,10.78 -26.01,6.63 -38.66,8.08 -132.78,-0.82 -265.47,0.21 -398.14,-0.62 -34.11,-40.01 -63.54,-83.54 -94.95,-125.53 -111.33,1.87 -222.66,-1.14 -333.99,1.66 -9.95,13.27 -20.21,26.23 -30.37,39.18 -30.68,10.99 -61.98,9.85 -92.66,-0.31 -12.45,-17.51 -29.96,-33.69 -32.66,-56.08 3.63,-22.8 21.25,-39.28 34.94,-56.59l0 0zm23.32 21.25c-9.23,8.29 -18.35,16.58 -27.57,24.77 -1.87,21.04 13.68,34.42 26.84,48.2 14.72,-0.62 29.55,-1.03 44.37,-1.55 8.81,-8.4 17.83,-16.69 27.05,-24.77 0.11,-23.12 -19.18,-35.66 -35.24,-48.52 -8.81,0.52 -26.54,1.46 -35.45,1.87z"/>
    </g>
    <path class="fil0" d="M1429 3177.58c7.25,-11.3 16.79,-13.27 28.3,-6.12 0,5.29 0,15.76 0,21.05 -10.37,10.16 -33.07,0.52 -28.3,-14.93z"/>
    <path class="fil0" d="M7063.04 3169.5c15.34,-11.3 31.41,15.23 15.96,24.98 -15.65,11.29 -31.82,-15.34 -15.96,-24.98z"/>
    <g>
     <path class="fil0" d="M1083.82 3286.83c10.58,-25.08 32.97,-40.63 55.56,-54.11 22.39,1.87 47.17,-0.93 65.51,15.04 32.66,16.17 45.72,65.09 16.28,90.59 -20.63,28.61 -58.88,22.39 -89.25,20.01 -22.6,-7.67 -34.93,-31.62 -48.31,-49.76 -374.61,-1.03 -749.12,0.83 -1123.73,-1.66l0 -19.48c374.61,-1.97 749.23,-0.83 1123.94,-0.63l0 0zm47.69 -20.41c-6.22,12.33 -12.55,24.67 -18.77,37 8.81,14.51 20.11,27.05 34.31,36.38 24.16,2.7 42.92,-10.78 59.29,-26.53 -0.41,-8.09 -1.14,-24.46 -1.55,-32.55 -4.97,-3.94 -15.03,-11.71 -20.11,-15.65 -17.72,0.1 -35.45,0.51 -53.17,1.35z"/>
    </g>
    <g>
     <path class="fil0" d="M7310.37 3248.48c40.73,-33.06 103.24,-8.81 120.75,38.05 370.47,0 741.04,-0.21 1111.51,0.1l0 20.73c-369.84,1.55 -739.79,0.31 -1109.64,1.24 -13.48,18.35 -28.71,35.25 -44.47,51.52 -32.65,-1.66 -73.28,7.46 -95.78,-23.11 -25.5,-26.54 -15.44,-73.19 17.63,-88.53l0 0zm0.51 31.51c-15.23,46.86 45.51,75.26 79.51,47.06 15.13,-21.25 5.91,-42.91 -8.19,-61.57 -14.93,-0.2 -29.75,-0.41 -44.57,-0.52 -8.92,4.98 -17.94,10.06 -26.75,15.03z"/>
    </g>
    <g>
     <path class="fil0" d="M573.83 3351.21c13.37,-2.91 26.44,-6.95 38.77,-12.86 11.82,6.95 24.98,10.78 38.46,13.17 11.4,11.5 22.8,23.11 34.31,34.62 6.01,32.24 -10.68,56.59 -34,76.91 -25.29,2.07 -50.58,1.97 -75.88,1.04 -5.28,-3.53 -15.86,-10.47 -21.04,-13.89 -6.32,-9.64 -12.75,-19.08 -19.07,-28.51 -190.83,0.73 -381.67,0.31 -572.5,-0.41 0.1,-7.57 0.31,-22.81 0.42,-30.37 185.85,-0.21 371.61,0.2 557.36,-0.21 25.71,2.28 29.75,-32.86 53.17,-39.49l0 0zm9.23 22.7c-20.01,11.29 -17.83,36.17 -14.41,55.45 24.05,21.05 58.36,16.07 84.58,1.97 -0.2,-16.07 -0.51,-32.03 -0.82,-47.89 -20.32,-12.64 -47.17,-20.42 -69.35,-9.53z"/>
    </g>
    <g>
     <path class="fil0" d="M7832.48 3383.55c20.94,-21.67 46.96,-36.49 75.57,-45.82 28.19,12.34 60.33,22.08 74.94,52.14 186.48,2.38 373.06,0.21 559.64,1.04l0 29.02c-186.06,4.46 -372.23,0.73 -558.29,2.38 -11.82,13.27 -22.7,27.78 -37.11,38.46 -25.19,7.15 -51.93,3.21 -77.74,3.42 -12.23,-12.13 -24.57,-24.25 -36.8,-36.17 -0.1,-14.93 -0.1,-29.65 -0.21,-44.47l0 0zm33.07 0.31c-0.93,14.72 -1.66,29.54 -2.18,44.36 8.5,4.98 17.11,10.06 25.71,15.24 19.49,0.31 39.8,0.1 56.8,-11.09 3.22,-9.33 6.53,-18.56 10.16,-27.68 -5.91,-16.07 -16.38,-28.3 -31.72,-35.76 -9.33,0.31 -28.09,0.93 -37.42,1.25 -5.39,3.42 -16.06,10.26 -21.35,13.68z"/>
    </g>
    <g>
     <path class="fil0" d="M1920.64 3526.49c23.53,-68.21 126.57,-68.73 154.66,-3.84 -3.94,26.75 -9.13,62.09 -40.01,70.28 -42.92,20.84 -97.34,1.04 -113.61,-44.57 -76.6,-1.76 -153.2,-0.83 -229.81,-0.62 -96.19,77.84 -176.94,172.27 -273.03,250.12 -113.61,1.56 -227.32,-1.86 -340.93,2.38 -46.43,-45.29 -92.56,-91.01 -137.44,-137.86 -326.83,-0.62 -653.66,-1.45 -980.59,-1.55l0 -15.14c37.62,-6.42 75.98,-4.35 113.91,-4.35 292.42,0.21 584.73,-0.31 877.15,0.21 46.43,48.51 94.63,95.36 141.59,143.35 99.2,-0.51 198.4,-1.86 297.5,-0.82 20.83,0.51 37,-14.52 50.79,-28.2 32.86,-32.96 65.61,-66.13 98.68,-98.89 44.99,-45.71 97.64,-83.13 141.28,-130.19 79.92,-0.42 159.84,0 239.86,-0.31l0 0zm23.43 11.4c3.94,7.05 11.61,21.15 15.44,28.2 36.08,28.6 94.44,1.65 83.65,-46.86 -14.82,-8.39 -30.06,-16.06 -44.77,-24.46 -22.19,8.91 -41.78,22.39 -54.32,43.12z"/>
    </g>
    <g>
     <path class="fil0" d="M6454.89 3505.65c33.38,-51.82 123.04,-37.42 142.42,20.63 78.68,1.66 157.46,-1.66 236.03,1.35 26.84,16.9 45.81,44.16 70.9,63.64 64.99,52.35 120.14,115.27 179.84,173.21 12.03,13.37 30.06,20.32 48.1,19.7 96.61,-0.93 193.32,-0.42 289.93,1.35 49.03,-47.27 95.57,-97.13 144.7,-144.4 325.28,0.52 650.55,0.11 975.82,0.21l0 20.21c-321.75,-1.86 -643.6,1.25 -965.35,0.42 -46.33,44.05 -88.94,91.94 -136.72,134.34 -114.02,5.18 -229.39,0.41 -343.83,1.45 -96.09,-77.75 -174.66,-174.46 -273.14,-249.3 -75.46,-2.69 -151.13,-0.62 -226.59,-0.51 -13.37,34.41 -49.34,58.66 -86.86,52.03 -46.13,1.76 -84.79,-54.83 -55.25,-94.33l0 0zm21.87 11.72c-0.41,9.12 -1.14,27.47 -1.45,36.69 11.5,8.29 22.7,17.52 35.66,24.05 16.58,3.73 31.61,-7.57 47.26,-11.51 4.25,-9.43 8.4,-18.97 12.34,-28.61 -6.84,-23.22 -30.17,-32.86 -49.24,-43.74 -14.82,7.88 -29.75,15.34 -44.57,23.12z"/>
    </g>
    <g>
     <path class="fil0" d="M560.15 3507c15.86,-10.67 34.52,-15.55 52.14,-22.39 11.4,7.88 24.67,11.09 38.35,12.86 11.61,11.5 23.22,23.11 34.94,34.62 4.66,32.44 -11.1,63.02 -41.36,76.18 -23.12,3.53 -46.65,1.66 -69.97,2.28 -15.14,-13.37 -28.2,-28.92 -39.7,-45.4 -189.9,0.31 -379.9,-2.38 -569.7,0.1 -0.62,-6.94 -1.76,-21.04 -2.28,-28.09 185.75,-0.41 371.61,0.21 557.47,-0.31 20.62,3.94 27.05,-19.28 40.11,-29.85l0 0zm9.23 29.85c-17.83,19.08 3.94,37.11 14.3,52.87 14.62,-0.52 29.23,-0.83 43.85,-1.35 6.32,-3.21 18.97,-9.64 25.39,-12.75 0.21,-15.86 0.42,-31.72 0.94,-47.37 -25.4,-12.75 -71.63,-26.64 -84.48,8.6z"/>
    </g>
    <g>
     <path class="fil0" d="M7868.87 3497.78c13.78,-3.94 27.78,-8.09 41.67,-12.65 29.23,10.47 57.21,25.08 74.73,51.93 185.75,0 371.51,0 557.36,0l0 26.64c-185.34,1.04 -370.78,0.83 -556.11,1.35 -14.1,15.65 -28.51,30.89 -43.33,45.71 -23.53,-0.62 -47.27,1.14 -70.38,-2.8 -15.14,-9.22 -27.47,-21.87 -40.33,-33.58 0.11,-14.72 0.21,-29.34 0.42,-44.06 11.92,-10.78 23.84,-21.66 35.97,-32.54l0 0zm-4.46 29.44c-0.42,15.96 -0.73,32.02 -1.14,48.09 25.81,15.03 70.48,26.85 87.38,-6.43 16.27,-17.51 -8.19,-37.73 -16.27,-54 -23.95,0.72 -48.62,0.31 -69.97,12.34z"/>
    </g>
    <path class="fil0" d="M5578.47 3668.5c14.2,-3.94 19.49,1.24 15.96,15.55 -14.61,4.14 -19.9,-1.04 -15.96,-15.55z"/>
    <g>
     <path class="fil0" d="M1579.82 3707.58c30.48,-33.59 81.47,-49.14 121.49,-22.29 26.01,11.82 27.46,42.09 28.09,66.75 -24.67,30.69 -62.82,57.33 -103.45,40.02 -51.31,36.07 -95.99,80.54 -144.6,120.13 -132.58,0.52 -265.16,0.83 -397.74,-0.2 -42.8,-41.57 -79.5,-89.15 -122.2,-130.82 -29.03,-7.15 -59.61,-2.69 -89.25,-3.73 -304.13,0.31 -608.16,0.21 -912.28,0l0 -7.25c27.47,-3.74 55.14,-4.15 82.71,-3.84 311.18,1.56 622.36,-2.18 933.33,1.56 37.42,43.01 78.88,82.19 118.27,123.24 126.25,-0.1 252.61,2.49 378.65,-1.03 48.31,-27.68 80.86,-76.81 130.09,-104.28 -23.01,-20.22 -22.8,-50.17 -23.11,-78.26l0 0zm35.45 0.31c-5.18,10.16 -10.78,20.11 -16.9,29.85 15.24,14.93 30.9,31.1 52.25,36.8 16.17,-4.56 31.41,-11.82 46.54,-18.97 -0.93,-18.87 4.35,-42.29 -16.69,-52.14 -18.87,-19.69 -45.71,-6.53 -65.2,4.46z"/>
    </g>
    <g>
     <path class="fil0" d="M6791.46 3716.7c12.23,-40.43 59.81,-46.34 95.68,-45.92 16.99,11.71 33.68,23.94 50.06,36.8 0.21,27.98 -1.45,57.01 -22.39,78.05 27.78,21.15 56.81,41.15 80.65,66.96 18.55,16.69 37.1,41.26 64.89,39.08 120.03,0.21 240.06,-0.31 360.1,0.1 38.97,-41.77 84.06,-78.15 117.75,-124.7 334.71,-1.45 669.62,-0.1 1004.43,-0.51l0 10.98c-328.17,1.25 -656.66,-2.38 -984.63,1.98 -45.71,40.73 -81.47,91.63 -126.88,132.99 -132.05,0 -264.22,0.41 -396.38,-0.21 -47.68,-40.22 -92.56,-83.97 -143.35,-120.24 -46.65,20.52 -116.2,-20.84 -99.93,-75.36l0 0zm28.4 0.41c0,12.13 1.04,24.15 3.11,36.18 10.78,14.3 30.27,15.86 45.71,22.7 19.8,-10.57 39.81,-23.12 49.24,-44.57 -11.09,-14.1 -23.11,-27.16 -37.94,-37.32 -7.15,-0.31 -21.66,-0.93 -28.81,-1.24 -10.58,8.08 -20.94,16.17 -31.31,24.25z"/>
    </g>
    <g>
     <path class="fil0" d="M2342.52 3721.36c46.03,-24.25 123.56,15.55 103.14,73.18 -23.11,65.41 -126.77,57.32 -147.19,-6.73 -78.05,0.1 -156,-2.08 -233.95,-1.87 -30.68,11.92 -52.45,37.42 -77.43,57.53 -652.62,526.57 -1300.48,1058.85 -1946.98,1592.78l-32.55 0c172.9,-141.59 343.21,-286.19 519.42,-423.54 37.63,-31.71 74.95,-63.85 114.13,-93.49 464.89,-380.73 933.01,-757.73 1397.8,-1138.46 10.58,-6.84 21.56,-15.65 35.15,-14 74.83,-1.03 149.78,0.42 224.62,-0.41 11.4,-17.83 21.56,-39.08 43.84,-44.99l0 0zm15.35 14.2c-15.45,11.1 -28.41,25.19 -36.8,42.5 13.27,18.66 30.37,37.73 54,42.09 22.6,-6.12 51.93,-25.19 43.64,-52.35 -1.55,-17.41 -20.94,-22.6 -31.92,-32.86 -7.26,0.1 -21.67,0.42 -28.92,0.62z"/>
    </g>
    <g>
     <path class="fil0" d="M6080.17 3739.81c24.88,-21.04 61.78,-34.51 92.98,-19.17 22.7,6.42 32.96,28.81 48.1,44.67 79.29,3.32 158.8,0.11 238.2,1.35 294.69,237.37 586.7,478.17 880.46,716.68 308.17,247.84 612.61,500.46 922.75,745.71 80.85,69.24 161.39,138.79 242.97,207.2l-31.93 0c-107.7,-90.69 -214.05,-182.95 -323.51,-271.37 -559.54,-457.02 -1117.31,-916.42 -1679.34,-1370.13 -18.03,-14.51 -42.19,-8.6 -63.23,-9.12 -62.19,3.52 -124.8,-1.24 -186.89,3.63 -15.45,18.45 -28.61,41.46 -54.01,47.26 -31.09,12.44 -61.05,-4.04 -87.28,-19.27 -9.33,-24.26 -19.38,-55.67 0.73,-77.44l0 0zm21.87 14.31c-3.94,13.37 -2.59,27.57 -3.11,41.46 15.86,8.92 30.17,26.02 50.17,23.22 19.7,-7.67 33.48,-24.57 47.99,-39.08 -6.21,-9.95 -12.12,-20.11 -17.72,-30.27 -23.84,-19.17 -55.77,-17.62 -77.33,4.67z"/>
    </g>
    <g>
     <path class="fil0" d="M626.91 3860.47c15.34,-43.85 63.23,-58.26 105.52,-52.66 18.97,11.61 35.03,26.95 46.02,46.54 -0.1,11.3 -0.1,22.6 -0.1,34 -13.37,11.82 -25.29,26.12 -41.36,34.42 -38.77,23.73 -94.33,-1.14 -109.88,-42.3 -77.43,-3.21 -155.07,-0.82 -232.6,-2.79 -144.92,3.73 -289.83,-3.11 -434.63,0l0 -13.89c20.52,-2.59 41.15,-3.63 61.88,-3.53 201.71,0.42 403.43,0.11 605.15,0.21l0 0zm37.62 -19.9c-13.06,19.9 -12.12,40.01 3.22,58.36 12.23,2.28 23.63,6.73 34.1,13.26 15.13,-7.15 33.17,-10.78 44.26,-24.25 0.83,-12.44 1.35,-24.77 1.45,-37.11 -21.87,-25.92 -55.04,-26.02 -83.03,-10.26z"/>
    </g>
    <g>
     <path class="fil0" d="M7754.02 3828.96c40.73,-38.15 118.27,-23.84 136.3,31.09 217.48,0.84 434.84,0.21 652.31,0.42l0 15.96c-217.37,3.22 -434.83,0.21 -652.2,3.63 -9.75,32.13 -42.71,45.71 -72.46,52.87 -33.38,1.14 -58.46,-24.78 -81.16,-45.82 1.76,-20.32 5.08,-41.15 17.21,-58.15l0 0zm24.98 14.82c-14.72,10.16 -6.85,30.99 -9.85,45.92 13.78,7.57 27.78,14.72 41.87,22.18 12.76,-4.76 25.61,-9.33 38.98,-13.37 5.08,-9.64 10.78,-18.97 15.44,-28.82 -4.45,-38.24 -61.57,-55.35 -86.44,-25.91z"/>
    </g>
    <g>
     <path class="fil0" d="M2554.81 3870.73c25.4,-0.62 50.79,-0.62 76.19,-0.2 12.13,13.26 25.92,25.39 35.55,40.73 6.85,31.2 -10.05,65.82 -41.04,76.09 -30.69,19.59 -64.17,-1.56 -93.3,-13.27 -4.87,-10.78 -9.63,-21.46 -14.4,-32.14 -118.9,-3.1 -237.89,-4.56 -356.79,-7.36 -200.78,173.42 -404.57,343.42 -605.87,516.32 -387.26,326.31 -768.2,660.08 -1156.08,985.35l-35.14 0c194.04,-158.48 383.63,-322.57 574.57,-484.8 404.26,-342.68 806.86,-687.65 1212.78,-1028.37 120.65,-0.83 241.31,0.83 361.97,-0.83 12.12,-18.56 26.74,-35.14 41.56,-51.52l0 0zm22.08 22.19c-5.8,3.42 -17.41,10.15 -23.22,13.57 -2.28,11.72 -4.66,23.53 -7.15,35.35 4.66,5.7 14.1,17.1 18.76,22.81 18.35,-0.11 36.7,0.93 55.04,-0.94 22.6,-10.78 13.37,-36.49 14.51,-56.08 -6.63,-3.83 -19.69,-11.5 -26.32,-15.34 -10.58,0.11 -21.15,0.31 -31.62,0.63z"/>
    </g>
    <g>
     <path class="fil0" d="M5849.64 3905.56c12.54,-11.5 24.15,-24.36 38.56,-33.59 23.42,-3.42 47.26,-2.07 71,-1.24 11.61,11.61 23.43,23.12 35.45,34.52 1.25,4.35 3.84,13.27 5.08,17.72 121.9,0 243.8,-0.2 365.7,0 49.34,36.8 94.64,78.58 141.81,118.28 549.48,464.27 1093.67,935.08 1646.89,1395l-35.35 0c-79.4,-61.77 -153.31,-130.6 -230.74,-194.97 -503.77,-429.45 -1005.98,-860.66 -1511.31,-1288.35 -10.05,-6.84 -18.24,-20 -31.93,-17.62 -114.95,0.83 -229.8,4.87 -344.65,6.12 -5.71,10.88 -11.3,21.87 -16.79,32.96 -20.74,8.7 -41.05,20 -63.75,21.97 -28.82,-4.56 -54.21,-21.56 -70.39,-45.6 0.11,-15.14 0.21,-30.17 0.42,-45.2l0 0zm31.92 1.04c-0.51,15.23 -0.82,30.58 -1.45,45.92 19.39,17 45.92,11.4 69.56,12.23 6.32,-7.15 12.75,-14.2 19.17,-21.25 -1.97,-12.23 -3.63,-24.46 -4.97,-36.7 -9.02,-4.97 -17.94,-10.05 -26.75,-15.23 -20.1,-1.35 -38.56,4.97 -55.56,15.03z"/>
    </g>
    <g>
     <path class="fil0" d="M2807.74 4049.23c8.91,-35.76 47.06,-40.95 76.49,-51.93 12.96,3.94 25.92,7.56 39.08,11.09 12.03,11.5 24.05,23.11 36.07,34.72 0.11,9.85 0.32,29.44 0.42,39.18 -17.73,34.73 -56.6,60.44 -96.3,46.24 -29.95,-4.15 -44.98,-31.41 -63.95,-51.21 -165.44,-1.66 -330.98,-2.59 -496.21,-7.88 -260.18,215.61 -515.48,436.91 -773.48,655.21 -235.2,199.54 -469.57,400.12 -703.93,600.59 -41.99,37.21 -88.01,69.66 -126.26,111.01l-41.77 0c18.14,-11.5 35.14,-24.56 50.58,-39.49 322.89,-274.69 646.1,-549.17 968.98,-823.96 197.99,-168.76 398.04,-335.43 593.95,-506.16 34.84,-17.62 76.4,-7.36 114.03,-10.57 140.76,-4.77 281.63,-2.39 422.3,-6.84l0 0zm37.1 -10.99c-11.4,23.43 -5.59,47.16 14.31,63.54 25.91,1.76 49.86,-5.7 70.28,-21.66 7.15,-47.58 -50.59,-66.76 -84.59,-41.88z"/>
    </g>
    <g>
     <path class="fil0" d="M5592.36 4007.45c24.88,-7.56 50.38,-8.49 75.57,-1.34 25.81,10.47 34.62,49.13 65.61,44.98 159.01,0 318.02,3.01 477.03,6.33 36.9,-2.08 58.36,31.71 83.96,52.24 521.81,440.85 1038.74,888.02 1562.83,1326.39l-9.43 0.2 -30.27 0c-26.12,-26.53 -53.17,-51.93 -83.13,-74.11 -288.69,-246.49 -578.2,-492.16 -866.36,-739.38 -218.72,-184.09 -433.6,-373.06 -655.63,-553.32 -167.51,5.18 -335.12,6.53 -502.73,7.98 -9.33,15.45 -19.49,30.37 -29.96,44.99 -24.78,3.84 -50.9,15.24 -75.36,4.46 -21.98,-5.18 -33.89,-25.71 -47.37,-41.67 0.21,-14.62 0.52,-29.13 0.83,-43.64 11.5,-11.3 23.01,-22.6 34.41,-34.11l0 0zm-3.11 43.44c-0.2,6.73 -0.41,20.21 -0.52,26.95 8.4,7.36 16.8,14.72 25.09,22.28 19.28,-1.96 45.3,7.47 56.6,-13.89 13.89,-13.89 2.59,-32.96 0,-48.82 -16.28,-7.67 -34,-10.57 -51.83,-10.99 -9.75,8.19 -19.59,16.28 -29.34,24.47z"/>
    </g>
    <g>
     <path class="fil0" d="M876.3 4006.11c21.67,0.2 43.23,0.1 64.89,-0.11 16.28,17.11 40.74,33.38 36.59,60.54 5.08,45.5 -49.23,61.05 -85,54.73 -32.96,1.97 -51.82,-26.95 -65.61,-52.24 -289.1,-0.42 -578.2,0.52 -867.29,-0.42l0 -7.77c51.72,-5.91 103.86,-2.18 155.69,-2.9 236.96,-1.04 474.12,1.86 710.87,-1.46 14.2,-19.28 28.2,-38.97 49.86,-50.37l0 0zm7.88 21.14c-7.36,6.12 -14.61,12.23 -21.97,18.35 -0.32,13.48 -0.63,26.95 -0.94,40.43 4.77,3.62 14.41,10.88 19.18,14.51 16.69,-0.31 33.27,-0.52 49.86,-0.73 8.19,-8.6 16.48,-17 24.88,-25.29 -0.21,-5.7 -0.52,-17.21 -0.73,-22.91 -8.29,-8.19 -16.48,-16.38 -24.57,-24.56 -15.23,0 -30.47,0.1 -45.71,0.2z"/>
    </g>
    <g>
     <path class="fil0" d="M7539.45 4041.35c12.64,-12.02 25.29,-23.94 38.14,-35.76 32.86,-1.14 66.96,-0.42 94.64,20 3.94,14 10.05,34.11 29.13,31.62 280.39,1.55 560.88,0.21 841.27,0.62l0 11.2c-276.35,-0.11 -552.69,0.1 -829.04,-0.11 -35.56,-8.08 -36.9,40.74 -66.76,48.2 -34.62,9.02 -79.71,8.71 -103.76,-22.08 -3.93,-17.72 -3,-35.86 -3.62,-53.69l0 0zm22.08 10.16c-0.21,5.91 -0.63,17.52 -0.83,23.32 8.91,8.5 18.03,17 27.05,25.61 23.12,0.3 47.27,1.34 68.21,-10.89 -0.42,-14.62 -0.63,-29.13 -0.73,-43.64 -8.09,-6.32 -16.07,-12.54 -23.94,-18.76 -14.62,0 -29.13,0 -43.54,0.1 -8.81,8.19 -17.52,16.17 -26.22,24.26z"/>
    </g>
    <path class="fil0" d="M3765.21 4047.47c16.9,-4.36 23.43,2.07 19.49,19.17 -16.17,3.32 -22.7,-3 -19.49,-19.17z"/>
    <path class="fil0" d="M4737.51 4070.69c-17.73,-5.19 -4.25,-31 10.88,-26.44 17.42,4.56 2.7,29.44 -10.88,26.44z"/>
    <path class="fil0" d="M7185.46 4121.69c30.37,-16.49 2.49,34.2 0,0z"/>
    <g>
     <path class="fil0" d="M30.78 4197.77c20.52,-31.31 55.76,-62.2 95.88,-48.62 35.04,3.42 54.94,37.42 59.91,69.14 -15.75,16.69 -29.85,37.21 -53.17,43.95 -24.16,11.92 -49.65,-1.97 -73.81,-6.74 -9.43,-12.95 -18.66,-25.91 -27.46,-39.18 -24.16,-0.93 -48.31,-2.07 -72.25,-5.6l0 -11.29c23.63,-0.31 47.26,-0.52 70.9,-1.66l0 0zm38.66 -23.22c-6.84,14.82 -12.33,30.16 -13.68,46.64 9.64,8.09 19.17,16.18 28.71,24.47 14.41,0.41 28.82,0.83 43.23,1.24 7.56,-5.08 15.13,-10.16 22.7,-15.24 3.21,-7.25 9.64,-21.66 12.95,-28.92 -10.88,-12.33 -21.04,-25.81 -35.55,-34.1 -17.93,-14.1 -39.7,2.8 -58.36,5.91z"/>
    </g>
    <g>
     <path class="fil0" d="M8369.11 4151.95c25.5,-4.45 51.42,-5.7 77.02,-0.21 13.47,15.24 27.05,30.69 40.11,46.55 18.66,0.51 37.53,0.93 56.39,1.45l0 15.44c-18.86,-0.1 -37.52,-0.2 -56.18,-0.31 -9.53,14.51 -20,28.3 -30.78,41.88 -39.5,15.65 -91.64,13.47 -114.03,-27.88 -23.32,-27.99 10.68,-56.29 27.47,-76.92l0 0zm22.39 14.82c-16.58,8.4 -26.12,24.88 -36.8,39.19 3.43,7.15 10.27,21.56 13.69,28.71 30.26,20.73 71.52,15.65 93.29,-14.51 -3.01,-15.55 -7.36,-30.79 -13.06,-45.4 -18.76,-3.22 -38.36,-18.76 -57.12,-7.99z"/>
    </g>
    <g>
     <path class="fil0" d="M3104.61 4227c33.48,-34.93 92.15,-48.31 130.6,-13.37 23.33,15.75 14.2,46.43 17.94,70.17 -15.66,16.17 -32.55,31.1 -52.56,41.67 -20.31,69.45 -3.83,142.95 -10.26,214.16 -295.94,-1.14 -591.88,-1.04 -887.82,-1.04 -1.76,299.15 -0.21,598.41 -0.72,897.66l-31.31 0c0,-293.55 0.11,-587 -0.1,-880.56 -0.21,-16.17 3.63,-31.71 8.08,-46.95 293.56,1.14 587.12,-2.7 880.77,-1.97 -2.9,-60.95 -0.52,-122 -1.76,-182.96 -19.9,-6.53 -37,-18.65 -52.55,-32.34 -0.31,-21.56 -0.31,-43.01 -0.31,-64.47l0 0zm29.54 46.96c12.75,8.19 26.22,15.34 40.11,21.87 16.07,-6.02 32.03,-12.24 47.79,-19.18 -2.18,-17.31 -0.1,-37.32 -16.48,-48.41 -18.14,-1.55 -36.28,-0.41 -54.22,0.73 -20.41,6.01 -13.36,29.54 -17.2,44.99z"/>
    </g>
    <g>
     <path class="fil0" d="M3304.25 4207.82c20.21,-20.94 51.62,-11.92 77.53,-14.41 15.66,14.72 31,29.76 46.44,44.89 0.62,11.3 1.35,22.6 2.18,34 -13.27,25.81 -35.14,46.44 -63.96,53.49 0.21,98.57 -1.35,197.05 0.93,295.62 -31.82,12.85 -66.75,8.19 -100.13,7.78 -69.13,-7.57 -138.79,-4.98 -208.14,-5.71 -214.26,0.63 -428.41,-1.03 -642.67,-0.72 0,271.16 0,542.33 0,813.49l-31.2 0c-0.1,-245.14 0.11,-490.29 -0.1,-735.44 0.31,-36.59 -3.53,-73.91 7.46,-109.36 314.08,0.63 628.16,-1.65 942.24,-0.51 0.41,-89.35 -0.73,-178.71 0.72,-267.96 -32.44,0.63 -54,-27.57 -63.33,-55.45 -7.88,-26.23 14.51,-44.78 32.03,-59.71l0 0zm-3.84 47.06c7.67,23.64 23.74,38.56 49.45,38.35 11.61,-2.38 23.42,-4.45 35.24,-6.01 22.7,-18.66 8.81,-43.95 -9.02,-59.29 -15.96,0.31 -31.82,0.21 -47.58,-1.14 -9.43,9.33 -18.86,18.56 -28.09,28.09z"/>
    </g>
    <g>
     <path class="fil0" d="M3480.36 4218.81c36.9,-51 127.4,-24.67 137.14,34.93 3.01,35.45 -28.4,68.52 -63.23,71.11 -0.31,118.17 0.41,236.34 -0.1,354.51 3.31,15.96 -12.96,27.88 -27.79,24.67 -49.02,-2.18 -98.99,4.56 -147.29,-5.6 -44.16,6.63 -89.15,7.77 -133.2,0.41 -48.41,-7.15 -96.61,9.13 -145.02,3.11 -65.09,-9.43 -130.91,-3.62 -196.42,-4.66 -117.86,-1.35 -235.82,-0.31 -353.68,-1.14 -6.63,246.49 3.11,493.4 -0.73,740.1l-32.65 0c-0.31,-254.26 2.49,-508.64 2.18,-762.91 148.85,-1.24 297.7,-0.41 446.55,-2.07 185.55,-9.53 371.61,-0.62 557.36,-5.91 -1.86,-113.92 0.83,-227.94 -1.45,-341.86 -49.24,0.21 -85.41,-73.18 -41.67,-104.69l0 0zm39.08 7.78c-10.16,9.01 -20.11,18.03 -30.06,27.15 5.6,10.68 10.89,21.46 16.07,32.45 11.92,2.59 23.94,5.59 35.86,8.6 23.64,-4.25 42.09,-15.96 48.2,-40.01 -9.53,-8.71 -18.86,-17.21 -28.09,-25.91 -14.1,-0.83 -28.09,-1.56 -41.98,-2.28z"/>
    </g>
    <g>
     <path class="fil0" d="M4947.52 4193.31c20.21,0.31 40.63,-0.1 60.84,2.18 26.44,16.37 52.25,41.46 51.31,75.15 -11.92,28.61 -35.24,47.68 -65.3,54.52 0.31,113.61 -0.52,227.22 0.41,340.82 70.91,3.84 141.91,-1.55 212.81,1.97 64.48,7.67 129.47,1.56 194.25,2.91 198.5,1.45 397.01,1.14 595.41,2.59 -0.63,254.27 0.62,508.54 2.07,762.8l-33.38 0c-3.21,-246.8 5.39,-493.71 -0.93,-740.31 -160.05,0.62 -320.09,1.56 -480.04,0.73 -44.98,0 -89.87,11.71 -134.75,3.42 -55.25,-9.95 -110.08,7.15 -165.33,3.21 -68.72,-2.07 -137.45,2.49 -206.07,0 -3.73,-3.21 -11.09,-9.43 -14.72,-12.65 -2.49,-121.69 -0.21,-243.59 -1.03,-365.38 -30.17,-0.52 -46.03,-27.16 -63.24,-47.48 0,-9.23 0,-27.78 0,-37 15.03,-16.69 30.79,-32.76 47.69,-47.48l0 0zm-18.87 60.33c5.08,11.19 10.16,22.29 15.34,33.58 23.01,6.33 46.54,6.33 69.45,-0.41 2.59,-13.79 20.22,-30.48 5.91,-42.5 -14.2,-20.73 -39.49,-17.21 -61.05,-16.48 -9.85,8.7 -19.7,17.31 -29.65,25.81z"/>
    </g>
    <g>
     <path class="fil0" d="M5135.96 4193.21c24.98,2.8 55.15,-6.12 75.26,13.16 21.87,14.72 36.59,37.42 36.38,64.47 -16.17,22.91 -31.82,55.36 -65.3,51.42 -0.11,89.46 0.1,179.01 -0.11,268.57 309,-0.1 618,-0.2 927,1.56 18.56,-1.76 25.61,19.17 22.71,34.31 -0.63,269.92 0.2,539.74 -0.32,809.55l-31.2 0c-0.2,-271.37 0.21,-542.64 -0.2,-814.01 -247.74,0.83 -495.48,1.97 -743.22,1.35 -5.39,23.63 -20.63,24.46 -25.5,-0.83 -52.04,7.26 -104.69,-0.1 -156.63,7.26 -17.93,5.38 -25.29,-19.08 -23.73,-32.55 -0.31,-90.6 -0.11,-181.3 0.2,-271.89 -37.62,-7.05 -69.97,-42.81 -62.5,-82.31 11.82,-20 29.96,-34.93 47.16,-50.06l0 0zm4.46 36.59c-9.54,10.78 -17.21,22.91 -24.77,35.14 4.56,5.59 13.47,16.79 18.03,22.49 22.81,5.49 45.92,4.35 68.73,-0.52 12.43,-19.59 15.65,-43.22 -10.16,-53.28l2.07 -7.77c-18.03,1.03 -35.97,2.38 -53.9,3.94z"/>
    </g>
    <g>
     <path class="fil0" d="M5312.7 4193.62c17.72,0.21 35.66,0.41 53.59,0.41 22.49,14.52 52.24,29.96 47.99,61.99 6.01,34.11 -23.94,60.12 -54.21,67.69 -2.9,61.16 0.72,122.42 -2.49,183.58 290.86,-1.46 581.82,2.07 872.68,2.17 4.05,2.28 12.13,6.74 16.18,9.02 1.03,305.89 -1.04,611.89 1.03,917.77l-32.24 0c0.11,-299.04 -0.2,-598.09 0.21,-897.14 -295.94,-0.83 -591.98,-1.14 -887.92,1.24 -11.71,-71.52 8.81,-145.64 -11.2,-215.6 -40.32,-13.06 -58.15,-52.45 -51.93,-92.57 15.03,-14.2 31,-27.16 48.31,-38.56l0 0zm-3.74 93.29c12.24,2.18 24.57,4.67 36.8,7.46 12.24,-6.32 26.64,-10.36 35.25,-22.07 2.38,-15.66 -3.32,-30.27 -9.23,-44.16 -20.94,1.76 -43.01,-3.94 -63.23,2.28 -16.07,15.86 -15.03,40.63 0.41,56.49z"/>
    </g>
    <g>
     <path class="fil0" d="M335.53 4327.34c21.77,-14.2 28.92,-48.82 59.91,-49.65 35.56,-8.5 68.21,4.56 89.97,33.06 0.42,15.76 0.94,31.41 1.56,47.27 -26.64,33.48 -75.57,48.1 -113.3,24.77 -20.11,-10.05 -23.74,-44.36 -49.75,-41.77 -121.28,-1.45 -242.66,0.62 -364.04,-0.93l0 -8.81c125.01,-7.26 250.53,0.93 375.65,-3.94l0 0zm34.31 -12.23c1.55,19.28 -5.81,45.61 16.89,54.93 19.49,6.12 39.91,3.01 59.81,1.46 23.74,-17.52 23.64,-48.93 3.73,-69.25 -12.02,-3.83 -24.04,-7.67 -36.07,-11.5 -15.65,6.32 -32.96,10.99 -44.36,24.36z"/>
    </g>
    <g>
     <path class="fil0" d="M8068.4 4276.75c29.55,-0.31 60.54,-1.55 87.08,14.1 9.53,13.17 12.95,39.29 33.69,37.42 117.75,0.94 235.61,0 353.46,0.31l0 12.03c-121.59,0.31 -243.18,-0.73 -364.77,0.62 -10.26,13.47 -17.62,30.06 -31.71,40.01 -21.67,16.79 -50.28,9.95 -75.47,12.02 -13.68,-12.54 -27.15,-25.29 -40.21,-38.24 0.31,-14.21 0.62,-28.2 1.03,-42.19 12.23,-12.13 24.47,-24.16 36.9,-36.08l0 0zm0.63 23.12c-10.58,14.72 -21.98,30.27 -16.9,49.65 18.97,33.79 68.52,30.17 95.78,9.02 -3.21,-17.21 3.83,-37.73 -7.46,-52.45 -21.57,-14.82 -47.69,-15.65 -71.42,-6.22z"/>
    </g>
    <g>
     <path class="fil0" d="M1020.49 4331.07c12.44,-2.28 24.98,-4.46 37.52,-6.84 13.06,2.28 26.23,4.46 39.39,6.53 12.86,14.93 29.96,27.78 35.76,47.27 0.42,32.03 -24.36,54.94 -50.89,68.31 -22.6,-1.35 -45.92,-1.87 -66.34,-12.75 -90.7,75.46 -185.34,145.95 -277.39,219.75 -259.55,-0.21 -519.11,1.14 -778.66,-0.73l0 -20c259.55,-0.94 519.21,1.86 778.66,-1.25 84.9,-59.7 162.02,-129.98 246.08,-191.14 19.39,-8.08 7.57,-25.4 3.11,-39.39 -0.62,-8.4 -1.86,-25.19 -2.48,-33.69 11.71,-12.02 23.42,-24.05 35.24,-36.07l0 0zm8.19 20.11c-14.2,15.13 -35.35,41.36 -10.78,58.05 14.61,22.49 43.43,12.23 65.61,15.65 26.85,-18.24 24.67,-51.62 5.39,-74.63 -20,-5.7 -40.32,-5.19 -60.22,0.93z"/>
    </g>
    <g>
     <path class="fil0" d="M7457.25 4322.57c29.95,3.94 55.04,19.7 73.7,43.23 -0.21,9.01 -0.52,27.15 -0.73,36.17 -4.97,8.61 -9.85,17.21 -14.61,25.91 88.52,66.14 173.72,136.52 260.9,204.52 255.3,0 510.72,1.14 766.12,-0.52l0 21.56c-248.98,-0.1 -497.86,0.31 -746.84,-0.1 -18.35,1.66 -31.62,-12.65 -45.3,-21.98 -83.75,-66.34 -169.68,-130.09 -251.26,-199.02 -7.05,4.05 -14,8.29 -20.84,12.55 -15.86,-0.11 -31.51,-0.11 -47.16,0.2 -24.05,-13.89 -52.87,-35.45 -47.37,-67.06 6.42,-34.21 42.08,-50.59 73.39,-55.46l0 0zm-48.52 64.37c1.87,6.01 5.5,17.83 7.36,23.84 8.3,4.56 16.69,9.33 25.19,14.1 21.67,-0.83 47.06,2.28 60.12,-19.28 21.77,-16.9 -1.55,-39.39 -13.58,-53.59 -8.18,-2.18 -24.46,-6.74 -32.54,-9.02 -24.46,4.87 -42.29,18.66 -46.55,43.95z"/>
    </g>
    <path class="fil0" d="M643.49 4328.27c34.73,-0.93 -14.2,31.2 0,0z"/>
    <path class="fil0" d="M2657.12 4372.64c5.81,-0.32 17.42,-0.94 23.22,-1.25 -3.73,12.23 -7.57,24.46 -12.13,36.49 -4.04,-11.2 -18.97,-23.01 -11.09,-35.24z"/>
    <g>
     <path class="fil0" d="M14.92 4464.16c18.24,-26.74 45.19,-51.1 79.4,-51.41 32.24,4.15 63.96,26.74 68.93,60.85 -2.18,25.19 -24.36,40.84 -42.6,55.04 -26.75,-1.97 -58.78,8.29 -80.13,-13.06 -12.13,-10.78 -19.49,-25.4 -28.71,-38.46 -15.76,-0.62 -31.41,-1.86 -47.06,-3.63 14.1,-12.54 33.27,-7.98 50.17,-9.33l0 0zm20.31 -2.9c-11.19,72.35 119,72.35 107.39,-0.52 -9.22,-8.81 -18.45,-17.51 -27.57,-26.32 -17.31,-0.21 -34.72,-0.21 -52.04,0 -9.22,8.91 -18.55,17.82 -27.78,26.84z"/>
    </g>
    <g>
     <path class="fil0" d="M8372.02 4433.79c22.28,-11.29 46.33,-28.92 72.45,-17.41 25.5,5.91 40.63,28.3 55.98,47.48 13.99,0.41 27.98,0.82 42.18,1.24l0 11.09c-13.37,0.21 -26.53,0.41 -39.59,0.83 -9.33,13.68 -16.17,29.54 -28.51,40.94 -18.86,15.86 -45.5,10.99 -68,10.58 -29.54,-0.83 -41.36,-32.86 -54.42,-54.11 6.64,-13.58 13.37,-27.06 19.91,-40.64l0 0zm3.73 49.14c13.37,38.87 62.71,39.07 93.81,22.28 7.98,-14.61 18.24,-35.24 5.39,-49.96 -24.05,-41.15 -107.19,-25.6 -99.2,27.68z"/>
    </g>
    <path class="fil0" d="M2198.44 4474.01c34.52,2.28 -17.2,29.86 0,0z"/>
    <path class="fil0" d="M3987.24 4571.97c13.48,-1.56 27.16,-1.66 40.74,-0.11 -6.32,11.72 -12.86,23.33 -19.38,34.94 -7.36,-11.41 -14.62,-23.22 -21.36,-34.83z"/>
    <path class="fil0" d="M4492.46 4570.72c12.03,-0.52 24.05,-0.62 36.18,-0.2 -5.49,12.33 -12.02,24.25 -18.87,36.07 -7.36,-10.78 -22.07,-20.94 -17.31,-35.87z"/>
    <g>
     <path class="fil0" d="M1976.72 4615.71c20.32,-14.62 39.8,-37.11 66.96,-35.97 24.88,-2.49 45.92,12.86 67.69,22.29 18.66,28.61 15.86,63.02 -4.87,89.76 -15.03,5.4 -29.96,11.3 -44.89,16.9 0.42,242.56 0.11,485.01 0.21,727.56l-31.3 0c0.1,-241.72 -0.31,-483.55 0.2,-725.28 -18.24,-12.02 -37.83,-23.63 -50.48,-41.87 -5.9,-17.21 -2.69,-35.66 -3.52,-53.39l0 0zm64.68 -12.64c-16.69,8.91 -29.54,23.32 -43.84,35.45 5.39,10.98 10.67,22.07 15.85,33.27 26.13,18.66 73.08,13.58 80.55,-21.35 9.33,-32.66 -27.47,-46.13 -52.56,-47.37z"/>
    </g>
    <g>
     <path class="fil0" d="M6392.59 4626.39c16.69,-26.33 43.54,-48.93 76.71,-46.65 28.61,-3.21 49.96,18.87 70.59,35.04 -0.11,18.76 -0.11,37.52 0.1,56.28 -16.9,14.31 -34.73,27.47 -53.07,39.91 0,241.73 -0.11,483.45 0,725.28l-31.41 0c0.21,-242.03 -0.52,-484.07 0.31,-726 -26.12,-9.33 -49.34,-24.57 -64.16,-48.41 0.2,-8.92 0.62,-26.64 0.93,-35.45l0 0zm47.89 -12.55c-4.35,3.01 -13.27,9.23 -17.62,12.24 -12.03,45.4 46.23,73.7 80.02,46.33 4.46,-6.63 13.37,-19.9 17.83,-26.54 -10.89,-21.14 -29.23,-35.86 -50.69,-45.09 -7.36,3.32 -22.18,9.75 -29.54,13.06z"/>
    </g>
    <g>
     <path class="fil0" d="M3674.93 4621.41c33.47,0.93 76.6,-5.49 98.05,27.26 21.77,26.75 9.95,65.41 -12.33,87.7 -26.23,19.8 -61.78,12.12 -92.05,10.26 -83.13,64.27 -157.25,139.11 -239.34,204.51 -0.73,139.73 -0.21,279.36 -0.31,419.09 -3.53,4.14 -10.68,12.64 -14.2,16.89 -6.02,1.56 -18.14,4.56 -24.26,6.12 -4.04,-3.63 -12.13,-10.99 -16.17,-14.62 -51.2,2.39 -102.52,2.59 -153.72,0.31 -4.04,19.08 -8.09,38.05 -11.82,57.32l-30.47 0c-0.11,-28.4 -0.21,-56.7 -0.42,-84.99 73.18,-4.04 146.57,1.03 219.96,-2.9 -0.52,-136.11 -0.1,-272.31 -0.21,-408.41 78.99,-75.67 166.89,-141.28 242.66,-220.37 -5.39,-13.89 -10.88,-27.89 -16.17,-41.57 12.23,-22.81 29.34,-42.19 50.8,-56.6l0 0zm7.04 33.48c-8.18,11.3 -15.03,23.53 -22.18,35.56 8.4,8.7 16.9,17.52 25.4,26.53 29.02,3.84 55.35,-2.28 71,-28.81 -5.08,-8.09 -10.16,-16.17 -15.24,-24.15 -18.45,-7.99 -38.87,-14.41 -58.98,-9.13z"/>
    </g>
    <g>
     <path class="fil0" d="M4731.91 4665.57c12.75,-17.1 28.61,-31.31 45.71,-43.85 22.19,0.31 44.37,0.42 66.65,0.11 29.54,20.62 64.89,58.15 33.07,93.7 35.55,44.47 79.92,80.23 123.56,116.41 36.8,39.39 82.92,68.31 119.51,108.11 -1.76,136 0,272.1 -0.93,408.2 73.08,4.25 146.47,-1.03 219.55,2.9 -0.21,28.3 -0.32,56.7 -0.32,85.1l-32.96 0c-1.35,-19.48 -3.83,-38.87 -8.91,-57.63 -60.54,3.42 -121.18,1.04 -181.71,0.83l1.45 19.9c-10.06,-13.99 -31.82,-24.15 -28.09,-44.57 -0.11,-135.58 -0.62,-271.16 0.41,-406.75 -4.35,-1.55 -12.95,-4.77 -17.31,-6.32 -70.59,-68.1 -146.88,-130.09 -220.79,-194.56 -23.94,2.07 -48.3,3.83 -72.14,-0.11 -23.12,-4.56 -32.55,-28.4 -45.3,-45.19 -0.41,-9.12 -1.14,-27.26 -1.45,-36.28l0 0zm31.62 14.2c0,35.55 41.56,40.95 69.55,36.9 8.71,-8.81 17.62,-17.52 26.53,-26.12 -9.01,-12.85 -17.82,-25.6 -26.74,-38.35 -26.22,-1.66 -53.38,5.39 -69.34,27.57z"/>
    </g>
    <g>
     <path class="fil0" d="M498.99 4752.23c14.83,-19.08 40.43,-24.26 61.37,-34.11 12.54,3.53 25.29,6.84 38.04,9.85 31.1,14.51 37.63,45.92 35.86,77.43 -26.95,28.92 -71.31,51.31 -107.8,25.09 -92.67,65.51 -178.18,140.56 -268.47,209.28 -13.58,12.44 -32.55,10.16 -49.44,10.78 -82.93,-0.41 -165.75,-0.31 -248.67,-0.21l0 -20.83c86.65,-0.21 173.41,0.21 260.07,0 24.77,2.49 43.43,-16.07 61.57,-29.86 74.43,-60.22 151.44,-117.13 224.11,-179.53 -8.4,-21.45 -18.45,-45.71 -6.64,-67.89l0 0zm17.63 30.89c-1.04,35.34 41.97,41.36 69.13,38.66 13.27,-14.2 32.45,-27.05 26.23,-49.24 -7.98,-50.27 -101.07,-43.02 -95.36,10.58z"/>
    </g>
    <g>
     <path class="fil0" d="M7888.46 4752.85c15.65,-20.73 42.08,-26.43 64.89,-35.66 24.15,8.81 47.27,20.21 69.14,33.9 -0.63,24.05 -2.29,48.2 -6.74,71.93 85.41,71.11 172.48,140.46 261.63,206.8 88.42,-0.73 176.83,-0.21 265.25,-0.31l0 20.73c-90.9,-2.8 -183.26,5.6 -273.13,-3.84 -93.5,-69.45 -182.13,-145.63 -275.52,-215.4 -38.66,23.64 -81.48,5.19 -110.5,-24.15 1.25,-18.03 0.83,-36.38 4.98,-54l0 0zm17.31 7.77c-0.11,9.02 -0.21,27.06 -0.21,36.07 8.92,8.19 17.93,16.49 27.16,24.68 26.02,1.76 52.76,-0.21 68.2,-24.68 -0.1,-9.12 -0.1,-27.15 -0.1,-36.17 -18.55,-10.99 -36.69,-29.65 -60.12,-22.18 -12.33,6.32 -23.63,14.41 -34.93,22.28z"/>
    </g>
    <g>
     <path class="fil0" d="M3729.86 4802.19c11.92,-30.99 35.14,-54.32 65.82,-66.86 38.67,-1.55 69.66,21.56 94.12,48.93 5.08,36.07 -14.3,65.51 -40.21,88.21l-0.52 -9.64c-17.11,10.26 -37.01,11.51 -56.18,13.37 -4.05,-3.94 -12.03,-11.82 -16.07,-15.76 -63.85,57.84 -122.73,121.39 -191.14,174.15 -0.42,133.82 -0.11,267.74 -0.21,401.66l-315.32 0c1.14,-4.97 3.21,-14.82 4.25,-19.69 93.08,-5.49 186.37,0.31 279.56,-2.07 2.69,-130.2 -3.84,-261.22 3.11,-390.68 55.66,-65.72 131.43,-111.02 185.33,-178.81 0.52,-15.34 -8.08,-28.82 -12.54,-42.81l0 0zm47.79 -20.11c-1.97,13.89 -15.76,29.85 -3.42,43.02 11.5,21.45 38.04,15.23 57.94,17.41 18.25,-16.07 36.28,-40.01 14.83,-61.99 -4.05,2.91 -12.34,8.71 -16.49,11.61 0,-7.25 0,-21.97 0,-29.23l-20.11 18.14c-1.34,-3.83 -4.04,-11.71 -5.39,-15.65 -8.7,6.22 -17.83,11.82 -27.36,16.69z"/>
    </g>
    <g>
     <path class="fil0" d="M4628.36 4782.18c19.69,-18.55 39.91,-38.25 67.06,-45.09 19.39,-1.35 37.73,7.26 56.5,11.4 12.43,16.59 29.23,31.93 33.79,52.97 -3.84,14.72 -7.36,29.44 -10.78,44.27 56.8,65.82 128.43,115.78 188.76,177.97 -1.04,130.51 -0.83,261.01 -0.11,391.51 93.6,-0.21 187.31,-1.97 281.02,0.32 0.2,5.18 0.62,15.54 0.82,20.72l-313.66 0c0,-133.3 -0.21,-266.7 0.1,-400.01 -66.44,-54.31 -126.46,-115.78 -190.1,-173.31 -26.02,19.07 -57.43,10.16 -84.27,-1.55 -9.75,-11.41 -19.49,-22.81 -29.03,-34.11 0,-15.13 0,-30.16 -0.1,-45.09l0 0zm49.65 1.97c-37.63,4.05 -11.82,47.06 7.77,58.47 21.15,0.41 42.09,-2.91 60.33,-14.41 -1.14,-14.93 -2.49,-29.75 -4.25,-44.47 -5.91,-3.53 -17.72,-10.68 -23.63,-14.2 -14.93,1.45 -35.25,-4.87 -40.22,14.61z"/>
    </g>
    <g>
     <path class="fil0" d="M8277.58 4818.36c26.02,-17.73 59.5,-6.32 86.76,2.9 8.71,13.37 17.32,26.85 25.92,40.53 50.79,-0.52 101.58,1.14 152.37,-1.14l0 13.37c-48.51,0.94 -97.12,-2.28 -145.43,1.35 -15.75,15.24 -29.33,32.34 -44.26,48.31 -13.16,1.86 -26.33,3.93 -39.28,6.21 -12.86,-2.07 -25.61,-3.93 -38.36,-5.59 -12.33,-13.89 -26.33,-26.85 -34.83,-43.44 -4.66,-26.01 14.93,-51 37.11,-62.5l0 0zm5.19 12.64c-7.36,14.62 -14.2,29.34 -21.05,44.16 7.88,9.12 15.86,18.35 24.05,27.68 7.47,2.49 22.29,7.46 29.65,9.95 24.46,-7.88 66.86,-31.82 44.99,-61.57 -16.28,-29.02 -50.69,-19.08 -77.64,-20.22z"/>
    </g>
    <g>
     <path class="fil0" d="M125.52 4861.38c12.33,-21.98 30.89,-38.87 51.83,-52.45 40.63,-4.77 89.97,12.54 100.75,55.97 0.93,38.56 -37.52,63.02 -71.83,67.58 -37.63,-2.17 -65.82,-25.49 -82.72,-57.73 -54.52,-1.35 -109.15,-0.62 -163.67,-0.73l0 -12.33c55.24,-0.11 110.39,0.41 165.64,-0.31l0 0zm24.46 -4.87c-3.73,34.2 38.35,64.47 69.14,49.96 20.42,-5.08 44.88,-27.26 29.85,-49.24 -6.42,-33.89 -44.98,-26.12 -70.38,-26.12 -9.43,8.5 -18.97,17 -28.61,25.4z"/>
    </g>
    <path class="fil0" d="M2727.09 4822.61c11.2,-1.45 37.01,-9.74 33.89,10.37 -4.35,4.97 -13.06,14.71 -17.31,19.69 -6.42,-9.54 -18.86,-17 -16.58,-30.06z"/>
    <path class="fil0" d="M5753.13 4822.71c11.2,-1.65 22.5,-2.17 33.9,-2.79 0.21,4.45 0.73,13.26 1.04,17.72 -7.57,4.56 -15.03,9.23 -22.39,13.89 -4.46,-9.54 -8.61,-19.18 -12.55,-28.82z"/>
    <g>
     <path class="fil0" d="M3880.06 4875.78c9.43,-4.87 18.87,-9.84 28.2,-14.82 39.9,-3.31 71.52,21.87 96.71,49.55 -3.01,21.67 -7.26,44.36 -21.56,61.78 -14.93,19.49 -41.05,23.32 -62.3,32.44 -16.07,-9.95 -33.28,-17.83 -50.17,-25.91 -44.99,50.48 -100.55,89.14 -149.89,134.86 0.31,107.49 0.1,215.08 0.21,322.57l-31.41 0c-0.1,-113.5 0.42,-227.1 -0.21,-340.61 56.6,-41.57 103.87,-93.5 160.05,-135.58 -0.41,-16.8 -5.81,-34.21 -1.04,-50.48 9.13,-12.44 20.53,-23.02 31.41,-33.8l0 0zm2.9 68.21c15.03,28.3 51.31,27.26 75.26,11.82 3.94,-4.87 11.61,-14.51 15.44,-19.28 -7.67,-14.62 -15.75,-29.13 -25.39,-42.4 -10.58,2.18 -21.98,11.2 -31,-1.03 -16.89,11.29 -55.45,25.39 -34.31,50.89z"/>
    </g>
    <g>
     <path class="fil0" d="M4573.42 4865.11c39.29,-15.03 71.52,19.07 98.06,42.81 -1.04,17.72 -2.07,35.45 -3.21,53.28 56.49,41.15 103.44,93.39 159.94,134.65 -1.35,113.4 -1.35,226.9 -0.11,340.4l-32.13 0c0,-108.11 0.1,-216.12 0,-324.13 -33.27,-30.26 -69.86,-56.49 -102.93,-86.86 -22.91,-18.97 -42.09,-55.05 -77.02,-36.9 0.83,4.04 2.39,12.23 3.11,16.37 -9.54,-0.41 -18.97,-0.72 -28.3,-0.93 -30.89,-10.78 -64.26,-25.4 -74.11,-59.81 -16.9,-38.87 25.29,-67.48 56.7,-78.88l0 0zm-1.66 24.87c-9.54,15.66 -25.6,29.24 -27.57,48.41 16.58,27.26 59.91,40.64 83.13,13.48 25.29,-15.03 7.67,-43.33 -13.27,-51.72 -1.24,4.35 -3.73,13.06 -4.97,17.3 0,-6.52 0,-19.58 0,-26.12 -5.6,2.59 -16.9,7.78 -22.5,10.37 -3.73,-2.9 -11.19,-8.81 -14.82,-11.72z"/>
    </g>
    <g>
     <path class="fil0" d="M1821.55 4918.18c14.3,-12.13 28.61,-24.05 43.12,-35.97 39.28,-4.56 76.49,7.26 104.79,35.14 -1.76,18.97 0.42,38.87 -4.97,57.43 -13.06,20.94 -37.73,28.4 -58.57,38.77 -1.45,140.86 -0.31,281.84 -0.62,422.7l-30.37 0c-0.41,-89.97 -2.18,-180.15 4.87,-269.92 -0.83,-48.3 6.01,-97.23 -1.76,-145.01 -15.55,-19.49 -38.04,-31.82 -57.01,-47.58 0.31,-18.66 0.41,-37.11 0.52,-55.56l0 0zm31.09 8.09c-0.2,9.43 -0.62,28.5 -0.83,37.93 14.41,9.64 30.79,14.83 47.27,19.8 11.71,-6.22 26.64,-7.88 35.45,-18.24 1.76,-12.85 3.01,-25.71 3.63,-38.56 -12.64,-8.19 -25.19,-16.69 -38.66,-23.43 -18.56,-1.24 -31.62,14.51 -46.86,22.5z"/>
    </g>
    <g>
     <path class="fil0" d="M6551.18 4919.22c21.57,-32.55 61.78,-39.08 97.86,-37.63 15.96,11.51 31.72,23.43 47.16,35.86 -0.21,18.56 -0.21,37.32 0.1,56.08 -21.14,21.67 -62.29,32.76 -58.46,69.45 0.31,131.13 5.18,262.15 4.15,393.27l-29.85 0c-0.63,-140.35 0.93,-280.7 -0.73,-421.05 -23.32,-10.78 -44.26,-25.6 -63.23,-42.81 0.83,-17.83 0.52,-35.65 3,-53.17l0 0zm42.5 -1.77c-18.24,7.88 -12.02,28.82 -13.99,44.58 4.25,3.42 12.85,10.36 17.11,13.89 5.49,1.76 16.48,5.39 22.07,7.15 18.14,-5.49 49.86,-6.53 46.03,-33.69 8.19,-35.97 -48.31,-60.02 -71.22,-31.93z"/>
    </g>
    <g>
     <path class="fil0" d="M2979.28 4971.46c0.52,-32.03 32.24,-44.68 56.09,-57.32 9.43,-0.21 28.29,-0.42 37.73,-0.52 29.74,11.82 53.48,33.69 62.71,64.99 -10.06,31 -25.81,62.61 -62.4,65.82 0.51,130.61 1.14,261.22 -0.31,391.82l-31.31 0c0.52,-110.7 -0.62,-221.3 0.31,-332 0.83,-19.08 -3.42,-37.53 -8.91,-55.46 -28.09,-15.97 -63.03,-39.81 -53.91,-77.33l0 0zm48.31 36.18c20.52,19.9 45.19,4.04 66.76,-4.25 4.14,-23.85 3.93,-48 -22.19,-57.85 -9.64,0.11 -28.92,0.32 -38.45,0.42 -21.67,12.65 -36.6,50.58 -6.12,61.68z"/>
    </g>
    <g>
     <path class="fil0" d="M5382.46 4977.47c8.29,-29.85 30.47,-50.37 57.63,-63.64 14.72,0.41 29.44,0.93 44.26,1.45 13.48,7.77 27.16,15.44 41.05,22.8 7.77,20.53 11.71,42.09 13.68,63.96 -16.79,17.83 -34,35.55 -54.93,48.61 -2.28,4.56 -6.84,13.79 -9.13,18.35 2.49,122.42 -0.41,244.84 0.73,367.25l-32.65 0c0,-131.53 -0.21,-263.08 0.1,-394.51 -12.44,-2.49 -24.77,-4.98 -37,-7.36 -8.51,-18.76 -16.17,-37.84 -23.74,-56.91l0 0zm39.49 -18.55c-1.14,15.34 -1.66,30.99 3.53,46.02 12.85,4.77 25.6,9.95 38.45,15.34 9.75,-4.77 19.8,-9.22 29.96,-13.37 21.35,-18.24 8.91,-44.68 -8.29,-60.33 -8.71,-0.2 -26.02,-0.41 -34.62,-0.62 -9.75,4.35 -19.39,8.71 -29.03,12.96z"/>
    </g>
    <g>
     <path class="fil0" d="M2691.74 5026.5c21.77,-11.51 47.37,-6.43 70.8,-9.12 24.36,16.27 42.5,38.87 53.9,65.82 -15.03,28.61 -34.41,55.36 -66.54,65.93 0.62,95.67 0.1,191.45 0.31,287.12l-31.41 0c-0.11,-95.77 0.31,-191.45 -0.21,-287.23 -40.22,-6.73 -64.99,-41.67 -65.2,-81.26 11.71,-14.51 19.18,-35.04 38.35,-41.26l0 0zm4.25 27.37c-4.14,14.61 -15.03,30.58 -4.14,45.29 9.95,24.05 42.18,9.96 62.61,14.31 9.74,-9.64 19.59,-19.07 29.54,-28.3 -13.38,-20.21 -28.51,-40.94 -55.77,-40.94l6.94 13.78c-12.95,-2.38 -26.12,-3.62 -39.18,-4.14z"/>
    </g>
    <g>
     <path class="fil0" d="M3993.46 5055.94c10.78,-13.79 24.05,-25.4 36.7,-37.42 22.49,0.31 44.98,0.41 67.58,0.31 13.48,11.51 26.85,23.43 40.22,35.35 0.31,17.51 0.52,35.03 1.14,52.76 -15.24,19.8 -34.73,35.76 -59.29,42.39 -8.5,95.37 -2.18,191.25 -4.15,286.92l-31.3 0c0,-97.12 0,-194.25 0,-291.37 -9.54,-1.87 -19.18,-3.63 -28.61,-5.29 -7.67,-9.64 -15.34,-18.97 -23.02,-28.3 -0.51,-18.35 -6.52,-37.83 0.73,-55.35l0 0zm42.6 -0.62c-17,6.32 -12.54,25.6 -15.13,39.8 4.15,4.46 12.44,13.37 16.58,17.73 18.56,0.1 37.32,0.2 56.08,0.83 18.35,-16.38 15.55,-41.15 2.28,-59.71 -19.9,1.56 -39.9,0.62 -59.81,1.35z"/>
    </g>
    <g>
     <path class="fil0" d="M4376.68 5053.97c26.74,-32.86 66.96,-39.8 107.28,-36.18 14.21,12.86 28.3,25.92 42.5,38.98 -0.52,17.62 -1.24,35.35 -1.97,53.07 -8.39,10.06 -16.79,20.01 -25.08,30.27 -9.33,1.55 -18.66,3.21 -27.89,4.87 1.56,97.02 0.32,194.15 0.63,291.27l-31.31 0c0.11,-72.35 -0.2,-144.7 0.31,-217.05 -0.31,-25.4 0.73,-51.31 -6.73,-75.88 -5.91,1.76 -17.73,5.18 -23.64,6.84 0.52,-2.38 1.45,-7.15 1.97,-9.53 -34.41,-17.11 -38.14,-52.35 -36.07,-86.66l0 0zm44.16 2.7c-17.21,12.54 -18.45,49.65 5.8,55.35 23.74,2.8 50.17,4.87 68.62,-13.48 -0.62,-9.84 -1.66,-29.44 -2.17,-39.28 -23.74,-4.98 -48.31,-5.81 -72.25,-2.59z"/>
    </g>
    <g>
     <path class="fil0" d="M5699.44 5081.96c11.51,-25.19 28.92,-46.65 50.89,-63.44 19.49,0.21 39.19,0.21 58.88,-0.1 26.95,11.4 51.73,33.58 51.73,65.09 -3.84,33.9 -31.31,58.47 -63.55,65.93 0.42,95.57 0.11,191.24 0.21,286.81l-31.3 0c0,-96.08 0.1,-192.17 0,-288.26 -10.99,-5.39 -21.87,-10.78 -32.65,-16.28l-4.36 12.65c0.11,-3.94 0.31,-11.82 0.52,-15.76 -10.57,-15.44 -20.52,-30.99 -30.37,-46.64l0 0zm33.9 6.74c19.59,27.15 51.62,26.43 81.88,24.67 5.4,-9.75 10.89,-19.49 16.38,-29.13 -3.42,-7.57 -10.26,-22.81 -13.68,-30.37 -12.65,0.31 -25.29,0.72 -37.84,1.45l2.91 -12.13c-24.78,5.49 -40.84,22.91 -49.65,45.51z"/>
    </g>
    <g>
     <path class="fil0" d="M1628.54 5125.39c29.02,2.18 42.19,-27.68 63.54,-41.46 23.94,-4.56 48.61,-2.39 72.87,-3.01 17.31,17.1 33.38,35.45 46.33,56.18 -8.39,27.37 -21.55,57.01 -52.55,63.96 -43.33,20.11 -84.79,-12.02 -110.08,-44.78 -60.74,-4.15 -121.8,-0.73 -182.65,-1.24 1.04,93.7 0.42,187.51 0.52,281.21l-31.3 0c0.62,-104.58 -1.25,-209.28 1.03,-313.87 63.75,8.92 128.33,5.39 192.29,3.01l0 0zm57.32 0c-0.31,9.02 -0.93,27.16 -1.24,36.18 20.31,14.09 45.4,17.82 69.45,12.54 23.53,-8.6 17.83,-36.69 16.17,-55.87 -27.06,-21.88 -61.78,-19.39 -84.38,7.15z"/>
    </g>
    <g>
     <path class="fil0" d="M6717.86 5166.02c-19.69,-33.27 9.96,-69.45 39.4,-83.54 22.59,-2.18 45.4,-1.46 68.2,-1.66 15.03,15.34 29.54,31.3 43.64,47.78 3.21,-1.24 9.54,-3.73 12.75,-4.97 46.95,5.6 94.43,2.07 141.59,5.49 18.45,-2.69 36.91,-5.08 55.56,-7.36 5.29,104.69 1.04,209.7 2.49,314.49l-31.3 0c-0.11,-93.91 0,-187.72 0.1,-281.53 -61.88,-0.2 -123.87,0.21 -185.75,-0.31 -5.81,10.27 -11.61,20.74 -17.11,31.31 -40.11,27.78 -106.66,30.89 -129.57,-19.7l0 0zm31.41 -51.31c-12.75,22.91 -5.08,44.47 12.65,61.88 23.22,-0.3 46.85,-1.24 68.41,-11.19 0.62,-12.64 1.25,-25.29 2.18,-37.94 -20.53,-28.61 -54.63,-29.85 -83.24,-12.75z"/>
    </g>
    <g>
     <path class="fil0" d="M1173.07 5126.32c19.8,-18.55 44.99,-29.85 71.53,-34.52 22.8,-0.31 41.97,14.41 62.29,23.02 4.25,9.64 8.61,19.38 13.06,29.12 0.42,9.33 1.14,27.99 1.46,37.22 -18.25,17.52 -37.94,34.62 -63.24,40.53 -0.62,71.52 -0.31,143.04 -0.41,214.56l-28.61 0c1.04,-71 1.97,-142 -0.21,-213.01 -20.11,-10.05 -37.62,-23.94 -54.21,-38.87 -0.42,-19.38 -0.83,-38.77 -1.66,-58.05l0 0zm23.74 33.17c14.1,23.43 36.07,42.81 65.3,38.05 9.33,-9.75 18.87,-19.39 28.51,-28.82 14.51,-61.05 -89.04,-66.24 -93.81,-9.23z"/>
    </g>
    <g>
     <path class="fil0" d="M7208.89 5115.13c19.17,-8.29 37.31,-21.35 58.77,-22.81 17.1,2.8 33.79,7.57 50.89,11.3 25.09,18.35 25.61,48.3 25.3,76.6 -17.21,16.59 -35.14,32.86 -56.81,43.23 -3.32,70.9 -1.24,141.9 -0.41,212.8l-27.89 0c-0.2,-71.41 0.31,-142.73 -0.31,-214.15 -23.94,-6.63 -44.05,-21.14 -62.09,-37.62 -0.2,-14.62 -0.31,-29.03 -0.31,-43.44 3.22,-6.53 9.64,-19.38 12.86,-25.91l0 0zm17.93 41.88c-2.7,17.2 15.13,26.53 23.63,38.97 11.3,0.21 22.7,0.52 34.21,0.83 11.71,-11.51 23.43,-23.01 35.24,-34.42 -8.39,-18.86 -17.72,-44.88 -43.12,-41.98 -22.8,-3.62 -57.94,7.26 -49.96,36.6z"/>
    </g>
    <g>
     <path class="fil0" d="M2823.08 5195.56c8.29,-47.88 63.75,-55.04 103.44,-52.76 23.85,16.38 43.13,37.94 56.08,63.96 -8.91,16.48 -17.52,33.27 -26.01,50.06 -13.48,5.4 -26.85,11.1 -40.22,16.59 1.55,54.21 0.72,108.53 0.83,162.84l-31.41 0c0,-52.44 0.2,-104.9 -0.21,-157.24 -34.41,-12.86 -74.01,-40.84 -62.5,-83.45l0 0zm44.26 -14.82c-9.33,14 -22.29,35.25 -7.05,49.65 25.81,18.35 63.95,12.86 83.75,-12.33 -1.24,-6.74 -3.83,-20.32 -5.08,-27.16 -3.83,-2.69 -11.61,-8.29 -15.44,-11.09 -10.37,-0.73 -20.73,-1.76 -30.99,-3.22 -6.33,1.04 -18.97,3.12 -25.19,4.15z"/>
    </g>
    <g>
     <path class="fil0" d="M5536.39 5208.21c10.47,-48.3 59.91,-72.35 106.25,-65.41 36.9,14.31 55.87,48.72 52.86,87.8 -12.23,12.23 -24.46,24.57 -37,36.49 -6.02,2.28 -17.94,6.74 -23.85,9.02 -8.6,52.76 -2.07,106.76 -3.93,160.14l-31.31 0c0,-56.28 0.1,-112.46 -0.1,-168.75 -3.73,1.87 -11.4,5.39 -15.14,7.26 -22.59,-16.69 -40.42,-39.18 -47.78,-66.55l0 0zm34.21 6.74c5.38,5.8 16.27,17.41 21.76,23.22 18.04,3.52 36.7,3.31 54.73,-1.14 25.81,-11.92 16.28,-50.79 -7.36,-58.46 -28.61,-5.6 -67.27,-0.11 -69.13,36.38z"/>
    </g>
    <g>
     <path class="fil0" d="M3813.41 5210.49c29.33,-31.61 70.59,-40.84 112.26,-35.24 20.32,16.27 44.99,34.93 45.71,63.64 -7.46,32.66 -29.95,58.36 -62.19,68.11 -0.52,43.01 -0.31,86.14 -0.31,129.25l-31.31 0c-0.52,-42.39 1.76,-84.79 -1.03,-126.97 -4.77,-0.73 -14.41,-2.18 -19.28,-2.91 -28.41,-24.04 -47.58,-57.63 -43.85,-95.88l0 0zm31.1 28.3c4.04,12.65 14.82,21.15 23.22,30.89 16.37,-0.21 32.75,-0.1 49.23,0.1 8.4,-11.71 16.9,-23.42 24.78,-35.45 -15.14,-11.61 -27.99,-29.54 -48.51,-31.09 -20.42,3.73 -45.51,11.4 -48.72,35.55z"/>
    </g>
    <g>
     <path class="fil0" d="M4545.74 5229.56c14.62,-61.26 99.51,-72.04 141.6,-32.75 28.5,18.86 12.13,56.18 1.97,81.16 -11.2,9.85 -22.19,20.01 -32.86,30.48 -4.36,-0.52 -13.06,-1.45 -17.42,-1.87 0.21,43.23 1.14,86.45 -0.41,129.67l-30.68 0c0,-42.7 -0.21,-85.3 0.51,-127.91 -32.96,-12.75 -64.26,-41.04 -62.71,-78.78l0 0zm27.89 8.82c9.33,10.26 18.76,20.83 28.3,31.09 15.13,0 30.37,0.11 45.6,0.31 19.18,-12.12 37.32,-42.81 8.4,-55.45 -30.27,-23.84 -63.33,-2.08 -82.3,24.05z"/>
    </g>
    <path class="fil0" d="M3238.22 5215.36c-0.93,-16.06 1.97,-30.78 20.94,-34.62 1.45,12.23 2.69,24.57 3.83,37.01 -6.11,-0.62 -18.55,-1.87 -24.77,-2.39z"/>
    <path class="fil0" d="M5268.23 5225.31c-18.87,-7.87 -20.73,-52.34 7.88,-38.24 10.57,13.99 -1.66,26.22 -7.88,38.24z"/>
    <g>
     <path class="fil0" d="M1581.37 5315.7c19.49,-18.76 38.77,-41.67 66.86,-46.23 45.4,-6.42 90.7,31.41 92.67,77.23 -13.47,27.05 -38.14,43.64 -66.34,52.55 0.62,12.33 1.35,24.57 2.28,37l-32.75 0c0,-12.43 0.1,-24.87 0.31,-37.21 -29.65,-4.35 -50.38,-25.19 -63.34,-50.68 0.11,-10.99 0.21,-21.88 0.31,-32.66l0 0zm47.27 -12.64c-5.08,8.08 -10.36,16.17 -15.75,24.15 -0.21,6.11 -0.52,18.55 -0.73,24.67 15.55,7.98 31.41,15.65 47.16,23.53 21.88,-9.33 45.51,-17.73 51.52,-43.85 -17.83,-28.4 -50.48,-39.08 -82.2,-28.5z"/>
    </g>
    <g>
     <path class="fil0" d="M6778.3 5331.25c11.4,-40.22 54.83,-70.48 96.81,-61.05 32.76,11.61 65.41,39.39 62.09,77.53 -14.61,24.57 -33.79,47.17 -64.06,51 -0.2,12.44 -0.31,24.98 -0.31,37.52l-31.41 0c0.21,-12.43 0.52,-24.77 0.94,-37 -32.14,-8.91 -62.61,-32.03 -64.06,-68l0 0zm28.92 0.83c5.18,9.85 10.47,19.7 15.86,29.65 30.78,19.9 86.96,7.46 82.82,-36.39 -21.67,-39.59 -80.44,-32.03 -98.68,6.74z"/>
    </g>
    <path class="fil0" d="M895.79 5343.8c13.37,6.11 13.48,13.47 0.52,22.18 -12.75,-6.22 -12.96,-13.58 -0.52,-22.18z"/>
    <path class="fil0" d="M7610.24 5346.18c16.9,-4.77 22.81,0.93 17.93,17.1 -17.2,4.98 -23.21,-0.72 -17.93,-17.1z"/>
   </g>
  </g>
 </g>
</svg>
