<?xml version="1.0" encoding="UTF-8"?>
<!DOCTYPE svg PUBLIC "-//W3C//DTD SVG 1.1//EN" "http://www.w3.org/Graphics/SVG/1.1/DTD/svg11.dtd">
<!-- Creator: CorelDRAW 2020 (64 Bit) -->
<svg xmlns="http://www.w3.org/2000/svg" xml:space="preserve" width="85mm" height="54mm" version="1.1" style="shape-rendering:geometricPrecision; text-rendering:geometricPrecision; image-rendering:optimizeQuality; fill-rule:evenodd; clip-rule:evenodd"
viewBox="0 0 8500 5400"
 xmlns:xlink="http://www.w3.org/1999/xlink"
 xmlns:xodm="http://www.corel.com/coreldraw/odm/2003">
 <defs>
  <style type="text/css">
   <![CDATA[
    .fil0 {fill:#FEFEFE;fill-rule:nonzero}
   ]]>
  </style>
 </defs>
 <g id="Camada_x0020_1">
  <metadata id="CorelCorpID_0Corel-Layer"/>
  <g id="_1798132676896">
   <g>
    <g>
     <path class="fil0" d="M-39.4 -46.64c1376.09,-1.32 2752.29,-0.22 4128.38,-0.55 -19.2,88.43 -7.24,179.27 -10.86,268.9 -2.74,49.26 3.62,98.3 6.58,147.45 -4.71,140.43 2.97,281.19 -4.05,421.61 -4.28,139.88 -3.41,280.09 0.11,419.98 3.51,140.09 4.93,280.63 -0.23,420.62 -4.71,135.38 -1.42,270.99 -1.86,406.48 14.92,-131.43 -0.66,-263.97 8.78,-395.62 0.54,135.5 4.28,271.21 -2.09,406.59 -6.25,140.1 2.63,280.64 -4.6,420.85 -5.27,138.56 -1.21,277.34 -2.09,416.02 -1329.68,-3.07 -2659.59,-0.44 -3989.38,-1.32 -44.55,-0.33 -89.09,1.54 -133.63,-2.08 2.63,-948.78 0.55,-1897.55 1.1,-2846.43 1.86,-27.21 -4.83,-56.5 3.84,-82.5zm295.01 245.09l0 0c-39.83,-0.11 -79.76,-0.22 -119.59,-0.55 32.15,23.59 64.29,47.18 96.88,70.33 -12.4,37.74 -24.69,75.59 -36.97,113.43 31.81,-23.25 64.07,-46.07 95.33,-70.1 33.69,22.38 65.5,47.18 98.3,70.87 -12.94,-37.84 -25.23,-75.81 -37.63,-113.87 32.04,-24.47 64.95,-47.62 98.08,-70.66 -40.26,0.33 -80.41,0.66 -120.57,0.66 -12.18,-37.3 -25.23,-74.27 -35.65,-112.01 -13.83,36.86 -26.66,74.16 -38.18,111.9zm691.61 0.22l0 0c-40.04,-0.44 -79.98,-0.77 -119.92,-0.33 32.37,23.7 65.28,46.63 97.21,70.98 -13.38,37.3 -25.56,75.04 -37.19,112.9 31.59,-24.36 64.07,-47.4 96.32,-70.77 32.26,23.04 64.18,46.63 96.11,70.11 -11.96,-37.85 -24.36,-75.59 -36.86,-113.33 32.36,-23.04 64.83,-45.86 96.43,-70 -39.5,-0.11 -79.1,-0.22 -118.6,0.44 -12.61,-37.19 -25.01,-74.38 -36.53,-111.9 -13.49,36.86 -25.45,74.38 -36.97,111.9zm726.94 -112.23l0 0c-11.63,37.52 -23.92,74.82 -36.43,112.12 -39.27,-0.33 -78.66,-0.55 -117.93,0 31.26,23.81 63.3,46.52 95.22,69.56 -11.74,37.74 -24.35,75.37 -37.19,112.78 32.48,-22.71 64.73,-45.97 96.77,-69.34 32.14,23.26 64.4,46.3 96.21,70.1 -11.85,-37.73 -24.14,-75.36 -36.86,-112.88 32.03,-23.59 64.4,-46.63 96.32,-70.33 -39.71,-0.55 -79.53,-0.33 -119.25,0.22 -11.3,-37.74 -23.59,-75.15 -36.86,-112.23zm690.84 0.22l0 0c-11.3,37.52 -23.7,74.71 -36.31,111.79 -39.83,0.11 -79.76,0 -119.59,-0.66 32.37,23.37 64.84,46.52 97.1,70.22 -12.18,38.29 -24.58,76.58 -37.52,114.54 32.14,-23.81 64.61,-47.51 96.87,-71.43 32.58,23.59 64.95,47.51 97.42,71.2 -13.16,-37.85 -25.67,-75.91 -37.52,-114.2 32.7,-22.93 64.73,-46.85 96.98,-70.33 -40.04,0.33 -79.97,0.44 -120.02,0.55 -11.41,-37.52 -23.91,-74.71 -37.41,-111.68zm690.08 1.31l0 0c-10.75,37.09 -22.82,73.84 -35.11,110.59 -39.83,-0.22 -79.65,-0.66 -119.47,-0.44 31.81,23.7 64.28,46.63 96.54,69.89 -11.74,37.96 -23.7,75.81 -36.64,113.44 32.14,-23.26 64.51,-46.08 96.21,-70.11 32.37,23.26 64.62,46.74 96.66,70.65 -12.29,-37.95 -24.8,-75.81 -37.08,-113.76 32.25,-23.15 64.17,-46.63 96.32,-69.89 -39.71,0 -79.43,-0.22 -119.04,0.22 -11.84,-37.19 -23.03,-74.71 -38.39,-110.59zm655.4 111.25l0 0c-39.71,-1.1 -79.32,-1.1 -119.03,-1.1 32.03,23.04 63.96,46.19 96.32,68.9 -10.42,39.06 -23.91,77.34 -37.63,115.41 32.26,-22.49 62.43,-47.94 95.67,-68.89 34.78,16.45 63.96,45.42 96.54,66.81 -9.65,-37.96 -23.03,-74.82 -34.77,-112.12 32.14,-23.59 64.51,-46.85 96.87,-70.11 -39.82,0 -79.54,-0.11 -119.25,0.66 -12.84,-37.08 -24.69,-74.49 -37.2,-111.68 -12.72,37.3 -24.46,74.93 -37.52,112.12zm-3107.31 302.91l0 0c-39.83,1.53 -79.65,0.88 -119.36,0.66 30.71,24.68 62.86,47.5 94.89,70.32 -12.28,37.63 -24.46,75.37 -37.3,112.78 32.36,-23.15 64.4,-46.62 96.55,-69.88 31.92,23.37 63.74,46.95 96.1,69.66 -12.29,-37.63 -24.79,-75.26 -36.2,-113.11 32.14,-23.26 64.51,-46.29 96.76,-69.44 -40.15,-0.33 -80.31,0 -120.46,-0.33 -11.3,-36.21 -22.38,-72.63 -34.78,-108.4 -16.89,34.12 -25.89,71.31 -36.2,107.74zm724.52 -107.52l0 0c-12.29,35.99 -23.47,72.41 -35.21,108.61 -40.49,-0.21 -80.97,-0.21 -121.45,-0.33 33.35,22.72 65.93,46.41 98.74,69.78 -12.18,37.85 -24.8,75.59 -36.98,113.44 32.15,-23.26 64.62,-46.19 96.11,-70.32 31.92,23.69 64.07,46.84 96.32,70.1 -12.06,-37.74 -24.46,-75.37 -36.86,-113 32.81,-23.59 65.5,-47.39 98.85,-70 -40.7,0.12 -81.4,0.23 -122.11,0 -11.84,-36.31 -20.07,-74.05 -37.41,-108.28zm690.63 0.11l0 0c-12.07,35.88 -22.82,72.08 -34.12,108.29 -40.26,-0.12 -80.53,-0.44 -120.68,0.65 32.69,22.38 65.06,45.53 96.87,69.34 -11.63,37.74 -24.25,75.15 -36.2,112.78 32.14,-22.82 63.96,-46.18 95.66,-69.66 32.37,23.03 64.4,46.62 96.88,69.66 -12.51,-37.52 -25.02,-75.15 -37.09,-112.89 32.04,-22.6 64.07,-45.42 94.68,-70 -39.6,0 -79.1,0.45 -118.7,-0.32 -11.52,-36.21 -19.2,-74.17 -37.3,-107.85zm656.72 108.17l0 0c-40.26,0.45 -80.53,0.33 -120.79,-0.1 32.91,22.49 64.84,46.51 97.42,69.66 -11.41,37.96 -24.46,75.26 -36.64,113 32.36,-21.94 63.74,-45.53 94.79,-69.33 33.46,22.49 65.61,46.84 98.19,70.54 -12.4,-37.85 -24.91,-75.7 -37.52,-113.44 32.91,-23.48 65.17,-47.83 98.96,-70.1 -40.6,0 -81.08,0.1 -121.56,0.22 -11.96,-36.32 -23.04,-72.74 -35,-108.95 -17.33,34.45 -25.56,72.19 -37.85,108.5zm725.95 -108.5l0 0c-12.28,35.88 -23.37,72.19 -34.45,108.4 -40.48,0.1 -80.85,-0.11 -121.23,0.66 33.14,22.49 65.72,46.07 97.75,70.1 -12.28,37.3 -24.79,74.49 -36.64,111.9 32.15,-22.82 63.96,-45.97 95.78,-69.33 32.03,23.36 63.74,47.17 96.54,69.55 -12.39,-37.63 -25.12,-75.15 -36.97,-113 32.48,-23.37 64.95,-46.73 97.97,-69.33 -40.37,-0.55 -80.85,-0.12 -121.23,-0.55 -12.4,-36.21 -20.4,-74.06 -37.52,-108.4zm-3146.26 397.37l0 0c-39.61,-0.87 -79.1,-0.66 -118.71,-1.2 32.26,23.58 64.95,46.51 97.1,70.32 -12.73,37.96 -25.13,76.14 -37.63,114.21 31.81,-24.25 64.18,-47.73 96.76,-71.09 32.37,23.15 63.96,47.17 96.87,69.55 -13.05,-37.41 -24.9,-75.04 -37.52,-112.56 32.15,-23.48 64.4,-46.63 96.44,-70.22 -39.61,0 -79.1,0.44 -118.6,0.66 -12.51,-36.97 -24.35,-74.16 -36.42,-111.24 -13.82,36.86 -25.23,74.49 -38.29,111.57zm691.39 0l0 0c-39.82,-0.87 -79.65,-0.87 -119.47,-0.66 32.91,23.04 65.93,45.97 97.86,70.44 -13.05,37.52 -25.45,75.26 -37.08,113.22 31.59,-24.69 64.29,-47.73 96.98,-70.87 31.49,23.69 63.85,46.18 94.79,70.65 -10.97,-38.51 -24.47,-76.25 -35.76,-114.54 32.58,-22.82 64.61,-46.41 96.87,-69.56 -39.94,0.88 -79.76,0.55 -119.69,1.1 -12.07,-36.86 -23.81,-73.83 -35.88,-110.69 -14.92,36.31 -25.67,73.94 -38.62,110.91zm691.39 -0.11l0 0c-39.93,-0.76 -79.75,-0.33 -119.58,-1.31 32.14,23.36 64.29,46.73 96.66,69.77 -11.2,38.18 -24.14,75.92 -36.21,113.99 31.82,-24.25 64.73,-46.95 97.2,-70.21 30.94,24.24 63.42,46.51 95.12,69.66 -11.96,-37.63 -24.35,-75.15 -36.53,-112.67 32.03,-23.59 64.51,-46.74 97.09,-69.56 -39.6,-0.43 -79.32,-0.43 -118.92,0.66 -13.28,-37.19 -24.69,-75.04 -37.41,-112.45 -13.06,37.19 -25.13,74.71 -37.42,112.12zm727.49 -112.01l0 0c-11.74,37.19 -23.81,74.38 -36.09,111.35 -39.61,0.44 -79.21,-0.1 -118.82,-0.32 31.82,23.69 64.07,46.95 96.44,69.99 -12.29,37.96 -24.91,75.7 -37.96,113.44 34.22,-20.51 63.41,-51.78 99.5,-67.58 33.35,20.51 63.2,46.19 95.01,69.01 -12.95,-38.07 -25.34,-76.47 -37.85,-114.65 32.26,-23.7 64.62,-46.96 96.99,-70.44 -39.61,0.77 -79.33,0.55 -118.93,1.1 -13.28,-37.08 -24.46,-74.93 -38.29,-111.9zm654.86 111.68l0 0c-38.95,0.11 -77.78,-0.33 -116.73,-0.33 30.61,24.47 62.64,47.07 94.35,69.89 -12.4,37.85 -24.68,75.92 -37.3,113.66 32.03,-23.92 64.51,-47.18 96.98,-70.54 32.15,23.69 64.73,46.95 96.66,70.98 -12.84,-37.96 -25.46,-75.92 -37.42,-114.21 31.71,-23.26 63.96,-45.75 95.23,-69.56 -39.27,-0.32 -78.55,-0.32 -117.83,0.11 -12.17,-36.75 -23.58,-73.72 -36.53,-110.25 -14.04,36.2 -25.45,73.28 -37.41,110.25zm727.7 -111.35l0 0c-12.28,37.08 -24.35,74.27 -36.42,111.57 -39.71,-0.65 -79.32,-0.55 -118.92,-0.55 31.92,23.26 63.96,46.63 96.32,69.34 -12.4,38.18 -25.12,76.36 -36.42,114.87 30.83,-24.8 63.63,-46.96 95.01,-71.1 33.13,22.93 65.71,46.52 97.97,70.88 -12.95,-37.96 -25.02,-76.25 -37.85,-114.21 32.03,-23.26 64.4,-45.86 96.32,-69.34 -39.6,-0.76 -79.1,-0.66 -118.59,0 -12.4,-37.19 -24.25,-74.6 -37.42,-111.46zm-3112.47 302.25l0 0c-11.96,35 -21.83,70.76 -34.66,105.54 -39.94,-0.77 -79.98,-0.55 -120.03,-1.1 32.7,22.93 65.06,46.41 97.64,69.45 -11.29,38.51 -24.24,76.58 -36.64,114.65 32.15,-23.37 64.07,-47.29 96.22,-70.77 32.14,24.03 64.84,47.51 97.64,70.77 -12.73,-38.4 -27.1,-76.25 -36.53,-115.53 32.69,-22.16 64.07,-45.86 96.21,-68.79 -40.04,0.88 -80.09,0.88 -120.02,0.55 -12.18,-34.45 -21.83,-69.88 -33.79,-104.33 -1.54,-0.11 -4.61,-0.33 -6.04,-0.44zm692.6 -4.72l0 0c-11.96,36.54 -22.93,73.4 -35.21,109.82 -40.16,0 -80.2,0 -120.35,-0.33 32.69,22.71 64.61,46.3 96.98,69.34 -11.63,38.62 -24.58,76.91 -36.86,115.3 31.7,-24.57 64.4,-47.94 96.76,-71.75 32.14,23.59 64.29,46.96 96.21,70.77 -11.41,-38.18 -24.79,-75.7 -36.2,-113.77 32.04,-23.37 63.96,-46.96 96.33,-69.78 -39.83,0.22 -79.76,0.22 -119.59,0.22 -12.72,-36.53 -21.28,-74.71 -38.07,-109.82zm689.86 4.72l0 0c-12.4,34.45 -22.27,69.78 -33.9,104.55 -40.27,0.77 -80.53,0.77 -120.68,-0.33 32.36,22.82 63.96,46.74 96.76,69.01 -10.31,39.17 -23.91,77.24 -36.64,115.75 32.47,-23.7 64.84,-47.51 97.53,-70.88 32.04,22.71 63.3,46.3 94.68,70 -10.42,-38.18 -23.37,-75.37 -35.66,-112.89 32.04,-24.14 64.73,-47.29 97.43,-70.55 -39.94,0.33 -79.87,0.11 -119.8,0.66 -12.29,-34.78 -21.95,-70.43 -33.91,-105.32 -1.42,0 -4.27,0 -5.81,0zm657.16 104.88l0 0c-39.82,0 -79.76,0.11 -119.58,-0.11 32.03,23.04 63.74,46.52 95.99,69.45 -10.75,38.29 -23.69,76.03 -36.97,113.66 33.02,-22.6 64.95,-46.63 97.31,-70.11 32.15,23.59 64.4,46.85 96.11,71.09 -11.52,-38.61 -25.45,-76.35 -36.64,-114.97 32.8,-22.16 64.62,-45.86 96.54,-69.34 -39.93,0.44 -79.87,0.55 -119.8,0 -11.96,-37.08 -23.37,-74.38 -36.31,-111.24 -13.39,36.75 -24.58,74.38 -36.65,111.57zm691.5 -0.11l0 0c-40.15,0.33 -80.31,0.22 -120.46,-0.55 31.93,23.48 63.85,46.85 96.66,69.12 -10.43,38.73 -24.58,76.36 -36.76,114.65 32.59,-22.93 64.29,-46.96 96.77,-70 32.47,22.93 64.4,46.74 96.43,70.33 -12.28,-37.85 -24.46,-75.81 -37.41,-113.44 32.37,-23.26 64.84,-46.3 96.98,-69.78 -39.93,-0.22 -79.86,0.11 -119.8,-0.44 -11.63,-36.53 -22.71,-73.29 -34.88,-109.6 -16.9,35 -25.02,73.18 -37.53,109.71zm-3110.71 296.88l0 0c-40.05,-0.55 -80.09,-0.44 -120.13,-0.99 32.8,23.04 65.05,46.85 97.86,70.1 -12.29,37.96 -24.36,75.92 -38.29,113.23 32.58,-22.28 64.51,-45.42 95.67,-69.67 33.68,22.05 65.71,46.41 98.41,70.1 -12.29,-38.18 -25.46,-76.03 -36.76,-114.42 32.91,-22.6 64.95,-46.52 97.54,-69.34 -40.05,0.66 -80.2,0.44 -120.36,0.77 -12.4,-37.63 -24.79,-75.15 -37.19,-112.78 -12.29,37.63 -24.25,75.37 -36.75,113zm690.95 -0.11l0 0c-39.71,-0.55 -79.54,-0.44 -119.25,-0.55 32.36,23.48 64.5,47.06 96.98,70.32 -12.07,37.52 -24.58,74.93 -36.86,112.46 32.14,-23.04 64.18,-46.3 96.1,-69.67 32.04,23.04 63.74,46.63 95.89,69.67 -11.63,-37.63 -24.14,-74.94 -36.42,-112.35 32.58,-23.26 64.72,-47.28 97.42,-70.54 -40.04,0.11 -80.09,0.11 -120.13,0.55 -11.96,-37.19 -24.03,-74.39 -35.33,-111.8 -14.15,36.87 -25.67,74.61 -38.4,111.91zm691.39 -0.11l0 0c-39.93,-0.55 -79.98,-0.55 -119.91,-0.44 32.91,22.82 64.95,47.06 97.42,70.43 -12.28,37.52 -25.23,74.72 -36.31,112.57 32.25,-23.26 63.85,-47.18 96.43,-69.89 31.27,23.81 63.09,46.96 95.34,69.34 -12.18,-37.41 -24.24,-74.83 -36.53,-112.13 30.94,-22.71 62.86,-44.1 91.72,-69.44 -38.07,-1.32 -76.14,-0.99 -114.21,-0.22 -12.62,-36.86 -24.36,-73.95 -36.32,-111.03 -14.04,36.42 -25.89,73.62 -37.63,110.81zm727.71 -112.78l0 0c-11.96,37.63 -24.36,75.15 -36.64,112.67 -40.05,-0.22 -80.2,-0.11 -120.25,-0.88 32.48,23.04 64.3,47.07 97.21,69.66 -10.86,38.41 -24.58,75.93 -36.53,114.1 32.36,-23.26 64.39,-46.95 96.65,-70.21 31.92,23.81 63.96,47.39 96.87,69.78 -13.71,-37.3 -25.78,-75.26 -38.07,-113.01 32.59,-23.15 64.84,-46.62 97.64,-69.55 -39.93,-0.33 -79.97,-0.22 -119.91,0.44 -12.51,-37.63 -24.13,-75.48 -36.97,-113zm654.31 112.89l0 0c-39.39,-0.55 -78.66,-0.66 -117.94,-0.22 31.6,23.37 63.3,46.52 95.23,69.44 -11.74,38.07 -23.92,76.03 -37.3,113.55 32.47,-23.14 64.51,-46.84 96.98,-69.99 32.26,23.37 64.62,46.62 96.99,69.99 -12.84,-37.74 -25.24,-75.59 -37.53,-113.55 32.37,-23.58 64.84,-47.06 97.87,-69.66 -39.94,0.11 -79.98,-0.11 -119.92,0.66 -12.94,-37.2 -25.12,-74.72 -36.2,-112.45 -13.38,37.19 -26,74.6 -38.18,112.23zm727.27 -110.92l0 0c-12.07,36.97 -23.81,74.17 -36.32,111.03 -39.93,-0.88 -79.87,-0.88 -119.8,-0.55 32.8,22.71 64.73,46.41 97.2,69.56 -11.85,37.95 -24.35,75.58 -37.19,113.21 33.13,-22.27 64.51,-46.95 97.64,-69.33 31.71,23.26 63.53,46.52 96.11,68.68 -13.17,-37.08 -25.23,-74.5 -37.41,-111.8 32.25,-23.58 64.73,-46.95 97.31,-70.32 -39.71,-0.22 -79.32,-0.33 -118.82,0.77 -13.38,-36.98 -24.68,-74.61 -38.72,-111.25zm-3144.51 397.81l0 0c-39.49,1.97 -79.1,1.21 -118.71,1.53 31.38,23.48 63.53,45.97 94.79,69.67 -13.05,37.41 -25.23,75.26 -37.3,113.11 32.04,-23.81 64.18,-47.5 96.66,-70.65 32.36,23.48 64.72,46.95 97.09,70.32 -12.73,-37.52 -25.12,-75.15 -38.29,-112.45 31.16,-23.92 63.52,-46.08 95.01,-69.67 -38.51,-0.98 -77.02,-0.87 -115.42,0.44 -13.82,-37.3 -25.12,-75.48 -38.06,-113 -13.94,36.2 -25.02,73.4 -35.77,110.7zm725.84 -110.7l0 0c-12.5,36.97 -24.35,74.05 -35.76,111.36 -39.06,1.2 -78.12,0.65 -117.17,0.65 31.04,24.58 64.29,46.19 94.89,71.32 -14.04,36.64 -25.78,74.16 -38.06,111.46 32.14,-23.7 64.5,-47.06 96.98,-70.43 32.14,23.59 64.51,46.84 96.54,70.43 -12.28,-37.08 -24.02,-74.38 -37.85,-110.92 30.28,-25.99 63.75,-47.83 95.45,-71.96 -38.84,-1.65 -79.43,4.82 -117.17,-2.86 -14.7,-35.65 -22.82,-73.5 -37.85,-109.05zm690.96 0.44l0 0c-12.51,37.41 -24.03,75.15 -37.42,112.34 -38.62,-0.87 -77.23,-1.09 -115.74,-0.22 31.49,23.81 64.51,45.64 95.34,70.44 -13.61,36.75 -25.89,73.94 -38.29,111.02 32.36,-22.82 64.62,-45.96 96.43,-69.77 32.7,23.04 64.95,46.63 97.21,70.21 -12.51,-37.74 -24.8,-75.59 -37.31,-113.33 31.6,-23.04 63.42,-45.75 95.01,-68.57 -39.49,-0.55 -78.99,0.22 -118.48,-1.64 -11.52,-37.08 -21.83,-74.6 -36.75,-110.48zm691.39 -0.66l0 0c-12.73,37.74 -23.48,76.25 -38.62,113.22 -38.51,-1.42 -76.91,-1.42 -115.31,-1.09 31.6,23.69 63.85,46.73 95.56,70.43 -13.49,37.19 -25.34,75.04 -38.29,112.45 32.37,-23.26 64.84,-46.52 96.33,-70.87 32.47,23.26 64.62,47.17 97.53,69.89 -12.51,-36.98 -24.25,-74.17 -37.85,-110.59 30.39,-25.34 63.41,-47.18 95.34,-70.44 -37.3,-1.64 -74.71,0.55 -112.02,-1.42 -23.04,-31.93 -25.89,-75.59 -42.67,-111.58zm690.95 0.22l0 0c-12.62,37.74 -23.37,76.03 -38.62,112.78 -38.51,-0.87 -76.91,-0.98 -115.41,-0.77 31.48,23.59 63.85,45.97 95.33,69.67 -12.94,37.96 -24.79,76.36 -37.95,114.21 31.81,-24.58 64.62,-47.83 97.09,-71.64 32.47,23.37 64.62,47.17 97.09,70.54 -12.4,-37.74 -24.79,-75.59 -37.74,-113.11 31.82,-23.37 63.96,-46.3 95.78,-69.55 -39.72,0 -79.54,0.76 -119.15,-1.65 -11.52,-36.97 -21.94,-74.49 -36.42,-110.48zm-3146.26 416.02l0 0c-39.83,0 -79.65,-0.11 -119.59,0.11 32.37,23.04 64.73,46.19 97.1,69.45 -11.74,37.63 -24.58,74.93 -37.41,112.34 33.35,-21.83 65.05,-45.86 97.2,-69.23 31.49,24.14 63.63,47.4 96.55,69.78 -13.06,-37.19 -24.91,-74.71 -37.42,-112.12 32.04,-24.03 64.51,-47.4 96.99,-70.66 -39.83,0.44 -79.65,0.33 -119.48,0.33 -12.51,-37.52 -25.12,-74.93 -36.97,-112.67 -11.85,37.74 -24.8,75.04 -36.97,112.67zm691.17 0.11l0 0c-39.82,0 -79.65,0.11 -119.37,-0.55 32.26,23.59 64.95,46.85 96.99,70.87 -12.73,37.42 -24.8,74.94 -36.64,112.57 32.47,-23.37 63.96,-48.16 97.64,-70 30.94,23.81 62.42,47.18 94.57,69.34 -12.4,-37.41 -24.58,-74.93 -36.86,-112.34 32.14,-22.93 64.07,-46.19 95.44,-70.22 -39.38,0 -78.88,0.22 -118.26,0.44 -11.85,-37.63 -24.58,-74.93 -36.32,-112.56 -12.51,37.41 -25.01,74.82 -37.19,112.45zm691.17 0l0 0c-39.49,-0.11 -78.99,-0.22 -118.48,-0.33 31.59,23.7 63.52,47.18 95.77,70.11 -12.06,37.63 -24.35,75.26 -37.08,112.67 32.69,-22.38 64.4,-46.52 96.66,-69.67 31.92,23.15 63.52,46.85 95.99,69.23 -12.07,-37.41 -24.03,-74.82 -36.64,-112.01 32.36,-23.37 64.4,-47.18 96.76,-70.44 -39.71,0.44 -79.32,0 -119.03,0.88 -12.51,-37.41 -24.69,-74.82 -36.75,-112.34 -12.73,37.19 -25.46,74.38 -37.2,111.9zm690.85 -0.11l0 0c-39.72,0 -79.43,0 -119.15,-0.33 32.04,23.26 63.85,46.96 96.44,69.78 -11.3,37.96 -23.48,75.59 -37.52,112.67 33.35,-21.83 65.38,-45.42 96.98,-69.67 31.49,22.71 62.2,46.52 94.35,68.35 -9.43,-37.96 -23.48,-74.6 -34.23,-112.23 32.59,-22.16 64.51,-45.42 96.43,-68.68 -39.82,0.22 -79.53,0.22 -119.25,0.11 -12.4,-37.52 -25.01,-74.82 -36.64,-112.56 -12.18,37.63 -24.8,75.15 -37.41,112.56zm691.5 0.44l0 0c-39.61,-0.33 -79.21,-0.66 -118.71,-0.66 31.16,24.14 63.63,46.52 95.67,69.56 -11.63,37.85 -23.7,75.59 -37.08,112.78 33.02,-21.94 64.51,-46.08 96.54,-69.56 32.48,23.7 64.95,47.4 97.54,71.1 -13.5,-37.74 -25.57,-75.92 -37.63,-113.99 32.69,-23.04 64.61,-47.18 97.09,-70.44 -39.94,0.77 -79.76,0.55 -119.7,1.21 -12.39,-37.3 -24.68,-74.6 -36.97,-112.01 -12.61,37.19 -24.9,74.49 -36.75,112.01zm690.51 -0.22l0 0c-39.71,0 -79.32,0 -118.81,-0.99 31.7,23.7 63.63,47.18 96.32,69.78 -11.63,38.29 -24.46,76.36 -36.86,114.43 32.04,-23.59 64.07,-47.4 96.77,-70.22 31.92,23.15 64.07,45.97 95.55,69.89 -11.52,-37.85 -23.81,-75.48 -36.75,-112.78 32.47,-23.37 64.73,-46.74 96.87,-70.44 -39.6,-0.11 -79.32,0 -118.92,0.44 -12.18,-37.19 -24.14,-74.49 -36.43,-111.68 -13.38,36.97 -25.23,74.38 -37.74,111.57zm-2381.8 166.21l0 0c-12.4,37.74 -23.92,75.92 -37.63,113.44 -39.28,-0.77 -78.55,-0.77 -117.83,-0.11 31.93,23.37 64.29,46.19 96.44,69.45 -12.73,38.07 -25.02,76.25 -37.2,114.53 31.16,-24.9 64.07,-47.5 96.22,-71.2 32.25,23.37 64.95,45.97 96.22,70.66 -11.74,-38.29 -23.92,-76.36 -36.65,-114.21 32.37,-23.04 64.51,-46.3 96.99,-69.23 -39.72,-0.55 -79.43,-0.55 -119.04,-0.11 -12.84,-37.63 -24.46,-75.7 -37.52,-113.22zm1345.81 112.78l0 0c-39.93,0.22 -79.87,0 -119.69,0.33 32.25,23.48 65.06,46.52 97.09,70.33 -13.05,37.3 -25.23,74.82 -36.86,112.67 31.82,-23.92 63.96,-47.28 96.32,-70.33 31.93,23.59 63.96,46.85 96.33,69.67 -12.51,-37.3 -24.36,-74.93 -37.74,-112.01 31.92,-23.7 64.4,-46.63 96.21,-70.55 -39.16,-0.65 -78.22,-0.22 -117.38,0.66 -13.5,-37.74 -25.02,-76.14 -37.75,-114.21 -12.39,37.74 -24.46,75.59 -36.53,113.44zm-2073.41 0.22l0 0c-39.38,0 -78.77,-0.11 -118.15,-0.43 31.48,24.35 64.18,47.17 96.1,70.98 -13.49,37.3 -25.89,74.93 -37.63,112.78 32.14,-23.26 63.96,-47.18 96,-70.65 32.47,23.36 65.16,46.51 97.09,70.65 -12.51,-38.07 -25.01,-76.03 -37.3,-114.1 32.14,-22.6 64.18,-45.31 95.23,-69.34 -39.28,-0.32 -78.45,-0.11 -117.72,-0.11 -12.18,-35.98 -23.37,-72.3 -35.22,-108.28 -17.55,34.34 -25.56,72.3 -38.4,108.5zm1417.68 -110.47l0 0c-12.07,36.75 -23.37,73.61 -35.44,110.25 -39.39,0 -78.77,0 -118.05,-0.66 30.72,24.58 62.86,47.4 95.01,70 -11.85,38.07 -24.46,76.03 -36.31,114.21 31.81,-23.81 63.85,-47.29 96.1,-70.55 32.37,23.05 63.96,47.07 96.22,70.22 -11.96,-37.74 -24.36,-75.37 -37.2,-112.78 31.93,-23.37 64.19,-46.52 96,-70.11 -39.49,-0.33 -79.1,-0.22 -118.59,-0.66 -12.4,-36.75 -21.95,-74.38 -37.74,-109.92zm1381.14 4.38l0 0c-12.18,35.11 -23.15,70.66 -34.34,106.09 -39.39,-0.11 -78.89,-0.55 -118.27,-0.33 31.05,24.58 63.85,46.96 95.66,70.66 -12.61,37.63 -24.9,75.37 -37.3,113.22 31.82,-24.36 64.62,-47.29 96.88,-71.1 31.81,23.7 63.96,47.18 95.99,70.77 -12.06,-38.18 -24.79,-76.03 -37.41,-113.88 32.37,-22.71 64.84,-45.31 96.44,-69.12 -39.94,-0.65 -79.76,-0.11 -119.59,-0.88 -12.94,-34.99 -17.33,-73.83 -38.06,-105.43zm-3107.21 307.3l0 0c-13.06,37.08 -25.45,74.49 -37.52,111.9 -39.72,-0.32 -79.43,-0.43 -119.04,-0.43 32.15,23.47 64.18,47.28 96.66,70.43 -12.51,37.85 -24.58,75.81 -37.41,113.44 31.81,-23.92 64.17,-47.06 96.43,-70.43 32.8,23.04 65.06,46.84 97.42,70.54 -13.16,-38.07 -25.78,-76.25 -37.08,-114.76 32.04,-23.15 64.73,-45.42 96,-69.55 -39.61,0.33 -79.21,0.55 -118.82,0.76 -12.29,-37.3 -24.9,-74.49 -36.64,-111.9zm690.62 0.11l0 0c-12.72,37.08 -24.57,74.49 -36.75,111.91 -39.82,-0.44 -79.65,-0.55 -119.48,-0.66 32.15,23.8 64.73,47.06 96.99,70.87 -12.73,37.63 -25.01,75.37 -37.08,113.33 31.81,-24.14 64.07,-47.72 96.43,-70.98 31.71,23.8 63.52,47.39 96.33,69.77 -12.29,-37.63 -25.24,-75.04 -36.65,-113 32.48,-23.26 64.73,-46.73 96.99,-70.32 -39.83,0.66 -79.76,0.66 -119.59,0.87 -12.5,-37.19 -24.57,-74.6 -37.19,-111.79zm654.31 111.79l0 0c-39.71,-0.32 -79.43,-0.21 -119.14,-0.65 31.7,24.02 63.96,47.39 96.54,70.21 -12.17,37.63 -24.68,75.15 -36.75,112.78 32.36,-22.38 64.4,-45.53 95.56,-69.66 32.69,22.82 64.62,46.62 96.54,70.65 -11.63,-37.96 -24.02,-75.59 -36.75,-113.11 32.14,-23.7 64.73,-46.74 96.65,-70.65 -39.82,0 -79.64,0.11 -119.47,0.32 -11.52,-36.97 -23.26,-73.83 -35.65,-110.47 -13.83,36.42 -25.46,73.5 -37.53,110.58zm690.96 0l0 0c-39.72,-0.11 -79.43,-0.43 -119.15,-0.87 31.49,24.35 64.29,46.84 96.55,70.21 -12.07,38.29 -24.69,76.36 -37.52,114.43 32.36,-24.03 64.73,-48.16 98.08,-70.76 31.7,23.91 64.07,47.06 96.1,70.76 -13.27,-37.85 -25.34,-75.92 -37.3,-114.1 32.26,-23.15 64.29,-46.52 96.33,-70.1 -39.83,0.22 -79.65,0.43 -119.37,0.11 -11.96,-36.65 -23.59,-73.51 -36.09,-109.93 -14.15,36.09 -25.56,73.28 -37.63,110.25zm726.06 -111.24l0 0c-10.53,37.52 -22.38,74.71 -35.22,111.69 -39.71,-0.77 -79.43,-0.77 -119.14,-0.99 32.03,23.8 64.72,46.73 96.65,70.76 -11.96,37.85 -23.81,75.92 -37.52,113.22 32.47,-23.59 65.06,-46.96 97.42,-70.65 32.15,23.69 64.62,46.73 96.66,70.65 -12.95,-37.63 -24.91,-75.48 -37.42,-113.22 32.15,-23.81 64.18,-47.61 96.77,-70.87 -39.94,0.54 -79.76,0.33 -119.69,0.33 -11.85,-37.31 -23.48,-74.72 -38.51,-110.92zm655.4 111.69l0 0c-39.49,-0.88 -78.99,-0.88 -118.48,-1.1 31.81,23.58 63.96,46.73 96.1,70.1 -11.41,38.4 -23.8,76.47 -37.41,114.21 32.59,-23.81 65.17,-47.51 98.08,-70.76 31.82,23.15 63.74,46.18 94.68,70.65 -10.86,-38.51 -23.58,-76.58 -35.54,-114.76 32.58,-22.82 64.84,-45.97 97.2,-69.22 -39.93,0.11 -79.87,-0.22 -119.69,0.65 -12.84,-36.64 -24.14,-73.83 -36.54,-110.58 -14.26,36.42 -25.01,74.05 -38.4,110.81z"/>
    </g>
   </g>
   <g>
    <path class="fil0" d="M4088.98 -47.19c2081.75,0.33 4163.49,0.11 6245.24,0.11 0.44,139 -0.11,278.01 0.33,417.12 -1217.45,0.54 -2434.79,0 -3652.24,0.22 -865.83,-0.77 -1731.78,1.42 -2597.61,-1.1 -2.96,-49.15 -9.32,-98.19 -6.58,-147.45 3.62,-89.63 -8.34,-180.47 10.86,-268.9z"/>
    <path class="fil0" d="M4080.76 1210.75c-3.52,-139.89 -4.39,-280.1 -0.11,-419.98 2084.37,0.44 4168.86,0.44 6253.35,0 0.66,139.67 0.55,279.33 0.11,418.99 -2084.37,2.08 -4168.86,0.11 -6253.35,0.99z"/>
    <path class="fil0" d="M4080.53 1631.37c2084.72,-0.22 4169.42,0.11 6254.13,-0.11 -0.44,139.33 -0.44,278.78 0,418.22 -2083.06,-0.88 -4166.23,0.43 -6249.3,-0.66 6.37,-135.38 2.63,-271.09 2.09,-406.59 -9.44,131.65 6.14,264.19 -8.78,395.62 0.44,-135.49 -2.85,-271.1 1.86,-406.48z"/>
    <path class="fil0" d="M4078.67 2885.69c0.88,-138.68 -3.18,-277.46 2.09,-416.02 2084.26,0.43 4168.65,-0.11 6252.91,0.22 1.21,139.88 0.99,279.86 0.11,419.86 -2054.43,0.54 -4108.96,-0.12 -6163.39,0.21 -30.61,0.55 -61.44,0.88 -91.72,-4.27z"/>
    <path class="fil0" d="M-41.71 3310.15c3458.61,0.99 6917.33,0.66 10375.93,0.22 0.33,139.34 0.33,278.78 -0.22,418.11 -2336.16,0 -4672.44,0 -7008.6,0 -1123.32,-0.88 -2246.64,1.75 -3369.85,-1.21 3.07,-139 -2.3,-278.22 2.74,-417.12z"/>
    <path class="fil0" d="M-44.01 4152.29c1313.23,-3.07 2626.57,-0.44 3939.9,-1.32 2146.04,0.11 4292.19,-0.22 6438.22,0.22 0.22,139.11 0.77,278.12 -0.22,417.23 -3444.23,-0.33 -6888.35,-0.22 -10332.48,-0.11 -15.25,-0.55 -30.39,-1.54 -45.53,-2.85 0.88,-137.8 0.55,-275.49 0.11,-413.17z"/>
    <path class="fil0" d="M-44.12 4990.03c3459.48,-0.76 6918.86,0.11 10378.34,-0.44 0.44,139.12 -0.11,278.23 0.22,417.34 -3458.82,0.11 -6917.65,0 -10376.36,0 -4.18,-138.89 -0.23,-277.9 -2.2,-416.9z"/>
   </g>
  </g>
 </g>
</svg>
