<?xml version="1.0" encoding="UTF-8"?>
<!DOCTYPE svg PUBLIC "-//W3C//DTD SVG 1.1//EN" "http://www.w3.org/Graphics/SVG/1.1/DTD/svg11.dtd">
<!-- Creator: CorelDRAW 2020 (64 Bit) -->
<svg xmlns="http://www.w3.org/2000/svg" xml:space="preserve" width="85mm" height="54mm" version="1.1" style="shape-rendering:geometricPrecision; text-rendering:geometricPrecision; image-rendering:optimizeQuality; fill-rule:evenodd; clip-rule:evenodd"
viewBox="0 0 8500 5400"
 xmlns:xlink="http://www.w3.org/1999/xlink"
 xmlns:xodm="http://www.corel.com/coreldraw/odm/2003">
 <defs>
  <style type="text/css">
   <![CDATA[
    .fil0 {fill:#FEFEFE;fill-rule:nonzero}
   ]]>
  </style>
 </defs>
 <g id="Camada_x0020_1">
  <metadata id="CorelCorpID_0Corel-Layer"/>
  <g id="_2913840480576">
   <g id="__x0023_ffffffff">
    <g>
     <path class="fil0" d="M7216.18 84.93l61.63 0c22.59,11.97 48.26,20.52 65.09,40.99 27.58,26.9 34.79,67.11 35.29,104.13 0.62,108.33 6.43,216.43 6.88,324.76 2.13,28.35 -1.73,57.49 7.66,84.89 9.12,41.28 24.56,82.05 22.54,124.94 -0.33,66.16 -34.84,130.86 -89.09,168.56 -42.67,31.2 -96.58,47.03 -149.37,44.63 -26.34,-1.29 -52.12,5.25 -78.18,7.94 -19.13,0.89 -34.45,13.14 -51.23,20.74 -53.3,25.67 -116.49,27.63 -172.03,7.83 -59,53.86 -145.57,76.12 -222.58,53.02 -20.3,-7.55 -39.65,4.59 -57.49,12.75 -39.93,18.35 -79.75,37.25 -120.52,53.52 -39.26,8.56 -79.91,5.43 -119.84,6.6 -47.87,2.91 -95.86,1.68 -143.73,3.86 -40.94,21.75 -75.72,59.5 -124.38,63.64 -31.31,5.43 -60.51,-7.77 -88.58,-19.52 -18.4,11.8 -36.41,25.73 -58.44,29.81 -44.85,10.24 -89.2,-7.04 -133.27,-13.08 -22.88,18.28 -49.66,30.64 -77.51,39.26 -105.14,34.84 -208.66,74.37 -314.02,108.38 -91.61,18.73 -182.99,38.87 -274.7,56.98 -88.48,18.18 -184.67,8.84 -263.97,-36.12 -32.16,-16.17 -62.41,-40.83 -75.78,-75.17 -13.92,-33.16 -13.92,-71.92 1.23,-104.69 19.74,-42.11 44.85,-81.37 64.43,-123.59 -60.29,-52.79 -93.28,-133.6 -89.71,-213.35 3.86,-93.23 50.11,-183.49 122.98,-241.66 85.35,-70.18 208.49,-99.93 313.52,-58.94 14.93,8.44 29.75,-3.02 43.28,-8.84 42.17,-21.64 85.23,-41.55 127.57,-62.74 22.09,-10.85 44.96,-20.86 69.51,-24.55 95.86,-17.56 191.99,-33.84 287.74,-52.24 55.31,-7.1 106.81,-29.75 161.06,-41.66 25.89,-5.71 51.95,5.2 77.85,-0.06 28.29,-4.25 57.26,-7.32 84.05,-18.17 92.28,-36.91 190.65,-62.53 290.64,-61.58 21.42,0 43.12,4.92 64.37,-0.17 37.58,-8.05 75.73,-13.53 113.08,-22.64 48.43,-15.77 95.47,-35.68 143.67,-52.13 28.81,-9.73 56.38,-24.38 87.02,-27.57 21.14,-3.46 41.83,3.81 62.36,7.89 56.48,-13.09 108.05,-43.34 165.03,-55.26 25.17,-6.15 50.06,2.86 74.77,6.6 24.28,-6.54 47.09,-17.45 70.75,-25.89 26.79,-10.74 55.48,-17.06 80.42,-32.1l0 0zm-178.51 203.29c-0.28,12.41 1.67,24.71 4.14,36.91 24.16,119.34 45.8,239.24 70.46,358.53 49.5,-13.81 98.04,-31.09 147.2,-46.14 0.33,-53.63 -1.35,-107.32 -4.37,-160.89 0.28,-88.08 -2.12,-176.17 -6.09,-264.14 -71.47,22.15 -140.32,52.07 -211.34,75.73l0 0zm-80.76 -8.06c-53.01,19.97 -106.59,38.54 -159.16,59.62 28.3,131.03 49.77,263.52 78.8,394.32 49.16,-16.27 98.87,-30.87 148.03,-47.42 0.34,-30.93 -0.45,-61.91 -4.25,-92.55 0.28,-75.56 -0.22,-151.17 -3.97,-226.61 -3.69,-34.73 -0.56,-69.74 -2.01,-104.58 -20.36,1.17 -38.54,10.85 -57.44,17.22l0 0zm-394.72 107.83c24.56,130.25 51.62,259.99 74.94,390.41 22.93,2.01 44.02,-8 65.38,-14.6 27.4,-8.78 54.69,-18.06 82.21,-26.62 1.17,-90.54 1.79,-181.42 -4.98,-271.68 -0.22,-52.24 1.01,-104.58 -1.67,-156.82 -72.32,25.56 -143.9,52.91 -215.88,79.31l0 0zm-464.39 81.2c38.97,182.54 80.81,364.63 121.18,546.89 17.4,1.79 34.79,0.16 51.96,-2.46 56.2,-0.95 112.41,0.45 168.61,-1.29 -0.78,-12.3 -3.74,-24.33 -9.06,-35.46 -18.96,-50.38 -37.92,-100.72 -57.94,-150.71 50.56,-23.94 101.17,-50.34 141.66,-89.59 42.67,-43.24 73.15,-103.75 65.21,-165.71 -0.56,-36.63 -18.74,-70.74 -42.95,-97.25 -28.24,-24.67 -62.58,-42.17 -99.16,-50.61 -43.39,-12.31 -88.75,-7.27 -133.26,-8 -71.25,6.09 -139.76,29.02 -206.25,54.19l0 0zm-293.22 56.82c-23.26,158.99 -47.31,317.87 -70.18,476.87 -2.63,19.4 -6.94,38.7 -5.77,58.38 60.96,10.35 121.7,22.43 182.54,33.89 1.74,-34.39 0.73,-68.84 2.74,-103.18 31.94,-3.18 64.04,-2.96 96.03,-5.81 6.6,-1.4 15.43,-0.28 18.01,7.16 13.86,29.36 27.73,58.72 41.83,88.02 43.45,-22.31 82.09,-53.41 123.93,-78.74 -85.62,-165.87 -173.71,-330.4 -259.89,-495.94 -3.3,-5.82 -6.43,-16.61 -15.43,-13.14 -38.31,9.39 -75.95,21.36 -113.81,32.49l0 0zm-401.37 89.7c-55.03,28.02 -111.35,53.3 -166.77,80.48 -1.73,25.33 9.28,48.93 15.44,72.98 42.11,152.34 87.52,303.9 127.84,456.63 9.28,-0.06 18.79,0.11 27.63,-3.36 103.07,-35.46 205.58,-72.87 308.98,-107.43 4.2,-53.07 16.84,-105.42 17.62,-158.77 -76.79,20.63 -153.18,43.12 -229.24,66.38 -7.6,-66.33 -10.18,-132.88 -16.77,-199.26 -4.98,-78.85 -13.43,-157.48 -17.9,-236.39 -24.22,4.47 -44.63,19.01 -66.83,28.74l0 0zm-425.98 99.21c-53.35,44.01 -83.72,117.17 -69.91,185.84 6.38,37.13 32.61,67.17 61.69,89.37 43.45,30.98 97.59,41.1 141.94,70.35 10.34,8.84 24.88,20.19 19.18,35.79 -9.79,17.56 -30.31,28.81 -50.5,26.23 -25.73,-2.01 -47.71,-16.16 -69.07,-29.25 -6.99,-5.42 -14.93,1.57 -16.83,8.45 -24.83,49.44 -52.52,97.31 -77.29,146.75 115.76,83.49 296.34,41.1 368.49,-80.31 25.78,-43.51 32.6,-100.11 10.29,-146.41 -11.24,-24.67 -31.1,-44.86 -54.7,-57.89 -47.7,-26.34 -101.39,-38.19 -152.9,-54.58 -22.81,-8.28 -48.59,-17.28 -60.79,-39.99 -8.83,-16.72 6.27,-33.89 21.87,-38.64 20.08,-6.82 39.93,4.59 59.11,9.51 30.43,-45.13 60.18,-90.71 91.72,-135.06 0,-2.57 -0.06,-7.61 -0.06,-10.18 -29.02,-26.06 -70.74,-34.5 -108.6,-28.91 -41.83,4.03 -80.98,23.04 -113.64,48.93l0 0zm2217.87 -24.66c-32.66,6.15 -62.81,29.3 -73.66,61.24 -10.29,28.8 -3.58,64.59 20.97,84.16 31.6,24.11 77.52,16 108.05,-6.09 35.01,-23.21 49.89,-75.22 25.78,-111.18 -17.78,-25.78 -51.67,-33.89 -81.14,-28.13l0 0zm-245.85 50.33c-23.66,6.43 -46.08,21.2 -57.83,43.23 -19.07,33.05 -16.05,83.33 18.24,105.53 31.37,18.9 72.98,12.59 102.17,-7.6 45.13,-24.61 57.71,-99.1 13.7,-130.92 -21.87,-14.82 -51.28,-18.63 -76.28,-10.24l0 0zm-233.65 47.65c-19.02,6.6 -37.36,16.39 -50.56,31.93 -35.12,35.07 -28.24,106.87 21.42,125.11 38.53,11.96 84.17,-1.91 110,-33 26.74,-29.47 28.13,-81.54 -3.02,-108.38 -20.86,-19.02 -51.34,-21.7 -77.84,-15.66z"/>
    </g>
    <path class="fil0" d="M6298.45 628.69c38.98,-24 81.71,-49.22 129.08,-47.32 17.5,-0.39 32.88,19.8 24.27,36.24 -7.44,31.49 -32.72,52.91 -55.37,73.94 -18.12,13.31 -38.36,23.43 -58.88,32.38l-4.14 -2.24c-12.03,-30.87 -23.94,-61.8 -34.96,-93z"/>
    <path class="fil0" d="M5919.73 766.76c19.07,42.73 39.26,85.07 60.57,126.67 -21.25,3.25 -42.62,5.49 -63.76,9.06 1.63,-45.24 0.84,-90.48 3.19,-135.73z"/>
    <g>
     <path class="fil0" d="M4044.51 1192.24c81.71,-28.02 169.34,-37.64 255.25,-29.02 89.08,10.34 178,32.77 256.75,76.67 96.91,53.35 174.54,141.43 212.79,245.51 12.02,37.36 33.33,70.41 52.35,104.47 22.93,38.36 44.79,77.45 70.68,113.97 4.31,6.49 11.3,11.8 19.64,9.9 31.48,-3.86 62.85,-14.82 94.9,-9 38.2,3.74 68.56,31.09 106.31,36.74 54.47,9.51 106.15,32.1 161.68,35.68 32.83,2.68 65.88,0.33 98.26,-5.76 91.44,-15.04 185.28,-6.71 274.82,15.32 145.68,39.2 282.36,107.71 406.62,192.61 78.24,52.79 147.25,117.55 223.14,173.48 37.36,-50.17 75.22,-100.33 120.47,-143.84 -5.2,-59.51 -9.51,-119.29 -6.38,-179.02 3.25,-43.23 16.44,-84.72 28.86,-125.94 21.25,-76.45 16.16,-159.67 52.9,-231.64 28.19,-62.81 84.84,-104.81 127.23,-157.15 58,-68.17 140.09,-117.16 229.74,-127.4 126,-14.15 257.31,-23.88 379.79,16.22 112.57,35.68 210.05,112.69 274.48,211.23 60.67,86.12 96.47,191.15 93.06,297.07 2.57,73.6 -20.36,144.45 -34.79,215.76 -18.34,74.1 -32.94,149.54 -61.74,220.51 26.28,26.96 49.44,56.88 76.84,82.83 47.37,46.41 78.02,107.2 96.86,170.18 15.66,53.35 18.29,109.38 28.75,163.69 20.07,41.66 36.74,85.06 46.86,130.3 25.73,130.59 68.29,257.14 94.12,387.73 10.52,62.91 20.02,126.05 25.11,189.7 2.35,24.43 10.68,47.7 14.77,71.8 13.64,78.58 4.42,159.45 -18.12,235.45 -34.17,116.71 -52.46,237.45 -63.31,358.42 -5.37,70.02 -13.48,140.37 -35.79,207.31 -10.63,30.03 -15.66,64.43 -0.28,93.9 77.18,165.09 148.82,332.7 222.58,499.35 25.56,57.66 58.27,111.96 79.58,171.53l0 72.87c-13.81,28.63 -22.87,60.28 -45.52,83.77 -44.52,48.15 -91.27,94.34 -139.31,138.97 -6.71,5.6 -3.8,15.55 -4.75,23.21 0.61,45.41 -4.76,96.19 -38.93,129.75 -18.9,23.21 -48.93,30.59 -74.38,44.01l-2878.73 0c-22.7,-12.53 -48.88,-20.24 -67.11,-39.71 -26.28,-24.43 -38.87,-59.78 -43.9,-94.56 -16.55,-107.21 -20.52,-216.43 -10.23,-324.48 4.08,-52.63 10.06,-105.42 8.05,-158.27 -42.95,33.72 -79.69,75.16 -126.39,103.97 -52.74,32.1 -118.56,46.58 -178.74,28.8 -17.28,-4.25 -33.44,-16.22 -51.95,-11.75 -61.07,9.29 -124.66,-22.26 -155.7,-75.38 -17.27,-23.27 -14.93,-55.48 -34.61,-77.24 -42.51,-54.91 -34.12,-135.5 5.53,-189.64 -26.22,-46.3 -29.92,-105.02 -6.26,-153.12 20.13,-44.12 58.16,-76.34 97.25,-103.35 95.24,-70.69 191.15,-140.48 286.23,-211.34 58.27,-43.79 118.95,-85.73 167.77,-140.42 10.85,-15.66 13.59,-35.18 20.14,-52.74 4.41,-16.17 13.42,-31.43 14.54,-48.21 -41.33,-63.92 -86.58,-125.38 -129.53,-188.24 -53.4,-79.75 -72.14,-175.72 -114.19,-261 -52.13,-104.53 -107.49,-207.49 -167.22,-307.87 -31.93,-54.75 -70.02,-105.53 -104.69,-158.49 -28.08,-42 -57.49,-83.94 -73.99,-132.15 -21.14,-51.28 -22.09,-107.6 -18.46,-162.13 3.7,-34.61 15.66,-67.44 27.24,-99.99 -29.02,-8.72 -50.61,-37.02 -82.66,-34.56 -57.43,-2.52 -113.97,-36.74 -137.96,-89.82 -13.37,-26.34 -17.4,-55.87 -23.38,-84.44 -73.54,-31.32 -112.74,-104.47 -156.48,-166.66 -21.36,-29.14 -39.93,-60.4 -63.53,-87.8 -47.03,-47.71 -93.06,-100.28 -114.53,-164.98 -9.84,-27.18 -11.13,-56.99 -24.05,-83.05l0 -121.13c14.32,-26.57 15.49,-57.72 28.58,-84.84 34.28,-75.11 69.51,-150.49 117.78,-217.83 71.08,-100.16 174.15,-176.66 289.29,-218.72l0 0zm68.23 102.57c-85.34,24.77 -163.07,73.76 -223.81,138.41 -62.07,68.17 -100.89,152.9 -139.98,235.39 -33.39,75.44 -26.12,163.63 7.22,237.68 22.25,36.01 48.71,69.79 79.63,98.82 18.68,17.33 31.15,39.82 46.08,60.23 31.38,43.73 60.24,89.31 92.95,132.09 17.17,22.76 44.24,35.46 71.87,40.1 31.54,9.23 30.7,47.09 36.63,73.38 7.04,25.05 3.91,57.21 26.73,74.66 28.86,18.45 64.48,-1.74 94.62,12.3 14.32,11.41 24.44,28.74 42.51,34.9 28.63,12.3 61.51,5.98 90.09,17.61 19.52,6.21 20.86,30.31 35.79,41.67 14.15,5.25 29.25,2.01 43.79,1.11 -13.36,16.95 -34.56,24.11 -50.05,38.59 -58.22,50.28 -77.12,135.23 -61.46,208.49 12.58,55.59 48.32,101.5 78.96,148.26 59.68,83.77 114.03,171.18 163.03,261.67 52.68,97.98 108.6,194.9 147.19,299.59 20.63,54.36 37.69,111.18 71.69,159.16 51.06,72.2 100.45,145.57 151.11,218.05 6.1,8.78 9.18,20.13 3.81,30.14 -18.74,44.13 -33.06,89.93 -48.21,135.4 -7.05,22.65 -23.15,40.71 -39.2,57.6 -63.03,64.76 -138.53,115.09 -210.06,169.73 -94.51,69.97 -189.53,139.26 -283.87,209.5 -15.88,12.58 -29.25,31.26 -31.1,51.9 -2.29,23.76 21.31,43.67 44.13,42.33 25.89,-0.5 49.66,-11.91 73.48,-20.69 -31.2,29.02 -56.87,63.03 -86.74,93.28 -15.71,21.7 -38.75,40.77 -42.67,68.68 -2.07,28.46 28.64,40.21 48.88,52.23 -9.51,20.97 -14.03,49.27 6.94,65.15 19.51,18.63 44.85,0.73 67.05,-0.16 29.42,4.47 53.02,28.52 83.94,26.17 43.68,0.95 79.53,-27.85 109.45,-56.32 19.35,-13.81 35.01,-31.82 53.13,-47.09 71.58,-59.39 137.01,-126.67 215.14,-177.67 -4.47,62.58 -0.34,125.55 -5.98,188.08 -0.34,43.06 -2.07,86.06 -2.52,129.13 -3.97,70.74 -13.81,141.26 -11.35,212.29 -1.74,70.29 2.01,140.82 14.82,210.11 3.07,8.27 8.33,18.45 18.84,17.5 290.7,0.67 581.57,-1.17 872.32,-1.12 410.15,3.86 820.3,0.95 1230.46,2.18 15.38,-0.05 30.31,-4.81 45.13,-8.61 -12.14,0.84 -24.27,0.56 -35.91,-3.02 -66.49,-4.53 -133.15,-4.42 -199.76,-4.58 -46.36,-4.26 -93,-2.47 -139.48,-3.25 -91.43,-2.18 -182.93,-1.45 -274.42,-2.4 -14.93,-0.9 -29.02,4.47 -43.62,6.43 -10.57,-6.71 -16.83,-17.84 -23.21,-28.13 -29.7,-49.38 -61.57,-97.48 -87.69,-148.87 -34.5,-72.59 -64.37,-147.31 -94.4,-221.86 -23.94,-57.71 -46.08,-116.43 -59.11,-177.67 -20.92,-84.67 -21.93,-172.25 -32.38,-258.37 -12.19,-113.7 -25.11,-227.28 -39.04,-340.75 -3.13,-69.18 16.78,-136.57 39.15,-201.28 18.51,-61.79 39.82,-122.7 58.5,-184.44 25.11,18.07 54.24,31.77 74.6,55.76 -14.09,27.4 -41.83,50.84 -38.81,84.39 -1.85,23.27 15.21,41.16 22.2,62.08 -0.73,21.58 -23.43,31.87 -35.79,46.92 -6.21,8.44 -20.97,15.21 -16.78,27.57 9.56,2.68 19.91,1.96 27.68,-4.75 49.27,-29.76 93.73,-66.39 136.74,-104.36 52.18,-50.44 105.47,-100.27 149.09,-158.55 19.58,-26.39 43.4,-49.04 64.1,-74.38 6.54,9.45 13.36,18.63 20.3,27.8 97.19,111.51 216.87,199.93 337.73,283.98 71.24,48.32 141.99,99.05 201.1,162.13 14.32,14.15 23.1,37.41 45.58,39.99 -2.24,-25.28 -19.85,-45.08 -29.14,-67.84 31.71,5.82 60.63,23.49 93.51,23.6 -1.9,-8.28 -5.31,-17.11 -14.26,-19.63 -27.96,-12.36 -55.81,-25.11 -82.43,-40.16 -19.58,-12.24 -40.88,-28.85 -43.35,-53.51 -5.36,-51.12 12.31,-100.33 17.9,-150.55 7.55,-61.35 11.13,-123.1 10.29,-184.84 1.79,-102.39 27.91,-207.65 92.05,-289.29 62.08,-81.71 137.69,-159 235.45,-196.25 46.02,-19.23 96.41,-21.81 144.23,-34.56l2.46 -5.42 -2.74 -4.87c-33.28,-12.13 -70.19,-13.48 -103.97,-2.74 -144.34,38.31 -262.4,145.74 -335.88,273.2 -40.99,69.96 -60.63,150.99 -60.96,231.75 0,63.14 -8.22,125.83 -14.48,188.58 -5.48,58.61 -18.12,116.49 -19.52,175.54 -15.83,-6.48 -29.08,-17.61 -43.06,-27.18 -77.91,-54.13 -156.15,-107.87 -232.04,-164.8 -54.41,-39.71 -103.57,-86.07 -148.81,-135.79 -12.92,-18.74 -32.61,-34.51 -37.08,-57.71 9.84,-14.83 25.61,-23.83 39.65,-34.06 127.84,-88.31 253.06,-181.65 363.4,-291.31 94.62,-91.5 179.8,-193.51 247.47,-306.64 12.91,-18.9 -7.83,-31.26 -23.55,-36.24 12.36,-14.88 25.78,-28.75 39.09,-42.73 74.44,-74.99 137.47,-161.01 189.37,-253 42.27,-74.88 76.5,-157.49 76.78,-244.84 1.57,-23.32 -6.49,-46.25 -2.74,-69.57 38.7,66.49 63.59,140.43 81.31,215.14 32.44,126.28 62.53,253.12 91.72,380.23 20.53,97.26 60.85,190.48 66.55,290.59 0.95,40.6 9.12,80.48 15.55,120.46 7.27,46.2 6.04,93.34 -0.39,139.59 -31.1,182.76 -63.31,365.41 -97.82,547.62 -31.03,164.47 -69.12,329.11 -136.79,482.91 -31.71,71.75 -64.37,146.86 -123.59,200.6 -24.72,23.66 -59.45,34.11 -92.95,35.9 -59.73,-1.39 -117.44,-24.21 -165.93,-58.49 -85.73,-57.1 -170.79,-115.32 -253.5,-176.73 -143.34,-109.11 -300.27,-198.42 -456.24,-287.84 -84.11,-50.22 -174.6,-93.23 -245.29,-162.63 -15.93,-16 -27.06,-38.25 -48.82,-47.26 -9.56,15.61 -10.79,35.74 0.23,51.01 18.84,27.4 46.86,46.47 71.02,68.9 56.32,44.79 119.12,80.64 182.99,113.52 112.18,62.14 225.43,122.59 334.09,190.87 64.15,39.6 124.55,84.62 185.89,128.3 67.17,46.41 136.35,89.92 202.45,137.85 62.42,45.08 138.19,72.48 215.48,73.37 33.33,0.23 62.3,-18.56 83.94,-42.5 25.62,-17.06 42.4,-43 63.31,-64.93 89.59,-116.26 118.56,-263.12 165.65,-398.85 34.84,70.63 65.21,143.39 98.26,214.86 63.42,139.64 126,279.74 189.98,419.16 7.32,17.28 18.9,39.03 6.15,56.54 -39.93,40.37 -79.19,81.65 -123.48,117.38 -79.58,60.96 -163.08,116.55 -245.23,173.93 -10.74,7.77 -23.16,14.04 -36.75,13.48 -54.24,0.22 -108.49,0.11 -162.68,0.16 -60.68,1.18 -121.53,-2.68 -181.92,4.26 -2.46,1.67 -7.39,4.97 -9.85,6.65 7.5,4.03 15.44,5.7 23.94,5.09 186.17,-1.12 372.35,-0.78 558.52,-1.17 10.07,0.78 20.13,-2.86 25.61,-11.81 4.98,-28.91 2.58,-58.49 2.07,-87.63 0.45,-16.05 8.06,-31.43 19.97,-42.05 43.4,-42.45 87.13,-84.45 129.13,-128.18 15.99,-17.23 38.75,-32.78 40.54,-58.28 3.75,-21.53 -5.64,-42.22 -15.21,-60.85 -20.19,-37.02 -37.58,-75.44 -55.81,-113.41 -59.11,-132.88 -116.21,-266.65 -176.33,-399.08 -22.93,-54.81 -56.6,-106.59 -63.31,-166.77 -6.26,-54.36 17.79,-105.3 28.69,-157.37 15.27,-65.21 15.32,-132.49 24.1,-198.59 11.92,-108.21 31.43,-215.81 62.75,-320.11 21.98,-72.82 23.71,-151.62 1.74,-224.65 -12.7,-92.22 -19.02,-185.84 -42.95,-276.21 -19.97,-83.28 -43.79,-165.6 -63.54,-248.93 -9.5,-42.89 -18.06,-86.29 -32.66,-127.84 -9.33,-27.91 -30.87,-51.23 -32.6,-81.65 -9.34,-73.04 -14.37,-149.82 -52.46,-214.87 -27.79,-51.95 -77.62,-86.06 -112.8,-132.26 -15.15,-19.4 -38.81,-32.88 -46.3,-57.54 -5.32,-21.87 7.27,-41.78 14.26,-61.52 25.28,-61.35 39.31,-126.39 54.69,-190.65 18.12,-86.4 47.93,-173.48 34.56,-262.9 -6.26,-78.13 -45.63,-148.87 -92.27,-210.17 -47.48,-58.66 -109.45,-107.43 -181.87,-130.92 -107.88,-38.64 -224.87,-27.29 -336.33,-14.54 -59.11,4.98 -112.69,37.92 -150.72,82.38 -27.74,26.56 -50.22,57.83 -78.01,84.28 -27.35,26 -46.65,60.79 -53.52,97.98 -9.74,55.31 -15.94,111.34 -29.92,165.87 -8.39,33.05 -21.59,65.15 -24.28,99.44 -4.02,46.69 1.4,93.39 3.47,140.03 2.13,30.87 13.42,67.9 -9.39,93.79 -26.68,30.81 -58.11,57.49 -82.44,90.43 -36.96,47.37 -72.2,95.97 -106.93,144.96 -5.98,8.33 -12.8,16.49 -21.92,21.47 -18.68,-9.95 -27.62,-30.59 -42.5,-44.74 -37.53,-29.81 -76.23,-58.11 -113.86,-87.8 -112.47,-97.48 -236.56,-183.27 -374.09,-241.54 -93.45,-41.44 -194.17,-70.58 -297.07,-70.3 -50.67,0.56 -100.21,12.7 -150.72,15.27 -49.66,0.78 -99.15,-7.1 -147.02,-19.97 -50.56,-15.77 -104.64,-20.91 -152.4,-45.07 -32.6,-17.84 -70.13,-2.29 -103.23,5.65 -41.05,-9.57 -86.18,-21.65 -111.97,-57.94 -39.87,-58.44 -75.05,-119.96 -109.89,-181.48 -13.14,-23.32 -23.04,-48.26 -32.49,-73.2 -19.35,-50.78 -50.56,-96.92 -90.43,-133.83 -42.06,-35.96 -91.21,-63.42 -143.67,-80.87 -99.6,-33.11 -208.82,-43.45 -310.89,-15.43l0 0zm3304.82 1429.88c9.68,102.63 22.49,204.97 31.83,307.59 8.44,0.17 17.67,-2.8 16.89,-12.97 11.46,-56.49 4.86,-114.59 -1.51,-171.25 -6.49,-41.44 -14.38,-83.44 -34.12,-120.91 -3.3,-0.61 -9.84,-1.84 -13.09,-2.46l0 0zm146.08 427.44c0.28,2.62 0.84,7.94 1.12,10.57 26.06,10.79 50.84,24.77 77.96,32.99 -1.62,-13.81 -7.89,-26.11 -18.9,-34.56 -15.38,-16.61 -40.33,-11.52 -60.18,-9l0 0zm-434.59 20.3c-5.31,16.55 -24.55,21.08 -34.67,33.89 -62.81,76.61 -106.76,167.33 -137.8,260.94 -12.48,39.71 -22.82,81.37 -17.23,123.21 3.02,0.28 9.17,0.83 12.19,1.06 29.59,-137.97 93.01,-266.6 171.58,-382.97 5.82,-8.34 8.56,-19.8 19.69,-22.49 0.05,-3.46 0.22,-10.34 0.28,-13.75 -3.53,0 -10.52,0.05 -14.04,0.11l0 0zm-314.08 358.64c-15.93,26.34 -16.38,58.22 -15.37,88.08 4.53,75.95 25.61,152.01 68.67,215.37 3.08,0.62 9.29,1.74 12.36,2.35 -12.19,-47.42 -27.12,-94.12 -37.58,-141.99 -10.91,-54.25 -13.03,-109.67 -16.05,-164.76 -3.02,0.23 -9.01,0.67 -12.03,0.95z"/>
    </g>
    <g>
     <path class="fil0" d="M6602.91 1546.58c24.49,-46.08 60.17,-85.34 99.43,-119.34 13.09,43.17 -0.22,93.11 -34.22,123.14 -29.53,29.48 -62.47,66.67 -56.04,111.69 1.06,27.85 25.5,46.19 34.39,71.19 20.64,51.9 5.26,108.66 13.31,162.46 2.58,12.13 6.32,26.56 19.86,30.53 15.21,4.2 32.88,-1.67 43.79,-12.86 14.09,-12.81 25.16,-30.76 44.9,-35.4 12.47,3.86 22.32,14.88 26.12,27.29 20.52,61.97 12.02,129.3 -7.88,190.26 -5.82,17.84 -26.96,21.7 -41.22,30.7 1.06,6.77 2.18,13.59 3.35,20.41 13.09,1.46 27.13,4.31 39.6,-1.84 36.57,-37.53 42.33,-92.39 48.88,-141.88 5.25,-27.63 -3.92,-55.31 0.05,-82.94 32.16,31.6 51.4,73.32 80.81,107.21 29.2,26.34 65.1,45.86 104.14,52.62 110.84,19.58 229.18,24.39 335.26,-19.07 -17.27,58.5 -38.36,115.99 -64.87,170.91 -13.59,29.08 -35.23,53.86 -60.56,73.21 -90.38,54.35 -187.24,97.64 -287.23,130.91 -46.81,13.82 -93.4,31.04 -142.72,32.78 -7.55,1.06 -13.82,-1.35 -18.74,-7.16 -1.68,-31.71 5.87,-62.92 6.94,-94.51 0.05,-29.53 6.93,-58.78 3.24,-88.31 -3.19,-0.73 -9.62,-2.18 -12.81,-2.85 -7.27,52.12 -12.69,104.52 -18.95,156.81 -14.99,-12.13 -17.23,-32.55 -27.41,-47.98 -16.66,-30.82 -41.61,-55.76 -67.61,-78.74 -24.83,-20.03 -53.35,-35.13 -77.18,-56.49 -31.99,-31.99 -49.77,-78.07 -45.13,-123.37 10.01,-81.59 12.81,-165.09 -3.19,-246.12 -3.41,-16.05 -6.37,-33.17 -0.11,-48.94 19.35,-54.25 31.99,-110.95 36.52,-168.39 0.45,-39.76 6.54,-80.36 25.28,-115.93l0 0zm156.03 379.84c-15.83,28.41 -3.13,61.02 9.78,87.8 2.13,-0.55 6.33,-1.73 8.39,-2.29 15.5,-30.93 17.56,-68.11 3.08,-99.77 -8.72,1.79 -18.85,4.31 -21.25,14.26z"/>
    </g>
    <path class="fil0" d="M4839.26 1838.17c28.75,15.27 59,27.8 86.74,45.02 14.43,8.22 14.93,26.85 14.65,41.5 -1.62,96.97 -13.75,194 -6.32,290.98 1.07,103.68 21.54,205.8 39.32,307.64 25,134.11 54.14,267.6 92.95,398.52 52.51,173.76 118.5,343.04 178.68,514.23 9.39,21.92 -15.94,39.31 -34.68,43 -90.76,-125.66 -183.15,-250.15 -276.66,-373.8 -24.72,-32.88 -52.01,-64.14 -72.59,-99.94 -49.77,-81.14 -68.9,-175.99 -108.99,-261.56 -3.14,-0.33 -9.46,-0.95 -12.59,-1.23 -2.91,36.3 10.91,70.58 19.3,105.25 17.28,56.38 35,113.7 66.66,163.98 47.76,75.94 104.52,145.62 157.82,217.65 59.78,77.96 119.4,156.03 178.9,234.22 10.68,14.71 26.18,26 32.38,43.79 -5.81,14.76 -15.94,27.29 -28.24,37.24 -14.15,2.07 -22.15,-12.36 -32.49,-19.18 -144.01,-125.33 -296.24,-244.45 -413.57,-396.67 -66.99,-84.23 -124.43,-175.44 -179.91,-267.49 -29.69,-48.38 -55.25,-99.83 -70.13,-154.75 31.43,2.35 61.86,22.26 93.96,12.42 25.28,-4.81 41.61,-25.67 56.09,-45.02 12.69,-16.55 31.82,-1.29 44.52,6.93 35.01,25.62 78.24,45.47 122.53,36.47 11.85,-4.42 14.26,-19.41 18.68,-29.87 10.12,-29.92 -1.91,-61.12 -17.9,-86.51 -9.56,-17.73 -12.41,-47.04 8.05,-58.22 27.29,-4.42 57.61,-2.01 80.7,-20.25 13.93,-11.46 32.72,-27.34 26.57,-47.64 -9.4,-20.36 -26.17,-36.63 -44.69,-49.1 -31.54,-25.62 -70.07,-39.71 -106.59,-56.6 -6.99,-2.63 -9.9,-10.52 -7.49,-17.28 23.99,-151.33 51.56,-302.22 87.46,-451.2 5.93,-20.3 5.48,-41.61 6.88,-62.53z"/>
    <g>
     <path class="fil0" d="M4956.76 1853.27c33.44,-6.32 64.76,12.14 90.1,31.94 32.54,25.27 57.6,60.67 67.16,101.11 14.04,63.53 24.5,128.07 44.41,190.2 0.83,8.78 7.94,12.75 16.33,12.19 -0.45,-42.73 -6.38,-85.29 -12.42,-127.57 -8.72,-58.1 -33,-112.01 -51.62,-167.27 29.87,4.76 57.66,18.01 87.69,22.21 93.84,17.16 189.75,6.2 283.82,-3.02 39.54,-3.75 79.58,-2.13 117.83,9.17 -58.44,30.42 -124.43,53.18 -168.39,104.8 -1.34,2.74 -4.08,8.22 -5.42,10.96 11.69,2.3 24.77,7.5 36.13,0.95 47.37,-27.79 95.01,-55.81 145.51,-77.62 38.81,-17.06 80.82,-2.96 118.17,10.9 151,55.76 287.62,145.8 406.52,253.51 38.36,33.78 79.97,64.15 115.32,101.23 -91.16,-6.77 -187.63,-14.71 -273.42,23.48 -0.95,2.8 -2.91,8.34 -3.86,11.08 42.23,-5.2 84.5,-12.75 127.18,-11.63 52.51,3.57 104.97,9.5 156.3,21.3 -19.01,42.06 -59.5,68.12 -88.47,102.62 -26.9,34.45 -60.68,62.64 -88.86,95.97 -31.71,37.08 -68.9,69.07 -99.49,107.15 -37.64,37.86 -69.69,80.7 -109.84,116.16 -9.34,-3.52 -18.45,-7.72 -26.4,-13.7 -40.43,-30.03 -78.96,-62.53 -118.95,-93.06 -7.77,-5.99 -16.55,-10.85 -26.4,-12.08 0,3.91 0,11.8 0,15.71 50.56,46.64 104.98,89.37 156.04,135.34 -72.26,53.35 -140.88,112.64 -199.1,181.42 -57.21,60.46 -109.11,125.66 -164.36,187.91 -23.6,23.54 -42.33,51.79 -68.45,72.93 -10.01,-31.94 -25.62,-62.31 -30.54,-95.64 -20.58,-140.09 -40.15,-280.29 -57.1,-420.89 -13.19,-113.47 -20.91,-227.83 -44.01,-339.96 -10.68,-43.79 -18.96,-90.49 -47.48,-126.9 -12.53,-15.26 -21.53,-35.01 -39.37,-44.74 -16.5,-4.47 -28.08,10.07 -37.64,20.97 -28.07,30.04 -50.22,65.38 -81.09,92.78 -13.92,10.85 -30.81,-0.5 -43.62,-7.6 -31.99,-19.35 -70.63,-42.78 -72.14,-84.89 -0.06,-106.43 1.56,-212.86 0.33,-319.28 -0.28,-29.75 -9.11,-58.5 -10.4,-88.14l0 0zm430.51 278.28c-0.34,36.52 8.89,72.15 13.93,108.11 16.66,93.22 70.12,174.26 128.73,246.51 3.92,1.23 11.64,3.75 15.5,4.98 -2.47,-19.35 -15.72,-34.17 -24.72,-50.61 -35.01,-59.51 -69.24,-120.41 -89.71,-186.68 -16.89,-52.62 -19.4,-108.04 -15.93,-162.85 -19.19,2.52 -27.52,23.43 -27.8,40.54z"/>
    </g>
    <g>
     <path class="fil0" d="M4765.94 1918.87c14.99,-14.09 24.22,-32.88 33,-51.11 3.64,78.12 -18.12,154.57 -39.09,229.12 -33.22,-29.3 -62.02,-63.19 -94.79,-92.95 -11.64,-8.11 -23.88,-20.63 -39.43,-17 -8.84,10.18 9.84,17.28 15.04,24.67 26.74,29.24 62.36,49.32 85.74,81.65 20.8,29.19 25.95,67.89 14.48,101.78 -16.38,48.93 -19.69,100.72 -29.25,151.16 -2.4,13.31 -18.79,12.03 -28.8,15.38 -27.01,7.67 -59.78,9.57 -77.96,33.84 -16.61,23.49 6.54,56.15 -11.35,78.07 -28.63,20.41 -58,48.32 -95.86,45.3 -30.53,-2.3 -49.77,-28.69 -69.96,-48.38 -20.47,-20.63 -23.15,-52.62 -45.24,-71.92 -13.37,-14.37 -27.46,-37.47 -50.61,-29.19 -31.54,2.57 -42.12,44.29 -74.61,42.06 -2.85,-0.06 -8.55,-0.06 -11.46,-0.12 11.74,-17.78 37.8,-23.54 42.22,-45.74 -24.83,0.44 -48.65,22.76 -73.15,10.29 -20.41,-9.96 -21.98,-34.79 -30.25,-53.19 -6.83,-12.8 -22.76,-10.23 -34.79,-12.08 7.72,17.79 21.03,34.01 18.23,54.87 -16.78,0.67 -44.46,7.38 -50.72,-13.93 -15.72,-37.47 -7.16,-83.61 -36.18,-115.71 -14.99,-19.52 -39.49,-25.67 -62.36,-30.36 4.42,-20.42 17.95,-37.14 36.8,-46.03 13.03,-4.81 3.75,-23.88 -6.66,-26.06 -26.73,-8 -47.81,15.82 -67.83,29.47 -46.42,-59.5 -86.8,-123.31 -128.07,-186.34 -3.36,-6.6 -8.17,-14.71 -1.46,-21.03 18.4,-20.97 41.78,-36.69 61.91,-55.81 13.31,-10.12 28.8,-23.21 46.81,-18.96 20.08,5.82 31.66,24.89 43.96,40.38 27.79,35.4 46.03,80.25 85.62,104.97 23.38,18.01 53.97,22.37 77.23,40.66 19.91,14.09 45.64,31.54 70.13,17.11 10.46,-10.35 13.82,-25.5 18.34,-39.04 9.9,-38.36 18.12,-77.17 27.58,-115.65 5.09,-15.38 7.04,-33.5 19.68,-44.96 29.64,-5.54 48.6,22.2 67.11,40.26 15.44,13.31 22.54,37.7 45.08,40.72 -3.53,-39.37 -35.35,-67 -63.03,-91.5 35.51,11.64 56.48,46.59 66.49,80.65 17.62,52.01 15.22,107.6 13.59,161.67 7.5,-1.28 16.17,-0.72 21.87,-6.87 17.9,-77.57 5.65,-164.59 -45.3,-227.84 24.44,-6.15 52.18,-6.04 72.93,9.95 18.45,16.78 33.27,38.7 57.15,48.55 39.88,18.9 84.84,11.57 127.4,12.8 35.9,1.34 72.7,-9.62 99.82,-33.61l0 0zm-427.71 66.27c-0.05,16.61 -4.47,37.59 10.85,49.16 8.73,9.4 22.37,7.55 33.89,8.28 -9.45,-22.04 -23.71,-45.24 -44.74,-57.44z"/>
    </g>
    <g>
     <path class="fil0" d="M6493.97 2114.83c1.73,-1.62 5.2,-4.86 6.93,-6.43 -41.94,69.57 -78.4,146.36 -81.48,228.96 13.42,-8.89 18.4,-24.83 24.89,-38.7 20.46,-50.5 40.54,-101.23 66.77,-149.1 7.27,25 5.2,52.51 18.51,75.72 16.78,34.45 50.84,54.47 80.53,76.34 -0.11,1.85 -0.45,5.65 -0.56,7.5 -14.31,22.2 -35.68,38.64 -53.13,58.21 -47.75,55.87 -91.43,115.38 -129.24,178.46 -3.13,8.44 -11.85,3.35 -18.01,2.74 -14.03,-4.53 -28.46,3.86 -37.24,14.37 -73.99,95.02 -125.16,207.04 -152.17,324.2 -13.42,60.68 -22.82,122.14 -31.38,183.66 -8.55,66.71 19.41,130.08 41.05,191.59 -32.27,-5.31 -65.15,-21.08 -82.71,-49.77 -13.37,-19.68 -15.1,-44.12 -24.61,-65.49 -11.46,-29.25 -20.75,-63.3 -6.37,-93.22 1.56,-21.87 -0.62,-50.17 -21.42,-63.2 -14.15,-7.1 -30.59,-1.34 -43.79,5.2 -17.79,9.51 -35.63,20.86 -46.19,38.59 -10.8,14.49 -16,32.1 -25.23,47.54 -23.09,36.18 -67.22,51.9 -88.97,89.25 -17.06,25.34 -21.59,60.12 -6.83,87.47 27.24,53.35 58.67,104.41 89.31,155.81 3.98,9.84 13.54,13.81 23.6,14.14 -1.67,-8.5 -2.4,-17.39 -7.04,-24.83 -24.33,-43.23 -45.86,-87.97 -68.96,-131.87 -11.85,-23.09 -22.03,-50.27 -12.75,-76.05 8.34,-26.46 30.26,-46.14 55.31,-56.77 -4.19,85.4 48.54,158.61 101.79,220.01 3.35,0.17 10.06,0.45 13.36,0.62 -2.57,-27.02 -21.98,-49.05 -34.5,-72.43 -17.17,-32.21 -44.74,-59 -53.97,-95.07 -11.91,-49.66 5.93,-102.4 36.35,-141.99 13.09,-19.19 33.83,-31.77 55.7,-38.48 24.94,52.18 -31.71,105.92 -4.42,157.49 21.03,28.91 44.41,56.54 71.59,80.08 33.66,24.94 71.24,45.3 111.51,57.55 -3.86,-39.54 -15.94,-77.74 -23.82,-116.55 -10.35,-47.82 -33.28,-98.54 -12.7,-146.91 31.88,-0.68 52.91,29.47 62.47,56.54 45.91,104.57 99.15,206.64 130.47,316.98 9.84,35.73 19.35,71.52 28.19,107.54 5.65,17.28 -10.63,29.7 -21.98,39.6 -36.46,28.85 -72.09,58.83 -109.11,86.96 -28.46,23.49 -58.83,45.02 -84.05,72.14 -7.16,8.72 -19.86,15.77 -30.32,7.94 -62.07,-37.47 -126.67,-70.8 -187.06,-111.01 -38.26,-24.05 -57.38,-69.46 -61.02,-113.13 4.76,-0.17 14.21,-0.51 18.9,-0.68 -1.62,-7.43 -2.96,-14.87 -5.48,-21.97 -23.43,-55.15 -47.53,-109.9 -70.52,-165.21 -4.02,-9.06 -9.34,-17.45 -14.87,-25.55 -0.95,2.68 -2.74,7.99 -3.64,10.68 7.22,37.36 12.64,75.72 29.19,110.45 7.28,19.13 19.52,38.2 16.28,59.56 -10.01,29.7 -41.11,42.5 -60.96,64.37 -65.77,56.99 -131.98,113.69 -193.16,175.77 -45.02,36.8 -83.78,80.37 -125.72,120.52 -45.92,45.41 -91.55,91.27 -136.4,137.74 -19.35,26.73 -45.92,47.09 -65.1,73.94 -34.28,38.19 -64.82,79.63 -101.95,115.26 -12.86,-68.4 -48.38,-134.9 -105.98,-175.61 -59.78,-42.56 -133.71,-60.17 -205.91,-65.65 67.22,-111.07 151.94,-210.06 234.71,-309.6 22.6,-22.49 41,-48.49 63.53,-70.97 19.3,-26.85 45.97,-47.15 64.93,-74.21 40.1,-40.33 76.12,-84.45 117.28,-123.77 68.17,-66.49 132.48,-136.68 190.64,-212.06 43.51,-53.08 93.51,-100.28 142,-148.76 54.24,-53.86 108.43,-107.83 162.24,-162.07 22.7,-23.72 47.47,-45.47 67.72,-71.42 33.67,-37.3 70.97,-71.14 105.03,-108.1 26.62,-34.68 61.35,-61.97 88.08,-96.59 58.22,-61.57 115.2,-124.48 164.19,-193.89 55.48,-78.4 111.29,-156.64 167.67,-234.38l0 0zm-824.84 1063.97c1.62,33.5 -5.2,68.29 5.59,100.67 8.22,49.83 22.54,99.49 48.94,142.83 10.85,12.47 20.97,30.14 39.54,30.53 -2.24,-19.12 -16.45,-33.27 -23.88,-50.33 -36.24,-72.92 -56.99,-155.19 -51.96,-236.84 -9.39,-1.68 -19.35,1.85 -18.23,13.14l0 0zm64.65 16.56c-0.45,12.41 11.69,17.45 19.63,24.44 11.97,9.5 21.14,23.6 37.41,26.17 -2.57,-18.85 -11.91,-36.8 -27.01,-48.54 -9.73,-3.08 -20.02,-2.47 -30.03,-2.07z"/>
    </g>
    <path class="fil0" d="M7335.75 2205.65c1.79,0.23 5.25,0.68 6.99,0.9 33.94,45.8 29.97,107.32 17.78,160 -17.73,69.29 -71.75,123.43 -134.5,154.63 -101.11,50.11 -202,100.67 -302.83,151.34 -90.54,46.92 -183.32,89.92 -271.18,141.82 8.95,-54.3 21.92,-107.82 35.62,-161.06 10.91,-40.83 27.57,-80.48 51.51,-115.43 11.52,-17.17 29.58,-32.44 51.45,-31.43 47.48,-1.23 93.51,-14.49 138.36,-29.03 63.53,-22.65 125.72,-48.88 186.9,-77.17 41.83,-21.31 86.68,-37.14 125.78,-63.48 44.85,-31.76 76.67,-79.3 94.12,-131.09z"/>
    <path class="fil0" d="M7390.94 2249c18.8,30.59 31.88,64.98 33.78,101.16 13.48,109.45 -22.76,219.9 -82.6,310.83 -42.33,62.75 -90.54,121.25 -139.64,178.57 -33.39,33.67 -61.8,72.26 -98.43,102.63 -21.19,10.29 -46.08,6.04 -68.73,4.25 -24.55,-3.64 -50.17,1.95 -73.93,-6.49 -9.01,-20.58 -3.53,-43.4 -5.04,-65.04 -20.52,-0.79 -36.24,20.35 -33.38,39.82 1.17,20.46 11.68,41.1 29.08,52.51 18.84,11.07 41.72,7.77 62.69,9.28 42.39,4.76 85.12,4.81 127.67,7.1 -16.1,22.82 -26.78,49.05 -43.95,71.2 -39.54,51.23 -82.99,99.21 -125.44,147.97 -32.94,34.23 -66.78,67.56 -100.44,101.06 -60.4,57.88 -127.4,108.1 -195.07,157.15 -60.34,42.84 -116.27,92.16 -180.36,129.52 -22.93,-104.19 -52.96,-207.54 -99.82,-303.67 -7.94,-17.95 -18.9,-37.86 -12.58,-57.94 5.7,-27.23 29.75,-43.96 47.64,-63.14 30.31,-32.43 70.25,-53.01 106.65,-77.62 85.73,-56.93 175.1,-110.12 249.76,-181.7 36.75,-27.91 64.99,-65.21 101.28,-93.62 94.68,-87.91 197.19,-168.61 309.88,-232.48 49.61,-26.96 92.28,-64.14 135.56,-99.77 35.52,-37.86 54.92,-89.98 53.91,-141.77 0.23,-29.97 -1.11,-59.95 1.51,-89.81z"/>
    <path class="fil0" d="M5101.55 2377.46c33.16,-34.06 56.54,-76.51 91.44,-108.95 10.96,6.1 19.35,15.78 24.49,27.18 43.4,75.67 37.58,166.1 58.22,248.53 35.79,130.98 20.75,268.39 43.23,401.32 17,111.57 32.32,225.15 76.67,329.85 8.62,17.83 -7.04,31.59 -18.84,42.61 -35.96,33.05 -65.16,72.42 -100.78,105.87 -86.46,-229.91 -170.07,-461.55 -229.4,-700.24 -32.66,-126.05 -55.09,-254.57 -72.43,-383.59 22.93,14.04 46.31,27.24 69.41,40.88 17.33,10.74 43.23,12.31 57.99,-3.46z"/>
    <path class="fil0" d="M6598.1 2358.55c10.01,-12.8 17.95,-27.62 31.26,-37.41 2.07,0.73 6.21,2.18 8.28,2.91 19.4,19.91 34.34,43.84 53.07,64.48 9.62,10.01 16.11,25.05 9.23,38.48 -19.74,48.99 -46.14,95.68 -61.18,146.52 13.87,-1.18 27.57,-3.36 41.27,-5.59 -10.24,35.51 -21.64,70.74 -31.1,106.53 -13.25,-2.74 -31.48,-2.96 -37.02,-17.95 3.92,-28.58 27.46,-50.11 29.42,-79.13 -30.37,7.66 -46.03,39.93 -58.89,66.1 -52.4,104.13 -91.83,216.26 -104.19,332.64 -5.59,39.04 -2.07,81.65 -25,115.93 -10.01,17.9 -28.69,27.63 -45.85,37.3 -22.71,13.2 -40.21,33.06 -60.63,49.16 -9.34,-26.23 -22.65,-50.72 -32.77,-76.61 -10.29,-25.17 -23.82,-49.83 -45.8,-66.61 -13.2,-11.52 -38.03,-14.2 -36.35,-36.63 26.45,-151.22 67.11,-305.69 161.28,-430.01 8.84,27.69 10.96,62.53 37.81,79.75 21.59,12.19 49.94,7.22 69.85,-6.49 11.58,-8.61 26.28,-15.88 29.47,-31.31 -23.1,-5.43 -41.05,17.33 -63.75,13.42 -8.89,-1.62 -17,-5.48 -25.22,-8.73 -9.74,-32.15 17.05,-59.05 32.32,-84.67 40.88,-57.77 83.22,-114.59 124.49,-172.08z"/>
    <path class="fil0" d="M4672.94 2389.87c26.17,-3.91 54.03,-2.74 77.9,9.79 40.22,20.63 80.54,41.22 119.07,64.98 6.99,3.86 11.02,11.52 11.46,19.46 -10.9,24.89 -41.6,28.13 -64.42,35.96 -43.18,-5.98 -85.62,-17.16 -128.91,-23.09 -38.14,-3.97 -74.6,-43.51 -63.36,-82.72 8.89,-18 30.59,-21.14 48.26,-24.38z"/>
    <path class="fil0" d="M4328.11 2397.2c3.47,-0.34 10.4,-0.95 13.87,-1.23 4.81,18.12 -10.63,28.8 -26.68,29.75 4.2,-9.56 8.78,-18.96 12.81,-28.52z"/>
    <path class="fil0" d="M4367.76 2403.57c2.68,0.79 8.11,2.41 10.85,3.19 4.14,20.58 12.47,39.87 17.39,60.29 -6.21,-2.02 -13.59,-3.36 -14.93,-11.02 -6.54,-16.89 -9.4,-34.9 -13.31,-52.46z"/>
    <path class="fil0" d="M6716.88 2450.16c11.86,7.83 28.24,20.69 19.69,36.74 -14.99,23.77 -29.75,52.4 -59.06,60.45 9.9,-33.6 26.9,-64.53 39.37,-97.19z"/>
    <path class="fil0" d="M4593.31 2504.96c8.38,-7.94 16.55,-16.1 24.43,-24.55 9.01,13.76 19.24,26.74 27.57,40.94 -17.33,-5.48 -34.33,-11.97 -52,-16.39z"/>
    <path class="fil0" d="M4656.11 2550.71c21.81,-35.4 79.69,-48.32 108.1,-14.15 7.22,25.67 -2.12,53.58 5.93,79.36 6.37,26.06 18.34,52.57 12.02,79.86 -45.35,5.26 -93.39,-13.42 -125.16,-46.25 -18.73,-18.85 -42.5,-32.55 -58.21,-54.36 -7.11,-11.52 -8.28,-25.44 -11.52,-38.36 22.64,-4.14 46.47,-18.96 68.84,-6.1z"/>
    <path class="fil0" d="M4478.55 2548.81c34.5,-8.84 68.73,-18.51 103.29,-26.9 -10.96,17.11 -26.51,35.06 -21.42,57.04 8.22,27.35 30.54,46.98 49.16,67.5 -18.12,20.58 -43.29,39.71 -72.37,36.08 -25.44,-0.4 -50.78,-19.19 -75.66,-6.32 -13.43,4.47 -18.96,19.07 -21.81,31.71 -1.79,16.1 6.37,30.87 12.08,45.41 30.59,65.76 55.36,134.78 95.52,195.62 78.96,121.69 168.5,236.56 267.15,342.82 95.01,95.58 198.64,181.92 302.05,268.16 10.96,8.33 20.3,20.92 10.18,34.06 -18.12,21.25 -33.84,44.4 -50.95,66.49 -2.91,1.01 -8.84,2.97 -11.75,3.97 -26.28,-22.59 -49.43,-48.65 -73.76,-73.31 -33.33,-42.67 -76.79,-76.01 -109.95,-118.84 -24.72,-25.73 -46.36,-54.14 -70.91,-79.92 -4.03,-0.9 -12.14,-2.57 -16.16,-3.47 2.29,17.62 13.25,31.99 21.81,46.98 35.23,53.41 69.4,108.55 116.32,152.73 32.72,34.06 74.55,56.99 112.63,84.17 12.81,9.67 0.67,24.38 -6.32,33.5 -31.43,35.12 -57.65,74.66 -89.92,108.99 -57.44,-85.45 -119.18,-168.27 -169.79,-258.15 -23.43,-40.04 -32.66,-86.01 -50.05,-128.57 -26.74,-73.93 -63.14,-143.89 -101.17,-212.57 -53.75,-105.14 -110.01,-209.66 -181.14,-304.34 -35.8,-53.24 -80.81,-102.73 -99.32,-165.48 -15.83,-52.18 -9.51,-110.23 15.77,-158.38 17.61,-32.77 51.33,-53.97 86.68,-62.97 3.58,8.33 7.72,16.83 6.71,26.28 0.5,31.15 -0.84,62.41 0.56,93.56 9.45,-0.16 23.1,3.64 27.12,-8.16 8.9,-28.91 -4.53,-58.39 -4.58,-87.69z"/>
    <path class="fil0" d="M6699.88 2823.79c98.15,-49.21 194.84,-101.28 293.27,-149.99 -116.21,101.95 -224.82,213.63 -353.39,300.82 2.85,-42.45 10.96,-84.56 25.06,-124.65 8.55,-12.31 22.03,-19.58 35.06,-26.18z"/>
    <path class="fil0" d="M6591.28 2693.77c15.93,-6.21 32.21,-1.46 46.86,5.87 1.4,9.78 -1.06,19.24 -3.75,28.63 -13.42,-4.58 -28.74,-4.75 -40.21,-13.7 -4.69,-5.82 -1.84,-14.04 -2.9,-20.8z"/>
    <path class="fil0" d="M6568.68 2748.01c21.25,-1 52.18,-0.16 62.92,21.31 1.23,29.86 -6.71,59.45 -8.22,89.26 -5.99,39.2 -8.06,79.02 -16.05,117.89 -2.97,19.74 -19.97,32.55 -35.29,43.23 -23.83,14.98 -47.03,31.43 -72.82,43.06 13.54,-106.71 45.53,-210.06 69.46,-314.75z"/>
    <path class="fil0" d="M5900.72 3545.45c8.05,-6.94 15.66,-14.32 23.48,-21.54 5.2,20.58 11.75,40.94 14.55,62.08 2.29,12.19 -9.29,20.75 -11.64,32.05 -26.9,109.89 -53.63,219.89 -77.4,330.57 -9.22,46.14 -21.59,92.72 -16.78,140.2 7.11,66.55 5.93,133.94 20.25,199.65 17.39,84.67 51.51,165.37 96.19,239.19 23.66,41.16 53.86,78.13 76.45,119.91 -67.39,-35.46 -124.77,-87.13 -177.9,-141.05 -59.22,-57.1 -109.67,-122.64 -154.8,-191.26 -47.37,-72.7 -85.62,-150.72 -126.95,-226.83 -21.75,-44.12 -46.86,-86.4 -68.5,-130.47 -6.27,-10.74 -5.6,-26.01 4.02,-34.45 22.2,-22.48 44.52,-45.02 69.29,-64.65 30.09,-27.8 57.83,-58.05 87.97,-85.73 46.59,-36.97 83.5,-84.39 129.97,-121.42 38.2,-34.39 71.59,-73.99 111.8,-106.25z"/>
    <path class="fil0" d="M6418.02 3599.19c13.59,-10.46 26.06,-31.99 45.64,-27.12 9.5,10.9 21.08,25.67 13.75,40.82 -12.13,25.61 -37.02,41.39 -53.91,63.48 -10.35,13.92 -22.37,26.56 -34.84,38.7 -18.23,17.22 -31.65,38.75 -50.22,55.7 -27.01,25.28 -48.1,56.2 -76.39,80.14 -20.14,16.38 -40.16,32.99 -61.41,47.92 -10.29,-21.69 -34.28,-39.42 -33.78,-64.59 34.17,-34.73 68.68,-69.4 104.36,-102.62 29.3,-22.76 52.79,-51.84 82.54,-73.93 21.25,-19.74 41.16,-40.94 64.26,-58.5z"/>
    <path class="fil0" d="M5960.72 3613.17c41.44,26.45 82.04,54.3 123.37,80.92 6.27,24 -8.61,45.97 -15.43,68.12 -19.91,59.11 -41.72,117.5 -61.18,176.72 -25.11,85.18 -16.28,175.22 -9.46,262.35 7.05,80.02 13.71,160.11 21.54,240.03 2.51,48.99 12.47,97.7 9.62,146.8 -32.55,-53.52 -65.77,-106.65 -95.19,-161.9 -38.08,-81.09 -63.64,-168.9 -68.62,-258.6 -8.78,-85.29 10.74,-169.84 29.08,-252.61 21.98,-100.67 43.51,-201.39 66.27,-301.83z"/>
    <path class="fil0" d="M4914.82 3962.7c25.33,-13.14 54.02,-6.6 80.81,-3.19 40.49,5.54 78.74,22.82 112.24,45.92 42.06,36.91 81.59,80.53 98.43,135 6.71,19.57 -3.19,38.81 -8.62,57.32 -17.33,1.62 -33.61,10.35 -51.33,8 -2.8,-14.43 6.6,-26.62 12.02,-39.03 6.77,-13.48 5.87,-29.09 4.81,-43.63 -1.29,-18.79 -18.74,-29.58 -30.54,-42.11 -37.63,-32.99 -80.3,-60.06 -125.38,-81.65 -14.65,-7.1 -28.97,-15.66 -45.13,-18.68 -17.45,-1.17 -34.67,3.25 -52.18,2.74 1.62,-6.93 3.25,-13.87 4.87,-20.69z"/>
    <path class="fil0" d="M5399.91 4039.71c17.06,-28.3 41.66,-50.44 64.65,-73.71 17,34.79 37.8,68.06 51.34,104.41 -37.64,6.49 -74.33,17.62 -111.97,24.44 -9.17,2.35 -18.62,1.12 -27.68,-1.01 1.01,-20.24 13.7,-37.24 23.66,-54.13z"/>
    <path class="fil0" d="M4905.37 4021.42c13.98,-11.97 33.55,-20.02 51.67,-12.86 55.65,16.89 102.12,53.86 145.46,91.38 12.36,12.98 27.4,23.83 37.02,39.2 -0.72,11.69 -6.6,22.04 -10.57,32.89 -19.46,48.88 -24.27,101.73 -29.02,153.68 -3.86,53.3 -11.63,106.31 -20.92,158.88 -16.33,37.25 -37.47,72.31 -55.59,108.72 -14.59,26 -24.6,58.5 -53.8,72.03 -10.73,-15.1 -22.09,-32.72 -16.77,-52.07 1.45,-40.54 9.78,-80.75 8.22,-121.35 0.78,-16.61 -19.3,-22.54 -32.44,-18.35 -47.87,10.29 -86.4,43.12 -124.15,72.37 -46.2,39.76 -94.07,77.62 -138.7,119.18 -47.92,37.8 -89.36,85.95 -145.74,111.62 -16.94,9.85 -33.16,-3.18 -48.59,-9.39 1.39,-30.26 34,-40.72 51.39,-60.57 55.08,-51.56 103.35,-109.39 151.33,-167.38 10.74,-12.92 24.33,-25.67 28.52,-42.23 0,-11.29 -16.33,-5.31 -20.02,0.68 -26.45,27.4 -55.08,52.84 -78.18,83.21 -37.25,39.43 -76.06,77.35 -114.7,115.32 -29.98,24.1 -59.39,50.33 -95.02,65.88 -7.72,3.69 -16.27,2.01 -24.44,1.84 -7.21,-29.41 12.53,-57.26 30.87,-78.51 77.23,-81.1 157.99,-158.77 236.34,-238.8 6.32,-5.93 11.52,-12.92 7.1,-21.7 -10.45,0.5 -20.63,4.42 -28.52,11.35 -67.89,66.33 -133.71,134.83 -201.94,200.88 -21.25,15.61 -38.48,41.33 -67.22,42.34 -18.23,1.79 -27.97,-23.21 -14.32,-34.56 41.27,-40.72 80.87,-83.39 125.55,-120.41 40.32,-39.87 80.59,-79.86 120.74,-119.9 8,-9.4 19.74,-19.8 17.45,-33.33 -3.41,-0.06 -10.29,-0.17 -13.76,-0.23 -64.98,38.14 -129.35,77.46 -193.83,116.55 -14.04,9.34 -30.7,2.12 -46.03,1.4 4.31,-14.32 2.63,-32.5 15.44,-42.62 138.58,-112.69 288.07,-210.89 429.61,-319.72 41.33,-32.83 77.12,-71.64 117.56,-105.42z"/>
    <path class="fil0" d="M5280.57 4167.11c22.76,-25.45 42.39,-55.15 72.03,-73.27 -6.94,64.71 -31.1,125.78 -46.76,188.53 -33.05,115.82 -66.77,231.69 -90.26,349.92 -24.72,122.81 -61.74,245.51 -131.59,350.76 -42.45,64.26 -96.25,119.79 -148.82,175.71 -11.29,12.2 -23.43,30.82 -42.78,24.78 -5.54,-15.88 -6.37,-32.66 -7.72,-49.21 7.5,-135.79 12.31,-271.74 20.3,-407.53 1.63,-67.39 7.11,-134.55 7.27,-202 -1.45,-15.82 11.69,-25.72 25.79,-28.35 -7.05,35.34 -18.4,70.46 -16.61,106.93 1.84,22.87 4.53,46.08 13.03,67.61 3.63,14.48 20.19,19.85 33.22,22.26 19.85,3.18 34.67,-14.1 43.5,-29.59 20.7,-35.68 40.66,-71.8 59.68,-108.38 19.57,-33.95 39.76,-68.73 46.86,-107.77 9.4,-44.23 4.42,-89.7 9.62,-134.33 2.63,-27.01 -6.65,-64.93 22.26,-80.59 19.91,-5.59 45.07,-9.45 54.19,-31.03 29.02,-0.51 57.32,-12.75 76.79,-34.45z"/>
    <path class="fil0" d="M5483.85 4100.84c13.2,-2.24 27.35,-8.45 40.49,-2.86 9.17,5.43 15.44,14.32 20.64,23.49 57.49,98.26 113.02,197.92 177.56,291.87 66.44,96.25 150.05,181.37 249.59,243.44 23.1,16 51.17,25.34 70.24,46.81 15.61,15.21 20.58,37.19 28.08,56.93 23.21,68.96 47.37,137.64 71.92,206.14 11.68,28.69 24.38,60.35 11.68,91.11 -27.17,64.87 -51.11,131.08 -78.68,195.79 -3.64,12.13 -16.78,17.17 -28.13,19.18 -68.01,-0.39 -135.9,-13.7 -203.73,-5.42 -3.08,-8.62 -6.38,-17.17 -7.89,-26.12 -20.25,-107.38 -55.65,-211.23 -96.97,-312.17 -13.31,-32.44 -26.01,-65.49 -44.13,-95.52 -2.91,-0.34 -8.78,-1.01 -11.74,-1.35 3.97,29.03 14.93,56.43 21.64,84.9 11.58,36.46 19.63,74.32 36.69,108.88 12.19,24.95 9.62,55.59 -3.64,79.59 -22.65,44.57 -42.39,90.48 -64.98,135.05 -7.27,14.04 -24.11,19.24 -38.93,19.19 -80.19,0.5 -160.45,0.83 -240.7,1.23 -119.23,5.76 -238.74,0.28 -358.08,3.74 -37.42,1.01 -74.66,7.05 -112.19,4.48 -13.37,-0.39 -26.17,-9.62 -29.75,-22.49 -1.46,-13.81 4.81,-29.02 17.45,-35.56 33.78,-21.2 66.44,-44.18 95.96,-71.08 50.62,-52.24 91.11,-113.08 127.06,-176.06 55.15,-94.34 82.27,-201.27 107.66,-306.58 36.86,-155.75 76.28,-310.94 115.37,-466.13 5.26,-26.51 11.41,-58.94 38.54,-71.64 27.68,-13.64 59.61,-11.29 88.97,-18.84z"/>
    <path class="fil0" d="M5720.97 5200.54c16.56,-32.04 25.56,-70.13 53.58,-94.68 12.58,43.29 25.28,86.57 36.97,130.14 3.52,10.23 3.02,21.08 0.22,31.48 -19.24,4.03 -36.41,-10.29 -55.48,-6.54 -13.36,3.02 -25.67,9.17 -37.47,15.99 -5.48,-3.74 -11.02,-7.27 -16.61,-10.68 -4.19,-23.88 10.8,-44.4 18.79,-65.71z"/>
   </g>
  </g>
  <g>
   <g id="__x0023_fefefeff">
    <path class="fil0" d="M1103.99 3309.11c26.19,-3.45 52.4,-6.76 78.69,-10.63 -53.19,41.74 -21.21,119.76 -58.54,170.41 -28.08,30.18 -84.2,36.11 -112.34,2.98 -21.27,-50.67 20.69,-114.19 -23.33,-156.63 27.48,-0.08 54.92,-0.42 82.51,-0.78 -7.14,6.65 -21.3,19.93 -28.3,26.7 2.72,42.98 -20.27,99.59 16.23,132.83 18.15,-0.35 36.89,-2.92 52.79,-12.2 22.37,-40.11 19.71,-87.81 24.13,-132.18 -7.93,-5.12 -23.91,-15.37 -31.84,-20.5z"/>
    <path class="fil0" d="M1167.67 3375.44c17.06,-11.15 34.27,-22.18 51.48,-33.21 2.05,9.63 6.02,28.9 8.06,38.53 18.05,-16.1 35.84,-33.39 58.29,-43.33 4.1,7.26 12.42,21.65 16.51,28.78 22.81,-14.29 46.25,-27.7 70.34,-39.97 -0.72,34.3 -3.47,68.53 -6.76,102.68 8.31,-0.44 24.66,-1.28 32.85,-1.56 -20.47,14.72 -41.42,28.83 -62.83,42.3 1.76,-38.7 4.46,-77.38 6.08,-116.07 -38.06,23.37 -49.15,65.72 -54.13,107.18 -7.04,3.67 -21,10.87 -28.04,14.55 3.75,-38.91 7.5,-77.96 8.68,-117.02 -48.29,30.2 -38.62,95.38 -80.34,129.22 2.05,-35.77 5.73,-71.44 10.52,-106.82 -7.69,-1.38 -23.04,-4.01 -30.71,-5.26z"/>
   </g>
   <g id="__x0023_e1538dff">
   </g>
   <g id="__x0023_050302ff">
    <g>
     <path class="fil0" d="M3131.92 3232.63c44.33,-76.15 82.06,-173.59 169.37,-208.26 135.43,1.57 285.47,6.38 393.52,99.91 94.19,76.32 105.22,205.76 116.92,317.76 2.29,122.91 -19.8,251.24 -83.54,358.05 -80.83,131.02 -253.79,164.76 -396.1,140.31 -61.21,-8.38 -112.71,-44.82 -154.54,-88.16 -36.99,41.99 -67.08,90.97 -111.38,126.02 -55.5,36.18 -118.44,72.03 -187.11,64.4 -65.74,-1.19 -112.31,-51.59 -163.76,-84.8 -70.82,98.08 -143.78,200.29 -250.1,262.88 -49.88,25.1 -109.11,46.97 -164.12,25.17 -46.56,-12.82 -83.99,-44.62 -117.9,-77.57 -39.5,43.86 -76.24,105.77 -142.93,105.75 -60.1,-2.83 -119.18,-20.85 -180,-14.72 -46.52,4.96 -90.84,-11.05 -136.37,-16.29 -57.45,7.54 -111.21,32.9 -168.61,42.19 -18.98,-13.18 -36.97,-28.61 -58.37,-37.76 -54.9,7.41 -98.28,52.88 -155.07,54.83 -42.88,2.31 -73.87,-33.78 -112.75,-45.21 -26.72,6.19 -51.5,18.39 -76.7,29.02 -29.29,54.28 -52.94,112.31 -91.7,160.82 -15.82,22.21 -45.99,22.28 -69.19,31.36 -17.74,-18.29 -46.1,-32.27 -47.75,-60.67 -16.32,-127.15 -9.81,-257.69 -44.31,-382.07 -16.69,71.07 10.28,151.48 -34.67,214.75 -23.38,40.76 -72.42,87.47 -121.46,56.85 -72.09,-49.59 -92.68,-138.86 -116.76,-217.41 3.38,127.12 49.65,247.89 62.2,373.8 -18.38,23.41 -34.73,48.37 -48.79,74.58 -43.99,28.69 -91.32,9.61 -133.92,-10.61 -67.82,-32.64 -146.29,24.31 -211.53,-13.44 -46.27,-38.04 -12.89,-102.44 -7.39,-150.82 19.07,-146.22 95.14,-275.01 139.79,-413.44 24.88,-64.62 -30.66,-126.38 -15.76,-192.42 12.05,-55.51 36.34,-117.92 86.71,-148.86 59.1,-3.14 118.35,-7.49 175.73,-23.65 9.31,30.86 16.66,62.32 23.35,93.98 16.67,-32.4 30.7,-66.96 54.15,-95.06 28.09,-21.96 66.34,-20.83 98.75,-33.4 28.74,-7.61 54.48,-26.24 84.4,-28.85 77.92,59.24 90.84,164.64 130.67,248.33 22.16,78.2 71.57,143.28 131.16,197.1 17.2,-17.77 31.91,-37.58 45.31,-58.33 -24.86,-11.37 -57.15,-17.68 -68.26,-46.34 -15.71,-44.9 -25.31,-99.98 5.02,-141.3 48.04,-74.09 105.05,-148.69 186.85,-187.25 76.59,-30.09 154.19,13.96 231.15,19.54 -0.98,-21.73 -2.09,-43.45 -3.2,-65.16 10.9,-8.1 21.94,-16.22 32.99,-24.21 3.43,-14.09 6.86,-28.18 10.42,-42.28 69.87,-5.96 140.14,-11.84 210.33,-7.87 27.97,-0.53 51.93,15.25 75.6,28.22 3.17,80.92 -3.2,162 0.8,243.11 8.57,74.31 27.26,147.47 54.63,217.07 17.22,-16.29 25.8,-38.04 33.29,-59.95 21.85,0.22 43.65,1.26 65.49,0.13 2.6,-106.56 -26.93,-212.31 -18.02,-319.11 6.55,-77.99 66.06,-138.56 132.84,-172.38 63.01,-32.48 121.65,-85.69 196.49,-83.67 19.73,209 12.37,419.38 21.36,628.79 23.08,-5.02 46.13,-10.17 69.15,-15.73 28.2,-162.63 -66.04,-326.26 -8.96,-485.74 40.66,-108.52 164.64,-133.68 263.7,-161.32 12.38,10.47 24.89,20.93 37.39,31.39 33.77,-53.92 72.63,-113.49 139.6,-128.05 68.12,-27.35 132.66,22.19 200.78,21.65 7.46,24.58 14.29,49.49 21.11,74.4l0 0zm116.46 -143.78c-86.09,122.93 -112.74,278.27 -103.65,425.83 41.14,-10.21 81.63,-25.48 124.36,-28.04 31.57,16.49 50.71,50 60.91,83.05 -7.41,27.97 -34.63,42.7 -55.13,59.86 6.48,-19.92 13.4,-39.48 20.72,-59.08 -9.56,-13.32 -18.25,-27.4 -29.31,-39.49 -73.31,-2.84 -134.68,44.57 -180.16,97.26 -36.19,41.91 -89.85,78.98 -147.97,63.82 -26.36,-20.92 -17.48,-58.46 -22.06,-87.91 -23.76,3.61 -47.58,7.9 -71.63,8.57 -18.86,-74.89 21.85,-146.77 55.12,-211.02 5.7,-26.31 43.03,-16.86 46.89,5.38 12.8,44.11 16.79,90.33 27.09,135.09 56.02,-68.43 134.69,-135.37 131.56,-231.92 -3.08,-42.54 -0.04,-89.87 -20.34,-128.24 -67.73,-36.96 -163.95,-54.61 -225.1,4.37 -56.05,57.39 -93.65,130.84 -120.87,205.66 -25.21,66.54 -23.73,140.09 -52.58,205.38 -10.43,-45.97 -23.82,-95.95 -4.59,-141.68 24.45,-64.84 40.41,-132.47 50.47,-200.98 -61.03,13.29 -122.93,30.17 -175.92,64.48 -33.53,20.23 -38.87,62.13 -40.67,97.74 -7.13,132.35 43.78,261.82 24.04,394.76 1.59,63.84 -70.48,114.76 -129.89,96.1 -38.57,-13.76 -30.1,-60.7 -32.37,-92.54 3.2,-178.03 -4.1,-356.08 -12.62,-534.01 -72.14,32.74 -138.47,76.48 -205.55,118 -42.56,22.89 -33.52,77.76 -35.4,117.96 6.54,98.23 14.31,196.75 28.05,294.25 10.63,54.57 72.71,63.67 108.34,96.33 20.5,32.28 -17.1,57.63 -34.2,80.37 -1.79,-12.34 -5.49,-37.03 -7.29,-49.52 -56.39,-32.84 -115.9,-60.52 -177.84,-81.5 -7.12,33.6 -1.51,82.61 -44.59,92.21 -38.68,-37.46 -56.53,-90.23 -72.61,-140.21 -32.17,-118.55 -27.95,-242.39 -27.94,-363.92 -5.1,-2.45 -15.43,-7.34 -20.52,-9.78 -71.13,-5.23 -142.6,0.77 -213.77,3.22 6.85,63.85 17.06,127.76 13.33,192.27 -28.36,-24.76 -55.99,-54.18 -94.66,-60.92 -54.85,-12.12 -109.83,-28.27 -166.46,-27.41 -67.17,7.31 -114.3,62.32 -158.47,108 -42.28,41.72 -36.02,107.78 -8.54,155.8 48.66,-23.77 88.69,-61.08 136.07,-86.88 42.63,-22.21 117.76,-9.31 116.61,50.09 -71.8,1.44 -144.75,26.18 -191.27,83.28 -53.75,58.91 -58.05,141.8 -67.88,216.76 -29.06,-45.04 -55.14,-92.53 -92.73,-131.31 -123.65,-102.6 -113.68,-284.28 -214.34,-402.12 -42.2,31.88 -93.49,41.63 -143.87,52.37 -52.79,45.74 -28.61,137.21 -80.39,182.17 -40.11,-44.99 -39.64,-108.5 -51.61,-164.42 -48.99,19.22 -100.54,23.75 -152.49,17.67 -53.15,63.43 -16.69,148.4 -1.64,218.83 -18.31,127.15 -93.53,237.66 -124.97,361.42 -17.24,70.85 -31.71,142.51 -44.68,214.28 67.12,16.27 136.74,-10.83 203.08,9.7 31.4,8.15 60.72,23.66 92.71,29.59 22.51,-3.89 35.51,-29.99 28.63,-51.39 -14.9,-102.37 -45.02,-202 -59.92,-304.38 -8.51,-57.61 -13.79,-124.71 32.56,-168.73 79.03,71.53 70.39,191.63 142.99,266.23 27.68,31.43 88.13,12.26 89.58,-30.86 5.89,-81.84 2.33,-165.28 25.14,-245.05 5.83,-15.68 10.36,-42.95 33.62,-39.36 39.37,28.36 49.87,80.39 56.86,125.63 12.9,117.26 24.88,234.75 33.66,352.56 16.93,3.55 37.89,17.6 53.35,2.57 31.61,-40.51 46.85,-91.22 76.57,-133.15 29.27,-43.78 76.87,-76.74 129.86,-81.68 37,18.24 68.18,58.88 113.72,50.78 51.4,-10.03 95.83,-39.7 142.13,-62.83 25.87,17.33 50.2,50.18 85.24,40.99 40.57,-10.56 84.66,-16.89 119.81,-41.19 -22.73,-109.13 -28.31,-220.53 -28.19,-331.69 3.84,-0.66 11.4,-1.82 15.1,-2.47 24.63,53.16 37.7,110.59 55.82,166.02 -28.5,47.47 -46.75,113.58 -1.86,157.96 36.04,46.08 97.2,32.64 147.61,30.25 63.23,-5.03 126.77,30.6 188.56,7.4 54.58,-22.62 70.88,-84.08 101.11,-129.03 37.14,16.87 45.5,75.71 86.14,95.32 68.55,49.14 156.17,13.5 218.34,-28.61 109.16,-65.17 181.86,-176.65 220.38,-295.72 29.31,40.83 53.11,89.76 98.79,115.2 53.16,30.21 118.93,25.06 175.39,7.78 74.86,-25.87 121.06,-94.13 165.42,-155.32 10.6,-11.04 18.05,-29.44 35.49,-30.12 33.65,29.08 61.04,68.22 105.2,82.63 93.82,32.44 197.59,22.11 291.19,-6.32 57.72,-16.87 104.62,-60.81 127.63,-115.94 65.9,-153.5 69.48,-331.71 12.32,-488.43 -25.36,-71.14 -95.81,-111.06 -160.74,-140.35 -72.68,-32.69 -153.82,-21 -230.21,-35.66 -42.83,-11.85 -84.48,13.37 -108.07,47.94z"/>
    </g>
    <path class="fil0" d="M3478.59 3262.08c13.64,-14.31 42.31,-14.64 47.19,8.44 49.88,116.5 49.45,255.18 -2.06,370.99 -12.09,45.81 -83.66,42.93 -97.63,0.55 -17.21,-63.75 -10.54,-131.24 -3.34,-196.1 11.48,-62.6 20.2,-129.76 55.84,-183.88z"/>
    <path class="fil0" d="M1453.79 3910.85c49.11,-20.72 70.48,45.57 59.09,82.29 -11.2,45.18 -61.72,59.98 -101.19,70.69 -18.45,6.85 -41.97,-3.31 -43.03,-24.49 23.28,-45.73 50.58,-90.38 85.13,-128.49z"/>
   </g>
   <g id="__x0023_84c002ff">
   </g>
  </g>
  <g>
   <g id="__x0023_fefefeff_0">
   </g>
   <g id="__x0023_3437f7ff">
    <g>
     <path class="fil0" d="M3392.27 4181.15c15.89,-5.61 32.79,-8.35 49.57,-9.66 36.77,-0.7 76.26,-2.59 109.6,15.51 13.93,21.49 32.91,40.97 38.54,66.73 3.67,16.59 7.85,33.65 5.15,50.73 -3.24,19.38 -8.31,39 -19.5,55.43 -2.43,3.01 -4.79,6.02 -7.11,9.07 -3.35,4.13 -6.58,8.33 -9.87,12.53 -4.47,3.93 -8.92,7.92 -13.27,12.01 -5.16,3.09 -10.35,6.1 -15.47,9.19 -2.46,2.41 -4.92,4.79 -7.41,7.16 -1.12,-0.26 -3.43,-0.77 -4.55,-1.04l-0.04 4.65c-1.55,-0.44 -4.72,-1.3 -6.27,-1.71l-0.18 4.9c-1.61,-0.64 -4.82,-1.87 -6.43,-2.51l0.24 5.52c-1.7,-0.71 -5.13,-2.14 -6.83,-2.84l0.83 4.12c-7.76,0.84 -15.43,2.18 -23.16,2.92l0.77 3.33c-2.44,-0.29 -7.29,-0.84 -9.73,-1.1 2.97,1.26 6,2.48 9.06,3.71 6.97,15.73 17.93,30.03 19.6,47.7 6.29,22.93 -0.11,46.48 -7.72,68.19 -3.41,9.19 -10.92,15.92 -15.65,24.36 -3.93,3.16 -8.02,6.13 -12.14,9.07 12.2,8.91 23,20.27 29.17,34.21 6.85,19.49 7.78,40.5 6.82,60.98 -3.56,81.16 -6.71,162.31 -10.45,243.47 9.62,-15.63 23.79,-28.23 40.92,-35.05 -9.19,-11.54 -14.09,-25.74 -17.96,-39.76 -4.48,-19.68 -8.91,-39.7 -8.05,-60 -0.01,-28.76 8.12,-56.89 18.74,-83.38 23.64,-48.54 67.89,-86.99 119.4,-103.3 21.26,-5.32 42.89,-9.91 64.82,-11.21 32.77,-2.04 64.9,6.14 96.62,13.33 26.7,8.57 52.4,-14.29 79.35,-5.67 31.21,5.28 55.89,28.2 72.23,54.2 23.83,33.38 37.96,73.26 40.82,114.12 0.33,10.64 -2.96,20.93 -4.69,31.33 -3.06,9.96 -8.13,19.08 -13.75,27.8 -5.56,7.31 -12.81,13 -20.17,18.38 -4.22,1.02 -7.92,2.97 -9.58,7.2 -2.6,-0.2 -7.8,-0.55 -10.4,-0.72 3.41,2.66 6.93,5.48 9,9.46 12.39,20.71 28.87,39.64 34.61,63.64 3.65,16.4 7.95,32.96 7.95,49.87 -6.49,12.33 -8.1,26.5 -14.8,38.73 -6.2,11.33 -4.73,24.82 -9.04,36.8 -3.02,8.23 -4.02,16.99 -4.26,25.72 -3.81,5.37 -7.23,10.98 -10.51,16.65 -7.86,8.16 -14.69,17.27 -23.39,24.54 -6.22,2.88 -11.61,7.05 -15.99,12.33 -7.06,2.82 -13.25,7.3 -18.66,12.57 -5.19,2.23 -10.31,4.5 -15.5,6.7l0.31 1.68c-4.47,0.75 -8.74,2.18 -12.84,3.95 -5.32,2.39 -10.83,4.2 -16.51,5.4l0.69 2.42c-5.79,0.1 -11.49,0.39 -17.13,1.41 -4.45,1.2 -8.81,2.46 -13.17,3.72 -2.07,-0.18 -6.24,-0.48 -8.33,-0.67l0.76 3.43c-11.43,-1.05 -22.52,2.69 -33.9,1.99 -22.45,-0.66 -44.88,-2.4 -67.33,-2.85l0.06 -2.98c-5.09,-0.65 -10.19,-1.43 -15.14,-2.56 -7.01,-1.46 -14.05,-2.19 -21.12,-2.81 -34.58,-9.69 -71.9,1.14 -105.99,-11.27 -4.25,-1.22 -8.54,-2.37 -12.73,-3.52 -1.7,-3.75 -5.07,-5.75 -8.62,-7.38 -3.93,-3.65 -8.13,-7 -12.46,-10.14 -4.49,-5.28 -9.01,-10.5 -13.67,-15.6 0.02,-1.98 0,-5.94 -0.01,-7.93 -5.58,5.61 -11.13,11.26 -16.92,16.64 -5.52,1.9 -10.66,4.64 -13.16,10.22 -1.22,-0.33 -3.67,-1 -4.91,-1.34l-0.15 3.39c-4.35,1.14 -8.75,1.96 -13.05,3.16l0.41 3.79c-2.43,-0.48 -7.27,-1.41 -9.7,-1.86l0.44 3.7c-13.73,-0.86 -26.56,4.6 -39.65,7.69 -5.08,-0.18 -10.13,-0.34 -15.15,-0.52l1.19 3.64c-15.3,-1.62 -30.66,-1.77 -45.88,0.51 -25.19,-0.34 -50.41,-1.63 -75.55,-3.23 -10.24,-3.17 -22.51,-6.48 -32.49,-1.03l-2.02 -4.92c-10.99,-2.48 -22.32,-2.23 -33.49,-2.58l0.94 -3.61c-3.61,-0.12 -7.22,-0.24 -10.8,-0.39 -5.06,-4.3 -12.09,-3.06 -18.13,-3.72l0.97 -3.64c-4.47,0.19 -8.94,0.38 -13.39,0.6l1.01 -4.39c-2.56,0.27 -7.7,0.77 -10.26,1.01l0.93 -3.36c-3.64,-1 -7.24,-2.03 -10.81,-3.09l-1.98 -0.81 0.11 -3.99c-1.14,0.14 -3.35,0.4 -4.49,0.54 -3.69,-6.29 -9.58,-10.59 -15.71,-14.28 -6.24,-12.9 -15.55,-24.61 -17.19,-39.32 -8.26,-32.1 1.83,-70.05 29.9,-89.39 9.76,-7.88 23.77,-13.67 26.24,-27.43 6.69,-34.1 6.82,-69.08 6.3,-103.71 0.78,-19.17 -0.55,-38.33 -3.52,-57.25 -0.25,2.25 -0.82,6.72 -1.07,8.94l-4.43 -0.82c0.47,1.66 1.33,4.99 1.77,6.65l-3.2 -0.2c-2.87,4.75 -5.93,9.4 -9.05,13.98 -2.32,2.92 -4.58,5.84 -6.81,8.83 -8.67,12.46 -20.4,22.14 -32.97,30.44 -3.41,1.68 -6.63,3.65 -9.53,6.04 -4.71,2.92 -9.69,5.35 -14.66,7.71l0.29 1.96c-5.62,-0.17 -11.2,0.38 -15.78,3.89 -11.12,1.92 -22.47,2.79 -33.19,6.55 -20.01,0.6 -39.75,-1.74 -59.29,-5.62l1.37 -3.37c-4.57,0.19 -9.1,0.37 -13.64,0.59l1.15 -3.41c-5.31,-1.45 -10.59,-2.93 -15.84,-4.38l-0.03 -3.74c-1.5,0.41 -4.42,1.17 -5.91,1.54 -0.65,-3.32 -1.33,-6.62 -2.01,-9.92 -2.97,27.35 -3.92,54.97 -1.94,82.39 23.8,8.12 47.41,21.37 60.94,43.35 9.62,14.05 12.02,31.5 13.55,48.1 -0.56,16.13 -5.52,31.73 -11.12,46.77 -3.98,4.8 -7.5,9.96 -10.65,15.36 -3.3,2.97 -6.66,5.88 -10.02,8.81 -2.14,2.24 -4.25,4.51 -6.39,6.81 -1.47,0.72 -4.46,2.17 -5.96,2.89 -3.98,2.59 -7.99,5.19 -11.99,7.72l-0.16 1.44c-3.74,0.79 -7.45,1.58 -11.13,2.39 -13.42,3.59 -27.25,5.2 -40.75,8.46 -1.34,-0.21 -4.09,-0.61 -5.46,-0.82l0.39 4.13c-8.65,-0.68 -17.31,-1.11 -25.95,-1.73l1.03 3.82c-56.9,-2.78 -113.89,-4.97 -170.81,-7.26l1.35 -3.68c-7.5,-0.1 -14.98,-0.29 -22.46,-0.35l0.08 -3.99c-1.26,0.07 -3.78,0.19 -5.04,0.23 -5.99,-2.55 -12.41,-3.77 -18.85,-4.64 -4.19,-1.3 -8.41,-2.52 -12.61,-3.61 -2.93,-1.25 -5.84,-2.45 -8.74,-3.58 -3.6,-1.15 -7.23,-2.22 -10.87,-3.25 -0.04,-0.57 -0.15,-1.67 -0.19,-2.24 -4.68,-1.49 -9.3,-3 -13.95,-4.52 -2.83,-3.67 -5.53,-7.46 -8.36,-11.1 -3.13,3.29 -6.25,6.55 -9.4,9.78 -4.03,0.87 -7.84,2.34 -10.04,6.05 -4.95,1.21 -9.87,2.29 -14.82,3.4l0.61 2.85c-4.99,0.55 -10.89,-1.34 -14.92,2.67 -2,-0.24 -5.97,-0.72 -7.95,-0.93l1.01 3.66c-6.05,-0.23 -12.18,-0.33 -17.79,2.2 -3.92,-0.1 -7.88,-0.24 -11.8,-0.37l1.04 3.65c-14.81,-1.44 -29.73,-1.6 -44.47,0.58 -35.96,0.05 -71.81,-3.29 -107.74,-3.87l1.38 -3.65c-7.66,-0.07 -15.33,-0.27 -23,-0.25l0.97 -4.17c-1.39,0.07 -4.16,0.2 -5.52,0.3 -5.92,-2.61 -12.28,-3.79 -18.59,-4.75 -4.63,-1.42 -9.39,-2.44 -14.14,-3.17l1 -3.45c-2.47,0.24 -7.42,0.73 -9.88,0.97l0.51 -3.28c-7.45,-2.89 -14.42,-6.84 -20.88,-11.48 -2.65,-3.47 -5.37,-6.86 -7.99,-10.27 -5.86,4 -11.54,8.28 -16.69,13.19 -1.12,-0.27 -3.42,-0.87 -4.57,-1.17l0.08 4.78c-1.61,-0.44 -4.87,-1.37 -6.49,-1.84l0.07 5c-1.54,-0.6 -4.7,-1.77 -6.25,-2.37l-0.38 4.7c-2.41,-0.42 -7.21,-1.22 -9.61,-1.64l0.76 3.46c-4.79,0.36 -9.56,0.82 -14.3,1.53 -4.29,1.17 -8.59,2.38 -12.86,3.67 -4.89,-0.11 -9.76,-0.22 -14.63,-0.3l0.41 3.66c-5.6,-0.55 -11.17,-1.19 -16.77,-1.71l1.28 3.95c-44.42,-2.13 -88.85,-4.11 -133.29,-5.64l1.33 -3.78c-6.7,0 -13.39,-0.03 -20.09,0.03l1.38 -3.59c-5.02,-0.24 -10,-0.58 -14.99,-0.94 -5.19,-2.86 -11.08,-3.36 -16.84,-3.76l0.27 -2.73c-7.33,-2.1 -14.77,-3.8 -22.35,-4.4l0.93 -2.73c-5.44,-1.48 -10.81,-3.06 -16.21,-4.49l0.83 -3.45c-1.2,0.17 -3.63,0.54 -4.84,0.71 -2.26,-3.68 -5.58,-6.27 -9.36,-8.16 -13.58,-9 -20.88,-23.74 -28.78,-37.4 -2.71,-4.42 -2.26,-9.8 -3.06,-14.71 -0.83,3.39 -1.73,6.75 -2.6,10.17 -4.65,3.04 -9.25,6.24 -13.88,9.34 -2.22,1.92 -4.43,3.81 -6.68,5.69 -1.57,0.66 -4.71,2.04 -6.28,2.69 -2.25,1.98 -4.53,3.93 -6.84,5.84 -3.68,1.35 -7,3.38 -10.05,5.77 -4.49,1.95 -8.88,4.02 -12.69,7.1 -1.19,-0.18 -3.53,-0.59 -4.68,-0.8l-0.05 4.81c-1.63,-0.66 -4.91,-1.97 -6.55,-2.6l0.6 3.76c-7.76,1.97 -15.43,4.19 -23.06,6.45l0.59 2.28c-4.94,0.24 -9.84,0.78 -14.66,1.9 -5.38,1.44 -10.81,2.78 -16.16,4.35 -5.61,2.02 -11.6,1.58 -17.44,1.58l0.75 3.62c-4.5,-0.6 -9.03,-1.17 -13.53,-1.74l1.02 4.07c-11.12,-0.82 -22.59,-2.37 -33.45,1.01 -22.83,0.19 -45.58,-2.12 -68.43,-2.18l1.23 -3.84c-5.6,0.01 -11.17,0.22 -16.73,0.26l0.88 -3.79c-6.56,-0.15 -13.16,-0.28 -19.69,-0.33l1.33 -3.94c-1.98,-0.02 -5.94,-0.03 -7.89,-0.02 -8.66,-4.23 -17.9,-7.07 -27.57,-7.48l1.31 -2.68c-5.57,-1.3 -11.07,-2.86 -16.64,-4.16l1.03 -3.54c-2.46,0.18 -7.32,0.6 -9.78,0.78l0.39 -3.28c-5.76,-2.73 -11.55,-5.4 -17.28,-8.12 -4.81,-3.88 -9.88,-7.3 -14.98,-10.72 -2.85,-2.67 -6.05,-4.88 -9.6,-6.51 -2.86,-2.98 -5.55,-6.14 -8.35,-9.15 -0.92,0.12 -2.78,0.38 -3.7,0.53 -2.48,-5.35 -6.78,-9.02 -12.16,-11.29 -16.33,-18.8 -34.85,-35.89 -47.34,-57.7 -17.99,-27.35 -29.33,-58.7 -34.85,-90.87 -9.09,-42.4 -8.77,-87.05 3.25,-128.88 6.48,-25.41 14.99,-50.63 29.14,-72.89 18.94,-29.56 42.16,-56.87 70.76,-77.47 30.18,-22.49 63.45,-41.57 99.93,-51.63 49.22,-13.28 101.06,-19.55 151.74,-11.59 50.76,9 101.9,25.24 142.43,58.26 32.96,24.22 60.15,59.72 66.14,101.02 1.08,4.8 2.55,9.48 4.4,14.05 2.92,-40.83 3.53,-82.01 -0.62,-122.77 -1.76,-0.07 -5.31,-0.16 -7.06,-0.23 -2.57,-3.28 -5.55,-6.24 -9.48,-7.82 -2.11,-2.01 -4.23,-4.01 -6.31,-5.99 -19.08,-14.16 -25.95,-39.13 -27.22,-61.84 1.22,-26.64 12.8,-53.65 34.64,-69.82 29.29,-22.31 66.17,-29.83 101.14,-38.47 45.8,-9.88 91.91,-20.19 138.89,-22.13 25.23,-1.26 52.81,3.42 71.72,21.51 18.05,-26.83 44.61,-47.68 75.06,-58.68 15.13,-4.77 30.83,-7.4 46.52,-9.73 20.83,-3.45 41.47,2.86 61.17,8.97 11.91,3.68 22.67,10.23 32.6,17.69 14.52,-20.98 35.97,-35.97 59.12,-46.09 3.33,-14.04 7.59,-28.53 18.54,-38.6 19.44,-18.07 45.26,-26.6 69.68,-35.62 24.98,-8.72 55.59,-12.99 77.34,5.53 19.42,15.06 20.27,41.06 23.73,63.3 15.06,-11.24 30.63,-22.78 49.08,-27.81 25.12,-6.23 51.86,-11.89 77.21,-3.52 1.03,-27.34 15.79,-53.68 40.2,-66.67 8.4,-5.52 16.25,-12.07 25.6,-16.08 12.86,-6.05 27.37,-2.11 41.02,-2.25 22.73,0.55 45.03,8.38 62.45,23.16 12.18,12.87 12.94,31.45 14.97,48.06 31.85,-24.64 72.85,-35.57 112.68,-34.14 15.3,3.95 31.6,4.89 45.84,12.28 22.35,11.25 40.98,31.5 46.91,56.17 4.05,17.21 6.58,34.73 8.76,52.26 24.71,14.78 30.24,46.83 23.04,72.83 13.15,-1.74 26.15,-4.39 39.28,-6.48 -5.91,-3.77 -12.87,-7.74 -12.82,-15.66l-3.22 0.27c0.42,-1.61 1.18,-4.88 1.6,-6.53 -1.45,-0.06 -4.3,-0.21 -5.74,-0.27 -5.13,-24.52 -13.72,-48.83 -12.23,-74.26 2.98,-28.22 12.65,-56.1 31.27,-77.95l-7.1 0.65 -2.27 0.18c19.32,-13.92 41.5,-23.23 62.81,-33.71l0 0zm56.15 25.57c-38.39,4.13 -76.25,28.18 -89.82,65.32 -6.5,22.83 -5.46,48.68 6.29,69.7 11.15,20.27 32.55,33.72 55.04,37.75 38.5,6.03 79.97,-7.62 106.31,-36.58 11.98,-12.79 21.53,-28.98 22.35,-46.9 2.52,-23.81 -7.56,-47.84 -24.43,-64.46 -19.17,-20.08 -48.59,-28.3 -75.74,-24.83l0 0zm-461.24 2.06c-19.69,2.43 -39.76,9.44 -54.51,23.06 -9.98,8.53 -7.1,26.76 5.2,31.62 16.03,6.68 33.91,0.14 49.36,-5.49 13.04,-5.86 29.96,-15.01 28.88,-31.72 -0.76,-13.92 -17.35,-18.65 -28.93,-17.47l0 0zm101.9 65.38c-8.64,6.61 -16.6,15.7 -18.33,26.82 -1.85,11.74 9.5,23.63 21.55,20.31 17.42,-3.2 24.1,-21.27 32.85,-34.29 3.98,-7.06 13.18,-9.75 20.37,-6.02 9.84,9.78 10.87,24.82 11.79,37.93 -13.64,6.5 -29.41,5.7 -43.19,11.91 -19.83,7.46 -40.24,23.13 -42.23,45.71 -2.88,19.77 10.68,39.64 29.24,46.02 15.26,4.08 32.08,3.91 46.88,-1.97 10.91,-3.72 18.7,-12.54 28.11,-18.68 9.19,1.9 15.56,11.75 25.8,11.06 27.26,4.29 58.48,-20.41 54.45,-49.16 -6.16,-2.27 -15.19,-1.36 -17.86,-8.7 -9.99,-24.03 -7.02,-51.12 -15.16,-75.64 -7.14,-20.04 -28.96,-29.45 -48.63,-31.76 -30.58,-2.46 -61.15,8.51 -85.64,26.46l0 0zm-409.94 -22.12c-18.76,5.75 -37.11,13.08 -54.7,21.77 -8.05,3.93 -17.3,12.15 -13,22.11 5.05,7.6 15.92,7.09 23.58,10.87 3.07,7.8 3.94,16.1 2.52,24.37 -20.98,-5.57 -44.47,-9.05 -64.36,2.02 -43.14,20.43 -60.78,79.94 -35.55,120.48 14.96,25.28 41.89,46.88 72.82,43.88 18.71,-0.02 33.13,-12.55 46.08,-24.45 11.83,-4.81 6.28,16.55 17.31,14.31 18.79,-1.44 37,-7.49 54.25,-14.87 8.7,-4.31 20.56,-10.41 19.1,-22.01 -0.44,-12.81 -19.9,-12.69 -20.54,-25.79 -8.68,-54.87 -15.01,-110.15 -23.69,-165.01 -1.72,-11.39 -15.62,-9.84 -23.82,-7.68l0 0zm272.36 40c-6.82,3.77 -15.32,7.02 -18.26,14.94 -2.14,4.44 0.52,9.14 1.24,13.57 7.5,4.75 19.8,6.15 21.43,16.53 4.01,19.69 8.58,39.59 8.41,59.79 0.26,11.64 -10.41,18.11 -15.15,27.52 -1.02,9.2 6.96,17.52 15.96,17.97 18.74,2.17 37.64,-0.39 56.13,-3.44 12.9,-2.7 26.97,-5.21 37.07,-14.37 5.08,-4.25 5.4,-11.78 3.64,-17.7 -7.39,-7.45 -20.1,-10.91 -21.7,-22.8 -6.17,-35.43 -9.84,-71.26 -15.57,-106.77 -0.48,-5.74 -5.53,-10.35 -11.37,-8.27 -21.71,4.11 -42.03,13.46 -61.83,23.03l0 0zm-121.7 1.45c-40.34,6.88 -74.86,43.51 -75.01,85.12 -1.14,39.56 28.64,77.87 67.95,84.72 33.21,5.62 69.63,-5.32 92.6,-30.43 6.92,-6.82 11.76,-17.17 8.33,-26.84 -2.88,-5.4 -8.28,-12.26 -15.26,-9.92 -9.95,6.24 -18.79,14.61 -30.37,17.83 -19.14,7.39 -45.14,-2.7 -50.62,-23.33 1.55,-4.77 6.73,-4.68 10.79,-5.51 24.03,-3.36 48.14,-6.3 72.12,-10 7.11,-0.77 12.25,-7.21 12.95,-14.03 3.76,-22.1 -10.77,-42.7 -27.98,-54.93 -18.62,-13.9 -43.19,-16.35 -65.5,-12.68l0 0zm-418.34 58.5c-41.01,3.33 -82.11,29.97 -93.83,70.75 -5.95,25.39 -1.85,54.17 14.84,74.8 13.95,16.65 35.07,26.98 56.7,28.3 35.24,2.94 71.81,-10.07 96.22,-35.91 15.73,-15.18 25.48,-36.67 23.8,-58.78 -0.91,-48.44 -50.72,-86.44 -97.73,-79.16l0 0zm918.26 85.51c-29.61,3.06 -58.74,10.37 -86.45,21.21 -17.3,7.06 -34.75,16.73 -45.2,32.76 -12.62,19.04 -10.91,46.21 4.17,63.38 14.63,16.77 37.02,24.57 58.67,26.43 53.1,4.04 108.57,-3.2 155.54,-29.47 20.08,-11.07 35.43,-32.13 35.07,-55.69 1.27,-20.98 -14.51,-38.77 -32.61,-47.18 -27.64,-13.02 -59.26,-13.85 -89.19,-11.44l0 0zm-1121.81 -38.01c-44.35,2.84 -87.9,12.34 -131,22.81 -19.2,5.1 -38.56,10.31 -56.62,18.79 -11.96,5.72 -23.25,14.67 -28.18,27.38 -3.86,10.9 -3.96,24.35 4.44,33.22 11.4,15.73 35.92,18.74 41.92,38.71 6.2,28.86 3.46,58.67 4.49,87.97 -1.72,60.72 -3.73,121.49 -9.27,181.98 -1.81,27.17 -4.66,54.33 -9.9,81.08 -3.95,17.37 -7.97,35.87 -19.75,49.83 -10.14,10.1 -24.47,15.31 -33.11,27.05 -7.67,12.65 -6.03,30.54 4.36,41.26 11.5,12.78 28.24,18.92 44.32,23.72 33.36,9.33 68.15,11.68 102.56,14.08 31.37,0.79 63.18,1.32 94.05,-5.26 13.27,-3.12 26.84,-7.51 37.32,-16.59 11.08,-9.37 16,-26.07 10.03,-39.59 -7.5,-16.6 -25.85,-28 -26.78,-47.43 -2.61,-38.77 -1.78,-77.65 0.46,-116.46 1.95,-28.43 -0.46,-58.17 10.45,-85.15 14.9,-31.18 61.45,-31.88 84.43,-9.72 18.6,18.82 21.97,46.69 23.83,71.85 1.5,32.31 -0.69,64.69 -3.43,96.88 -3.01,22.1 -5.67,44.68 -14.49,65.36 -5.55,13.07 -17,22.14 -24.29,34.05 -6.74,12.2 -2.55,28.25 8.05,36.9 17.07,14.27 39.76,18.72 61.06,22.76 48.57,7.12 98.08,8.58 146.97,3.77 21.05,-2.89 43.84,-6.64 60.42,-21.05 12.82,-11.15 13.08,-32.83 0.55,-44.3 -13.96,-13.22 -31.55,-26.92 -31.37,-48.16 -0.18,-62.65 1.59,-125.25 2.85,-187.9 -0.51,-36.23 0.7,-75.12 -18.65,-107.34 -26.89,-45.05 -80.3,-68.59 -131.54,-68.43 -44.76,-3.62 -89.37,17.94 -116.9,52.89 -8.25,9.33 -16.43,23.57 -30.94,21.7 -11.63,0.14 -17.81,-12.07 -18.36,-22.21 -0.94,-25.16 3.35,-50.09 4.66,-75.15 2.39,-46.13 7.54,-92.05 9.68,-138.2 1.3,-10.6 -7.99,-19.26 -17.9,-20.56 -11.41,-1.45 -22.96,-1.13 -34.42,-0.54l0 0zm945.37 69.71c-4.39,0.35 -8.76,0.54 -12.77,2.29 -13.56,5.53 -28.27,1.95 -42.35,1.95 -5.22,-4.46 -20.57,-12.5 -20.16,0.25 -1.48,-0.6 -4.52,-1.76 -6,-2.36l0.47 5.33c-1.65,-0.54 -4.96,-1.69 -6.63,-2.26l0.37 4.54c-2.47,-0.23 -7.39,-0.69 -9.83,-0.92l-0.03 4.31c-1.73,-0.64 -5.19,-1.92 -6.93,-2.56l1.03 4.57c-6.79,0.09 -14.68,-2.76 -20.54,1.9 -3.83,0.03 -7.61,0.02 -11.38,0.02l-0.03 2.95c-6.78,-0.19 -13.98,-1.59 -20.19,1.79 -15.61,0.44 -31.19,-0.5 -46.71,-1.5l0.5 -2.75c-6.99,-1.33 -16.11,1.08 -20.59,-5.87 -0.25,1.31 -0.8,3.99 -1.04,5.3l-3.89 -1.8 1.35 4.46 -4.84 -1.37 0.98 4.16c-5.38,-0.48 -11.45,-1.14 -10.51,6.44 -1.49,-0.5 -4.5,-1.54 -6.01,-2.08l0.83 4.72 -4.83 -1.65 1.44 4.53c-4.38,-0.44 -8.76,-0.84 -13.08,-1.22l-0.16 4.49c-1.7,-0.67 -5.07,-1.97 -6.77,-2.64l0.89 4.91c-4.6,-0.61 -9.19,-1.15 -13.76,-1.68l1.1 4.38c-4.65,-0.67 -9.25,-1.3 -13.84,-1.94l1.2 4.42c-5.79,-0.71 -11.55,-1.27 -17.27,-1.92l1.58 4.18c-6.39,-0.58 -12.72,-1.01 -19.08,-1.53 -6.65,-4.71 -15.68,-2.26 -22.15,-7.47 -5.03,-2.95 -11.01,-2.92 -16.6,-3.03l0.97 -3.45c-2.39,0.06 -7.15,0.2 -9.54,0.29 -0.37,-1.62 -1.11,-4.89 -1.49,-6.51 -0.25,1.63 -0.83,4.87 -1.09,6.49l-3.33 -1.42 0.1 4.37 -4.52 -1.04 1.31 4.77c-1.67,-0.61 -5.01,-1.85 -6.69,-2.45l0.75 4.77 -4.53 -1.6 1.15 4.92 -4.9 -2.28 1.3 5.55c-1.76,-0.7 -5.31,-2.11 -7.11,-2.81l0.91 4.53c-5.21,-1.76 -8.9,-0.63 -11.05,3.37 -1.36,-0.44 -4.03,-1.34 -5.36,-1.77l0.38 4.32c-2.41,-0.19 -7.23,-0.58 -9.65,-0.78l-0.15 3.54c-2.34,-0.19 -7.05,-0.51 -9.4,-0.68l-0.05 2.67c-1.94,0.68 -5.86,1.96 -7.81,2.6 -17.54,0.95 -34.98,5.18 -52.57,1.2l0.25 4.41c-1.61,-0.48 -4.87,-1.46 -6.51,-1.97l0.29 4.28c-2.42,-0.19 -7.24,-0.62 -9.68,-0.81l0.05 3.2c-4.7,0.34 -10.85,-1.93 -14.22,2.61 -2.13,-0.25 -6.41,-0.74 -8.57,-0.99l0.58 4.01c-10.92,-1.21 -21.87,-1.61 -32.85,-1.42l1.37 -3.3c-7.69,-1.05 -14.91,-4.25 -22.76,-4.26l0.28 -3.01c-4.36,-0.12 -8.67,-0.21 -12.97,-0.27l1.55 -4.77c-1.87,0.55 -5.6,1.68 -7.45,2.23l1.49 -5.47 -3.88 1.97 -0.61 -4.26c-1.48,0.12 -4.38,0.38 -5.87,0.53l0.94 -4.42 -4.63 0.94 1.3 -3.97 -4.24 0.64c0.09,-1.29 0.23,-3.86 0.32,-5.15l-2.32 0.6 0.94 4.56 -4.94 -0.8c0.38,1.55 1.13,4.63 1.5,6.16 -5.3,-0.92 -7.91,1.27 -7.82,6.49l-3.26 -0.83 0.68 3.33c-4.94,-0.75 -7.29,1.35 -7.06,6.27 -3.37,0.96 -6.77,1.88 -10.14,2.78l1.4 3.17c-2.52,0.23 -7.51,0.75 -10.03,0.99 23.72,9.74 45.33,24.26 64.64,41.08 27.52,24.8 46.13,59.03 51.43,95.77 0.11,-12.22 4.46,-23.82 8.16,-35.29 14.96,-32.03 48.18,-49.83 80.06,-61.24 39.96,-13.62 81.57,-21.63 123.11,-28.71 36.53,-5.31 75.56,-9.03 110.28,6.24 11.66,5.99 19.64,16.48 26.47,27.33 13.42,-9.62 27.64,-18.79 43.9,-22.75 24.26,-5.83 49.75,-10.94 74.54,-4.96 14.58,3.95 29.62,7.13 43.23,13.9 22.15,12.19 41.46,29.82 53.84,52.03 11.94,-5.84 21.51,-18.08 35.74,-17.69 -4.85,-1.37 -9.7,-2.58 -14.69,-2.73l0.82 -3.89 -4.56 0.81 1.16 -4.42c-1.75,0.43 -5.24,1.29 -6.96,1.72l1.77 -5.2 -5.04 1.73 1.43 -4.81c-1.78,0.33 -5.39,0.94 -7.16,1.27l1.46 -4.91 -4.65 1.41c0.3,-1.78 0.92,-5.37 1.22,-7.15 -1.83,0.08 -5.45,0.28 -7.28,0.36 0.52,-1.74 1.48,-5.16 1.99,-6.9l-3.8 0.66c-0.73,-1.98 -2.14,-5.87 -2.87,-7.85l0.03 -2.17 -2.6 -0.24c-0.68,-1.91 -2.06,-5.71 -2.76,-7.63 -4.13,-12.4 -6.28,-25.34 -7.68,-38.29 -1.67,-14.06 4.23,-27.32 6.6,-40.93 0.28,-6.74 4.28,-12.17 7.97,-17.48 -1.08,0.9 -3.26,2.66 -4.33,3.52l0 0zm-852.49 62.46c-1.65,12.37 -2.34,24.88 -3.59,37.37 5.15,-3.68 11.21,-6.47 14.78,-11.94 1.52,-1.07 4.53,-3.24 6.06,-4.31l4.3 0.69c-2.49,-4.19 -5.93,-7.51 -11.37,-6.04l1.15 -4.11 -4.76 1 1.41 -4.34c-1.61,0.27 -4.81,0.83 -6.4,1.11 -0.49,-3.16 -1.02,-6.33 -1.58,-9.43l0 0zm1095.32 87.84c-62.18,6.17 -123.5,20.21 -182.82,39.67 -19.14,5.98 -39.76,20.22 -40.41,42.23 -1.91,16.92 10.64,31.53 24.92,38.74 12.32,5.99 25.07,15.14 27.86,29.44 1.47,15.74 1.49,31.58 1.52,47.36 -0.46,34.59 1.68,69.38 -3.32,103.74 -2,19.78 -5.44,40.23 -16.32,57.27 -9.85,15.18 -28.36,21.09 -39.87,34.62 -7.02,8.32 -6.98,20.14 -5.65,30.34 3.85,17.33 18.8,30.34 35.37,35.38 29.44,9.17 60.19,13.33 90.81,16.23 44.36,2.79 89.29,6.04 133.4,-1.56 18.12,-3.38 37,-8.37 51.32,-20.58 12.96,-10.61 18.54,-29.61 12.6,-45.36 -5.12,-11.88 -16.91,-18.44 -25.95,-26.94 -10.71,-9.19 -19.04,-21.83 -20.57,-36.1 -1.99,-17.75 -1.95,-35.66 -0.88,-53.47 3.67,-86.82 7.37,-173.6 11.01,-260.39 1.07,-11.23 -2.06,-24.91 -13.88,-29.22 -12.6,-3.89 -26.19,-2.11 -39.14,-1.4l0 0zm304.26 12.46c-27.85,1.71 -55.75,8.8 -79.64,23.6 -31.7,19.78 -57.73,50.3 -67.5,86.82 -11.94,40.61 -6.38,86.76 18.2,121.69 23.68,33.97 58.52,58.04 93.63,79.01 16.36,9.97 35.28,17.46 47.32,33.03 6.83,8.68 6.59,20.96 2.62,30.82 -6.11,11.56 -20.22,16.74 -32.75,15.68 -13.69,-0.33 -26.19,-7.36 -36.08,-16.36 -24.8,-22.3 -42.68,-51.34 -68.4,-72.67 -16,-13.38 -45.84,-10.21 -52.92,11.43 -9.54,26.47 -1.89,55.21 6.93,80.79 9.31,24.28 19.98,49.88 40.61,66.75 18.07,13.43 41.64,8.42 62.42,7.48 38.72,3.87 76.82,12.58 115.58,16.23 37.67,1.82 76.55,-4.05 109.81,-22.6 36.46,-20.18 68.52,-53.68 76.12,-95.89 7.74,-35.75 0.14,-75.39 -23.64,-103.78 -29.46,-34.94 -68.46,-60.25 -108.32,-81.8 -19.85,-10.75 -42.56,-19.91 -55.05,-39.8 -12.13,-20 7.95,-47.44 30.38,-44.82 19.79,1.59 34.38,17.17 47.91,30.18 16.53,15.63 31.15,34.98 52.78,43.82 18.73,7.3 42.41,3.36 55.44,-12.71 11.55,-12.87 11.43,-31.64 7.77,-47.54 -6.93,-30.22 -21.22,-58.73 -41.05,-82.52 -10.07,-11.74 -24.21,-22.83 -40.63,-21.08 -18.18,2.44 -35.45,13.31 -54.27,9.4 -35.34,-7.15 -70.79,-17.73 -107.27,-15.16l0 0zm-1987.67 -79.95c-72.47,2.69 -143.45,35.55 -191.67,89.87 -51.48,57.1 -66.04,141.23 -46.15,214.36 14.87,54.03 52.52,99.63 98.34,130.86 40.43,27.39 89.34,40.68 137.93,41.48 56.36,2.88 114.92,-10.48 161.08,-43.8 19.35,-14.39 36.87,-33.26 44.27,-56.62 7.08,-23.27 -3.37,-52.79 -26.73,-62.29 -16.76,-5.74 -32.11,5.05 -47.47,9.9 -40.32,13.29 -89.18,11.5 -123.32,-16.06 -34.01,-28.75 -54.68,-73.69 -51.12,-118.46 1.13,-25.25 12.91,-51.12 34.56,-65.17 20.33,-12.47 51.54,-9.36 65.4,11.44 16.55,24.21 13.42,58.02 34.89,79.43 16.86,17.62 42.86,21.08 66.06,18.76 24.91,-3.19 48.17,-17.33 62.46,-37.97 15.72,-23.13 18.19,-53.39 10.92,-79.94 -7.12,-25.42 -24.45,-46.8 -45.09,-62.7 -51.61,-40.81 -119.41,-57.22 -184.36,-53.09l0 0zm1122.05 50.26c-41.66,4.8 -82.79,14.13 -122.63,27.15 -19,6.96 -39.34,14.53 -52.68,30.49 -10.99,13.09 -12.97,34.6 -0.95,47.71 9.38,11.55 24.8,14.78 35.95,24.02 9.5,8.73 9.12,22.89 9.25,34.78 -1.92,49.11 -4.73,98.31 -11.69,147.01 -2.39,14.08 -4.33,30.28 -16.21,39.87 -12.26,9.63 -27.31,16.35 -36.15,29.77 -11.84,16.13 -10.11,40.69 4.49,54.54 14.08,13.98 34.15,18.79 52.78,23.63 44.13,9.57 89.46,11.74 134.52,12.73 33.65,-0.52 67.66,0.35 100.87,-6.23 19.97,-3.99 39.33,-17.85 45.08,-38.07 4.63,-14.36 0.92,-31.39 -10.5,-41.59 -12.87,-12.24 -30.86,-15.54 -46.25,-23.33 -10.12,-4.58 -13.55,-16.23 -15.01,-26.28 -4.18,-38.78 -1.17,-77.85 0.44,-116.66 1.31,-15.44 1.06,-31.79 7.79,-46.06 4.51,-10.06 18.91,-10.92 26.51,-4.03 15.35,13.03 27.73,29.52 45.03,40.28 18.14,11.95 40.9,12.54 61.89,11.23 57.26,-5.85 100.52,-63.99 96.11,-120.12 -3.41,-28.09 -15.05,-56.74 -37.74,-74.68 -24.72,-19.74 -59.02,-23.84 -89.2,-17 -30.8,7.21 -54.47,30.38 -72.31,55.34 -4.75,8.35 -18.39,11.92 -24.77,3.7 -9.25,-19.82 -1.22,-44.69 -13.67,-63.29 -21.68,-11.19 -47.53,-5.65 -70.95,-4.91l0 0zm-225.58 112.16c0.9,51.58 -1.06,103.14 -2.08,154.74 1.45,25.15 -2.2,50.39 -0.05,75.5 4.28,-0.2 6.95,-3.79 10.04,-6.18 8.17,-7.6 17.93,-13.13 26.89,-19.73 5.76,-34.55 7.62,-69.55 10.32,-104.42 2.15,-17.45 -0.32,-34.84 -0.21,-52.28 -1.62,0.37 -4.89,1.15 -6.54,1.52l0.63 -5.1c-1.75,0.46 -5.18,1.38 -6.9,1.84l1.44 -5.12 -4.81 1.46 1.15 -4.89c-1.78,0.46 -5.27,1.39 -7.02,1.85l1.79 -5.3 -5.04 1.8 1.46 -4.78c-1.74,0.24 -5.25,0.75 -6.99,0.99l1.1 -4.45 -4.43 0.76c0.39,-1.68 1.16,-5.02 1.54,-6.7l-4.65 0.78 1.98 -4.44 -4.88 0.77c0.42,-1.62 1.25,-4.85 1.66,-6.5l-3.43 0.2c-0.96,-4.13 -1.89,-8.25 -2.97,-12.32l0 0zm-883.12 9.33l-4.14 -0.93 0.93 4.78 -4.15 -1.34c0.26,1.33 0.74,3.99 0.97,5.32 -4.71,2.07 -3.34,7.63 -4.17,11.61 -0.87,11.5 -1.5,23.48 2.82,34.45 8.34,24.21 24.74,48.19 50.1,56.49 13.16,3.23 26.9,1.58 40.31,1.86l-0.46 -3.35c1.86,0.58 5.58,1.78 7.48,2.39l-1.18 -4.79c3.16,0.23 9.46,0.68 12.59,0.91 -6.8,-3.31 -14.43,-3.63 -21.88,-3.44l1.23 -3.19c-5.58,-1.18 -10.96,-3.16 -16.61,-4.06l1.09 -4.2c-1.79,0.52 -5.38,1.63 -7.17,2.15l1.71 -5.34 -5.16 1.61 1.53 -5.12c-1.81,0.55 -5.47,1.62 -7.29,2.17l1.97 -4.85 -4.68 0.71 0.91 -3.7 -3.85 0.37 0.2 -3.98 -3.57 1.04 1.06 -4.07 -4.12 0.74 1.24 -4.13 -3.88 1.06 0.9 -4.14 -3.52 -0.06c-1.02,-3.28 -2.05,-6.59 -3.01,-9.83l-2.66 0.57c-0.99,-3.43 -2.01,-6.87 -3.03,-10.28l-2.23 0.1c-1.09,-9.26 -5.07,-17.72 -7.78,-26.51 -1.15,-3.23 -2.3,-6.42 -3.55,-9.55 -0.14,-1.99 -0.41,-5.9 -0.58,-7.85l-3.85 -0.39c0.54,-1.61 1.58,-4.8 2.12,-6.41l-4.79 0.52 1.34 -5.76c-2.84,1.8 -3.91,4.61 -3.19,8.42l0 0zm258.73 25.05c-2.43,3.04 -3.55,6.61 -3.35,10.73l-3.26 -0.13c0.23,1.26 0.66,3.76 0.88,5.03l-3.14 2.23c-0.18,1.34 -0.52,4.03 -0.7,5.37l-4.09 -0.52c0.43,1.69 1.23,5.08 1.63,6.8l-5.01 -1.31 1.66 4.56 -4.23 -0.96 0.49 4.1 -4.12 -0.77c0.34,1.65 1.08,4.95 1.45,6.6l-4.46 -1.57 0.44 4.39 -4.07 -0.24 1.1 3.6 -3.89 -0.86 0.43 3.89 -3.82 -0.95 0.7 4.09 -4.24 -1.44 1.3 4.23 -4.53 -1.38 0.61 4.83 -4.6 -2.11 1.54 5.38c-1.74,-0.67 -5.23,-1.98 -6.99,-2.66l0.91 5.17 -4.85 -2 1.15 5.36c-1.7,-0.61 -5.1,-1.85 -6.81,-2.49l0.83 4.97 -4.91 -2 1.39 4.9c-2.34,-0.25 -6.97,-0.8 -9.28,-1.08 3.36,2.18 7.19,3.07 11.17,3.39 0.73,5.79 6.27,8.47 10.08,12.12 8.88,6.95 14.91,16.66 20.8,26.12 9.12,14.69 9.31,32.58 13.36,48.94 9.85,-12.03 11.4,-28 13.79,-42.76 5.12,-37.25 8.13,-74.81 10,-112.35 -1.69,-11.39 -0.51,-22.91 0.07,-34.32 -2.89,8.11 -4.26,16.6 -5.43,25.1l0 0zm305.39 11.09c-6.47,32.45 -5.08,65.73 -7.16,98.65 -1.95,24.56 0.31,49.17 0.12,73.77 3.84,3.43 5.63,12.31 11.92,10.81 6.75,-13.26 7.34,-28.48 9.71,-42.9 3.22,-33.15 5.76,-66.55 3.9,-99.85 -1.29,-7.41 0.36,-15.82 -4.02,-22.33 0.24,-1.28 0.73,-3.8 0.94,-5.08l-4.85 0.33c0.54,-1.74 1.66,-5.18 2.2,-6.89l-4.96 0.71c0.38,-1.59 1.15,-4.8 1.53,-6.38 -3.13,-0.29 -6.26,-0.58 -9.33,-0.84z"/>
    </g>
    <path class="fil0" d="M3424.59 4265.56c-1.25,-10.39 7.54,-17.75 16.9,-19.65 5.43,3.15 11.4,6.2 14.55,11.96 10.79,18.31 17.68,38.91 20.75,59.91 1.29,5.9 -1.67,11.3 -3.69,16.62 -8.61,3.88 -19.86,3.72 -25.03,-5.46 -11.18,-19.55 -20.43,-40.93 -23.48,-63.38z"/>
    <path class="fil0" d="M2823.76 4353.68c-9.63,-11.6 1.93,-32.89 17.2,-30.61 13.5,-0.4 20.24,14.94 16.58,26.48 -10.93,2.8 -22.49,6.4 -33.78,4.13z"/>
    <path class="fil0" d="M3146.15 4349.37c4.17,-4.16 10.28,-2.36 15.48,-1.96 3.13,10.07 5.43,21.17 1.94,31.42 -3.1,6.54 -11.64,7.71 -17.57,4.67 -10.09,-8.19 -10.83,-26.42 0.15,-34.13z"/>
    <path class="fil0" d="M2620.88 4359.4c6.92,-2.25 15.65,-0.5 19.48,6.2 6.8,10.98 8.19,24.17 9.86,36.69 1.17,14.57 4.18,30.54 -3.28,43.99 -5.82,9.03 -20.15,9.11 -26.88,1.03 -13.57,-15.03 -14.97,-36.93 -14.13,-56.2 0.5,-11.76 3,-26.27 14.95,-31.71z"/>
    <path class="fil0" d="M2396 4393.39c10.84,-3.5 19.36,5.88 23.55,14.7 9.32,18.94 17.41,39.46 17.99,60.77 0.53,12.65 -17.01,17.85 -25.27,9.52 -8.13,-8.48 -11.88,-19.99 -16.63,-30.47 -4.84,-13.19 -11.03,-26.74 -9.83,-41.09 0.29,-5.99 4.43,-11.69 10.19,-13.43z"/>
   </g>
   <g id="__x0023_ccff31ff">
   </g>
  </g>
 </g>
</svg>
