<?xml version="1.0" encoding="UTF-8"?>
<!DOCTYPE svg PUBLIC "-//W3C//DTD SVG 1.1//EN" "http://www.w3.org/Graphics/SVG/1.1/DTD/svg11.dtd">
<!-- Creator: CorelDRAW 2020 (64 Bit) -->
<svg xmlns="http://www.w3.org/2000/svg" xml:space="preserve" width="84.6666mm" height="53.34mm" version="1.1" style="shape-rendering:geometricPrecision; text-rendering:geometricPrecision; image-rendering:optimizeQuality; fill-rule:evenodd; clip-rule:evenodd"
viewBox="0 0 8466.66 5334"
 xmlns:xlink="http://www.w3.org/1999/xlink"
 xmlns:xodm="http://www.corel.com/coreldraw/odm/2003">
 <defs>
  <style type="text/css">
   <![CDATA[
    .fil0 {fill:#FEFEFE;fill-rule:nonzero}
   ]]>
  </style>
 </defs>
 <g id="Camada_x0020_1">
  <metadata id="CorelCorpID_0Corel-Layer"/>
  <path class="fil0" d="M3032.85 2393.51c10.93,0 20.73,-1.82 29.34,-5.46 8.61,-3.64 15.89,-8.75 21.84,-15.33 5.95,-6.59 10.51,-14.57 13.66,-23.88 3.15,-9.38 4.69,-19.88 4.69,-31.51l0 -181.76 56.5 0 0 181.9c0,18.07 -2.87,34.73 -8.68,50.06 -5.81,15.34 -14.22,28.57 -25.14,39.7 -10.92,11.14 -24.15,19.82 -39.7,26.05 -15.54,6.23 -33.04,9.38 -52.51,9.38 -19.46,0 -36.97,-3.15 -52.51,-9.38 -15.54,-6.23 -28.7,-14.91 -39.56,-26.05 -10.85,-11.13 -19.18,-24.36 -24.99,-39.7 -5.81,-15.33 -8.75,-31.99 -8.75,-50.06l0 -181.9 56.5 0 0 181.55c0,11.63 1.61,22.13 4.76,31.51 3.15,9.31 7.63,17.36 13.51,24.02 5.88,6.65 13.16,11.76 21.78,15.4 8.61,3.64 18.34,5.46 29.26,5.46z"/>
  <path id="1" class="fil0" d="M3400.1 2135.57c2.52,0 4.62,0.07 6.3,0.29 1.68,0.21 3.22,0.63 4.56,1.26 1.33,0.63 2.59,1.54 3.85,2.73 1.26,1.19 2.66,2.8 4.2,4.76l159.42 203.11c-0.56,-4.9 -0.91,-9.73 -1.12,-14.42 -0.21,-4.69 -0.35,-9.03 -0.35,-13.1l0 -184.63 49.78 0 0 303.73 -29.19 0c-4.49,0 -8.2,-0.7 -11.14,-2.1 -2.94,-1.4 -5.81,-3.92 -8.61,-7.56l-158.79 -202.28c0.42,4.49 0.77,8.9 0.98,13.31 0.21,4.41 0.28,8.47 0.28,12.11l0 186.52 -49.78 0 0 -303.73 29.61 0z"/>
  <polygon id="2" class="fil0" points="3898.63,2392.67 4020.24,2392.67 4020.24,2439.3 3842.13,2439.3 3842.13,2135.57 3898.63,2135.57 "/>
  <polygon id="3" class="fil0" points="4277.01,2439.3 4220.3,2439.3 4220.3,2135.57 4277.01,2135.57 "/>
  <path id="4" class="fil0" d="M4651.82 2313.27c2.38,4.48 4.62,9.1 6.65,13.94 2.03,4.83 3.99,9.73 5.95,14.63 1.96,-5.04 3.99,-10.01 6.09,-14.91 2.1,-4.91 4.34,-9.6 6.72,-14.08l89.9 -168.24c1.12,-2.1 2.31,-3.78 3.5,-5.04 1.19,-1.26 2.53,-2.17 4,-2.73 1.47,-0.56 3.08,-0.91 4.9,-1.06 1.82,-0.14 3.99,-0.21 6.51,-0.21l42.64 0 0 303.73 -49.78 0 0 -196.18c0,-3.64 0.14,-7.63 0.35,-11.97 0.21,-4.35 0.49,-8.76 0.91,-13.24l-91.79 172.24c-2.1,3.92 -4.83,6.93 -8.19,9.1 -3.37,2.17 -7.29,3.29 -11.77,3.29l-7.77 0c-4.48,0 -8.4,-1.12 -11.76,-3.29 -3.36,-2.17 -6.09,-5.18 -8.19,-9.1l-93.05 -172.87c0.56,4.62 0.98,9.1 1.19,13.52 0.21,4.41 0.28,8.54 0.28,12.32l0 196.18 -49.78 0 0 -303.73 42.64 0c2.52,0 4.69,0.07 6.51,0.21 1.82,0.15 3.5,0.5 4.97,1.06 1.47,0.56 2.8,1.47 4.06,2.73 1.26,1.26 2.45,2.94 3.57,5.04l90.74 168.66z"/>
  <polygon id="5" class="fil0" points="5107.7,2439.3 5050.99,2439.3 5050.99,2135.57 5107.7,2135.57 "/>
  <polygon id="6" class="fil0" points="5544.05,2135.15 5544.05,2181.78 5452.68,2181.78 5452.68,2439.09 5396.18,2439.09 5396.18,2181.78 5304.39,2181.78 5304.39,2135.15 "/>
  <polygon id="7" class="fil0" points="5925.58,2135.57 5925.58,2180.52 5790.94,2180.52 5790.94,2264.54 5897.01,2264.54 5897.01,2308.23 5790.94,2308.23 5790.94,2393.93 5925.58,2393.93 5925.58,2439.3 5734.02,2439.3 5734.02,2135.57 "/>
  <path id="8" class="fil0" d="M6398.26 2287.44c0,22.26 -3.71,42.71 -11.13,61.33 -7.42,18.62 -17.85,34.66 -31.29,48.1 -13.45,13.44 -29.62,23.88 -48.53,31.3 -18.9,7.42 -39.83,11.13 -62.8,11.13l-115.94 0 0 -303.73 115.94 0c22.97,0 43.9,3.72 62.8,11.21 18.91,7.49 35.08,17.92 48.53,31.29 13.44,13.38 23.87,29.41 31.29,48.03 7.42,18.63 11.13,39.07 11.13,61.34zm-57.76 0c0,-16.67 -2.24,-31.65 -6.72,-44.88 -4.48,-13.23 -10.85,-24.44 -19.11,-33.61 -8.27,-9.17 -18.28,-16.17 -30.11,-21.07 -11.83,-4.9 -25.21,-7.36 -40.05,-7.36l-59.02 0 0 213.83 59.02 0c14.84,0 28.22,-2.45 40.05,-7.35 11.83,-4.9 21.84,-11.97 30.11,-21.15 8.26,-9.17 14.63,-20.37 19.11,-33.6 4.48,-13.24 6.72,-28.15 6.72,-44.81z"/>
  <g id="_2718607361760">
   <g id="__x0023_ffffffff">
   </g>
   <g id="__x0023_000000ff">
   </g>
   <g id="__x0023_828287ff">
    <path class="fil0" d="M7918.86 2030.01c11.64,-14.39 39.4,-11.98 46.9,5.69 91.29,157.85 91.2,364.57 -2.24,521.47 -11.47,20.6 -47.76,18.27 -53.45,-5.35 -6.81,-18.88 8.28,-35.26 14.83,-51.81 66.29,-129.48 64.39,-290.77 -3.88,-419.05 -7.93,-15.69 -20.52,-37.15 -2.16,-50.95z"/>
    <path class="fil0" d="M7704.38 2143.46c16.12,-10.95 41.21,-13.71 51.9,6.12 56.55,89.31 53.19,210.95 -4.66,298.88 -12.76,14.65 -38.02,14.22 -48.36,-2.84 -12.33,-14.92 -1.12,-32.85 6.29,-46.9 29.57,-52.76 35.43,-118.36 14.57,-175.34 -8.36,-26.38 -31.38,-50.7 -19.74,-79.92z"/>
   </g>
   <g id="__x0023_818387ff">
    <path class="fil0" d="M7804.03 2111.74c-3.96,-28.97 38.02,-44.14 54.23,-20.95 74.65,122.93 75.08,288.36 -2.07,410.25 -17.84,24.57 -51.21,7.16 -56.72,-18.1 44.91,-77.58 66.98,-170.26 46.81,-258.96 -6.38,-40.09 -28.71,-74.66 -42.25,-112.24z"/>
   </g>
   <g id="__x0023_828387ff">
    <path class="fil0" d="M7602.23 2215.27c-0.69,-28.45 39.39,-41.12 55.17,-17.58 39.14,56.03 39.82,135.77 1.46,192.32 -6.29,10.35 -18.45,14.22 -28.1,20.17 -16.21,-6.38 -36.47,-19.13 -29.22,-39.82 11.12,-24.75 27.32,-48.97 25.17,-77.42 2.24,-28.62 -17.76,-51.38 -24.48,-77.67z"/>
   </g>
   <g id="__x0023_000102ff">
   </g>
   <g id="__x0023_010303ff">
   </g>
   <g id="__x0023_000002ff">
   </g>
   <g id="__x0023_a6a8acff">
   </g>
   <g id="__x0023_b1b2b6ff">
   </g>
   <g id="__x0023_d7d8daff">
   </g>
   <g id="__x0023_bebfc2ff">
   </g>
   <g id="__x0023_fafafaff">
   </g>
   <g id="__x0023_929497ff">
   </g>
   <g id="__x0023_9c9ea1ff">
   </g>
   <g id="__x0023_1f1f21ff">
   </g>
   <g id="__x0023_c9caccff">
   </g>
   <g id="__x0023_eaebecff">
   </g>
   <g id="__x0023_d8d9dbff">
   </g>
   <g id="__x0023_010103ff">
   </g>
   <g id="__x0023_e0e2e2ff">
   </g>
   <g id="__x0023_313133ff">
   </g>
   <g id="__x0023_ebecedff">
   </g>
   <g id="__x0023_adaeb2ff">
   </g>
   <g id="__x0023_bcbdc0ff">
   </g>
   <g id="__x0023_fbfbfcff">
   </g>
   <g id="__x0023_e5e6e8ff">
   </g>
   <g id="__x0023_cacbcdff">
   </g>
   <g id="__x0023_b3b3b6ff">
   </g>
   <g id="__x0023_2e2e30ff">
   </g>
   <g id="__x0023_c7c9caff">
   </g>
   <g id="__x0023_000001ff">
   </g>
   <g id="__x0023_000103ff">
   </g>
   <g id="__x0023_babbbfff">
   </g>
   <g id="__x0023_dedfe1ff">
   </g>
   <g id="__x0023_c5c6c8ff">
   </g>
   <g id="__x0023_a6a7abff">
   </g>
   <g id="__x0023_08080aff">
   </g>
   <g id="__x0023_444547ff">
   </g>
   <g id="__x0023_ebeceeff">
   </g>
   <g id="__x0023_dddee0ff">
   </g>
   <g id="__x0023_c1c2c5ff">
   </g>
   <g id="__x0023_d2d3d6ff">
   </g>
   <g id="__x0023_b5b6baff">
   </g>
   <g id="__x0023_7c7d82ff">
   </g>
   <g id="__x0023_797a7eff">
   </g>
   <g id="__x0023_f4f6f5ff">
   </g>
   <g id="__x0023_98999dff">
   </g>
   <g id="__x0023_999a9eff">
   </g>
   <g id="__x0023_8b8c90ff">
   </g>
   <g id="__x0023_9fa0a4ff">
   </g>
   <g id="__x0023_a5a6aaff">
   </g>
   <g id="__x0023_c4c5c7ff">
   </g>
   <g id="__x0023_c5c6c9ff">
   </g>
   <g id="__x0023_c8c9cdff">
   </g>
   <g id="__x0023_dfe0e2ff">
   </g>
   <g id="__x0023_f5f7f6ff">
   </g>
   <g id="__x0023_f6f8f7ff">
   </g>
   <g id="__x0023_f6f7f7ff">
   </g>
   <g id="__x0023_e2e3e5ff">
   </g>
   <g id="__x0023_bdbec2ff">
   </g>
   <g id="__x0023_e0e1e3ff">
   </g>
   <g id="__x0023_97989cff">
   </g>
   <g id="__x0023_818181ff">
   </g>
   <g id="__x0023_010101ff">
   </g>
   <g id="__x0023_000201ff">
   </g>
   <g id="__x0023_a0a1a5ff">
   </g>
   <g id="__x0023_7e8184ff">
   </g>
   <g id="__x0023_818085ff">
   </g>
   <g id="__x0023_76777bff">
   </g>
   <g id="__x0023_575757ff">
   </g>
  </g>
  <g id="_2718607361712">
   <g>
    <path class="fil0" d="M764.43 609.52c-18.05,-32.19 -16.62,-74.28 4,-104.95 2.67,10.18 5.84,20.31 11.19,29.44 24.61,42.68 49.37,85.29 73.99,127.97 8.11,14.21 12.7,30.3 13.62,46.62 32.53,9 64.69,21.74 91.5,42.67 17.83,13.96 33.51,32.26 39.38,54.55 5,18.3 1.85,38.28 -7.47,54.68 -12.85,23.02 -34.37,39.79 -57.03,52.49 -35.21,19.32 -74.66,29.85 -114.32,35.04 -54.46,6.64 -110.39,3.57 -163.31,-11.26 -33.29,-9.66 -66.05,-24 -92.18,-47.23 -18.24,-16.25 -32.94,-38.7 -33.45,-63.8 -0.81,-24.53 12.28,-47.28 29.55,-63.83 28.47,-27.19 65.85,-42.76 103.38,-52.83 0.39,10.75 0.9,21.6 4.06,31.98 3.81,14.68 12.22,27.45 19.64,40.47 21.13,36.74 42.3,73.46 63.42,110.2 5.56,9.49 9.28,19.92 11.92,30.56 20.74,-30.68 22.08,-72.89 3.98,-105.11 -16.71,-29.16 -33.68,-58.16 -50.49,-87.25 -6.28,-11.02 -13.34,-21.76 -17.34,-33.89 -10.17,-29.36 -6.25,-63.44 11.21,-89.25 2.51,10.7 6.21,21.17 11.85,30.66 24.71,42.62 49.3,85.32 73.85,128.04 9.75,17.67 22.02,34.53 25.72,54.8 21.11,-31.1 22.15,-74.08 3.34,-106.5 -19.93,-34.79 -40.14,-69.43 -60.01,-104.27z"/>
    <path class="fil0" d="M1163.47 626.51c38.33,-6.51 77.97,-2.14 114.88,9.49 0.11,15.13 -4.06,29.87 -8.08,44.32 -26.53,-8.47 -54.4,-13.87 -82.36,-12.25 -12.62,1.02 -25.96,3.89 -35.68,12.57 -13.28,12 -13.78,34.25 -3.34,48.21 9.28,12.19 23.58,18.98 37.21,25.19 29.25,12.74 60.74,23.42 84.12,46.08 24.77,23.34 29.05,62.89 15.41,93.1 -10.96,24.09 -35.41,38.96 -60.36,45.09 -20.74,5.36 -42.38,5.85 -63.66,4.72 -22.51,-1.17 -45.1,-5.04 -66.08,-13.51 -2.17,-1.07 -4.81,-1.66 -6.32,-3.68 0.43,-14.81 3.39,-29.55 8.28,-43.53 29.96,12.72 62.91,18.98 95.44,16.45 14.13,-1.49 29.36,-4.58 39.87,-14.9 10.15,-9.76 11.24,-25.63 7.09,-38.42 -3.85,-11.4 -13.71,-19.28 -23.71,-25.24 -30.08,-18.1 -65.69,-25.93 -93.48,-47.97 -15.12,-11.66 -26.17,-28.7 -29.49,-47.61 -3.98,-22.83 -1.14,-48.21 13.37,-67 13.57,-17.83 35.37,-27.21 56.89,-31.11z"/>
    <path class="fil0" d="M1827.87 633.85c15.75,-3.93 31.91,-7.34 48.25,-6.55 -0.16,27.77 -0.16,55.57 0,83.34 25.49,0.04 51,-0.05 76.51,0.04 -0.53,13.89 -2.15,27.72 -4.32,41.45 -24.06,0.21 -48.14,0.02 -72.19,0.1 -0.21,32.06 -0.02,64.13 -0.1,96.19 0.08,12.29 -1,25.55 5.42,36.61 4.69,8.56 14.19,13.32 23.62,14.43 15.61,1.81 31.36,-1.03 46.23,-5.77 -1,13.72 -3,27.36 -5.49,40.89 -20.4,7.6 -42.82,8.38 -64.12,4.75 -16.9,-3.05 -33.53,-11.87 -42.74,-26.79 -10.36,-16.15 -11.9,-36 -11.39,-54.68 0.22,-74.67 -0.42,-149.35 0.32,-224.01z"/>
    <g>
     <path class="fil0" d="M2621 633.9c15.36,-5.28 31.74,-6.98 47.93,-6.81 0,102.93 -0.04,205.86 0.04,308.81 -14.89,0.15 -29.78,0.43 -44.65,-0.17 -0.64,-9.08 -1.41,-18.13 -2.43,-27.17 -8.85,13.4 -21.38,24.92 -37.15,29.24 -32.89,9.12 -71.8,0.99 -94.88,-25.19 -21.45,-24 -28.32,-57.38 -28.17,-88.74 0.08,-30.26 6.98,-62.28 27.65,-85.43 19.09,-21.72 48,-31.99 76.19,-34.46 18.49,-1.94 37.13,-0.51 55.47,2.3 0.06,-24.13 0.04,-48.24 0,-72.38zm-54.83 112.06l0 0c-13.02,2.08 -25.79,7.67 -35,17.31 -11.32,11.53 -16.78,27.51 -18.83,43.26 -1.95,16.36 -1.64,33.18 2.26,49.23 3.66,15.7 12.57,31.02 27.06,38.93 17.91,9.62 40.02,8.98 58.74,2.02 7.21,-3.23 15.47,-6.3 20.45,-12.57 0.34,-44.59 0.25,-89.21 0.04,-133.82l-1.04 -1.34c-17.53,-3.85 -35.83,-5.64 -53.68,-3.02z"/>
    </g>
    <g>
     <path class="fil0" d="M1392.54 711.62c22.68,-8.15 47.16,-9.32 71.04,-8.19 22.69,0.91 45.33,4.63 66.8,12.14 0.21,73.59 -0.06,147.19 0.11,220.78 -14.75,0.02 -29.53,-0.05 -44.28,0.06 -1.19,-8.64 -1.83,-17.34 -2.61,-26.02 -9.24,12.47 -21.37,23.45 -36.71,27.51 -26.14,7.04 -55.71,3.55 -78.54,-11.44 -26.07,-17.05 -39.28,-47.98 -42.77,-78.04 -3.4,-31 -1.27,-63.98 13.64,-91.96 11.13,-21.12 30.87,-37.06 53.32,-44.84zm38.82 34.19l0 0c-15.7,2.15 -31.12,9.33 -41.19,21.8 -11.93,14.62 -16.17,33.9 -16.74,52.4 -0.49,18.24 1.38,37.26 10.06,53.62 6.35,12.15 17.62,21.72 30.87,25.49 22.86,6.53 48.68,1.31 67.34,-13.39 -0.19,-46.18 -0.06,-92.35 -0.06,-138.54 -16.62,-2.45 -33.6,-3.62 -50.28,-1.38z"/>
    </g>
    <path class="fil0" d="M1583.25 715.93c38.36,-9.61 78.36,-15.33 117.89,-11.01 22.01,2.63 45.37,9.21 60.48,26.46 14.04,15.91 17.62,38.02 17.38,58.57 -0.21,48.81 0.39,97.66 -0.3,146.48 -15.63,-0.3 -31.23,0.21 -46.84,-0.21l-1.28 -1c-0.3,-47.21 0.06,-94.44 -0.17,-141.65 -0.26,-11.45 -1.7,-23.83 -9.09,-33.08 -7.08,-8.81 -18.38,-12.6 -29.16,-14.26 -18.26,-2.74 -36.87,-1.23 -55.08,1.09 -1.94,0.48 -5.81,0.1 -5.18,3.25 -0.29,61.95 0.41,123.93 -0.36,185.86 -15.63,-0.29 -31.27,0.19 -46.89,-0.19l-1.17 -1.13c-0.38,-73.04 0.07,-146.12 -0.23,-219.18z"/>
    <g>
     <path class="fil0" d="M2028.99 714c30.38,-13.04 64.38,-12.51 96.69,-9.26 16.43,1.71 32.64,5.3 48.32,10.51 0.11,70.81 -0.08,141.63 0.09,212.46 -0.54,2.62 1.12,6.26 -1.28,8.19 -14.42,0.34 -28.85,0.15 -43.25,0.02 -0.9,-8.55 -1.79,-17.08 -2.66,-25.63 -9.13,11.76 -20.43,22.51 -35.06,26.78 -25.13,7.4 -53.58,4.6 -76.38,-8.51 -25.6,-14.78 -40.34,-43.02 -45.21,-71.42 -5.04,-30.57 -4,-63.08 7.91,-92.02 9.36,-22.87 28.02,-41.57 50.83,-51.12zm45.78 31.91l0 0c-15.64,2.21 -31.02,9.41 -41.02,21.89 -11.89,14.56 -16.15,33.75 -16.76,52.17 -0.43,17.77 1.28,36.25 9.38,52.34 6.26,12.7 17.74,22.87 31.43,26.78 22.97,6.62 48.78,1.32 67.72,-13.14 -0.11,-46.28 0.17,-92.59 -0.15,-138.85 -16.73,-2.29 -33.81,-3.59 -50.6,-1.19z"/>
    </g>
    <path class="fil0" d="M2300.42 703.92c25.25,-1.28 51.27,-0.49 75.34,8.02 17.16,5.99 32.55,18.4 39.59,35.44 9.32,21.11 6.89,44.64 7.23,67.08 -0.25,40.66 0.47,81.34 -0.36,121.99 -15.93,-0.15 -31.83,-0.19 -47.74,0.03 -1.19,-49.39 0.23,-98.85 -0.72,-148.25 -0.35,-14.64 -6.37,-30.79 -20.73,-36.94 -22.31,-9.5 -47.4,-6.65 -70.86,-4.17 -1.98,0.86 -6.92,-0.17 -6.34,3.17 -0.13,62.02 -0.09,124.04 -0.01,186.06 -16.17,0.08 -32.33,-0.13 -48.48,0.12 -1,-73.5 -0.04,-147.05 -0.49,-220.56 24.04,-6.42 48.78,-10.06 73.57,-11.99z"/>
    <g>
     <path class="fil0" d="M2752.24 720.19c22.51,-15.3 50.87,-18.96 77.47,-16.85 27.93,1.96 56.06,15.6 70.74,40.19 18.27,29.21 16.98,65.36 12.93,98.27 -51.61,0.13 -103.22,-0.15 -154.8,0.15 2.28,15.11 7.81,30.55 19.24,41.19 10.82,10.27 25.72,14.87 40.29,16.25 30.74,2.68 61.72,-3.72 89.95,-15.83 -1.63,14.68 -4.23,29.22 -7.19,43.68 -31.02,13.96 -66.19,16.66 -99.59,12.06 -28.08,-3.91 -55.93,-17.48 -71.99,-41.53 -19.34,-28.57 -22.39,-64.86 -19.15,-98.33 3.08,-30.36 15.93,-61.78 42.1,-79.25zm23.47 36.7l0 0c-11.98,11.36 -16.59,28.17 -18.15,44.12 36.53,0.05 73.08,0.11 109.63,-0.02 -0.36,-14.16 -3.14,-29.01 -12.33,-40.23 -8.79,-10.97 -22.94,-16.29 -36.68,-16.83 -15,-0.81 -31.24,2.32 -42.47,12.96z"/>
    </g>
    <path class="fil0" d="M2958.38 715.34c40.4,-11.77 83.08,-14.09 124.87,-10.4 0.27,13.91 -1.45,27.76 -3.96,41.42 -24.09,-1.89 -48.36,-2.55 -72.34,0.76 -0.66,63.09 0.02,126.21 -0.36,189.33 -16.11,-0.17 -32.23,-0.14 -48.34,-0.02 -0.06,-73.7 -0.3,-147.41 0.13,-221.09z"/>
   </g>
  </g>
  <path class="fil0" d="M7451.85 837.16c0,12.33 -1.35,23.36 -4.04,33.22 -2.64,9.85 -6.57,18.25 -11.79,25.14 -5.17,6.95 -11.58,12.28 -19.11,15.94 -7.54,3.72 -16.21,5.55 -25.96,5.55 -4.52,0 -8.72,-0.43 -12.54,-1.35 -3.83,-0.86 -7.6,-2.31 -11.26,-4.31 -3.66,-2.04 -7.32,-4.52 -11.04,-7.59 -3.66,-3.07 -7.53,-6.73 -11.63,-11.04l0 17.45c0,0.81 -0.21,1.56 -0.64,2.21 -0.43,0.64 -1.08,1.13 -2.05,1.5 -0.97,0.38 -2.15,0.65 -3.55,0.87 -1.46,0.21 -3.29,0.32 -5.49,0.32 -2.1,0 -3.94,-0.11 -5.39,-0.32 -1.51,-0.22 -2.69,-0.49 -3.66,-0.87 -0.92,-0.37 -1.56,-0.86 -1.89,-1.5 -0.32,-0.65 -0.48,-1.35 -0.48,-2.21l0 -210.7c0,-0.86 0.16,-1.61 0.54,-2.2 0.38,-0.65 1.08,-1.19 2.1,-1.62 0.97,-0.38 2.31,-0.7 4.04,-0.91 1.67,-0.22 3.77,-0.33 6.35,-0.33 2.64,0 4.79,0.11 6.46,0.33 1.73,0.21 3.02,0.53 3.99,0.91 0.97,0.43 1.61,0.97 2.04,1.62 0.43,0.59 0.65,1.34 0.65,2.2l0 84.86c4.2,-4.3 8.24,-7.97 12.22,-10.93 3.93,-2.9 7.76,-5.33 11.52,-7.16 3.83,-1.83 7.6,-3.18 11.37,-4.04 3.77,-0.8 7.75,-1.24 11.95,-1.24 10.28,0 19.06,2.05 26.38,6.14 7.27,4.1 13.2,9.64 17.77,16.48 4.58,6.89 7.92,14.97 10.02,24.23 2.1,9.26 3.12,19.06 3.12,29.35zm-27.14 3.01c0,-7.27 -0.54,-14.32 -1.67,-21.16 -1.07,-6.89 -3.01,-12.92 -5.76,-18.2 -2.74,-5.28 -6.35,-9.53 -10.87,-12.71 -4.53,-3.23 -10.18,-4.84 -16.91,-4.84 -3.34,0 -6.68,0.48 -9.96,1.4 -3.23,0.97 -6.57,2.58 -9.91,4.79 -3.39,2.21 -6.89,5.06 -10.5,8.56 -3.66,3.45 -7.54,7.86 -11.63,13.14l0 56.64c7.16,8.78 14,15.46 20.51,20.03 6.52,4.58 13.36,6.9 20.41,6.9 6.52,0 12.06,-1.57 16.69,-4.74 4.63,-3.18 8.4,-7.38 11.31,-12.6 2.91,-5.17 5.01,-11.04 6.3,-17.5 1.35,-6.52 1.99,-13.09 1.99,-19.71z"/>
  <path id="1" class="fil0" d="M7517.22 910.17c0,0.86 -0.22,1.56 -0.65,2.15 -0.43,0.54 -1.07,1.08 -2.04,1.51 -0.97,0.38 -2.26,0.7 -3.99,0.92 -1.67,0.21 -3.82,0.32 -6.46,0.32 -2.58,0 -4.68,-0.11 -6.35,-0.32 -1.73,-0.22 -3.07,-0.54 -4.04,-0.92 -1.02,-0.43 -1.72,-0.97 -2.1,-1.51 -0.38,-0.59 -0.54,-1.29 -0.54,-2.15l0 -210.7c0,-0.86 0.16,-1.61 0.54,-2.2 0.38,-0.65 1.08,-1.19 2.1,-1.62 0.97,-0.38 2.31,-0.7 4.04,-0.91 1.67,-0.22 3.77,-0.33 6.35,-0.33 2.64,0 4.79,0.11 6.46,0.33 1.73,0.21 3.02,0.53 3.99,0.91 0.97,0.43 1.61,0.97 2.04,1.62 0.43,0.59 0.65,1.34 0.65,2.2l0 210.7z"/>
  <path id="2" class="fil0" d="M7672.13 910.33c0,1.24 -0.43,2.21 -1.24,2.85 -0.86,0.65 -1.99,1.08 -3.5,1.4 -1.46,0.33 -3.61,0.49 -6.46,0.49 -2.7,0 -4.9,-0.16 -6.52,-0.49 -1.61,-0.32 -2.8,-0.75 -3.55,-1.4 -0.76,-0.64 -1.13,-1.56 -1.13,-2.85l0 -14.21c-6.2,6.62 -13.09,11.79 -20.73,15.45 -7.65,3.61 -15.73,5.44 -24.23,5.44 -7.49,0 -14.27,-0.97 -20.3,-2.91 -6.03,-1.94 -11.2,-4.79 -15.46,-8.45 -4.25,-3.67 -7.59,-8.24 -9.96,-13.57 -2.37,-5.39 -3.55,-11.47 -3.55,-18.31 0,-8.02 1.61,-14.97 4.9,-20.84 3.23,-5.92 7.91,-10.82 14.05,-14.7 6.09,-3.87 13.57,-6.84 22.4,-8.77 8.83,-1.94 18.79,-2.91 29.83,-2.91l19.6 0 0 -11.09c0,-5.44 -0.59,-10.29 -1.72,-14.54 -1.19,-4.2 -3.02,-7.7 -5.6,-10.5 -2.59,-2.8 -5.93,-4.9 -10.02,-6.3 -4.09,-1.46 -9.15,-2.16 -15.13,-2.16 -6.41,0 -12.17,0.76 -17.23,2.32 -5.11,1.56 -9.58,3.23 -13.41,5.11 -3.82,1.89 -7.05,3.56 -9.63,5.12 -2.53,1.56 -4.47,2.32 -5.71,2.32 -0.86,0 -1.62,-0.22 -2.21,-0.65 -0.65,-0.38 -1.18,-1.02 -1.67,-1.89 -0.48,-0.8 -0.81,-1.88 -1.02,-3.17 -0.22,-1.35 -0.32,-2.75 -0.32,-4.36 0,-2.59 0.16,-4.69 0.53,-6.2 0.38,-1.5 1.3,-2.96 2.7,-4.3 1.4,-1.35 3.87,-2.96 7.32,-4.85 3.45,-1.83 7.48,-3.55 12.01,-5.11 4.47,-1.51 9.42,-2.8 14.8,-3.83 5.33,-1.02 10.77,-1.51 16.21,-1.51 10.18,0 18.85,1.14 26.01,3.45 7.16,2.32 12.92,5.76 17.34,10.23 4.41,4.47 7.59,10.02 9.58,16.64 1.99,6.62 3.02,14.38 3.02,23.21l0 95.84zm-25.85 -65.04l-22.24 0c-7.1,0 -13.3,0.59 -18.57,1.83 -5.23,1.18 -9.59,3.01 -13.09,5.38 -3.44,2.37 -5.97,5.17 -7.64,8.51 -1.62,3.34 -2.43,7.16 -2.43,11.47 0,7.37 2.32,13.24 7,17.61 4.69,4.36 11.2,6.56 19.66,6.56 6.78,0 13.13,-1.72 18.95,-5.22 5.81,-3.44 11.95,-8.78 18.36,-15.94l0 -30.2z"/>
  <path id="3" class="fil0" d="M7822.03 888.31c0,1.78 -0.05,3.34 -0.16,4.63 -0.11,1.35 -0.27,2.42 -0.54,3.34 -0.27,0.91 -0.59,1.67 -0.97,2.37 -0.38,0.7 -1.18,1.72 -2.53,3.01 -1.29,1.35 -3.55,2.96 -6.68,4.96 -3.17,1.93 -6.73,3.71 -10.66,5.22 -3.98,1.56 -8.24,2.8 -12.87,3.71 -4.63,0.97 -9.42,1.46 -14.37,1.46 -10.23,0 -19.28,-1.67 -27.14,-5.06 -7.92,-3.34 -14.54,-8.24 -19.82,-14.7 -5.33,-6.46 -9.37,-14.43 -12.17,-23.8 -2.79,-9.43 -4.19,-20.25 -4.19,-32.58 0,-13.95 1.72,-25.95 5.11,-36.02 3.45,-10.02 8.13,-18.25 14.05,-24.66 5.98,-6.41 12.98,-11.15 21,-14.27 8.08,-3.07 16.8,-4.63 26.17,-4.63 4.53,0 8.89,0.43 13.14,1.29 4.31,0.81 8.18,1.94 11.79,3.28 3.56,1.4 6.79,2.97 9.53,4.8 2.8,1.77 4.85,3.34 6.09,4.57 1.29,1.3 2.15,2.32 2.64,3.02 0.43,0.75 0.86,1.61 1.18,2.64 0.27,0.97 0.49,2.1 0.59,3.39 0.11,1.24 0.16,2.85 0.16,4.74 0,4.09 -0.48,6.94 -1.4,8.61 -0.96,1.62 -2.1,2.43 -3.5,2.43 -1.56,0 -3.39,-0.87 -5.43,-2.64 -2.05,-1.73 -4.63,-3.66 -7.81,-5.76 -3.18,-2.1 -7,-4.04 -11.47,-5.76 -4.47,-1.78 -9.75,-2.64 -15.83,-2.64 -12.55,0 -22.19,4.79 -28.86,14.43 -6.68,9.58 -10.02,23.53 -10.02,41.78 0,9.1 0.86,17.12 2.59,24.02 1.77,6.83 4.31,12.6 7.7,17.23 3.34,4.57 7.48,8.02 12.38,10.28 4.9,2.26 10.5,3.39 16.8,3.39 6.03,0 11.31,-0.97 15.83,-2.85 4.52,-1.89 8.4,-3.99 11.74,-6.3 3.34,-2.26 6.14,-4.31 8.4,-6.14 2.26,-1.88 3.98,-2.8 5.28,-2.8 0.7,0 1.34,0.22 1.88,0.65 0.54,0.43 0.97,1.13 1.35,2.1 0.37,1.02 0.64,2.26 0.8,3.82 0.17,1.51 0.22,3.34 0.22,5.44z"/>
  <path id="4" class="fil0" d="M7973.17 910.01c0,0.86 -0.22,1.61 -0.65,2.21 -0.43,0.64 -1.13,1.18 -2.1,1.61 -1.02,0.38 -2.42,0.7 -4.2,0.92 -1.77,0.21 -4.04,0.32 -6.78,0.32 -2.8,0 -5.17,-0.05 -7,-0.22 -1.83,-0.16 -3.39,-0.43 -4.63,-0.8 -1.29,-0.38 -2.32,-0.92 -3.07,-1.57 -0.81,-0.7 -1.51,-1.5 -2.16,-2.47l-59.87 -78.62 0 78.78c0,0.86 -0.22,1.56 -0.65,2.15 -0.43,0.54 -1.07,1.08 -2.04,1.51 -0.97,0.38 -2.26,0.7 -3.99,0.92 -1.67,0.21 -3.82,0.32 -6.46,0.32 -2.58,0 -4.68,-0.11 -6.35,-0.32 -1.73,-0.22 -3.07,-0.54 -4.04,-0.92 -1.02,-0.43 -1.72,-0.97 -2.1,-1.51 -0.38,-0.59 -0.54,-1.29 -0.54,-2.15l0 -210.7c0,-0.86 0.16,-1.61 0.54,-2.2 0.38,-0.65 1.08,-1.19 2.1,-1.62 0.97,-0.38 2.31,-0.7 4.04,-0.91 1.67,-0.22 3.77,-0.33 6.35,-0.33 2.64,0 4.79,0.11 6.46,0.33 1.73,0.21 3.02,0.53 3.99,0.91 0.97,0.43 1.61,0.97 2.04,1.62 0.43,0.59 0.65,1.34 0.65,2.2l0 128.32 53.47 -59.02c0.86,-1.07 1.77,-1.94 2.69,-2.64 0.97,-0.64 2.1,-1.23 3.39,-1.72 1.29,-0.48 2.86,-0.81 4.63,-0.97 1.78,-0.16 3.93,-0.21 6.46,-0.21 2.64,0 4.85,0.05 6.63,0.21 1.77,0.16 3.23,0.43 4.3,0.81 1.08,0.38 1.89,0.86 2.37,1.4 0.49,0.59 0.7,1.35 0.7,2.31 0,1.24 -0.32,2.54 -1.02,3.77 -0.7,1.3 -1.78,2.75 -3.39,4.42l-51.15 51.47 57.61 74.96c1.35,1.83 2.31,3.23 2.91,4.36 0.59,1.13 0.86,2.15 0.86,3.07z"/>
 </g>
</svg>
