<?xml version="1.0" encoding="UTF-8"?>
<!DOCTYPE svg PUBLIC "-//W3C//DTD SVG 1.1//EN" "http://www.w3.org/Graphics/SVG/1.1/DTD/svg11.dtd">
<!-- Creator: CorelDRAW 2020 (64 Bit) -->
<svg xmlns="http://www.w3.org/2000/svg" xml:space="preserve" width="85mm" height="54mm" version="1.1" style="shape-rendering:geometricPrecision; text-rendering:geometricPrecision; image-rendering:optimizeQuality; fill-rule:evenodd; clip-rule:evenodd"
viewBox="0 0 8500 5400"
 xmlns:xlink="http://www.w3.org/1999/xlink"
 xmlns:xodm="http://www.corel.com/coreldraw/odm/2003">
 <defs>
  <style type="text/css">
   <![CDATA[
    .fil0 {fill:#FEFEFE;fill-rule:nonzero}
   ]]>
  </style>
 </defs>
 <g id="Camada_x0020_1">
  <metadata id="CorelCorpID_0Corel-Layer"/>
  <g id="_1926325784608">
   <g id="_23000000fe">
    <path class="fil0" d="M1442.74 469.39c47.47,-27.69 103.31,-50.74 159.03,-36.46 51.39,10.34 89.29,57.41 94.99,108.48 6.35,34.04 -6.74,68.67 -28.02,95.06 -25.07,33.06 -60.82,54.99 -92.31,81.18 42.82,-2.03 83.6,-16.83 124.06,-29.72 40.92,-14.73 83.21,-28.35 118.89,-53.88 -0.46,74.04 -0.59,148.02 0.07,222.06 -36.01,-25.66 -78.56,-39.34 -119.74,-54.14 -40.2,-12.83 -80.66,-27.36 -123.21,-29.39 43.07,38.49 97.22,71.55 117.51,128.71 12.11,45.11 -4.06,96.76 -38.3,128.38 -40,35.75 -100.49,39.15 -149.27,21.28 -56.3,-20.75 -106.19,-55.19 -154.5,-90.02 -71.23,-51.98 -137.81,-109.86 -207.21,-164.06 -25.6,-19.58 -51.39,-39.55 -81.38,-51.92 29.59,-11.52 54.8,-31.36 79.81,-50.41 98.66,-76.47 191.3,-161.9 299.58,-225.15z"/>
    <g>
     <path class="fil0" d="M392.24 710.64c200.26,-81.7 400.4,-163.86 600.6,-245.63 0,30.11 0.07,60.29 0,90.41 -60.75,23.57 -121.77,46.61 -182.39,70.7 0.78,83.41 0.19,166.88 0.33,250.35 60.69,22.07 121.37,44 182.06,66 0.07,28.08 0.07,56.17 0,84.32 -200.2,-76.92 -400.47,-153.72 -600.67,-230.71 0.07,-28.48 0,-56.96 0.07,-85.44l0 0zm63.37 44.78c100.49,20.82 194.24,63.97 290.48,98.27 0.07,-67.89 0.13,-135.71 0,-203.54 -96.69,35.42 -191.95,75.16 -290.48,105.27z"/>
    </g>
   </g>
   <g id="_23ffffffff">
   </g>
  </g>
  <g id="_1797899199648">
   <g id="_23000000fe_0">
    <path class="fil0" d="M7111.89 4971.98c-47.47,27.69 -103.31,50.73 -159.03,36.46 -51.39,-10.34 -89.3,-57.41 -94.99,-108.48 -6.35,-34.04 6.74,-68.67 28.02,-95.06 25.07,-33.06 60.82,-54.99 92.31,-81.18 -42.82,2.03 -83.6,16.83 -124.06,29.72 -40.92,14.73 -83.21,28.35 -118.89,53.88 0.45,-74.04 0.58,-148.02 -0.07,-222.07 36.01,25.67 78.56,39.35 119.74,54.15 40.2,12.83 80.66,27.36 123.21,29.39 -43.08,-38.49 -97.22,-71.55 -117.51,-128.71 -12.11,-45.11 4.06,-96.76 38.3,-128.38 40,-35.75 100.49,-39.15 149.26,-21.28 56.31,20.75 106.19,55.19 154.51,90.02 71.23,51.98 137.81,109.86 207.21,164.06 25.6,19.58 51.39,39.55 81.37,51.92 -29.59,11.52 -54.79,31.36 -79.8,50.41 -98.66,76.47 -191.3,161.9 -299.58,225.15z"/>
    <g>
     <path class="fil0" d="M8162.39 4730.73c-200.27,81.7 -400.4,163.86 -600.61,245.63 0,-30.11 -0.06,-60.29 0,-90.41 60.76,-23.57 121.78,-46.61 182.4,-70.7 -0.79,-83.41 -0.2,-166.88 -0.33,-250.36 -60.69,-22.06 -121.38,-43.99 -182.07,-65.99 -0.06,-28.08 -0.06,-56.17 0,-84.32 200.21,76.92 400.48,153.72 600.68,230.71 -0.07,28.48 0,56.96 -0.07,85.44l0 0zm-63.37 -44.79c-100.49,-20.81 -194.25,-63.96 -290.49,-98.26 -0.06,67.89 -0.13,135.71 0,203.54 96.7,-35.42 191.96,-75.16 290.49,-105.28z"/>
    </g>
   </g>
   <g id="_23ffffffff_1">
   </g>
  </g>
  <g id="_1797899199600">
   <g>
    <g id="_1928267762976">
     <path class="fil0" d="M4296.02 1270.89c155.64,-80.84 324.96,-145.59 502.5,-148.29 148.73,-4.29 302.7,24.23 428.21,107.62 103.25,68.76 194.21,159.06 254.02,268.49 28.23,51.67 53.48,106.53 61.05,165.47 14.48,98.59 21.97,199.59 4.66,298.33 -20.6,119.62 -75.53,230 -138.69,332.45 -41.19,62.36 -86.37,123.62 -143.64,172.23 -13.67,12.73 -36.81,19.43 -40.82,39.58 7.5,22.85 36.46,26.78 56.03,35.29 101.72,35.8 209.78,5.02 309.03,-24.01 176.52,-55.73 346.86,-135.27 497.11,-244.05 57.7,-40.53 105.15,-92.84 151.35,-145.59 0.29,209.04 0.07,418.16 0,627.29 -0.8,146.18 0.95,292.43 -4.37,438.54 -29.97,-26.92 -50.78,-62.14 -80.03,-89.72 -85.79,-84.4 -193.77,-141.16 -301.24,-192.97 -105.15,-48.31 -210.94,-98.59 -324.75,-123.04 -77.49,-16.81 -157.67,-32.74 -237.06,-21.1 -29.54,3.42 -54.64,19.94 -76.47,39.15 37.55,37.83 78.36,72.4 113.8,112.34 86.52,96.49 148.73,213.05 189.47,335.66 22.12,66.43 31.51,136.5 33.4,206.35 1.39,68.04 5.1,137.89 -16.37,203.52 -37.98,139.13 -120.28,265.37 -232.4,356.03 -77.35,63.02 -167.43,110.02 -262.24,140.58 -87.1,26.2 -179.07,24.74 -269.01,25.32 -72.25,1.24 -142.32,-18.7 -211.15,-38.13 -120.06,-35.94 -236.34,-84.47 -347.3,-142.61 -97.07,-50.43 -186.13,-114.53 -274.1,-179.14 -233.72,-173.25 -455.86,-361.42 -675.32,-552.28 -159.49,-138.61 -328.66,-265.73 -503.88,-383.68 -98.37,-65.92 -196.6,-133.81 -304.8,-182.77 -45.63,-21.47 -95.54,-31 -141.53,-51.45 59.52,-27.94 124.21,-43.15 183.44,-72.11 202.79,-94.59 385.06,-227.02 559.62,-365.7 176.23,-143.42 346.21,-294.18 520.18,-440.29 225.35,-188.97 457.39,-374.37 721.3,-507.31zm220.47 30.71l0 0c-165.75,56.68 -322.56,139.12 -464.23,242.15 -185.61,134.03 -349.99,294.26 -514.87,452.3 -146.18,138.25 -292.07,277.59 -451.63,400.49 -157.25,120.42 -337.41,214.14 -530.38,261.14 25.62,20.01 59.52,24.38 89.29,35.73 139.19,43.22 267.33,115.84 385.93,199.59 135.34,95.75 260.86,204.54 383.32,316.01 163.86,148.58 317.61,308.22 486.56,451.13 88.34,73.71 185.11,136.5 282.98,196.75 125.81,75.6 260.27,140.36 404.41,171.72 155.79,34.05 322.42,29.18 472.16,-28.52 116.28,-44.46 222.15,-121.66 290.26,-226.95 49.11,-75.02 76.76,-163.72 78.43,-253.43 3.57,-153.9 -45.11,-307.06 -129.3,-435.27 -43.65,-68.33 -94.3,-134.03 -160.66,-181.84 -42.49,-31.43 -91.1,-52.82 -137.45,-77.71 16.01,-26.05 37.77,-48.24 62.87,-65.56 58.43,-40.74 122.31,-74 189.99,-96.55 -46.35,-21.25 -95.25,-37.33 -138.55,-64.62 -44.31,-26.34 -80.62,-63.23 -119.04,-97.14 45.48,-23.28 92.99,-43.73 133.31,-75.74 96.99,-75.24 169.97,-177.76 224.47,-286.91 42.79,-89.28 78.07,-185.18 79.75,-285.3 1.74,-85.28 -4.51,-174.27 -44.02,-251.47 -56.83,-113.8 -152.44,-206.72 -264.93,-265.22 -108.78,-58.43 -233.14,-81.13 -355.67,-81.57 -86.3,0.66 -171.58,19.21 -253,46.79zm1589.22 1087.66l0 0c-42.06,48.31 -95.9,84.26 -148.29,120.35 -83.31,54.36 -171.36,107.04 -270.02,126.9 -56.32,12.51 -113.08,-0.95 -168.23,-12.44 -46.57,-13.17 -88.05,18.84 -127.26,38.78 32.74,17.1 65.41,34.34 98.15,51.44 30.71,-11.35 61.05,-24.96 93.79,-29.18 71.09,-9.82 145.46,2.77 208.84,36.68 59.44,31.29 116.12,67.45 171.86,104.78 57.77,39.65 117.37,78.8 162.41,133.37 -9.03,-60.61 -46.86,-113.51 -49.77,-175.65 -5.9,-109.07 -5.82,-220.32 20.81,-327 5.96,-30.27 28.45,-55.3 28.88,-86.73 -7.64,5.68 -14.69,11.86 -21.17,18.7z"/>
    </g>
    <path class="fil0" d="M4630.66 1315.57c154.77,-43.44 322.78,-19.65 467.21,47.22 87.24,41.19 170.41,99.83 220.62,184.02 39.8,64.61 70.72,135.78 82.8,211.08 10.55,55.82 1.31,112.64 -6.47,168.16 -11.79,78.73 -46.5,151.28 -83.1,221.13 -40.16,75.31 -87.17,148.36 -149.24,207.66 -48.46,46.28 -108.19,82.88 -174.7,95.54 -20.52,3.64 -41.33,7.57 -59.3,18.63 28.45,55.23 81.06,92.26 129.52,128.72 31.87,25.39 71.59,37.98 103.39,63.23 -25.76,24.15 -59.37,36.6 -88.19,56.32 -41.62,27.65 -82.87,56.97 -116.63,94.08 -8.88,11.79 -21.47,23.43 -22.42,39 22.27,16.08 51.16,18.34 75.97,29.25 68.1,27.72 137.67,62.07 183.58,121.52 51.73,63.44 98.88,130.97 137.3,203.3 64.54,132.35 86.37,288.06 49.19,431.48 -24.23,95.25 -84.99,178.56 -162.48,237.79 -111.25,85.28 -250.89,126.97 -389.28,137.38 -165.54,11.93 -329.11,-37.7 -475.44,-111.91 -104.85,-54.5 -207.73,-113.51 -304.14,-181.98 -194.57,-140.07 -359.09,-315.87 -538.01,-474.35 -227.17,-202.35 -462.12,-404.41 -740.59,-533.13 -17.02,-8.95 -35.94,-16.88 -47.58,-32.96 77.05,3.56 150.47,31.72 218.87,65.7 118.75,59.16 230.44,131.19 340.46,204.9 235.24,159.72 460.73,333.33 682.3,511.38 166.48,138.83 347.44,263.48 547.25,349.19 143.49,53.92 301.89,82.15 453.6,48.53 110.45,-24.37 221.93,-69.92 298.62,-156.07 81.35,-90.81 107.76,-223.02 80.55,-340.39 -21.83,-95.03 -79.17,-178.41 -149.38,-244.63 -94.38,-88.91 -209.78,-152.14 -328.82,-201.62 -28.16,-12.37 -57.55,-21.98 -84.77,-36.46 85.21,-53.19 166.34,-114.09 233.57,-189.11 9.46,-10.4 16.81,-22.41 23.94,-34.49 -38.49,-50.64 -87.68,-91.82 -135.41,-133.45 -33.04,-29.47 -71.6,-51.66 -105.51,-80.04 70,-33.54 142.25,-63.08 209.05,-103.25 108.63,-63.44 211.08,-144.65 277.37,-253.28 62.07,-100.42 84.41,-226.44 53.48,-341.04 -22.84,-82.74 -87.53,-145.17 -156.44,-192.17 -82,-58.72 -180.09,-92.34 -280.13,-101.72 -180.38,-19.94 -358.07,41.11 -517.28,120.64 -140.36,78.14 -270.68,173.25 -395.39,274.09 -145.67,124.87 -298.04,241.72 -452.81,354.94 -168.37,121.95 -337.98,242.81 -516.83,348.97 -53.48,33.26 -112.71,55.81 -173.11,72.91 -44.6,12.08 -89.86,25.62 -136.5,24.6 33.98,-25.83 77.35,-33.91 114.82,-53.48 187.29,-90.45 353.7,-218.44 507.74,-356.98 249.29,-221.56 480.16,-465.61 753.97,-658.07 167.07,-113.15 349.19,-208.17 544.78,-260.78z"/>
    <path class="fil0" d="M4383.77 1626.49c154.33,-86.52 329.33,-154.04 509.34,-136.87 22.42,3.78 49.34,1.02 67.24,17.61 -32.16,11.06 -66.87,13.97 -97.14,30.27 -67.02,33.69 -128.43,82.22 -169.83,145.38 -32.45,47.58 -30.7,108.49 -23.57,163.2 6.84,51.52 42.49,91.39 78.14,126.25 -21.39,14.62 -46.35,22.55 -72.18,23.65 -80.47,6.33 -169.61,6.11 -237.5,-44.1 -30.56,-23.57 -64.03,-50.71 -73.85,-89.86 -7.35,-31.36 16.52,-56.32 32.81,-79.89 -19.64,1.16 -41.76,-2.04 -58.57,10.4 -28.08,19.79 -34.63,58.87 -26.41,90.37 6.18,27.58 25.83,49.05 42.49,70.8 -18.41,-1.67 -37.62,-7.35 -55.66,-0.29 34.56,44.24 89.13,68.69 142.54,81.86 57.48,12.51 116.93,14.62 175.65,13.17 72.11,-2.18 137.74,-42.71 210.43,-39.44 48.68,0.58 99.32,5.39 145.53,-13.39 69.49,-25.46 116.85,-98.08 115.84,-171.57 -0.51,-37.69 -15.43,-75.31 -42.35,-102.02 -41.04,-41.47 -108.27,-52.82 -161.46,-30.05 -60.03,28.45 -83.39,110.67 -49.41,167.21 5.89,9.03 12.95,17.17 18.63,26.34 -0.58,13.32 -13.46,21.69 -21.1,31.36 -10.55,9.46 -19.65,23.21 -34.49,25.83 -42.64,-14.91 -64.47,-59.22 -75.6,-100.05 -9.83,-40.23 -14.19,-86.15 6.62,-123.76 44.16,-68.84 116.35,-125.3 200.24,-131.2 90.23,-7.27 176.67,48.46 221.49,124.5 33.76,59.67 20.3,132.14 -2.69,193.11 -19.57,54.79 -57.05,104.64 -109.87,130.9 -32.09,16.08 -65.63,32.89 -102.16,34.06 -38.49,0.87 -72.62,-18.99 -107.04,-33.26 -2.98,42.72 36.68,66.87 55.16,100.13 -16.59,8.73 -35.36,16.22 -44.82,33.69 -26.49,41.04 -56.98,86.66 -107.47,99.25 -25.25,8 -50.58,-1.82 -74.51,-9.46 17.24,13.97 37.47,25.61 60.39,25.61 47.08,0.87 91.32,-18.63 133.16,-38.13 110.96,-53.19 213.41,-131.55 278.1,-237.72 49.04,-79.31 71.38,-175.57 58.64,-268.13 -25.46,-93.57 -104.34,-161.53 -189.25,-201.77 74.07,-9.31 142.54,29.69 200.82,70.87 53.48,40.09 107.04,95.39 109.44,166.27 2.4,55.44 10.18,112.63 -5.46,166.91 -28.01,93.21 -81.06,179.66 -155.86,242.45 -95.32,80.91 -204.68,144.51 -319.65,193.11 -39.72,17.25 -81.78,28.16 -121.95,44.17 -8.44,2.47 -14.33,8.73 -19.13,15.72 66.87,23.28 125.22,64.61 183.87,103.25 48.6,34.56 99.47,67.38 139.63,111.91 -14.19,24.08 -37.11,40.82 -58.35,58.14 -86.67,68.54 -183,123.11 -275.49,183.21 46.72,16.08 95.62,24.67 142.04,41.77 113.14,40.24 219.81,98.88 314.7,172.52 65.34,51.52 127.41,112.78 157.97,191.8 41.47,103.25 37.11,225.13 -15.72,323.51 -33.18,62.14 -89.21,113.73 -157.53,133.88 -36.82,10.91 -75.02,21.32 -113.8,18.19 6.62,-12.3 22.12,-12.66 32.96,-19.57 84.4,-49.84 138.68,-143.2 148.58,-239.83 8.08,-87.75 -29.98,-172.08 -79.89,-241.94 -60.32,-88.33 -148.73,-153.67 -243.25,-201.55 -43.29,-20.59 -89.14,-40.67 -137.81,-40.82 -17.03,-1.09 -31.73,8.08 -43.52,19.43 30.71,-0.07 64.91,-7.93 92.34,10.55 47.3,30.49 56.03,93.94 102.74,125.59 -22.34,25.97 -51.22,53.55 -46.49,91.17 43.29,-37.47 104.7,-36.16 157.6,-24.16 36.96,8.66 66.8,34.06 94.37,58.8 33.62,32.08 66.95,68.76 77.57,115.4 16.23,70.43 0.07,146.76 -38.86,207.15 -33.54,52.47 -92.62,87.39 -154.83,90.96 -99.54,7.35 -197.99,-57.41 -234.23,-149.68 -22.56,-64.54 -6.91,-143.92 45.84,-189.47 7.57,-6.41 17.32,-15.5 28.09,-9.9 21.46,8.3 47.59,16.08 59.23,37.55 0.58,34.2 -41.84,48.02 -48.03,80.18 -5.23,50.5 13.61,106.6 58.5,134.18 42.86,27.87 103.69,25.1 142.55,-8.81 41.11,-34.12 80.91,-82.73 74.43,-139.7 -9.38,-104.78 -120.64,-182.93 -222.5,-166.12 -21.11,3.06 -42.06,10.11 -63.45,7.35 -36.75,-5.02 -70.59,-21.46 -106.67,-28.96 -84.7,-18.12 -173.11,-15.79 -257.66,1.53 -58.14,13.17 -118.38,32.52 -161.82,75.24 22.99,-6.48 64.61,-26.42 75.23,6.18 -33.18,14.92 -44.6,56.32 -47.51,89.64 -1.38,39.01 35.07,62.51 67.96,73.06 -8.37,-25.9 -24.23,-52.97 -14.19,-80.7 14.34,-54.13 60.9,-93.42 112.27,-111.47 63.67,-23.28 133.31,-23.72 199.74,-14.55 22.92,3.71 47.08,6.91 66.43,20.96 -23.72,37.03 -57.05,69.48 -68.25,113.21 -14.04,59.74 -3.93,124.79 28.74,176.82 48.32,79.82 133.08,130.68 220.91,156.29 12.81,3.35 26.12,4.01 39.22,5.61 -23.14,19.13 -54.5,18.33 -82.88,20.15 -80.84,2.11 -162.91,-2.84 -240.77,-26.27 -124.86,-36.31 -242.3,-94.52 -354.07,-160.37 -127.11,-74.87 -244.84,-164.8 -352.9,-265.07 52.68,-4.88 105.8,-6.04 158.04,-15.21 73.79,-14.26 134.91,-66.29 177.11,-126.46 34.42,-47.73 33.83,-111.26 20.59,-166.26 -14.84,-69.78 -94.52,-114.24 -162.4,-96.05 8.51,-29.54 38.56,-43.73 64.17,-55.59 50.79,-20.52 107.84,-12.44 160.01,-1.82 47.66,8.95 76.04,53.62 95.32,94.23 22.26,45.69 22.99,100.63 54.35,141.89 36.82,38.7 123.19,44.67 143.49,-13.83 -15.57,8.66 -29.1,21.39 -46.28,26.92 -25.03,-5.31 -43.66,-30.92 -45.18,-56.17 -7.35,-65.93 2.83,-135.05 -21.83,-198.13 -18.99,-48.25 -69.42,-71.75 -114.68,-89.21 -80.76,-28.53 -169.17,-1.68 -242.66,35.14 -64.98,32.96 -120.21,93.65 -128.14,168.38 -4.87,36.81 15.06,81.93 52.83,92.04 -5.39,-17.83 -18.26,-36.16 -10.77,-55.37 12,-32.45 48.24,-50.64 81.06,-53.34 41.47,6.48 81.64,34.35 94.88,75.46 14.12,42.27 1.75,88.77 -20.16,126.17 -29.17,48.39 -71.96,91.1 -125.66,111.18 -103.39,36.46 -230.44,2.47 -294.32,-88.63 -44.82,-55.37 -47.01,-133 -30.64,-199.37 27.73,-85.49 96.41,-150.62 169.61,-199.15 89.21,-58.06 191.95,-94.15 297.24,-108.85 124.57,-18.77 249.51,-36.67 375.17,-46.42 40.02,-4.22 74.22,18.48 109.65,32.52 20.38,8.15 38.86,-4.58 49.99,-20.81 10.91,-17.1 35.29,-10.19 48.39,-23.57 5.6,-16.96 -15.94,-18.41 -26.92,-20.74 -22.49,-1.53 -29.33,-29.54 -50.5,-33.4 -34.2,-5.24 -60.61,24.3 -93.79,25.9 -53.85,3.71 -107.69,-1.96 -161.25,-6.62 -99.83,-10.48 -199.51,-23.79 -297.45,-46.13 -106.16,-26.41 -209.12,-70.94 -296.22,-137.81 -46.06,-36.09 -88.92,-79.53 -112.42,-134.03 -49.92,-121.52 26.2,-277.59 152.87,-312.3 68.04,-10.7 144.37,-12.08 204.32,27.14 54.14,30.41 103.47,81.13 109.95,145.6 2.11,30.41 1.02,65.27 -20.96,88.99 -19.72,21.39 -42.78,44.75 -73.56,46.93 -32.31,4.08 -69.27,-6.55 -87.39,-35.22 -13.39,-19.64 -6.98,-44.46 -8.8,-66.58 -27.87,12.37 -39,45.92 -38.49,74.44 1.81,62.43 38.12,119.48 86.44,157.1 52.75,41.62 116.64,75.96 185.69,73.56 64.54,-1.16 133.15,-12.01 185.62,-52.61 20.01,-15.06 32.74,-37.98 38.2,-62.21 13.9,-59.38 6.4,-121.22 15.86,-181.18 2.69,-22.19 18.26,-40.82 37.11,-51.88 14.63,-0.8 26.92,9.97 40.46,14.33 -6.19,-24.23 -32.75,-31.14 -54.43,-32.52 -35.44,-2.77 -69.05,18.85 -87.1,48.31 -31.94,48.39 -22.92,113.66 -60.39,159.28 -43.8,47.01 -111.62,63.89 -173.98,62.51 -48.46,-1.82 -102.52,-17.83 -129.88,-61.05 26.27,-6.41 54.35,4.29 79.82,-7.13 41.91,-17.69 75.82,-55.38 89.43,-98.67 11.93,-58.72 10.47,-125.81 -27.51,-175.29 -39.8,-51.15 -91.68,-97.94 -156.29,-113.29 -55.59,-14.62 -113.59,-4 -169.83,-13.82 25.39,-28.67 56.54,-51.23 86.08,-75.17 114.82,-88.91 232.62,-174.63 359.37,-245.86z"/>
    <path class="fil0" d="M4862.99 1757.75c19.94,-26.48 55.23,-39.22 87.68,-39.65 61.34,8.22 109.87,72.83 99.32,134.31 -1.52,44.46 -38.2,76.62 -73.12,98.6 -36.53,19.06 -80.33,24.3 -120.79,17.68 12.22,-42.42 50.79,-69.42 88.48,-87.97 25.83,-12.15 22.48,-47.15 13.1,-69.27 -6.55,-17.61 -30.06,-24.16 -44.39,-11.5 -16.37,10.63 -10.4,32.82 -19.5,47.37 -11.5,7.57 -25.32,-5.53 -30.92,-15.06 -9.61,-23.28 -9.97,-51.37 0.14,-74.51z"/>
    <path class="fil0" d="M3599.46 2303.04c-17.83,-57.12 31.94,-116.72 86.88,-126.17 25.39,-1.82 17.46,31.79 19.86,47.73 -2.47,60.68 24.82,118.16 63.89,163.28 75.82,88.84 170.56,165.9 282.54,203.22 34.93,11.36 72.04,14.27 106.16,28.24 -41.62,18.33 -89.5,8.15 -132.5,-0.22 -122.53,-31.07 -234.52,-97.58 -327.58,-182.35 -40.02,-38.34 -82.22,-79.45 -99.25,-133.73z"/>
    <path class="fil0" d="M3409.55 2326.1c42.2,-30.41 86.22,-58.28 132.5,-82.07 -2.76,37.98 6.19,76.76 32.38,105.43 -54.57,-10.41 -109.65,-17.54 -164.88,-23.36z"/>
    <path class="fil0" d="M3350.1 2406.43c8.66,-24.23 33.47,-39.73 58.65,-41.03 50.42,-4.52 104.85,-4.95 149.96,21.53 89.79,51.66 159.72,132.65 252.78,179.22 -105.07,-12.08 -211.74,-15.94 -314.7,-41.84 -48.68,-13.24 -101.28,-31.44 -131.7,-74.44 -8.37,-12.66 -18.7,-27.43 -14.99,-43.44z"/>
    <path class="fil0" d="M3170.38 2496.44c37.62,-29.54 77.71,-55.81 118.09,-81.35 -7.42,32.09 16.81,57.85 31.29,83.61 -49.77,-0.22 -99.61,0.5 -149.38,-2.26z"/>
    <path class="fil0" d="M6033.75 2513.61c4.87,-3.63 14.62,-10.84 19.43,-14.48 -4.01,39.88 -17.76,78.3 -18.56,118.68 -3.2,72.4 -1.67,145.96 16.16,216.61 -23.8,-17.46 -44.61,-38.63 -69.49,-54.57 -77.35,-50.35 -168.3,-73.12 -249.95,-114.6 0,-2.04 -0.07,-6.11 -0.14,-8.15 101.94,-44.53 218.73,-65.41 302.55,-143.49z"/>
    <path class="fil0" d="M3190.39 2554.72c57.04,-15.57 116.93,-19.79 175.72,-13.68 70.29,6.48 138.18,26.78 206.87,42.21 114.52,26.19 229.85,49.77 346.42,65.26 26.27,4.3 53.55,6.05 78.22,17.18 -35.87,4.87 -72.33,2.84 -108.13,7.86 -98.44,12.44 -194.78,37.25 -291.12,60.46 -129.88,32.89 -266.75,67.53 -400.56,36.38 -99.61,-20.08 -180.89,-88.91 -281.01,-107.54 95.03,-26.27 178.05,-83.39 273.59,-108.13z"/>
    <path class="fil0" d="M4156.61 2657.9c22.55,-12.59 42.71,-30.49 67.89,-37.62 24.66,1.46 47.07,15.06 71.81,17.76 27.43,6.11 59.74,1.38 81.72,22.34 -25.69,18.7 -59.16,9.09 -87.68,19.35 -22.27,5.68 -41.7,24.96 -65.93,20.37 -25.97,-7.49 -46.71,-26.12 -67.81,-42.2z"/>
    <path class="fil0" d="M4005.7 2711.75c47.58,-12.59 100.85,-27 148.51,-8.37 -29.98,18.19 -65.93,19.35 -98.16,31.5 -119.62,41.19 -222.15,124.07 -297.53,224.63 -31.58,43.44 -60.17,96.41 -48.9,151.92 0,9.17 7.28,28.89 -8.07,29.11 -45.26,-1.53 -81.86,-39.8 -96.78,-80.19 -13.97,-41.91 16.59,-80.18 42.35,-109.87 97.43,-107.03 220.33,-193.84 358.58,-238.73z"/>
    <path class="fil0" d="M3455.83 2811c117.15,-32.68 239.97,-35.44 358.14,-62.8 -31.22,26.49 -66.36,48.02 -97.8,74.29 -66.36,51.81 -129.08,115.62 -213.48,136.29 -40.53,8.95 -88.34,12.73 -123.26,-13.76 -29.69,-22.99 -26.78,-71.45 -0.59,-95.9 21.18,-20.15 49.63,-29.83 76.99,-38.12z"/>
    <path class="fil0" d="M3160.48 2819.65c22.34,-1.52 44.53,2.84 66.8,3.71 33.4,1.61 66.5,-4.43 99.83,-4.51 -19.57,25.47 -40.31,52.25 -40.02,86.16 -43.95,-25.62 -88.04,-52.1 -126.61,-85.36z"/>
    <path class="fil0" d="M3419.52 2995.38c55.44,2.76 110.09,-8.15 161.39,-28.6 -10.26,17.75 -22.92,34.42 -29.69,53.92 -6.91,25.25 6.33,49.62 12.73,73.49 -55.08,-21.32 -100.19,-60.83 -144.43,-98.81z"/>
    <path class="fil0" d="M4857.83 3365.89c40.45,-17.1 88.91,-8.81 126.97,11.27 52.24,28.6 70.58,94.45 62.28,150.11 -15.64,33.69 -45.18,63.02 -80.47,75.68 -34.49,10.91 -73.2,-4.51 -95.91,-31.36 -18.55,-21.54 -20.88,-55.23 -4.65,-78.73 5.6,-8.44 15.71,-17.98 26.63,-11.79 0.43,16.3 -3.13,38.05 16.95,43.95 38.42,28.16 85.06,-36.89 54.14,-68.11 -16.23,-23.65 -43.73,-32.74 -70.15,-38.71 -7.27,-20.52 -21.75,-36.38 -35.79,-52.31z"/>
   </g>
  </g>
 </g>
</svg>
