<?xml version="1.0" encoding="UTF-8"?>
<!DOCTYPE svg PUBLIC "-//W3C//DTD SVG 1.1//EN" "http://www.w3.org/Graphics/SVG/1.1/DTD/svg11.dtd">
<!-- Creator: CorelDRAW 2020 (64 Bit) -->
<svg xmlns="http://www.w3.org/2000/svg" xml:space="preserve" width="85mm" height="54mm" version="1.1" style="shape-rendering:geometricPrecision; text-rendering:geometricPrecision; image-rendering:optimizeQuality; fill-rule:evenodd; clip-rule:evenodd"
viewBox="0 0 8500 5400"
 xmlns:xlink="http://www.w3.org/1999/xlink"
 xmlns:xodm="http://www.corel.com/coreldraw/odm/2003">
 <defs>
  <style type="text/css">
   <![CDATA[
    .fil0 {fill:#FEFEFE;fill-rule:nonzero}
   ]]>
  </style>
 </defs>
 <g id="Camada_x0020_1">
  <metadata id="CorelCorpID_0Corel-Layer"/>
  <g id="_1798143370544">
   <g>
    <g>
     <path class="fil0" d="M-446.28 -334.49l4.05 0c6.59,86.19 1.79,173.03 2.35,259.5 1771.7,2.27 3543.4,0.29 5315.19,0.95 1363.27,0.47 2726.54,-1.04 4089.81,0.75 1.22,-87.03 1.98,-174.16 -0.19,-261.2l8.19 0 0 5962.48 -3.86 0c-7.72,-46.05 0,-92.78 -4.9,-139.03 -549.62,2.36 -1099.24,0.38 -1648.86,1.04 -2533.82,0 -5067.64,-0.09 -7601.46,0 -51.43,0.85 -102.96,-2.07 -154.29,1.51 2.26,45.49 -0.47,90.99 2.07,136.48l-8.1 0 0 -5962.48zm8.57 1334.35l0 0c-0.66,1138.62 -0.38,2277.33 -0.19,3416.05 3134.12,0.37 6268.24,-0.47 9402.26,0.37 1.04,-1138.71 0.29,-2277.52 0.38,-3416.32 -3134.21,-0.1 -6268.33,0.19 -9402.45,-0.1z"/>
    </g>
    <g>
     <path class="fil0" d="M4259.75 1232.24c1.88,0.1 5.46,0.28 7.34,0.28 139.6,245.1 283.15,487.93 421.9,733.4 285.32,1.98 570.63,0.66 856.04,0.66 -9.52,26.37 -25.91,49.36 -39.47,73.66 -128.39,222.39 -256.68,444.88 -385.07,667.36 103.05,182.36 209.78,362.55 313.48,544.54 36.93,65.75 78.18,129.23 111.15,196.96 -283.99,-0.94 -568.08,1.69 -852.08,-1.32 -137.24,230.96 -269.77,464.85 -404.47,697.32 -9.61,12.34 -12.15,33.53 -28.07,39.37 -142.33,-245.56 -282.11,-492.73 -426.79,-736.78 -284,3.2 -568.09,0.56 -852.08,1.31 46.53,-91.93 102.67,-179.06 152.59,-269.3 90.71,-157.4 181.89,-314.6 272.32,-472.1 -111.34,-192.53 -222.68,-385.06 -334.11,-577.6 -29.29,-55.1 -65.93,-106.34 -91.46,-163.23 273.54,0.47 546.99,-0.38 820.52,0.37 13.28,-2.16 34.39,5.94 40.7,-10.83 139.03,-241.42 278.72,-482.56 417.56,-724.07zm-151.84 734.24l0 0c103.99,0.66 207.88,0.47 311.87,0.19 -51.9,-89.67 -105.3,-178.4 -156.64,-268.36 -51.62,89.49 -103.05,178.97 -155.23,268.17zm-718.8 237.66l0 0c49.45,80.25 95.23,162.86 142.61,244.33 3.96,4.34 11.68,13.1 15.54,17.43 49.55,-88.64 101.36,-175.95 151.47,-264.31 -103.24,1.04 -206.57,-1.41 -309.62,2.55zm583.35 -2.08l0 0c-99.19,167.48 -193.95,337.69 -292.57,505.54 97.58,168.7 193.85,338.25 292.75,506.11 194.89,-2.17 389.87,1.6 584.67,-1.79 93.91,-169.17 194.6,-334.77 288.14,-504.04 -95.52,-169.45 -193.01,-338.15 -291.72,-505.91 -193.76,1.32 -387.52,1.32 -581.27,0.09zm856.69 2.17l0 0c49.26,90.14 102.95,177.74 153.26,267.41 53.22,-88.72 102.48,-179.81 155.98,-268.54 -103.14,-0.28 -206.19,1.6 -309.24,1.13zm0.94 1009l0 0c102.86,-0.56 205.72,1.42 308.58,0.57 -50.77,-89.67 -103.04,-178.4 -153.25,-268.45 -52.37,88.92 -104.08,178.31 -155.33,267.88zm-1294.7 -253.47l0 0c-49.63,83.46 -97.67,167.95 -146.37,252.06 103.14,0.57 206.19,0.94 309.33,1.89 -46.06,-80.92 -93.53,-161.07 -138.75,-242.55 -3.95,-8.67 -16.2,-28.64 -24.21,-11.4zm573.84 490.47l0 0c49.26,90.52 103.52,178.21 153.91,268.17 50.87,-90.15 103.14,-179.53 154.1,-269.68 -102.67,0 -205.34,1.04 -308.01,1.51z"/>
    </g>
   </g>
  </g>
 </g>
</svg>
