<?xml version="1.0" encoding="UTF-8"?>
<!DOCTYPE svg PUBLIC "-//W3C//DTD SVG 1.1//EN" "http://www.w3.org/Graphics/SVG/1.1/DTD/svg11.dtd">
<!-- Creator: CorelDRAW 2021 (64-Bit) -->
<svg xmlns="http://www.w3.org/2000/svg" xml:space="preserve" width="85mm" height="54mm" version="1.1" style="shape-rendering:geometricPrecision; text-rendering:geometricPrecision; image-rendering:optimizeQuality; fill-rule:evenodd; clip-rule:evenodd"
viewBox="0 0 8500 5400"
 xmlns:xlink="http://www.w3.org/1999/xlink"
 xmlns:xodm="http://www.corel.com/coreldraw/odm/2003">
 <defs>
  <style type="text/css">
   <![CDATA[
    .fil0 {fill:white;fill-rule:nonzero}
   ]]>
  </style>
 </defs>
 <g id="Layer_x0020_1">
  <metadata id="CorelCorpID_0Corel-Layer"/>
  <g id="_2849670811216">
   <g>
    <path class="fil0" d="M2468.88 1398.69c142.76,-131.14 274.56,-273.76 416.39,-405.83 68.47,59.9 125.07,131.54 192.36,192.63 96.84,89.32 183.66,189.06 282.21,276.4 152.78,-147.5 300.55,-300.15 452.14,-448.71 18.6,-22.04 49.87,-15.04 75.2,-17.15 269.55,1.85 539.09,-0.4 808.63,1.05 -227.59,230.89 -459.26,457.55 -690.81,684.35 -67.81,74.54 -147.11,138 -210.7,216.5 94.86,109.9 214.13,199.75 301.6,315.59 8.98,403.32 -2.77,807.57 5.94,1211.03 -71.64,-61.22 -133.78,-132.59 -201.07,-198.43 -207.8,-209.78 -414.93,-420.21 -623,-629.86 -26.91,-26.65 -51.71,-55.81 -82.06,-78.5 -15.04,-14.38 -31.66,2.51 -42.88,12.27 -300.94,298.3 -597.26,601.49 -900.58,897.29 -1.06,-278.12 -0.13,-556.37 -0.53,-834.62 -5.67,-40.37 32.06,-63.06 55.81,-89.05 100.4,-101.86 207.4,-197.12 304.9,-301.87 43.93,-45.26 93.41,-85.23 132.06,-135.37 -152.77,-162.54 -317.16,-314 -470.21,-476.15 59.9,-68.87 132.86,-124.54 194.6,-191.57z"/>
    <path class="fil0" d="M5017.73 1110.55c136.82,-67.42 289.07,-96.71 439.61,-113.47 344.22,-0.79 688.43,-0.66 1032.65,0 -183.26,191.31 -374.83,374.7 -560.06,564.02 -17.81,17.95 -35.1,36.68 -55.55,51.72 -179.3,19.66 -366.78,-25.73 -540.27,38.39 -204.23,73.62 -377.6,251.08 -414.67,469.16 -5.01,90.25 -9.37,183 14.64,271.26 51.19,161.76 165.85,308.99 326.54,372.58 145.79,62.54 306.88,32.59 460.32,40.77 1.32,201.73 1.32,403.59 0.13,605.32 -136.15,1.19 -272.31,1.85 -408.33,-0.13 -207.67,-21.24 -413.62,-93.94 -576.95,-226 -149.35,-112.02 -265.46,-263.22 -350.55,-428.4 -110.57,-246.32 -149.35,-528.66 -85.5,-792.79 80.48,-380.24 373.38,-689.23 717.99,-852.43z"/>
    <path class="fil0" d="M4492.76 3737.63c59.64,-15.17 120.33,0 179.3,10.82 29.69,6.99 62.8,12.66 84.97,35.88 3.16,25.73 1.71,51.72 1.45,77.72 -107.13,-39.06 -232.47,-69.4 -339.07,-13.07 -134.97,69.14 -148.96,278.12 -40.11,376.81 46.97,38.39 106.73,62.8 168.22,57.39 78.63,7.39 148.42,-36.15 225.21,-42.88 -5.41,27.44 0.53,64.39 -23.75,83.65 -85.89,46.44 -186.56,38.79 -280.63,36.81 -100.53,-6.07 -190.77,-77.84 -223.49,-172.44 -41.43,-92.75 -36.15,-203.05 8.57,-293.42 51.33,-84.18 139.19,-148.56 239.33,-157.27z"/>
    <path class="fil0" d="M2262.54 3741.06c34.83,-1.05 69.66,-0.53 104.49,0.92 60.69,74.68 114.12,154.76 175.08,229.04 65.04,-70.85 118.08,-151.85 177.05,-227.72 33.91,-2.64 67.82,-3.43 101.86,-2.5 -59.9,105.02 -153.05,186.82 -212.28,291.97 9.5,44.33 55.28,77.31 79.68,116.76 47.76,71.38 113.2,131.54 148.16,210.83 -37.46,-4.88 -86.02,11.35 -113.06,-22.69 -62.8,-75.73 -120.98,-155.15 -181.02,-233.13 -72.17,67.95 -120.32,156.21 -182.46,232.73 -26.78,34.31 -75.6,15.84 -112.54,19.66 62.27,-117.42 162.15,-210.96 230.62,-325.09 -72.56,-96.31 -150.67,-189.06 -215.58,-290.78z"/>
    <path class="fil0" d="M2859.94 3742.11c122.96,-2.24 245.92,-2.1 368.89,-0.13 -0.4,29.29 -1.45,58.72 -3.43,88 -90.9,7.79 -182.34,0.4 -273.37,4.09 -2.11,56.6 -2.11,113.34 0,170.07 87.6,2.77 175.34,-1.58 262.94,1.58 0,25.73 0,51.46 0,77.31 -87.6,3.17 -175.34,-1.18 -262.94,1.59 -2.11,61.74 -2.11,123.49 0,185.23 96.44,4.09 192.89,-2.5 289.46,0.14 0.27,28.89 0.27,57.78 0,86.81 -127.18,-2.9 -254.23,5.81 -381.42,1.45 -2.5,-205.42 -1.98,-410.84 -0.13,-616.14z"/>
    <g>
     <path class="fil0" d="M3294.79 3741.72c112.15,3.3 227.86,-15.17 336.97,17.41 105.02,37.34 131.67,191.97 53.17,267.57 -23.09,17.54 -48.69,31.53 -73.49,46.44 40.5,34.44 72.43,77.18 97.89,123.62 30.08,54.09 75.87,101.33 89.59,163.21 -31.8,-1.46 -64.12,-1.46 -94.86,-10.16 -67.69,-71.64 -93.81,-177.98 -178.51,-234.45 -44.86,-12.8 -92.22,-8.97 -138.14,-4.62 -3.56,81.54 2.77,163.34 -3.82,244.74 -29.29,2.9 -58.58,5.01 -88,6.2 -3.04,-206.61 -1.59,-413.35 -0.8,-619.96zm94.47 84.96l0 0c-4.88,63.34 -3.96,126.93 -1.85,190.39 65.31,-2.51 135.63,13.72 197.77,-11.61 60.3,-25.6 71.91,-114.79 21.24,-155.16 -66.62,-34.83 -144.59,-33.77 -217.16,-23.62z"/>
    </g>
    <path class="fil0" d="M3835.86 3741.59c118.34,-0.93 236.95,-2.25 355.3,0.79 2.51,29.03 4.35,58.18 5.81,87.34 -89.59,8.31 -179.57,0.4 -269.28,4.35 -4.09,56.47 -5.81,113.2 -0.53,169.67 83.65,3.3 167.29,-1.18 250.94,1.98 0,25.73 0,51.46 0,77.31 -83.65,3.04 -167.43,-1.32 -251.07,1.98 -3.7,62.01 -5.81,124.29 -0.79,186.3 97.1,3.69 194.2,-1.59 291.31,-0.93 0.26,28.24 0.52,56.73 0.66,85.23 -127.45,3.43 -255.03,0 -382.48,4.36 -1.19,-206.09 -1.32,-412.3 0.13,-618.38z"/>
    <g>
     <path class="fil0" d="M5052.96 3741.59c27.97,-0.93 56.07,-2.9 84.04,0.79 19.92,24.28 24.8,56.73 37.21,85.1 56.46,136.81 111.08,274.55 168.21,411.24 15.57,38.92 37.07,76.92 39.45,119.79 -30.35,-1.45 -60.43,-3.43 -90.51,-6.33 -21.9,-53.3 -44.46,-106.21 -63.85,-160.43 -88.93,-4.48 -178.12,-3.3 -267.04,-0.79 -23.09,53.56 -44.86,107.53 -65.44,162.28 -31.66,0.79 -63.46,1.71 -95.12,1.98 30.21,-91.3 72.03,-178.25 107.39,-267.57 46.18,-116.36 94.34,-231.94 145.66,-346.06zm-60.17 367.17l0 0c67.03,3.04 134.18,3.3 201.21,-0.92 -30.35,-85.1 -67.29,-167.56 -98.69,-252.26 -41.82,80.74 -74.94,166.5 -102.52,253.18z"/>
    </g>
    <g>
     <path class="fil0" d="M5416.96 3742.25c98.43,0.66 198.3,-10.16 295.67,7.39 82.86,12.14 144.47,97.23 130.88,179.82 1.85,68.35 -55.02,116.1 -112.01,141.83 78.9,85.23 138.79,186.82 191.96,289.47 -26.25,-0.27 -52.9,2.63 -78.5,-3.3 -44.59,-15.17 -60.95,-64.25 -86.28,-99.35 -34.7,-51.32 -57.79,-120.72 -120.86,-143.41 -45.91,-9.5 -93.14,-4.49 -139.45,-4.35 -2.91,81.66 0.39,163.33 -0.92,244.87 -29.03,-0.53 -57.92,-0.27 -86.95,-0.8 6.99,-151.85 10.29,-303.97 6.99,-455.83 -3.69,-52.11 -12.8,-104.63 -0.53,-156.34zm80.88 91.56l0 0c-1.19,61.09 -1.71,122.17 0.53,183.26 60.29,0.66 120.85,4.88 181.01,-1.32 40.9,-11.74 76.39,-45.91 79.82,-90.11 -3.96,-35.89 -24.01,-70.46 -56.46,-87.47 -65.44,-22.44 -139.06,-27.71 -204.9,-4.36z"/>
    </g>
    <g>
     <path class="fil0" d="M5946.82 3741.72c140.37,3.17 289.06,-20.32 421.53,38.92 97.23,42.35 134.7,153.18 144.2,251.07 -1.19,116.77 -58.45,241.05 -168.21,292.37 -124.95,56.2 -264.27,25.46 -396.21,33.11 -4.09,-205.15 -1.98,-410.44 -1.31,-615.47zm92.61 91.96l0 0c-0.92,148.29 -3.82,296.72 1.59,444.75 72.43,0.26 144.99,-6.07 216.76,-15.04 105.82,-17.81 166.38,-132.07 163.87,-231.68 -7.66,-68.74 -36.15,-144.6 -102.51,-176.26 -86.82,-43.15 -186.83,-30.35 -279.71,-21.77z"/>
    </g>
   </g>
  </g>
 </g>
</svg>
