<?xml version="1.0" encoding="UTF-8"?>
<!DOCTYPE svg PUBLIC "-//W3C//DTD SVG 1.1//EN" "http://www.w3.org/Graphics/SVG/1.1/DTD/svg11.dtd">
<!-- Creator: CorelDRAW 2020 (64 Bit) -->
<svg xmlns="http://www.w3.org/2000/svg" xml:space="preserve" width="84.6666mm" height="53.34mm" version="1.1" style="shape-rendering:geometricPrecision; text-rendering:geometricPrecision; image-rendering:optimizeQuality; fill-rule:evenodd; clip-rule:evenodd"
viewBox="0 0 8466.66 5334"
 xmlns:xlink="http://www.w3.org/1999/xlink"
 xmlns:xodm="http://www.corel.com/coreldraw/odm/2003">
 <defs>
  <style type="text/css">
   <![CDATA[
    .fil0 {fill:#FEFEFE;fill-rule:nonzero}
   ]]>
  </style>
 </defs>
 <g id="Camada_x0020_1">
  <metadata id="CorelCorpID_0Corel-Layer"/>
  <g id="_2718394979904">
   <g>
    <g>
     <path class="fil0" d="M5867.74 1387.66c20.23,0.1 40.45,0.2 60.78,0.81 15.67,42.17 32.26,84.14 49.65,125.7 4.85,18.2 25.18,22.05 39.13,31.25 -23.96,40.25 -0.6,85.35 26.5,117.1 3.13,15.98 1.72,32.56 2.22,48.75 -17.69,-10.12 -35.29,-20.33 -52.78,-30.75 -19.82,9.31 -39.54,18.61 -59.36,27.71 -6.37,-33.07 12.23,-58.75 24.57,-87.27 -35.39,-1.52 -70.89,-2.53 -106.28,-0.1 -11.63,13.45 6.17,26.19 13.24,36.3 13.66,13.96 6.78,35.8 9.61,53.3 -18.4,-8.4 -36.51,-17.5 -54.2,-27.11 -18.91,10.12 -37.72,20.63 -56.43,31.05 -1.11,-14.76 -1.72,-29.53 -2.02,-44.29 20.93,-36.61 55.92,-84.65 20.83,-123.68 12.74,-6.98 25.48,-13.95 38.12,-21.13 12.54,-46.83 31.66,-91.52 46.42,-137.64zm-2.53 191.23l0 0c24.27,-1.01 48.64,-1.21 72.91,-1.52 -12.43,-35.9 -23.76,-72.3 -38.02,-107.49 -13.55,35.7 -22.85,72.81 -34.89,109.01z"/>
    </g>
    <path class="fil0" d="M6082.94 1385.54c115.08,2.22 229.85,11.53 344.02,26.4 -3.54,25.78 -5.76,51.67 -7.99,77.66 -19.01,-1.72 -38.02,-3.24 -57.03,-4.25 -1.01,-7.28 -3.13,-21.64 -4.25,-28.82 -24.27,1.21 -51.37,-8.09 -73.31,5.76 -12.95,34.29 -17.4,77.06 15.17,101.74 -10.02,8.19 -19.93,16.58 -29.74,24.97 -0.5,22.56 -1.41,45.01 -2.22,67.45 8.6,6.88 17.29,13.76 26.09,20.63 -1.92,15.68 -3.74,31.35 -5.36,47.03 -17.7,-11.12 -34.89,-23.36 -53.29,-33.38 -20.53,2.13 -38.73,14.06 -57.95,20.84 0.21,-16.28 0.21,-32.56 -0.1,-48.85 9.81,-5.25 19.52,-10.61 29.23,-16.18 1.41,-22.24 8.59,-44.79 5.05,-67.04 -8.09,-10.21 -16.88,-19.62 -25.28,-29.43 10.01,-8.39 20.13,-16.89 30.14,-25.38 1.72,-23.46 3.94,-46.82 5.46,-70.28 -24.37,-12.64 -51.68,-14.26 -78.48,-15.58 -1.92,7.49 -5.86,22.35 -7.88,29.83 -18.81,-1.11 -37.72,-2.32 -56.53,-3.43 1.31,-26.6 2.83,-53.09 4.25,-79.69z"/>
    <path class="fil0" d="M5508.85 1444.8c18.7,-11.83 37.51,-23.46 56.53,-34.79 6.67,28.12 6.67,56.94 -21.34,72.91 -3.34,33.58 2.63,73.12 36.81,88.79 -32.87,30.04 -16.89,75.24 -13.45,113.67 26.9,-3.04 53.7,-6.48 80.49,-9.71 12.24,-29.03 40.35,-36.91 69.27,-39.04 1.42,39.34 -24.16,79.49 -64.61,86.37 -53.4,9.2 -107.8,11.22 -161.4,19.31 -1.72,-13.95 -3.44,-27.91 -5.26,-41.87 38.12,-28.51 28.21,-97.38 -14.76,-116.19 29.32,-24.87 21.54,-61.89 15.47,-95.16 -10.72,-6.37 -21.64,-12.54 -32.56,-18.61 -1.82,-15.27 -4.15,-30.53 -6.58,-45.7 20.43,6.57 40.96,13.14 61.39,20.02z"/>
    <g>
     <path class="fil0" d="M5170.18 1474.53c67.85,-11.63 138.84,-41.76 207.41,-17.9 43.38,14.67 54.81,69.78 40.95,108.71 -21.64,46.32 -77.16,57.74 -121.15,72.61 8.09,26.9 4.76,63.51 34.49,77.16 19.41,8.29 15.07,32.05 19.92,48.84 -20.63,-3.84 -40.96,-8.59 -61.38,-13.45 -16.59,13.25 -33.48,26.29 -50.47,39.04 -2.52,-15.58 -5.36,-30.95 -8.79,-46.32 33.97,-21.13 14.66,-57.74 9.4,-88.59 -11.53,-6.47 -23.16,-12.74 -34.79,-19.01 31.15,-32.97 25.18,-104.56 -25.18,-113.97 -3.13,-15.77 -6.57,-31.55 -10.41,-47.12zm101.53 29.13l0 0c4.75,27.8 9.81,55.61 16.38,83.12 29.33,-10.52 81,-16.69 77.97,-58.05 -13.55,-38.22 -63.2,-26.69 -94.35,-25.07z"/>
    </g>
    <g>
     <path class="fil0" d="M6595.03 1442.78c20.13,2.52 40.25,5.46 60.48,8.39 10.62,48.74 15.16,98.9 27.81,147.24 7.78,10.31 19.92,15.87 30.03,23.56 -32.77,29.63 -20.43,77.57 -4.15,112.96 8.7,16.58 -1.41,34.48 -3.94,51.27 -15.27,-11.63 -29.93,-24.37 -46.22,-34.59 -21.03,-3.13 -41.25,9 -61.78,12.44 1.52,-7.99 4.55,-23.96 6.06,-31.95 4.25,-19.42 36.92,-25.08 27.51,-48.54 -34.28,-8.5 -69.37,-14.16 -104.56,-16.69 9.61,28.72 22.45,57.34 14.46,88.39 -18.2,-11.33 -35.5,-23.87 -52.49,-36.81 -19.41,6.97 -38.83,14.15 -58.34,20.72 -2.03,-50.96 50.86,-75.33 60.77,-122.05 -2.02,-12.95 -6.17,-25.39 -9.71,-37.93 13.05,-3.23 26.4,-5.46 38.94,-10.51 26.29,-41.16 50.06,-83.93 75.13,-125.9zm-40.95 184.95l0 0c24.17,4.05 48.34,8.2 72.71,11.74 -4.86,-38.33 -9.71,-76.76 -17.6,-114.58 -19.92,33.47 -37.11,68.36 -55.11,102.84z"/>
    </g>
    <g>
     <path class="fil0" d="M5858.34 1905.52c36,-62.49 136.92,-62.29 173.12,-0.2 25.08,31.56 4.96,78.78 37.72,105.88 -32.26,25.59 -12.84,69.98 -34.89,100.93 -18.7,30.84 -52.98,52.58 -89.69,51.27 -54.11,2.22 -102.65,-46.12 -102.55,-99.92 1.32,-20.42 -8.59,-37.11 -21.33,-51.97 32.16,-27.41 12.03,-74.63 37.62,-105.99zm59.46 6.48l0 0c-34.49,15.88 -28.82,59.26 -29.23,90.41 2.33,32.46 -7.99,73.11 19.01,97.88 27.51,26.5 79.69,9.21 85.86,-28.51 3.34,-39.75 2.43,-79.79 0.71,-119.53 -1.92,-35.1 -46.32,-58.35 -76.35,-40.25z"/>
    </g>
    <path class="fil0" d="M6174.86 1963.67c100.62,-5.46 201.95,-19.11 302.77,-12.33 1.41,8.08 4.25,24.17 5.66,32.15 -78.37,7.79 -157.25,4.55 -235.82,8.7 -25.29,0.41 -55.72,0.3 -74.74,-18.61l2.13 -9.91z"/>
    <path class="fil0" d="M5587.93 1966.5c39.54,-1.51 79.88,-8.49 118.82,1.72 0.91,10.22 1.82,20.53 2.73,30.75 -83.33,9.1 -167.26,4.04 -250.89,7.68 -24.17,1.92 -48.54,-5.26 -63.91,-24.77 63.6,-13.66 128.83,-9.71 193.25,-15.38z"/>
    <path class="fil0" d="M5829.92 2216.59c84.24,-5.67 169.18,-20.03 253.52,-12.24 0.4,6.57 1.32,19.92 1.72,26.6 -63.51,6.87 -127.62,6.97 -191.53,7.18 -22.45,-1.12 -51.17,1.62 -63.71,-21.54z"/>
    <path class="fil0" d="M6093.35 2307.8c25.79,1.42 52.48,-3.34 77.67,3.44 28.31,41.77 52.78,85.96 80.59,128.13 28.52,-42.88 55.42,-86.87 82.22,-130.86 25.48,-0.4 50.86,-0.51 76.35,-1.11 -0.21,28.41 5.46,60.37 -20.63,79.48 -13.96,34.79 -13.86,83.74 18.81,109.32 -32.97,35.7 -37.02,101.93 4.85,132.47 -0.71,15.37 -1.21,30.74 -1.62,46.12 -17.19,-8.4 -34.18,-17.09 -51.27,-25.59 -17.19,11.43 -34.58,22.55 -52.08,33.68 -0.3,-18.01 -0.6,-36 -1.11,-54.01 11.02,-12.53 30.03,-22.65 27.3,-42.06 0.71,-56.83 0,-113.67 0.21,-170.5 -28.22,38.22 -55.22,77.26 -82.93,115.89 -27.3,-37.21 -53.49,-75.24 -81.91,-111.64 -0.6,64.92 -1.01,129.84 0.61,194.86 8.9,6.07 18,12.04 27.2,17.91 -0.3,19.21 -0.3,38.42 -0.2,57.64 -17.19,-10.52 -34.38,-20.94 -51.47,-31.56 -17.3,11.43 -34.59,22.86 -51.88,34.29 2.43,-19.52 -6.47,-42.98 5.26,-59.87 36.3,-34.28 32.86,-100.52 -4.15,-133.18 32.36,-27.61 35.29,-76.65 20.13,-112.96 -26.9,-18.91 -22.05,-51.27 -21.95,-79.89z"/>
    <g>
     <path class="fil0" d="M5297.09 2314.48c55.72,3.43 116.8,-12.04 167.97,16.48 42.17,23.87 45.5,81.1 30.54,122.16 -20.83,43.38 -75.04,48.34 -117.41,47.33 2.63,28.71 -9.1,62.79 13.96,85.55 15.17,14.26 8.19,35.8 10.01,54.1 -17.8,-12.34 -35.29,-24.98 -52.48,-38.02 -16.99,5.96 -34.08,11.52 -51.17,16.88 0.3,-15.16 0.4,-30.33 -0.1,-45.5 9.5,-5.46 18.91,-11.02 28.21,-16.69 1.21,-32.56 3.74,-68.26 -25.18,-90.5 28.11,-19.42 30.54,-61.49 15.77,-88.89 -22.85,-13.56 -18.2,-40.25 -20.12,-62.9zm81.41 50.86l0 0c-0.31,27.61 -0.31,55.22 0.5,82.82 22.55,-3.03 50.36,3.04 67.55,-15.67 15.27,-15.27 9.31,-43.59 -7.98,-54.71 -17.4,-12.64 -39.95,-10.31 -60.07,-12.44z"/>
    </g>
    <path class="fil0" d="M5588.94 2347.85c16.79,-10.72 33.78,-21.04 50.87,-31.35 -0.61,18 -1.02,36 -1.02,54.1 -37.21,17.09 -26.9,60.98 -26.09,94.15 6.78,12.64 16.49,23.36 25.18,34.89 -40.14,27.4 -22.65,77.76 -26.09,118.52 25.79,1.82 51.98,10.41 77.77,4.85 7.18,-9.1 13.95,-18.51 20.32,-28.21 15.58,1.41 31.25,2.73 47.03,3.94 -2.13,37.01 -23.87,80.6 -65.03,83.93 -51.97,1.12 -103.14,-11.73 -155.02,-14.05 -2.22,-27 -2.73,-55.42 23.66,-70.79 -0.4,-36.81 6.78,-77.66 -21.34,-106.89 28.12,-24.47 25.39,-66.94 16.89,-99.3 -20.83,-19.83 -21.33,-47.13 -19.82,-74.13 17.7,9.91 35.09,20.33 52.69,30.34z"/>
    <g>
     <path class="fil0" d="M5827.09 2447.56c-3.24,-53.9 25.08,-113.46 78.98,-130.66 45.81,-13.85 92.93,16.38 111.94,57.54 24.78,41.26 1.82,95.67 35.4,132.88 -38.13,34.99 -11.94,90.91 -39.34,131.16 -17.09,36.81 -57.44,65.02 -99.11,55.82 -56.72,-11.12 -89.79,-70.78 -90.4,-125.19 0.61,-24.17 -6.57,-46.42 -23.26,-64.11 12.13,-17.4 29.23,-34.38 25.79,-57.44zm80.9 -68.26l0 0c-22.25,9.6 -35.3,33.77 -34.18,57.54 -0.61,47.33 -1.42,94.85 0.6,142.18 -0.1,30.03 28.02,59.36 59.16,53.19 28.72,-5.05 44.6,-35.9 44.3,-63 0.8,-43.99 1.21,-88.18 -0.21,-132.17 -0.1,-35.09 -32.96,-70.99 -69.67,-57.74z"/>
    </g>
    <g>
     <path class="fil0" d="M6497.35 2363.02c33.57,-64.02 135.2,-64.72 170.8,-2.43 26.29,32.16 2.62,82.92 41.56,106.89 -11.63,15.27 -25.49,31.04 -23.16,51.77 2.02,60.58 -44.8,121.15 -106.08,128.13 -34.18,4.65 -67.55,-15.37 -84.74,-44.29 -24.58,-35.29 -1.92,-85.86 -40.25,-113.56 39.03,-32.16 11.43,-88.79 41.87,-126.51zm78.07 7.08l0 0c-25.08,6.67 -43.59,31.55 -41.67,57.54 0.2,42.77 -2.02,85.75 1.42,128.42 4.75,36.51 53.09,50.97 78.57,25.08 43.38,-34.99 18,-96.67 23.97,-144 5.56,-35.49 -23.16,-77.86 -62.29,-67.04z"/>
    </g>
   </g>
  </g>
  <g id="_2718394978416">
   <g id="__x0023_f7f7f7ff">
   </g>
   <g id="__x0023_0c143fff">
    <g>
     <path class="fil0" d="M3755.54 861.89c38.56,-12.09 77.75,-22.69 117.46,-30.43 61.94,-5.21 124.33,3.38 184.49,18 41.54,11.46 74.26,40.45 109.73,63.19 58.67,53.23 99.52,122.16 135.44,191.95 11.58,13.75 16.56,30.31 16.91,48.18 62.97,0.92 127.54,-3.26 188.67,14.84 56.9,18.74 99.64,68.82 114.77,126.11 6.76,33.75 11.29,68.19 9.8,102.68 -1.09,12.2 7.67,22 13,32.14 19.71,-5.67 39.02,-15.01 60.16,-12.83 12.78,24.86 -2.23,51.62 1.27,77.86 -3.04,26.3 11.34,53.4 34.72,65.78 20.51,10.88 40.62,24.92 51.05,46.47 14.67,28.36 43.6,52.82 39.07,87.77 -5.38,38.85 -2.06,81.02 -23.37,115.8 -12.95,26.13 -35.41,45.78 -49.51,71.1 -3.89,43.26 12.09,87.78 -4.35,129.55 -11.12,19.42 -28.02,34.67 -44.23,49.79 34.55,80.45 74.65,163.47 72.25,253.08 -2.81,22.69 -6.88,46.52 -18.28,66.58 -27.22,29.68 -62.63,50.02 -97.29,69.67 -50.65,34.09 -110.81,50.19 -169.37,64.86 -50.08,16.73 -102.79,23.21 -153.15,38.5 8.42,19.2 25.72,40.34 13.06,61.77 -15.01,40.16 -59.59,55.12 -81.99,89.61 -8.59,10.66 -15.35,28.59 -2.12,38.68 30.43,28.3 54.78,62.45 74.03,99.12 14.49,34.32 13.98,72.08 14.03,108.69 10.32,2.92 23.32,2.35 30.6,11.63 17.53,20.74 32.66,43.49 51.74,62.97 26.99,26.41 39.99,62.74 61.25,93.34 29.79,38.1 44.35,85.08 68.47,126.68 21.03,32.6 30.71,71.5 57.87,100.27 26.76,-16.68 42.86,-44.35 62.28,-68.19 12.15,-15.12 21.03,-32.48 31.91,-48.47 13.7,-20.11 32.83,-35.81 46.47,-55.98 -20.05,-31.91 -39.76,-64.05 -64.51,-92.65 -28.83,24.24 -56.04,50.48 -86.35,72.88 -15.13,13.41 -46.87,6.59 -47.79,-16.04 -6.47,-28.13 0.92,-58.21 -11.11,-85.2 -16.96,8.65 -37.01,29.22 -56.09,13.7 -25.96,-13.53 -22.98,-46.13 -23.27,-70.82 -1.6,-30.77 5.22,-63.6 -7.44,-92.59 -29.11,-25.04 -69.39,-32.83 -95.58,-61.88 1.44,-4.13 4.36,-12.38 5.79,-16.5 7.34,0.63 15.24,-0.86 22.23,2.4 49.68,34.38 107.66,54.43 157.05,89.27 26.42,19.48 52.6,39.36 79.87,57.64 32.78,19.6 57.24,49.62 84.28,76.03 30.14,38.22 60.22,76.78 85.49,118.49 0.35,2.64 1.03,7.85 1.32,10.49 -19.19,23.95 -45.78,41.77 -60.22,69.55 -29.05,52.54 -66.63,100.16 -108.52,143.02 14.9,57.69 39.99,112.01 58.39,168.56 23.49,71.05 48.7,141.47 80.27,209.31 2.86,-0.92 8.59,-2.81 11.46,-3.73 11.8,-20.97 15.18,-45.09 18.33,-68.53 26.24,-10.54 52.37,6.13 75.92,16.62 31.92,17.13 67.5,30.54 104.22,29.85 16.96,-11.69 35.01,-27.44 38.56,-48.82 1.03,-12.77 -13.98,-16.61 -23.2,-20.79 -58.9,-18.68 -122.04,-41.2 -159.74,-93.28 -32.09,-57.3 -39.83,-123.99 -60.62,-185.53 -12.55,-28.47 -26.99,-56.15 -43.38,-82.56 -7.22,-9.74 -6.36,-22.12 -7.1,-33.46 40.68,-3.27 53.06,40.62 69.79,68.52 39.99,64.98 39.19,145.88 77.12,211.6 2.29,-31.17 11.46,-61.14 15.81,-92.02 1.03,-10.25 7.22,-18.74 17.88,-20.4 27.04,-1.43 53.05,9.23 80.15,8.66 65.38,-1.78 129.38,15.29 194.81,14.49 36.33,5.62 77.47,-1.09 108.58,22.63 -11.4,15.65 -22.06,31.92 -30.02,49.62 18.85,3.61 37.93,6.3 57.12,8.02 3.78,23.61 -13.75,41.37 -22.06,61.71 21.37,8.65 43.2,16.22 64.06,26.24 -7.39,22.52 -26.41,37.59 -42.4,53.98 -31.63,29.28 -59.99,61.71 -89.84,92.65 7.33,5.5 14.72,11 21.94,16.78 -22.34,21.95 -9.28,57.07 -27.61,80.96 -12.15,17.02 -32.26,27.56 -39.94,47.85 -10.66,22.8 -31.63,37.75 -46.3,57.52 -1.26,32.26 -10.65,64.46 -3.72,96.66 0.46,9.91 5.39,23.15 -5.5,29.39 -11.98,7.57 -26.64,7.45 -40.16,9.8 0.05,11.69 0.22,23.43 0.51,35.24 -24.47,6.19 -49.05,12.14 -73.17,19.54 -2.98,8.88 -5.38,18.04 -8.93,26.87 -9.23,7.73 -22.47,7.73 -33.87,7.56 -59.53,-12.09 -114.19,-42.46 -175.27,-47.96 -7.1,25.5 -11.97,51.51 -18.33,77.18 -12.15,2.12 -24.01,-0.28 -33.75,-7.96 15.36,-40.68 11.58,-84.69 16.39,-127.03 -1.66,-59.53 0.63,-122.96 -26.82,-177.5 -30.54,3.03 -54.31,24.69 -81.99,35.75 -36.84,14.15 -69.33,38.39 -107.94,47.96 -41.89,9.05 -79.53,31.8 -122.39,37.13 -72.31,25.15 -149.43,34.6 -220.07,64.68 -22.01,5.28 -44.18,9.92 -65.84,16.62 -61.08,9.51 -123.24,5.1 -184.49,11.52 -57.76,-2.12 -116.32,7.62 -173.32,-6.08 -3.61,29.63 -22.98,57.24 -52.66,65.21 -19.77,10.37 -39.99,-2.24 -59.01,-7.85 6.64,24.35 23.32,46.64 19.93,72.94 2.81,31.68 -25.55,58.84 -54.77,65.08 -20.28,3.27 -31.46,25.04 -52.6,26.65 -31.17,1.83 -62.74,-2.01 -91.44,-14.38 -59.19,26.29 -116.37,61.7 -181.92,69.55 -23.26,2.29 -40.16,23.38 -64.29,21.66 -31.34,0.52 -66.92,1.37 -93.1,-18.51 -3.96,-10.19 -5.16,-24.63 4.75,-31.85 19.08,-17.02 41.49,-30.26 65.61,-38.68 24.92,-9.11 45.03,-26.81 67.15,-40.68 35.81,-18.91 76.26,-28.65 109.78,-51.74 -8.77,-38.27 -32.89,-70.47 -44.18,-107.89 -12.26,-40.68 -22.52,-82.68 -21.77,-125.42 -4.87,-51.68 -6.82,-103.53 -15.64,-154.81 -0.4,-65.09 -18.74,-130.18 -7.22,-195.15 1.2,-28.59 -6.02,-56.9 -4.3,-85.55 2.12,-47.04 -8.31,-93.51 -5.44,-140.49 -8.08,-5.1 -16.04,-10.2 -24.07,-15.3 10.03,-52.54 9.86,-106.45 19.37,-159.17 4.35,-22 0.69,-44.97 7.39,-66.57 10.26,-38.34 24.12,-76.61 47.33,-109.21 15.24,-21.89 29.62,-45.95 52.94,-60.28 30.08,-19.48 65.2,-28.59 98.55,-40.51 39.88,-19.02 65.49,-57.75 104.45,-78.26 9,-35.7 11.8,-74.14 30.88,-106.86 17.82,-29.51 35.58,-63.14 68.47,-78.15 -3.38,-39.6 -19.82,-80.62 -54.94,-102.22 -27.22,-17.47 -60.91,-12.89 -90.36,-23.66 -24.7,-6.36 -45.67,-23.04 -58.39,-44.98 -23.66,-30.77 -26.64,-70.59 -37.07,-106.74 -24.58,-6.99 -52.31,-1.49 -74.65,-15.76 -25.27,-12.89 -50.48,-29.05 -66.24,-53.17 20.97,-8.71 44.92,-17.19 54.6,-39.94 11.92,-15.87 2.75,-35.52 -7.1,-49.67 -23.26,-32.89 -46.87,-65.84 -64.23,-102.33 -21.03,-39.82 -8.42,-86.41 -13.81,-129.15 -11.06,-28.7 -27.84,-54.78 -46.01,-79.41 -19.82,-31 -52.19,-53.29 -64.28,-89.27 -28.08,-58.1 -40.74,-128.63 -13.07,-189.25 12.78,-27.33 45.21,-46.18 43.32,-79.13 1.09,-34.95 -15.64,-67.89 -12.26,-103.07 -1.66,-55.24 9.17,-111.85 38.44,-159.34 18.28,-25.44 39.25,-50.77 69.16,-62.63 44.41,-19.37 59.99,-68.07 80.85,-107.66 14.2,-38.33 47.84,-64.06 67.83,-99.01 16.45,-28.7 44.98,-47.55 62.63,-75.4 27.33,-42.8 74.6,-66.29 107.54,-103.99 42.29,-10.32 80.05,-32.49 118.32,-52.37l0 0zm469.2 410.41c-39.25,45.21 -94.88,73.52 -152.64,86.81 -58.9,11 -108.11,51.51 -142.72,98.83 -22.52,29.91 -55.75,48.65 -87.61,66.87 -25.84,4.87 -52.14,0.4 -78.04,-1.09 -21.82,-0.86 -42.62,12.66 -51.85,32.2 -12.49,24.58 -22.57,52.71 -16.38,80.56 12.14,55.29 29.33,112.36 17.81,169.31 -10.82,35.7 -38.56,63.6 -48.24,99.75 -5.79,20.23 -14.27,40.45 -11.86,61.94 -0.23,28.65 20.57,50.42 32.72,74.6 14.78,24.87 23.2,52.77 28.53,81.07 4.76,27.45 20.97,50.77 30.65,76.49 9.74,24.53 19.49,48.99 30.26,73.11 6.76,19.49 16.21,40.8 8.08,61.37 -11.41,-3.38 -26.02,-2.41 -33.75,-12.95 -10.83,-10.94 -20.4,-26.24 -37.02,-28.07 -32.65,-6.14 -67.09,12.77 -80.27,43.08 -25.09,43.38 -15.98,96.72 0.75,141.35 7.27,28.99 35.41,45.95 61.82,55.12 17.25,1.61 34.66,1.49 51.97,0.4 12.49,-5.73 22.46,-15.64 34.49,-22.29 10.08,0.63 19.37,8.48 13.23,18.91 -17.3,17.31 -40.45,27.1 -64.11,31.52 11.17,54.14 15.36,109.26 20.74,164.21 6.02,34.83 13.64,69.78 24.18,103.42 30.83,46.64 77.75,79.41 121.53,113.04 37.58,32.95 76.55,64.57 109.89,101.99 20.06,22.23 30.88,50.76 50.19,73.57 4.24,-56.5 33.12,-107.89 67.33,-151.78 21.48,-33.52 52.14,-60.68 69.5,-96.89 10.71,-28.42 14.09,-59.19 26.7,-86.97 13.35,-27.73 -3.27,-62.11 16.04,-88.13 19.77,-37.52 67.84,-49.5 83.54,-89.95 6.99,-14.38 -8.83,-26.07 -14.78,-37.82 -27.79,-3.32 -51.51,13.01 -76.9,20.8 -21.48,6.53 -42.4,14.61 -62.68,24.18 -48.36,25.73 -97.52,50.42 -142.44,81.99 -8.88,5.62 -17.64,15.93 -29.22,10.89 -6.7,-6.71 -8.54,-16.22 -11.52,-24.7 15.82,-10.6 30.6,-22.74 47.05,-32.31 54.83,-27.56 105.08,-65.72 165.01,-82.22 43.37,-13.35 83.54,-37.53 129.2,-43.2 57.93,-12.49 115.91,-24.98 172.58,-42.46 86.98,-17.02 169.77,-55.52 235.37,-115.51 13.01,-20.57 13.64,-46.35 19.25,-69.56 0.75,-27.16 -8.76,-53.51 -12.14,-80.33 -18.51,-63.65 -50.25,-122.38 -72.54,-184.66 -13.46,-38.45 -38.27,-71.05 -57.75,-106.4 -10.95,7.1 -20.63,16.27 -32.49,22 -13.47,2.12 -24.18,-6.82 -33.23,-15.41 19.76,-18.51 43.25,-36.62 49.56,-64.58 16.61,-55.57 1.09,-113.5 -18.74,-165.98 -6.93,-19.2 -28.99,-25.44 -37.99,-43.15 -21.94,-33 -61.59,-44.69 -91.5,-68.07 -29.68,-11.74 -63.66,-16.44 -94.31,-5.55 -30.82,10.88 -62.57,21.77 -88.18,42.91 -26.75,22.75 -54.14,46.98 -69.15,79.53 -3.1,7.39 -5.96,17.82 0.91,24.18 33.29,34.15 60.11,76.37 69.22,123.76 4.92,22.34 2.46,47.38 12.54,68.01 32.09,-6.13 62.34,-20.34 94.09,-28.65 40.05,-14.95 86.74,-15.36 124.61,5.96 34.61,22.69 67.61,56.72 69.96,100.33 -0.34,40.68 -38.38,65.03 -55.69,98.26 43.72,9.68 85.77,25.09 128.63,38.04 23.21,10.32 50.37,22.75 59.25,48.65 1.77,19.48 -6.59,43.08 -24.93,52.2 -16.56,7.73 -32.83,-3.1 -48.47,-7.45 -16.16,-5.9 -33.29,-1.26 -49.1,3.15 -26.02,9.62 -54.55,6.76 -81.54,4.75 -22.63,-13.98 -45.09,-29.68 -61.02,-51.33 -11.28,-15.3 -10.82,-35.18 -12.66,-53.18 -11.52,2.87 -22.57,8.2 -34.55,8.54 -12.38,-4.47 -18.96,-15.58 -16.5,-28.48 35.92,-10.65 72.82,-21.19 104.68,-41.48 19.48,-18.33 38.96,-38.5 50.02,-63.25 4.35,-20.23 3.15,-45.04 -12.95,-60.05 -16.27,-18.91 -37.53,-35.24 -63.37,-36.61 -61.82,5.27 -115.97,46.12 -178.71,45.21 -9.16,38.96 -24.35,76.43 -45.49,110.46 -41.25,53.4 -98.95,94.89 -165.41,109.96 -68.47,9.96 -138.09,-3.27 -202.6,-26.42 -22.01,-8.65 -39.65,-24.92 -57.59,-39.76 -34.2,-33.64 -50.07,-80.27 -64.4,-124.79 -14.95,-61.77 -5.56,-126.86 15.24,-186.05 18.11,-37.3 47.96,-66.92 77.64,-95.11 27.56,-22.06 64,-25.61 96.66,-35.69 43.03,-13.87 89.04,-13.7 133.67,-10.72 33.75,10.2 67.27,21.6 99.01,37.19 17.76,-27.39 33.63,-56.78 59.24,-77.81 34.61,-27.33 74.14,-50.65 118.21,-58.21 57.81,-12.38 115.79,6.01 171.88,18.85 10.2,-12.44 21.49,-25.96 21.2,-43.09 0,-20.23 0.41,-46.47 -18.9,-58.79 -20.92,-11.23 -43.32,-20.97 -60.34,-37.98 -17.18,-22.41 -25.04,-50.25 -41.71,-72.94 -19.36,-29.17 -37.81,-59.3 -51.11,-91.79 -14.78,-29.74 -26.01,-64.29 -56.49,-81.88 -25.73,25.61 -45.26,56.61 -71.05,82.22l0 0zm-240.64 414.2c-40.97,9.68 -84.8,15.35 -121.24,37.58 -38.96,30.72 -79.59,67.5 -89.1,118.61 -15.41,36.27 -14.61,76.49 -14.04,115.11 -0.68,30.02 16.1,55.98 23.84,84.05 11.11,37.41 40.97,65.6 73.4,85.32 39.88,14.38 82.1,24.17 124.73,23.89 30.88,0.4 63.08,2.63 91.85,-10.95 45.26,-14.38 78.03,-50.76 109.2,-84.62 22.69,-34.72 38.22,-74.37 46.59,-115 4.35,-40.56 2.06,-82.67 -10.83,-121.64 -10.66,-33.63 -36.67,-58.67 -59.19,-84.62 -47.27,-41.09 -113.79,-57.07 -175.21,-47.73l0 0zm-324.87 1256.28c8.19,-7.97 11.05,-18.74 13,-29.51 6.02,-36.04 25.27,-67.78 42.12,-99.58 6.36,-8.94 -4.7,-16.44 -7.97,-24.06 -31.68,43.66 -52.6,98.55 -47.15,153.15l0 0zm625.04 -128.75c-8.94,44.52 9.06,88.3 4.24,132.76 -28.24,3.9 -47.61,-20.91 -71.96,-30.37 -14.61,4.07 -20.8,19.88 -28.13,31.69 29.56,24 62.16,44.35 89.03,71.5 13.18,11.58 23.44,27.16 40.34,33.69 8.25,-45.83 2.41,-92.65 3.84,-138.94 0.29,-36.21 -7.68,-76.43 -37.36,-100.33l0 0zm-534.69 142.73c-27.33,10.6 -53.86,36.67 -84.8,22.4 6.13,26.01 13.47,52.31 27.74,75.18 22.23,40.85 36.15,86.57 64.23,124.04 20.56,-30.94 33.28,-66.29 54.71,-96.66 23.9,-36.5 46.53,-74.71 78.73,-104.68 -22.92,-20.74 -45.72,-42.11 -73.97,-55.35 -19.02,17.19 -43.03,26.3 -66.64,35.07l0 0zm-175.72 38.16c20.79,4.35 40.79,11.63 61.36,16.67 -4.53,-19.13 -9.45,-38.16 -13.64,-57.35 -18.05,10.77 -34.37,24.41 -47.72,40.68l0 0zm789.48 -20c-1.6,43.03 5.22,89.27 -14.72,129.15 -6.25,12.43 -20.97,6.19 -30.2,1.37 -42.05,-31.34 -66.75,-84.51 -116.43,-105.99 4.42,29.9 12.44,59.7 11.52,90.12 -12.09,24.64 -33.12,43.38 -46.64,67.21 -29.16,47.56 -61.59,93.74 -80.9,146.39 -30.37,-8.3 -50.76,-33.29 -75.52,-50.93 -18.68,-13.7 -36.49,-28.71 -56.43,-40.63 -14.96,-9.62 -31.4,-19.59 -38.68,-36.67 -14.44,-23.14 -13.06,-51.1 -18.73,-76.83 -4.99,-21.83 -6.02,-44.35 -12.21,-65.89 -38.44,45.03 -59.64,101.41 -86.52,153.55 15.88,3.56 33.87,3.15 46.93,14.27 14.09,11.06 29.05,20.91 44.58,29.91 23.77,13.12 38.39,39.59 40.1,66.29 -25.61,13.58 -54.08,21.43 -77.86,38.45 0.17,2.8 0.51,8.42 0.69,11.17 28.01,13.29 57.23,23.55 87.49,30.48 39.02,9.17 77.12,25.33 108.23,50.88 11.46,6.3 1.49,19.08 -8.54,17.13 -34.26,-4.12 -67.03,7.97 -99.24,17.71 19.66,21.6 37.53,45.09 59.94,64.05 33.52,27.39 63.54,58.85 92.24,91.16 5.96,8.88 18.63,17.19 13.3,29.39 -8.94,7.97 -21.6,3.44 -32.09,2.81 -47.67,-8.42 -96.72,2.58 -144.16,-8.02 -50.59,-9.28 -102.38,-10.94 -153.09,-1.72 0.68,12.09 1.32,24.29 3.38,36.39 16.61,62.16 10.48,128.22 28.47,190.22 3.44,8.31 -3.78,15.13 -10.54,18.45 -43.14,-5.96 -78.84,-32.66 -116.25,-52.66 5.56,50.54 14.95,100.67 29.56,149.43 7.8,24.18 27.16,41.43 41.89,61.31 27.27,-25.15 57.47,-47.1 90.64,-63.77 20.34,-9.86 42.17,-15.99 62.8,-25.21 -9.8,-23.55 -14.56,-49.16 -28.19,-70.99 -13.7,-26.99 -38.74,-45.21 -56.04,-69.5 39.82,-22.23 88.81,-23.38 130.29,-4.76 37.93,8.37 70.13,31.97 108.24,39.59 -9.06,-56.49 -18,-114.93 -6.77,-171.77 8.31,-13.92 25.67,-6.25 36.1,0.74 35.75,26.88 63.89,62.06 94.88,93.97 19.03,19.42 34.73,41.71 51.34,63.08 1.72,0.18 5.1,0.63 6.82,0.86 12.83,-26.35 28.59,-51.05 47.84,-73.17 17.99,-20.11 19.6,-47.84 23.95,-73.05 12.72,0.75 31.34,-2.4 35.81,13.58 7.91,24.93 11.69,51.17 11.92,77.35 0.34,33.58 14.9,64.69 19.65,97.58 19.54,-10.49 39.25,-21.15 61.42,-24.75 25.33,-4.53 47.27,-25.9 74.26,-19.08 9.91,0.34 13.47,12.14 10.89,20.39 -4.59,35.47 -26.25,65.67 -32.49,100.67 -2.75,16.45 -6.25,32.78 -9.63,49.16 22.06,-6.07 44.35,-11.74 65.67,-20.11 24.98,-13.23 53.91,-16.44 78.38,-31.05 33.74,-20.29 73.16,-35.98 95.4,-70.36 7.84,-12.32 21.37,-18.57 33.92,-24.81 0.97,-20.46 -1.95,-40.85 -10.15,-59.7 -18.68,-46.19 -28.36,-95.63 -50.47,-140.44 -28.48,17.59 -58.16,33.35 -88.76,46.93 -35.06,14.32 -64.57,39.25 -100.09,52.71 -28.71,11.57 -59.99,38.04 -91.28,18.11 11.12,-53.17 36.33,-102.05 47.79,-155.16 -22.81,-0.06 -44.98,5.15 -66.75,11.51 -45.67,10.72 -87.66,-14.26 -131.1,-23.55 -32.14,-13.86 -66.12,-23.14 -97.63,-38.5 1.38,-7.5 0.17,-16.96 8.59,-20.57 34.5,-23.37 70.31,-44.69 104.74,-68.07 29.74,-20.11 64.98,-40.33 76.04,-76.89 -32.66,4.7 -65.55,9.4 -98.5,10.14 -11.86,-2.34 -40.05,-4.81 -30.42,-22.74 103.08,-64 188.22,-158.37 234.63,-271.13 -14.44,-29.22 -27.33,-60.5 -51.34,-83.48 -19.31,-18.96 -31.46,-43.95 -51.97,-61.71l0 0zm-212.8 16.28c-10.14,16.32 -22.8,30.99 -32.14,47.78 -18.97,38.39 -18.45,82.05 -27.56,123.13 -3.32,14.21 -5.27,29.62 4.24,42.11 18.51,-21.83 31.51,-47.5 49.05,-70.01 11.45,-14.96 21.31,-31.23 29.04,-48.42 3.56,-32.37 -6.35,-64.06 -12.6,-95.46 -2.52,0.18 -7.51,0.63 -10.03,0.87l0 0zm-230.61 12.31c7.79,37.42 2.12,76.32 13.92,112.99 5.5,25.15 10.94,54.15 34.03,69.5 27.33,17.48 53.98,35.98 80.79,54.26 0.46,-19.31 -1.32,-38.9 -10.14,-56.32 -19.2,-39.94 -34.21,-81.99 -57.53,-119.81 -17.36,-22.92 -38.44,-42.97 -61.07,-60.62l0 0zm-481.98 54.43c-55.87,56.5 -95.11,131.61 -99.3,211.83 -1.09,50.25 -14.95,99.24 -14.32,149.6 27.04,10.26 55,19.88 84.28,20 24.3,0.74 49.45,9.85 73.34,2.52 27.79,-32.03 35.24,-76.95 65.95,-106.86 -22.06,3.09 -44.4,5.62 -65.49,13.12 -8.94,-8.19 -20.91,-17.82 -14.27,-31.28 16.22,-42.23 66.93,-65.15 71.45,-113.11 -50.42,-3.15 -99.69,7.22 -148.51,18.34 -6.13,-6.42 -20.86,-13.41 -13.81,-24.12 39.14,-54.38 80.62,-107.32 116.08,-164.33 -19.13,6.19 -39.65,11.17 -55.4,24.29l0 0zm-90.76 400.85c2.06,53.4 0.86,106.92 3.04,160.37 3.32,32.32 5.1,65.03 0.91,97.41 -0.74,42.22 9.17,83.94 8.14,126.22 0,25.04 8.42,49.28 7.96,74.37 -0.17,34.61 12.04,68.01 9.8,102.73 -1.6,32.95 8.14,64.86 16.85,96.26 7.27,39.25 30.54,72.6 45.55,109.04 1.77,7.16 8.19,10.71 13.92,14.55 -3.61,-27.73 -15.99,-53.4 -20,-80.9 0.29,-16.16 18.45,-16.62 30.49,-16.85 10.6,26.99 17.24,55.35 25.95,82.97 18.85,-10.49 38.22,-20.23 55.52,-33.18 8.08,-12.89 4.76,-31.4 16.16,-42.91 9.51,-2.47 18.96,1.26 28.07,3.89 0.35,45.15 -2.92,94.54 21.95,134.48 6.53,8.48 19.14,25.15 29.34,12.26 19.82,-13.69 24.12,-40.79 15.01,-61.99 -12.49,-31.06 -23.15,-63.09 -28.42,-96.21 -1.61,-18.62 25.26,-18.56 35.63,-9.22 17.48,15.07 32.26,33 49.57,48.36 8.36,-4.59 17.41,-8.65 23.77,-16.1 13.53,-13.01 8.83,-34.15 7.63,-50.88 -13.41,-41.71 -39.65,-77.69 -63.72,-113.73 -26.07,-58.56 -30.02,-123.48 -42.86,-185.53 -0.51,-42.52 -10.25,-84.05 -14.03,-126.28 -0.12,-49.68 -1.09,-99.64 5.73,-148.97 2.92,-26.7 -2.35,-53.46 -11.18,-78.56 -35.35,3.73 -70.93,6.42 -105.71,13.81 -55.17,-3.55 -109.84,-12.14 -165.07,-15.41l0 0zm1601.84 20.8c-6.77,23.09 -11.63,46.87 -13.24,70.93 7.28,-14.95 11.75,-31.11 19.08,-46.01 5.27,-11.74 19.14,-7.96 29.39,-7.9 56.04,5.32 110.87,20.16 167.19,23.72 12.15,0.91 27.28,4.75 30.08,18.73 -6.36,39.36 -18.39,77.52 -28.76,115.86 22.12,-21.32 31.63,-51.8 48.7,-76.84 15.19,-28.47 41.37,-49.73 54.09,-79.47 -38.67,-4.64 -77.86,-0.69 -116.42,-6.19 -63.38,-3.95 -126.52,-12.32 -190.11,-12.83l0 0zm20.68 150.69c31.28,13.46 68.18,17.36 93.62,41.94 13.52,11.34 16.22,29.74 24.24,44.63 9.22,-15.75 12.89,-33.74 18.22,-50.93 11.69,-40.28 27.67,-79.82 31.4,-121.93 -47.44,-5.5 -94.31,-15.64 -141.98,-19.65 -19.6,31.51 -21.49,70.01 -25.5,105.94l0 0zm221.85 35.29c-10.94,17.42 -18.73,36.56 -23.66,56.5 26.47,-32.78 53.23,-65.38 77.86,-99.58 13.53,-17.02 30.26,-32.78 36.56,-54.15 -9.51,-1.78 -19.08,-2.92 -28.59,-3.72 -22.58,32.48 -41.6,67.2 -62.17,100.95l0 0zm52.94 18.8c-25.84,33.46 -54.26,66.69 -66.69,108 29.91,-34.26 68.01,-59.82 97.29,-94.65 15.07,-18.68 38.39,-30.6 47.9,-53.58 -10.89,-4.52 -21.09,-11.74 -33.12,-12.43 -16.79,15.99 -30.31,35.07 -45.38,52.66l0 0zm-389.04 42.85c-9.17,29.8 -19.42,64.86 -52.37,76.09 0.8,13.87 3.09,27.56 6.48,41.08 29.62,-29.56 43.08,-70.53 65.43,-105.31 -6.53,-4.06 -13.01,-8.02 -19.54,-11.86l0 0zm184.44 32.32c-5.22,22.97 -13.41,47.1 -4.53,70.42 13.52,23.77 42.17,31.17 60.96,49.67 13.35,15.87 35.7,15.82 54.72,17.88 28.48,-1.2 53.57,-26.13 55.46,-54.66 -23.31,-7.11 -45.09,-18.05 -66.23,-29.97 -26.64,-18.96 -43.83,-47.84 -67.27,-69.9 -12.94,-1.55 -25.32,6.99 -33.11,16.56l0 0zm-143.01 23.49c-8.94,12.84 -16.1,30.14 -8.08,45.21 4.47,11.63 15.35,29.79 30.25,22.69 22.46,-9.46 45.66,-18.17 70.53,-17.13 -2.29,-20.57 -3.55,-41.26 -1.66,-61.88 -16.5,-3.79 -32.77,-8.31 -48.76,-13.7 -13.87,8.71 -29.16,15.01 -42.28,24.81l0 0zm-94.43 141.12c-13.29,17.82 -1.89,40.68 0.98,60.16 7.79,29.45 6.3,60.28 12.43,90.07 42.97,0.23 80.5,21.26 118.43,38.39 6.36,-20.91 14.95,-41.02 21.26,-61.88 -20.8,-5.16 -44.01,-1.66 -62.63,-13.81 -31.17,-17.47 -45.89,-59.18 -28.13,-91.21 9.34,-15.3 28.65,-16.62 44.4,-20.23 -5.9,-12.2 -12.09,-24.58 -13.35,-38.21 -0.85,-20.4 -25.95,-24.87 -38.27,-37.42 -21.03,22.63 -39.08,47.73 -55.12,74.14l0 0zm137.91 -39.08c-1.89,9.86 -1.37,21.95 6.94,28.94 21.03,18.33 48.47,25.67 74.25,34.66 28.31,8.25 58.04,15.76 87.72,11.81 14.67,-4.64 26.88,-14.38 39.37,-22.98 0.23,-5.27 0.45,-10.48 0.74,-15.7 -33.17,1.89 -63.88,-12.2 -93.28,-25.61 -21.43,-8.88 -34.95,-34.09 -60.22,-33.4 -20.8,-3.04 -40.56,8.93 -55.52,22.28l0 0zm-26.35 70.54c-24.07,10.88 -14.9,46.81 2.46,60.1 49.39,9.63 102.68,2.41 145.31,-25.61 -27.45,-13.81 -58.56,-17.25 -86.47,-29.74 -19.13,-8.82 -41.08,-8.25 -61.3,-4.75l0 0zm62.05 161.29c-2.52,12.26 -2.98,25.66 -9.68,36.67 -8.66,0.8 -17.82,1.66 -25.79,-2.3 -42.05,-16.56 -78.03,-52.59 -126.05,-49.33 0.17,11.06 0.4,22.18 1.09,33.23 29.33,7.8 58.79,14.96 88.18,22.58 29.33,7.9 55.4,30.48 87.26,26.47 -2.52,-44.92 4.87,-88.92 13.47,-132.7 -12.72,20.05 -24.99,41.43 -28.48,65.38l0 0zm61.94 -24.13c-4.01,15.82 -5.68,32.09 -5.85,48.48 8.48,1.09 17.08,2.06 25.73,2.86 -2.35,-30.42 -2.41,-60.9 -3.27,-91.33 -13.18,9.05 -12.89,26.07 -16.61,39.99l0 0zm-1599.15 181.35c-28.76,13 -56.09,29.28 -86.11,39.59 -30.6,9.91 -56.27,29.79 -80.67,50.02 8.82,9.22 17.81,18.28 27.04,27.16 61.65,-4.41 116.25,-36.39 169.37,-65.15 26.98,-14.72 64.74,-14.44 81.53,-43.77 14.15,-15.82 1.6,-37.3 -2.29,-54.66 -34.15,20.11 -70.71,36.09 -108.87,46.81l0 0zm116.15 53.57c12.14,0.57 24.4,0.51 36.61,-0.12 -0.75,-6.76 -1.55,-13.46 -2.47,-20.11 -12.72,4.19 -24.12,11.46 -34.14,20.23l0 0zm-356.22 66.29c-0.4,3.5 -1.2,10.6 -1.6,14.1 20.74,3.43 42.23,6.07 62.57,-0.92 -1.89,-6.59 0.11,-15.36 -5.85,-20.05 -15.24,-19.71 -37.64,1.43 -55.12,6.87z"/>
    </g>
    <path class="fil0" d="M4356.18 1752.96c14.9,0.29 31.4,6.13 39.71,19.31 5.27,17.08 5.78,39.19 -9.06,51.85 -7.96,7.74 -20.91,14.56 -31.4,7.8 -28.76,-15.87 -23.6,-62.11 0.75,-78.96z"/>
    <path class="fil0" d="M3932.07 1943.19c15.36,-0.35 32.26,9.51 40.11,23.2 4.12,20.28 3.09,45.21 -13.98,59.53 -24.18,21.49 -66.52,-9.51 -57.81,-39.25 0.74,-19.71 13.52,-36.38 31.68,-43.48z"/>
    <path class="fil0" d="M4276.54 2143.38c33.92,-1.15 71.45,-6.53 101.24,13.92 17.02,11.35 40.45,27.39 36.79,50.77 -6.42,17.24 -16.62,32.89 -24.7,49.39 -15.7,29.28 -45.38,46.01 -69.21,67.61 -29.28,25.61 -67.5,36.38 -101.65,53.45 -28.13,15.02 -58.96,23.95 -87.43,38.34 -30.03,15.12 -65.49,14.61 -96.95,4.58 -13.81,-9.74 -24.69,-23.66 -32.31,-38.68 -7.45,-24.46 4.35,-51.1 19.42,-70.24 38.39,-35.98 85.83,-60.33 130.81,-86.98 45.38,-21.02 80.56,-57.75 123.99,-82.16z"/>
    <path class="fil0" d="M3639.75 2443.9c-11.75,-33.12 -4.01,-79.87 32.37,-92.99 37.3,-0.06 83.42,6.18 101.64,43.77 7.97,10.09 1.15,21.89 -2.69,32.09 -8.6,-2.92 -17.02,-6.02 -25.44,-9.17 -2.41,-10.94 -5.04,-21.89 -7.74,-32.72 -14.03,-4.58 -28.59,-6.64 -43.25,-6.99 -16.22,18.91 -23.32,46.36 -13.53,69.96 5.73,18.62 24.99,26.53 41.03,34.15 -0.29,5.85 -0.63,11.69 -0.92,17.59 -10.54,-0.11 -22.4,3.15 -31.8,-3.26 -20.22,-13.01 -44.52,-26.76 -49.67,-52.43z"/>
    <path class="fil0" d="M3035.61 3799.3c-8.25,-21.25 -1.2,-45.2 17.19,-58.67 5.73,3.84 11.23,7.96 16.62,12.38 0.86,13 -4.82,26.24 -0.17,39.02 10.77,33.4 21.94,66.86 24.63,102.15 6.76,37.88 -29.5,69.1 -19.99,106.69 9.11,26.59 23.43,51 38.56,74.66 13.06,18.33 10.48,42 17.24,62.68 4.36,17.48 13.3,39.08 -2.46,53.63 -6.76,10.71 -19.65,9.97 -30.65,9.45 5.9,-36.95 -5.79,-72.59 -14.04,-108.06 -18.11,-36.61 -47.56,-70.64 -49.68,-113.1 6.76,-30.77 25.96,-59.24 23.78,-91.9 -3.04,-30.43 -9.8,-60.45 -21.03,-88.93z"/>
    <path class="fil0" d="M3149.06 3981.39c12.43,-0.34 24.98,0.06 37.41,1.6 7.45,31.69 25.27,60.34 27.62,93.23 5.22,32.83 2.18,66.12 -1.32,98.95 -3.2,43.66 23.27,81.76 28.77,123.81 -9.69,0.18 -19.77,2.24 -29,-1.43 -13.63,-22.52 -20.85,-48.13 -30.99,-72.25 -11.81,-29.05 -4.59,-60.73 -1.26,-90.64 2.29,-31.52 1.14,-64.17 -10.37,-93.97 -7.34,-19.65 -15.13,-39.13 -20.86,-59.3z"/>
   </g>
  </g>
 </g>
</svg>
