<?xml version="1.0" encoding="UTF-8"?>
<!DOCTYPE svg PUBLIC "-//W3C//DTD SVG 1.1//EN" "http://www.w3.org/Graphics/SVG/1.1/DTD/svg11.dtd">
<!-- Creator: CorelDRAW 2020 (64 Bit) -->
<svg xmlns="http://www.w3.org/2000/svg" xml:space="preserve" width="85mm" height="54mm" version="1.1" style="shape-rendering:geometricPrecision; text-rendering:geometricPrecision; image-rendering:optimizeQuality; fill-rule:evenodd; clip-rule:evenodd"
viewBox="0 0 8500 5400"
 xmlns:xlink="http://www.w3.org/1999/xlink"
 xmlns:xodm="http://www.corel.com/coreldraw/odm/2003">
 <defs>
  <style type="text/css">
   <![CDATA[
    .fil0 {fill:#FEFEFE;fill-rule:nonzero}
   ]]>
  </style>
 </defs>
 <g id="Camada_x0020_1">
  <metadata id="CorelCorpID_0Corel-Layer"/>
  <g id="_1618359653472">
   <g id="__x0023_ffffffff">
   </g>
   <g id="__x0023_293e4fff">
    <g>
     <path class="fil0" d="M1226.32 2258.66c-2.36,-43.71 -7.33,-91.26 17.1,-130.27 13.96,6.81 27.84,13.7 41.62,20.68 -3.93,-101.12 13.79,-201.55 40.84,-298.67 41.44,-154.35 103.65,-302.5 178.08,-443.77 68.58,-124.34 146.07,-246.32 250.86,-343.43 7.76,-8.81 18.76,-12.48 30.36,-9.86 46.16,5.24 93.97,3.23 137.86,-13.26 25.22,-8.55 34.03,-36.13 45.37,-57.59 19.29,0.44 39.35,-2.97 58.11,2.44 49.13,40.66 71.64,102.61 91.01,161.33 21.2,65.1 23.12,135.42 12.48,202.69 -8.12,32.29 20.85,55.15 40.48,76.09 13.79,16.49 34.64,22.43 54.97,26.35 8.03,-32.28 -6.72,-63 -17.27,-92.66 43.8,-5.15 69.89,35.25 79.92,71.98 88.04,-71.28 162.82,-157.4 253.04,-226.07 25.83,-21.99 66.14,-20.51 91.79,0.96 33.94,27.39 48.95,69.8 67.36,107.76 40.83,-21.29 76.69,-54.36 123.38,-62.83 21.55,-5.58 42.05,5.76 61.42,13.61 40.23,-106.71 78.88,-214.03 120.59,-320.22 22.77,4.8 45.89,8.21 69.01,11.43 -28,101.57 -65.26,200.42 -97.28,300.68 20.15,-1.31 41.36,-6.81 61.16,0 15.1,8.64 24.96,23.65 36.21,36.38 24.52,0.44 52.35,3.41 71.38,-15.61 28.62,-24.7 66.4,-44.07 105.23,-35.78 36.2,9.16 72.07,25.22 98.94,51.66 17.45,16.58 10.73,42.49 12.04,63.78 -3.93,119.62 19.81,242.83 85.77,344.39 29.23,48.25 62.65,95.2 107.06,130.71 23.04,-2.71 51.66,5.14 68.93,-14.66 27.84,-28.1 53.23,-58.9 85.51,-82.37 44.76,-38.83 102.09,-63.35 138.47,-111.42 27.92,-104.62 32.72,-214.56 66.84,-317.87 37.08,-130.53 99.82,-252.51 177.74,-363.15 77.56,-94.58 183.23,-165.87 300.93,-199.72 51.75,-13.88 103.05,-41.01 158.02,-32.46 91.7,12.56 182.19,-12.57 271.45,-29.84 107.84,-29.06 218.22,-49.91 330.08,-53.49 71.37,0.18 143.36,-7.68 212.03,-27.75 146.06,-48.42 281.91,-126.52 433.39,-158.36 92.05,-21.47 186.98,-22.08 280.43,-34.55 116.05,-14.23 238.38,5.06 349.1,-40.4 16.67,45.37 61.17,68.58 105.49,79.57 53.49,-60.73 102.79,-126.6 167.36,-176.42 87.42,-56.02 196.84,-42.58 295.52,-39.36 34.12,16.15 48.6,57.33 76.96,81.76 24.52,-15.53 42.67,-38.48 65.09,-56.63 32.03,-13.87 67.45,-2.09 101.04,-5.67 74.43,-6.37 149.82,-5.84 222.85,-23.38 35.69,-8.03 61.25,-35.95 90.57,-55.76 32.89,-25.04 71.55,-43.8 112.99,-48.77 40.23,-4.63 78.53,11.69 117.71,17.89 105.49,26.96 212.99,45.28 319.96,65.35 79.14,17.28 161.16,21.46 238.38,47.38 52.78,17.71 106.62,32.72 157.84,54.79 -2.62,226.51 -0.79,453.11 -0.87,679.71 -27.05,-31.59 -55.41,-64.83 -94.94,-80.89 -56.63,-24.34 -119.53,-14.39 -179.22,-16.4 -101.21,-4.97 -187.24,58.72 -264.46,115.96 -65.7,45.63 -126,105.84 -207.4,121.72 -56.11,9.16 -117.19,14.66 -170.24,-10.03 -29.31,-12.22 -46.85,-49.3 -32.11,-78.71 13.09,-22.77 39.01,-33.33 62.48,-42.32 75.21,-25.65 155.66,-14.74 233.49,-19.8 0.17,-19.28 1.22,-38.91 -2.18,-58.11 -59.07,-4.19 -118.58,-1.66 -177.74,-3.23 -70.76,0.52 -141.7,-4.97 -212.37,0.7 -0.09,21.98 -1.84,44.15 1.65,65.96 9.77,10.56 21.12,19.55 31.85,29.14 -21.2,26.44 -43.54,57.94 -32.63,93.89 23.73,56.63 74.34,107.67 138.12,113.52 74.43,7.33 150.08,4.97 223.81,-8.29 79.92,-19.2 144.66,-72.86 212.46,-116.31 62.21,-39.09 118.93,-96.24 194.93,-105.58 52.17,-2.79 105.66,-5.06 156.7,8.47 26.79,8.11 41.19,37.78 41.45,64.21 1.83,28.45 -23.21,49.04 -44.59,63.18 -81.15,43.1 -175.38,21.02 -262.81,29.05 -0.61,22.77 -0.35,45.46 1.4,68.15 127.22,3.66 254.61,2.61 381.91,1.48 0,24.52 0.09,49.12 0.35,73.55 -63.52,-43.27 -145.54,-40.31 -218.57,-31.49 -0.44,20.24 0.17,40.31 1.22,60.37 43.36,6.64 87.25,1.49 130.88,3.5 0.09,10.73 0,21.46 -0.17,32.02 -94.41,4.01 -189.35,-5.06 -283.67,2.62 -56.19,7.76 -104.26,40.31 -140.65,82.45 -50.7,-51.04 -116.05,-92.66 -190.39,-92.23 -69.71,2.27 -141.26,-5.84 -208.88,15.88 -54.36,14.23 -103.4,55.93 -118.41,110.9 -2.88,97.55 -10.21,194.93 -9.42,292.65 28.88,6.2 58.46,5.15 87.86,5.06 8.73,-18.76 10.04,-55.49 38.66,-52.09 262.02,-0.26 523.96,0 785.98,-0.08 13.26,0.52 28.79,-0.09 38.83,10.46 6.37,13.18 8.2,27.93 11.95,41.89 24.78,0.52 49.65,0.43 74.6,-0.35 -0.26,21.46 -0.17,42.93 0.44,64.3 -128.26,-3.05 -256.53,-5.32 -384.7,-9.07 -7.16,22.34 -6.55,45.98 -5.67,69.1 68.23,0.27 135.94,8.99 204.17,8.91 35.42,-1.31 71.99,13.26 92.92,42.57 14.32,19.9 15.19,52.01 -5.49,67.89 -14.4,13.7 -35.51,9.07 -53.31,10.29 -102.79,-1.13 -205.84,4.28 -308.53,-0.34 -4.45,-14.75 0.26,-24.52 14.13,-29.23 23.47,-5.68 47.99,-3.84 71.99,-5.24 0.26,-22.69 0.34,-45.37 0.08,-68.06 -71.46,-4.88 -143.09,-0.96 -214.47,-4.01 -18.32,-0.53 -36.64,-8.55 -54.79,-3.58 -2.79,22.34 -2.01,44.94 -1.13,67.27 22.77,4.72 61.16,-8.37 67.96,22.43 8.9,20.24 -19.1,11.95 -28.79,15.18 -93.36,0.35 -186.64,1.05 -280,1.13 -21.37,0.35 -49.82,-2.53 -57.67,-26.26 -10.21,-30.28 15.97,-56.19 41.18,-68.06 81.76,-43.36 177.3,-31.67 266.39,-32.02 6.28,-40.66 -40.66,-62.56 -74.34,-65.35 -107.15,-0.79 -214.21,-3.23 -321.27,-3.14 -1.83,124.51 -8.29,248.93 -6.37,373.44 27.92,0.87 55.84,1.22 83.85,1.31 14.22,-22.16 28.27,-54.27 60.03,-51.48 259.06,-1.22 518.29,-1.92 777.35,-1.57 28.35,-1.22 36.12,31.5 42.31,53.05 23.91,0.09 47.82,0.18 71.81,0.35 0.09,56.28 -0.08,112.47 0.18,168.66 -38.31,-68.4 -119.28,-97.46 -193.18,-105.57 -198.07,-0.96 -396.05,-1.14 -594.11,-2.53 -74.43,-0.79 -153.13,14.92 -211.51,63.87 -31.58,25.56 -45.54,67.09 -43.88,106.79 0.61,76.18 -4.54,152.44 -1.58,228.52 25.74,20.51 63,7.68 93.71,11.35 8.82,-15.62 9.6,-46.34 33.42,-44.59 258.45,-1.14 516.98,0.09 775.52,-0.53 14.13,0.88 30.1,-1.3 42.49,7.33 17.36,8.64 19.54,29.84 27.13,45.72 23.91,-0.26 47.91,-0.95 71.9,-1.3 -0.26,41.35 -0.26,82.63 0.09,123.9 -300.15,-2.01 -600.4,1.3 -900.55,0.78 -33.15,2.36 -39.52,-35.77 -50.34,-58.9 -28.36,-1.04 -56.72,-1.04 -84.9,-0.95 -5.85,23.82 -7.42,48.33 -6.2,72.77 1.75,41.79 -2.44,84.02 6.02,125.38 28.62,0 57.5,-0.53 85.6,-6.98 6.11,-21.73 13.09,-51.48 41.45,-51.74 162.72,-0.27 325.63,-1.22 488.44,2 -205.04,40.93 -409.39,85.77 -614.09,128.62 -0.61,66.57 -4.45,133.41 -0.61,199.98 28.44,1.48 56.89,1.57 85.33,2.01 5.59,-18.06 3.84,-44.24 23.13,-54.01 60.81,-10.91 122.59,-1.31 183.75,-6.55 206.79,-0.26 413.67,-1.22 620.55,-0.87 33.94,-2.53 41.71,34.47 46.94,59.95 24.96,0.08 50.09,0.08 75.22,0.52 0.17,25.22 0.17,50.43 0.17,75.65 -25.3,0.09 -50.43,-0.61 -75.56,-1.05 -7.85,18.24 -12.83,49.13 -38.65,47.9 -264.82,-0.78 -529.81,-1.22 -794.62,-2.35 -33.95,4.01 -33.33,-37.17 -33.6,-60.12 -24.69,-10.73 -52.44,-8.99 -78.44,-5.59 -30.01,9.43 -17.8,47.47 -20.5,70.94 3.4,56.11 -9.08,114.04 6.19,168.75 29.32,-0.52 58.64,-0.61 88.04,0.35 7.85,-16.14 12.13,-33.59 16.84,-50.96 129.31,-4.27 258.79,-1.65 388.19,-3.05 136.82,-4.19 273.63,-2.44 410.53,-3.49 29.84,-3.05 47.21,23.04 52.53,48.95 26.44,7.24 53.92,8.55 81.32,9.34 -1.57,6.45 -4.71,19.37 -6.28,25.82 -127.57,4.54 -255.57,-0.87 -383.31,2.01 -0.09,27.57 -5.41,56.72 4.1,83.24 73.65,3.93 147.72,0.61 221.45,3.23 36.91,2.96 74.08,27.57 85.16,63.78 1.14,30.1 -24.69,57.24 -55.14,55.41 -90.48,0.17 -180.97,1.13 -271.36,-1.31 -175.56,-6.2 -351.55,-0.53 -527.28,-4.1 -8.29,-20.16 -11.25,-41.8 -17.62,-62.48 -29.06,-4.1 -58.46,-1.39 -87.52,1.14 -5.93,73.99 -7.06,148.15 -6.89,222.41 2.62,3.58 7.76,10.82 10.38,14.48 30.37,0.09 60.82,0.53 91.18,-2.35 1.92,-14.31 3.67,-28.53 5.5,-42.93 30.98,-10.91 64.04,-7.07 96.33,-7.51 232.79,-0.87 465.67,-2 698.55,-2.79 15.18,0.61 33.94,-1.31 44.76,12.13 8.73,12.3 14.49,26.35 23.3,38.65 23.65,5.15 48.08,4.02 72.16,5.41 -0.44,54.1 1.4,108.2 -2.53,162.21 -34.03,-44.33 -80.88,-84.2 -137.51,-93.28 -64.22,-4.36 -128.79,-6.63 -193.1,-2.09 -67.71,6.8 -138.21,35.42 -174.16,96.42 -25.3,-25.57 -53.13,-49.04 -85.33,-65.53 -56.19,-30.8 -122.33,-31.94 -184.71,-32.37 -61.96,1.92 -128.88,6.1 -180.01,45.19 -39,27.49 -82.02,65.62 -79.75,117.88 1.22,82.28 -6.54,164.39 -4.62,246.76 2.44,3.23 7.24,9.77 9.59,13 30.19,-1.57 62.13,4.71 91.27,-3.49 5.32,-13.96 8.46,-28.71 12.39,-43.19 277.03,-10.3 554.59,-4.37 831.88,-7.33 5.93,6.28 11.95,12.65 18.06,19.02 4.19,10.64 3.14,24.95 13.79,31.93 20.76,1.49 41.79,0.09 62.73,-0.52 -1.22,165.26 1.57,330.52 -1.48,495.78 -40.66,-33.16 -90.22,-64.66 -145.02,-57.15 -26,1.92 -57.24,15.09 -78.7,-6.2 -21.64,-22.95 -10.3,-56.71 -11.34,-84.81 -25.22,12.48 -59.07,16.4 -73.03,-13.79 -23.3,-51.83 -79.84,-90.04 -137.6,-74.25 -1.66,64.05 -43.11,118.49 -88.65,159.94 -50.09,45.02 -108.2,80.53 -168.84,109.33 -50.35,21.9 -103.04,39.87 -148.42,71.54 -151.73,102.7 -318.39,181.93 -490.45,244.14 -114.48,32.98 -231.4,63.17 -351.2,65.44 -86.64,1.75 -174.42,2.1 -259.4,-17.45 -98.78,-21.81 -196.15,-49.21 -295.27,-69.45 -66.58,-13.79 -134.81,-5.59 -202.17,-7.33 -64.31,1.31 -127.56,-11.78 -191,-20.16 -92.22,-11.17 -182.1,-35.42 -272.58,-55.84 -215.78,-51.48 -432.25,-99.73 -647.68,-152.52 -159.24,-41.53 -320.23,-77.05 -476.5,-129.14 -98.07,-34.64 -195.53,-71.37 -291.86,-110.55 -38.04,-21.9 -25.3,-69.89 -24.43,-105.84 6.37,-38.3 -22.86,-67.62 -37.44,-100.08 -52.69,-104.7 -91.96,-215.6 -137.94,-323.27 -38.66,-113.6 -86.82,-224.77 -106.8,-343.78 -7.85,-61.86 -44.68,-113.78 -72.16,-168.14 -49.56,-90.57 -85.86,-188.21 -109.77,-288.63 -89.43,-50.09 -165.78,-120.33 -237.68,-192.57 -19.54,-15.62 -14.39,-38.57 -7.59,-59.43 -72.24,-65.78 -171.62,-101.21 -225.98,-186.02 -27.66,-34.03 -28.1,-79.4 -33.86,-120.67 -90.57,68.75 -193.61,118.49 -295.27,168.48 -131.14,57.5 -204.26,193.36 -330.77,257.84 -83.51,42.06 -177.92,52.62 -269.79,59.68 -187.25,7.42 -382.35,-4.62 -554.24,-85.68 -69.37,-45.29 -125.21,-108.63 -176.25,-173.29 -120.15,-157.58 -201.56,-344.39 -237.77,-539.14 -12.91,-67.01 -16.75,-135.42 -14.74,-203.65 -16.76,-5.93 -35.87,-8.11 -50,-19.72 -11.17,-21.29 -11.52,-45.98 -14.66,-69.37l0 0zm4579.95 1438.12c38.57,4.1 77.57,3.84 116.31,3.14 18.85,0.44 23.21,-21.72 32.29,-34.11 12.74,-26.88 40.92,-46.33 71.11,-45.64 363.67,-0.52 727.35,-1.74 1091.11,-2.26 48.86,-0.53 98.77,-9.52 147.11,0.61 35.07,10.29 47.64,48.86 51.3,81.4 40.14,0.7 80.45,2.45 120.5,-1.57 1.75,-188.46 -0.26,-376.93 -1.48,-565.4 -12.3,-4.1 -24.61,-8.9 -37.7,-8.55 -190.3,-0.96 -380.42,-8.73 -570.72,-9.86 -8.64,34.73 -8.99,70.67 -3.58,105.84 118.75,6.36 237.59,11.34 356.26,17.8 49.21,6.98 98.77,35.68 119.71,82.36 12.91,26.53 9.77,60.91 -11.43,82.37 -19.55,25.48 -54.8,22.78 -83.24,23.21 -162.64,-0.96 -325.28,3.93 -487.92,1.14 -3.41,-5.68 -10.39,-16.93 -13.79,-22.52 30.63,-47.64 94.93,-27.39 141.96,-35.86 1.49,-35.07 2.1,-70.32 -1.13,-105.4 -117.97,-5.85 -236.2,-6.37 -354.25,-6.72 -21.56,2.1 -40.84,-14.4 -62.13,-8.81 -15.53,34.81 -11.52,74.34 -4.36,110.72 26.53,1.84 53.23,1.84 79.92,0.61 11.26,11.35 20.33,24.52 28.28,38.4 -4.19,5.06 -12.48,15.27 -16.67,20.33 -162.56,1.3 -325.11,1.91 -487.66,2.27 -40.66,2.44 -90.66,-28.54 -82.02,-74.35 13,-50.78 64.39,-76.69 109.15,-94.75 119.28,-43.54 248.24,-34.56 372.84,-31.5 4.27,-12.91 13.7,-28.01 4.36,-41.1 -29.05,-38.04 -76.43,-63.35 -124.86,-61.6 -164.82,0.26 -329.64,-5.58 -494.47,-4.71 -8.29,48.34 -4.45,97.46 -6.02,146.24 -2.62,127.82 -0.61,255.74 -7.68,383.39 2.1,18.15 -6.63,41.18 8.9,54.88l0 0zm22.69 -871.84c479.11,37.08 958.05,74.26 1437.25,109.51 44.84,9.33 55.58,59.68 57.32,98.5 40.66,0.7 81.67,2.71 121.81,-5.58 2.97,-82.89 -4.01,-165.78 -3.23,-248.76 -1.48,-15.79 4.28,-35.6 -11.34,-46.07 -35.34,-3.49 -71.11,-1.92 -106.45,0.79 -19.11,23.99 -17.71,66.92 -54.97,74.51 -49.13,5.76 -99.38,1.83 -148.07,-6.54 -14.66,-45.55 -9.77,-93.8 -5.85,-140.66 40.92,-6.89 82.63,-7.85 123.73,-14.22 18.41,-4.01 36.73,1.48 54.53,6.2 11,21.46 19.89,43.97 24.78,67.7 41.45,3.58 85.68,9.17 124.86,-8.46 -1.48,-124.95 0.87,-250.16 -6.63,-374.84 -48.34,-11.34 -100.08,-4.45 -146.32,12.3 -3.06,24.08 -0.09,51.39 -16.58,71.37 -17.37,19.55 -44.15,26.18 -68.93,29.93 -464.19,67.28 -928.65,132.45 -1392.58,201.21 -10.73,44.06 -6.1,89.78 -6.28,134.54 1.57,14.66 4.19,37.44 22.95,38.57l0 0zm13.09 1595.79c37.43,2.53 75.12,0.09 112.38,-3.84 -0.96,-21.12 -7.33,-44.68 5.24,-63.7 11.69,-19.8 34.72,-30.89 57.67,-28.27 235.68,3.93 471.43,2.18 707.02,8.64 177.56,2.1 355.12,2.18 532.68,5.06 42.32,-0.43 29.67,50.17 37,77.4 46.59,0.35 93.19,1.13 139.69,-2.36 7.24,-121.28 0.61,-242.91 1.75,-364.37 -38.39,-10.21 -78.88,-12.83 -118.23,-7.59 -22.95,7.41 -11.17,31.5 -4.97,46.77 -16.32,34.29 -54.97,46.5 -90.49,44.58 -173.28,-6.63 -346.83,-5.84 -520.2,-9.68 -11.61,-82.81 -36.48,-165.44 -84.03,-234.98 -67.71,-93.36 -182.1,-141.79 -294.39,-152.08 -104.45,-7.85 -212.82,-11.08 -312.9,24.6 -75.12,25.05 -147.19,72.6 -182.53,145.63 -25.22,44.33 -14.4,96.94 -20.59,145.28 -4.45,110.81 -4.63,221.71 -1.92,332.43 -3.23,21.29 18.5,34.47 36.82,36.48l0 0zm-16.06 -2553.75c37.87,3.14 75.92,1.14 113.87,0.18 10.38,-28.62 23.47,-58.99 52.18,-73.73 24.17,-17.54 53.83,-2.71 78.96,4.71 124.25,38.56 248.68,76.87 373.1,114.91 67.19,20.33 133.32,44.15 201.99,59.07 -191.96,5.41 -383.74,3.49 -575.79,5.41 -35.51,-0.26 -78.35,0 -102.08,-31.15 -18.5,-16.23 -6.55,-48.69 -28.53,-61.6 -37.7,-1.74 -75.74,-1.48 -113.26,1.66 -3.23,3.05 -9.68,8.99 -12.91,11.95 -3.76,101.22 0.08,202.87 -0.62,304.17 -2.53,17.89 10.21,37.61 29.59,36.65 34.98,1.66 70.15,2.79 105.05,0.26 25.21,-16.23 11.69,-62.74 45.02,-70.42 53.49,-14.39 109.85,-6.02 164.65,-8.37 124.77,-6.63 249.89,-3.32 374.84,-4.71 244.31,-1.22 488.62,-2.27 733.02,-3.06 13.09,1.14 29.84,-1.57 39,10.47 10.21,18.94 14.92,40.14 21.03,60.56 31.94,8.46 65.18,9.51 97.99,7.06 10.9,-0.08 25.48,-6.1 23.12,-19.63 2.44,-92.84 0.09,-185.85 1.14,-278.77 -1.75,-16.23 4.36,-40.58 -17.19,-45.46 -35.17,-4.1 -71.03,-2.27 -105.58,5.06 -6.02,38.91 -33.86,78.18 -75.82,81.23 -152.87,6.02 -308.45,-15.71 -449.28,-77.65 125.91,-29.5 251.91,-58.9 378.08,-87.08 29.92,-6.46 59.42,-15.54 90.22,-17.37 34.11,12.48 41.7,53.14 66.14,75.83 29.31,2.18 58.89,1.22 88.21,-1.05 11.69,-0.26 26.52,-7.94 23.21,-21.9 -0.35,-107.59 0.43,-215.17 0.78,-322.75 -0.78,-12.74 2.62,-31.94 -15.18,-33.51 -37.26,-6.63 -75.91,-5.32 -113.6,-3.14 -22.17,20.85 -0.88,56.1 -18.41,79.84 -20.77,36.64 -66.4,40.75 -103.14,49.3 -235.67,55.93 -470.64,114.39 -706.32,170.23 -19.89,5.41 -40.92,6.37 -60.29,-1.14 -148.33,-46.68 -297.71,-90.22 -445.43,-138.29 -40.57,-14.14 -17.1,-67.36 -46.07,-91.62 -40.05,-0.79 -80.1,-1.57 -120.15,-1.57 -14.4,88.21 -1.66,178.26 -6.89,267.17 1.3,15.71 -7.07,45.37 15.35,48.25l0 0zm-7.76 -903.16c2.53,32.46 -5.41,66.83 6.37,97.9 41.36,2.61 82.98,0.08 124.42,-1.05 13.7,-2.44 11.34,-17.98 15.1,-27.83 4.27,-28.54 30.27,-61.78 62.47,-51.48 138.21,29.05 277.38,53.83 414.98,85.77 -138.56,32.19 -275.98,69.8 -414.89,100.34 -42.06,2 -55.06,-40.49 -61.17,-73.64 -45.37,-18.33 -98.77,-13.7 -145.8,-3.23 -0.17,111.94 0.09,223.89 0.26,335.84 0.7,10.47 -1.13,29.31 14.49,29.05 40.31,2.97 81.4,2.88 121.54,-2.79 23.82,-12.48 10.56,-49.3 33.59,-63.17 18.85,-13.96 41.27,-22.6 63.79,-29.06 194.57,-46.5 389.5,-91.53 584.16,-137.77 34.12,-8.2 68.67,-17.1 104.18,-16.49 174.68,0.17 349.45,-1.49 524.14,-1.75 40.13,3.75 54.97,50.17 58.81,84.46 40.57,-1.74 82.54,5.41 121.89,-7.59 -0.96,-103.39 -1.13,-206.7 -0.87,-310.1 -0.26,-17.71 0.26,-35.77 -4.11,-53.13 -41.35,-6.9 -84.19,-2.53 -125.9,-0.44 -0.26,31.67 -0.96,82.02 -42.23,86.64 -185.85,2.36 -371.79,-0.35 -557.73,0.88 -39.18,1.48 -76.7,-11.17 -114.65,-18.76 -183.23,-39.44 -366.47,-78.88 -549.79,-118.23 -29.14,-8.47 -63.52,-13.09 -83.32,-38.66 -16.67,-20.24 -18.76,-47.29 -24.7,-71.72 -42.75,-9.51 -86.38,-2.88 -129.13,2.18 0,67.97 0,136.03 4.1,203.83z"/>
    </g>
    <g>
     <path class="fil0" d="M2524.22 861.82c-30.63,-19.81 -55.49,-49.48 -67.97,-84.03 16.14,20.33 28.79,44.85 52.79,57.15 27.83,18.41 62.39,18.67 94.41,16.06 -0.96,-12.83 -2.01,-25.66 -3.06,-38.57 4.02,9.51 8.03,19.11 12.04,28.62 38.92,-19.28 79.67,-46.24 125.21,-39.26 28.88,7.24 54.54,23.82 75.91,44.15 52.44,-23.04 111.25,2.61 145.19,44.85 -34.2,-23.21 -73.03,-53.49 -117.09,-40.05 -39.96,16.23 -69.63,53.31 -113.78,60.73 -41.27,6.54 -78.27,-17.98 -104.88,-47.12 -31.06,12.82 -69.28,16.4 -98.77,-2.53l0 0zm176.78 27.57c41.44,4.8 73.99,-25.57 108.8,-42.49 -30.28,-22.34 -68.4,-42.41 -107.14,-32.81 -27.75,9.16 -49.3,30.1 -73.04,46.16 22.34,12.56 44.5,29.49 71.38,29.14z"/>
    </g>
    <path class="fil0" d="M5960.8 4108.88c-24.43,-17.45 -24.52,-52.35 -15.62,-78.09 26.96,-57.24 90.05,-86.12 150.34,-92.05 96.07,-7.94 192.57,-2.97 288.81,-1.75 43.37,4.45 91.18,14.4 121.9,47.64 22.77,41.1 31.93,88.74 32.8,135.33 -59.85,10.82 -120.93,2.01 -181.31,4.02 -113.61,0.08 -227.04,-4.02 -340.64,-3.41 -19.02,-0.96 -41.45,3.23 -56.28,-11.69z"/>
    <path class="fil0" d="M6435.9 2752.7c172.59,-25.22 345.18,-51.4 518.2,-74.17 6.28,36.12 15.44,76.96 -1.57,111.25 -172.33,-7.51 -344.39,-26.87 -516.63,-37.08z"/>
    <path class="fil0" d="M7614.26 4221.87c-25.3,1.93 -54.71,-12.99 -58.72,-39.96 -2.36,-28.88 22.77,-51.74 47.29,-62.3 45.72,-18.06 95.54,-7.76 143.1,-5.84 47.81,5.06 96.33,2.88 143.88,10.99 41.53,13.27 55.58,61.52 53.66,100.96 -109.76,-1.92 -219.53,-2.27 -329.21,-3.85z"/>
    <path class="fil0" d="M7555.45 2487.88c-23.38,-46.86 28.45,-99.91 76,-94.67 241.43,4.71 482.95,3.84 724.38,6.8 34.12,-1.74 70.07,28.8 62.91,65.01 -1.57,27.66 -26.52,47.46 -53.75,43.8 -253.73,-4.27 -507.64,-3.4 -761.46,-5.58 -16.32,-1.57 -38.65,1.04 -48.08,-15.36z"/>
    <path class="fil0" d="M7579.27 1593.88c-21.46,3.49 -34.2,-19.46 -25.82,-37.78 6.71,-45.73 52.61,-70.77 95.1,-74.78 76,-9.51 157.23,-15.53 229.92,13.96 39.26,16.67 55.05,61.08 57.5,100.78 -118.93,-0.26 -237.86,-1.66 -356.7,-2.18z"/>
    <path class="fil0" d="M7811.37 3088.01c-0.35,-4.71 -0.61,-9.42 -0.53,-14.22 64.14,-3.84 125.74,-24.69 188.47,-37.34 166.13,-35.08 331.13,-76.18 497.7,-109.42 0,30.8 0,61.51 -0.79,92.23 -21.81,0.08 -43.62,0 -65.26,0 -7.16,15.88 -12.31,32.89 -22.08,47.38 -14.92,19.19 -41.53,11.25 -62.12,13.08 -176.87,-1.92 -353.91,3.67 -530.68,-1.57l-4.71 9.86z"/>
    <path class="fil0" d="M8029.33 1599.29c-0.7,-60.3 47.2,-116.84 108.19,-121.02 95.72,-4.37 191.79,-1.92 287.68,-4.02 30.36,0.44 54.53,-20.42 74.34,-41.1 -1.4,36.91 -1.05,73.82 -0.79,110.73 -24.34,-0.09 -48.68,-0.26 -72.94,-0.09 -0.09,28.45 -22.16,55.76 -51.92,54.36 -114.82,0.96 -229.74,0.96 -344.56,1.14z"/>
    <path class="fil0" d="M8042.24 4225.63c-1.22,-39.09 10.91,-87 52.44,-100.52 66.23,-9.94 133.76,-8.11 200.42,-14.92 47.21,-4.89 106.28,1.57 130.8,48.43 17.54,30.54 -15.01,62.56 -45.29,62.82 -112.73,2.71 -225.55,2.53 -338.37,4.19z"/>
   </g>
  </g>
 </g>
</svg>
