<?xml version="1.0" encoding="UTF-8"?>
<!DOCTYPE svg PUBLIC "-//W3C//DTD SVG 1.1//EN" "http://www.w3.org/Graphics/SVG/1.1/DTD/svg11.dtd">
<!-- Creator: CorelDRAW 2020 (64 Bit) -->
<svg xmlns="http://www.w3.org/2000/svg" xml:space="preserve" width="85mm" height="54mm" version="1.1" style="shape-rendering:geometricPrecision; text-rendering:geometricPrecision; image-rendering:optimizeQuality; fill-rule:evenodd; clip-rule:evenodd"
viewBox="0 0 8500 5400"
 xmlns:xlink="http://www.w3.org/1999/xlink"
 xmlns:xodm="http://www.corel.com/coreldraw/odm/2003">
 <defs>
  <style type="text/css">
   <![CDATA[
    .fil0 {fill:#FEFEFE;fill-rule:nonzero}
   ]]>
  </style>
 </defs>
 <g id="Camada_x0020_1">
  <metadata id="CorelCorpID_0Corel-Layer"/>
  <g id="_1798253936656">
   <g>
    <g>
     <path class="fil0" d="M4220.95 987.16c12.86,-7.37 27.45,-22.83 43.27,-13.29 908.69,582.24 1818.68,1162.75 2726.72,1746.08 -72.46,49.77 -147.59,95.49 -221.34,143.24 -473.67,303.84 -947.77,606.88 -1421.22,910.93 -367.55,234.27 -733.51,470.93 -1101.35,704.69 -484.07,-312.65 -968.14,-625.3 -1452.43,-937.51 -422.81,-274.36 -847.65,-545.84 -1269.88,-821.07 254.28,-166.22 511.3,-328.25 766.23,-493.38 643.43,-413.14 1286.64,-826.49 1930,-1239.69zm-138.91 634.11l0 0c-186.53,21.74 -366.47,93.69 -518.17,204.22 -149.97,107.78 -270.89,253.56 -354.98,417.68 -12.64,4.63 -10.98,20.73 -21.46,27.89 -1.3,11.12 -1.01,22.53 -4.48,33.3 -27.88,53.67 -45.65,112.18 -59.95,170.77 -15.32,52.37 -25.43,106.48 -29.77,160.87l-3.32 -3.1c-5.06,98.02 -9.75,197.06 5.49,294.51 31.57,237.24 140.65,463.27 306,636.14 181.25,192.8 430.91,319.58 693.64,351.65 169.61,20.74 344.29,5.57 506.61,-49.12 259.55,-85.31 484,-268.8 623.49,-503.21 45.65,-74.05 79.1,-154.45 110.31,-235.36l-2.46 -2.74c22.18,-62.7 38.43,-127.72 46.81,-193.74l2.46 2.38c19.79,-139.85 19.93,-283.25 -10.55,-421.66 -53.02,-253.91 -201.69,-484.72 -406.13,-643.35 -247.12,-194.11 -572.12,-281.52 -883.54,-247.13z"/>
    </g>
   </g>
   <g>
    <g>
     <path class="fil0" d="M3187.43 2271.06c10.48,-7.16 8.82,-23.26 21.46,-27.89 -6.21,11.42 -13.29,22.4 -20.88,32.94 3.47,9.75 10.62,18.42 22.11,17.27 193.67,-21.6 389.29,-24.13 583.68,-11.27 303.55,21.52 608.11,82.71 884.42,213.54 140.29,69.49 279.93,140.64 413.49,222.49 101.86,62.41 202.42,129.02 288.09,212.89 -8.38,66.02 -24.63,131.04 -46.81,193.74 -77.51,-83.94 -168.46,-154.45 -261.14,-220.91 -202.7,-142.16 -428.38,-251.53 -665.75,-322.03 -153.22,-55.99 -314.31,-87.34 -475.98,-106.7 -267.86,-32.15 -539.05,-26.66 -807.12,0 14.3,-58.59 32.07,-117.1 59.95,-170.77 3.47,-10.77 3.18,-22.18 4.48,-33.3zm436.11 29.11l0 0c-0.87,38.5 -0.8,77 -0.15,115.58 32.15,0.14 64.3,0.22 96.44,0 -0.5,-4.12 -1.59,-12.35 -2.09,-16.54 -22.54,-1.74 -45.15,-0.73 -67.69,-1.23 0,-10.84 -0.07,-21.6 -0.07,-32.36 20.58,-0.22 41.17,-0.22 61.83,0 -0.21,-5.06 -0.5,-15.18 -0.72,-20.3 -20.44,0.36 -40.89,0.36 -61.26,0.29 0.22,-6.79 0.65,-20.38 0.87,-27.17 21.46,0.15 42.98,0.08 64.51,0 0,-4.4 0,-13.29 0.07,-17.7 -30.63,-0.64 -61.19,-0.43 -91.74,-0.57zm-282.82 9.03l0 0c-0.28,36.77 0.94,73.54 0.58,110.31 8.02,0.07 16.04,0.21 24.06,0.43 1.3,-15.46 1.73,-30.85 1.8,-46.31 10.91,1.88 23.77,-1.08 33.16,5.78 9.1,11.49 12.21,26.3 17.92,39.59 8.81,-0.07 17.77,-0.15 26.65,-0.15 -7.15,-17.98 -14.45,-35.9 -21.52,-53.88 14.8,-12.29 19.93,-29.26 9.1,-46.09 -28.03,-16.04 -61.04,-10.48 -91.75,-9.68zm138.77 -6.79l0 0c1.31,37.85 -1.51,75.92 3.33,113.63 26.08,0 54.25,2.09 78.02,-10.69 31.13,-18.35 36.48,-69.79 6.5,-91.6 -25.07,-19.29 -58.66,-12.21 -87.85,-11.34zm292.21 5.05l0 0c-5.27,39.01 -9.82,78.17 -13.87,117.32 4.33,0.36 13,1.01 17.34,1.3 4.62,-22.32 6.57,-45.01 7.29,-67.76 1.3,-0.07 3.83,-0.22 5.13,-0.29 5.92,21.89 8.81,44.79 17.48,65.88 3.54,1.01 10.55,3.11 14.09,4.19 10.4,-24.2 18.93,-49.12 28.17,-73.75 1.37,25.57 0.73,51.36 4.55,76.79 4.05,-0.15 12.21,-0.58 16.26,-0.8 -0.43,-39.66 3.03,-79.75 -1.16,-119.19 -4.84,0.07 -14.37,0.29 -19.14,0.36 -14.74,23.04 -16.4,54.18 -35.47,73.83 -4.12,-25.86 -12.28,-50.71 -18.49,-76.07 -7.44,-0.58 -14.81,-1.23 -22.18,-1.81zm-548.22 16.47l0 0c-32.87,16.11 -38.14,63.43 -18.49,91.6 15.02,21.1 45.15,22.97 67.61,14.52 30.99,-15.31 38.22,-60.03 20.59,-87.84 -13.72,-23.04 -46.45,-30.77 -69.71,-18.28zm776.78 19.72l0 0c-1.88,31.57 -7.44,62.71 -10.83,94.13 29.54,2.24 58.8,7.59 88.42,9.61 0.21,-3.61 0.65,-10.91 0.86,-14.59 -20.66,-2.39 -41.32,-5.28 -61.91,-7.73 1.09,-9.25 2.24,-18.42 3.4,-27.6 18.85,3.18 37.93,5.42 57.07,6.58l0.36 -14.6c-18.2,-1.73 -36.34,-3.9 -54.32,-6.79 0.5,-7.8 1.08,-15.53 1.66,-23.26 20.15,2.03 40.16,5.06 60.24,8.09l0.51 -13.72c-27.67,-8.38 -56.85,-9.46 -85.46,-10.12zm200.1 140.15l0 0c8.96,2.6 17.92,5.13 27.02,7.66 2.74,-13.15 5.78,-26.3 9.03,-39.38 22.47,4.05 46.3,11.64 68.55,1.88 17.99,-5.41 25,-31.13 10.41,-44.06 -24.13,-23.19 -60.32,-24.56 -91.53,-29.84 -7.87,34.53 -13.94,69.57 -23.48,103.74zm134.87 36.26l0 0c8.24,2.67 16.62,5.49 25,8.24 4.48,-13.94 8.88,-27.89 13.36,-41.76 13.08,3.33 31.64,5.13 35.47,20.95 1.66,12.93 2.75,26.15 7.15,38.58 7.8,1.66 15.68,3.32 23.55,5.13 -1.66,-19.44 -1.88,-39.3 -10.33,-57.22 19.07,-2.02 30.2,-16.76 27.31,-35.75 -21.82,-27.24 -58.08,-32.22 -89.72,-40.6 -10.98,33.95 -20.88,68.34 -31.79,102.43zm174.67 -37.92l0 0c-33.44,23.98 -36.69,87.26 7.59,100.91 49.19,17.99 90.15,-50.42 63.35,-89.86 -14.52,-22.97 -50.2,-26.73 -70.94,-11.05zm109.08 131.54l0 0c13.8,23.34 41.25,35.69 67.62,37.71 13.29,-14.16 17.63,-35.54 28.03,-52.23 -13.87,-6.43 -27.81,-12.71 -41.83,-18.78 -1.8,5.78 -3.68,11.49 -5.56,17.27 4.84,1.66 14.59,4.98 19.43,6.64 -3.47,8.67 -3.39,23.12 -14.3,25.57 -20.23,-2.74 -39.88,-20.87 -37.78,-42.4 2.67,-19.43 16.83,-41.18 38.65,-40.6 18.71,-2.67 32.14,12.93 48.68,18.71 2.1,-3.25 6.29,-9.68 8.39,-12.93 -17.13,-16.4 -41.18,-26.51 -64.95,-24.92 -38.57,3.61 -65.16,51.87 -46.38,85.96zm105.26 55.92l0 0c6.64,3.46 13.36,6.93 20.08,10.47 7.94,-13.87 16.4,-27.38 26.22,-39.95 8.09,5.78 15.6,12.28 22.47,19.58 0.94,14.52 -2.89,28.75 -3.4,43.27 1.38,9.54 13.15,10.4 19.8,14.95 4.62,-19.14 6.86,-38.79 6.79,-58.44 19.14,0.29 39.51,-15.46 32.36,-36.33 -12.57,-27.02 -43.27,-36.92 -67.11,-51.22 -20.95,31.35 -40.38,63.93 -57.21,97.67zm180.23 -34.39l0 0c-18.06,34.31 -35.76,68.84 -53.38,103.44 28.24,13.8 55.76,28.97 83.94,43.06 1.52,-6.21 3.11,-12.35 4.84,-18.49 -19.07,-8.82 -37.64,-18.64 -56.35,-28.03 4.26,-9.9 8.45,-19.79 12.93,-29.55 19.36,6.14 35.54,20.66 55.7,24.28 2.74,-4.41 5.42,-8.89 8.09,-13.3 -18.06,-8.81 -35.9,-18.2 -53.82,-27.09 3.97,-8.09 8.02,-16.18 12.07,-24.2 20.44,7.59 39.29,18.71 59.37,27.09 1.23,-4.11 3.62,-12.28 4.85,-16.32 -26.3,-13.37 -52.16,-27.38 -78.24,-40.89zm125.62 86.4l0 0c-12.42,1.88 -15.82,15.53 -21.16,24.78 7.73,27.44 41.03,40.81 44.28,68.84 -22.97,19.21 -48.76,-10.4 -65.45,-25.5 -5.41,3.39 -14.66,3.61 -15.1,11.56 19.73,21.74 46.24,39.37 76.07,42.33 17.05,0.94 35.11,-14.52 31.71,-32.65 -8.66,-26.37 -38.5,-39.3 -44.35,-67.04 23.48,-7.95 42.77,9.03 58.8,23.69 4.41,-1.8 13.22,-5.41 17.63,-7.22 -20.3,-23.05 -50.28,-43.56 -82.43,-38.79zm105.54 118.4l0 0c8.31,21.02 37.35,34.31 30.99,59.3 -26.36,6.94 -45.14,-17.69 -61.4,-34.09 -4.4,4.26 -17.19,13 -7.29,19.28 19.57,19.65 45.07,39.09 74.33,36.56 26.29,-5.42 25.14,-39.01 8.6,-54.33 -8.02,-13.22 -30.99,-27.01 -17.85,-43.92 21.1,-0.07 34.97,16.91 50.06,28.9 3.83,-2.6 11.42,-7.73 15.25,-10.33 -18.64,-16.4 -38.58,-34.46 -64.08,-38.07 -19.5,-4.34 -40.24,18.35 -28.61,36.7zm110.6 46.37l0 0c-25.64,11.99 -43.56,41.47 -38.86,70 5.2,28.39 38.86,47.1 65.52,34.75 25.72,-12.64 43.2,-42.55 38.94,-71.37 -5.5,-28.03 -39.74,-45.8 -65.6,-33.38z"/>
    </g>
    <path class="fil0" d="M3501.67 2317.22c20.16,-0.44 45.8,-1.09 58.15,18.2 8.24,16.9 5.93,41.1 -9.97,53.1 -13.14,12.13 -32.14,8.81 -48.32,9.39 0.14,-26.88 0.14,-53.82 0.14,-80.69z"/>
    <path class="fil0" d="M3366.51 2323.86c15.68,0.8 34.1,-2.82 46.24,9.9 5.13,25.93 -29.48,22.54 -45.66,25.5 -1.37,-11.78 -1.52,-23.62 -0.58,-35.4z"/>
    <path class="fil0" d="M3229.62 2341.05c17.27,-10.47 41.47,-2.89 47.97,16.69 11.48,23.77 -3.4,66.03 -34.82,59.89 -33.16,-6.94 -35.33,-56.42 -13.15,-76.58z"/>
    <path class="fil0" d="M4585.03 2384.33c4.48,-8.96 9.32,-17.63 14.23,-26.3 5.49,8.6 6.79,21.24 15.9,27.31 9.24,1.95 18.56,3.46 28.1,4.48 -7.73,7.73 -15.32,15.6 -22.9,23.47 1.66,7.44 4.84,22.25 6.5,29.69 -9.25,-4.91 -18.35,-9.75 -27.38,-14.66 -9.68,4.62 -19.21,9.39 -28.68,14.23 1.66,-9.82 3.32,-19.65 4.99,-29.4 -7.08,-7.51 -13.73,-15.32 -19.65,-23.62 9.61,-1.74 19.21,-3.47 28.89,-5.2z"/>
    <path class="fil0" d="M4247.89 2400.36c19.73,3.11 57.8,10.26 44.43,38.43 -16.9,0.8 -33.88,0.58 -50.71,-0.5 0.72,-12.86 3.03,-25.57 6.28,-37.93z"/>
    <path class="fil0" d="M4378.14 2470.79c3.25,-10.69 6.79,-21.31 10.55,-31.93 16.97,6.58 46.38,11.06 42.62,35.76 -17.84,4.05 -35.98,1.81 -53.17,-3.83z"/>
    <path class="fil0" d="M4504.13 2536.82c0.5,-24.49 24.99,-60.25 52.01,-42.98 27.16,22.18 6.5,62.56 -18.71,77.01 -16.98,-2.97 -34.82,-14.6 -33.3,-34.03z"/>
    <path class="fil0" d="M3278.53 2545.27c4.91,-9.39 9.75,-18.78 14.81,-28.1 4.62,9.39 9.24,18.86 13.86,28.32 10.12,1.23 20.23,2.53 30.42,3.9 -7.37,7.8 -15.89,14.74 -21.38,24.06 0.86,9.6 2.88,19.07 4.69,28.6 -9.03,-4.4 -17.84,-9.46 -27.38,-12.57 -10.47,1.74 -19.21,8.81 -28.6,13.37 1.87,-10.19 3.75,-20.23 5.63,-30.34 -7.44,-7.52 -14.52,-15.32 -21.31,-23.34 9.75,-1.37 19.5,-2.67 29.26,-3.9z"/>
    <path class="fil0" d="M4777.55 2632.03c4.84,-12.35 10.62,-24.27 17.26,-35.76 16.83,9.54 38.51,24.42 25,46.23 -14.38,-2.74 -28.39,-6.28 -42.26,-10.47z"/>
    <path class="fil0" d="M4542.19 2696.9c3.91,-6.93 7.81,-13.8 11.71,-20.73 2.67,5.34 8.02,15.96 10.69,21.24 5.42,0.5 16.25,1.51 21.67,2.02 -5.56,5.63 -11.2,11.2 -16.61,16.83 1.08,5.42 3.25,16.18 4.33,21.6 -13.44,-9.17 -28.1,-10.76 -41.39,0.07 8.45,-16.18 -0.36,-28.39 -11.63,-38.93 5.27,-0.51 15.89,-1.52 21.23,-2.1z"/>
    <path class="fil0" d="M3786.51 2799.12c4.98,-9.46 10.04,-18.78 15.31,-28.03 4.12,9.1 8.31,18.2 12.5,27.38 10.55,1.66 21.02,3.25 31.71,5.06 -7.58,7.29 -15.1,14.59 -22.61,21.96 2.02,10.11 4.12,20.29 6.29,30.48 -9.03,-4.55 -17.92,-9.32 -27.24,-12.93 -10.62,2.1 -19.86,8.16 -29.61,12.42 1.94,-9.82 3.97,-19.57 6.06,-29.32 -7.44,-7.66 -14.95,-15.32 -22.32,-22.9 9.9,-1.38 19.87,-2.75 29.91,-4.12z"/>
    <path class="fil0" d="M5226.01 2964.47c-8.75,-31.49 26,-78.66 59.09,-56.92 29.33,31.71 -26.3,92.54 -59.09,56.92z"/>
    <path class="fil0" d="M4226.22 2934.28c4.41,-8.24 8.89,-16.54 13.51,-24.71 4.7,8.31 9.32,16.62 14.16,25 6.5,0.65 19.51,1.95 26.01,2.6 -6.5,6.35 -13.08,12.71 -19.72,19.07 1.15,6.93 3.39,20.8 4.47,27.81 -15.53,-13.87 -34.09,-13.37 -49.84,-0.29 1.16,-6.86 3.47,-20.73 4.62,-27.67 -6.72,-6.21 -13.29,-12.49 -19.79,-18.85 6.65,-0.72 19.94,-2.24 26.58,-2.96z"/>
    <path class="fil0" d="M3489.82 2972.92c9.25,-2.31 17.99,-6.71 22.61,-15.45 3.98,8.45 10.55,13.72 19.73,15.89 -5.42,7.37 -8.89,15.67 -8.82,24.99 -8.45,-4.98 -16.9,-4.84 -25.35,0.51 2.02,-10.11 -1.67,-18.64 -8.17,-25.94z"/>
    <path class="fil0" d="M3351.63 3032.88c22.97,2.31 38.79,-10.9 46.38,-31.57 3.68,8.46 7.8,16.84 12.28,25 10.04,4.33 21.24,4.84 31.93,6.79 -7.8,7.37 -15.46,14.88 -23.04,22.54 1.87,9.89 3.75,19.86 5.63,29.83 -8.45,-4.4 -16.83,-9.1 -25.64,-12.57 -11.27,-0.14 -20.59,8.74 -30.63,12.57 1.58,-7.44 4.76,-22.39 6.35,-29.83 -7.73,-7.66 -15.53,-15.25 -23.26,-22.76z"/>
    <path class="fil0" d="M4373.01 3013.09c5.13,8.74 10.11,17.63 14.74,26.87 10.18,1.59 20.37,3.18 30.7,4.77 -7.37,7.87 -16.4,14.66 -21.31,24.42 1.08,7.36 3.25,22.03 4.33,29.4 -8.74,-5.13 -17.33,-10.19 -25.93,-15.25 -10.11,4.7 -20.15,9.54 -30.12,14.31 1.59,-7.22 4.84,-21.74 6.5,-28.97 -7.51,-8.09 -15.1,-16.04 -22.54,-23.98 10.19,-1.45 20.44,-2.82 30.77,-4.27 4.19,-9.1 8.46,-18.27 12.86,-27.3z"/>
    <path class="fil0" d="M4116.78 3043.72c3.4,-6.5 6.79,-12.93 10.33,-19.29 2.6,5.06 7.73,15.17 10.26,20.16 5.56,0.72 16.69,2.02 22.25,2.67 -4.19,4.19 -12.43,12.64 -16.54,16.83 1.08,5.42 3.32,16.18 4.48,21.6 -13.51,-8.24 -27.6,-11.78 -40.67,-0.22 7.29,-16.03 -1.02,-28.03 -12.21,-38.28 5.49,-0.87 16.54,-2.6 22.1,-3.47z"/>
    <path class="fil0" d="M3254.83 3110.25c3.9,7.73 7.8,15.53 11.78,23.33 8.81,1.66 17.77,3.33 26.73,4.99 -6.51,6.07 -12.94,12.13 -19.29,18.27 1.59,8.96 3.1,17.99 4.69,27.09 -7.65,-4.4 -15.38,-8.88 -22.97,-13.29 -8.38,4.26 -16.69,8.6 -24.99,13 1.15,-6.57 3.54,-19.64 4.69,-26.22 -6.35,-6.43 -12.78,-12.93 -19.07,-19.29 6.57,-1.01 19.65,-2.96 26.15,-3.9 4.12,-8.09 8.16,-16.03 12.28,-23.98z"/>
    <path class="fil0" d="M3634.08 3120.08c4.92,7.51 9.76,15.16 14.16,23.11 8.96,1.3 17.92,2.67 26.95,3.97 -6.72,6.43 -13.51,12.79 -20.16,19.29 1.23,6.94 3.62,20.81 4.84,27.74 -6.42,-3.32 -19.28,-9.97 -25.71,-13.29 -7.66,4.33 -15.32,8.67 -22.9,13.07 7.94,-18.78 0.5,-35.25 -15.39,-46.37 19.22,0.14 34.1,-7.88 38.21,-27.52z"/>
    <path class="fil0" d="M4161.21 3134.74c9.39,-1.01 16.47,-5.71 21.17,-14.09 4.69,7.88 11.55,12.79 20.58,14.59 -5.41,7.45 -11.48,15.68 -6.43,25.79 -9.32,-6.14 -18.63,-6.21 -28.03,-0.29 4.99,-10.54 -1.37,-18.56 -7.29,-26z"/>
    <path class="fil0" d="M5033.42 3155.83c4.98,-9.39 10.04,-18.71 15.09,-28.02 4.19,8.59 8.02,17.4 13.01,25.78 9.82,4.41 21.02,5.28 31.64,7.73 -7.59,6.72 -15.1,13.51 -22.47,20.37 1.74,10.48 3.54,21.1 5.42,31.72 -9.32,-5.13 -18.64,-10.19 -27.81,-15.25 -9.32,5.06 -18.64,10.12 -27.89,15.17 1.52,-10.54 3.11,-21.09 4.77,-31.64 -7.29,-7.29 -14.45,-14.59 -21.6,-21.96 9.9,-1.37 19.87,-2.67 29.84,-3.9z"/>
    <path class="fil0" d="M5208.23 3153.52c4.48,6.86 9.11,13.65 13.87,20.52 5.13,0.43 15.32,1.3 20.45,1.73 -5.64,5.78 -11.27,11.63 -16.76,17.56 1.08,5.27 3.18,15.74 4.26,20.94 -13.43,-8.59 -27.45,-12.13 -39.95,0.87 6.43,-16.11 -0.79,-29.26 -12.57,-39.51 5.57,-0.58 16.76,-1.81 22.32,-2.39 2.1,-4.91 6.29,-14.81 8.38,-19.72z"/>
    <path class="fil0" d="M3601.72 3237.39c3.83,6.5 7.59,13.07 11.49,19.65 5.27,0.58 15.89,1.66 21.16,2.24 -5.05,5.49 -10.11,10.98 -15.09,16.54 0.79,5.78 2.45,17.34 3.25,23.12 -13.22,-12.72 -27.67,-9.97 -41.25,0 8.81,-16.04 0.43,-28.83 -11.42,-39.44 16.62,2.45 27.82,-6.58 31.86,-22.11z"/>
    <path class="fil0" d="M5082.32 3256.75c3.69,-6.57 7.66,-12.93 11.42,-19.36 4.11,16.04 15.38,24.71 32.5,21.82 -12.42,10.11 -21.02,23.4 -12.35,39.51 -13.51,-9.68 -27.88,-12.42 -41.1,0.14 0.94,-5.63 2.81,-16.83 3.75,-22.39 -5.34,-5.78 -10.69,-11.56 -15.89,-17.26 5.42,-0.65 16.25,-1.88 21.67,-2.46z"/>
    <path class="fil0" d="M4198.12 3273.65c22.11,2.24 36.27,-9.82 41.61,-30.48 5.2,20.73 20.01,32.79 42.05,30.48 -7.16,6.87 -14.16,13.95 -21.17,21.02 1.37,7.23 4.04,21.82 5.35,29.05 -8.75,-4.85 -17.41,-9.68 -26.08,-14.53 -8.82,4.77 -17.56,9.61 -26.3,14.45 1.38,-7.22 4.05,-21.6 5.35,-28.82 -6.94,-7.15 -13.95,-14.23 -20.81,-21.17z"/>
    <path class="fil0" d="M3776.68 3325.52c5.13,9.54 10.33,19 15.25,28.75 9.75,1.16 19.57,2.31 29.4,3.61 -7.23,7.88 -15.03,15.32 -21.1,24.2 1.16,7.23 3.54,21.75 4.7,28.97 -9.18,-5.42 -18.71,-9.89 -28.61,-13.29 -9.39,3.68 -18.06,8.81 -26.87,13.65 1.66,-10.11 3.4,-20.15 5.2,-30.12 -7.51,-7.59 -14.59,-15.46 -21.45,-23.48 9.89,-1.37 19.86,-2.6 29.83,-3.75 4.48,-9.54 9.03,-19.08 13.65,-28.54z"/>
    <path class="fil0" d="M5011.53 3351.16c4.41,-7.22 9.03,-14.22 13.72,-21.16 3.33,6.94 6.65,13.87 10.04,20.88 6.29,1.08 18.79,3.39 25.07,4.48 -5.92,5.05 -11.85,10.11 -17.7,15.24 0.87,6.5 2.61,19.65 3.47,26.15 -13.94,-11.99 -29.69,-10.62 -44.57,-1.23 9.1,-17.41 -1.37,-30.85 -13.44,-42.33 5.85,-0.51 17.56,-1.52 23.41,-2.03z"/>
    <path class="fil0" d="M4777.84 3391.91c17.12,3.03 26.08,-9.39 33.23,-22.47 2.09,4.84 6.21,14.59 8.3,19.43 5.42,0.8 16.33,2.53 21.75,3.33 -11.05,10.54 -19,23.33 -11.27,39.08 -13.08,-11.56 -26.01,-11.7 -38.72,-0.43 3.32,-15.25 -1.45,-29.05 -13.29,-38.94z"/>
    <path class="fil0" d="M4493 3383.6c6.5,13.94 18.35,22.18 33.52,24.63 -14.23,8.53 -18.35,21.1 -11.05,36.41 -13.58,-9.75 -27.74,-11.99 -40.6,0.51 6.57,-15.68 -0.07,-29.26 -11.99,-39.23 5.42,-0.79 16.4,-2.38 21.81,-3.18 2.1,-4.76 6.22,-14.37 8.31,-19.14z"/>
    <path class="fil0" d="M4925.64 3411.77c4.19,-6.71 8.52,-13.36 12.86,-20.01 2.16,5.06 6.43,15.17 8.59,20.23 5.64,0.65 16.91,1.88 22.54,2.53 -11.99,10.33 -20.8,22.61 -12.28,39.15 -12.64,-11.19 -27.52,-10.33 -40.96,-1.23 8.67,-16.11 -0.79,-27.81 -12.35,-37.78 5.42,-0.72 16.18,-2.16 21.6,-2.89z"/>
    <path class="fil0" d="M4682.19 3416.18c4.27,5.92 8.6,11.92 12.93,17.99 5.42,0.86 16.26,2.6 21.68,3.54 -12.57,9.32 -20.23,21.45 -12.43,37.2 -13.22,-8.31 -27.52,-9.03 -40.53,-0.07 8.24,-16.11 -1.22,-27.67 -12.71,-37.49 5.71,-0.8 17.19,-2.32 22.9,-3.04 2.02,-4.55 6.07,-13.58 8.16,-18.13z"/>
    <path class="fil0" d="M4802.11 3505.03c4.77,-9.39 9.53,-18.85 14.52,-28.17 5.34,9.17 7.87,20.73 16.18,28.03 9.25,1.73 18.64,3.18 28.1,4.26 -17.48,13.22 -26.73,31.64 -16.9,53.39 -9.1,-5.06 -18.13,-10.12 -27.16,-15.03 -9.4,4.84 -18.79,9.68 -28.03,14.66 1.01,-10.47 5.63,-21.16 3.03,-31.56 -6.07,-7.81 -13.22,-14.67 -19.86,-21.82 9.96,-1.23 20.01,-2.46 30.12,-3.76z"/>
    <path class="fil0" d="M4573.69 3529.96c3.9,-9.25 8.31,-18.28 14.45,-26.3 4.69,9.18 9.46,18.42 14.3,27.6 9.68,0.72 19.36,1.44 29.11,2.24 -7.22,8.01 -14.52,15.89 -21.88,23.76 1.73,9.61 3.46,19.15 5.2,28.83 -9.54,-4.05 -19,-8.31 -28.25,-12.5 -9.25,4.62 -18.42,9.32 -27.59,14.08 1.8,-10.25 3.83,-20.29 5.56,-30.48 -7.23,-7.58 -14.3,-15.39 -21.17,-23.19 10.04,-1.3 20.09,-2.67 30.27,-4.04z"/>
    <path class="fil0" d="M4816.12 3601.54c3.4,6.22 6.87,12.5 10.33,18.86 5.42,1.01 16.33,2.89 21.82,3.83 -11.7,10.47 -19.07,23.26 -11.77,39.44 -13.01,-12.86 -27.02,-9.75 -40.53,-0.8 1.01,-5.41 3.11,-16.32 4.19,-21.81 -5.64,-5.27 -11.05,-10.26 -16.54,-15.32 14.8,-2.16 29.4,-7.15 32.5,-24.2z"/>
    <path class="fil0" d="M4219.07 3658.97c8.02,-3.03 14.52,-8.59 21.1,-14.01 5.63,6.21 12.42,10.91 20.44,13.94 -6.29,7.44 -9.1,16.18 -7.51,26.01 -8.89,-6.14 -17.77,-6.14 -26.66,0.07 1.45,-9.83 -1.08,-18.56 -7.37,-26.01z"/>
   </g>
  </g>
 </g>
</svg>
