<?xml version="1.0" encoding="UTF-8"?>
<!DOCTYPE svg PUBLIC "-//W3C//DTD SVG 1.1//EN" "http://www.w3.org/Graphics/SVG/1.1/DTD/svg11.dtd">
<!-- Creator: CorelDRAW 2020 (64 Bit) -->
<svg xmlns="http://www.w3.org/2000/svg" xml:space="preserve" width="85mm" height="54mm" version="1.1" style="shape-rendering:geometricPrecision; text-rendering:geometricPrecision; image-rendering:optimizeQuality; fill-rule:evenodd; clip-rule:evenodd"
viewBox="0 0 8500 5400"
 xmlns:xlink="http://www.w3.org/1999/xlink"
 xmlns:xodm="http://www.corel.com/coreldraw/odm/2003">
 <defs>
  <style type="text/css">
   <![CDATA[
    .fil0 {fill:#FEFEFE;fill-rule:nonzero}
   ]]>
  </style>
 </defs>
 <g id="Camada_x0020_1">
  <metadata id="CorelCorpID_0Corel-Layer"/>
  <g id="_2914051410560">
   <g id="__x0023_f49800ff">
    <path class="fil0" d="M5743.41 -199.25c-7.46,-29.09 14.18,-46.81 33.38,-64.16 2.25,20.89 3.74,41.97 4.11,63.04 -0.19,98.85 -26.67,196.96 -15.85,295.8 31.33,33.95 81.31,35.81 124.21,41.97 148.65,13.06 299.72,24.43 447.25,-3.92 13.24,-15.48 26.67,-30.96 39.91,-46.44l6.71 36.74c130.37,-22.57 256.83,-63.04 388.5,-79.45 -2.43,-81.31 -4.29,-162.45 -5.97,-243.76 -11.19,-45.33 39.73,-67.34 77.03,-58.2 -1.68,14.92 -5.41,44.58 -7.28,59.5 -14.35,90.27 6.72,181.47 -3.17,271.74 -18.65,23.32 -48.86,30.59 -76.28,37.67 -236.12,42.35 -472.8,115.45 -715.26,89.35 -89.14,-10.07 -181.28,-11.01 -266.89,-40.29 -35.06,-10.26 -58.75,-43.27 -58.38,-79.64 -1.68,-94.18 28.73,-185.57 27.98,-279.95z"/>
    <g>
     <path class="fil0" d="M6125.75 -256.7c70.5,-0.74 141,-1.3 211.5,1.5 -0.56,13.8 -1.68,41.4 -2.23,55.21 -0.75,44.01 2.42,87.84 6.15,131.67 51.47,-27.23 88.03,-73.48 104.44,-129.25l-33.38 -1.49c-0.19,-16.04 -0.38,-48.31 -0.38,-64.35 29.1,12.12 55.21,29.84 80.39,48.68l-5.22 16.79c-12.87,64.15 -51.48,117.68 -101.84,157.97 -48.11,31.7 -14.17,99.04 -27.97,144.36 -18.09,-34.88 -25,-73.86 -33.39,-111.72 -20.89,4.85 -41.59,9.7 -62.11,14.54 -1.11,35.44 -2.42,70.88 -5.21,106.13 -11.76,-32.27 -20.34,-65.65 -28.54,-99.04 -55.77,-5.97 -134.47,11.94 -169.17,-44.95 0.94,-32.45 3.36,-94.18 51.11,-82.62 2.42,16.23 7.46,48.68 9.88,64.91 36.75,2.42 73.67,4.66 110.6,6.34 -3.17,-52.97 -5.78,-105.94 -8.02,-158.91 -29.47,0.19 -59.12,0.56 -88.59,0.94 -2.05,-14.18 -5.97,-42.53 -8.02,-56.71l0 0zm115.08 56.33c2.98,51.48 6.9,102.96 13.98,154.06 15.48,-1.87 46.63,-5.97 62.11,-7.84 0.37,-49.05 -2.24,-98.1 -7.09,-146.96 -17.34,0.18 -51.84,0.56 -69,0.74z"/>
    </g>
    <g>
     <path class="fil0" d="M4702.14 -232.26c9.69,-2.43 29.09,-7.46 38.79,-9.89 -4.48,10.08 -13.43,30.03 -17.9,40.1 -50.36,99.78 -81.88,207.96 -134.85,306.62 -37.49,68.82 -59.87,148.65 -116.01,205.54 -95.31,-69.39 -194.9,-137.84 -267.83,-232.21 30.41,-36.36 74.05,33.95 104.27,50.36 17.9,-30.96 36.55,-61.36 55.2,-91.95 -33.75,-2.05 -67.33,-3.73 -101.09,-6.53 38.61,-11.56 78.34,-9.88 115.27,6.35 -16.04,36.17 -59.5,75.15 -22.01,113.58 10.63,-20.89 21.08,-41.78 31.52,-62.86 10.25,-2.23 30.96,-7.08 41.21,-9.32 3.36,19.21 10.26,57.82 13.62,77.03 24.62,-33.01 48.49,-66.58 74.42,-98.67 -6.53,56.33 -42.71,99.04 -89.71,127.58 -7.28,-30.03 -14.18,-60.25 -21.08,-90.27 -12.31,30.96 -24.43,61.92 -37.49,92.69 33.58,21.64 66.96,43.65 100.34,65.65 52.97,-102.95 103.89,-207.02 150.33,-313.15 -14.92,-8.39 -29.84,-16.78 -44.57,-25.18 -35.44,26.12 -67.89,107.06 -117.88,67.9 4.48,-27.8 15.3,-53.91 25.74,-79.83 16.04,2.05 47.93,6.15 63.97,8.21 -2.98,-12.5 -5.97,-24.99 -8.95,-37.49 27.98,-17.53 55.21,-36.37 82.25,-55.02 -12.68,37.86 -36.37,82.06 11.56,104.63 14.37,-38.98 25.93,-79.64 19.4,-121.6 12.5,-1.49 24.81,-2.99 37.3,-4.48l14.18 -27.79 0 0zm-354.93 391.85c11.19,9.52 11.19,9.52 0,0z"/>
    </g>
    <path class="fil0" d="M5872.47 -235.99c9.7,-0.37 28.73,-1.31 38.42,-1.87 -1.49,9.52 -4.47,28.36 -5.78,37.68 -5.03,30.4 -9.88,60.8 -14.73,91.2 17.16,0 51.66,-0.19 68.82,-0.19 -17.53,48.12 -43.27,92.51 -73.67,133.54 44.95,7.65 90.46,15.48 133.17,32.46 -62.67,2.98 -125.15,-0.56 -187.26,-4.67 32.45,-47.55 69.76,-91.57 104.26,-137.64 -24.81,10.26 -49.43,20.52 -74.04,30.77 5.22,-47.37 12.12,-94.93 12.49,-142.86 -0.37,-9.51 -1.11,-28.72 -1.68,-38.42z"/>
    <g>
     <path class="fil0" d="M1237.38 -151.87l-4.29 13.98c10.25,-0.18 30.59,-0.74 40.84,-0.93 8.21,-7.46 24.81,-22.38 33.01,-29.84 -3.54,67.33 30.22,178.86 -62.85,197.32 -253.09,67.34 -516.07,106.32 -778.3,105.57 4.1,-47 7.65,-94 9.7,-141.19 43.09,-5.41 85.98,-13.98 129.44,-16.41 13.8,28.91 -17.54,46.25 -31.52,66.96 30.96,-0.94 61.92,-1.5 92.88,-1.87l2.24 19.58c-31.89,-0.74 -63.97,-1.3 -95.86,-1.49 -7.47,-4.66 -22.2,-13.99 -29.66,-18.65 11.19,-12.31 33.38,-36.55 44.38,-48.68 -19.95,2.43 -60.05,7.09 -80.01,9.52 0.94,33.01 1.5,66.02 1.69,99.03 102.02,-2.24 203.48,-12.31 304.75,-24.81 -0.56,-10.63 -1.5,-31.89 -1.87,-42.52 -37.11,-6.9 -75.16,-10.82 -109.66,-26.49 -1.87,-27.6 27.04,-42.14 40.65,-62.85 9.33,-1.12 28.17,-3.17 37.49,-4.29 88.03,-41.4 203.67,-32.82 288.72,15.86 -38.8,88.96 -149.95,74.97 -229.78,78.14 -0.37,10.45 -0.93,30.97 -1.3,41.41 144.16,-33.2 299.15,-35.25 433.63,-102.02 -24.06,-6.53 -47.94,-12.87 -72,-19.03 -30.02,39.92 -83.37,41.6 -128.32,49.06 32.08,-16.6 66.22,-28.54 99.41,-42.9l-44.95 -20.7c38.05,-32.09 86.17,5.59 126.83,12.68 -1.31,-15.48 -3.73,-46.07 -5.03,-61.36 -21.27,-37.67 -67.71,1.31 -99.6,-19.4 32.64,5.04 61.92,-7.27 89.34,-23.68l0 0zm-402.3 92.13c0.93,18.09 3.17,53.9 4.1,71.81 31.71,-6.35 81.32,8.57 85.43,-36.56 3.35,7.83 9.88,23.31 13.05,31.15 38.79,-6.16 76.28,-18.84 110.04,-39.17 -64.72,-38.24 -141.38,-24.81 -212.62,-27.23z"/>
    </g>
    <g>
     <path class="fil0" d="M1883.63 66.15c65.27,-87.47 141.74,-171.21 237.79,-224.93 166.19,-3.35 332.55,-2.61 498.73,0.56 67.33,138.95 158.15,266.34 215.42,410.13 200.49,-41.03 404.34,-59.49 607.64,-82.25 -39.17,-110.03 -88.03,-216.72 -118.44,-329.74 145.3,-1.49 290.77,-0.56 436.06,-0.75 28.91,104.26 53.16,209.63 81.69,313.9 52.22,160.95 126.82,313.7 212.43,459.18 19.77,32.82 52.97,-4.11 75.17,-14.55 94,-63.97 198.81,-110.79 305.68,-148.83 36.75,-13.06 62.48,21.82 83,46.06 6.34,46.63 -27.98,85.98 -62.67,111.91 -85.04,64.72 -176.62,120.67 -273.79,165.06 163,286.66 273.42,617.16 232.76,950.07 -16.79,70.31 -43.27,137.83 -60.99,207.96 105.01,11.19 192.48,-54.84 279.02,-103.14 2.8,134.47 -83.18,244.7 -149.95,353.8 -64.54,80.95 -151.63,153.31 -256.45,171.78 13.98,34.5 33.94,66.21 56.7,95.86 99.4,1.49 190.79,44.21 285.35,69.38 127.57,39.73 260.55,56.52 390.55,86.17 66.58,14.55 126.64,56.88 197.33,50.17 1.86,28.72 -0.75,59.31 15.48,85.05 76.28,144.92 116.19,304.94 166.92,459.74 5.04,73.67 -14.74,147.9 0.56,221.76 27.04,104.81 -85.98,210.94 -23.32,309.98 129.82,36.55 247.32,113.2 384.02,124.21 23.5,-33.76 40.67,-100.71 94.75,-86.35 85.8,22.93 171.97,43.64 260,56.7 97.72,13.61 183.7,71.8 281.06,84.3 66.4,-63.79 141.94,-142.87 243.02,-129.63 54.65,16.04 119.74,25.55 158.53,71.06 -1.3,184.65 -55.76,363.5 -85.98,544.61 62.48,16.6 129.82,6.71 190.05,33.19 103.33,39.73 209.45,70.69 314.27,105.75 120.49,7.28 253.47,3.18 356.05,77.96 80.75,57.08 57.07,202.74 -37.87,230.9 -91.01,10.07 -170.28,-49.23 -260.17,-52.04 -73.86,-10.44 -77.22,-114.51 -150.7,-124.21 -149.21,-39.54 -295.99,-87.84 -444.45,-129.81 -5.04,36.93 -8.39,74.23 -5.6,111.72 48.68,20.89 98.48,38.98 149.02,55.58 27.24,27.23 58.94,49.24 93.63,66.4 56.51,85.04 63.78,196.95 23.5,290.2 -31.52,73.49 -111.16,110.79 -185.58,124.96 -218.96,46.25 -426.35,-69.38 -640.46,-93.06 -72,50.72 -106.69,152.74 -200.31,175.31 -78.15,8.02 -157.97,-12.12 -235.19,5.97 -102.58,63.6 -194.53,168.23 -325.09,165.81 -128.5,-4.1 -257.74,5.41 -385.69,-8.4 -75.54,-94.93 -140.44,-197.69 -215.04,-293.18 -41.97,-56.71 -123.1,-20.34 -166,17.15 -1.68,93.07 12.5,186.13 1.12,279.2 -245.63,4.11 -491.26,0.93 -736.7,1.13 17.16,-238.92 42.89,-476.35 77.59,-713.22 -78.34,8.59 -157.24,18.29 -235.57,3.74 -52.03,-12.87 -67.14,51.47 -94,82.06 -12.68,-1.31 -38.42,-4.1 -51.1,-5.41 -32.82,16.79 -65.46,33.95 -97.73,52.04 -1.87,87.09 3.92,174.38 -2.05,261.48 -21.64,106.5 -33.57,214.49 -52.97,321.36 -615.85,0.18 -1231.51,-0.56 -1847.36,-0.38 -9.7,-133.35 20.51,-263.16 39.35,-393.72 -131.3,8.96 -262.42,24.07 -394.09,29.1 -60.62,-3.54 -129.06,-14.36 -169.72,-64.35 -51.85,-62.29 -92.14,-134.65 -121.05,-210.19 -26.66,-134.47 -26.66,-272.49 -23.87,-409.2 3.36,-75.54 22.57,-151.45 62.11,-216.35 52.78,-85.79 56.51,-189.12 82.06,-284.05 46.63,-194.34 168.42,-356.79 259.25,-531.55 37.48,-69.57 7.08,-167.48 77.58,-220.64 48.13,-35.62 90.83,-78.7 103.89,-139.51 24.06,-42.52 -11.56,-82.24 -23.31,-122.35 30.03,-31.89 70.5,-49.98 107.8,-71.8 -4.48,-73.67 -2.61,-153.68 47.75,-213.18 60.05,-74.04 110.97,-162.45 196.02,-210.57 171.02,-38.23 345.59,-60.61 520.72,-67.51 123.85,2.61 246.38,-22.38 370.41,-18.47 -53.34,-80.38 -115.45,-154.8 -156.86,-242.83 -23.31,-64.16 -102.57,-43.45 -153.3,-69.01 -71.06,-23.31 -106.69,-92.5 -149.95,-147.34 -41.6,-63.41 -129.82,-64.35 -176.82,-122.35 -67.89,-82.62 -117.87,-183.71 -133.16,-290.02 -6.16,-159.46 23.68,-340.75 154.8,-447.24 33.76,-38.24 104.63,-64.54 90.08,-126.45 -13.42,-70.88 -39.35,-138.58 -58.56,-208.15 -172.89,195.46 -350.64,392.04 -566.24,541.06 -64.35,-101.83 -139.32,-199.93 -176.99,-315.57 99.22,-13.24 163.75,-101.27 238.72,-159.09 116.38,-127.95 236.13,-253.84 340.2,-392.6 -50.55,-75.35 -43.46,-175.32 9.51,-247.5l0 0zm129.25 165.06c38.04,135.78 80.57,271.75 142.86,398.57 10.45,31.89 56.14,35.99 71.99,6.72 34.13,-44.39 4.67,-99.6 -12.31,-144.55 -54.08,-118.43 -83.55,-249.92 -165.06,-354.18 -25.36,24.25 -53.33,55.39 -37.48,93.44l0 0zm817.46 146.22c-133.54,48.87 -267.08,107.43 -372.46,205.54 -90.26,87.28 -215.78,139.51 -274.72,256.63 38.79,2.43 73.49,-16.6 108.36,-30.77 47.93,-21.08 100.71,-35.25 139.32,-72.74 -15.85,-2.05 -47.74,-6.15 -63.78,-8.21 67.14,-85.23 168.04,-128.13 258.68,-182.77 77.59,-39.17 151.45,-101.84 243.58,-94.94 4.1,49.8 24.06,100.53 15.11,150.51 -29.66,21.27 -63.04,36.19 -94.75,54.09 95.5,11 187.82,-23.13 282.75,-25.92 155.92,-11.38 311.28,11 465.89,28.9 130.93,21.83 270.07,45.89 397.83,-4.28 -72.37,-63.6 -182.78,20.32 -257.38,-43.46 -85.8,-77.4 -143.43,-181.85 -181.48,-290.02 77.03,-12.49 161.34,21.82 230.72,-25.74 -122.54,-30.59 -249.92,-13.61 -374.7,-19.4 -177,9.89 -363.13,18.47 -522.97,102.58l0 0zm-1180.41 254.21c-82.06,109.67 -196.2,188.38 -304.19,270.07 19.77,39.91 38.6,82.99 77.58,108.17 -5.21,48.68 34.33,83.93 64.54,116.2 81.5,-62.3 166.92,-125.52 230.71,-206.28 -35.63,-36 -77.78,10.63 -117.5,15.11 -47.56,15.29 -21.45,-48.12 1.12,-59.5 18.46,27.98 47.37,13.06 71.43,3.17 -11.19,-17.53 -18.46,-64.53 -48.12,-43.64 -31.33,6.71 -68.45,60.8 -95.86,25.74 10.63,-54.28 47,-98.66 67.89,-149.21 10.63,-2.8 31.7,-8.39 42.33,-11 5.04,-7.46 15.11,-22.2 20.15,-29.66 29.65,-8.76 59.3,-18.09 88.96,-27.6 -6.72,-21.64 -12.87,-43.46 -18.65,-65.47 19.21,23.69 36.93,48.31 54.83,73.11 -61.73,19.22 -119.55,49.24 -170.09,89.53 10.07,16.6 20.32,33.01 30.77,49.61 57.44,-55.58 125.52,-105.75 209.07,-107.24 16.42,105.38 -102.39,144.91 -146.03,222.69 42.15,-1.68 70.13,-30.59 92.14,-63.23 81.5,-79.08 170.83,-159.27 219.52,-263.35 -79.09,7.09 -73.49,108.92 -142.5,135.97 18.84,-28.35 39.91,-55.02 60.62,-82.07 -13.62,-2.42 -40.47,-7.08 -54.09,-9.51 29.1,-25.55 65.65,-37.86 100.34,-53.15 -4.48,-27.42 -20.7,-47.19 -48.86,-59.32 -20.15,17.54 -32.27,47.38 -60.99,52.23 -4.29,-12.31 -12.69,-36.74 -16.97,-48.87 -27.24,22.01 -56.89,41.59 -90.28,53.16 8.58,-5.41 25.75,-16.23 34.14,-21.64 22.19,-18.46 44.01,-37.11 65.83,-56.13 2.99,17.9 9.14,53.34 12.32,71.06 19.95,-20.71 34.68,-45.51 32.63,-74.98 60.99,-37.11 -14.36,-84.68 -33.19,-124.96 -66.22,98.85 -151.64,182.03 -229.6,270.99l0 0zm311.29 -139.5c5.03,4.66 5.03,4.66 0,0l0 0zm-226.99 265.58c-27.41,13.99 -54.27,29.1 -80.57,45.51 10.82,15.3 32.46,46.07 43.27,61.36 22.01,-19.95 43.65,-40.09 64.91,-60.98 37.86,-24.25 67.33,-58.01 78.71,-102.77 -39.73,9.7 -83.56,19.21 -106.32,56.88l0 0zm909.23 63.98c-128.13,48.11 -263.16,88.78 -370.96,176.62 -103.33,79.45 -227.73,157.23 -257.2,294.31 4.85,69.01 19.96,136.71 26.86,205.35 2.43,45.13 35.25,78.33 62.29,111.15 43.09,-43.45 8.02,-97.36 3.36,-147.34 -1.49,-143.05 72.92,-286.66 197.89,-359.4 264.84,-167.11 569.41,-288.34 885.53,-295.8 0,13.24 -0.18,39.72 -0.37,52.97 -148.64,37.11 -297.29,75.53 -441.83,126.64 -94,35.25 -169.73,103.13 -249.18,162.07 -48.68,37.86 -101.65,72.93 -138.39,123.29 -37.67,55.2 -35.62,125.14 -42.15,189.11 23.32,16.79 79.08,19.21 71.62,57.07 -56.14,44.21 -155.92,49.61 -171.77,132.05 -1.5,76.1 38.98,149.21 91.95,201.8 66.2,63.04 163.56,50.17 246.93,48.68 25.36,36.75 13.24,74.42 -11.56,107.62 80.57,148.83 198.25,271.92 306.43,400.43 163.94,180.91 416.1,234.63 650.17,243.02 82.43,-5.78 156.85,-45.7 230.52,-79.64 100.34,-49.8 207.96,-101.83 269.88,-199.94 -53.53,-19.02 -106.69,-43.08 -163.76,-47.93 -26.48,22.01 -46.44,51.85 -75.72,70.5 -44.39,14.92 -88.59,-7.27 -131.12,-18.09 -200.49,82.44 -428.77,70.32 -628.34,-7.27 -107.8,-47.75 -186.32,-141.93 -245.63,-240.97 -25.55,-40.1 -37.68,-86.54 -39.73,-133.73 97.92,12.69 196.58,43.83 295.81,21.27 119.92,-21.83 195.64,-126.27 292.81,-189.69 66.58,-50.17 153.69,-49.42 232.95,-51.28 45.13,-7.09 91.76,48.86 60.61,88.96 -42.7,63.6 -128.31,45.51 -193.03,64.34 -95.3,11.01 -149.2,99.41 -227.35,143.8 -90.65,58.75 -203.67,52.97 -306.43,43.46 63.04,65.65 126.08,138.76 214.85,169.72 61.55,20.33 126.45,27.61 190.05,38.79 87.1,19.03 171.59,-23.68 252.72,-49.6 78.52,-25.75 135.03,-94 212.99,-118.06 67.89,13.98 108.37,86.16 177.56,101.27 132.42,44.57 270.62,-2.05 391.85,-56.89 78.71,-34.69 122.16,-113.39 156.11,-188.18 -41.97,7.83 -84.3,23.31 -127.2,13.8 -143.61,-26.86 -272.86,-98.85 -401.18,-165.43 -60.8,-34.13 -135.59,-30.96 -199.19,-6.16 -22.75,9.88 -78.14,24.06 -74.23,-19.39 -17.34,-78.52 90.65,-74.42 118.81,-129.82 9.32,-60.43 -37.31,-102.39 -63.04,-150.51 5.03,-37.11 55.2,-40.65 81.5,-23.12 75.54,33.94 98.1,124.4 92.88,200.12 131.12,30.77 240.41,113.77 359.22,173.27 105.38,-317.44 49.05,-676.47 -137.09,-952.69 -60.05,-8.02 -136.15,27.6 -185.76,-16.04 -23.5,-57.63 51.48,-84.86 94.37,-96.23 -24.24,-22.39 -42.7,-64.54 -80.94,-61.18 -126.64,3.36 -255.33,15.29 -380.1,-12.68 -307.37,-59.5 -625.55,-27.42 -925.27,55.58l0 0zm-1038.85 -45.51c-25.36,4.66 -45.5,38.23 -37.48,62.48 26.85,8.77 70.87,-46.82 37.48,-62.48l0 0zm2504.8 1593.34c-51.47,87.65 -114.88,168.04 -195.09,231.08 84.68,65.84 174.21,173.64 293.94,143.24 37.31,-27.98 74.23,-63.04 92.14,-106.69 -54.27,-94.55 -110.23,-192.85 -190.99,-267.63l0 0zm-2325.57 100.53c34.32,68.07 64.91,157.22 151.64,170.84 71.43,19.76 85.98,-85.61 149.2,-91.77 38.61,7.28 28.35,56.51 40.48,84.68 77.02,2.98 155.17,4.66 231.45,-8.21 52.97,-14.36 98.11,-47.75 143.43,-77.77 56.88,-36.19 82.62,-101.46 113.21,-158.35 -169.72,5.78 -339.63,10.08 -509.36,13.24 -110.04,1.31 -215.78,36 -320.05,67.34l0 0zm-85.98 73.66c-50.16,73.49 -137.82,143.43 -119.17,242.28 13.24,76.28 119.92,89.15 130.74,164.12 -69.2,7.09 -110.04,-63.41 -166.74,-91.01 -25.92,7.08 -49.24,20.89 -72.92,33.01 23.87,96.24 147.34,89.71 183.89,175.69 -63.97,-1.3 -123.65,-25.18 -184.08,-43.45 -19.4,42.52 -38.61,85.04 -56.7,128.31 57.07,33.57 113.77,67.89 167.48,106.87 -68.07,56.7 -161.7,8.21 -240.96,31.71 -52.04,158.72 -149.58,299.34 -182.41,464.78 0.19,63.22 21.64,124.21 31.71,186.32 51.66,-23.87 102.58,-49.8 157.78,-64.16 118.07,-31.9 241.53,-11.57 361.27,-32.64 -16.79,-23.69 -27.6,-53.71 -53.9,-68.63 -48.87,-5.6 -98.29,7.83 -146.78,-3.18 -1.49,-9.69 -4.29,-28.9 -5.78,-38.6 79.63,-46.07 186.13,-85.8 194.9,-193.22 -27.79,3.72 -55.58,7.08 -83.37,10.44 12.49,-61.36 48.68,-119.74 110.04,-141.37 51.66,-18.84 106.12,-63.42 102.95,-122.35 -26.67,-46.63 -78.7,-71.06 -110.97,-113.21 -17.91,-41.22 17.16,-83.37 53.71,-99.04 -8.21,-24.06 -16.6,-48.12 -22.57,-72.74 65.66,-13.99 100.16,59.87 149.21,89.9 -14.73,-83.55 -23.5,-168.04 -38.6,-251.41 -37.12,-69.01 -74.24,-138.39 -94.94,-214.49 -15.1,-30.96 -19.58,-84.67 -63.79,-83.93l0 0zm2631.82 7.09c14.17,34.13 33.95,66.96 40.1,104.07 2.05,47.19 -34.13,81.69 -63.79,113.21 -52.59,53.16 -97.91,112.65 -142.86,172.15 89.52,67.51 198.07,102.95 296.17,156.3 87.1,48.67 183.52,76.65 272.68,121.04 48.3,22.01 64.53,75.91 86.54,119.92 145.66,-4.47 276.77,59.5 406.4,116.38 -2.99,-27.41 -6.34,-54.83 -9.88,-82.06 -70.7,-15.67 -179.05,12.49 -217.66,-63.23 29.84,-82.25 138.94,-69.19 208.14,-94.93 -38.24,-157.22 -67.51,-319.3 -139.32,-465.52 -142.12,-40.85 -288.53,-67.89 -426.17,-122.35 -103.89,-23.69 -205.53,-55.96 -310.35,-74.98l0 0zm-1526.19 27.98c2.05,104.26 13.42,210.19 40.1,311.46 4.47,1.31 13.79,3.74 18.46,5.04 18.46,-104.44 -10.82,-211.31 -33.94,-312.59l-24.62 -3.91 0 0zm127.19 55.58c6.16,27.41 12.87,54.83 20.14,82.06 12.69,-17.16 29.66,-33.57 26.68,-56.88 -15.3,-8.96 -30.96,-17.35 -46.82,-25.18l0 0zm138.95 69.75c-37.11,63.97 -63.97,133.92 -107.8,194.15 -33.57,55.96 -82.81,104.64 -101.27,168.42 -3.55,51.48 55.39,67.52 93.25,82.44 83.37,25.92 165.06,58.94 250.85,76.84 34.88,-39.91 53.53,-90.27 79.64,-135.78 29.29,-58.38 69.2,-111.71 91.39,-173.45 -5.03,-54.83 -13.61,-109.48 -7.83,-164.5 -100.53,-8.76 -198.26,-44.39 -298.23,-48.12l0 0zm678.33 271.74c4.29,8.21 13.24,24.81 17.53,33.02 102.21,-54.46 212.81,2.79 307.74,46.06 120.3,63.98 251.6,104.26 373.2,165.44 73.68,33.01 13.25,146.22 82.63,178.85 63.22,5.6 113.58,-41.21 142.3,-93.06 -118.99,-103.7 -264.84,-172.15 -404.91,-243.02 -128.31,-66.4 -263.16,-128.88 -408.82,-140.82 -44.95,-5.78 -80.95,22.94 -109.67,53.53l0 0zm-1623.92 -0.37c-85.8,54.09 -74.98,169.54 -83.75,257.57 44.58,12.12 89.15,24.8 135.03,31.33 201.43,20.15 401,53.9 599.82,91.02 132.42,15.29 266.89,33.38 390.92,84.67 66.02,27.42 138.2,30.78 208.52,38.98 86.34,9.33 169.9,44.58 258.12,31.34 -84.11,-43.09 -178.3,-57.64 -266.52,-89.34 2.24,-14.18 6.53,-42.34 8.77,-56.51 -98.11,-34.69 -200.31,-57.82 -294.69,-102.96 -258.31,-99.41 -525.39,-173.07 -788.74,-258.31 -53.9,-13.62 -113.39,-66.4 -167.48,-27.79l0 0zm1474.34 223.81c-61.36,50.54 -145.29,52.6 -220.82,56.7 32.08,56.88 102.2,59.12 159.46,65.09 78.33,6.34 154.99,37.11 234.25,23.68 -29.09,-48.3 -80.01,-76.09 -116.38,-117.68 -12.12,-88.03 59.87,-147.71 116.01,-202.55 -10.63,-3.54 -31.89,-10.44 -42.52,-13.8 -52.04,56.51 -81.32,129.62 -130,188.56l0 0zm-1052.09 306.62c101.46,42.52 213.74,25.55 320.24,41.59 161.32,31.15 326.38,38.05 489.95,45.69 -55.39,-19.58 -114.33,-25.92 -170.1,-43.82 -180.16,-63.61 -373.75,-55.4 -561.57,-71.07 -29.84,-6.33 -54.27,13.99 -78.52,27.61l0 0zm1212.68 -38.42c2.23,49.61 12.12,98.66 26.29,146.22 68.08,-2.05 138.39,-14.92 204.97,6.16 133.54,34.69 260.74,100.89 401,103.88 24.05,-35.81 49.24,-70.69 74.41,-105.75 -154.24,-57.63 -316.5,-90.64 -475.96,-130.74 -75.17,-19.59 -153.5,-20.89 -230.71,-19.77l0 0zm754.05 199.56c-39.17,60.8 -19.96,135.22 -3.92,200.5 39.72,15.29 80.01,29.47 121.6,39.35 21.45,-38.23 50.55,-88.78 101.84,-63.79 1.3,33.95 2.79,67.9 4.28,101.84 64.17,16.41 140.26,40.28 191.55,-17.35 34.32,25.37 43.08,66.96 52.97,105.94 28.16,15.11 56.32,30.59 86.73,41.22 41.21,-23.13 56.69,-81.88 112.27,-83 14.36,38.98 21.27,79.83 25.37,121.05 34.88,6.34 69.75,13.98 105.38,13.61 33.19,-17.72 62.66,-41.4 94.55,-61.36 9.7,37.11 16.6,74.98 28.16,111.72 42.53,11.75 86.92,15.29 130.75,20.33 23.87,-14.17 50.92,-55.96 80.57,-28.35 26.86,14.18 17.16,49.8 24.06,74.23 28.72,28.72 63.97,48.12 105.94,46.07 17.71,-27.42 34.68,-56.33 60.99,-76.66 63.41,16.04 25.17,118.8 94.74,133.73 179.98,60.98 366.3,100.52 550.57,145.29 -0.74,-4.67 -2.61,-14.18 -3.35,-18.84 -124.96,-37.49 -253.66,-60.8 -374.33,-111.72 -23.31,-20.14 -9.69,-49.8 -6.53,-74.97 11.94,-3.55 35.63,-10.64 47.56,-14.18 25.56,-51.66 50.74,-103.51 72.37,-156.85 -164.69,-58.38 -327.51,-122.17 -494.99,-171.96 -75.72,-21.64 -144.36,-62.86 -221.2,-81.7 -142.31,-36.55 -277.52,-95.86 -418.34,-137.45 -149.57,-44.95 -295.24,-101.46 -444.26,-147.9 -61.92,-21.45 -99.04,47.37 -125.33,91.2l0 0zm-739.51 124.03c58.94,25.18 121.05,40.47 185.02,44.57 79.82,5.23 152.56,41.41 230.33,56.14 8.59,-4.84 26.12,-14.36 34.88,-19.21 -70.5,-45.5 -154.43,-45.69 -235,-45.13 11.94,-39.54 45.33,-76.66 90.46,-69.94 97.17,13.43 186.51,62.48 284.98,70.12 -61.92,-41.77 -138.39,-49.98 -208.33,-71.61 -78.14,-17.72 -142.67,-78.71 -225.49,-77.22 -72.55,-8.39 -112.83,67.52 -156.85,112.28l0 0zm-2665.2 -5.59c-3.16,75.16 -13.99,152.18 10.26,225.29 19.03,-15.1 38.23,-30.21 57.45,-45.13 -35.25,-55.39 -36.19,-123.84 -67.71,-180.16l0 0zm4675.57 60.05c30.4,68.07 117.32,59.87 177.75,82.25 105.37,20.33 195.83,78.89 290.01,126.64 10.45,-24.06 21.08,-48.12 31.71,-72.18 -163.94,-54.65 -323.96,-128.88 -499.47,-136.71l0 0zm-2729.91 42.34c-35.63,6.53 -75.35,1.3 -107.81,19.58 -57.07,49.61 -98.66,113.58 -146.22,171.96 -12.12,4.48 -36.56,13.62 -48.68,18.09 -6.15,-86.91 76.1,-136.15 99.97,-212.62 -112.28,28.17 -129.25,161.15 -194.9,239.11 -31.52,14.92 -43.64,-27.24 -30.96,-49.43 23.87,-65.28 59.31,-125.14 89.9,-187.06 -192.66,-11.38 -383.84,20.14 -575.01,38.79 -185.76,8.21 -372.27,-5.6 -557.84,10.26 -123.28,3.54 -265.03,16.41 -353.81,112.64 51.11,63.04 88.78,140.82 160.4,183.9 0.74,31.15 1.12,62.3 1.86,93.63 -21.26,-10.07 -42.52,-20.14 -63.97,-30.03 -13.61,-90.08 -82.06,-159.09 -113.21,-243.39 -88.59,67.52 -170.28,148.27 -220.27,249.18 -12.12,45.69 -35.43,99.59 -8.02,144.16 43.28,85.61 152.38,117.13 242.09,106.13 86.54,-11.75 175.14,0.56 261.12,-11.01 65.09,-117.5 109.1,-247.3 187.25,-357.16 15.1,-16.22 42.52,-57.26 64.9,-27.04 37.49,28.35 21.83,74.04 11.94,111.9 93.25,-33.57 173.26,-94.56 265.21,-131.48 68.27,-33.58 145.85,-27.42 219.71,-27.42 5.6,92.51 -91.95,122.35 -141.37,183.34 156.1,19.58 314.26,8.76 471.3,7.83 18.28,-44.02 7.27,-122.91 74.05,-121.23 -1.68,190.61 2.61,386.45 81.5,564 34.69,-2.8 71.99,0 102.39,-20.14 -29.65,-68.64 -70.13,-132.24 -96.42,-202.55 -43.27,-99.97 -32.45,-212.06 -31.89,-318.19 -5.04,-35.99 26.85,-53.15 55.39,-63.22 8.39,121.79 -9.7,255.33 54.83,365.18 56.14,61.74 114.71,121.79 173.08,181.66 89.34,-55.39 90.65,-174.57 169.72,-239.29 43.27,-73.67 115.64,-125.33 144.55,-207.4 56.7,-6.9 98.47,38.98 141.74,67.9 51.29,35.62 84.68,89.33 126.27,134.65 22.75,30.96 67.33,-5.03 61.36,-36.74 -0.75,-73.11 -76.65,-105.56 -127.2,-142.86 -30.59,-21.45 -80.94,-55.58 -48.12,-96.62 63.42,25.74 115.83,75.54 183.34,91.58 85.23,26.67 146.04,-74.42 146.78,-145.1 -126.08,-96.24 -264.65,-177.19 -409.94,-240.97 -103.89,-32.64 -210.57,7.09 -315.01,15.48l0 0zm3399.29 113.02c-82.62,75.35 -158.35,173.64 -165.81,289.27 57.64,34.32 130.56,31.71 195.09,46.07 30.03,-105.19 59.68,-210.75 83,-317.8 7.27,-27.61 3.54,-56.33 -0.56,-83.93 -41.03,15.1 -80.57,35.24 -111.72,66.39l0 0zm-2559.82 -22.94c10.44,39.54 -16.97,113.03 37.49,124.03 94.18,17.53 185.57,49.05 279.94,63.6 47.38,-20.89 66.77,-81.69 97.74,-121.98 -133.92,-42.34 -274.92,-63.41 -415.17,-65.65l0 0zm385.32 247.12c96.8,21.27 197.7,13.43 293.75,41.22 40.85,-39.54 79.83,-81.31 116.01,-125.15 -94.93,-51.28 -207.95,-53.15 -311.46,-77.58 -52.79,36.93 -91.21,96.8 -98.3,161.51l0 0zm318.37 136.15c73.3,-23.87 98.1,-109.66 149.77,-161.32 -65.47,36.18 -123.66,89.7 -149.77,161.32l0 0zm71.06 26.3c83.56,38.23 170.09,69.57 251.97,111.72 61.55,-53.53 108.55,-124.03 172.15,-176.81 -95.86,-47 -195.65,-97.73 -304.19,-101.46 -46.44,50.55 -81.13,110.22 -119.93,166.55l0 0zm475.59 -14.54c-63.78,36.36 -153.3,79.45 -146.21,166.55 17.34,135.96 130.55,223.43 219.89,315.01 28.91,19.21 85.79,60.99 108.73,16.04 -15.1,-61.17 -44.01,-118.81 -50.92,-181.85 -13.99,-100.71 13.81,-200.12 21.64,-299.9 -49.61,-10.64 -105,-49.99 -153.13,-15.85l0 0zm-1323.64 77.96c-18.84,69.56 -34.32,140.25 -47.93,211.12 83.18,1.12 168.42,6.15 250.29,-11.38 33.58,-65.65 46.44,-139.69 65.47,-210.38 -89.34,-8.2 -179.42,-5.22 -267.83,10.64l0 0zm1655.82 -22.94c21.08,92.32 51.84,184.08 112.09,258.87 52.22,4.29 111.9,-0.93 154.8,35.25 31.71,27.41 66.21,51.85 106.87,64.72 21.63,-11.94 44.2,-30.22 69.56,-15.48 187.26,66.95 377.5,126.45 559.16,207.58 28.91,-76.66 56.7,-154.99 120.11,-211.32 -69.2,-38.42 -143.05,-66.58 -219.15,-87.28 -172.33,-66.21 -360.52,-79.45 -528.37,-157.97 -124.78,-32.64 -250.3,-62.48 -375.07,-94.37l0 0zm-132.05 74.6c-5.6,148.83 -10.26,308.67 71.99,439.41 27.79,33.01 70.69,46.07 108.74,62.66 -9.33,-98.47 -26.86,-196.76 -17.72,-295.98 -34.32,-84.49 -71.06,-169.35 -121.05,-245.63 -29.65,-4.1 -43.64,8.95 -41.96,39.54l0 0zm-1951.8 35.43c-7.28,63.23 -61.93,101.84 -93.26,152.75 68.82,48.68 165.62,28.35 211.13,-41.21 15.85,-67.14 -23.69,-127.76 -68.82,-173.27 -22.39,15.29 -47.75,31.52 -49.05,61.73l0 0zm3845.98 60.43c4.85,32.27 -7.65,74.79 23.87,96.61 48.68,30.03 107.99,29.47 163.01,36.19 -1.87,-25.93 -3.74,-51.85 -5.6,-77.59 -58.19,-25.37 -117.13,-51.48 -181.28,-55.21l0 0zm-1673.17 170.1c13.62,96.8 -8.95,212.61 66.4,289.08 47.37,55.77 110.79,129.07 193.03,103.7 52.79,-15.48 132.24,-54.65 120.12,-119.36 -59.31,-60.43 -144.74,-87.1 -202.74,-149.39 -23.31,-29.29 -27.98,-70.32 -55.02,-96.8 -35.25,-24.43 -81.5,-19.96 -121.79,-27.23z"/>
    </g>
    <g>
     <path class="fil0" d="M6945.64 451.29c122.54,-16.22 242.27,-55.39 366.67,-55.58l-1.3 21.83c-156.85,7.46 -308.67,53.71 -460.49,90.26 1.12,141.19 41.78,285.36 113.59,407.15 24.8,-22.2 81.12,-23.31 80.94,-64.53 -23.5,-31.33 -63.41,-6.72 -94.75,-7.46 20.89,-11.75 41.97,-23.13 63.23,-34.5 -8.02,-34.7 -24.62,-69.39 -19.96,-105.57 12.13,-38.42 58.19,-19.39 87.1,-26.11 -16.04,16.97 -32.26,33.76 -48.67,49.98 6.33,23.13 12.3,46.26 19.02,69.38 41.21,-16.03 81.87,-33.75 122.16,-52.59 -5.97,-17.16 -17.72,-51.48 -23.68,-68.64 14.54,-12.12 29.46,-23.31 45.13,-33.75 34.69,16.59 64.53,41.21 96.24,62.85 -4.29,33.95 9.7,54.09 47.74,50.55 -50.54,35.62 -13.24,105.74 -40.65,154.98 -14.55,-39.73 10.81,-104.44 -36.37,-124.77 15.48,-36.18 8.39,-58.75 -34.32,-54.65 13.43,-35.06 -18.47,-47.93 -44.95,-60.61 3.54,26.29 12.87,50.35 27.79,71.99 11.75,20.52 25.55,39.54 42.9,56.14 11.19,41.21 24.99,94.93 -21.08,120.3 -54.65,48.3 -119.74,-5.23 -171.4,-29.47 -33.76,5.59 -61.18,31.52 -90.83,47.18 46.26,82.81 100.34,161.33 139.51,248.06 153.68,-60.8 318.74,-88.59 470.93,-152.01 -67.51,-80.57 -150.14,-149.02 -202.17,-241.9 -39.36,-53.34 -43.09,-122.91 -74.61,-179.79 -63.04,-8.95 -129.99,-20.33 -164.68,-80.38 -39.36,3.35 -77.59,13.98 -116.01,22.19 0,11.93 -0.19,35.99 -0.38,48.12 -31.33,-8.39 -62.48,-17.16 -93.44,-25.92 3.92,29.09 7.65,58.37 10.82,87.84 -18.46,-37.3 -30.77,-77.4 -39.72,-118.06 33.19,11.19 65.65,24.43 97.73,38.79 -0.56,-11.19 -1.68,-33.38 -2.24,-44.39 69.19,-13.05 138.2,-27.6 205.53,-49.05 -10.26,12.87 -30.59,38.8 -40.84,51.85 36.74,35.25 85.23,47.75 135.03,50.17 -11.38,-49.42 -40.66,-101.08 -19.96,-152 5.59,0.74 16.79,2.42 22.38,3.17 54.46,144.91 85.05,306.06 192.48,424.12 45.69,58 108.17,102.58 145.1,167.29 -28.54,53.35 -97.92,61.55 -149.39,81.7 -129.81,32.45 -256.45,76.47 -384.4,114.14 -46.62,-33.76 -60.61,-94 -91.94,-140.07 -106.13,-168.04 -184.65,-358.46 -194.34,-558.78 0.93,-67.7 82.8,-66.02 130.55,-79.45l0 0zm117.13 360.52c-2.24,36.56 65.28,30.22 45.88,73.11 36.37,11.38 79.08,36 113.77,6.72 34.13,-15.48 4.66,-54.46 0.74,-78.9 -36.37,14.18 -72.73,28.54 -111.15,35.82 24.06,-27.24 116.19,-33.39 82.62,-80.95 -46.63,-9.51 -91.02,24.99 -131.86,44.2z"/>
    </g>
    <g>
     <path class="fil0" d="M-208.25 640.97c80.2,-89.34 158.35,-199.19 279.58,-232.39 63.23,-18.84 98.48,44.95 126.08,89.15 64.72,105.56 161.33,189.68 216.91,300.84 28.72,58.19 8.57,124.59 -33.95,169.91 -100.71,117.68 -212.43,225.49 -325.08,331.61 0.19,13.43 0.75,40.47 1.12,53.9 -9.89,-4.29 -29.66,-12.87 -39.54,-17.35 -102.96,108.18 -228.66,191.17 -346.72,281.26 20.14,-97.36 132.61,-130.56 195.46,-197.51 -1.12,-7.65 -3.36,-23.13 -4.47,-30.96 -67.15,10.63 -115.83,74.78 -188.19,77.4 1.12,-31.71 -2.43,-64.91 11.93,-94.19 19.22,6.53 37.87,13.99 56.33,22.75 26.67,-19.21 52.41,-39.54 77.96,-60.42 -17.16,-27.24 -34.32,-54.28 -51.66,-81.32 -27.79,7.27 -55.21,24.81 -84.86,17.53 -12.31,-35.44 41.4,-28.35 58.56,-43.08 -17.53,-43.83 -43.46,-83.37 -65.28,-124.96 28.73,31.33 52.04,66.95 79.45,99.59 44.95,-27.6 84.68,-62.66 125.71,-95.67 -28.72,-44.95 -55.39,-91.95 -91.2,-131.87 -48.12,18.28 -77.03,62.86 -113.03,96.61 -25.17,-66.95 47.56,-100.9 84.68,-141.56 -30.77,-28.53 -61.73,-57.25 -87.47,-90.64 42.15,24.06 76.65,58.38 111.72,91.39 26.67,-13.62 53.34,-27.23 80.01,-40.66 -19.4,-36.37 -37.86,-73.29 -54.84,-110.97 6.72,-1.68 19.78,-4.85 26.3,-6.53 10.63,47.19 37.68,87.1 69.39,122.91 -27.61,30.03 -63.24,49.8 -99.04,68.07 28.16,42.16 57.07,83.75 86.72,124.78 51.85,-17.35 133.54,-77.59 175.88,-13.99 -15.48,55.4 -53.15,100.71 -83.55,148.46 11.37,17.72 22.56,35.62 33.94,53.34 103.14,-87.28 189.3,-192.29 284.79,-287.59 35.82,-42.53 96.25,-89.15 72,-152.01 -28.54,-76.28 -94.56,-130.36 -140.81,-195.64 -49.43,-55.96 -79.64,-126.08 -128.51,-182.22 -49.98,-14.18 -92.5,27.41 -129.06,55.02 -111.72,100.34 -196.02,227.35 -307.74,327.69 -12.5,-90.45 75.35,-136.34 120.48,-200.68l0 0zm134.29 471.49c-8.21,29.66 19.96,48.12 33.94,70.13 21.83,-32.64 42.72,-65.84 61.55,-100.53 -32.45,8.02 -65.65,15.11 -95.49,30.4l0 0zm-149.77 130.74c17.54,23.13 34.13,47.19 54.09,68.27 51.85,-16.04 78.15,-74.24 113.96,-111.91 -13.99,-18.84 -28.35,-37.3 -43.08,-55.39 -43.28,30.96 -82.07,67.51 -124.97,99.03l0 0zm191.17 6.72c-30.96,38.05 -63.97,74.79 -99.96,108.36 6.9,15.48 13.8,30.96 20.7,46.63 39.16,-33.95 85.98,-63.79 109.48,-111.35 -9.14,-15.1 -19.02,-29.65 -30.22,-43.64z"/>
    </g>
    <path class="fil0" d="M-63.52 729c38.8,-53.72 90.65,-95.86 132.98,-146.59 -2.98,38.42 -21.07,78.7 -5.96,116.57 37.11,27.41 42.52,-34.7 62.48,-52.23 65.83,42.34 117.87,103.14 153.86,172.34 -72.36,1.3 -166.17,19.76 -168.78,110.41 46.44,-6.16 92.32,-15.3 138.76,-21.27 -32.46,53.91 -54.84,121.05 -114.33,151.64 14.18,-46.63 47,-83.19 75.53,-121.42 -38.98,7.83 -78.33,13.06 -117.87,16.04 -37.3,-93.07 58.38,-164.69 143.43,-163.2 -26.49,-45.69 -56.7,-90.64 -102.02,-119.55 -18.66,16.42 -28.73,69.2 -62.3,55.21 -37.11,-5.22 -33.38,-52.22 -48.49,-76.84 -28.35,27.04 -56.7,54.27 -87.29,78.89z"/>
    <g>
     <path class="fil0" d="M5924.7 804.16c157.03,-28.16 317.06,-44.95 469.25,-95.67 52.22,-1.68 45.88,64.34 39.17,99.4 -21.64,94.94 -28.73,192.29 -47.19,287.6 -9.88,66.77 -87.1,81.32 -141.56,94 -300.65,60.06 -607.46,98.29 -914.26,91.76 -60.24,0.19 -19.4,-65.46 -18.84,-99.78 11.38,-118.99 52.6,-231.45 73.86,-348.4 7.08,-8.76 21.45,-26.11 28.72,-34.69 25.55,17.35 50.73,40.1 84.3,36.93 142.49,5.41 287.22,3.73 426.55,-31.15l0 0zm-74.05 62.86c-141.74,22.75 -285.92,15.85 -428.59,11.56 -13.25,48.68 -25.93,97.36 -39.92,145.66 38.8,-15.66 80.2,-9.88 120.67,-6.53 -5.59,-35.24 -23.31,-65.64 -44.38,-93.44 43.64,0.56 87.47,-0.18 131.11,-1.67l0.19 17.34c-31.9,0.19 -63.79,0.37 -95.5,0.19 12.5,27.6 19.03,57.26 23.32,87.1 -39.17,-0.38 -78.89,-0.56 -117.32,8.02 -8.39,52.59 59.13,29.09 90.28,42.34 26.85,39.35 -33.39,58.37 -52.79,85.42 43.84,7.08 88.22,8.76 132.8,6.53 -5.97,5.59 -18.09,16.78 -24.06,22.38 -43.65,-3.74 -118.62,10.63 -136.34,-40.11 23.13,-22.94 49.05,-42.52 73.49,-64.34 -32.08,6.16 -63.79,13.43 -95.68,20.7 -2.24,-16.78 -6.72,-49.98 -8.96,-66.77 -13.42,64.91 -19.77,130.74 -26.67,196.58 178.49,-6.15 359.59,-3.91 534.91,-40.47 107.05,-2.05 211.68,-26.86 316.32,-46.44 40.84,-9.33 85.98,-12.68 120.85,-38.42 21.64,-27.42 22.94,-63.97 29.28,-96.99 10.45,-87.28 27.42,-173.82 40.29,-260.92 -176.25,60.05 -363.13,70.69 -543.3,112.28z"/>
    </g>
    <path class="fil0" d="M6094.42 872.24c56.14,10.44 113.21,17.16 170.47,13.24 -17.35,25.93 -33.95,52.04 -49.8,78.71 50.92,5.03 84.49,-27.6 113.21,-64.16 3.36,52.78 6.34,105.56 8.95,158.34l-14.36 1.13c-1.12,-33.39 -2.24,-66.59 -2.98,-99.79 -36.56,6.35 -73.49,10.26 -110.61,12.5 8.03,-22.94 16.42,-45.51 25,-68.26 -48.12,-3.18 -95.5,-12.5 -139.88,-31.71z"/>
    <path class="fil0" d="M3187.51 884.55c67.32,-38.8 178.29,2.99 155.35,92.88 -44.94,35.25 -106.3,-1.12 -157.04,16.6 -58,39.54 -55.39,141.74 -130.17,157.6l-15.3 -7.65c-11.38,-105.19 47.37,-218.59 147.16,-259.43z"/>
    <g>
     <path class="fil0" d="M5815.77 876.16c27.05,28.16 62.86,40.09 99.6,20.14 36.93,20.51 76.47,35.62 115.82,50.54 7.09,-28.72 17.72,-56.32 31.71,-82.43 -1.86,38.98 -6.72,77.77 -11.57,116.57 -41.96,-13.62 -83.55,-28.91 -125.7,-41.78 -1.12,17.15 -3.36,51.66 -4.48,68.82 50.92,8.39 106.5,15.29 146.41,51.66 13.24,18.65 10.82,35.06 -7.08,49.24 -42.34,45.51 -110.98,42.33 -166.19,60.8 -44.2,-8.58 -88.96,-5.59 -131.11,9.7 -44.95,-30.96 -101.64,-33.57 -148.27,-60.06 -16.61,-55.39 59.86,-56.88 95.86,-47.56 10.82,22.76 22.94,45.33 39.36,64.91 6.34,-33.39 11.93,-66.77 16.97,-100.15 -50.54,-1.87 -101.28,-4.67 -149.4,-20.52 32.27,-66.96 109.48,-85.8 175.32,-102.4 5.6,-9.51 16.98,-28.16 22.75,-37.48l0 0zm-152.18 127.01c37.48,2.42 75.34,3.36 113.2,2.8 -0.56,-14.74 -1.49,-44.21 -1.86,-58.94 -40.47,11.75 -80.01,27.04 -111.34,56.14l0 0zm148.83 -64.16c-5.6,22.57 -11.01,45.13 -16.23,67.7 37.31,1.49 74.79,2.43 112.28,3.17 1.68,-24.99 3.35,-49.98 5.04,-74.97 -33.76,0.93 -67.52,2.42 -101.09,4.1l0 0zm-22.01 96.8c-2.61,32.26 -4.66,64.53 -6.71,96.8 35.06,-0.19 70.31,-0.75 105.56,-1.5 5.41,-31.14 10.44,-62.29 15.11,-93.44 -38.24,-1.11 -76.1,-1.67 -113.96,-1.86l0 0zm126.64 0c-4.85,31.33 -9.51,62.85 -13.8,94.19 49.05,-5.23 103.32,-6.53 142.31,-41.6 -13.43,-49.61 -88.04,-37.67 -128.51,-52.59z"/>
    </g>
    <path class="fil0" d="M7405.01 878.77c40.66,19.02 59.68,60.24 79.45,97.73 -39.54,-17.16 -80.2,-31.71 -122.72,-39.17 -0.74,53.16 60.99,55.02 97.17,72.92 -80.57,22.76 -162.26,41.04 -244.14,57.08 8.77,-27.05 17.35,-54.27 25.74,-81.51 -55.21,2.05 -87.85,43.65 -111.53,88.22 -14.18,-27.04 -28.35,-54.08 -41.41,-81.69 14.93,19.02 28.54,38.79 43.27,58.19 18.47,-25.92 38.98,-50.36 61.36,-73.11 13.81,1.12 41.41,3.17 55.21,4.11 -1.68,16.78 -5.04,50.54 -6.53,67.32 50.18,-13.24 100.72,-25.55 151.45,-36.36 -21.08,-19.59 -49.8,-35.44 -57.45,-65.47 17.16,-38.05 67.33,-14.74 98.85,-19.77 -7.27,-12.12 -21.63,-36.37 -28.72,-48.49z"/>
    <path class="fil0" d="M1428.92 1043.46c1.31,-45.51 44.02,-54.46 73.67,-73.3 0,18.84 0,56.32 0,75.16 29.1,-16.97 58.19,-34.32 88.22,-49.43 -21.45,36.93 -60.61,55.4 -96.99,74.42 -1.67,-18.65 -5.21,-55.76 -7.08,-74.42 -14.36,11.94 -43.46,35.63 -57.82,47.57z"/>
    <path class="fil0" d="M6163.43 1032.82c60.61,1.12 117.31,24.25 175.13,39.54 -25.18,35.63 -61.36,7.84 -91.39,-1.12 -31.34,55.77 -105.19,61.55 -161.89,53.16 39.35,-17.16 82.62,-22.2 124.59,-30.59 -15.85,-20.14 -31.52,-40.28 -46.44,-60.99z"/>
    <g>
     <path class="fil0" d="M8270.97 1230.33c25.55,-31.52 62.1,-50.54 98.47,-67.32 -84.3,96.42 -166.74,194.71 -240.78,299.15 -55.76,80.2 -129.06,150.52 -165.62,242.47 44.58,82.81 133.92,126.82 207.21,180.91 86.36,59.68 177.19,114.52 278.27,145.66 17.16,-43.27 35.25,-86.16 53.71,-128.69 -15.66,-6.34 -47,-19.02 -62.66,-25.37 -21.26,30.03 -42.71,60.06 -65.46,88.97 10.44,-33.95 21.82,-67.33 33.38,-100.71 -48.68,-29.29 -122.91,-57.26 -123.47,-123.84 19.21,-27.8 45.14,-66.03 84.67,-52.23 -7.27,25.37 -17.15,49.8 -26.1,74.61 31.7,19.58 63.78,38.79 96.23,57.63 25.18,-54.09 51.67,-107.81 79.83,-160.59 -50.73,-22 -117.88,-77.77 -69.94,-135.59 52.97,-13.24 115.26,1.86 159.09,-38.23 2.98,10.63 8.58,31.7 11.56,42.34 29.47,14.73 62.3,25.73 85.61,50.72 -1.86,58.38 -72.18,16.98 -82.62,-15.66 -22.57,1.86 -47,10.63 -52.6,37.67 -8.76,-17.71 -17.71,-35.44 -26.29,-53.15 -28.73,6.15 -56.89,12.68 -85.24,19.58 14.36,12.87 28.91,25.74 43.46,38.61 20.51,3.17 41.03,6.71 61.54,10.63 21.83,9.14 45.14,35.81 70.13,10.81 27.79,20.9 55.77,41.97 84.3,62.3 13.43,48.12 7.84,97.73 0.38,146.22 -52.79,47.75 -122.54,62.67 -191.36,68.27 -19.96,44.38 -37.3,89.89 -52.6,136.14 76.47,31.9 155.93,56.14 235.38,79.46 3.35,21.07 6.9,42.15 8.95,63.41 -218.4,-61.36 -437.55,-143.98 -615.29,-288.72 -64.91,-51.28 -146.22,-93.81 -180.36,-173.08 -13.23,-60.98 40.1,-105.37 71.81,-149.95 96.05,-110.97 180.54,-231.26 276.41,-342.43l0 0zm268.57 434.57c-30.96,54.65 -60.43,110.41 -82.62,169.54 20.7,7.64 41.4,15.29 62.29,22.93 32.83,-59.49 63.23,-120.67 83.37,-185.76 -15.67,-1.67 -47.19,-5.03 -63.04,-6.71l0 0zm92.88 15.48c-33.2,56.7 -61.74,116.01 -85.24,177.18 79.46,6.9 170.1,-40.47 163.39,-130.74 -26.11,-15.67 -52.04,-31.15 -78.15,-46.44z"/>
    </g>
    <path class="fil0" d="M2426.55 1298.78c43.65,-39.35 100.53,-70.5 161.33,-66.58 37.12,-4.29 42.9,28.53 48.87,56.89 -76.47,9.51 -144.73,45.88 -217.1,68.82 -40.85,3.91 -9.51,-48.87 6.9,-59.13z"/>
    <path class="fil0" d="M4066.89 1244.14c49.98,-22.76 123.84,-2.43 146.6,50.36 17.34,67.51 -47.56,136.7 -114.52,132.04 -79.08,-19.77 -89.89,-134.84 -32.08,-182.4z"/>
    <path class="fil0" d="M8350.23 1232.57c39.73,-14.36 69.01,18.84 100.16,37.12 84.67,59.31 183.89,94 265.96,157.04 18.46,23.69 7.65,52.78 -1.31,77.77l-18.09 48.12c-3.73,-23.5 -2.61,-47.37 1.68,-70.87 -16.04,-7.65 -31.9,-15.29 -47.56,-22.75 -8.02,-1.13 -23.69,-3.74 -31.71,-5.04 -26.48,-30.59 -71.43,-82.44 -112.83,-43.65 -66.03,43.28 -149.77,90.83 -224.56,38.61 -31.33,46.63 -63.79,92.7 -97.73,137.65 15.11,13.8 29.84,27.97 44.01,42.89 -34.31,32.83 -79.63,49.43 -122.53,67.33 30.78,30.03 61.55,60.06 89.71,92.7 -52.22,-27.79 -100.72,-61.36 -148.83,-95.49 52.59,-20.52 106.49,-38.43 157.22,-63.61 -19.95,-2.23 -59.68,-6.89 -79.64,-9.14 68.45,-81.31 131.12,-167.11 186.51,-257.94 2.24,31.52 4.29,62.86 6.72,94.38 72.36,-0.19 137.08,-32.64 190.79,-79.27 -56.32,-40.66 -157.97,-62.67 -157.97,-145.85z"/>
    <path class="fil0" d="M3267.52 1303.63c119.73,-36.74 154.43,174.57 46.81,205.72 -79.08,18.46 -133.72,-70.69 -128.13,-140.25 2.8,-41.03 47.93,-55.96 81.32,-65.47z"/>
    <path class="fil0" d="M2448 1396.52c50.73,-36.19 114.89,-54.46 177.18,-52.23 37.31,-6.15 42.15,30.03 49.24,56.7 -82.06,5.22 -161.52,23.87 -238.54,51.66 -22.2,-16.41 -5.97,-45.51 12.12,-56.13z"/>
    <g>
     <path class="fil0" d="M1316.27 1580.41c50.92,-11.93 100.53,-34.32 154.05,-29.84 16.6,86.35 -18.27,169.91 -25.73,255.33 -9.7,57.26 -7.84,119.74 -37.3,171.59 -50.17,43.08 -118.25,48.86 -180.17,62.85 -282.75,51.85 -570.34,87.1 -858.31,80.2 -8.39,-2.61 -24.99,-8.02 -33.2,-10.63 26.3,-153.5 36.37,-318 124.21,-451.91 170.66,36.37 354,19.4 524.84,-18.65 110.6,-19.4 222.5,-32.27 331.61,-58.94l0 0zm-425.98 125.71c-141.94,22.94 -286.48,16.04 -429.53,11.75 -12.87,48.3 -25.55,96.79 -39.73,144.73 38.79,-15.86 80.39,-8.58 120.67,-5.41 -5.78,-35.06 -23.12,-65.84 -43.83,-94.19 43.46,0.37 87.1,-0.56 130.56,-1.49l0.37 17.16c-29.84,-0.75 -59.49,-1.49 -89.34,-2.24 6.16,30.03 11.57,60.24 16.79,90.64 -39.91,-0.18 -79.83,0.75 -119.74,1.87 2.06,10.63 5.97,31.89 7.83,42.52 29.1,0 58.38,-1.68 86.92,4.85 22.19,40.47 -34.32,58.75 -54.28,85.8 44.02,7.46 88.41,9.13 132.8,6.52 -6.71,5.79 -20.14,17.35 -26.86,23.13 -49.98,1.12 -104.07,0.37 -141.18,-38.23 27.6,-21.64 55.39,-42.72 82.06,-65.28 -32.83,5.22 -65.47,11.93 -98.1,18.65 -2.24,-16.41 -6.91,-49.05 -9.14,-65.28 -12.87,64.53 -18.28,130.18 -24.99,195.65 178.29,-6.16 359.02,-4.11 534.34,-40.48 121.41,-3.16 239.85,-32.63 358.84,-54.83 38.05,-8.39 88.97,-18.83 95.87,-65.09 20.32,-107.06 33.19,-215.41 52.59,-322.66 -176.25,59.5 -362.76,70.32 -542.92,111.91z"/>
    </g>
    <g>
     <path class="fil0" d="M5148.64 1684.11l13.61 -3.54c41.03,42.14 71.99,94.18 119.55,129.62 34.69,22.94 72.93,39.91 109.86,59.31 5.41,-1.68 16.22,-4.67 21.63,-6.34 20.14,13.24 40.1,25.74 60.8,38.42 -11.19,3.17 -33.57,9.32 -44.76,12.49 -24.06,37.49 33.94,26.86 51.85,16.23 -3.73,23.87 -7.09,47.93 -10.45,71.99 -22.94,-22.38 -45.69,-44.95 -70.68,-64.9 8.76,58.93 69.19,95.86 63.97,159.27 -25.92,-3.54 -51.66,-7.46 -77.4,-11.37 -2.42,7.27 -7.28,22 -9.51,29.46 -17.16,-45.88 -62.86,-61.73 -107.05,-69.38 -5.97,77.96 102.01,80.95 153.67,113.03 33.77,-44.58 96.81,-71.06 101.84,-132.42 16.97,-16.6 34.13,-32.83 52.41,-48.12 -2.8,5.78 -8.58,17.34 -11.38,23.13 -33.57,58.93 -76.28,111.53 -118.99,163.75 14.73,2.61 44.02,7.46 58.75,9.89 22.94,-56.7 66.58,-108.93 60.24,-173.64l19.03 27.22c15.48,-26.1 30.77,-52.03 46.06,-78.14 -43.64,-10.82 -98.48,-5.78 -133.91,-36.18 60.99,-7.83 122.16,20.51 182.22,-0.19 -57.63,86.73 -115.45,174.39 -154.25,271.55 -85.04,32.46 -166.55,-34.31 -243.76,-61.73 -89.15,-54.27 -185.76,-114.89 -235.19,-210.38 34.69,-75.91 55.21,-158.72 101.84,-229.03l0 0zm4.29 25.37c-27.23,71.61 -66.96,140.62 -82.25,215.78 45.32,66.4 112.84,113.22 182.77,150.51 0.75,-11.93 2.24,-35.62 2.99,-47.56 -55.39,-35.43 -106.31,-77.4 -157.79,-118.05 41.22,12.49 76.65,11.75 83,-38.61l-37.11 -1.87c17.15,-35.81 30.21,-85.98 81.87,-74.78 -20.14,-32.09 -44.76,-60.99 -73.48,-85.42l0 0zm73.48 85.42l-26.11 6.71c10.07,13.8 30.4,41.78 40.47,55.58 -21.07,-15.11 -42.15,-30.77 -63.22,-45.69 4.47,27.41 10.63,54.64 17.9,81.68 -9.51,10.07 -28.54,30.41 -38.05,40.48 23.87,12.87 47.75,25.74 71.81,38.23 8.02,13.24 23.87,39.91 31.89,53.34 11.75,-23.5 23.87,-46.81 35.81,-69.94 -21.45,-13.43 -42.52,-26.85 -63.97,-40.1 34.87,-1.12 68.82,-8.39 97.91,-29.28 -1.67,19.77 -3.54,39.54 -5.96,59.31 19.95,8.95 39.91,17.91 60.05,26.86 1.68,-11.75 5.04,-34.88 6.72,-46.44 -10.26,-0.94 -30.78,-2.8 -41.03,-3.73l3.72 -5.23c11.38,-2.98 34.51,-9.13 45.88,-12.12 -0.74,-3.17 -2.42,-9.33 -3.16,-12.49 -61.55,-24.25 -115.64,-61.55 -170.66,-97.17l0 0zm81.32 154.24c-7.65,27.97 -14.74,56.13 -21.45,84.3 25.74,8.76 51.85,17.9 77.78,26.85 4.47,-13.05 13.61,-39.35 18.08,-52.59 1.87,16.6 5.23,49.98 6.91,66.58 15.29,0.93 45.69,2.99 60.79,3.92 -19.02,-66.4 -82.8,-103.51 -142.11,-129.06z"/>
    </g>
    <path class="fil0" d="M1138.53 1712.09c54.65,8.76 109.48,18.27 164.87,11.93 -16.97,26.3 -33.38,53.16 -48.86,80.39 50.54,4.1 83.92,-28.73 112.46,-65.1 2.61,53.35 12.87,107.81 -0.19,160.59 -5.59,-33.57 -7.46,-67.52 -9.51,-101.27 -35.81,6.52 -72.17,11.18 -108.36,14.17 7.46,-22.94 15.48,-45.51 23.69,-68.08 -45.51,-6.34 -93.44,-8.95 -134.1,-32.63z"/>
    <g>
     <path class="fil0" d="M854.66 1715.81c27.23,27.42 63.23,39.36 99.6,19.96 36.93,19.96 76.09,35.25 115.45,49.98 7.46,-26.66 17.53,-52.4 30.21,-77.02 -1.12,37.3 -5.04,74.41 -8.95,111.53 -42.34,-13.43 -83.74,-28.72 -126.08,-41.59 -1.49,16.97 -4.48,51.29 -5.97,68.45 54.83,9.13 117.69,16.22 155.92,61.92 -9.14,79.26 -110.78,80.94 -171.21,95.86 -50.54,-2.98 -100.16,4.29 -149.21,12.5 -41.4,-32.45 -96.61,-32.83 -140.81,-58.75 -15.86,-55.77 59.5,-56.33 95.68,-48.12 11,23.13 23.12,45.69 40.47,64.72 5.97,-33.2 11,-66.4 15.66,-99.78 -50.17,-1.68 -100.71,-4.29 -148.83,-19.96 31.71,-67.33 109.48,-85.8 175.13,-102.58 5.78,-9.32 17.16,-27.79 22.94,-37.12l0 0zm-152 127.02c37.67,2.24 75.72,2.8 113.58,2.05 -0.74,-14.74 -2.24,-43.83 -2.98,-58.38 -40.1,11.75 -79.83,26.67 -110.6,56.33l0 0zm148.64 -64.72c-5.4,22.75 -10.62,45.51 -15.48,68.45 36.75,1.12 73.68,2.05 110.6,2.61 2.06,-24.99 4.11,-49.99 6.16,-74.98 -33.94,0.94 -67.51,2.43 -101.28,3.92l0 0zm-22.38 97.17c-2.23,32.27 -4.28,64.53 -5.96,96.8 35.06,-0.19 70.13,-0.75 105.19,-1.87 5.41,-30.96 10.44,-62.1 15.1,-93.44 -38.04,-0.93 -76.28,-1.49 -114.33,-1.49l0 0zm127.21 -0.74c-4.86,31.89 -9.33,63.97 -13.43,96.23 53.9,-6.71 117.12,-8.95 150.32,-59.68 -44.39,-16.6 -90.45,-27.79 -136.89,-36.55z"/>
    </g>
    <path class="fil0" d="M1201.57 1873.6c61.55,-3.36 117.31,27.42 177.74,33.2 -20.52,44.76 -62.66,12.49 -93.07,3.36 -31.33,56.13 -105.38,62.29 -162.26,53.15 40.1,-15.85 83.18,-22.38 125.33,-30.59 -16.22,-19.58 -32.45,-38.98 -47.74,-59.12z"/>
    <g>
     <path class="fil0" d="M5960.69 2266.02c38.42,-127.02 58.94,-272.12 165.81,-363.32 107.06,16.41 214.29,-12.13 321.54,-3.73 58.74,4.28 117.87,5.22 176.81,7.83 -3.92,76.84 -59.13,134.84 -86.73,203.29 -63.6,125.34 -66.4,268.95 -69.56,406.41 25.73,-2.62 48.67,3.35 69,17.71 -16.97,5.23 -50.92,16.04 -67.89,21.27 15.48,133.54 36.37,266.89 77.22,395.2 12.31,32.46 68.82,46.44 55.39,85.24 -188.37,-21.26 -375.07,-58 -564.93,-64.53 -42.53,0.18 -95.31,-20.71 -96.06,-70.32 -23.5,-144.17 -15.66,-291.69 -10.63,-436.98 -5.78,-13.06 -11.38,-25.93 -16.78,-38.8 35.62,-45.69 30.4,-106.5 46.81,-159.27l0 0zm171.4 -314.83c-48.11,33.94 -66.58,97.54 -84.67,151.44 -25.55,97.17 -58.75,193.22 -68.64,293.75 29.1,-2.61 58.2,-5.22 87.47,-8.02 12.88,-64.9 1.31,-146.22 58.76,-192.29 7.27,-59.49 9.32,-120.3 28.9,-177.55 67.15,13.43 60.06,133.35 143.24,131.11 -12.31,-29.84 -25.17,-59.31 -38.23,-88.78 58.19,-6.15 116.94,-8.95 175.5,-4.66 1.12,69.94 -27.97,155.92 -101.27,177.75 33.76,-49.06 76.09,-96.24 79.45,-158.91 -32.64,2.8 -64.72,6.15 -97.17,10.07 0,17.16 -0.19,51.66 -0.19,69.01 -58.37,52.78 -110.6,-42.15 -146.78,-80.39 -6.9,49.8 -11.56,99.97 -15.48,150.14 6.9,24.99 19.77,50.18 14.92,77.03 -19.77,8.02 -39.54,15.29 -59.68,21.82 -2.8,15.48 -8.02,46.63 -10.63,62.11 48.49,-2.99 97.17,-6.16 145.85,-9.14 -0.37,-39.72 -0.56,-79.26 0.37,-118.8 58.19,11.56 71.99,74.97 97.92,119.36 28.35,-1.3 56.7,-2.99 85.23,-4.66 10.45,-62.11 15.85,-125.71 35.25,-185.95 28.91,-81.69 72.55,-156.86 105.19,-237.05 -145.1,-14.18 -290.2,2.79 -435.31,2.61l0 0zm-14.73 301.77c-9.14,26.29 -0.75,36.93 24.99,31.33 8.77,-26.11 0.37,-36.74 -24.99,-31.33l0 0zm148.46 56.88c-13.43,20.89 -8.76,59.87 18.09,67.71 34.87,-5.97 9.88,-75.54 -18.09,-67.71l0 0zm9.88 92.32c2.24,53.53 3.73,107.06 4.3,160.59 24.61,-7.09 49.42,-13.99 74.04,-21.26 -17.53,-48.12 -3.17,-151.45 -78.34,-139.33l0 0zm80.76 -2.6c9.32,46.81 17.16,94.18 31.33,140.06 70.69,-6.9 30.03,-95.49 40.67,-143.42 -24.07,0.93 -48.13,2.05 -72,3.36l0 0zm-262.23 14.92c-0.37,59.3 2.24,118.43 9.14,177.36 47.19,-7.46 95.31,-11.93 140.81,-27.23 15.3,-52.22 8.02,-107.05 5.23,-160.21 -51.85,2.62 -103.52,6.16 -155.18,10.08l0 0zm-120.11 21.81c-10.07,116.94 -13.61,234.44 -4.85,351.76 89.71,-15.48 156.11,52.97 230.9,87.85 24.43,-12.5 48.68,-43.65 79.83,-31.52 31.89,15.29 60.61,36.18 90.64,55.02 3.54,-12.69 10.25,-37.86 13.8,-50.55 19.95,20.7 11.19,48.86 9.32,73.86 -47.74,-7.27 -84.11,-41.41 -128.5,-56.52 -30.77,10.08 -60.62,45.14 -94.93,27.42 -64.16,-32.63 -125.15,-73.86 -197.7,-86.35 4.66,37.12 9.89,74.42 15.1,111.72 84.68,22.57 173.08,10.63 258.88,24.99 86.91,12.68 173.08,30.21 260.93,33.39 -38.05,-136.72 -63.79,-276.04 -81.33,-416.66 -9.88,2.98 -29.46,8.76 -39.35,11.75 -8.95,33.57 -18.46,66.95 -29.47,99.78 27.05,-7.09 54.09,-13.43 81.7,-18.47 -38.43,52.23 -102.96,73.86 -165.44,79.27 28.54,-50.17 67.33,-96.05 75.54,-155.36 -26.86,6.71 -52.78,13.99 -79.27,21.63 -15.85,71.06 -47.93,154.62 -121.97,181.29 -70.5,-0.19 -71.43,-89.15 -78.34,-139.88 -18.84,4.47 -37.48,8.95 -56.13,13.24 -4.85,-34.32 26.66,-44.76 50.35,-58.75 -1.86,-59.5 -4.29,-118.8 -4.85,-178.3 -28.35,6.16 -56.7,12.68 -84.86,19.39l0 0zm131.3 193.41c6.72,37.49 3.92,78.9 26.49,111.53 67.14,-5.59 85.61,-87.65 111.34,-138.94 -46.44,7.09 -92.32,16.97 -137.83,27.41z"/>
    </g>
    <g>
     <path class="fil0" d="M428.31 2546.15c21.07,-29.84 33.01,-71.25 70.87,-84.3 61.55,18.65 84.49,85.23 115.82,134.66 46.07,91.01 122.35,165.99 152.37,264.84 -19.95,102.39 -101.26,176.43 -162.07,256.26 -179.42,222.32 -377.67,428.78 -593.28,616.03 -18.84,18.84 -45.88,22.57 -70.31,30.22 -27.6,-93.44 -102.77,-160.77 -139.14,-249.92 -31.15,-59.69 -47.37,-131.49 -102.95,-174.57 3.92,-21.82 7.83,-43.65 11.94,-65.47 65.83,12.13 108.92,-41.96 154.8,-78.52 99.96,-86.72 201.05,-175.13 273.79,-287.03 96.61,-120.12 204.04,-232.39 288.16,-362.2l0 0zm-317.25 486.04c20.7,16.41 41.77,32.83 61.73,50.17 -40.1,26.11 -6.71,60.62 9.51,86.91 34.88,-17.34 65.09,-42.89 91.77,-70.68 -9.89,-26.86 -43.28,-99.79 -72.75,-43.09 -10.25,-9.88 -20.51,-19.77 -30.77,-29.84 47.75,-39.35 107.62,-56.51 164.87,-76.47 -13.24,-30.21 -26.11,-60.61 -36.55,-91.95 42.34,25.18 58.56,74.24 79.08,116.01 -46.44,12.69 -93.25,24.99 -136.15,47.19 15.29,21.26 30.77,42.71 46.25,63.97 56.52,-38.79 120.67,-76.1 192.29,-62.11 0.75,26.86 0.19,53.72 -1.86,80.58 -41.78,93.06 -119.93,160.39 -197.89,222.87 12.68,14.18 26.49,27.23 41.22,39.17 35.44,-36.37 67.14,-76.66 106.12,-109.48 89.34,-121.98 199.01,-229.03 276.22,-359.78 21.08,-40.65 -15.29,-80.19 -33.94,-114.14 -58.19,-84.67 -109.67,-173.45 -161.52,-262.04 -115.26,184.08 -266.71,340.38 -397.63,512.71l0 0zm-249.92 233.69c-29.29,25 -63.23,45.88 -86.73,76.84 52.03,125.9 120.67,244.33 201.43,353.99 110.41,-96.79 215.23,-199.93 321.16,-301.58 -12.86,-17.53 -25.36,-35.25 -39.54,-51.66 -50.35,16.6 -94,55.21 -148.27,58.01 -35.25,-25.93 -9.14,-71.81 16.79,-93.07 35.06,-30.78 74.41,15.48 113.77,3.35 -18.84,-30.58 -38.43,-60.61 -57.82,-90.82 -46.25,35.06 -90.27,83.55 -153.12,82.62 -12.13,-100.9 86.72,-166.37 81.32,-262.98 -82.26,75.72 -160.4,156.67 -248.99,225.3l0 0zm447.99 -157.6c18.83,30.96 38.98,60.81 59.87,90.46 40.84,-44.39 84.86,-92.51 84.3,-157.22 -52.41,11.93 -99.22,38.42 -144.17,66.76l0 0zm-191.36 37.86c-26.67,34.13 -40.29,76.1 -49.98,117.69 33.38,-21.45 65.28,-44.76 95.86,-69.75 -14.92,-15.86 -17.16,-58.38 -45.88,-47.94l0 0zm86.91 55.02c16.6,32.27 40.29,60.06 62.86,88.22 29.09,-26.29 58,-52.78 86.91,-79.26 -17.16,-30.03 -35.25,-59.31 -54.65,-87.85 -32.45,25.37 -66.21,49.42 -95.12,78.89l0 0zm-55.57 130.19c8.95,10.81 8.95,10.81 0,0z"/>
    </g>
    <g>
     <path class="fil0" d="M7718.71 2655.63c9.33,-1.68 27.8,-4.85 36.93,-6.53 43.28,84.67 67.15,177.93 110.79,262.6 -8.21,4.85 -24.99,14.37 -33.2,19.22 -40.66,-22.2 -84.49,-43.28 -131.86,-42.72 -46.63,5.6 -91.2,22.01 -136.33,34.32 37.67,84.12 71.05,171.21 123.65,247.5 70.5,-20.52 141.75,-57.82 217.09,-42.15 110.23,15.67 197.14,93.81 272.86,169.16 41.22,85.98 67.71,195.27 16.04,282.94 -57.81,118.99 -151.44,213.55 -248.8,300.83 22.38,93.81 58.01,185.58 68.82,281.63 -8.95,0.93 -26.85,2.61 -35.8,3.35 -45.14,-79.08 -56.89,-171.96 -78.15,-259.43 -55.4,27.42 -113.21,48.86 -171.77,68.08 12.12,63.97 -7.65,141.74 42.7,192.28 -1.67,48.87 -2.23,97.74 -0.56,146.6 -9.13,5.04 -27.23,14.92 -36.18,19.96 -54.46,-103.89 -82.25,-219.52 -99.78,-334.78 -133.16,7.83 -280.51,36.55 -400.25,-40.29 -86.54,-52.04 -72.73,-216.72 35.81,-229.78 51.3,-13.98 111.53,28.35 111.53,82.81 2.06,39.17 -24.61,71.81 -39.16,106.31 88.41,12.68 178.49,14.73 266.33,-4.85 -7.27,-141 -85.23,-261.67 -126.45,-393.34 -89.9,39.35 -191.73,47.19 -287.03,25.92 -91.95,-24.43 -180.92,-99.04 -180.55,-201.06 -0.37,-141.74 73.49,-287.59 197.52,-360.33 -34.14,-61.36 -92.32,-113.21 -98.85,-186.5 74.79,19.58 98.1,107.61 157.78,150.69 62.11,-24.24 124.03,-48.86 185.77,-74.23 -19.96,-42.89 -44.02,-83.92 -77.41,-117.5 13.62,-19.95 21.08,-52.59 52.23,-45.13 28.16,47 52.22,96.42 79.64,143.98 86.54,-13.8 174.38,-19.96 261.11,-33.57 -19.77,-54.83 -42.71,-108.92 -54.47,-165.99l0 0zm-400.43 361.27c68.27,88.4 88.59,203.1 161.52,288.15 47.93,-44.95 107.99,-75.72 153.68,-122.53 -41.22,-81.33 -96.24,-154.99 -135.78,-237.25 -61.92,18.28 -121.04,44.39 -179.42,71.63l0 0zm-190.23 234.44c-16.42,58.93 -0.94,141.93 66.58,160.02 74.42,17.16 147.15,-20.52 212.62,-52.04 -42.53,-106.49 -92.51,-210.38 -154.24,-307.18 -58.01,53.91 -109.11,119.74 -124.96,199.2l0 0zm659.86 116.19c56.32,134.66 86.54,277.9 130,416.85 91.94,-57.45 185.57,-139.51 200.68,-252.54 -7.65,-83.18 -27.6,-176.25 -90.27,-235.18 -83.37,-10.26 -162.82,44.01 -240.41,70.87l0 0zm-225.49 108.55c60.8,129.81 94.93,268.94 142.12,403.97 55.77,-21.07 111.53,-41.96 165.62,-67.33 -40.47,-140.06 -79.64,-282.56 -148.46,-411.99 -52.78,25.92 -105.94,51.1 -159.28,75.35z"/>
    </g>
    <path class="fil0" d="M544.69 2684.54c62.66,49.23 113.02,111.71 157.41,177.55 -28.35,11.38 -56.88,22.57 -85.24,33.76 12.88,73.3 -51.66,126.08 -99.77,170.47 13.42,-50.17 54.64,-85.05 84.48,-125.71 -27.41,-4.1 -56.7,-1.67 -81.87,-14.92 35.99,-47.74 96.42,-60.24 150.69,-74.98 -25.73,-38.04 -55.39,-73.1 -87.1,-106.3 -11.74,40.84 -33.57,78.14 -74.79,93.81 -11.19,-26.86 -21.63,-54.09 -31.89,-81.13 -35.25,37.3 -78.33,65.46 -126.82,82.25 52.41,-38.05 104.44,-77.4 144.91,-128.69 7.84,35.25 -14.17,90.08 27.23,108.54 52.23,-28.34 31.89,-88.96 22.76,-134.65z"/>
    <path class="fil0" d="M3078.77 2808.38c38.24,-17.16 115.07,-22.57 121.04,33.57 6.72,38.79 37.49,83.74 10.82,120.86 -32.08,32.82 -68.26,62.11 -91.39,102.39 -64.34,3.73 -86.54,-69.94 -120.86,-111.72 -4.1,-58.93 51.48,-99.22 80.39,-145.1z"/>
    <path class="fil0" d="M-160.5 3354.66c27.04,-49.24 76.84,-78.7 125.15,-103.51 -25.37,35.62 -61.92,60.61 -96.43,86.54 29.1,12.87 71.25,16.41 83.93,51.47 24.44,57.82 -127.94,68.45 -51.85,122.36 29.85,-25 60.24,-50.74 99.97,-57.27 -0.93,37.12 -4.85,73.86 -8.95,110.79 48.12,-17.72 84.49,-52.78 119.55,-88.59 -5.6,73.49 -86.35,114.52 -152.94,114.89 6.53,-37.3 13.81,-74.42 19.03,-111.9 -25.74,24.06 -45.51,53.53 -64.72,82.99 -31.52,-26.3 -56.33,-61.74 -58.75,-103.88 29.28,-20.34 69.38,-27.42 89.71,-58.94 -22.76,-36 -67.14,-34.69 -103.7,-44.95z"/>
    <path class="fil0" d="M4867.2 3722.27c37.48,-22.38 92.32,28.16 66.39,65.84 -25.36,51.66 -107.98,40.09 -122.91,-13.25 13.25,-22.75 32.64,-41.4 56.52,-52.59z"/>
    <path class="fil0" d="M5074.78 3818.32c33.57,-23.87 59.49,19.77 85.42,34.13 -25.37,24.99 -44.57,88.22 -88.59,57.07 -41.41,-13.24 -21.83,-70.31 3.17,-91.2z"/>
    <path class="fil0" d="M5275.09 3886.77c31.14,3.17 94.56,-13.24 91.95,36.55 11.74,40.47 -29.66,78.34 -68.83,70.69 -43.26,-17.35 -19.39,-71.99 -23.12,-107.24z"/>
    <path class="fil0" d="M5503.75 4004.27c16.79,-25.18 47.93,-34.51 72.36,-50.17 10.82,35.06 44.39,78.89 9.52,111.15 -37.49,36.19 -104.83,-15.1 -81.88,-60.98z"/>
    <path class="fil0" d="M5744.34 4057.42c25.74,-17.16 57.26,-12.68 83.93,0.37 60.05,35.07 -26.86,106.5 -69.75,88.78 -46.44,-6.9 -35.81,-62.29 -14.18,-89.15z"/>
    <path class="fil0" d="M5964.42 4202.34c-13.24,-62.11 58.75,-94 109.48,-76.1 1.87,25.93 3.73,51.67 5.6,77.59 -6.53,9.33 -19.77,27.98 -26.3,37.3 -31.14,-3.92 -91.95,9.51 -88.78,-38.79z"/>
    <g>
     <path class="fil0" d="M111.99 4208.87c63.41,-4.67 122.53,-43.83 186.88,-28.91 -2.24,38.98 -4.48,79.82 14.55,115.63 46.06,99.6 94.37,199.19 157.78,289.09 113.59,138.01 197.89,299.35 326.02,425.61 19.21,18.09 29.09,55.95 0.18,70.32 -46.44,28.53 -101.27,36.55 -152.56,51.66 -73.86,20.14 -144.36,53.53 -221.19,61.92 -71.63,-21.82 -108.74,-92.51 -153.32,-146.78 -130.55,-182.03 -258.87,-366.86 -359.02,-567.55 -31.52,-65.27 -77.97,-125.33 -85.61,-199.56 98.29,-12.12 187.44,-61.18 286.29,-71.43l0 0zm-5.78 41.22c8.58,32.07 15.85,64.9 27.42,96.42 43.26,21.26 56.69,-41.59 78.33,-67.33 19.58,42.34 43.64,84.68 44.01,132.98 -16.6,-29.84 -30.77,-60.8 -44.95,-91.57 -20.51,21.45 -41.59,60.43 -77.39,43.27 -18.29,-26.86 -31.52,-56.7 -46.82,-85.05 -8.02,4.47 -24.24,13.61 -32.45,18.28 15.66,33.38 47.37,74.97 6.52,103.13 -24.06,-10.44 -48.67,-19.95 -73.29,-28.53 13.06,39.54 29.84,77.96 44.02,117.13 -45.7,-30.03 -62.67,-86.17 -64.35,-138.21 26.86,-29.47 68.26,14.74 99.97,16.42 -16.98,-21.64 -35.25,-41.78 -50.73,-64.35 11.56,-15.29 23.68,-30.4 36.18,-44.95 -55.58,24.43 -113.21,44.02 -171.59,60.99 50.55,114.51 112.28,223.81 176.25,331.24 6.72,2.79 19.96,8.39 26.48,11.19 12.32,82.99 79.83,140.44 117.32,212.43 74.23,97.17 133.54,211.5 235.37,283.31 -4.47,-35.25 -8.58,-70.5 -12.49,-105.57 -11.38,-0.37 -34.32,-1.12 -45.7,-1.49 -33.19,-34.69 -65.84,-72.18 -77.4,-119.92 32.27,29.84 56.51,66.95 86.91,98.84 5.6,-15.47 17.16,-46.06 22.76,-61.54 41.59,39.17 31.52,102.39 44.2,153.31 34.69,-18.47 69.38,-36.74 104.07,-55.02 -17.34,-16.41 -34.69,-32.83 -51.85,-49.05 -1.12,-16.41 -2.24,-32.64 -3.54,-48.87 14.36,28.54 30.96,55.96 50.73,81.13 18.65,-5.41 37.3,-10.25 56.14,-14.73 -31.52,50.54 -93.82,65.09 -138.76,100.71 97.54,-19.39 190.23,-57.63 287.03,-80.57 -0.75,-26.3 -25.74,-43.08 -39.73,-63.04 -114.51,-124.03 -193.21,-275.28 -305.12,-401.74 -5.59,9.89 -16.6,29.47 -22.01,39.35 13.61,16.98 27.23,33.95 41.03,50.92 -1.49,43.27 2.43,86.54 5.97,129.82 23.69,-7.65 47.56,-14.93 71.43,-22.2 0.94,5.59 2.99,16.41 3.92,22 -34.32,10.08 -69.2,21.27 -105.56,20.89 0.18,-42.14 -2.62,-84.11 -8.58,-125.51 -16.23,8.2 -48.31,24.99 -64.35,33.38 24.06,54.83 28.72,115.45 9.7,172.52 -130.56,-12.31 -161.14,-159.84 -229.78,-246.94 -7.83,-54.46 -14.73,-110.59 -12.31,-165.8 49.8,-18.65 71.44,37.48 83.56,73.67 -15.48,18.83 -30.78,38.23 -45.51,57.81 32.45,-3.54 64.72,-8.2 97.17,-12.49 -10.44,-50.36 -44.2,-97.55 -34.69,-150.32 87.29,-3.55 124.77,93.25 196.02,126.08 -2.61,-32.27 -16.04,-61.93 -32.45,-89.34 -50.73,-86.92 -91.39,-179.05 -130.37,-271.74 -43.83,4.66 -87.28,11.37 -130.74,18.65l0 0zm117.5 249.54c15.85,31.9 24.99,70.13 52.03,94.75 13.06,-3.73 39.36,-11 52.6,-14.74 -27.42,-35.62 -62.11,-64.71 -104.63,-80.01l0 0zm57.25 124.78c16.23,33.57 32.46,67.32 48.87,100.9 22.38,-11.94 44.76,-23.87 66.96,-35.81 -20.14,-27.6 -28.54,-69.2 -62.48,-83.55 -13.43,4.66 -40.1,13.98 -53.35,18.46l0 0zm-112.09 43.64c10.26,30.21 19.02,66.58 46.44,86.35 28.91,-5.96 57.26,-13.98 85.8,-21.63 -14.92,-33.76 -29.84,-67.33 -44.77,-100.9 -28.9,11.56 -68.45,8.02 -87.47,36.18l0 0zm56.33 112.84c20.33,40.66 50.36,95.3 102.76,93.63 9.33,-41.79 -7.83,-83.93 -13.24,-125.15 -29.65,5.03 -80.01,-8.77 -89.52,31.52z"/>
    </g>
   </g>
   <g id="__x0023_000000ff">
    <path class="fil0" d="M4347.21 159.59c11.19,9.52 11.19,9.52 0,0z"/>
    <path class="fil0" d="M1961.22 492.14c5.03,4.66 5.03,4.66 0,0z"/>
    <path class="fil0" d="M149.11 3331.35c8.95,10.81 8.95,10.81 0,0z"/>
   </g>
  </g>
 </g>
</svg>
