<?xml version="1.0" encoding="UTF-8"?>
<!DOCTYPE svg PUBLIC "-//W3C//DTD SVG 1.1//EN" "http://www.w3.org/Graphics/SVG/1.1/DTD/svg11.dtd">
<!-- Creator: CorelDRAW 2020 (64 Bit) -->
<svg xmlns="http://www.w3.org/2000/svg" xml:space="preserve" width="85mm" height="54mm" version="1.1" style="shape-rendering:geometricPrecision; text-rendering:geometricPrecision; image-rendering:optimizeQuality; fill-rule:evenodd; clip-rule:evenodd"
viewBox="0 0 8500 5400"
 xmlns:xlink="http://www.w3.org/1999/xlink"
 xmlns:xodm="http://www.corel.com/coreldraw/odm/2003">
 <defs>
  <style type="text/css">
   <![CDATA[
    .fil0 {fill:#FEFEFE;fill-rule:nonzero}
   ]]>
  </style>
 </defs>
 <g id="Camada_x0020_1">
  <metadata id="CorelCorpID_0Corel-Layer"/>
  <g id="_2913917325680">
   <g id="__x0023_dda14aff">
   </g>
   <g id="__x0023_45121bff">
    <g>
     <path class="fil0" d="M6068.7 -110.42c147.82,-63.24 305.74,-109.19 467.41,-113.13 141.77,-5.76 285.08,24.8 410.7,91.22 100.63,51.04 185.89,126.58 266.53,204.34 135.91,133.7 249.8,292.38 318.33,471.06 86.8,221.07 94.77,466.84 50.46,698.38 -6.53,30.18 -8.84,61.03 -9.42,91.98 36.72,12.4 70.75,37.78 81.8,76.61 27.68,93.33 2.98,191.94 -25.57,282 -27.97,86.03 -54.4,173.97 -100.92,252.11 -16.34,25.18 -8.17,56.52 -11.44,84.68 -3.84,53.54 -19.41,114.57 -67.18,145.62 -30.09,19.22 -67,8.74 -96.41,-6.06 -51.03,192.23 -147.25,377.83 -299.4,509.22 47.2,90.06 103.42,175.03 160.13,259.23 16.82,23.35 23.26,51.61 26.15,79.77 182.71,159.36 360.91,324.01 535.07,492.69 117.55,120.15 237.89,238.85 336.79,375.24 45.18,63.53 88.72,132.35 98.62,211.36 70.74,431.84 73.04,871.19 66.41,1307.46 27.68,200.5 17.98,403.49 5.39,604.76l-28.74 0c10.76,-189.64 21.24,-380.71 -1.54,-569.97 -46.14,101.12 -77.47,208.96 -130.82,306.71 9.71,-119.38 66.9,-227.7 112.36,-336.5 9.62,-23.26 13.75,-48.25 14.52,-73.24 5.48,-407.53 0,-817.18 -64.4,-1220.58 -13.65,-120.43 -96.59,-215.68 -169.26,-306.8 -221.84,-257.88 -476.73,-484.32 -728.56,-712.12 -15.86,-14.42 -31.91,-28.64 -49.88,-40.37 -11.34,23.55 -11.63,50.27 -15.96,75.64 123.7,134.18 246.92,269.32 356.02,415.8 37.39,52.77 78.04,105.34 100.34,166.67 9.13,22.1 -4.9,43.15 -13.45,62.76 -60.27,18.17 -123.9,10.67 -185.32,21.53 -62.76,8.46 -122.83,29.12 -181.56,51.9 10.09,23.55 20.09,47.29 30.95,70.65 22.11,52.19 52.38,101.3 68.72,155.7 -2.4,29.51 -37.1,33.65 -59.59,40.18 -40.08,9.32 -81.79,12.02 -120.82,25.28 -26.91,21.24 -44.21,52.09 -66.03,78.24 -90.35,114.66 -179.44,230.29 -267.2,346.97 -17.59,20.96 -13.74,49.79 -18.07,75.07l-6.25 6.54c-21.24,-37.78 -42.38,-75.74 -66.89,-111.59 -69.3,-123.89 -146.1,-244.04 -233.47,-356.11 -57.67,-70.26 -121.78,-141.19 -207.51,-176.76 -38.26,-17.59 -81.41,-11.92 -121.4,-21.91 -42.77,-22.11 -50.36,-75.45 -61.7,-117.55 -153.79,-14.61 -312.38,-11.15 -461.07,34.79 -21.24,6.54 -44.69,5.67 -63.92,-6.05 -49.78,-28.17 -87.17,-72.86 -124.95,-114.86 -131,-155.52 -243.65,-325.26 -360.43,-491.44 -7.21,24.32 -14.61,48.63 -25.38,71.7 -71.99,127.07 -180.6,226.93 -269.5,341.21 -77.09,112.17 -124.28,241.06 -175.51,366.11 137.06,87.65 289.59,150.51 417.91,251.92 66.32,51.42 121.59,115.05 179.06,175.7 45.46,51.42 93.52,103.03 121.49,166.56 16.73,50.27 11.83,104.29 14.71,156.48 -0.1,96.6 29.51,190.98 23.64,287.87 -5.86,109.47 -26.14,217.51 -40.65,326.02 -4.81,41.53 -18.07,83.91 -6.92,125.72 36.14,147.64 37.77,301.33 24.98,452.13l-37.19 0c4.42,-116.78 4.04,-234.33 -13.26,-350.05 -10.67,-70.26 -25.67,-140.81 -56.81,-205.02 -75.35,-147.92 -125.43,-307.18 -171.85,-465.97 58.72,91.31 87.08,197.52 129.18,296.81 30.37,76.51 72.37,147.73 110.43,220.58 10.48,-123.7 28.93,-246.63 38.26,-370.43 7.3,-79.19 -11.06,-157.05 -22.11,-234.81 -9.32,-62.57 -6.44,-125.91 -13.17,-188.58 -2.02,-25.76 -13.55,-49.21 -27.01,-70.74 -52.28,-80.45 -123.51,-145.81 -189.44,-214.72 -163.59,-167.24 -392.83,-242.12 -572.75,-387.54 -56.62,-48.44 -137.45,-45.27 -203.77,-21.05 -136.2,47.77 -249.52,141.2 -379.56,201.84 -34.51,17.69 -72.95,25.57 -108.13,41.53 -11.25,19.8 -9.81,44.02 -13.84,66.03 -57.48,426.75 -101.21,856.97 -90.93,1288.14 3.08,131.78 14.42,263.17 30.66,393.98l-29.31 0c-16.44,-127.54 -25.76,-255.86 -30.38,-384.37 -11.14,-444.05 34.03,-887.24 94.58,-1326.59 4.14,-31.14 7.31,-63.72 23.94,-91.21 43.25,-75.36 86.4,-150.71 132.25,-224.53 19.99,-31.62 19.9,-71.79 41.52,-102.46 17.5,-20.95 44.79,-32.1 58.92,-56.22 36.05,-55.94 73.43,-111.02 112.36,-164.94 27.3,-36.71 33.84,-84.39 62,-120.53 17.78,-25.47 51.32,-32.01 70.35,-56.23 143.5,-181.56 303.34,-352.07 488.08,-492.4 24.41,-19.12 51.81,-34.6 74.68,-55.74 -15.18,-37.39 -44.02,-72.19 -39.89,-114.86 2.79,-30.66 26.72,-52.48 48.25,-71.7 29.7,-25.48 58.63,-52.87 94.01,-70.46 75.25,-37.68 150.51,-76.51 219.14,-125.72 20.18,-15.86 45.17,-32.2 48.35,-60.07 16.62,-79.2 21.81,-160.03 26.81,-240.58 0.67,-48.82 40.37,-82.85 77.09,-108.7 -12.6,-84.97 -22.5,-170.51 -19.71,-256.63 -33.74,7.97 -74.1,14.89 -101.59,-11.92 -37.01,-32.78 -19.8,-86.51 -35.95,-128.12 -22.2,-62.57 -25.28,-129.47 -30.95,-195.02 -5.28,-84.49 -7.3,-170.61 11.82,-253.65 12.02,-53.73 -8.45,-112.84 20.57,-162.92 12.88,-27.49 41.04,-41.23 68.44,-50.08 -7.79,-218.66 60.93,-430.88 146.86,-629.07 76.32,-186.56 225.2,-332.75 388.31,-445.98 67.09,-49.6 143.31,-84.39 219.34,-117.84l0 0zm321.98 -61.32c-143.88,25.57 -281.52,78.72 -411.85,143.79 -62.67,29.99 -118.61,71.89 -173.78,113.71 -132.74,102.45 -250.48,231.83 -312.95,389.45 -86.12,200.12 -156.38,416.19 -137.74,636.87 40.66,23.84 68.34,74.49 53.15,121.2 -14.22,-34.12 -24.12,-73.24 -54.3,-97.46 -21.24,-17.68 -60.65,-14.71 -73.53,11.73 -27.58,47.57 -2.5,103.9 -17.4,154.17 -18.74,67.66 -14.32,138.79 -14.03,208.18 4.42,81.32 7.4,165.22 38.16,241.73 9.13,32.01 -8.36,76.7 25.66,98.23 36.91,15.77 73.72,-11.24 106.79,-25.47 7.97,-76.41 -3.66,-153.69 6.72,-229.62 27.49,146.68 11.83,296.62 1.73,444.15 12.89,197.71 103.81,398.5 272.2,510.86 68.25,70.45 130.82,148.98 213.96,203.38 -8.65,-29.22 -19.8,-58.34 -20.47,-89.1 -5,-148.4 -4.04,-296.9 -3.75,-445.3 3.36,-56.9 3.94,-114.57 17.11,-170.23 5.19,-34.98 42.19,-47.67 69.87,-60.83 133.51,-51.81 278.83,-60.17 414.17,-106.02 -0.49,28.45 9.8,58.82 1.53,86.21 -114.09,47.29 -239.61,57.58 -355.53,99.68 -34.5,9.22 -29.89,49.11 -29.12,76.89 5.76,94.67 20.28,189.06 44.5,280.75 10.76,35.28 20.09,72.67 42.58,102.66 29.03,20.76 63.24,32.77 95.83,46.8 187.81,73.63 402.05,84.1 593.89,19.22 38.35,-66.22 53.16,-142.73 62.29,-217.79 5.38,-48.73 9.42,-98.42 1.05,-147.06 -5.28,-31.62 -30.56,-53.92 -52.86,-74.68 -79.01,-65.36 -175.31,-104.67 -258.07,-164.55 2.21,-22.11 3.85,-44.31 5.29,-66.51 19.7,5.47 37.87,14.89 55.84,24.79 107.17,54.79 218.28,103.62 317.85,171.96 26.44,19.79 55.95,40.36 69.3,71.8 7.21,46.23 1.73,93.42 -3.46,139.65 -22.49,164.94 -72.85,325.16 -138.02,477.89 18.46,-17.98 27.49,-44.79 50.85,-57.58 66.13,-40.84 127.25,-89.77 181.37,-145.52 129.27,-133.98 212.22,-308.62 250.09,-489.8 14.71,-189.73 91.98,-365.91 137.73,-548.82 3.75,-23.36 22.21,-38.83 33.55,-58.25 12.4,-30.47 12.59,-64.01 13.84,-96.31 1.73,-30.08 21.24,-55.74 23.55,-85.73 2.31,-23.17 2.4,-46.52 6.82,-69.3 40.27,-192.42 42.78,-394.56 -7.78,-585.25 -67.09,-259.99 -233.47,-484.42 -435.89,-656.37 -155.61,-138.89 -368.41,-219.92 -577.37,-199.54 -43.44,-2.79 -86.79,3.46 -129.37,11.34l0 0zm1135.8 1545.16c-5.57,30.75 -4.71,61.99 -0.57,92.85 15.09,-5.87 33.83,-20.48 48.53,-5.29 25.28,22.87 21.44,61.32 15.38,91.6 -19.89,73.81 -38.83,148.4 -70.74,218.18 -3.27,-46.42 17.11,-90.16 25.28,-135.14 10,-54.69 42.1,-107.65 28.74,-164.45 -35.85,-5.67 -60.27,25.28 -66.32,57.19 -31.81,29.41 -33.07,78.14 -41.43,118.32 13.75,-10.48 27.11,-21.34 40.28,-32.49l-0.2 -9.81 13.46 6.54c-2.6,32.77 -34.12,51.04 -61.23,62.67 -7.49,25.08 -13.84,50.55 -16.62,76.7 21.53,-8.46 38.92,-23.74 54.97,-40.08 -6.82,46.04 -72.85,49.78 -78.23,96.79l0.77 6.44c-12.12,24.99 -20.67,52.48 -19.52,80.54 4.14,33.74 32.2,67.57 15,101.5 -3.08,-29.61 -13.46,-57.38 -28.55,-82.85 -18.26,40.37 -26.81,84.1 -37.29,126.97 -3.46,15.57 -7.59,31.14 -8.65,47.19 11.63,34.22 43.64,64.01 81.79,61.8 66.51,-42.77 60.08,-133.21 58.15,-202.42 51.04,-63.24 71.61,-143.98 99.1,-218.95 30.37,-99 71.89,-206.07 38.83,-309.59 -11.54,-38.83 -54.69,-51.42 -90.93,-44.21l0 0zm-2174.04 928.28c-10.86,100.54 -0.67,202.23 -13.07,302.67 -3.37,53.73 -14.99,113.8 -62.96,145.91 5.1,-11.83 10.48,-23.45 16.15,-34.99 28.74,-55.46 19.13,-120.05 21.53,-180.12 -81.7,71.51 -179.26,120.72 -275.56,169.26 -21.73,11.05 -40.28,27.1 -58.54,42.96 -23.64,23.36 -60.36,42.39 -63.05,79.2 5.19,45.27 34.79,82.28 55.65,121.3 56.13,101.69 124.76,195.69 188.87,292.38 108.8,159.17 217.32,318.82 337.27,469.91 40.18,48.73 80.16,98.72 129.56,138.7 19.52,14.8 43.74,32.97 69.49,21.91 159.17,-50.07 329.01,-49.69 493.66,-35.08 9.89,40.37 12.49,88.43 45.55,117.84 27.21,9.03 57.67,2.79 85.64,10.67 87.18,21.53 156.86,83.33 215.69,148.3 119.85,135.34 208.76,293.83 303.72,446.56 -1.25,-131.78 -64.59,-252.4 -125.33,-365.91 -96.31,-171.09 -211.74,-330.64 -330.93,-486.35 -217.99,-282.39 -453.28,-550.93 -692.8,-815.16 -22.4,-26.14 -48.73,-48.15 -74.49,-70.74 -49.4,-44.02 -75.45,-106.21 -104.57,-163.97 -41.72,-81.8 -64.79,-171.38 -76.99,-261.82 3.46,-28.74 11.34,-56.61 16.53,-84.87 -13.46,-46.52 -33.93,-91.12 -43.45,-138.89 -46.52,25.38 -67.18,79.2 -57.57,130.33l0 0zm109.76 33.64c-12.11,109.29 32.88,214.82 82.38,309.5 -10.19,-63.92 -22.3,-127.64 -25.86,-192.43 -0.48,-45.36 -31.72,-81.89 -56.52,-117.07l0 0zm76.8 117.74c13.17,104.2 24.8,212.33 74.97,306.42 16.82,32.68 46.91,54.89 71.8,80.84 144.08,156.86 284.22,317.18 423.68,478.08 110.63,134.17 222.8,267.3 326.79,406.85 9.42,11.83 18.17,25.48 32.58,32.01 68.25,31.53 145.72,54.11 220.98,37.01 54.78,-14.04 96.69,-58.25 119.66,-108.52 43.83,-94.19 44.88,-200.11 47.77,-301.9 -34.31,91.6 -35.27,193.58 -76.32,283.25 -21.91,50.37 -76.31,85.45 -131.77,78.92 40.46,-14.42 91.69,-27.4 106.3,-73.82 22.21,-69.78 42.97,-140.23 59.98,-211.46 11.73,-45.55 31.72,-88.61 42.19,-134.56 45.18,-194.15 83.82,-389.75 121.3,-585.53 -15.76,10.38 -31.53,20.66 -47.38,30.56l-0.58 3.36c-28.74,10.29 -41.14,39.31 -59.21,61.33 -29.89,37.58 -70.74,63.91 -111.3,88.61 -33.06,11.35 -64.01,27.69 -94.1,45.28 -36.23,-11.92 -75.45,6.72 -113.13,6.53 33.07,4.42 66.33,0.39 99.29,-2.88 -37,37.96 -97.36,21.72 -145.13,21.72 -61.42,-4.52 -122.36,-13.65 -181.28,-32.01 -243.17,-29.99 -464.72,-166.95 -619.75,-353.8 -24.32,-31.24 -59.11,-50.94 -88.52,-76.7 -28.65,-24.12 -52.29,-53.34 -78.82,-79.59l0 0zm1471.72 280.38c-28.16,142.63 -56.51,285.27 -85.25,427.81 -2.02,10.28 -2.5,21.34 3.37,30.66 25.37,48.92 50.65,97.85 75.25,147.15 16.15,32.78 46.33,55.65 64.59,87.08 21.05,39.31 22.69,84.97 29.51,128.12 5.48,41.91 16.15,86.22 -1.73,126.78 -13.36,-55.94 -25.47,-112.17 -37,-168.49 -3.46,-42.58 -15.38,-86.98 -41.14,-121.87 -22.68,120.62 -17.49,246.34 12.01,365.33 6.06,25.28 11.44,51.42 26.05,73.53 3.46,24.7 16.34,48.06 13.55,73.53 -5.67,86.89 -23.45,173.49 -57.86,253.65 -37.39,93.04 -102.84,170.89 -144.94,261.43 -18.55,35.18 2.02,74.11 6.15,110.54 105.63,-138.22 209.82,-277.68 320.64,-411.76 54.6,-21.24 114.86,-25.86 171.47,-41.72 -36.04,-79.77 -72.76,-159.36 -109.47,-238.85 104.57,-50.94 220.3,-77.27 336.6,-77.37 20.66,-1.05 57.76,-0.29 57.66,-29.41 -13.36,-45.56 -42.38,-84.39 -68.14,-123.61 -106.21,-150.61 -230.39,-287.29 -354.28,-423.29 -9.71,-11.53 -21.15,-21.34 -33.55,-29.79 -14.8,146.09 39.12,294.11 0.39,438.38 -8.37,-49.6 -4.04,-100.63 -15.67,-149.84 -18.36,-87.95 -16.24,-178.78 -2.89,-267.21 14.13,-57.86 31.72,-115.82 32.01,-175.79 -4.71,-31.05 -26.62,-55.56 -42.87,-81.32 -35.08,-48.82 -63.91,-101.78 -98.23,-151l0.19 -6.34c-12.11,-18.93 -22.2,-39.12 -35.08,-57.47 -16.72,-0.1 -17.39,19.12 -21.34,31.14l0 0zm-2289.57 403.2c-117.84,110.63 -231.06,227.8 -326.7,358.22 25.86,-4.99 51.81,-11.24 75.36,-23.54 23.45,-3.85 45.37,-13.56 68.72,-17.98 -37.29,40.47 -97.08,48.35 -143.5,75.45 -25.47,10.1 -52.48,16.54 -76.7,29.41 -18.45,17.11 -24.61,42.78 -32.58,65.75 43.83,-27.78 90.54,-52.67 143.79,-53.44 69.01,-1.54 135.23,-22.11 203.28,-30.57 -45.37,31.34 -102.36,34.32 -151.48,54.89 -78.24,0.38 -152.63,33.92 -217.99,74.39 -35.27,42.39 -68.91,88.04 -92.75,138.02 -11.53,11.63 -20.28,25.66 -29.51,39.22 31.05,-3.75 61.71,-9.61 92.75,-12.4 -37.19,44.11 -101.97,42.58 -151.19,66.99 -2.21,10.29 -4.42,20.67 -6.63,31.05 44.99,-15.48 86.6,-39.89 133.12,-50.75 81.8,-20.48 166.67,-16.73 250,-25.09 55.27,-0.29 110.63,-19.7 165.61,-7.11 -80.16,15.57 -160.8,27.87 -242.12,35.18 -89.29,8.26 -179.44,24.02 -260.09,64.97 -28.54,15.76 -65.16,24.03 -82.27,54.21 -47,78.34 -94.29,156.57 -137.54,237.12 51.71,-10 97.36,-37.39 144.46,-59.31l2.3 -5.67c135.05,-71.41 256.83,-178.19 410.8,-206.84 86.6,-17.11 153.4,48.16 219.82,91.31 34.89,-132.06 82.28,-262.3 155.52,-378.12 86.02,-122.45 212.6,-212.22 287.38,-343.23 9.52,-22.01 23.55,-44.5 21.24,-69.3 -64.78,-103.8 -140.52,-200.88 -197.99,-309.2 -81.61,49.69 -153.69,113.32 -225.11,176.37l0 0zm2188.56 86.6c-9.04,34.99 -16.44,70.36 -24.03,105.83 -2.79,94.96 2.5,191.55 -21.24,284.6 -17.4,75.93 -54.98,154.84 -127.07,192.42 -77.37,40.27 -168.97,21.53 -246.63,-8.08 33.26,43.83 65.55,88.53 95.92,134.47 139.47,34.7 296.81,-43.64 356.21,-173.87 41.14,-69.98 36.43,-152.35 34.7,-230.3 6.72,-78.72 -23.17,-153.4 -35.66,-229.9 -3.85,-27.4 -12.59,-54.89 -32.2,-75.17l0 0zm60.94 117.46c-4.42,16.24 2.59,36.13 11.24,50.26 17.78,-6.72 3.85,-45.46 -11.24,-50.26l0 0zm-19.13 467.31c-23.07,34.41 -49.89,66.99 -84.01,91.21 -75.16,54.89 -173.1,70.55 -263.83,58.15 62.57,88.91 117.74,182.82 170.12,278.07l-2.21 4.32c32.78,47.97 44.6,107.07 74.88,155.71 30.65,-65.84 75.25,-123.7 108.99,-187.81 44.88,-82.08 73.24,-173.2 81.99,-266.43 1.44,-22.01 7.49,-44.99 -0.2,-66.52 -17.78,-51.9 -35.85,-103.99 -43.54,-158.59 -14.03,30.57 -29.41,60.65 -42.19,91.89z"/>
    </g>
    <path class="fil0" d="M6427.78 511.93c72.76,-10.95 150.52,-23.45 220.78,6.15 -32.01,0.39 -64.01,-1.05 -95.92,-0.19 -79.59,5.96 -157.34,28.74 -237.69,27.68 -16.54,-1.34 -36.43,3.65 -49.31,-9.61 54.59,-3.94 108.99,-10.57 162.14,-24.03z"/>
    <path class="fil0" d="M6487.86 677.73c53.44,-24.7 116.97,-26.05 172.52,-7.4 58.25,22.3 114.86,48.73 174.74,66.9 -92.08,5.67 -169.45,-55.56 -259.61,-61.23 -29.22,-3.75 -58.53,-1.15 -87.65,1.73z"/>
    <path class="fil0" d="M6253.81 1060.27c-18.26,-52.57 -37.67,-104.57 -61.89,-154.74 45.46,37.48 61.7,97.94 61.89,154.74z"/>
    <path class="fil0" d="M5839.84 1020.86c41.14,-35.75 95.25,-50.36 148.89,-51.9 44.31,0.87 89.86,5.19 129.47,26.82 59.01,27.78 100.05,84.1 162.05,106.4 53.34,17.59 105.24,-10.57 151.76,-33.55 -9.8,24.13 -23.07,46.72 -38.93,67.38 28.26,-7.21 60.85,-9.42 81.99,-32.1 32.49,-33.06 55.85,-74.01 89.78,-105.92 -5.68,14.13 -11.35,28.26 -16.83,42.48 -27.97,49.41 -64.49,107.17 -127.25,111.69 -72.09,1.73 -148.79,10.09 -215.98,-22.3 -55.36,-25.76 -101.69,-67.19 -157.05,-93.23 -43.25,-22.49 -93.13,-19.42 -140.14,-17.01 -22.58,1.15 -45.17,1.44 -67.76,1.24z"/>
    <path class="fil0" d="M6627.32 987.51c6.82,27.4 4.42,55.94 10,83.43 11.92,22.59 37.29,33.93 53.82,52.96 -10.38,-2.02 -20.57,-4.52 -30.66,-7.59 -41.81,-25.28 -47,-76.22 -37.29,-120.05l4.13 -8.75z"/>
    <path class="fil0" d="M6703.93 1120.06c-17.59,-35.18 -15.38,-80.84 10.18,-111.69 -9.03,52.29 -0.09,109.67 39.6,147.83 0.19,-6.25 0.58,-18.75 0.77,-24.9 36.62,28.36 79.1,59.21 128.32,52 74.77,-11.05 132.44,-77.18 211.07,-73.24 84.87,4.23 154.07,63.34 211.16,120.92 -57.47,-16.44 -109.09,-49.22 -167.53,-62.29 -61.8,-6.15 -116.87,29.22 -173.01,48.92 -55.55,13.94 -121.1,21.15 -170.41,-14.13 -32.87,-24.31 -71.99,-44.78 -90.15,-83.42z"/>
    <path class="fil0" d="M6543.6 1119.09c32.87,-11.82 52.39,-39.88 58.92,-73.33 5.77,33.06 -4.51,66.13 -37.29,79.87 -16.34,2.89 -32.68,5.1 -49.12,7.5 9.13,-4.71 18.36,-9.32 27.49,-14.04z"/>
    <path class="fil0" d="M6948.54 1123.9c14.61,-38.83 55.17,-59.3 89.1,-78.81 -22.01,33.83 -59.21,52.86 -89.1,78.81z"/>
    <g>
     <path class="fil0" d="M6137.13 1146.97c54.31,0 128.8,-2.98 157.24,53.73 -15.85,-3.46 -31.71,-7.21 -47.29,-11.92 -4.13,-2.02 -12.39,-5.96 -16.43,-7.88 -21.53,-6.92 -44.12,-8.75 -66.42,-10.48 -7.01,27.49 -20.28,52.86 -41.9,71.61 34.22,-8.56 69.2,-18.07 104.86,-14.51 5.38,1.44 16.15,4.22 21.53,5.66 -80.45,0.97 -159.26,42.78 -239.71,15.96l-0.77 -13.84c9.99,2.02 19.99,4.13 30.08,6.15 -18.74,-11.34 -31.52,-28.93 -42.38,-47.29 -21.15,0.67 -42.3,1.64 -63.44,2.21 -18.65,-0.48 -37.29,-2.3 -55.84,-4.42 22.68,-9.13 47.09,-11.63 71.22,-14.32 63.43,-7.69 125.81,-22.49 189.25,-30.66l0 0zm-52.1 38.06c-20.47,2.5 -11.82,33.83 6.83,27.49 18.07,-3.94 10.95,-32.87 -6.83,-27.49z"/>
    </g>
    <path class="fil0" d="M5298.42 1176.77c33.64,-4.52 34.22,50.07 33.16,74.87 -7.78,-16.53 -15.09,-33.26 -22.2,-50.08 -5.67,24.61 -10.09,49.31 -12.97,74.4 -2.7,18.16 -5.39,36.52 -9.42,54.49 -20,-9.99 -11.63,-33.83 -12.21,-51.32 3.56,-34.7 4.9,-71.8 23.64,-102.36z"/>
    <path class="fil0" d="M6542.26 1221.75c35.75,-3.85 74.29,-5.48 105.72,15.09 13.17,8.17 23.75,19.8 34.22,31.14 -5.48,-2.69 -16.34,-8.27 -21.82,-10.96 -15.18,-7.78 -30.37,-15.76 -46.71,-20.95 -22.87,-8.94 -52.19,2.78 -71.41,-14.32z"/>
    <path class="fil0" d="M5932.21 1260.1c0.1,-4.33 0.39,-13.07 0.48,-17.5 60.07,64.21 154.07,37.97 230.78,31.34 -36.34,15.47 -75.36,23.16 -114.57,26.24 -42.2,-1.06 -82.86,-14.9 -116.69,-40.08z"/>
    <g>
     <path class="fil0" d="M6888.66 1245.39c20.95,-3.75 42.48,-0.67 63.53,2.31 100.35,19.61 193.77,63.63 286.33,105.82 -30.47,-7.59 -61.22,1.16 -90.83,8.36 -3.08,31.72 -37.39,37.97 -61.99,46.62 -65.46,19.42 -136.2,-6.82 -185.12,-51.42 46.9,18.74 92.94,46.42 145.13,45.65 30.95,-2.21 61.42,-9.99 90.54,-20.37l4.52 -15.29c-51.42,4.43 -105.63,24.23 -155.9,2.99 -35.76,-16.44 -69.78,-36.43 -104.96,-54.12l11.25 -2.59c34.41,9.03 64.68,28.35 95.92,44.69 -30.76,-22.2 -47.38,-56.8 -44.6,-94.87 -30.47,-2.4 -58.82,8.46 -85.73,21.34 -5.29,1.25 -15.76,3.65 -21.05,4.9l-16.63 1.35c20.47,-18.55 41.43,-39.6 69.59,-45.37l0 0zm120.82 45.27c-18.55,3.27 -10.09,33.07 7.49,27.88 19.61,-3.75 10.87,-33.74 -7.49,-27.88l0 0zm94.77 24.22c-14.04,25.28 -37.58,41.81 -64.5,51.23 43.35,1.44 87.95,-9.23 123.61,-34.6 -19.61,-6.05 -39.31,-11.53 -59.11,-16.63z"/>
    </g>
    <path class="fil0" d="M5355.52 1375.63c13.36,-31.34 3.84,-65.07 1.24,-97.37 27.11,43.25 17.79,99.77 -6.63,142.06 -9.32,18.65 -23.55,37.87 -18.93,59.98 5.48,32.2 35.47,50.75 50.36,77.95 7.4,22.88 -10.09,43.15 -14.61,64.68 7.98,29.9 40.47,53.83 31.82,87.37 -8.08,26.15 -42.87,33.16 -64.78,20.38 -29.13,-13.26 -40.47,-47.19 -36.72,-77.18 10.19,22.97 16.53,51.13 40.37,64.2 13.07,7.6 36.71,9.62 42.77,-7.78 9.61,-34.12 -31.43,-53.25 -35.47,-84.29 1.64,-19.32 14.23,-36.05 15.19,-55.27 -14.03,-30.85 -46.81,-52.96 -47.58,-89.58 -7.21,-41.81 31.91,-68.43 42.97,-105.15z"/>
    <path class="fil0" d="M5295.73 1542.77c-44.79,-37.29 -32.39,-120.24 22.97,-142.63 -8.55,21.72 -19.89,42.1 -28.64,63.82 -9.8,25.86 1.83,52.96 5.67,78.81z"/>
    <path class="fil0" d="M6167.69 1622.17c17.59,-29.32 29.9,-64.5 60.65,-83.14l12.31 -2.89c-17.3,47.19 -49.79,93.91 -39.6,146.29 13.07,44.02 61.7,57.67 97.75,77.28 -33.84,0.86 -71.23,3.46 -99.77,-18.36 -22.88,-15.09 -26.82,-44.21 -34.7,-68.15 -18.36,28.84 -39.69,55.65 -60.55,82.76 3.94,-51.33 39.79,-90.73 63.91,-133.79z"/>
    <path class="fil0" d="M6860.31 1786.72c26.62,-58.83 -5.68,-121.21 -4.62,-181.66 44.89,89.29 87.47,189.44 69.59,291.23 -10.48,-42.2 -16.73,-85.26 -28.16,-127.16 -4.42,43.15 -35.66,86.98 -82.37,87.75 -19.32,-1.25 -44.6,3.65 -58.25,-13.36 38.74,-7.11 85.64,-17.11 103.81,-56.8z"/>
    <path class="fil0" d="M6273.23 1674.07c35.27,-0.48 72.47,-3.17 105.15,12.69 42.96,16.62 57.09,67.08 97.65,87.27 20.38,11.63 44.12,26.82 68.44,17.78 56.42,-19.22 105.92,-57 165.32,-68.05 20.18,0 39.6,7.02 58.05,14.9 11.82,6.34 32.01,10.95 24.89,28.83 -61.7,22.4 -137.06,-16.63 -190.21,30.76 -34.98,28.07 -82.18,34.79 -124.18,19.9 -23.36,-18.55 -41.71,-42.2 -57.67,-67.19 -44.89,-9.23 -92.27,-17.2 -130.04,-44.88 -10.67,-7.31 -12.21,-21.34 -17.4,-32.01z"/>
    <path class="fil0" d="M6510.83 1866.01c11.82,55.27 24.79,116.21 4.61,170.8 -36.91,34.41 -95.83,-14.71 -84.87,-59.78 14.23,20.76 16.63,56.51 48.35,57.95 6.92,-0.57 20.86,-1.82 27.78,-2.4 2.01,-55.55 5.76,-111.01 4.13,-166.57z"/>
    <path class="fil0" d="M6110.41 2127.16c61.8,-42.39 126.78,-87.56 203.09,-96.98 62,-8.17 122.36,18.07 171.47,53.82 -3.94,1.25 -11.92,3.75 -15.95,5.1 -39.22,-19.23 -80.16,-40.18 -125.24,-37.11 -86.79,2.31 -159.94,53.45 -234.81,90.93l1.44 -15.76z"/>
    <path class="fil0" d="M6520.44 2069.01c29.6,-12.11 58.73,5.48 83.52,20.09 53.54,33.35 103.9,72.66 145.33,120.33 14.03,15.38 24.32,33.64 30.66,53.54 -32.2,-27.97 -61.32,-59.79 -97.65,-82.66 -55.65,-35.37 -93.52,-97.75 -161.86,-111.3z"/>
    <path class="fil0" d="M6096.47 2171.18c34.03,-17.78 75.07,-14.8 111.21,-5.48 -35.27,15.57 -74.3,6.92 -111.21,5.48z"/>
    <path class="fil0" d="M6083.69 2181.56c73.53,60.17 156.76,110.24 249.61,133.6 84.49,23.64 172.82,21.91 259.52,28.83 66.31,3.46 124.56,-30.94 184.34,-53.43 -41.42,33.25 -90.82,57.95 -144.07,63.53 -63.92,7.11 -128.51,8.84 -192.62,4.51 -95.73,-2.88 -186.66,-42.19 -265.28,-94.67 -33.45,-23.84 -67.95,-48.15 -91.5,-82.37z"/>
    <path class="fil0" d="M6642.99 2235.1c31.33,-12.4 61.89,6.15 91.11,16.14 -0.38,3.17 -0.96,9.61 -1.34,12.79 -30.66,-7.11 -61.61,-14.71 -89.77,-28.93z"/>
    <path class="fil0" d="M5253.92 2846.01c68.15,40.66 132.74,86.98 201.27,126.97 83.52,60.36 169.55,117.74 245.38,188 45.66,43.73 99,77.95 146.2,119.66 0.76,2.6 2.11,7.79 2.78,10.38 -59.21,-34.89 -115.43,-74.58 -168.87,-117.64 -91.22,-70.74 -187.72,-134.28 -279.51,-204.15 -50.46,-39.12 -107.07,-72.67 -147.25,-123.22z"/>
    <path class="fil0" d="M6167.79 3024.3c99.87,49.31 212.13,75.36 323.81,64.69 -34.31,16.63 -73.24,16.63 -110.34,12.49 -55.84,-6.34 -113.32,-13.07 -163.97,-39.31 -18.45,-9.9 -34.6,-23.45 -49.5,-37.87z"/>
    <path class="fil0" d="M5128.78 3119.36c-7.21,-13.36 -11.15,-27.87 -13.94,-42.58 137.16,239.43 372.93,398.11 603.71,537.67 34.21,20.57 77.08,52.1 67.28,97.95 -14.04,50.75 -61.42,80.35 -93.24,119.18 83.53,-22.88 171.57,-43.54 257.4,-18.26 -58.53,-2.5 -117.93,-0.2 -174.35,17.11 -38.45,8.36 -75.55,25.27 -115.44,24.98 -0.38,-4.7 -1.25,-14.12 -1.63,-18.83 29.31,-41.05 79.49,-66.51 97.17,-115.82 11.25,-31.91 -15.76,-59.21 -40.94,-73.72 -147.16,-84.87 -288.16,-182.14 -410.8,-300.17 -68.73,-67 -131.78,-141.48 -175.22,-227.51z"/>
    <path class="fil0" d="M6393.18 3159.15c13.07,21.05 11.73,47 17.11,70.55 23.26,125.53 49.98,250.96 91.41,371.97 14.99,48.15 38.44,103.71 93.61,115.43 -11.72,20 -39.02,7.79 -51.99,-4.32 -39.8,-36.91 -61.42,-88.33 -83.15,-137.06 -31.04,-69.49 -45.17,-144.85 -57.09,-219.63 -10,-65.07 -18.65,-131.29 -9.9,-196.94z"/>
    <path class="fil0" d="M6227.09 3370.8c31.72,24.22 54.98,57.19 80.45,87.56 36.33,46.33 72.86,94 95.25,148.98 -25.56,-16.63 -42.77,-42.2 -62.38,-64.78 -43.25,-53.35 -85.35,-108.8 -113.32,-171.76z"/>
    <path class="fil0" d="M6672.59 3573.03c16.72,19.51 14.51,47.19 17.4,71.12 5.86,28.26 -22.59,45.08 -44.02,55.17 25.47,-37.96 12.87,-84.87 26.62,-126.29z"/>
    <g>
     <path class="fil0" d="M7449.69 4348.01c48.63,-6.73 98.71,-5.1 144.94,12.68 65.45,17.4 152.15,28.65 178.39,102.18 6.34,45.46 12.11,100.53 -21.24,137.54 -27.97,30.37 -70.93,36.14 -109.67,41.14 -107.36,13.84 -216.45,35.08 -324.49,16.82 -42.67,-10.29 -90.92,-27.01 -114.47,-66.61 -10.38,-47 -18.07,-108.42 22.97,-143.41 54.69,-66.03 142.44,-88.23 223.57,-100.34l0 0zm-139.56 70.55c-34.41,14.41 -55.17,46.33 -79.97,72.28 -9.13,30.18 -4.33,61.89 0.29,92.56 33.25,30.85 77.85,46.13 122.54,50.07 104.96,9.81 208.86,-12.78 312.57,-25.28 34.51,-3.65 74.78,-22.3 79.88,-60.65 3.26,-37.19 9.61,-84.19 -24.9,-109.57 -50.36,-37.96 -116.68,-39.4 -174.45,-60.26 -80.06,-10.38 -163.11,7.02 -235.96,40.85z"/>
    </g>
    <path class="fil0" d="M7931.71 4367.42c25.95,54.21 22.87,116.3 28.74,174.74 -21.05,70.65 -59.4,139.85 -50.56,215.88 5.67,62.57 10.57,125.24 16.34,187.81 9.23,279.89 -10.67,560.45 10.57,840.05 5.96,74.2 20.86,147.54 22.01,222.22l-26.14 0c-1.92,-77.57 -20.86,-153.02 -28.07,-230 -21.81,-195.02 -15.38,-391.77 -10.28,-587.56 16.34,-240.67 -22.2,-480.48 -17.4,-721.16 13.27,53.64 14.42,109.19 20.38,163.98 16.43,-49.79 35.08,-100.45 34.5,-153.6 -0.67,-37.48 -3.65,-74.97 -0.09,-112.36z"/>
    <path class="fil0" d="M6700.75 4419.81c10,24.99 18.84,50.55 25.18,76.79 49.79,209.25 42.2,425.8 63.63,638.4 32.49,161.48 19.8,330.64 -23.64,488.94 -17.21,65.85 -6.25,134.28 -5.96,201.37 1.92,62.09 -8.46,124.37 -29.6,182.81l-16.92 0c10.09,-50.94 24.89,-101.5 24.32,-153.79 1.54,-51.7 -7.59,-102.74 -8.08,-154.26 -1.24,-65.74 23.84,-127.83 31.63,-192.42 14.99,-120.63 24.7,-244.24 0.19,-364.19 -22.2,-215.39 -6.35,-434.25 -48.25,-647.63 -3.75,-14.8 -8.85,-29.02 -14.04,-43.25 0.39,-8.17 1.16,-24.6 1.54,-32.77z"/>
    <path class="fil0" d="M7442.67 4462.19c3.75,-10.38 16.72,-9.7 17.97,1.25 0.2,29.61 -0.57,59.4 6.93,88.43 18.64,-1.25 37.29,-2.6 56.03,-1.63 -6.73,-23.84 -7.11,-48.64 -8.75,-73.05 6.35,-0.19 12.69,-0.29 19.13,-0.29 -3.17,32.49 22.88,71.8 -2.31,98.33l-6.34 -23.55c-4.81,5.76 -9.52,11.63 -14.23,17.59 -19.31,0.67 -42.67,9.13 -58.43,-5.96 -18.46,-29.89 -13.84,-67.86 -10,-101.12z"/>
    <path class="fil0" d="M7642.88 4505.54c-24.61,-6.34 -33.55,-51.42 -2.21,-53.15 13.55,3.36 34.22,6.06 29.51,25.47 -8.17,-0.38 -24.61,-1.06 -32.88,-1.44 12.5,14.99 31.82,18.36 48.93,25.37 22.3,38.45 -33.83,82.47 -62.19,43.64 5,-25.85 31.82,3.65 41.91,-12.21 17.39,-14.89 -14.42,-21.91 -23.07,-27.68z"/>
    <path class="fil0" d="M7331.27 4458.06c25.47,-7.01 20.09,26.72 23.74,41.33 1.73,26.82 8.08,74.39 -30.18,76.7 -31.33,-6.44 -33.54,-46.71 -31.72,-72.37 32.3,1.63 8.65,49.4 37.59,51.71 11.53,-31.53 -1.35,-64.98 0.57,-97.37z"/>
    <path class="fil0" d="M7580.98 4458.54c20.09,-8.74 20.95,18.84 26.24,30.47 5.09,24.03 15.28,52.1 1.35,74.88 -26.44,20.47 -56.71,-8.75 -56.23,-36.82 0,-20.76 -17.88,-58.44 13.07,-64.3 6.44,30.28 -4.42,73.24 28.45,91.02 2.98,-32.68 -12.69,-63.05 -12.88,-95.25z"/>
    <path class="fil0" d="M7398.75 4464.89c31.43,12.49 24.22,55.36 30.27,82.56 5.58,26.53 -35.66,39.22 -48.35,17.2 -16.62,-26.91 -8.74,-60.74 -9.61,-90.63 45.56,1.05 -4.61,72.47 38.07,83.33 -2.31,-31.05 -11.73,-61.23 -10.38,-92.46z"/>
    <g>
     <path class="fil0" d="M6797.73 4645.2c16.73,-7.21 33.64,0.38 48.16,8.84 3.55,13.55 6.53,26.91 9.99,40.66 -4.8,8.84 -9.41,17.78 -14.03,26.72 -22.59,-1.83 -50.17,-1.64 -63.63,-23.45 -8.84,-19.61 6.83,-39.12 19.51,-52.77l0 0zm10 10.09c-6.92,11.34 -13.75,22.78 -20.28,34.31 13.74,9.13 29.12,15.38 44.98,20.19 4.81,-15.48 4.42,-31.72 2.6,-47.58 -9.14,-2.4 -18.17,-4.71 -27.3,-6.92z"/>
    </g>
    <path class="fil0" d="M6860.79 4685.09c3.07,-13.55 6.15,-27.11 8.55,-40.66 12.69,98.61 28.74,196.94 31.81,296.52 2.79,93.8 31.82,183.77 53.83,274.22 27.97,107.74 34.02,222.89 3.07,330.73 -10.76,49.4 -45.36,92.75 -41.42,145.13 -0.29,105.44 27.01,216.94 -18.26,317.09l-28.65 0c25.38,-73.82 27.49,-152.92 17.02,-229.72 -4.62,-54.11 -16.44,-111.3 5.96,-163.11 27.97,-70.83 47.57,-145.9 47.86,-222.41 6.06,-157.15 -63.63,-304.88 -62.67,-461.45 -0.09,-82.46 -11.24,-164.26 -17.1,-246.34z"/>
    <g>
     <path class="fil0" d="M6818.21 5003.04c29.7,-20.76 66.99,9.22 56.42,43.73 3.84,49.5 -76.03,29.8 -76.9,-8.07 4.14,-13.27 10.86,-25.76 20.48,-35.66l0 0zm11.82 7.69c-6.34,9.7 -12.79,19.51 -19.22,29.31 10.86,15.28 29.21,19.61 46.52,23.65 7.11,-23.17 5.19,-56.71 -27.3,-52.96z"/>
    </g>
    <g>
     <path class="fil0" d="M6864.34 5318.01c42.96,-11.73 60.84,41.52 41.72,72.37 -18.07,13.84 -45.66,3.95 -61.33,-9.22 -21.33,-19.9 0.77,-50.75 19.61,-63.15l0 0zm1.54 18.45c-17.59,12.21 -19.99,39.51 5.86,42.97 42.39,22.49 30.28,-68.53 -5.86,-42.97z"/>
    </g>
    <g>
     <path class="fil0" d="M6798.98 5627.31c28.55,-25.28 71.03,8.17 58.92,43.73 0.87,38.35 -46.42,30.37 -65.93,13.07 -20.09,-15.47 -6.92,-42.19 7.01,-56.8l0 0zm-6.15 36.24c12.98,14.22 31.05,20.66 50.27,19.41 1.44,-22.78 1.25,-52.09 -29.22,-51.13 -6.92,10.57 -13.94,21.05 -21.05,31.72z"/>
    </g>
    <path class="fil0" d="M6771.11 6008.12c4.9,-26.05 16.72,-68.14 52.29,-57.09 28.06,3.27 25.47,36.43 29.99,57.09l-17.02 0c-1.25,-12.5 -2.5,-24.8 -3.65,-37.1 -8.56,-2.88 -17.11,-5.58 -25.57,-8.27 -6.92,10 -13.74,20.19 -20.09,30.76 2.89,3.65 8.75,10.96 11.64,14.61l-27.59 0z"/>
    <path class="fil0" d="M8199.77 5984.57c3.27,0.29 10,0.77 13.36,1.06 -0.19,5.67 -0.48,16.91 -0.57,22.49l-12.88 0c0,-5.86 0,-17.69 0.09,-23.55z"/>
   </g>
   <g id="__x0023_80463cff">
    <path class="fil0" d="M6855.69 1309.69l6.54 -4.23c4.23,1.16 12.59,3.27 16.72,4.43 5.48,14.7 -28.35,15.28 -23.26,-0.2z"/>
   </g>
   <g id="__x0023_a96b52ff">
   </g>
   <g id="__x0023_b88673ff">
    <path class="fil0" d="M6190.47 2500.47c27.97,0.77 49.79,18.94 73.53,31.24 42.01,23.35 91.89,13.46 136.97,25.37 47.19,12.59 96.02,3.17 144.08,3.75 45.94,0.48 92.17,5.19 136.48,17.88 -7.98,8.84 -17.21,18.17 -30.28,17.4 -77.08,6.24 -154.17,-3.46 -230.48,-12.31 -56.13,5.87 -111.02,-8.55 -163.78,-25.75 -28.36,-10.58 -48.25,-34.61 -66.52,-57.58z"/>
   </g>
   <g id="__x0023_ffffffff">
   </g>
   <g id="__x0023_41406bff">
   </g>
   <g id="__x0023_3f5fa1ff">
   </g>
  </g>
  <path class="fil0" d="M348.8 3604.09c56.42,-4.45 120.86,-38.65 115.76,-103.93 -3.92,-49.29 -41.65,-64.59 -81.5,-82.38 -11.18,-4.71 -24,-11.16 -25.12,-24.85 -0.8,-10.42 6.55,-16.23 16.22,-16.97 24.87,-1.99 35.66,35.98 62.76,33.86 17.05,-1.34 27.69,-17.45 26.43,-33.82 -1.53,-19.28 -22.35,-51.61 -44.24,-49.89 -10.35,0.87 -16.58,7.66 -21.35,8.06 -4.84,0.39 -19.81,-4.8 -37.97,-3.34 -51.15,3.99 -98.48,38.34 -94.09,93.95 5.57,70.8 94.92,77.59 97.45,110.27 1.12,14.07 -10.56,22.07 -23.14,23.07 -20.03,1.59 -32.65,-16.08 -40.61,-32.23 -6.71,-14.05 -13.69,-31.06 -32.58,-29.54 -20.04,1.53 -27.64,18.56 -26.18,36.73 4.39,56.04 59.25,74.86 108.16,71.01z"/>
  <path id="1" class="fil0" d="M712.58 3570.87c11.85,-0.93 18.24,-0.71 22.71,-0.68 4.15,0.41 6.45,1.02 8.68,0.83 13.7,-1.06 36.99,-32.01 34.32,-66.54 -1.19,-15.19 -6.78,-29.31 -24.64,-27.91 -30,2.39 -12.89,49.19 -70.73,53.71 -24.5,1.93 -24.8,2.73 -26.65,-20.64 -0.87,-11.53 -7.69,-45.67 7.87,-46.93 23,-1.79 4.42,37.38 31.88,35.18 25.98,-2.05 28.83,-50.75 27.3,-70.4 -1.34,-16.68 -5.89,-46.18 -28.52,-44.39 -22.94,1.8 -7.7,34.9 -29.58,36.62 -12.21,1 -9.5,-2.24 -9.51,-16.75 0.97,-39.64 -4.33,-45.94 33.11,-48.92 44.14,-3.46 29.95,34.63 60.02,32.24 15.56,-1.26 21.06,-16.6 20,-30.3 -2.79,-34.84 -22.92,-53.78 -35.51,-52.78 -3.72,0.26 -6.99,1.65 -12.45,3.16 -5.44,1.58 -13.56,3.3 -26.89,4.36l-58.22 4.59c-9.66,0.78 -19.28,1.51 -28.95,1.94 -9.66,0.74 -18.97,1.1 -28.27,1.45 -17.86,0.65 -37.11,7.02 -35.45,28.53 1.66,20.39 23.79,7.81 26.06,36.76 2.19,27.85 -3.8,117.87 -10.29,144.51 -6.27,24.34 -30.12,15.78 -28.33,38.04 0.93,12.21 9.1,21.29 32.85,19.42 16.66,-1.32 33.51,-6 50.19,-7.33l99 -7.77z"/>
  <path id="2" class="fil0" d="M1362.07 3309.09c7.1,-18.08 30.73,-7.6 28.73,-33.2 -0.8,-9.98 -9.84,-20.11 -51.01,-16.92 -15.19,1.19 -56.28,4.82 -54.62,26.7 1.26,15.94 17.93,13.93 18.93,27.26 1.06,12.96 -24.9,100.48 -34.21,101.21 -7.74,0.6 -25.98,-60.65 -33.66,-91.74 -4.37,-17.59 21.53,-11.03 19.94,-30.68 -1.06,-14.14 -5.71,-25.71 -59.9,-21.46 -86.05,6.78 -80.97,28.4 -80.25,37.69 1.67,21.15 23.06,7.89 31.11,30.04l41.53 115.03c21.97,60.91 27.78,83.21 57.48,80.88 21.15,-1.66 30.4,-12.44 49.26,-56.82l66.67 -167.99z"/>
  <path id="3" class="fil0" d="M1709.99 3331.04c-5.11,-65.65 -54.71,-97.96 -117.77,-92.98 -90.82,7.11 -157.12,89.2 -149.88,181.58 5.18,65.65 54.72,97.95 117.76,92.97 90.89,-7.17 157.19,-89.26 149.89,-181.57zm-139.91 132.65c-22.63,1.79 -26.33,-30.76 -27.46,-45.26 -2.26,-28.51 0.02,-128.32 39.69,-131.45 22.56,-1.78 26.27,30.76 27.4,45.2 2.26,28.58 0.05,128.39 -39.63,131.51z"/>
  <path id="4" class="fil0" d="M1875.03 3370.33c-2.12,-27.1 8.54,-99.96 45.61,-102.88 33.41,-2.6 31.99,46.41 66.52,43.69 22.63,-1.79 32.64,-21.26 30.98,-42.03 -1.79,-23 -22,-56.82 -43.52,-55.15 -5.14,0.39 -11.2,4.64 -15.6,4.98 -4.08,0.33 -20.37,-7.34 -45.17,-5.04 -89.7,8.16 -149.02,97.9 -142.45,181.72 4.98,63.79 53.54,97.28 115.1,92.43 33.41,-2.59 54.27,-12.07 82.02,-29.58 7.11,-4.25 7.11,-4.25 14.85,-5.6 22.87,-3.34 35.2,-41.23 33.68,-60.89 -1.13,-14.07 -8.69,-24.33 -23.88,-23.13 -13.32,1.06 -24.58,19.11 -31.79,27.51 -11.6,13.59 -23.39,24.99 -42.29,26.46 -30.06,2.39 -42.13,-27.25 -44.06,-52.49z"/>
  <path id="5" class="fil0" d="M2263.3 3454.32c11.84,-0.93 18.24,-0.71 22.7,-0.68 4.16,0.41 6.46,1.02 8.69,0.82 13.7,-1.06 36.99,-32 34.32,-66.54 -1.19,-15.18 -6.79,-29.3 -24.64,-27.9 -30.01,2.39 -12.89,49.19 -70.74,53.71 -24.49,1.93 -24.79,2.73 -26.65,-20.64 -0.86,-11.53 -7.68,-45.67 7.88,-46.93 23,-1.8 4.41,37.38 31.87,35.18 25.98,-2.05 28.83,-50.75 27.3,-70.4 -1.33,-16.68 -5.88,-46.18 -28.51,-44.39 -22.94,1.8 -7.7,34.9 -29.58,36.62 -12.21,1 -9.51,-2.24 -9.51,-16.75 0.97,-39.64 -4.34,-45.94 33.1,-48.92 44.15,-3.46 29.95,34.63 60.03,32.24 15.56,-1.26 21.05,-16.61 19.99,-30.3 -2.79,-34.84 -22.91,-53.78 -35.5,-52.78 -3.72,0.26 -7,1.65 -12.45,3.16 -5.45,1.58 -13.56,3.3 -26.89,4.36l-58.22 4.58c-9.67,0.79 -19.28,1.52 -28.95,1.95 -9.67,0.74 -18.98,1.09 -28.28,1.45 -17.86,0.65 -37.1,7.01 -35.45,28.53 1.67,20.39 23.8,7.81 26.06,36.76 2.19,27.84 -3.8,117.87 -10.29,144.51 -6.26,24.34 -30.12,15.78 -28.33,38.04 0.93,12.21 9.11,21.29 32.85,19.42 16.67,-1.32 33.52,-6 50.19,-7.33l99.01 -7.77zm-72.37 -284.24c6.37,-4.25 18.42,-13.06 26.54,-13.66 14.44,-1.12 30.27,24.47 47.38,23.14 9.23,-0.73 15.27,-9.44 14.54,-18.69 -1.2,-15.55 -47.04,-52.65 -61.86,-51.45 -9.67,0.72 -46.23,29.01 -56.5,36.13 -8.52,5.51 -20.81,15.44 -19.89,27.34 0.73,8.86 9.39,14.9 18.31,14.23 7.75,-0.66 25.05,-13.22 31.48,-17.04z"/>
  <path id="6" class="fil0" d="M2846.43 3170.18c2.46,30.75 32.03,-5.49 33.32,39.16 0.27,3.72 5.49,64.9 -7.16,65.9 -4.77,0.34 -20.63,-20.79 -23.13,-23.95l-46.82 -59.41c-27.17,-36.64 -33.4,-39.89 -65.63,-37.37 -42.65,3.39 -72.59,7.2 -70.53,33.17 2.05,25.98 33.08,3.37 32.35,31.77 -1.34,40.45 1.86,95.01 -15.68,156.88 -4.08,14.47 -26.86,9.56 -25.41,28.1 1.86,23.37 50.84,19.89 66.77,18.63 14.88,-1.2 49.29,-4.6 47.63,-25.74 -1.39,-17.49 -26.78,-8.73 -28.77,-33.59 -0.4,-5.2 0.13,-45.9 1.06,-57.56 0.35,-5.21 -0.27,-27.6 7.86,-28.2 6.32,-0.52 18,15.36 21.31,19.55l60.56 77.34c12.86,16.18 27.24,37.44 50.61,35.58 21.52,-1.66 34.04,-13.13 37.95,-72.38l6.89 -106.53c0.62,-11.61 3.8,-32.39 3.98,-35.38 0.61,-25.05 34.1,-12.39 32.24,-35.39 -1.66,-21.52 -24.85,-22.26 -57.84,-19.67 -65.28,5.11 -62.22,20.91 -61.56,29.09z"/>
  <path id="7" class="fil0" d="M3129.27 3284.62c-5.58,-0.35 -11.3,-1.37 -11.62,-5.46 -0.48,-6.26 15.7,-56.83 25,-57.56 6.26,-0.46 21.03,35.3 22.22,50.49 0.47,5.95 -0.76,9.07 -11.48,10.6l-24.12 1.93zm60.22 -226.38c0.21,2.61 0.41,5.15 -2.94,5.41 -9.99,0.79 -40.67,-18.39 -68.81,-16.2 -26.35,2.06 -41.39,19.69 -39.33,45.98 1.13,14.14 11.26,19.29 24.59,18.23 5.21,-0.4 11.41,-2.36 14.86,-6.03 3.76,-3.62 3.12,-7.34 2.79,-11.74 0.1,-3.41 -0.16,-6.39 3.56,-6.66 14.82,-1.19 54.18,19.63 76.07,17.9 24.06,-1.92 37.71,-23.51 35.92,-46.08 -1.19,-15.25 -10.22,-20.47 -24.66,-19.35 -11.16,0.87 -21.92,6.2 -22.05,18.54zm-26.08 266.58c8.55,-0.29 17.61,0.52 18.48,12 1.39,17.41 -23.09,10.04 -21.36,31.55 1.86,24.12 44.32,18.13 59.51,16.94 18.53,-1.47 78.49,-3.58 76.17,-32.46 -1.93,-24.87 -20.86,-4.73 -29.88,-33.84 -8.45,-27 -37.73,-123.91 -51.28,-154.23 -13.12,-29.2 -28.72,-46.61 -62.81,-43.96 -23.01,1.86 -37.12,7.46 -40.64,33.46 -8.38,59.59 -50.31,129.33 -79.28,187.59 -13.87,27.61 -33,12.27 -31.13,36.02 1.93,24.48 30.13,22.29 48.29,20.83 63.43,-4.98 68.01,-17.29 67.02,-30.24 -1.6,-20.03 -22.08,-9.87 -23.01,-21.72 -0.72,-9.67 1.85,-15.08 20.26,-18.03l49.66 -3.91z"/>
  <path id="8" class="fil0" d="M3623.84 3187.2c-5.12,-65.66 -54.72,-97.96 -117.77,-92.98 -90.83,7.11 -157.13,89.2 -149.89,181.57 5.18,65.65 54.72,97.96 117.76,92.98 90.89,-7.17 157.2,-89.26 149.9,-181.57zm-139.92 132.64c-22.62,1.8 -26.32,-30.75 -27.45,-45.25 -2.27,-28.52 0.01,-128.33 39.69,-131.45 22.56,-1.79 26.26,30.76 27.39,45.19 2.26,28.59 0.05,128.39 -39.63,131.51z"/>
  <path id="9" class="fil0" d="M385.1 3937.95c-2.13,-27.09 8.53,-99.96 45.6,-102.87 33.41,-2.6 31.99,46.4 66.52,43.68 22.63,-1.79 32.64,-21.25 30.98,-42.03 -1.79,-23 -22,-56.82 -43.51,-55.15 -5.15,0.4 -11.21,4.64 -15.6,4.98 -4.09,0.33 -20.38,-7.34 -45.18,-5.03 -89.7,8.15 -149.02,97.89 -142.45,181.71 4.98,63.8 53.54,97.28 115.1,92.44 33.41,-2.59 54.27,-12.07 82.02,-29.58 7.12,-4.26 7.12,-4.26 14.86,-5.6 22.86,-3.35 35.2,-41.24 33.67,-60.9 -1.13,-14.06 -8.69,-24.33 -23.87,-23.12 -13.33,1.06 -24.59,19.1 -31.8,27.51 -11.59,13.58 -23.38,24.99 -42.29,26.45 -30.06,2.39 -42.13,-27.25 -44.05,-52.49z"/>
  <path id="10" class="fil0" d="M814 3854.02c-5.11,-65.65 -54.71,-97.95 -117.77,-92.97 -90.82,7.11 -157.13,89.2 -149.88,181.57 5.17,65.65 54.71,97.96 117.76,92.98 90.89,-7.17 157.19,-89.26 149.89,-181.58zm-139.91 132.65c-22.63,1.79 -26.33,-30.75 -27.46,-45.26 -2.26,-28.51 0.01,-128.32 39.69,-131.44 22.56,-1.79 26.27,30.76 27.39,45.19 2.26,28.58 0.06,128.39 -39.62,131.51z"/>
  <path id="11" class="fil0" d="M1021.08 3899.54c2.27,-4.29 11.22,-23.32 16,-23.65 4.08,-0.33 4.12,4.51 4.31,7.11 1.33,16.68 -1.43,57.93 -6.19,73.28 -3.6,11.05 -24.4,7.88 -22.94,26.04 1.93,24.12 40.86,21.37 57.54,20.11 50.1,-3.99 81.43,-13.14 79.77,-34.28 -1.14,-14.44 -21.58,-9.12 -23.5,-33.62 -3.46,-43.76 -1.76,-88.31 -1.8,-131.91 1.82,-43.48 31.59,-20.44 29.33,-49.33 -1.93,-24.49 -40.19,-21.87 -57.23,-20.54 -30.38,2.39 -45.37,6.56 -58.73,35.96 -4.17,8.96 -31.91,78.25 -43.82,79.25 -9.98,0.73 -23.94,-48.87 -35.78,-71.45 -13.22,-25.48 -19.27,-31.34 -49.33,-28.95 -74.15,5.78 -76.51,28.36 -75.92,35.81 1.8,23 31.79,5.35 33.67,33.93 2.51,41.61 -11.38,102.02 -24.6,147.8 -6.39,22.92 -28.35,9.7 -26.36,34.93 1.72,21.88 32.54,19.8 48.1,18.61 57.47,-4.52 61.44,-16.39 60.45,-28.66 -1.14,-14.45 -19.1,-10.08 -20.36,-26.38 -0.93,-11.47 5.53,-57.9 6.01,-61.68 0.48,-2.61 1.1,-14.27 5.87,-14.61 4.46,-0.39 13.47,23.56 14.41,26.1l18.33 43.7c4.14,9.4 8.05,21.78 20.7,20.78 11.84,-0.93 21.85,-20.76 26.7,-30.09l25.37 -48.26z"/>
  <path id="12" class="fil0" d="M1284.25 3790.45c1.42,-24.01 1.07,-33.31 10.37,-34.04 14.81,-1.14 22.17,6.89 23.36,21.71 1.66,21.13 0.18,68.66 -28.78,70.91 -5.58,0.46 -7.06,0.16 -7.54,-5.73 -0.39,-4.83 0.61,-16.5 0.88,-22.09l1.71 -30.76zm-3.09 98.38c5.89,-0.46 11.53,-0.5 17.42,-0.96 85.68,-6.77 114.74,-59.83 110.89,-108.74 -4.12,-52.33 -40.97,-65.47 -86.96,-61.81 -9.68,0.72 -19.29,1.89 -28.89,3 -9.91,1.54 -19.53,2.64 -29.2,3.44 -6.32,0.46 -15.99,0.88 -26.78,0.94 -10.42,0.49 -21.59,0.98 -30.45,1.65 -15.99,1.26 -39.47,6.47 -37.82,27.24 1.8,22.62 27.02,6.49 28.42,24.66 2.66,33.72 -3.81,127.16 -10.83,160.93 -5.13,24.65 -26.12,9.5 -24.33,32.13 0.74,9.24 1.93,24.86 67.59,19.68 58.21,-4.58 80.31,-13 78.84,-31.98 -1.99,-25.54 -30.13,0.91 -27.56,-41.84l-0.34 -28.34z"/>
  <path id="13" class="fil0" d="M1532.99 3759.06c0.38,-8.62 -1.47,-18.53 9.26,-19.4 15.93,-1.26 20.45,8.89 21.58,22.97 1.32,16.68 0.06,48.49 -22.13,50.22 -10.41,0.86 -10.07,-4.04 -9.92,-12.22l1.21 -41.57zm-3.07 103.59c0.4,-9.31 1.38,-10.54 10.68,-11.28 8.92,-0.66 17.31,1.65 20.95,10.32 16.58,39.73 1.84,103.93 80.09,97.82 15.92,-1.27 52.22,-9.7 50.57,-31.22 -0.67,-7.81 -8.99,-9.37 -15.51,-11.51 -5.34,-1.4 -8.08,-3.06 -10.4,-8.88 -6.54,-16.65 -5.63,-43.19 -13.91,-63.07 -4.09,-9.4 -9.49,-11.91 -17.77,-16.89 -3.92,-2.65 -7.71,-3.87 -8.17,-9.08 -0.73,-9.24 40.2,-20.68 33.08,-68.27 -6.74,-43.51 -42.4,-55.23 -84.62,-50.79l-122.01 9.63c-16.23,2 -37.42,7.39 -35.82,28.16 0.93,11.53 6.2,12.19 16.01,14.06 5.71,1.02 8.69,1.19 10.33,7.38 6.8,29.68 0.76,133.16 -7.42,157.7 -4.53,13.42 -4.4,14.9 -15.97,19.86 -7.23,2.83 -10.63,7.19 -9.96,15 2.12,27.84 55.43,21.73 72.11,20.47 17.42,-1.39 73.9,-4.73 71.78,-31.07 -0.66,-8.5 -6.01,-10.7 -13.34,-13.46 -9.63,-4.1 -9.6,-8.19 -10.39,-18.24l-0.31 -46.64z"/>
  <path id="14" class="fil0" d="M1846.98 3879.4c8.55,-0.29 17.62,0.53 18.48,12 1.39,17.42 -23.08,10.04 -21.36,31.55 1.87,24.12 44.32,18.13 59.51,16.94 18.53,-1.46 78.49,-3.57 76.17,-32.46 -1.93,-24.87 -20.86,-4.73 -29.88,-33.84 -8.44,-27 -37.73,-123.91 -51.28,-154.23 -13.12,-29.2 -28.71,-46.61 -62.81,-43.95 -23.01,1.86 -37.12,7.45 -40.64,33.46 -8.38,59.58 -50.31,129.32 -79.28,187.59 -13.87,27.6 -33,12.26 -31.13,36.01 1.93,24.49 30.14,22.3 48.3,20.83 63.42,-4.98 68,-17.28 67.01,-30.24 -1.6,-20.02 -22.07,-9.87 -23,-21.71 -0.73,-9.68 1.84,-15.08 20.25,-18.03l49.66 -3.92zm-34.14 -40.2c-5.58,-0.34 -11.29,-1.37 -11.62,-5.45 -0.47,-6.27 15.7,-56.84 25,-57.57 6.27,-0.46 21.03,35.3 22.22,50.5 0.47,5.95 -0.76,9.06 -11.48,10.6l-24.12 1.92z"/>
  <path id="15" class="fil0" d="M2108.14 3715.83c0.39,-8.62 -1.46,-18.53 9.27,-19.4 15.93,-1.26 20.45,8.89 21.58,22.97 1.32,16.68 0.06,48.49 -22.13,50.22 -10.41,0.86 -10.07,-4.04 -9.92,-12.22l1.2 -41.57zm-3.06 103.59c0.39,-9.3 1.37,-10.54 10.67,-11.28 8.93,-0.66 17.32,1.65 20.96,10.32 16.58,39.73 1.84,103.93 80.08,97.82 15.93,-1.27 52.23,-9.7 50.58,-31.22 -0.67,-7.81 -8.99,-9.37 -15.51,-11.51 -5.34,-1.4 -8.08,-3.06 -10.41,-8.88 -6.53,-16.65 -5.62,-43.19 -13.9,-63.07 -4.09,-9.4 -9.49,-11.91 -17.77,-16.89 -3.92,-2.65 -7.71,-3.87 -8.17,-9.08 -0.74,-9.24 40.2,-20.68 33.08,-68.27 -6.74,-43.5 -42.4,-55.22 -84.62,-50.79l-122.01 9.63c-16.24,2.01 -37.42,7.39 -35.82,28.16 0.93,11.53 6.2,12.19 16.01,14.06 5.71,1.02 8.69,1.19 10.33,7.38 6.79,29.68 0.76,133.16 -7.42,157.7 -4.53,13.42 -4.4,14.9 -15.97,19.87 -7.24,2.83 -10.63,7.18 -9.96,14.99 2.12,27.84 55.43,21.73 72.1,20.47 17.43,-1.39 73.91,-4.72 71.79,-31.07 -0.66,-8.49 -6.01,-10.7 -13.34,-13.46 -9.63,-4.1 -9.6,-8.19 -10.39,-18.24l-0.31 -46.64z"/>
  <path id="16" class="fil0" d="M2565.9 3646.91c2.45,30.75 32.02,-5.5 33.31,39.15 0.27,3.72 5.49,64.9 -7.16,65.9 -4.77,0.34 -20.63,-20.79 -23.13,-23.94l-46.82 -59.42c-27.17,-36.63 -33.4,-39.89 -65.63,-37.36 -42.65,3.38 -72.59,7.2 -70.53,33.17 2.05,25.97 33.08,3.37 32.35,31.77 -1.34,40.44 1.86,95.01 -15.68,156.88 -4.08,14.46 -26.86,9.56 -25.41,28.1 1.86,23.37 50.85,19.89 66.78,18.63 14.87,-1.2 49.28,-4.6 47.62,-25.74 -1.39,-17.49 -26.78,-8.73 -28.77,-33.59 -0.4,-5.21 0.13,-45.9 1.06,-57.56 0.35,-5.21 -0.27,-27.6 7.86,-28.2 6.32,-0.53 18,15.35 21.31,19.55l60.56 77.33c12.86,16.19 27.24,37.45 50.61,35.59 21.52,-1.67 34.04,-13.14 37.95,-72.39l6.89 -106.52c0.62,-11.61 3.8,-32.4 3.98,-35.38 0.61,-25.06 34.1,-12.39 32.25,-35.4 -1.67,-21.51 -24.86,-22.26 -57.85,-19.67 -65.28,5.12 -62.22,20.92 -61.55,29.1z"/>
  <path id="17" class="fil0" d="M2833.29 3805.27c8.55,-0.29 17.62,0.52 18.48,12 1.39,17.42 -23.08,10.04 -21.36,31.55 1.87,24.12 44.32,18.13 59.51,16.94 18.53,-1.46 78.49,-3.57 76.17,-32.46 -1.93,-24.87 -20.86,-4.73 -29.88,-33.84 -8.45,-27 -37.73,-123.91 -51.28,-154.23 -13.12,-29.2 -28.72,-46.61 -62.81,-43.95 -23.01,1.86 -37.12,7.45 -40.64,33.46 -8.38,59.58 -50.31,129.32 -79.28,187.59 -13.87,27.6 -33,12.26 -31.13,36.01 1.93,24.49 30.13,22.3 48.29,20.83 63.43,-4.98 68.01,-17.29 67.02,-30.24 -1.6,-20.02 -22.07,-9.87 -23.01,-21.71 -0.72,-9.68 1.85,-15.09 20.26,-18.03l49.66 -3.92zm-34.14 -40.2c-5.58,-0.34 -11.3,-1.37 -11.62,-5.45 -0.47,-6.27 15.7,-56.84 25,-57.57 6.27,-0.46 21.03,35.3 22.22,50.5 0.47,5.95 -0.76,9.06 -11.48,10.6l-24.12 1.92z"/>
  <path id="18" class="fil0" d="M3101.19 3661.33c0.8,-13.84 -4.21,-34.34 18.42,-36.13 31.93,-2.52 38.85,29.01 41.17,57.96 3.52,44.89 -0.03,114.18 -45.22,117.71 -13.39,1.05 -13.37,-8.25 -14.68,-20.46l0.31 -119.08zm20.87 184.21c132.36,-10.42 138.24,-120.6 135.04,-161.39 -8.36,-106.07 -83.41,-106.86 -124.14,-102.93 -36.26,3.6 -75.13,7.77 -109.28,10.49 -18.54,1.4 -41.1,3.94 -39.18,28.05 1.72,22.26 25.26,3.6 27.65,33.66 2.26,28.58 -2.68,118.1 -9.59,148.53 -5.04,21.67 -29.16,9.02 -27.17,34.56 1.46,18.22 14.74,20.89 30.68,19.63 5.58,-0.4 10.72,-1.24 16.24,-2.02 5.21,-0.77 10.72,-1.59 15.92,-1.99l83.83 -6.59z"/>
  <path id="19" class="fil0" d="M3416.61 3761.43c8.55,-0.29 17.62,0.52 18.48,12 1.39,17.41 -23.08,10.04 -21.35,31.55 1.86,24.12 44.31,18.13 59.5,16.94 18.54,-1.47 78.5,-3.58 76.18,-32.46 -1.93,-24.87 -20.87,-4.73 -29.88,-33.84 -8.45,-27 -37.74,-123.91 -51.29,-154.23 -13.11,-29.2 -28.71,-46.61 -62.81,-43.96 -23,1.86 -37.11,7.46 -40.64,33.46 -8.37,59.59 -50.3,129.33 -79.28,187.59 -13.87,27.61 -32.99,12.27 -31.13,36.02 1.93,24.48 30.14,22.29 48.3,20.83 63.42,-4.98 68.01,-17.29 67.01,-30.24 -1.59,-20.03 -22.07,-9.87 -23,-21.72 -0.73,-9.67 1.84,-15.08 20.26,-18.03l49.65 -3.91zm-34.14 -40.2c-5.58,-0.35 -11.29,-1.37 -11.62,-5.46 -0.47,-6.26 15.71,-56.83 25.01,-57.56 6.26,-0.46 21.02,35.3 22.21,50.49 0.47,5.96 -0.76,9.07 -11.47,10.6l-24.13 1.93z"/>
  <path id="20" class="fil0" d="M3598.79 3818.26c0.92,11.16 -10.09,27.65 -15.75,36.36 -1.72,2.37 -3.32,5.48 -3.05,8.82 0.53,6.64 13.6,16.81 20.3,16.28 17.79,-1.4 55.18,-62.56 51.25,-102.91 -2.56,-27.78 -18.06,-48.97 -48.06,-46.58 -24.86,1.93 -38.48,18.3 -36.56,43.17 2.93,37.07 30.74,30.04 31.87,44.86z"/>
  <path id="21" class="fil0" d="M582.73 4327.05c-5.11,-65.65 -54.71,-97.96 -117.77,-92.98 -90.82,7.11 -157.12,89.2 -149.88,181.58 5.18,65.64 54.72,97.95 117.76,92.97 90.89,-7.17 157.19,-89.26 149.89,-181.57zm-139.91 132.65c-22.63,1.79 -26.33,-30.76 -27.46,-45.26 -2.26,-28.51 0.01,-128.33 39.69,-131.45 22.56,-1.78 26.27,30.76 27.4,45.2 2.25,28.58 0.05,128.38 -39.63,131.51z"/>
  <path id="22" class="fil0" d="M1007.43 4274.34c0.79,-13.84 -4.22,-34.34 18.41,-36.13 31.93,-2.52 38.85,29.01 41.17,57.95 3.53,44.9 -0.02,114.19 -45.21,117.71 -13.39,1.06 -13.38,-8.24 -14.69,-20.45l0.32 -119.08zm20.86 184.21c132.36,-10.42 138.24,-120.6 135.05,-161.39 -8.37,-106.07 -83.42,-106.86 -124.15,-102.93 -36.26,3.6 -75.13,7.76 -109.28,10.49 -18.54,1.4 -41.1,3.93 -39.18,28.05 1.73,22.26 25.26,3.59 27.65,33.66 2.26,28.58 -2.67,118.1 -9.58,148.53 -5.04,21.66 -29.17,9.02 -27.18,34.56 1.46,18.22 14.75,20.88 30.68,19.63 5.59,-0.4 10.73,-1.24 16.24,-2.02 5.21,-0.77 10.73,-1.6 15.93,-2l83.82 -6.58z"/>
  <path id="23" class="fil0" d="M1370.82 4432.68c11.84,-0.93 18.23,-0.71 22.7,-0.68 4.15,0.41 6.45,1.02 8.69,0.83 13.69,-1.06 36.98,-32.01 34.32,-66.54 -1.2,-15.19 -6.79,-29.31 -24.65,-27.91 -30,2.39 -12.89,49.19 -70.73,53.71 -24.49,1.93 -24.79,2.73 -26.65,-20.64 -0.87,-11.53 -7.69,-45.67 7.87,-46.93 23,-1.79 4.42,37.38 31.88,35.18 25.98,-2.05 28.83,-50.75 27.3,-70.4 -1.33,-16.68 -5.89,-46.18 -28.52,-44.39 -22.94,1.8 -7.69,34.9 -29.57,36.62 -12.21,1 -9.51,-2.24 -9.52,-16.75 0.97,-39.64 -4.33,-45.94 33.11,-48.92 44.14,-3.46 29.95,34.63 60.02,32.24 15.56,-1.26 21.06,-16.6 20,-30.3 -2.79,-34.84 -22.91,-53.78 -35.51,-52.78 -3.72,0.26 -6.99,1.65 -12.44,3.16 -5.45,1.58 -13.56,3.3 -26.89,4.36l-58.22 4.59c-9.67,0.78 -19.28,1.52 -28.96,1.94 -9.66,0.74 -18.97,1.1 -28.27,1.45 -17.86,0.66 -37.11,7.02 -35.45,28.53 1.66,20.39 23.79,7.81 26.06,36.76 2.19,27.85 -3.8,117.87 -10.29,144.51 -6.26,24.34 -30.12,15.78 -28.33,38.04 0.93,12.21 9.1,21.29 32.85,19.42 16.67,-1.32 33.51,-6 50.19,-7.33l99.01 -7.77z"/>
  <path id="24" class="fil0" d="M1568.77 4423.68c56.41,-4.45 120.86,-38.65 115.75,-103.93 -3.91,-49.29 -41.64,-64.59 -81.49,-82.38 -11.18,-4.71 -24,-11.16 -25.12,-24.85 -0.8,-10.42 6.55,-16.23 16.22,-16.97 24.86,-1.98 35.66,35.98 62.76,33.86 17.04,-1.34 27.69,-17.45 26.43,-33.82 -1.53,-19.28 -22.35,-51.61 -44.24,-49.89 -10.35,0.87 -16.58,7.66 -21.35,8.06 -4.84,0.39 -19.81,-4.8 -37.97,-3.34 -51.16,3.99 -98.48,38.34 -94.09,93.95 5.57,70.8 94.92,77.59 97.44,110.27 1.13,14.07 -10.55,22.07 -23.13,23.07 -20.03,1.59 -32.65,-16.08 -40.61,-32.23 -6.71,-14.05 -13.69,-31.06 -32.59,-29.54 -20.03,1.53 -27.63,18.56 -26.17,36.73 4.39,56.04 59.25,74.86 108.16,71.01z"/>
  <path id="25" class="fil0" d="M1824.53 4285.41c-2.13,-27.1 8.53,-99.96 45.6,-102.88 33.41,-2.6 31.99,46.4 66.52,43.69 22.63,-1.79 32.64,-21.26 30.98,-42.03 -1.79,-23 -22,-56.82 -43.51,-55.15 -5.15,0.39 -11.21,4.64 -15.61,4.98 -4.08,0.33 -20.37,-7.34 -45.17,-5.04 -89.7,8.16 -149.02,97.89 -142.45,181.72 4.98,63.79 53.54,97.28 115.1,92.43 33.41,-2.59 54.27,-12.07 82.02,-29.58 7.12,-4.25 7.12,-4.25 14.86,-5.6 22.86,-3.34 35.19,-41.23 33.67,-60.89 -1.13,-14.07 -8.69,-24.33 -23.87,-23.13 -13.33,1.06 -24.59,19.11 -31.8,27.51 -11.6,13.59 -23.38,24.99 -42.29,26.45 -30.06,2.39 -42.13,-27.24 -44.05,-52.48z"/>
  <path id="26" class="fil0" d="M2268.35 4200.36c-5.12,-65.66 -54.72,-97.96 -117.77,-92.98 -90.82,7.11 -157.13,89.2 -149.88,181.58 5.17,65.64 54.71,97.95 117.76,92.97 90.88,-7.17 157.19,-89.26 149.89,-181.57zm-139.91 132.65c-22.63,1.79 -26.33,-30.76 -27.46,-45.26 -2.27,-28.51 0.01,-128.33 39.69,-131.45 22.56,-1.78 26.27,30.76 27.39,45.2 2.26,28.58 0.05,128.38 -39.62,131.51z"/>
  <path id="27" class="fil0" d="M2473.33 4109.51c2.45,30.75 32.02,-5.5 33.31,39.15 0.27,3.72 5.49,64.9 -7.16,65.9 -4.76,0.34 -20.63,-20.79 -23.13,-23.94l-46.82 -59.42c-27.17,-36.63 -33.39,-39.89 -65.63,-37.37 -42.65,3.39 -72.59,7.21 -70.53,33.17 2.05,25.98 33.08,3.38 32.35,31.78 -1.34,40.44 1.86,95.01 -15.68,156.88 -4.08,14.46 -26.86,9.56 -25.41,28.1 1.86,23.37 50.85,19.88 66.78,18.63 14.87,-1.2 49.28,-4.6 47.62,-25.74 -1.39,-17.49 -26.78,-8.73 -28.77,-33.59 -0.4,-5.21 0.13,-45.9 1.06,-57.56 0.35,-5.22 -0.27,-27.6 7.86,-28.2 6.32,-0.53 18,15.35 21.32,19.54l60.55 77.34c12.86,16.19 27.24,37.45 50.61,35.59 21.52,-1.67 34.04,-13.14 37.95,-72.39l6.89 -106.52c0.62,-11.61 3.8,-32.4 3.98,-35.38 0.61,-25.06 34.11,-12.39 32.25,-35.4 -1.67,-21.51 -24.86,-22.26 -57.85,-19.67 -65.28,5.12 -62.22,20.91 -61.55,29.1z"/>
  <path id="28" class="fil0" d="M2673.69 4073.61c-5.21,0.4 -9.37,-0.39 -13.52,-1.23 -3.79,-0.79 -7.27,-1.64 -10.92,-1.38 -27.47,2.2 -45.53,48 -43.67,71.37 1.26,15.94 11.43,27.11 28.54,25.71 32.98,-2.59 24.93,-48.19 43.47,-49.66 6.63,-0.52 9.39,5.98 9.85,11.56 0.4,5.57 -2.92,128.95 -9.93,153.36 -5.3,18.32 -32.51,9.29 -30.78,31.55 0.66,7.8 3.11,25.16 69.87,19.85 77.12,-6.05 89.26,-22.67 88.4,-33.76 -1.73,-22.26 -28.67,-3.76 -31.14,-35.63 -2.52,-31.56 0.78,-89.63 1.22,-112.07 0.91,-26.93 0.03,-42.56 11.86,-43.49 16.37,-1.26 15.12,45.08 43.34,42.89 21.13,-1.66 29.41,-19.88 27.88,-39.53 -1.4,-17.8 -17.97,-57.16 -40.6,-55.37 -4.78,0.4 -7.31,1.72 -12.02,3.17 -4.76,1.51 -11.7,3.16 -26.15,4.29l-105.7 8.37z"/>
  <path id="29" class="fil0" d="M3144.67 4134.49c-5.12,-65.65 -54.72,-97.95 -117.77,-92.97 -90.83,7.1 -157.13,89.19 -149.89,181.57 5.18,65.65 54.72,97.96 117.76,92.98 90.89,-7.17 157.2,-89.26 149.9,-181.58zm-139.91 132.65c-22.63,1.79 -26.33,-30.75 -27.46,-45.26 -2.27,-28.51 0.01,-128.32 39.69,-131.44 22.56,-1.79 26.27,30.76 27.39,45.19 2.26,28.58 0.05,128.39 -39.62,131.51z"/>
  <path id="30" class="fil0" d="M3622.09 4263.47c11.84,-0.93 18.23,-0.71 22.7,-0.67 4.15,0.41 6.45,1.02 8.69,0.82 13.7,-1.06 36.98,-32 34.32,-66.54 -1.2,-15.18 -6.79,-29.3 -24.64,-27.9 -30.01,2.39 -12.89,49.18 -70.74,53.7 -24.49,1.93 -24.79,2.74 -26.65,-20.64 -0.87,-11.53 -7.68,-45.66 7.87,-46.92 23,-1.8 4.42,37.37 31.88,35.18 25.98,-2.05 28.83,-50.75 27.3,-70.4 -1.33,-16.68 -5.89,-46.18 -28.52,-44.39 -22.94,1.79 -7.69,34.89 -29.57,36.62 -12.21,1 -9.51,-2.25 -9.52,-16.76 0.98,-39.63 -4.33,-45.93 33.11,-48.92 44.14,-3.45 29.95,34.64 60.03,32.25 15.55,-1.26 21.05,-16.61 19.99,-30.31 -2.79,-34.84 -22.91,-53.77 -35.51,-52.77 -3.72,0.26 -6.99,1.64 -12.44,3.16 -5.45,1.58 -13.56,3.29 -26.89,4.35l-58.22 4.59c-9.67,0.79 -19.28,1.52 -28.96,1.95 -9.66,0.73 -18.97,1.09 -28.27,1.45 -17.86,0.65 -37.11,7.01 -35.45,28.53 1.66,20.39 23.79,7.81 26.06,36.76 2.19,27.84 -3.8,117.86 -10.29,144.51 -6.26,24.33 -30.12,15.78 -28.33,38.04 0.93,12.21 9.1,21.28 32.85,19.42 16.67,-1.32 33.51,-6 50.19,-7.33l99.01 -7.78zm-80.64 -299.63c-4.12,5.17 -9.31,10.03 -8.78,17.1 0.67,8.55 8.07,12.43 15.88,11.82 24.11,-1.92 78.48,-31.91 76.22,-60.12 -1.07,-14.07 -25.38,-14.81 -35.8,-13.94 -8.86,0.66 -42.69,7.41 -41.7,19.69 0.14,2.22 1.38,3.58 2.7,5.75 0.82,1.42 1.25,2.1 1.39,3.96 0.46,5.21 -6.82,12.5 -9.91,15.74z"/>
  <path id="31" class="fil0" d="M544.82 4846.62c2.27,-4.29 11.22,-23.32 16,-23.66 4.09,-0.32 4.12,4.52 4.32,7.12 1.32,16.68 -1.44,57.93 -6.2,73.28 -3.6,11.05 -24.4,7.88 -22.93,26.04 1.92,24.12 40.85,21.37 57.54,20.11 50.09,-3.99 81.42,-13.14 79.76,-34.28 -1.13,-14.44 -21.57,-9.13 -23.49,-33.62 -3.46,-43.77 -1.77,-88.31 -1.81,-131.91 1.82,-43.49 31.59,-20.44 29.33,-49.33 -1.93,-24.49 -40.18,-21.87 -57.23,-20.54 -30.38,2.39 -45.37,6.56 -58.73,35.96 -4.17,8.96 -31.91,78.25 -43.82,79.25 -9.98,0.73 -23.94,-48.88 -35.78,-71.45 -13.22,-25.48 -19.26,-31.35 -49.33,-28.96 -74.14,5.79 -76.51,28.37 -75.92,35.81 1.8,23 31.79,5.36 33.67,33.94 2.51,41.61 -11.38,102.02 -24.59,147.8 -6.39,22.92 -28.36,9.7 -26.37,34.93 1.73,21.88 32.55,19.8 48.1,18.61 57.47,-4.52 61.45,-16.39 60.45,-28.66 -1.13,-14.45 -19.1,-10.08 -20.36,-26.38 -0.92,-11.48 5.53,-57.9 6.01,-61.69 0.48,-2.6 1.11,-14.26 5.87,-14.6 4.47,-0.39 13.47,23.56 14.41,26.1l18.34 43.69c4.13,9.41 8.04,21.79 20.69,20.79 11.85,-0.93 21.85,-20.76 26.7,-30.09l25.37 -48.26z"/>
  <path id="32" class="fil0" d="M835.64 4866.7c8.55,-0.29 17.62,0.52 18.48,12 1.39,17.41 -23.08,10.04 -21.35,31.55 1.86,24.12 44.31,18.13 59.5,16.94 18.54,-1.47 78.5,-3.58 76.17,-32.47 -1.92,-24.86 -20.86,-4.72 -29.88,-33.83 -8.44,-27 -37.73,-123.91 -51.28,-154.23 -13.11,-29.2 -28.71,-46.61 -62.81,-43.96 -23.01,1.86 -37.12,7.46 -40.64,33.46 -8.37,59.59 -50.31,129.33 -79.28,187.59 -13.87,27.61 -32.99,12.27 -31.13,36.02 1.93,24.48 30.14,22.29 48.3,20.83 63.42,-4.98 68,-17.29 67.01,-30.24 -1.59,-20.03 -22.07,-9.88 -23,-21.72 -0.73,-9.67 1.84,-15.08 20.25,-18.03l49.66 -3.91zm-34.14 -40.2c-5.58,-0.35 -11.29,-1.37 -11.62,-5.46 -0.47,-6.26 15.7,-56.84 25.01,-57.57 6.26,-0.46 21.02,35.31 22.21,50.5 0.47,5.95 -0.76,9.06 -11.48,10.6l-24.12 1.93z"/>
  <path id="33" class="fil0" d="M1007.31 4846.37c-1.71,40.45 -35.85,23.38 -33.92,47.8 1.72,22.27 24.75,25.68 86.68,20.82 19.28,-1.51 69.82,-4.39 67.69,-31.79 -1.86,-23 -26.88,-4.64 -29.27,-34.64 -0.66,-8.56 0.23,-16.44 0.68,-24.69l6.4 -103.48c0.96,-7.2 2.22,-14.77 2.81,-21.92 1.93,-22.51 31.71,-9.21 29.91,-32.52 -1.59,-19.65 -21.65,-22.96 -82.83,-18.11 -76.38,5.98 -70.77,24.92 -70.43,29.76 1.79,22.26 26.84,8.35 28.23,26.52 0.6,7.82 -0.43,13.09 -0.4,18.67l-5.55 123.58z"/>
  <path id="34" class="fil0" d="M1417.56 4719.94c-5.12,-65.65 -54.72,-97.95 -117.77,-92.97 -90.82,7.11 -157.13,89.2 -149.88,181.57 5.17,65.65 54.71,97.96 117.76,92.98 90.88,-7.17 157.19,-89.26 149.89,-181.58zm-139.91 132.65c-22.63,1.79 -26.33,-30.75 -27.46,-45.26 -2.27,-28.51 0.01,-128.32 39.69,-131.44 22.56,-1.79 26.27,30.76 27.39,45.19 2.26,28.58 0.05,128.39 -39.62,131.51z"/>
  <path id="35" class="fil0" d="M1546.92 4669.3c0.38,-8.63 -1.47,-18.54 9.26,-19.4 15.93,-1.26 20.45,8.89 21.58,22.96 1.32,16.68 0.06,48.5 -22.13,50.22 -10.41,0.87 -10.07,-4.03 -9.92,-12.22l1.21 -41.56zm-3.07 103.59c0.39,-9.31 1.37,-10.55 10.68,-11.29 8.92,-0.66 17.31,1.65 20.95,10.32 16.58,39.73 1.84,103.94 80.08,97.83 15.93,-1.27 52.23,-9.71 50.58,-31.22 -0.67,-7.81 -8.99,-9.37 -15.51,-11.51 -5.34,-1.41 -8.08,-3.07 -10.4,-8.89 -6.54,-16.64 -5.63,-43.19 -13.91,-63.06 -4.09,-9.4 -9.49,-11.91 -17.77,-16.9 -3.92,-2.64 -7.71,-3.86 -8.17,-9.07 -0.73,-9.24 40.2,-20.68 33.08,-68.27 -6.74,-43.51 -42.4,-55.23 -84.62,-50.79l-122.01 9.63c-16.23,2 -37.42,7.38 -35.82,28.15 0.93,11.53 6.2,12.19 16.01,14.06 5.71,1.03 8.69,1.19 10.33,7.39 6.8,29.67 0.76,133.16 -7.42,157.7 -4.53,13.41 -4.4,14.9 -15.97,19.86 -7.23,2.83 -10.63,7.19 -9.96,15 2.12,27.84 55.43,21.73 72.11,20.46 17.42,-1.39 73.9,-4.72 71.78,-31.06 -0.66,-8.5 -6.01,-10.7 -13.34,-13.46 -9.63,-4.1 -9.6,-8.2 -10.39,-18.25l-0.31 -46.63z"/>
  <path id="36" class="fil0" d="M1970.38 4781.41c8.55,-0.29 17.62,0.52 18.48,12 1.39,17.42 -23.08,10.04 -21.35,31.55 1.86,24.12 44.31,18.13 59.5,16.94 18.53,-1.46 78.5,-3.57 76.17,-32.46 -1.93,-24.87 -20.86,-4.73 -29.88,-33.84 -8.44,-27 -37.73,-123.91 -51.28,-154.23 -13.11,-29.2 -28.71,-46.61 -62.81,-43.95 -23.01,1.86 -37.12,7.45 -40.64,33.46 -8.37,59.58 -50.31,129.32 -79.28,187.59 -13.87,27.6 -32.99,12.26 -31.13,36.01 1.93,24.48 30.14,22.29 48.3,20.83 63.42,-4.98 68,-17.29 67.01,-30.24 -1.6,-20.03 -22.07,-9.87 -23,-21.72 -0.73,-9.67 1.84,-15.08 20.25,-18.02l49.66 -3.92zm-34.14 -40.2c-5.58,-0.34 -11.29,-1.37 -11.62,-5.46 -0.47,-6.26 15.7,-56.83 25,-57.56 6.27,-0.46 21.03,35.3 22.22,50.49 0.47,5.96 -0.76,9.07 -11.48,10.6l-24.12 1.93z"/>
  <path id="37" class="fil0" d="M2142.05 4761.08c-1.71,40.45 -35.85,23.38 -33.92,47.81 1.72,22.26 24.75,25.67 86.68,20.82 19.28,-1.52 69.82,-4.4 67.69,-31.79 -1.86,-23.01 -26.88,-4.64 -29.27,-34.65 -0.66,-8.55 0.23,-16.43 0.68,-24.69l6.4 -103.48c0.96,-7.2 2.22,-14.77 2.81,-21.91 1.93,-22.52 31.71,-9.21 29.91,-32.52 -1.59,-19.66 -21.65,-22.97 -82.84,-18.12 -76.37,5.98 -70.76,24.93 -70.42,29.76 1.79,22.26 26.84,8.36 28.23,26.52 0.6,7.82 -0.43,13.09 -0.4,18.68l-5.55 123.57z"/>
  <path id="38" class="fil0" d="M2463.31 4565.9c2.46,30.75 32.03,-5.49 33.32,39.16 0.27,3.72 5.49,64.9 -7.16,65.9 -4.77,0.34 -20.63,-20.79 -23.13,-23.95l-46.82 -59.41c-27.18,-36.64 -33.4,-39.89 -65.63,-37.37 -42.65,3.39 -72.59,7.2 -70.53,33.17 2.05,25.98 33.07,3.37 32.35,31.77 -1.34,40.45 1.86,95.01 -15.68,156.88 -4.08,14.47 -26.86,9.56 -25.41,28.1 1.86,23.37 50.84,19.89 66.77,18.63 14.88,-1.2 49.29,-4.6 47.63,-25.74 -1.4,-17.49 -26.78,-8.73 -28.77,-33.59 -0.4,-5.2 0.13,-45.9 1.06,-57.56 0.35,-5.21 -0.27,-27.6 7.86,-28.2 6.32,-0.52 18,15.36 21.31,19.55l60.56 77.34c12.86,16.18 27.24,37.44 50.61,35.58 21.51,-1.66 34.04,-13.13 37.95,-72.38l6.89 -106.53c0.62,-11.61 3.8,-32.4 3.98,-35.38 0.61,-25.05 34.1,-12.39 32.24,-35.39 -1.66,-21.52 -24.85,-22.26 -57.84,-19.67 -65.28,5.11 -62.22,20.91 -61.56,29.09z"/>
  <path id="39" class="fil0" d="M2711.03 4601.94c0.8,-13.84 -4.21,-34.34 18.42,-36.13 31.93,-2.52 38.85,29.01 41.17,57.95 3.52,44.9 -0.03,114.19 -45.22,117.71 -13.39,1.06 -13.38,-8.24 -14.68,-20.45l0.31 -119.08zm20.87 184.21c132.36,-10.42 138.24,-120.6 135.04,-161.39 -8.36,-106.08 -83.41,-106.86 -124.14,-102.93 -36.27,3.6 -75.13,7.76 -109.28,10.49 -18.54,1.39 -41.1,3.93 -39.18,28.05 1.72,22.26 25.26,3.59 27.65,33.66 2.26,28.58 -2.68,118.1 -9.59,148.52 -5.04,21.67 -29.16,9.03 -27.17,34.57 1.46,18.22 14.74,20.88 30.67,19.62 5.59,-0.39 10.73,-1.23 16.25,-2.01 5.21,-0.77 10.72,-1.6 15.92,-2l83.83 -6.58z"/>
  <path id="40" class="fil0" d="M3026.45 4702.04c8.55,-0.29 17.62,0.52 18.48,12 1.39,17.41 -23.08,10.04 -21.35,31.55 1.86,24.11 44.31,18.13 59.5,16.93 18.54,-1.46 78.5,-3.57 76.18,-32.46 -1.93,-24.86 -20.87,-4.73 -29.88,-33.83 -8.45,-27 -37.74,-123.91 -51.29,-154.23 -13.11,-29.2 -28.71,-46.61 -62.81,-43.96 -23,1.86 -37.12,7.45 -40.64,33.46 -8.37,59.59 -50.3,129.33 -79.28,187.59 -13.87,27.61 -32.99,12.27 -31.13,36.02 1.93,24.48 30.14,22.29 48.3,20.82 63.42,-4.97 68,-17.28 67.01,-30.23 -1.59,-20.03 -22.07,-9.88 -23,-21.72 -0.73,-9.67 1.84,-15.08 20.25,-18.03l49.66 -3.91zm-34.14 -40.21c-5.58,-0.34 -11.29,-1.36 -11.62,-5.45 -0.47,-6.26 15.7,-56.84 25.01,-57.57 6.26,-0.46 21.02,35.31 22.21,50.5 0.47,5.95 -0.76,9.06 -11.47,10.6l-24.13 1.92z"/>
  <path id="41" class="fil0" d="M3221.64 4672.41c-22.63,1.79 -41.76,19.68 -40.89,44.62 0.94,26.04 21.19,42 43.82,40.21 22.62,-1.73 41.62,-20.81 40.74,-46.86 -0.87,-24.92 -21.04,-39.76 -43.67,-37.97zm7.44 -190.14c-32.29,2.53 -50.32,19.61 -47.79,52.28 2.52,31.87 11.84,69.96 25.7,98.73 3.57,7.93 8.39,16.83 18.43,16.1 9.24,-0.74 15.58,-10.57 18.7,-17.9 14.9,-33.63 31.87,-74.16 29.62,-112.41 -1.69,-26.36 -18.74,-38.85 -44.66,-36.8z"/>
 </g>
</svg>
