<svg width="201" height="201" viewBox="0 0 201 201" fill="none" xmlns="http://www.w3.org/2000/svg">
<path d="M120.083 112.09C120.083 110.529 119.414 109.674 118.405 109.063C117.377 108.475 116.138 108.394 114.442 108.394H106.921V122.14H110.215V117.135H113.74C114.899 117.135 115.626 117.252 116.061 117.746C116.65 118.375 116.577 119.592 116.577 120.433V122.129H119.776V119.424C119.776 118.207 119.702 117.596 119.264 116.909C118.833 116.393 118.275 116 117.644 115.768L117.736 115.728C118.631 115.388 120.079 114.28 120.079 112.09H120.083ZM115.834 114.068L115.699 114.05C115.261 114.317 114.749 114.339 114.08 114.339H110.142V111.271H114.16C114.749 111.271 115.319 111.271 115.78 111.52C116.009 111.632 116.2 111.809 116.328 112.03C116.457 112.251 116.516 112.505 116.5 112.759C116.5 113.348 116.27 113.801 115.853 114.072L115.834 114.068ZM140.95 119.194H134.629V122.129H140.991C144.281 122.129 146.109 120.773 146.109 117.826C146.109 116.452 145.787 115.633 145.198 114.989C144.456 114.342 143.272 114.035 141.641 113.98L139.81 113.904C139.298 113.904 138.936 113.904 138.556 113.754C138.339 113.686 138.15 113.548 138.019 113.363C137.887 113.177 137.82 112.954 137.828 112.726C137.828 112.288 137.905 111.926 138.267 111.717C138.674 111.491 139.136 111.384 139.601 111.41H145.579V108.482H139.009C135.583 108.482 134.344 110.613 134.344 112.577C134.344 116.975 138.117 116.744 141.203 116.821C141.696 116.821 142.076 116.894 142.285 117.102C142.515 117.26 142.683 117.618 142.683 117.98C142.683 118.36 142.511 118.722 142.303 118.857C142.021 119.121 141.583 119.197 140.954 119.197L140.95 119.194ZM42.0116 42V91.2226L45.9563 82.0646H54.4854L55.5858 84.3313V82.0646H65.5444L67.7343 87.033L69.8693 82.1049H101.573C103.002 82.1049 104.293 82.3864 105.247 83.2638V82.1378H113.966V83.2638C115.447 82.4266 117.297 82.1378 119.41 82.1378H132.107L133.291 84.4044V82.1378H142.639L143.871 84.4044V82.1195H152.938V101.375H143.74L141.989 98.4393V101.295H130.505L129.266 98.2272H126.411L125.098 101.214H119.194C116.851 101.214 115.1 100.721 113.919 100.055V101.214H99.8255V96.9148C99.8255 96.3262 99.6938 96.3262 99.3319 96.2458H98.8164V101.291H71.5693V98.9694L70.542 101.291H64.8681L63.8773 98.9694V101.232H52.8914L51.6521 98.187H48.8151L47.5831 101.232H42.0006V158.984H157.939V124.33C156.627 124.992 154.952 125.204 153.197 125.204H144.804V123.965C143.776 124.765 142.025 125.204 140.347 125.204H113.707V120.828C113.707 120.239 113.608 120.239 113.118 120.239H112.756V125.226H103.979V120.031C102.531 120.7 100.834 120.751 99.4452 120.7H98.4179V125.156H87.7977L85.1508 122.144L82.3687 125.08H65.1167V105.923H82.7123L85.2422 108.858L87.9475 105.923H99.6938C101.065 105.923 103.291 106.08 104.282 107.031V105.85H114.888C115.878 105.85 118.032 106.08 119.304 106.95V105.791H135.203V106.95C136.004 106.149 137.7 105.791 139.126 105.791H148.339V106.95C149.293 106.23 150.605 105.791 152.433 105.791H158.166V42.0037L42.0116 42ZM145.136 114.887C145.155 114.927 145.155 114.964 145.176 114.986C145.235 115.019 145.308 115.019 145.348 115.077L145.14 114.905L145.136 114.887ZM158.162 105.769H158.487V108.475H158.162V105.769ZM158.33 115.267V115.227C158.199 115.114 158.122 115.004 157.968 114.887C157.248 114.145 156.064 113.838 154.254 113.801L152.485 113.746C151.914 113.746 151.552 113.706 151.172 113.596C150.955 113.528 150.767 113.391 150.636 113.205C150.504 113.02 150.437 112.796 150.445 112.569C150.445 112.13 150.594 111.783 150.883 111.575C151.245 111.366 151.603 111.33 152.196 111.33H158.158V108.475H151.914C148.54 108.475 147.231 110.606 147.231 112.569C147.231 116.945 151.037 116.737 154.104 116.814C154.62 116.814 154.982 116.868 155.19 117.095C155.42 117.252 155.57 117.611 155.57 117.973C155.567 118.142 155.527 118.309 155.451 118.461C155.375 118.613 155.266 118.746 155.131 118.85C154.901 119.113 154.462 119.19 153.819 119.19H147.531V122.14H153.801C155.852 122.14 157.38 121.57 158.199 120.389H158.33C158.769 119.72 158.999 118.923 158.999 117.841C158.999 116.656 158.769 115.936 158.33 115.267V115.267ZM132.666 111.253V108.416H121.772V122.221H132.666V119.365H125.007V116.605H132.476V113.75H125.007V111.275L132.666 111.253ZM107.876 84.8212H111.206V98.5526H107.876V84.8212ZM105.989 88.5172L105.949 88.5575C105.949 87.011 105.32 86.119 104.293 85.5121C103.244 84.9016 102.012 84.8431 100.356 84.8431H92.8537V98.5892H96.144V93.5441H99.65C100.809 93.5441 101.555 93.694 102.03 94.1327C102.626 94.8017 102.545 95.9789 102.545 96.7978V98.5343H105.839V95.8473C105.839 94.6299 105.763 94.0193 105.302 93.3137C104.873 92.8057 104.324 92.4135 103.704 92.1731C104.409 91.8618 105.004 91.3479 105.415 90.6967C105.826 90.0456 106.033 89.2868 106.011 88.5172H105.989ZM101.822 90.4439H101.763C101.306 90.7071 100.809 90.7254 100.144 90.7254H96.1257V87.6801H100.144C100.732 87.6801 101.302 87.6983 101.741 87.9287C102.18 88.1188 102.483 88.5575 102.483 89.1461C102.483 89.7347 102.253 90.2136 101.822 90.4439ZM119.622 87.6801H122.689V84.7663H119.545C117.297 84.7663 115.641 85.2818 114.577 86.3713C113.188 87.8336 112.822 89.7383 112.822 91.7966C112.822 94.2935 113.411 95.8509 114.577 97.0135C115.699 98.1724 117.717 98.538 119.297 98.538H123.11L124.349 95.4707H131.123L132.399 98.538H139.024V88.254L145.235 98.538H149.882V84.8248H146.529V94.4032L140.782 84.8431H135.81V97.5619L130.286 84.6164H125.391L120.803 95.4524H119.337C118.485 95.4524 117.567 95.3025 117.056 94.7834C116.445 94.0632 116.16 93.0322 116.16 91.5662C116.16 90.177 116.54 89.0693 117.092 88.499C117.739 87.8299 118.427 87.6801 119.607 87.6801H119.622ZM127.753 87.1682L130.001 92.6118V92.6301H125.468L127.753 87.1682ZM53.608 95.4671L54.8473 98.5343H61.512V87.797L66.2536 98.5343H69.0906L73.8286 87.797L73.9054 98.5343H77.2724V84.8431H71.8288L67.9061 94.1144L63.6251 84.8248H58.3131V97.8105L52.7525 84.8248H47.8975L42.0737 98.538H45.5724L46.83 95.4926H53.6116L53.608 95.4671ZM50.2556 87.1682L52.5039 92.6118L52.4856 92.6301H48.0291L50.2556 87.1682ZM99.7999 108.394H89.3697L85.2166 112.887L81.1988 108.394H68.0816V122.14H81.0087L85.1764 117.592L89.1978 122.126H95.5335V117.552H99.628C102.542 117.552 105.32 116.752 105.32 112.946L105.302 112.927C105.302 109.122 102.392 108.394 99.7999 108.394V108.394ZM79.4074 119.27H71.3536V116.547H78.5081V113.75H71.3536V111.275H79.5391L83.1218 115.271L79.3892 119.289L79.4074 119.27ZM92.2761 120.89L87.2493 115.289L92.2761 109.904V120.89ZM99.8364 114.755H95.5335V111.249H99.8364C101.017 111.249 101.895 111.728 101.895 112.927C101.895 114.127 101.174 114.755 99.8364 114.755ZM90.6054 87.6801V84.8248H79.6926V98.5563H90.6054V95.7193H82.9463V92.9738H90.3933V90.1551H82.9463V87.6801H90.6054Z" fill="#016FD0"/>
</svg>
