<svg width="201" height="201" viewBox="0 0 201 201" fill="none" xmlns="http://www.w3.org/2000/svg">
<path fill-rule="evenodd" clip-rule="evenodd" d="M100.5 38C135.018 38 163 65.9824 163 100.5C163 135.018 135.018 163 100.5 163C65.9824 163 38 135.018 38 100.5C38 65.9824 65.9824 38 100.5 38Z" fill="#0E0E11"/>
<path fill-rule="evenodd" clip-rule="evenodd" d="M81.9556 96.0034L62.7847 104.265C62.7546 103.932 62.7393 103.597 62.7388 103.262C62.7388 97.1978 67.6543 92.2822 73.7183 92.2822C76.9995 92.2822 79.9439 93.7222 81.9556 96.0034V96.0034ZM73.7183 84.0708C82.7647 84.0708 90.3477 90.3306 92.3755 98.7544L84.6411 102.136L84.6392 102.12L76.7256 105.597L57.7427 113.897C55.6407 110.749 54.5215 107.048 54.5274 103.262C54.5274 92.6631 63.1191 84.0708 73.7183 84.0708V84.0708ZM87.1284 116.991C80.2573 123.512 71.1665 124.152 63.1792 119.303L67.6924 112.441C72.2373 115.158 76.8037 114.718 81.3906 111.116L87.1284 116.99V116.991ZM94.9429 112.24L94.894 75.9482H101.77V111.26C101.77 111.599 101.812 111.897 102.256 112.07L108.238 114.396L105.543 121.403L98.5361 118.438C95.8794 117.314 94.9473 115.685 94.9424 112.24H94.9429Z" fill="white"/>
<path fill-rule="evenodd" clip-rule="evenodd" d="M120.832 111.63C118.255 109.625 116.595 106.498 116.595 102.98C116.595 99.8535 117.908 97.0347 120.01 95.0391L115.569 87.8418C111.104 91.3784 108.238 96.8433 108.238 102.98C108.238 109.596 111.566 115.432 116.638 118.912L120.832 111.63" fill="#2091C3"/>
<path fill-rule="evenodd" clip-rule="evenodd" d="M123.842 92.6724C125.031 92.2449 126.285 92.0269 127.548 92.0278C132.237 92.0278 136.236 94.9766 137.798 99.1196L146.308 98.4087C144.254 89.9517 136.637 83.6709 127.548 83.6709C125.06 83.6692 122.595 84.1501 120.29 85.0869L123.842 92.6724Z" fill="#FAEC32"/>
<path fill-rule="evenodd" clip-rule="evenodd" d="M138.487 103.511C138.21 109.314 133.419 113.934 127.548 113.934C126.627 113.934 125.734 113.818 124.881 113.604L121.542 121.333C123.481 121.968 125.508 122.291 127.548 122.291C137.946 122.291 146.42 114.07 146.837 103.774L138.487 103.511" fill="#D0352A"/>
</svg>
