<svg width="201" height="201" viewBox="0 0 201 201" fill="none" xmlns="http://www.w3.org/2000/svg">
<path d="M58.512 60H39.4417C31.0158 60.3987 24.128 63.7936 22.1393 70.7947C21.1025 74.4463 20.5318 78.456 19.7207 82.2413C15.5986 101.487 11.9431 121.262 8 140.124H156.465C167.943 140.124 175.823 137.697 177.953 128.585C178.943 124.351 179.89 119.556 180.837 114.905C184.527 96.7703 188.22 78.6364 192 60H58.512Z" fill="#B82126"/>
<path d="M135.111 107.87C133.052 109.887 127.272 110.459 127.863 105.639C128.354 101.636 132.711 100.785 137.434 101.363C137.082 103.553 136.68 106.334 135.111 107.871V107.87ZM128.606 92.2541C128.41 93.3585 128.108 94.3579 127.863 95.4142C130.221 94.8231 137.563 93.0101 138.27 96.158C138.505 97.2042 138.1 98.3151 137.806 99.1326C131.166 98.5035 125.755 99.6072 124.333 104.338C123.379 107.507 124.439 110.625 126.47 111.496C130.38 113.171 135.137 111.251 136.783 108.614C136.612 109.527 136.45 110.449 136.505 111.589H139.942C139.979 108.295 140.458 105.629 140.964 102.665C141.396 100.141 142.209 97.6421 142.079 95.4145C141.785 90.313 133.336 92.1174 128.606 92.2544V92.2541ZM163.079 109.45C160.389 109.508 159.052 107.843 158.99 105.082C158.883 100.246 161.004 94.8738 165.309 94.3921C167.313 94.1677 168.765 94.634 170.233 95.1359C168.885 100.567 169.372 109.315 163.079 109.45V109.45ZM171.999 83.8885C171.656 86.8919 171.199 89.7806 170.605 92.5327C160.805 89.4297 154.794 96.643 154.902 105.546C154.923 107.268 155.219 108.976 156.296 110.194C158.151 112.293 163.463 112.795 166.145 111.031C166.665 110.689 167.195 110.068 167.539 109.637C167.798 109.312 168.208 108.462 168.282 108.706C168.141 109.65 167.93 110.524 167.911 111.589H171.535C172.233 101.567 174.392 93.0062 175.995 83.8882H171.999L171.999 83.8885ZM69.6975 107.963C67.5596 110.228 62.3044 110.193 61.8926 106.383C61.7129 104.725 62.3307 102.986 62.6358 101.271C62.9448 99.5342 63.1669 97.8682 63.4717 96.3439C65.5772 93.7719 71.7642 93.4617 72.3921 97.7384C72.9369 101.451 71.4678 106.088 69.6975 107.963V107.963ZM72.8567 92.2541C69.475 90.9835 65.3534 92.5003 63.5669 93.9434C63.573 94.0067 63.5245 94.0153 63.4717 94.0203C63.5022 93.9945 63.5353 93.9689 63.5669 93.9434C63.5667 93.9381 63.566 93.9328 63.5648 93.9276C63.5949 93.3067 63.8134 92.8746 63.8436 92.2541H60.4058C58.973 101.789 57.2742 111.058 55.481 120.233H59.4765C60.0547 116.659 60.4367 112.89 61.2421 109.543C62.1546 113.063 68.1123 112.391 70.6265 111.031C75.814 108.225 79.8153 94.8692 72.8567 92.2541ZM91.8116 98.9468H82.4273C82.7241 96.7886 84.6651 94.4162 87.7234 94.2993C90.6016 94.189 92.6623 95.3563 91.8116 98.9468V98.9468ZM88.0023 91.8823C85.115 92.1049 82.6749 92.9357 80.9405 94.7638C78.813 97.0057 77.0905 101.962 77.5951 106.476C78.3153 112.916 86.3301 112.685 92.741 111.123C92.8499 109.994 93.1233 109.027 93.2984 107.963C90.6573 108.952 86.0724 110.332 83.3562 108.614C81.3057 107.317 81.2934 104.032 81.9626 101.178C86.2711 101.041 90.7493 101.067 95.0636 101.178C95.3375 99.1542 96.1209 96.9482 95.4352 94.95C94.5314 92.3116 91.2952 91.6289 88.0023 91.8823V91.8823ZM52.8795 92.2541C52.7713 92.2699 52.7785 92.4015 52.786 92.5327C51.9059 99.1193 50.7146 105.395 49.4413 111.589H53.4368C54.3967 104.957 55.4964 98.4668 56.8746 92.2541H52.8795V92.2541ZM157.133 92.3468C153.601 90.5809 150.662 93.5443 149.514 95.3214C149.841 94.4097 149.859 93.1891 150.164 92.2541H146.633C145.681 98.8932 144.533 105.336 143.195 111.589H147.283C147.309 109.026 147.812 107.131 148.212 104.617C149.067 99.2509 150.321 93.3664 156.575 95.1359C156.783 94.2281 156.869 93.1989 157.133 92.3468V92.3468ZM112.253 107.034C111.885 106.082 111.79 104.51 111.882 103.316C112.088 100.629 113.066 97.3595 114.576 95.8794C116.66 93.8363 120.773 94.1742 124.054 95.3214C124.156 94.2152 124.378 93.2287 124.519 92.1613C119.138 91.2823 114.032 91.8291 111.324 94.6707C108.674 97.453 106.937 103.847 108.165 107.87C109.602 112.578 116.048 112.834 121.267 111.031C121.497 110.084 121.62 109.03 121.824 108.056C118.972 109.538 113.521 110.309 112.253 107.034V107.034ZM110.024 92.2541C106.481 90.8228 103.696 93.2416 102.405 95.5076C102.697 94.4996 102.818 93.3189 103.055 92.2541H99.5238C98.6606 98.9511 97.3884 105.239 96.1788 111.589H100.175C100.735 107.819 100.976 102.738 102.218 99.1326C103.211 96.2515 105.81 93.7967 109.559 95.1359C109.611 94.0728 109.916 93.2614 110.024 92.2541V92.2541ZM45.6316 84.4461C45.0609 88.1509 44.418 91.7838 43.7732 95.4145C39.634 95.458 35.4077 95.6191 31.4154 95.3211C32.1694 91.7694 32.7103 88.0035 33.4592 84.4458H28.9993C27.4026 93.508 25.9508 102.714 24.1683 111.589H28.7208C29.4353 107.036 30.103 102.437 31.0435 98.1109C34.9258 98.0149 39.5786 97.8484 43.3089 98.2036C42.5399 102.702 41.6102 107.039 40.8932 111.589H45.4461C46.9088 102.394 48.4505 93.2772 50.2779 84.4465H45.6319L45.6316 84.4461ZM56.9673 88.536C57.7641 87.9874 58.7897 85.4869 57.6178 84.4461C57.2466 84.1165 56.6256 84.0208 55.7598 84.1675C54.9559 84.3031 54.4938 84.5759 54.18 85.0038C53.6748 85.6915 53.2122 87.7655 53.9939 88.536C54.755 89.2863 56.4606 88.8847 56.9673 88.536V88.536Z" fill="white"/>
</svg>
