<svg width="201" height="201" viewBox="0 0 201 201" fill="none" xmlns="http://www.w3.org/2000/svg">
<path d="M56.4516 154.458V147.244C56.4516 144.478 54.7705 142.675 51.889 142.675C50.4485 142.675 48.8877 143.156 47.8071 144.719C46.9671 143.396 45.7667 142.675 43.9659 142.675C42.7649 142.675 41.5651 143.035 40.6042 144.358V142.915H38.0831V154.458H40.6042V148.085C40.6042 146.042 41.6848 145.079 43.3659 145.079C45.0459 145.079 45.887 146.162 45.887 148.085V154.458H48.4081V148.085C48.4081 146.042 49.608 145.079 51.1688 145.079C52.8498 145.079 53.6898 146.162 53.6898 148.085V154.458H56.4516V154.458ZM93.7873 142.915H89.7059V139.428H87.1848V142.915H84.9038V145.199H87.1843V150.49C87.1843 153.136 88.2649 154.699 91.1464 154.699C92.227 154.699 93.4269 154.338 94.268 153.857L93.5472 151.693C92.827 152.174 91.987 152.294 91.3865 152.294C90.1861 152.294 89.7059 151.573 89.7059 150.37V145.199H93.7873V142.915V142.915ZM115.157 142.674C113.716 142.674 112.756 143.396 112.156 144.358V142.915H109.635V154.458H112.156V147.965C112.156 146.042 112.996 144.959 114.556 144.959C115.037 144.959 115.637 145.08 116.117 145.2L116.838 142.795C116.357 142.675 115.637 142.675 115.157 142.675V142.674ZM82.8629 143.877C81.662 143.035 79.9814 142.675 78.1806 142.675C75.2996 142.675 73.379 144.117 73.379 146.402C73.379 148.326 74.8195 149.408 77.3406 149.769L78.5409 149.89C79.8616 150.129 80.5819 150.49 80.5819 151.092C80.5819 151.933 79.6216 152.535 77.9405 152.535C76.2599 152.535 74.9392 151.933 74.0987 151.332L72.8983 153.256C74.219 154.218 76.0199 154.699 77.8202 154.699C81.1818 154.699 83.103 153.136 83.103 150.971C83.103 148.927 81.5422 147.845 79.1409 147.484L77.9405 147.364C76.8599 147.243 76.0198 147.004 76.0198 146.282C76.0198 145.44 76.8598 144.959 78.1806 144.959C79.6216 144.959 81.062 145.56 81.7823 145.921L82.8629 143.877V143.877ZM149.852 142.675C148.411 142.675 147.451 143.396 146.851 144.358V142.915H144.329V154.458H146.851V147.965C146.851 146.042 147.691 144.959 149.251 144.959C149.732 144.959 150.333 145.08 150.813 145.2L151.533 142.795C151.053 142.675 150.333 142.675 149.852 142.675V142.675ZM117.678 148.687C117.678 152.174 120.079 154.699 123.801 154.699C125.481 154.699 126.682 154.338 127.882 153.376L126.682 151.332C125.721 152.054 124.761 152.414 123.681 152.414C121.64 152.414 120.199 150.971 120.199 148.687C120.199 146.523 121.64 145.079 123.681 144.959C124.761 144.959 125.721 145.32 126.682 146.042L127.882 143.998C126.682 143.035 125.481 142.675 123.801 142.675C120.079 142.675 117.678 145.2 117.678 148.687ZM140.968 148.687V142.915H138.447V144.358C137.607 143.276 136.406 142.675 134.846 142.675C131.604 142.675 129.083 145.2 129.083 148.687C129.083 152.174 131.604 154.699 134.846 154.699C136.526 154.699 137.727 154.098 138.447 153.015V154.458H140.968V148.687V148.687ZM131.724 148.687C131.724 146.643 133.045 144.959 135.205 144.959C137.246 144.959 138.687 146.523 138.687 148.687C138.687 150.731 137.246 152.414 135.205 152.414C133.045 152.294 131.724 150.731 131.724 148.687V148.687ZM101.591 142.675C98.2295 142.675 95.8282 145.079 95.8282 148.687C95.8282 152.294 98.229 154.699 101.711 154.699C103.391 154.699 105.073 154.218 106.393 153.136L105.192 151.332C104.232 152.054 103.032 152.535 101.831 152.535C100.27 152.535 98.7097 151.813 98.3493 149.768H106.873V148.807C106.994 145.079 104.833 142.675 101.591 142.675H101.591ZM101.591 144.839C103.151 144.839 104.233 145.801 104.472 147.605H98.4696C98.7097 146.042 99.7903 144.839 101.591 144.839ZM164.138 148.687V138.346H161.617V144.358C160.777 143.276 159.576 142.675 158.016 142.675C154.774 142.675 152.253 145.2 152.253 148.687C152.253 152.174 154.774 154.699 158.016 154.699C159.697 154.699 160.897 154.098 161.617 153.015V154.458H164.138V148.687V148.687ZM154.895 148.687C154.895 146.643 156.215 144.959 158.376 144.959C160.417 144.959 161.857 146.523 161.857 148.687C161.857 150.731 160.417 152.414 158.376 152.414C156.215 152.294 154.895 150.731 154.895 148.687V148.687ZM70.6173 148.687V142.915H68.0962V144.358C67.2556 143.276 66.0552 142.675 64.4945 142.675C61.2531 142.675 58.732 145.2 58.732 148.687C58.732 152.174 61.2531 154.699 64.4945 154.699C66.1756 154.699 67.3759 154.098 68.0962 153.015V154.458H70.6173V148.687V148.687ZM61.2531 148.687C61.2531 146.643 62.5738 144.959 64.7345 144.959C66.7755 144.959 68.2165 146.523 68.2165 148.687C68.2165 150.731 66.7755 152.414 64.7345 152.414C62.5738 152.294 61.2531 150.731 61.2531 148.687V148.687Z" fill="black"/>
<path d="M82.0223 55.2584H119.839V123.316H82.0223V55.2584Z" fill="#FF5F00"/>
<path d="M84.4237 89.2872C84.4237 75.4596 90.9063 63.1946 100.87 55.2584C93.5477 49.4869 84.3039 46 74.2195 46C50.3282 46 31 65.3587 31 89.2872C31 113.215 50.3282 132.574 74.219 132.574C84.3034 132.574 93.5472 129.088 100.87 123.316C90.9063 115.5 84.4237 103.115 84.4237 89.2872V89.2872Z" fill="#EB001B"/>
<path d="M170.861 89.2872C170.861 113.215 151.533 132.574 127.642 132.574C117.558 132.574 108.314 129.088 100.991 123.316C111.075 115.38 117.438 103.115 117.438 89.2872C117.438 75.4596 110.955 63.1946 100.991 55.2584C108.313 49.4869 117.558 46 127.642 46C151.533 46 170.862 65.4792 170.862 89.2872H170.861Z" fill="#F79E1B"/>
</svg>
