<svg width="201" height="201" viewBox="0 0 201 201" fill="none" xmlns="http://www.w3.org/2000/svg">
<path d="M83.1546 70.794L64.825 114.28H52.867L43.8469 79.5741C43.3 77.4416 42.8248 76.6568 41.1606 75.7551C38.4405 74.2856 33.9484 72.9113 30 72.0563L30.2663 70.794H49.5185C51.9685 70.794 54.1746 72.4164 54.7357 75.2254L59.5017 100.391L71.2683 70.794H83.1546ZM99.3202 70.794L89.967 114.28H78.6533L88.0076 70.794H99.3208H99.3202ZM130.009 100.082C130.056 88.6071 114.054 87.9702 114.159 82.8432C114.197 81.2845 115.69 79.6252 118.958 79.201C120.577 78.9927 125.049 78.8268 130.115 81.148L132.097 71.9209C129.375 70.942 125.872 70 121.515 70C110.332 70 102.465 75.9074 102.402 84.3731C102.329 90.6351 108.021 94.1251 112.302 96.2108C116.711 98.3405 118.19 99.7094 118.17 101.613C118.138 104.531 114.648 105.822 111.403 105.87C105.714 105.96 102.416 104.341 99.7845 103.122L97.731 112.655C100.378 113.861 105.256 114.909 110.309 114.963C122.198 114.963 129.974 109.123 130.009 100.083V100.082ZM159.54 114.28H170L160.862 70.794H151.211C149.034 70.794 147.205 72.0504 146.394 73.9816L129.419 114.28H141.298L143.655 107.784H158.169L159.54 114.28H159.54ZM146.913 98.873L152.869 82.5425L156.291 98.873H146.912H146.913ZM113.799 126.25H109.202V130.504H114.344V131.784H107.654V119.981H114.08V121.26H109.202V124.989H113.799V126.251L113.799 126.25ZM116.719 119.35H118.268V131.783H116.719V119.35ZM122.176 127.825C122.211 129.91 123.532 130.768 125.098 130.768C126.208 130.768 126.895 130.575 127.459 130.33L127.74 131.434C127.194 131.679 126.244 131.976 124.887 131.976C122.264 131.976 120.698 130.243 120.698 127.686C120.698 125.129 122.211 123.132 124.694 123.132C127.494 123.132 128.216 125.55 128.216 127.108C128.216 127.423 128.198 127.65 128.162 127.826H122.176V127.825ZM126.719 126.722C126.737 125.76 126.314 124.236 124.571 124.236C122.986 124.236 122.316 125.654 122.193 126.722H126.719ZM136.647 131.486C136.242 131.679 135.343 131.977 134.199 131.977C131.629 131.977 129.956 130.243 129.956 127.651C129.956 125.041 131.751 123.133 134.534 123.133C135.449 123.133 136.259 123.36 136.682 123.588L136.331 124.761C135.959 124.569 135.378 124.358 134.534 124.358C132.578 124.358 131.523 125.811 131.523 127.564C131.523 129.524 132.791 130.733 134.481 130.733C135.361 130.733 135.942 130.523 136.382 130.33L136.647 131.486V131.486ZM140.993 121.276V123.307H143.211V124.48H140.993V129.051C140.993 130.103 141.293 130.697 142.155 130.697C142.577 130.697 142.825 130.663 143.054 130.592L143.124 131.767C142.825 131.871 142.349 131.976 141.751 131.976C141.028 131.976 140.447 131.731 140.078 131.329C139.655 130.855 139.479 130.103 139.479 129.104V124.48H138.158V123.307H139.479V121.732L140.994 121.277L140.993 121.276ZM145.375 125.952C145.375 124.954 145.357 124.096 145.305 123.307H146.661L146.732 124.988H146.784C147.172 123.851 148.122 123.132 149.16 123.132C149.319 123.132 149.443 123.15 149.584 123.167V124.621C149.425 124.586 149.267 124.586 149.055 124.586C147.964 124.586 147.188 125.391 146.978 126.548C146.941 126.785 146.924 127.025 146.925 127.266V131.784H145.375V125.952V125.952ZM159.108 127.475C159.108 130.61 156.906 131.976 154.864 131.976C152.574 131.976 150.779 130.294 150.779 127.616C150.779 124.796 152.663 123.133 155.005 123.133C157.452 123.133 159.108 124.9 159.108 127.476V127.475ZM152.363 127.563C152.363 129.419 153.42 130.821 154.934 130.821C156.414 130.821 157.523 129.436 157.523 127.528C157.523 126.092 156.801 124.288 154.969 124.288C153.156 124.288 152.363 125.97 152.363 127.563ZM161.482 125.601C161.482 124.709 161.464 124.008 161.411 123.308H162.785L162.873 124.709H162.908C163.331 123.92 164.317 123.133 165.726 123.133C166.905 123.133 168.737 123.833 168.737 126.739V131.784H167.187V126.898C167.187 125.532 166.677 124.393 165.215 124.393C164.211 124.393 163.418 125.111 163.138 125.969C163.067 126.162 163.032 126.424 163.032 126.688V131.784H161.482V125.601Z" fill="#1A1F71"/>
</svg>
