<svg width="81" height="49" viewBox="0 0 81 49" fill="none" xmlns="http://www.w3.org/2000/svg">
<g clip-path="url(#clip0_253_679)">
<path d="M0.549992 0.0174713H80.4323V48.7136C79.8192 48.8041 79.1957 48.7658 78.5791 48.7728H1.62638C1.26758 48.7728 0.90182 48.8007 0.546509 48.7136C0.553476 32.4815 0.549992 16.2495 0.549992 0.0174713ZM1.23623 0.752599V48.0411H79.753V0.752599C53.5784 0.752599 27.4038 0.752599 1.23623 0.752599Z" fill="#1D1D1B" stroke="#010101" stroke-width="0.0280423" stroke-miterlimit="10"/>
<path d="M5.79254 2.2855C6.0329 2.29246 6.2628 2.21582 6.50316 2.20885C29.372 2.21582 52.2407 2.20885 75.113 2.20885C75.1827 3.84633 76.6214 5.34446 78.2864 5.33401C78.2864 18.0681 78.2864 30.7987 78.2864 43.5327C77.1543 43.5955 76.0814 44.3027 75.5589 45.3096C75.3255 45.7172 75.2628 46.1911 75.0886 46.6231C53.4042 46.6231 31.7163 46.6231 10.0284 46.6231C8.61064 46.6161 7.19985 46.6544 5.78557 46.6126C5.69849 45.0239 4.30511 43.6129 2.70969 43.5432C2.69924 30.7917 2.70969 18.0402 2.70969 5.28872C3.54223 5.37233 4.31904 4.91941 4.87988 4.34106C5.41981 3.80104 5.75074 3.05546 5.79254 2.28898V2.2855ZM3.18692 5.78693C3.18692 18.2249 3.18692 30.6593 3.18692 43.0972C4.66739 43.3551 5.88311 44.5884 6.21055 46.0412C29.0375 46.0412 51.8715 46.0412 74.6985 46.0412C74.8448 45.5186 75.0503 45.003 75.3917 44.5745C75.9421 43.7941 76.8164 43.3063 77.7291 43.0798C77.7117 42.0311 77.8232 40.9929 77.7988 39.9477V8.71002C77.7012 7.73798 77.7709 6.76245 77.7465 5.78345C76.2556 5.49776 75.0259 4.27138 74.7089 2.79416C69.7485 2.81158 64.7881 2.79416 59.8312 2.80113H6.20707C5.90401 4.27487 4.66739 5.50124 3.19041 5.78693H3.18692Z" fill="#1D1D1B" stroke="#010101" stroke-width="0.0280423" stroke-miterlimit="10"/>
<path d="M2.71317 2.28201C3.48301 2.27504 4.24937 2.28201 5.01573 2.28201C5.05056 3.52232 3.94631 4.62675 2.70621 4.60237C2.70621 3.82892 2.70621 3.05895 2.71317 2.2855V2.28201Z" fill="#1D1D1B" stroke="#010101" stroke-width="0.0280423" stroke-miterlimit="10"/>
<path d="M75.9073 2.27506C76.6771 2.27506 77.4435 2.27506 78.2133 2.27506C78.2203 3.05548 78.2203 3.83241 78.2133 4.61283C77.6176 4.58845 77.022 4.37244 76.597 3.9439C76.1546 3.5084 75.9038 2.89173 75.9073 2.27158V2.27506Z" fill="#1D1D1B" stroke="#010101" stroke-width="0.0280423" stroke-miterlimit="10"/>
<path d="M2.67485 44.24C3.35761 44.2644 4.03688 44.5536 4.47927 45.0832C4.84852 45.5013 5.01921 46.0552 5.06798 46.6022C4.27375 46.6754 3.47256 46.5848 2.67485 46.6022C2.67485 45.8148 2.6853 45.0274 2.67485 44.2366V44.24Z" fill="#1D1D1B" stroke="#010101" stroke-width="0.0280423" stroke-miterlimit="10"/>
<path d="M76.7224 44.8323C77.1334 44.4735 77.6768 44.3132 78.2168 44.2784C78.2272 45.0588 78.2377 45.8357 78.2272 46.6196C77.4469 46.6126 76.6666 46.637 75.8864 46.6196C75.9038 45.9367 76.1929 45.2643 76.7259 44.8323H76.7224Z" fill="#1D1D1B" stroke="#010101" stroke-width="0.0280423" stroke-miterlimit="10"/>
</g>
<defs>
<clipPath id="clip0_253_679">
<rect width="79.9206" height="48.7936" fill="white" transform="translate(0.529053)"/>
</clipPath>
</defs>
</svg>
