<svg width="79" height="50" viewBox="0 0 79 50" fill="none" xmlns="http://www.w3.org/2000/svg">
<g clip-path="url(#clip0_253_652)">
<path d="M0.000705828 0C26.1728 0.000703712 52.3457 0 78.5185 0C78.5192 16.3578 78.5185 32.7156 78.5185 49.0734C52.3457 49.0741 26.1728 49.0741 0 49.0734C0.000705828 32.7156 0 16.3578 0.000705828 0ZM0.479258 0.43419C0.471493 0.558044 0.463024 0.681897 0.460906 0.80575C0.456671 16.6407 0.465141 32.4763 0.455259 48.3112C0.431261 48.4893 0.551252 48.6849 0.751707 48.6596C19.0355 48.6525 37.3193 48.6582 55.6038 48.6568C63.0813 48.6603 70.5589 48.6469 78.0357 48.6673V0.434894C52.1833 0.43419 26.3316 0.436301 0.479258 0.43419Z" fill="black"/>
<path d="M5.66286 1.33001C5.83367 1.04501 6.23952 1.00208 6.52327 1.12523C6.73148 1.22727 6.77383 1.47709 6.78725 1.68398C6.89312 1.65231 7.00323 1.63965 7.11404 1.64176C21.5828 1.66568 36.0523 1.62768 50.5218 1.6488C57.4911 1.64387 64.4612 1.65794 71.4306 1.65443C71.4298 1.78109 71.4298 1.90847 71.4306 2.03584H29.7683C22.1228 2.03162 14.4765 2.04358 6.8303 2.03021C6.82183 1.98447 6.80489 1.89439 6.79642 1.84865C6.77878 2.08439 6.60091 2.24977 6.3948 2.33843C5.78709 2.62203 5.13137 2.78248 4.5046 3.01611C4.34437 3.06959 4.26532 3.23426 4.18415 3.36937C4.09945 3.51223 4.0691 3.72404 4.21238 3.84297C4.39166 3.99145 4.64011 3.97386 4.85892 3.98653C4.86386 4.02312 4.8681 4.05901 4.87233 4.0956C4.614 4.1146 4.35708 4.14205 4.09945 4.16527C4.08392 4.43409 4.07616 4.70431 4.04934 4.97243C3.9364 4.92176 3.97099 4.7775 3.93852 4.68109C3.91241 4.45309 3.78253 4.16316 3.51502 4.16105C3.28916 4.18427 3.13105 4.36864 3.00683 4.53964C2.77108 4.87532 2.64121 5.2715 2.57063 5.67192C2.49651 6.03222 2.44005 6.43967 2.15136 6.70074C1.88244 6.95549 1.42365 6.91889 1.16179 6.674C1.00369 6.47767 1.07074 6.199 1.13497 5.97944C1.20767 5.77114 1.42436 5.68107 1.6234 5.63955C1.56764 5.56636 1.51188 5.49247 1.45542 5.41999C1.53659 5.3095 1.60576 5.16032 1.74834 5.12161C1.90503 5.18565 2.0109 5.32921 2.14007 5.43336C2.04408 5.5164 1.94526 5.59662 1.84715 5.67755C1.99396 5.81688 2.0836 6.02588 2.04408 6.22855C2.00737 6.40941 1.82457 6.49315 1.68481 6.58393C1.85209 6.60504 2.06808 6.60082 2.15348 6.427C2.40687 5.90203 2.36029 5.29262 2.59674 4.76202C2.72661 4.46927 2.89248 4.17442 3.15435 3.98019C3.34421 3.83875 3.59337 3.83593 3.81782 3.87393C3.68583 3.55234 3.87429 3.2413 4.06839 2.9957C3.81641 3.08226 3.56302 3.166 3.30892 3.24622C3.37456 3.34263 3.49173 3.42145 3.50373 3.546C3.47056 3.65437 3.37598 3.72545 3.29904 3.80286C3.22422 3.73389 3.10282 3.67619 3.10423 3.55867C3.13176 3.42919 3.23763 3.29619 3.11411 3.18218C3.31951 3.08296 3.56514 3.0337 3.71689 2.85003C3.88841 2.64807 4.05075 2.41584 4.08251 2.14562C4.04157 1.88454 3.83265 1.67554 3.6209 1.53268C3.42185 1.42994 3.22563 1.58687 3.09929 1.72972C3.2941 1.83106 3.56655 1.8578 3.66254 2.08439C3.74512 2.33703 3.63713 2.68396 3.3668 2.77403C3.13458 2.84792 2.90448 2.72759 2.67932 2.68184C2.59109 2.78107 2.47322 2.82962 2.33982 2.81485C2.35958 2.68184 2.37935 2.54884 2.39982 2.41584C2.45134 2.43343 2.5551 2.46792 2.60662 2.48551C2.58121 2.33351 2.5558 2.18151 2.5311 2.0295C2.32359 2.14139 2.08643 2.2568 2.00102 2.49536C1.88315 2.79303 1.31707 2.80288 1.27402 2.44188C1.24226 2.10973 1.30649 1.77617 1.31637 1.44261C1.6474 1.41939 1.97773 1.3279 2.31018 1.36801C2.57768 1.41798 2.60521 1.73043 2.62074 1.94858C2.81978 1.70861 3.00824 1.43135 3.3061 1.30609C3.81853 1.10623 4.45307 1.52916 4.47072 2.07665C4.48695 2.35954 4.34155 2.61429 4.20885 2.85285C4.82857 2.67199 5.44476 2.47847 6.06518 2.30184C6.17317 2.26806 6.28611 2.23991 6.38281 2.17939C6.50562 2.08932 6.48797 1.91902 6.51056 1.78602C6.36092 1.88243 6.25787 2.08228 6.05742 2.07032C5.69251 2.09495 5.47088 1.61502 5.66286 1.33001ZM1.59446 1.73887C1.58105 1.89439 1.56835 2.04921 1.55635 2.20473C1.75751 2.00558 1.95797 1.80572 2.15772 1.60446C1.96997 1.6502 1.78222 1.69594 1.59446 1.73887Z" fill="black"/>
<path d="M71.7715 2.00205C71.6162 1.64105 71.7821 1.03586 72.2571 1.0619C72.6432 1.00349 73.0886 1.38771 72.8973 1.7825C72.7307 2.17798 72.13 2.07243 71.9825 1.71494C71.9903 1.91479 72.0277 2.16743 72.2486 2.24343C72.8994 2.44187 73.5643 2.59951 74.2143 2.80288C74.5581 3.04144 74.6421 3.47633 74.8087 3.83382C75.134 3.7733 75.4213 3.98863 75.6267 4.21452C75.9832 4.71768 76.0827 5.34187 76.1893 5.9344C76.2281 6.22151 76.3389 6.69089 76.7349 6.59518C76.6403 6.43051 76.4892 6.28344 76.4737 6.0864C76.5415 5.8028 76.9156 5.53328 77.1852 5.73736C77.3976 5.92032 77.4965 6.2384 77.4231 6.50792C77.2854 6.85415 76.8167 6.97026 76.5034 6.79574C76.2563 6.67329 76.094 6.42348 76.0375 6.15888C75.9154 5.6318 75.8526 5.07516 75.5815 4.59664C75.427 4.3229 75.0938 4.21664 74.7953 4.23212C74.6555 4.46716 74.6089 4.74231 74.4706 4.97805C74.443 4.70642 74.436 4.43338 74.4212 4.16104C74.1685 4.14697 73.9158 4.13149 73.6638 4.11741C73.6575 4.09067 73.6433 4.0386 73.6363 4.01186C73.8868 3.97456 74.2179 4.00271 74.371 3.75641C74.4995 3.5087 74.2652 3.28351 74.1014 3.12448C73.7591 2.77121 73.2601 2.66847 72.7949 2.58825C72.4025 2.52773 71.931 2.41373 71.7715 2.00205Z" fill="black"/>
<path d="M74.0802 1.78181C74.1911 1.29484 74.7755 1.01476 75.2286 1.22939C75.6916 1.38914 75.9239 1.95211 75.7439 2.39826C75.5985 2.61711 75.283 2.66145 75.0437 2.60937C74.8355 2.44893 74.712 2.13718 74.8249 1.88736C74.9244 1.70088 75.1587 1.68399 75.3416 1.63543C75.2272 1.53551 75.1129 1.39265 74.9456 1.40251C74.539 1.44543 74.2108 1.97181 74.4642 2.33141C74.6872 2.62485 74.9512 2.91901 75.3084 3.04638C74.971 3.21808 74.6315 2.95419 74.3365 2.81134C74.1501 2.50522 73.9602 2.14985 74.0802 1.78181Z" fill="black"/>
<path d="M76.101 1.41796C76.3841 1.32296 76.6974 1.37574 76.9939 1.35392C77.1224 1.32437 77.2445 1.45314 77.2346 1.577C77.2169 1.84019 77.2593 2.10337 77.2466 2.36586C77.2226 2.61145 76.9396 2.76698 76.7137 2.70083C76.521 2.63468 76.4864 2.41301 76.3714 2.27156C76.238 2.16389 76.0721 2.10197 75.95 1.98093C75.8159 1.80289 75.9154 1.5207 76.101 1.41796ZM76.3488 1.60233C76.5471 1.76489 76.7095 2.01682 76.9466 2.10267C76.9558 1.98093 76.9297 1.86059 76.9134 1.74096C76.7243 1.69733 76.5365 1.64878 76.3488 1.60233Z" fill="black"/>
<path d="M4.75587 1.94436C4.87868 1.8381 4.98456 1.7044 5.13631 1.63684C5.27254 1.67062 5.34524 1.80573 5.44193 1.8951C5.34947 2.01333 5.293 2.18996 5.13702 2.2364C4.99232 2.16392 4.87939 2.0457 4.75587 1.94436Z" fill="black"/>
<path d="M72.9784 1.90914C73.1111 1.81836 73.2219 1.67551 73.385 1.63962C73.5135 1.69029 73.5798 1.82047 73.6673 1.9204C73.5749 2.02666 73.5043 2.15966 73.3808 2.23285C73.2085 2.19344 73.1097 2.0147 72.9784 1.90914Z" fill="black"/>
<path d="M1.07215 3.61707C1.1025 3.06325 1.6601 2.54039 2.22971 2.74728C2.3504 2.87114 2.42099 3.04003 2.47181 3.20399C2.55227 3.52277 2.26853 3.831 1.9622 3.8697C1.70598 3.80707 1.58105 3.53966 1.42012 3.35459C1.35166 3.47633 1.2479 3.622 1.33542 3.76133C1.44271 4.04352 1.69751 4.34541 2.03631 4.25956C2.47816 4.16667 2.63838 3.70011 2.79719 3.33629C2.93412 3.907 2.56568 4.5713 1.95373 4.64097C1.39048 4.74442 0.992389 4.12093 1.07215 3.61707Z" fill="black"/>
<path d="M76.0064 3.61919C75.7841 3.26593 76.0467 2.67974 76.4949 2.70789C77.1605 2.70578 77.6327 3.48478 77.3842 4.08435C77.2663 4.47772 76.8287 4.71839 76.4313 4.63676C76.13 4.59102 75.9175 4.35809 75.6747 4.19905C75.6189 3.88872 75.5491 3.58049 75.5102 3.26734C75.7135 3.57627 75.8688 3.93446 76.1645 4.1709C76.5295 4.42987 77.0786 4.18639 77.1965 3.77331C77.2663 3.59034 77.1082 3.43553 77.0207 3.29408C76.9155 3.4883 76.8661 3.74445 76.6487 3.8486C76.4165 3.94783 76.1307 3.83101 76.0064 3.61919Z" fill="black"/>
<path d="M74.8214 3.57838C74.9272 3.5059 75.0303 3.42568 75.1538 3.38205C75.2731 3.38909 75.3303 3.51857 75.4185 3.58331C75.3345 3.65439 75.2688 3.76205 75.1538 3.78246C75.0267 3.74376 74.9265 3.65157 74.8214 3.57838Z" fill="black"/>
<path d="M76.4688 5.24756C76.54 5.09274 76.6572 4.96607 76.7673 4.838C76.8725 5.009 77.2056 5.22926 76.9678 5.42771C76.8217 5.62475 76.4949 5.45093 76.4688 5.24756Z" fill="black"/>
<path d="M1.55847 7.84424C1.56694 7.62679 1.47518 7.3242 1.74904 7.23131C1.84221 7.29183 1.96361 7.35938 1.94456 7.49027C1.93962 18.9875 1.94244 30.4848 1.94315 41.982C1.76739 42.0475 1.52812 41.9933 1.56129 41.7639C1.55635 30.4573 1.56059 19.1508 1.55847 7.84424Z" fill="black"/>
<path d="M76.7864 7.48678C76.7567 7.31929 76.9057 7.22007 77.0602 7.25807C77.0595 18.8362 77.0581 30.4137 77.0609 41.9919C76.9367 42.0193 76.7447 42.0158 76.7694 41.8378C76.7596 34.3081 76.768 26.7783 76.7652 19.2486C76.7723 15.3282 76.7469 11.4072 76.7864 7.48678Z" fill="black"/>
<path d="M76.3064 42.355C76.5252 41.9497 77.1802 42.0587 77.3983 42.4092C77.5444 42.7702 77.3701 43.336 76.9282 43.3761C76.6812 43.4268 76.4363 43.2065 76.4568 42.9574C76.4843 42.7343 76.6396 42.5577 76.7334 42.3606C76.5739 42.3754 76.4024 42.4338 76.3346 42.5907C76.2351 42.8209 76.2034 43.0728 76.1455 43.3149C76.0495 43.7666 75.8589 44.1896 75.6966 44.6202C75.5653 45.0214 75.0917 45.2684 74.6858 45.1354C74.8898 45.5907 74.4903 45.9439 74.2214 46.2529C73.5777 46.4372 72.9311 46.6146 72.2874 46.7968C72.0587 46.8616 72.003 47.1149 71.9825 47.319C72.1456 47.1677 72.2959 46.9446 72.5429 46.9432C72.9678 47.0375 73.0532 47.6715 72.6982 47.9066C72.298 48.2035 71.7376 47.7947 71.7249 47.3457C71.607 47.4133 71.4743 47.4365 71.3402 47.4267C62.7305 47.3964 54.1201 47.4105 45.5097 47.4224C38.1684 47.414 30.8271 47.4105 23.4857 47.4013C18.3805 47.4077 13.2752 47.4154 8.17067 47.4203C7.84316 47.4168 7.51354 47.4456 7.18815 47.4105C7.02581 47.357 7.10063 47.1522 7.10698 47.0319H51.0152C57.9076 47.0361 64.8007 47.0234 71.6931 47.0382C71.7009 47.0706 71.7178 47.1353 71.7256 47.1677C71.7496 46.9538 71.9126 46.8032 72.1067 46.7335C72.5761 46.5449 73.0554 46.3697 73.5572 46.2909C73.9144 46.2395 74.1409 45.9362 74.3435 45.6702C74.4571 45.5231 74.4014 45.2874 74.2299 45.2156C74.0294 45.1185 73.8092 45.0727 73.6017 44.9967C73.8318 44.8264 74.1558 44.92 74.424 44.8567C74.4324 44.6005 74.4459 44.3451 74.4593 44.0897L74.5348 44.0875C74.5475 44.3388 74.5665 44.6463 74.8023 44.7976C74.9759 44.9038 75.1905 44.8152 75.3338 44.6984C75.6302 44.4668 75.7594 44.0974 75.8392 43.7441C75.9443 43.267 76.0608 42.7822 76.3064 42.355Z" fill="black"/>
<path d="M1.09756 42.6681C1.13497 42.3867 1.39895 42.1995 1.67211 42.1931C1.9615 42.1784 2.22548 42.3705 2.35676 42.6189C2.65744 43.2494 2.54169 44.034 2.99624 44.5998C3.12894 44.806 3.39574 44.9735 3.64066 44.8461C3.85382 44.6913 3.91382 44.4141 4.05216 44.2015C4.07122 44.4373 4.08322 44.673 4.09945 44.9095C4.35637 44.9383 4.62177 44.9214 4.87375 44.9798C4.87516 45.0031 4.87728 45.0502 4.87798 45.0734C4.64718 45.103 4.37614 45.0833 4.19262 45.2522C4.06981 45.357 4.06134 45.5555 4.16721 45.6751C4.44813 46.0241 4.83351 46.3035 5.27748 46.3985C5.67133 46.5083 6.10683 46.502 6.4661 46.7173C6.84442 46.9432 6.90089 47.5097 6.65102 47.8482C6.33411 48.1712 5.6678 47.9896 5.57322 47.5414C5.55558 47.2571 5.81532 46.9474 6.12024 47.0326C6.32281 47.0234 6.42586 47.2071 6.54374 47.3373C6.52962 47.1367 6.48798 46.877 6.25505 46.8215C5.6064 46.6413 4.95351 46.4731 4.30556 46.2909C4.1178 46.0579 3.83547 45.87 3.78324 45.5562C3.73666 45.521 3.69078 45.4851 3.64561 45.4499C3.63008 45.5885 3.47479 45.6392 3.36327 45.6828C3.24752 45.692 3.1854 45.5681 3.09788 45.5147C3.18117 45.4422 3.23128 45.2831 3.36257 45.2923C3.50091 45.3605 3.63855 45.4323 3.78324 45.4893C3.79242 45.414 3.81147 45.2648 3.82136 45.1895C3.47409 45.2902 3.09012 45.1431 2.88402 44.8525C2.55439 44.4098 2.42734 43.856 2.33982 43.3219C2.29183 43.0622 2.28971 42.7448 2.0589 42.5689C1.9502 42.4739 1.80198 42.476 1.66646 42.4845C1.8168 42.5971 2.03843 42.6794 2.06243 42.8926C2.07796 43.1727 1.85139 43.5365 1.52741 43.4457C1.16038 43.4063 0.974749 42.994 1.09756 42.6681Z" fill="black"/>
<path d="M1.70952 43.552C1.86339 43.5394 1.94526 43.7132 2.02714 43.8173C1.98691 43.9609 1.84574 44.0517 1.74904 44.1593C1.60435 44.0707 1.47942 43.9552 1.35943 43.8377C1.47306 43.7385 1.57823 43.628 1.70952 43.552Z" fill="black"/>
<path d="M76.274 43.7526C76.413 43.6745 76.5986 43.4338 76.7504 43.621C76.9501 43.7737 76.8478 44.0587 76.636 44.141C76.4575 44.103 76.25 43.9574 76.274 43.7526Z" fill="black"/>
<path d="M1.36295 44.6203C1.83798 44.2241 2.60592 44.4598 2.88401 44.9764C2.92989 45.2311 2.97154 45.4866 3.01036 45.7427C2.80355 45.4549 2.68497 45.0819 2.36946 44.8884C2.02714 44.6745 1.52741 44.8328 1.37989 45.2114C1.24014 45.4063 1.35025 45.6379 1.43848 45.8293C1.5627 45.8574 1.54012 45.6773 1.58811 45.6041C1.66364 45.2804 2.09207 45.0671 2.36735 45.2958C2.65462 45.4908 2.61933 45.8905 2.45628 46.1558C2.60239 46.1776 2.70191 46.2768 2.7252 46.4232C2.60733 46.4352 2.48945 46.4464 2.37158 46.4584L2.35041 46.3592C2.0349 46.3585 1.67422 46.3972 1.42436 46.1614C1.02557 45.7723 0.897106 45.0066 1.36295 44.6203Z" fill="black"/>
<path d="M75.6931 44.8103C76.0319 44.6393 76.3678 44.3486 76.7765 44.4345C77.3553 44.5344 77.6044 45.2817 77.3468 45.768C77.2 46.1501 76.7751 46.4478 76.3594 46.338C76.0135 46.1938 75.8293 45.6864 76.101 45.3901C76.2182 45.1776 76.4878 45.2043 76.6728 45.3029C76.8753 45.3782 76.924 45.6062 77.0285 45.7708C77.1689 45.737 77.1746 45.5316 77.2318 45.419C77.1739 45.2121 77.0426 45.0256 76.8796 44.887C76.66 44.7089 76.334 44.7448 76.1173 44.9067C75.83 45.0981 75.734 45.4506 75.5095 45.6983C75.5519 45.3993 75.6232 45.1044 75.6931 44.8103Z" fill="black"/>
<path d="M74.8143 45.4753C74.8997 45.4063 74.9802 45.3247 75.0853 45.2832C75.2194 45.3254 75.3098 45.4401 75.4135 45.5295C75.3034 45.5844 75.1983 45.6484 75.0832 45.6885C74.9639 45.6667 74.9018 45.5442 74.8143 45.4753Z" fill="black"/>
<path d="M74.3216 46.1452C74.5983 46.0227 74.8722 45.8933 75.1488 45.7701C75.2935 46.0073 74.9131 45.9911 74.81 46.1389C74.6159 46.3795 74.4338 46.6554 74.3943 46.9685C74.4289 47.2205 74.6399 47.4154 74.8319 47.5653C74.9851 47.6652 75.1368 47.5273 75.2604 47.4471C75.11 47.2796 74.8983 47.167 74.7903 46.9657C74.6541 46.6941 74.8573 46.3296 75.1587 46.2972C75.4467 46.2543 75.7566 46.4654 75.7933 46.7602C75.8653 47.2409 75.4912 47.7166 75.0211 47.8045C74.6357 47.8651 74.1833 47.6511 74.0845 47.2535C73.968 46.8672 74.1141 46.471 74.3216 46.1452Z" fill="black"/>
<path d="M3.23834 45.9981C3.60255 45.8869 3.93641 46.0931 4.23144 46.2782C4.36132 46.6441 4.58859 47.0474 4.39449 47.4344C4.19545 47.8939 3.55667 48.0635 3.16282 47.7433C2.74356 47.5167 2.64686 46.9995 2.75273 46.5703C2.96731 46.476 3.19458 46.3401 3.43739 46.4056C3.72748 46.4802 3.827 46.8524 3.72113 47.1051C3.6322 47.307 3.39927 47.364 3.22282 47.4647C3.3901 47.6117 3.63855 47.7124 3.84959 47.5913C4.20815 47.3837 4.24838 46.8588 4.0197 46.54C3.84324 46.2578 3.51079 46.1586 3.23834 45.9981Z" fill="black"/>
<path d="M1.47447 46.4211C1.60646 46.3387 1.80903 46.3169 1.91067 46.4584C2.10901 46.7215 2.36381 46.9341 2.56497 47.1944C2.70685 47.3605 2.58544 47.6462 2.37934 47.6927C2.193 47.7307 2.00172 47.6779 1.81327 47.7046C1.63257 47.706 1.38483 47.7827 1.27966 47.5836C1.23731 47.3373 1.28037 47.084 1.26695 46.8355C1.25566 46.673 1.32413 46.4985 1.47447 46.4211ZM1.58105 46.9439C1.57681 47.0818 1.60011 47.2184 1.63046 47.3535C1.80762 47.383 1.98337 47.421 2.15771 47.4618C1.96643 47.288 1.7935 47.0924 1.58105 46.9439Z" fill="black"/>
<path d="M76.4377 46.6885C76.5259 46.4816 76.7518 46.3366 76.9791 46.3598C77.1675 46.3866 77.2586 46.5942 77.2536 46.7666C77.2445 47.0656 77.2063 47.364 77.188 47.6631C76.8866 47.6863 76.5859 47.725 76.2838 47.7173C76.0311 47.7398 75.7876 47.4189 75.9366 47.1916C76.0184 46.9425 76.3389 46.92 76.4377 46.6885ZM76.4702 47.4273C76.6106 47.4027 76.7525 47.3774 76.8951 47.357C76.9163 47.2233 76.9346 47.0896 76.953 46.9566C76.7144 47.0072 76.4864 47.1635 76.4702 47.4273Z" fill="black"/>
<path d="M73.1457 47.2986C72.9495 47.0882 73.265 46.8989 73.3871 46.7483C73.4852 46.8904 73.6123 47.0185 73.6723 47.1846C73.6095 47.3992 73.2784 47.5245 73.1457 47.2986Z" fill="black"/>
<path d="M4.75517 47.1656C4.87586 47.053 4.97609 46.9123 5.12432 46.8342C5.27819 46.8806 5.34736 47.046 5.44194 47.1628C5.34383 47.2543 5.27677 47.4105 5.13137 47.4309C4.99021 47.3676 4.87798 47.2564 4.75517 47.1656Z" fill="black"/>
</g>
<defs>
<clipPath id="clip0_253_652">
<rect width="78.5185" height="49.0741" fill="white"/>
</clipPath>
</defs>
</svg>
