<?xml version="1.0" encoding="UTF-8"?>
<!DOCTYPE svg PUBLIC "-//W3C//DTD SVG 1.1//EN" "http://www.w3.org/Graphics/SVG/1.1/DTD/svg11.dtd">
<!-- Creator: CorelDRAW 2021 (64-Bit) -->
<svg xmlns="http://www.w3.org/2000/svg" xml:space="preserve" width="85mm" height="54mm" version="1.1" style="shape-rendering:geometricPrecision; text-rendering:geometricPrecision; image-rendering:optimizeQuality; fill-rule:evenodd; clip-rule:evenodd"
viewBox="0 0 8500 5400"
 xmlns:xlink="http://www.w3.org/1999/xlink"
 xmlns:xodm="http://www.corel.com/coreldraw/odm/2003">
 <defs>
  <style type="text/css">
   <![CDATA[
    .fil0 {fill:white;fill-rule:nonzero}
   ]]>
  </style>
 </defs>
 <g id="Layer_x0020_1">
  <metadata id="CorelCorpID_0Corel-Layer"/>
  <path class="fil0" d="M2050.5 3112.2c-84.31,-55.23 -132.81,-152.37 -143.86,-250.77 -20.06,-176.75 42.79,-349.43 116.82,-506.88 89.64,-175.73 195.66,-349.56 229.18,-547 8.51,-56.63 8.89,-127.35 -39.36,-167.1 -35.17,-33.01 -92.94,-49.14 -133.7,-16.38 -48.51,48.51 -40.89,126.34 -21.33,186.15 14.34,50.28 58.02,89.39 56.75,144.24 -35.93,2.03 -52.56,-33.52 -67.67,-59.68 -25.52,-54.98 -47.24,-114.53 -42.67,-176.37 -2.92,-62.85 27.05,-134.71 92.06,-153.76 64.63,-12.7 132.69,19.81 169.64,73.01 55.36,73.26 56.25,171.03 49.26,258.52 -27.3,204.68 -115.42,395.52 -217.25,573.03 -67.04,128.24 -126.08,269.43 -112.75,417.23 -0.76,93.45 60.82,188.94 152.62,214.97 82.91,28.95 190.59,-4.32 226.27,-88.88 24.88,-66.92 16.12,-149.32 -33.65,-203.03 -16.89,-25.15 -53.46,-45.59 -45.71,-80.51 43.17,-3.8 71.36,35.81 92.82,67.43 38.85,53.84 48.12,123.16 38.72,187.66 -14.47,62.6 -59.42,115.3 -115.04,145.9 -79.35,37.83 -178.65,33.01 -251.15,-17.78z"/>
  <path class="fil0" d="M2363.49 3546.58c-7.62,-31.24 -8.12,-64.5 7.74,-93.46 19.31,-11.55 38.73,-22.85 58.67,-33.9 109.83,-22.35 220.55,6.99 327.21,31.75 88.75,22.85 178.14,42.4 267.02,64.88 125.2,28.44 251.66,69.46 381.69,48.38 38.85,-17.78 83.16,-37.33 99.67,-80.25 24.38,-51.55 21.84,-110.34 14.47,-165.57 -9.01,-37.97 -17.64,-76.19 -27.04,-114.15 -40.5,-162.15 -68.95,-335.97 -14.35,-498.63 13.59,-19.93 30.48,-37.33 49.39,-52.44 68.82,-12.19 116.95,45.59 154.66,93.71 -46.22,42.03 -77.2,96.5 -103.99,152.11 -1.27,7.5 -3.81,22.48 -5.08,29.97l-5.59 7.11c-22.09,85.83 -22.09,175.86 -12.44,263.47 17.14,92.44 46.34,187.54 24.25,281.88 -10.79,88.88 -80.25,163.03 -163.92,190.72 -68.7,26.91 -143.48,20.31 -215.6,17.9 -101.71,-17.78 -202.65,-39.62 -302.58,-65.65 -34.03,-9.14 -68.19,-17.77 -102.85,-23.99 -82.54,-24 -167.23,-42.03 -252.55,-52.32 -41.39,-10.41 -87.74,-14.6 -125.7,8.64 7.61,21.45 21.07,40.12 39.23,53.71 59.55,45.07 124.56,83.16 194.78,109.06l-0.64 8.01c36.32,11.68 72.51,23.87 108.31,37.2 212.55,46.72 426.38,88.37 638.68,136.37 13.46,46.72 -16.51,99.54 -66.15,105.77 -77.59,6.85 -154.28,-13.33 -230.08,-26.92 -93.71,-20.06 -187.16,-41.27 -280.36,-63.74 -37.71,-9.02 -75.42,-18.03 -113.51,-25.52 -16.76,-4.7 -33.91,-8.89 -50.54,-13.46 -72.5,-10.04 -148.05,-33.4 -220.55,-13.59 -14.22,31.49 18.15,51.04 38.98,67.93 63.86,45.84 132.94,86.09 207.85,111.1 -10.79,6.86 -21.58,13.72 -32.25,20.45 -103.48,-50.41 -222.96,-98.41 -278.45,-206.59 0.76,-31.11 -12.32,-72.63 19.43,-93.07 65.77,-49.01 151.6,-29.21 227.53,-30.35 -98.66,-36.31 -201.12,-92.82 -255.34,-186.52z"/>
  <path class="fil0" d="M2362.47 4281.75c-11.55,-41.9 -5.58,-85.96 -3.93,-128.75 34.28,-80.37 130.65,-100.05 209.25,-95.35 42.28,-1.91 89.52,20.18 127.1,-7.75 75.42,37.71 159.99,50.41 241.89,66.91 80.12,16.64 159.6,36.57 240.23,51.05 52.06,12.31 104.62,22.73 156.43,36.82 41.65,16 89.77,28.95 114.91,69.33 11.05,31.49 0.89,64.88 -13.33,93.45 -70.85,-4.19 -136.62,-35.17 -206.72,-44.44l-7.23 -4.82c-235.28,-43.05 -465.99,-111.74 -703.94,-140.18 -46.22,-4.07 -113.39,-3.43 -128.63,51.42 2.04,85.58 88.12,171.92 177,147.42 39.49,-13.72 47.49,-59.17 64,-92.7 6.1,-5.07 18.28,-15.11 24.38,-20.18 19.93,1.52 44.06,-6.1 60.69,9.27 41.27,25.26 31.11,89.39 -3.43,116.05 -65.51,50.41 -156.68,49.77 -230.96,19.93 -55.23,-22.85 -96.88,-72.24 -117.71,-127.48z"/>
  <g>
   <path class="fil0" d="M2573.25 3172.77c-36.06,-37.2 -62.72,-98.91 -31.49,-146.78 14.73,-19.56 33.65,-35.43 51.3,-52.31 71.36,-29.72 149.83,-42.8 227.03,-38.23 71.87,9.15 144.75,12.07 213.82,36.45 -23.24,-33.4 -50.16,-64.38 -82.02,-90.03 -82.79,-27.04 -170.4,-38.98 -257.25,-40.63 -26.92,-1.9 -49.39,16.89 -75.55,18.67 -22.1,1.14 -31.87,-20.2 -43.68,-34.29 -6.73,-26.91 -12.57,-53.96 -13.59,-81.77 12.96,-21.2 30.48,-38.98 50.92,-53.33 18.79,-2.16 37.46,-5.2 56.12,-9.52 29.84,8.13 60.82,8.25 91.55,9.27 -28.06,-11.18 -54.85,-25.27 -79.74,-42.16 -24.38,-27.29 -50.66,-53.07 -72.25,-82.78 -14.98,-27.3 -9.77,-58.79 -9.01,-88.63 16.63,-14.47 34.28,-27.81 52.57,-40.25 116.3,-28.19 234.39,3.55 347.77,29.46 107.93,21.58 214.84,58.28 325.69,58.03 -1.01,-10.54 -1.78,-21.34 -2.67,-32.13 -65.77,-46.35 -142.08,-73.52 -215.6,-104.5 -30.6,-14.6 -64.75,-15.75 -97.77,-18.92 -20.44,-4.44 -40.88,-8.63 -61.2,-12.95 -107.8,-26.79 -217.12,-69.58 -291.78,-155.42 -39.24,-37.45 -56.89,-89.64 -80.12,-137.13 -10.16,-72.63 15.23,-158.71 90.53,-185 95.23,-11.43 179.16,44.32 249.38,101.58 73.39,64.51 134.59,142.21 182.71,227.16 -43.68,11.43 -59.42,-34.79 -82.02,-61.2 -30.1,-42.29 -74.29,-70.6 -115.93,-100.06 -78.34,-33.52 -174.84,-68.06 -255.34,-23.11 -44.57,25.14 -16.13,77.2 18.66,95.49 101.32,61.7 220.17,84.94 334.45,110.72 76.56,10.03 157.57,14.85 230.58,-15.24 25.01,-11.3 44.19,-30.73 61.2,-51.93 10.54,-28.32 11.3,-58.79 1.78,-87.49 -36.57,-60.69 -95.48,-102.72 -155.79,-137.38 -47.87,-24.76 -97.9,-45.33 -146.79,-67.93 -77.71,-12.57 -154.02,-32.64 -231.34,-47.49 -64.12,-11.43 -125.71,-33.14 -185,-59.93l1.01 -7.5c-51.42,-17.39 -28.19,-139.92 35.18,-114.02 125.19,33.65 251.53,63.11 378.5,89.4 44.19,11.8 89.65,18.41 133.83,30.47 42.67,2.54 99.3,23.36 130.91,-15.88 -63.99,-69.58 -161.13,-92.3 -246.96,-123.16l-1.78 -6.98c-24.12,-2.92 -47.36,-10.41 -69.83,-19.43 -32.76,-9.14 -66.03,-16.63 -97.52,-29.84 -73.39,-18.41 -147.04,-36.18 -219.54,-58.15 -42.53,-20.57 -90.91,-50.66 -80.88,-106.28 8.63,-14.47 16.89,-29.33 26.54,-43.42 46.09,-2.8 88.62,18.15 133.07,26.28l7.36 -1.78 -2.16 10.92 5.72 0.13c114.91,19.94 229.31,45.58 343.33,71.36 21.33,5.58 43.3,8.89 65.14,12.7 78.09,15.61 154.4,42.66 234.14,48.88 11.55,-99.93 10.03,-219.79 90.28,-292.8 6.98,-3.55 21.07,-10.67 28.06,-14.22 46.72,3.94 109.83,39.74 98.53,94.47 -64.88,63.1 -98.53,153.89 -102.97,243.28 50.65,20.06 104.11,31.87 154.9,51.42 21.97,8 43.81,16.76 65.52,25.52 78.72,33.4 154.53,77.71 213.82,140.06 45.84,51.17 64.13,126.08 33.14,189.69 -14.98,20.45 -33.01,38.35 -52.69,54.22 -48,5.84 -96.25,4.19 -144.12,-1.65 -15.36,-6.98 -31.11,-13.2 -46.59,-19.68 -23.75,-8.63 -46.35,-19.81 -68.7,-31.49 -91.04,-50.15 -169.38,-123.04 -217.76,-215.73 -5.84,-15.23 -11.55,-30.47 -16.63,-46.22 -16.76,-36.18 -57.52,-41.52 -92.82,-43.55 -51.8,-16.88 -105,-33.65 -159.73,-35.42 -0.13,-3.05 -0.51,-9.15 -0.63,-12.19 -20.83,-0.26 -41.52,-0.38 -62.22,-0.38 15.74,5.84 31.62,11.04 47.74,15.87 81.9,40.25 188.3,71.74 216.36,170.52 -8.76,30.1 -19.04,61.97 -48.5,77.97 -51.17,26.91 -112.37,16.88 -167.73,14.09 74.02,37.46 149.7,80.75 196.55,151.86 45.59,63.87 60.57,149.45 33.39,223.85 -24.25,41.9 -62.85,71.62 -108.56,87.11 -16.5,6.22 -33.9,9.14 -51.04,11.81 -8.51,3.04 -25.52,9.26 -33.9,12.31 101.58,38.73 227.66,81.01 267.15,193.51 -7.37,74.15 -94.6,86.85 -154.27,82.15 -102.72,-7.74 -203.29,-34.28 -303.09,-59.04 -17.65,-2.79 -35.3,-5.46 -52.82,-8.38 -76.56,-18.54 -155.42,-37.08 -234.65,-31.24 -3.93,3.56 -11.8,10.8 -15.74,14.48 10.16,39.49 50.41,58.78 79.99,82.28 44.95,30.6 94.34,53.71 145.77,70.97 120.11,37.72 245.18,55.36 367.46,84.69 42.03,11.81 87.86,11.18 127.35,31.11 12.19,42.67 -17.39,95.49 -64.12,97.65 -67.93,5.46 -134.84,-10.8 -201.25,-21.84 -36.31,-9.65 -72.5,-19.3 -109.58,-25.65 24.12,29.97 49.01,59.55 66.92,93.7 106.27,44.32 219.91,97.9 280.23,201.51 36.06,53.97 34.15,135.99 -17.02,179.92 -25.26,26.54 -62.34,34.67 -94.47,49.27 -152.24,20.82 -307.91,-12.19 -446.06,-76.57 -38.09,-20.06 -76.43,-40.88 -106.65,-72.12 -33.27,-36.31 -83.3,-51.17 -115.04,-89.13l0 0zm238.33 46.47c85.58,19.17 169.38,-30.86 224.87,-92.82 -1.65,-6.73 -5.08,-20.06 -6.86,-26.79 -40.5,-4.44 -80.37,-13.46 -120.11,-22.09 -93.84,-16.26 -189.45,-30.98 -284.68,-18.29 7.87,96 108.05,134.72 186.78,159.99l0 0zm141.32 38.35c111.74,16.37 223.98,43.67 337.62,29.84 18.54,-2.8 34.41,-15.62 44.7,-31.11 1.9,-39.49 -39.75,-61.33 -70.72,-75.93 -20.83,-8.89 -41.53,-18.04 -62.98,-25.14 -38.35,-11.56 -74.92,-32.64 -115.68,-33.78 -19.55,10.92 -30.09,31.87 -44.69,48 -26.16,32.76 -64.89,50.79 -101.84,68.18 -4.44,12.57 0.13,19.3 13.59,19.94l0 0zm562.11 -1448.52c52.82,86.09 150.72,130.02 245.06,154.02 25.65,1.27 51.55,0.89 77.07,-2.92 39.75,-13.33 56.89,-50.53 46.09,-90.78 -38.21,-35.05 -83.92,-59.56 -132.05,-77.71 -18.28,-6.61 -36.31,-13.59 -54.34,-20.57 -12.57,-4.32 -25.14,-8.51 -37.59,-12.7 -12.57,-4.31 -25.26,-8.38 -37.84,-12.32 -48.88,-14.47 -96.88,-31.87 -145.38,-47.23 -1.27,40.38 19.81,76.31 38.98,110.21z"/>
  </g>
  <path class="fil0" d="M3628.65 3079.69c-0.76,-17.77 -1.01,-35.8 -0.63,-53.83 3.93,-8.25 11.68,-24.89 15.62,-33.14 43.8,-10.28 63.48,37.84 96.62,56.38 0.76,21.83 1.53,43.55 2.16,65.26 -41.77,3.43 -77.96,-16.63 -113.77,-34.67z"/>
  <path class="fil0" d="M3770.48 3590.13c-10.28,-9.52 -29.07,-15.36 -25.77,-32.76 -1.66,-69.58 0.76,-139.29 -0.77,-209 7.37,-7.24 14.86,-14.6 22.48,-22.09 25.14,0.25 50.53,0.25 75.93,-0.13l-0.51 13.84 14.48 -3.17c-0.26,46.6 -0.51,93.2 1.01,139.8 12.07,0 24.38,0 36.7,-0.13 1.14,-42.03 0.51,-84.06 1.01,-126.21l8.64 -1.15c23.49,-17.01 54.6,-8.63 81.77,-11.68 41.14,33.02 11.05,90.53 23.11,134.59 12.44,-1.52 37.2,-4.44 49.64,-5.84 2.67,-46.47 -0.5,-93.07 3.31,-139.41 32.63,-1.02 65.39,-1.14 98.27,-1.66 21.08,81.78 4.7,167.74 10.92,251.16 -68.44,6.47 -137.89,20.19 -206.33,7.62 -29.58,4.31 -59.93,7.74 -88.76,-1.78 -35.04,2.54 -70.08,5.84 -105.13,8z"/>
  <g>
   <path class="fil0" d="M3744.2 4209.25c-0.51,-19.55 -0.89,-39.11 -0.89,-58.79 7.49,-23.11 11.55,-46.98 14.09,-71.23 8.38,-13.46 17.02,-26.92 25.65,-40.5 12.7,-17.78 27.43,-35.17 47.49,-45.33l1.65 -10.79c5.97,1.14 17.65,3.42 23.62,4.57l1.39 -13.21c21.72,-2.41 43.56,-5.72 64.38,-13.21 28.06,-1.27 56.12,-0.63 84.31,0.64 36.44,7.74 75.68,34.03 109.96,5.59 11.94,-3.05 35.93,-9.14 47.87,-12.32 6.48,57.52 -14.09,116.31 4.82,172.17 16.13,59.56 -6.47,120.25 -34.66,172.18 -37.71,40.89 -86.21,69.46 -141.57,77.45 -40.89,5.59 -81.01,-3.04 -120.5,-12.06 -64.76,-28.31 -113.26,-85.7 -127.61,-155.16l0 0zm136.87 27.05c14.1,8.5 27.81,17.39 41.53,26.54 33.01,6.09 65.89,1.39 96.5,-11.94 14.98,-16 28.06,-33.78 39.61,-52.44 -0.51,-19.17 -0.76,-38.35 -0.51,-57.77 -11.93,-26.29 -29.96,-49.27 -53.33,-66.41 -33.64,-0.64 -71.23,-10.41 -101.57,8.63 -23.87,10.92 -32.63,37.21 -46.35,57.52 -1.52,34.03 3.56,67.8 24.12,95.87z"/>
  </g>
  <path class="fil0" d="M3756.64 3720.66c-3.04,-8.38 -8.88,-25.02 -11.93,-33.39 -0.26,-9.91 -0.64,-29.59 -0.89,-39.5 3.81,-7.36 11.3,-22.09 14.98,-29.58 112.63,2.03 226.39,-9.4 337.62,12.95l0.26 8.13c4.82,2.92 14.22,8.5 18.91,11.3 28.58,25.78 44.57,60.95 56.51,96.75 0.25,26.03 -0.13,52.19 -1.02,78.22 -14.6,32.25 -27.17,66.4 -53.45,91.29 -18.03,7.24 -35.05,16.89 -51.3,27.17 -104.24,1.91 -208.36,1.66 -312.61,1.27 -3.17,-33.77 -2.79,-67.67 -1.01,-101.57 90.27,-3.69 180.81,3.93 270.83,-2.55 30.86,-4.06 37.58,-34.79 42.92,-60.43 -4.32,-15.37 -8.38,-30.73 -12.19,-46.22 -14.22,-2.29 -28.44,-4.57 -42.41,-6.98 -84.31,-13.08 -170.27,-0.39 -255.22,-6.86z"/>
  <path class="fil0" d="M3753.97 3198.29c-3.93,-84.06 -5.33,-168.75 0.64,-252.8 34.28,1.64 71.23,-5.97 103.1,11.42 -2.66,42.67 -2.66,85.58 -0.38,128.24 6.22,3.56 12.57,7.12 19.05,10.54 4.82,-3.93 14.35,-11.68 19.17,-15.48 -0.76,-38.86 -0.38,-77.71 -0.63,-116.57 31.36,-9.27 64.24,-7.11 96.5,-6.85 4.06,4.57 12.06,13.58 16.12,18.15 -1.52,39.49 -3.42,79.11 3.05,118.09 15.49,0.13 31.11,0.13 46.73,-0.13 4.06,-49.52 1.39,-99.17 3.42,-148.94 33.65,-4.44 67.81,-5.2 101.71,-2.41 3.05,85.2 3.05,170.65 -1.02,255.85 -135.86,2.03 -271.72,1.65 -407.46,0.89z"/>
  <g>
   <path class="fil0" d="M3807.56 1416.72c-20.82,-61.07 -24.38,-136.36 27.68,-183.34 12.57,-9.02 25.01,-18.42 37.46,-27.94 60.05,-18.79 122.78,-14.98 182.71,1.65 188.17,66.16 362.76,197.7 444.15,383.97 7.11,22.35 20.32,45.2 45.46,49.52 77.58,20.95 153.64,48 232.62,63.49 47.99,18.15 99.54,24.25 147.67,42.28 18.28,3.68 36.82,6.98 54.97,11.55 113.14,32.76 227.79,59.93 342.58,86.09 60.31,15.37 126.34,32.76 187.16,10.29 7.62,-43.43 -29.46,-67.55 -63.87,-82.79 -102.59,-65.77 -224.23,-93.83 -328.35,-156.56 17.77,-27.43 45.2,-8.38 67.29,-2.54 121.39,48.88 244.93,97.52 351.85,174.46 50.79,34.54 89.9,96.63 72.12,159.74 -7.88,38.34 -45.33,56.25 -78.22,68.94 -25.01,8.38 -66.15,-8.5 -78.47,19.17 68.95,25.91 144.75,67.94 167.1,143.36 15.87,56.63 -18.79,110.08 -64.76,139.8 -78.85,44.31 -170.9,52.56 -259.53,52.06 -28.95,-8.26 -59.04,-10.29 -88.75,-12.7 -5.08,-2.29 -15.24,-7.11 -20.32,-9.53 6.98,32.13 24.5,60.06 42.91,86.73 87.36,45.71 181.2,83.04 254.71,151.22 66.79,57.01 123.68,133.96 133.96,223.35 2.03,56.75 -31.49,108.56 -72.5,145.26 -106.66,72.75 -242.27,59.29 -362.26,36.56 20.7,37.08 33.65,87.36 79.24,101.08 123.67,54.34 247.97,128.62 317.81,248.48 31.62,50.92 50.54,116.31 25.65,173.83 -14.1,40.88 -48,69.2 -81.52,94.09 -105.89,53.71 -227.41,47.1 -340.8,26.03 -61.83,-10.16 -120.87,-32 -181.31,-47.49 -66.03,-22.98 -130.28,-51.43 -190.59,-86.73 -46.98,-33.01 -90.53,-69.96 -129.9,-111.73 -51.8,-35.55 -112.24,-68.57 -138.27,-129.39 -22.73,-40.75 -17.65,-88.88 -13.71,-133.45 18.16,-24.88 40.51,-46.09 64.25,-65.77 29.96,-14.09 61.07,-25.78 92.56,-36.44 18.16,-2.41 36.57,-5.2 54.85,-8.38 96.12,-17.39 194.02,-3.68 289.88,9.02 20.32,5.96 40.89,10.91 61.59,16.37 28.06,7.5 55.99,16 84.81,20.45 -24.5,-36.95 -49.52,-81.52 -96.5,-91.93 -78.59,-18.92 -153.89,-48.63 -225.63,-85.84 -54.47,-26.79 -102.09,-64.88 -145,-107.42 -30.73,-38.47 -77.58,-57.64 -114.53,-89 -38.09,-43.43 -74.92,-94.47 -69.96,-155.55 -6.73,-61.07 49.13,-102.72 98.53,-125.57 136.62,-56 291.02,-40.89 432.98,-15.62 40.5,10.92 80.88,22.6 122.91,26.54 -13.97,-18.16 -29.33,-35.3 -44.31,-52.82 -3.18,-3.94 -9.65,-11.81 -12.96,-15.75 -54.09,-24 -111.99,-38.34 -168.87,-54.47 -11.55,-6.35 -22.98,-12.82 -34.28,-19.17 -18.8,-6.48 -36.95,-14.73 -53.97,-24.76 -5.96,-3.18 -17.77,-9.65 -23.74,-12.83 -28.32,-18.16 -55.36,-38.22 -82.54,-58.02 -38.72,-38.35 -74.4,-79.87 -101.32,-127.49 -27.42,-62.85 -17.14,-131.92 2.29,-195.41 -34.03,-10.28 -67.43,-23.74 -102.85,-28.95 -5.59,111.48 -19.68,225.13 -69.96,326.2 -27.18,41.26 -65.78,80.12 -118.85,78.59 -47.36,-22.47 -96.88,-55.23 -109.96,-109.45 23.36,-22.85 45.2,-47.11 67.8,-70.72 -0.12,-3.81 -0.25,-11.43 -0.25,-15.11 38.47,-37.33 51.04,-90.66 66.15,-140.18 11.05,-37.2 17.4,-76.94 8.63,-115.42 -18.79,-4.19 -37.58,-8.76 -55.86,-14.47 -17.4,-6.73 -34.67,-13.59 -51.93,-20.32 -37.97,-12.95 -76.19,-25.77 -112.5,-42.91 -142.72,-64.76 -297.63,-141.07 -373.43,-286.21l0 0zm271.47 70.86c20.7,8.5 41.52,16.88 62.47,24.88 37.2,14.73 74.66,29.08 113.64,38.48 43.93,15.61 87.61,39.11 135.74,35.93 -11.05,-23.87 -21.72,-48.12 -30.22,-73.14 -15.75,-26.28 -31.37,-52.69 -49.78,-77.32 -26.53,-24.89 -53.45,-49.78 -82.41,-71.87 -23.99,-15.11 -48.12,-29.71 -72.88,-43.43 -49.14,-22.09 -100.18,-39.86 -153.25,-49.39 -48,-10.41 -96.12,1.78 -132.44,34.54 -3.55,8.25 -10.92,24.63 -14.47,32.89 40.12,87.1 144.37,109.95 223.6,148.43l0 0zm564.52 1817.87c-26.03,-36.69 -28.95,-81.13 -29.84,-124.68 -11.04,1.27 -22.09,2.54 -32.88,3.81 -12.45,51.29 18.66,97.13 62.72,120.87l0 0zm-8.89 -645.65c-14.72,-40.89 -21.07,-83.94 -20.44,-127.36 -36.95,0.76 -35.17,34.28 -35.17,63.24 15.36,23.87 29.2,50.65 55.61,64.12l0 0zm21.34 562.74c52.94,86.98 153,125.58 243.53,161 91.17,13.97 182.21,-26.92 249.12,-87.35 14.6,-17.53 31.87,-34.41 34.54,-58.41 -26.54,-6.1 -52.82,-13.08 -79.23,-19.18 -123.55,-32.5 -250.27,-57.89 -378.13,-63.86 -23.87,0.63 -58.03,-15.37 -73.77,10.28 0,19.3 2.16,38.47 3.94,57.52l0 0zm24.76 -608.33c53.32,66.54 136.24,94.72 212.8,124.95 114.53,20.05 233.12,-41.53 298.9,-134.22 -72.76,-28.31 -150.21,-43.8 -226.65,-58.53 -20.82,-5.34 -41.9,-9.4 -62.73,-13.97 -81.64,-12.57 -164.55,-25.14 -247.47,-19.17 -6.47,35.42 -3.68,75.8 25.15,100.94l0 0zm2.28 -675.37c24.76,50.28 71.23,83.42 120.5,107.29 16.76,8.77 33.65,17.4 50.79,25.78 121.13,54.09 249.88,89.77 379.9,115.03 92.69,12.83 191.86,23.5 282.77,-4.94 10.41,-9.02 20.7,-18.42 30.73,-28.32 2.16,-41.27 -44.82,-52.18 -72.12,-71.11 -41.01,-17.9 -83.17,-33.26 -125.83,-46.6 -76.32,-24.25 -154.15,-43.93 -232.36,-60.82 -124.69,-37.33 -252.17,-64.5 -377.75,-98.78 -31.87,-13.08 -48.25,16.25 -57.01,40.76 0.13,5.46 0.38,16.25 0.38,21.71l0 0zm348.03 1481.53c104.63,26.41 209.76,51.17 316.8,65.77 64.76,5.97 132.31,13.08 194.02,-12.57 10.41,-18.41 28.82,-39.62 14.98,-61.59 -28.44,-40.88 -74.4,-64.88 -119.36,-83.8 -42.15,-17.39 -84.3,-35.04 -127.6,-49.13 -12.95,-4.83 -25.65,-9.78 -38.22,-15.11 -10.03,-1.02 -30.09,-3.18 -40.12,-4.2 -47.11,74.79 -121.26,125.07 -200.5,160.63l0 0zm31.24 -631.06c107.42,24.76 215.47,52.31 326.07,56.63l9.14 5.97c44.44,2.54 88.75,-1.53 132.18,-11.43 12.95,-11.56 34.16,-21.46 30.73,-42.66 6.34,-35.43 -27.68,-53.46 -49.52,-73.78 -11.43,-5.58 -22.61,-11.17 -33.78,-16.88 -73.52,-39.11 -154.52,-60.06 -230.33,-93.84 -30.47,18.79 -46.6,51.81 -71.36,76.31 -20.19,17.91 -43.04,32.51 -64.5,48.76 -25.4,13.08 -51.55,24.89 -78.6,34.03 10.04,5.46 19.94,11.3 29.97,16.89z"/>
  </g>
  <g>
   <path class="fil0" d="M4316.72 3513.06c-53.58,-143.48 -96.37,-294.2 -93.32,-448.73 -2.42,-98.78 5.96,-198.07 32.5,-293.43 16,-70.22 41.27,-145.14 99.67,-191.48 25.02,-21.97 60.7,-16.25 91.05,-12.19 32.63,25.27 65.01,52.7 82.53,91.04 -22.35,26.16 -44.7,52.31 -67.8,77.71 -154.91,236.3 -153.52,547.51 -56.25,805.52 51.17,4.57 104.24,-12.7 153.76,6.98 56.89,21.46 112.63,56.13 140.94,111.99 24,43.43 24.76,101.71 -14.09,137.01 -30.35,35.42 -81.65,26.41 -121.77,17.9 -81.9,-35.05 -134.85,-110.21 -181.07,-182.84 -19.29,-21.2 -45.07,2.67 -58.66,18.28 -39.86,49.78 -12.31,119.23 21.71,163.93 109.97,151.09 285.57,234.01 452.92,305.37 22.35,7.74 44.69,15.61 67.55,22.47 159.22,53.84 325.18,95.86 494.69,87.87 43.55,-0.51 86.47,-8.38 127.1,-24.13 34.92,-13.08 58.15,-41.77 71.86,-75.55 -10.66,-59.55 -53.83,-103.74 -98.65,-140.56 -55.74,-35.55 -113.52,-68.82 -176.12,-90.66 -30.85,-5.08 -60.82,-13.33 -91.16,-20.31 -12.44,-4.19 -24.76,-8.38 -37.08,-12.45 -48.76,-19.55 -104.88,-40.25 -128.75,-91.29 -5.97,-20.95 -2.28,-43.17 3.43,-63.74 10.03,-20.57 20.82,-40.76 33.52,-59.81 22.47,5.97 44.95,12.58 67.42,19.43 28.57,11.56 58.28,19.81 88.38,26.92 46.22,13.21 92.94,24.76 138.27,41.14 29.97,6.22 59.42,15.11 88.12,26.28 13.59,2.67 27.3,5.08 41.01,7.5 32.13,14.34 66.28,22.72 100.69,29.07 48.76,12.45 95.74,30.6 143.61,46.35 113.89,49.39 232.49,111.61 299.4,220.8 33.78,60.44 42.79,136.12 13.59,199.99 -32.25,50.66 -88.5,92.05 -151.1,87.61 -64.88,5.46 -126.97,-21.97 -175.35,-63.61 -29.33,-28.7 -44.44,-70.98 -45.08,-111.61 3.94,-55.74 75.3,-92.31 121.39,-56.76 64.63,35.68 3.68,129.51 62.47,171.28 48.63,41.4 121.39,3.69 143.74,-48.62 -8.64,-35.94 -24.38,-70.22 -51.68,-96.13 -85.58,-71.61 -191.23,-112.49 -294.45,-151.35 -6.73,-1.39 -20.06,-4.19 -26.79,-5.58 -41.91,-15.11 -84.44,-28.32 -125.33,-45.97 -6.35,0 -19.17,0.26 -25.52,0.26 5.97,6.47 12.06,12.82 18.28,19.17 78.48,57.01 137.39,151.22 126.34,251.02 -0.76,51.94 -33.77,95.62 -73.51,125.58 -44.95,30.35 -98.15,41.27 -149.45,55.49 -182.46,17.9 -364.54,-20.06 -537.1,-76.82 -12.19,-3.81 -24.63,-7.24 -36.7,-10.92 -15.99,-6.6 -31.74,-13.08 -47.61,-19.55 -73.9,-32.89 -147.54,-67.81 -213.82,-114.79 -17.4,-12.69 -34.92,-25.39 -52.82,-37.45 -28.44,-21.21 -54.22,-45.59 -80.25,-69.59 -30.85,-33.77 -61.07,-68.05 -88.25,-104.75 -56.37,-80.5 -90.02,-178.9 -76.94,-277.82 9.52,-42.4 34.28,-82.78 73.77,-103.48 0.89,-24.38 -5.84,-47.74 -15.24,-69.96l-8 -2.03 0 0zm284.42 256.23c34.79,12.57 69.08,-13.08 69.46,-49.01 -46.22,-80.25 -145.52,-113.77 -233.51,-116.06 33.27,69.84 87.61,140.44 164.05,165.07z"/>
  </g>
  <path class="fil0" d="M5655.78 3031.57c-0.38,-26.28 0.77,-52.56 2.92,-78.85 38.98,-3.55 63.75,25.14 92.31,45.71 -1.27,13.21 -3.68,39.62 -4.82,52.82 -29.97,-7.49 -59.68,-16.38 -90.41,-19.68z"/>
  <g>
   <path class="fil0" d="M5752.54 2646.46c-19.3,-35.42 -20.7,-76.06 -14.98,-115.16 4.82,-14.1 9.64,-28.44 14.22,-42.92l7.87 -0.12 0.76 -13.97 13.84 -3.18 -2.03 -13.2 16 5.84 -1.91 -15.62c21.59,-0.64 43.17,-1.14 65.01,-1.52 0,25.14 -0.25,50.28 -1.01,75.29 -8.77,9.65 -17.53,19.17 -26.03,28.57 -1.4,26.67 6.09,52.44 32.25,64.12 5.33,-9.52 10.92,-19.04 16.76,-28.69 1.52,-23.37 3.3,-46.86 4.82,-70.35 7.5,-27.93 19.18,-54.72 39.24,-76.05 12.95,-5.08 25.9,-10.29 38.98,-15.88 17.65,0.77 35.43,1.27 53.33,1.53 38.6,13.58 62.72,45.46 79.48,81.26 1.78,41.27 11.94,85.84 -7.36,124.44 -5.08,11.93 -9.78,23.74 -14.48,35.55 7.62,9.14 15.37,18.16 23.11,27.17 1.4,50.66 4.45,101.07 2.29,151.6 -26.92,1.02 -53.71,1.02 -80.5,-0.25 0.76,-6.98 2.41,-20.95 3.17,-28.06 -55.36,-2.29 -110.72,-2.29 -165.95,-0.51l2.16 14.22 -14.99 -2.15 0.64 14.34 -15.11 -1.64 4.06 14.34c-21.84,0.25 -43.55,0.51 -65.26,0.89l0.38 -14.86 -13.84 1.27c0.76,-46.6 -0.26,-93.32 -0.26,-140.05l14.35 -0.63 -1.9 -16 18.28 3.05c-5.84,-15.62 -8.25,-34.67 -25.39,-42.67l0 0zm87.86 78.85c50.79,1.65 101.58,-2.28 152.5,-0.5 -1.78,-18.29 -4.57,-36.95 -16.51,-51.81 -0.13,-19.55 0,-39.23 0.26,-59.04l11.55 -0.13c12.57,-26.41 14.73,-55.23 12.57,-84.06 -4.7,-5.71 -14.22,-17.26 -18.92,-22.98 -14.98,12.19 -21.46,30.35 -27.04,48 2.28,37.07 -4.19,73.77 -18.16,108.05l-10.67 1.15 0.64 14.09 -14.86 -2.41 2.03 12.32c-28.95,2.03 -57.26,8.25 -84.69,16.63l11.3 20.69z"/>
  </g>
  <path class="fil0" d="M5770.44 3287.55c-16.89,-21.97 -6.35,-52.82 -8.89,-78.6 5.72,0.77 17.4,2.29 23.11,3.05l1.65 -13.46c106.41,6.99 212.81,-6.47 319.21,-2.03 -0.25,8.76 -0.88,26.29 -1.14,35.05 -30.22,36.18 -65.14,68.31 -93.45,105.89 -4.45,4.06 -13.08,11.94 -17.53,16 -11.04,12.82 -21.96,25.78 -32.63,38.73 42.29,-1.52 84.69,-0.89 127.1,-2.29 41.4,11.43 27.81,57.01 28.95,88.89 -31.11,1.52 -62.08,2.53 -92.69,7.1 -83.67,5.97 -167.73,10.29 -251.4,4.7 0.25,-9.65 0.89,-29.07 1.14,-38.72l13.46 0.37 -1.65 -10.53c23.62,-23.75 46.34,-48.51 67.67,-74.41 8.64,-8.38 17.65,-16.63 26.92,-24.63 2.67,-4.83 8.13,-14.6 10.8,-19.43l11.93 0.89c-0.51,-12.57 -0.89,-25.27 -1.27,-37.97 -42.66,6.74 -90.28,22.61 -131.29,1.4z"/>
  <g>
   <path class="fil0" d="M5763.33 3095.57c-25.14,-50.41 -1.4,-105.39 -1.78,-158.34 9.4,-13.46 18.79,-26.92 28.19,-40.63 3.18,-3.56 9.52,-10.66 12.7,-14.22 21.71,-14.73 43.68,-29.97 71.1,-31.62l0 -9.14c36.44,0.13 73.14,-0.76 109.71,1.52 16,12.96 37.2,9.53 56.5,10.04 1.14,31.74 39.49,42.41 50.66,69.7 32,75.3 20.95,173.58 -44.31,228.18 -11.43,6.34 -22.85,12.95 -33.9,19.55 -54.35,19.05 -115.68,18.92 -169.64,-1.14 -6.09,-3.56 -18.28,-10.92 -24.5,-14.48 -13.59,-15.11 -28.45,-28.95 -45.46,-39.99 1.02,-4.83 2.79,-14.35 3.81,-19.18l-13.08 -0.25 0 0zm86.34 -53.97c4.19,6.61 12.7,19.81 16.89,26.42 11.3,5.96 22.73,11.8 34.28,17.52l0.13 11.3c29.97,-3.81 59.3,-11.17 88.75,-18.16 0,-3.56 -0.12,-10.66 -0.12,-14.22 19.42,-21.2 25.14,-49.39 24,-77.58 -9.91,-13.08 -19.56,-26.16 -29.34,-39.36 -6.22,-3.56 -18.66,-10.67 -24.88,-14.22 -19.3,-0.51 -38.35,-1.53 -57.4,-2.54 -41.14,21.46 -63.99,64.63 -52.31,110.84z"/>
  </g>
  <path class="fil0" d="M6152.25 1842.59c-22.86,-6.34 -27.3,-31.49 -37.2,-49.64 7.49,-3.94 22.34,-11.68 29.84,-15.62 103.73,-1.27 207.47,-3.81 310.83,-13.58 3.8,7.49 11.42,22.21 15.23,29.58 0.13,18.79 0.26,37.46 0.64,55.99 -14.6,3.81 -28.95,7.88 -43.17,11.94 -32.51,1.01 -64.89,0.89 -97.27,-0.26 4.45,5.97 13.34,18.16 17.65,24.13 22.48,15.62 49.14,34.16 48.13,65.14l-21.08 8.89c-2.16,4.82 -6.35,14.6 -8.38,19.42l-10.41 -0.25c-1.27,7.11 -3.56,21.2 -4.7,28.19 39.61,-2.16 79.36,-1.78 119.1,-3.3 14.09,26.02 22.1,65.13 2.92,89.26 -32,2.92 -64.76,0 -95.48,10.54 -80.5,4.57 -161.13,2.03 -241.51,5.46 1.53,-11.56 4.7,-34.79 6.22,-46.35 34.67,-26.28 62.6,-60.06 93.97,-90.15 10.79,-10.03 22.09,-19.93 34.15,-28.95 -4.57,0.13 -13.71,0.38 -18.28,0.63 0.88,-3.55 2.79,-10.41 3.81,-13.83 -4.2,-2.8 -12.57,-8.38 -16.89,-11.31 -27.81,-24.37 -54.85,-50.15 -85.96,-70.47l-2.16 -5.46z"/>
  <path class="fil0" d="M6141.84 2219.2c0,-25.4 -0.38,-50.92 -0.26,-76.57 99.93,5.59 203.79,-34.28 300.68,3.43 61.58,52.31 74.4,146.53 27.68,212.81 -16.64,12.95 -33.4,25.77 -50.28,38.09 -39.75,1.65 -79.87,1.4 -118.85,9.78 -49.27,3.55 -98.53,3.3 -147.8,2.28 -0.76,-28.44 -0.38,-57.14 1.14,-85.83 70.09,-4.32 140.44,-1.27 210.65,-5.33 6.48,-3.43 19.3,-10.03 25.78,-13.33 4.44,-6.48 13.2,-19.56 17.65,-26.03 -2.41,-15.11 -0.13,-32.64 -11.56,-44.96 -20.19,-24.63 -55.87,-11.93 -83.29,-15.11 -57.39,-2.53 -116.31,27.56 -171.54,0.77z"/>
  <path class="fil0" d="M6157.71 2526.98c-1.4,-27.43 -2.67,-54.72 -4.57,-82.28 68.44,-19.93 141.19,-5.58 211.28,-14.85 44.7,-6.86 90.15,-7.24 135.35,-5.97 3.43,22.09 -1.77,39.87 -15.61,53.46l-0.26 5.84c-36.69,40.5 -77.19,77.7 -109.83,121.64 -3.56,3.55 -10.54,10.79 -14.09,14.47 5.71,9.02 11.3,18.03 16.88,26.92 2.04,-4.7 6.1,-14.35 8.13,-19.17 41.65,-3.94 83.55,-2.8 125.32,-1.91 3.3,29.33 3.56,58.66 0.26,87.74 -36.06,1.9 -72.38,2.16 -107.55,10.41 -76.06,3.05 -151.99,2.67 -227.92,6.73 -6.47,-35.17 12.57,-60.95 34.79,-85.07 15.88,-15.11 31.37,-30.73 46.35,-46.98l-1.78 -7.62 12.7 -4.06 3.05 -13.21 12.82 3.3 -3.42 -16.5 15.99 3.04c-0.51,-5.96 -1.52,-17.65 -2.03,-23.61 7.87,-1.4 23.49,-4.07 31.23,-5.46 -8.12,-6.1 -15.86,-12.45 -23.48,-19.05 -43.17,22.86 -96.5,9.02 -143.61,12.19z"/>
  <g>
   <path class="fil0" d="M6382.2 3413.13c-8.25,-30.98 -14.22,-63.23 -5.21,-94.85 6.99,-25.52 28.44,-40.89 49.01,-55.49 55.36,-5.84 111.36,-7.11 166.59,0 148.31,25.65 296.23,53.2 443.77,82.15 41.91,11.3 85.08,16.38 127.36,26.16 20.95,3.94 42.28,7.24 63.49,11.55 46.34,9.53 93.19,16.89 139.79,25.53 75.05,15.36 152.12,29.07 228.94,18.66 22.34,1.02 16.5,-25.9 23.11,-39.49 -75.81,-60.95 -170.91,-93.07 -262.33,-122.4 -94.21,-6.35 -189.83,-15.36 -278.45,-50.66 -46.73,-11.43 -86.98,-37.71 -129.26,-59.17 -27.55,-19.81 -54.35,-40.63 -80.38,-62.47 -11.04,-10.16 -21.96,-20.32 -33.01,-30.48 -23.87,-24.25 -44.31,-51.67 -62.34,-80.62l-7.37 -0.89c-5.08,-19.05 -14.09,-36.7 -24.89,-53.21 -11.93,-25.77 -22.34,-52.31 -33.64,-78.46 -25.52,-95.87 -34.03,-201.77 9.01,-293.95 7.24,-5.2 21.84,-15.49 29.08,-20.57 35.3,19.43 64.25,48.13 82.15,84.57 -23.75,48.25 -59.68,91.42 -68.94,145.63 -11.81,36.19 -1.15,73.65 5.46,109.46 24.25,47.23 65.64,83.04 113.13,105.76 98.4,46.73 206.2,68.06 312.1,90.79 132.94,24.25 273.5,41.65 404.92,-0.38 23.23,-6.22 30.47,-31.49 36.57,-51.93 -15.88,-12.57 -30.35,-27.68 -49.14,-35.68 -98.79,-45.84 -206.97,-65.65 -313.88,-82.15 -110.85,-21.84 -222.71,-38.35 -333.18,-62.47 -25.27,-9.53 -50.54,-18.92 -76.57,-25.78 -15.23,-15.62 -29.71,-31.87 -43.29,-48.88 -2.92,-45.59 13.07,-89.14 42.15,-124.06 13.59,1.02 27.43,2.04 41.27,3.05 170.65,45.96 346.38,69.84 519.95,102.72 42.41,11.94 86.85,8 130.41,9.4 11.8,-9.02 21.83,-19.81 29.83,-32.38 -9.01,-29.97 -38.47,-45.08 -64.63,-57.14 -79.48,-41.14 -165.19,-67.55 -248.61,-99.04 -100.82,-43.04 -211.03,-55.36 -318.45,-71.87 -45.33,-12.06 -91.55,-19.3 -137.76,-26.66 -25.78,-7.87 -51.43,-15.87 -77.58,-22.35 -37.46,-12.44 -69.33,-35.3 -93.71,-66.28 -2.29,-26.03 -1.91,-52.06 0.38,-78.21 3.3,-6.86 9.9,-20.45 13.21,-27.3 4.69,-5.97 9.39,-12.06 14.34,-18.16 40,1.53 78.73,11.81 117.58,20.7 177.25,36.44 355.14,69.58 533.41,101.19 80,8.89 164.05,46.1 243.41,18.29 0.51,-5.46 1.78,-16.51 2.29,-21.97 -39.62,-67.67 -111.48,-104.49 -178.91,-138.65 -103.35,-46.86 -212.55,-78.72 -321.49,-109.07 -37.46,-8.51 -74.66,-17.91 -111.61,-27.94 -68.44,-11.93 -135.86,-31.74 -205.7,-31.36 -24.12,0.26 -57.39,-3.43 -70.85,20.95 -0.89,11.05 -2.42,33.14 -3.3,44.19 -9.91,-0.51 -29.84,-1.52 -39.74,-2.16 -4.2,-14.85 -9.91,-29.2 -16.89,-43.04 -2.79,-42.28 -14.35,-91.04 12.82,-128.12 23.62,-34.03 67.93,-40.51 104.76,-52.57 29.96,-0.38 60.05,-0.63 90.15,0.64 72.37,14.09 145.38,26.92 215.22,51.55 88.88,28.44 173.31,69.2 252.42,118.46 126.59,83.68 244.55,184.75 331.15,310.2 28.82,41.14 53.71,104.25 18.41,148.56 -66.28,55.99 -160.63,36.44 -239.86,38.47 89.01,43.81 192.24,72.13 258.65,150.59 42.03,52.44 28.7,136.12 -32.76,167.1 -27.94,8.64 -56.5,15.74 -85.58,18.41 -0.63,4.45 -2.16,13.46 -2.92,17.9 55.36,15.62 109.2,42.54 147.41,86.48 38.35,50.78 29.33,131.92 -21.33,171.15 -23.36,20.07 -51.17,33.4 -77.96,47.62 -41.39,11.68 -84.18,15.62 -126.08,23.49 96.11,53.96 224.1,85.45 269.31,198.97 -0.13,10.54 -0.51,31.61 -0.64,42.28 -3.05,7.24 -9.26,21.71 -12.31,28.95 -34.92,52.95 -99.68,62.47 -156.69,74.4 -34.92,2.04 -69.71,2.16 -104.5,0.89 -35.68,-7.61 -71.74,-11.68 -107.93,-13.58 -2.41,76.94 8.77,153 14.23,229.31 54.85,10.54 108.05,28.19 159.85,49.01 78.86,33.65 153.52,78.73 214.08,140.06 34.54,40.37 65.52,84.18 80.38,135.98 15.62,57.52 20.95,120.76 -5.84,175.86 -21.84,38.1 -56.63,66.92 -96.5,84.18 -88.38,17.53 -176.24,-28.82 -228.55,-98.27l-4.07 -2.42c-3.55,-3.93 -10.79,-11.8 -14.47,-15.74 -33.91,-48.5 -61.21,-101.45 -82.54,-156.68 -14.98,-44.95 -29.2,-90.28 -36.57,-137.14 -18.53,-4.82 -37.32,-9.26 -55.61,-13.83 -76.95,-8.51 -152.24,-27.3 -229.19,-35.68 -126.21,-22.99 -252.67,-44.7 -379.39,-64.89 -54.98,-10.79 -110.22,-21.08 -166.21,-23.74 -33.39,-8.77 -68.06,-8.89 -101.96,-14.1 -12.82,-37.71 -7.62,-78.09 -5.84,-117.19 14.6,-18.92 32.63,-35.81 56.88,-41.27 59.17,-9.91 119.74,-3.81 178.91,3.3 190.59,37.84 381.56,74.28 574.05,101.07 30.72,9.14 63.1,10.92 95.1,12.7 0.38,-73.65 2.66,-148.56 -13.97,-220.93 -104.12,-21.72 -209.5,-36.45 -312.99,-60.82 -23.87,-3.56 -47.87,0.38 -71.74,-0.89 6.86,-4.83 13.97,-9.78 21.33,-14.6 -38.98,3.3 -76.31,-9.27 -113.89,-17.02 -115.17,-22.98 -231.1,-42.66 -347.66,-56.76 -30.85,-2.41 -62.34,-1.9 -91.16,-14.47l0 0zm1070.64 771.49c34.92,56.25 71.36,113.89 130.91,147.16 6.6,3.3 19.68,9.78 26.15,13.08 30.99,14.86 66.67,13.97 99.93,8.89 36.06,-13.59 57.65,-47.87 67.81,-83.68 -6.48,-17.01 -12.19,-34.28 -17.78,-51.55 -76.69,-129.89 -233.63,-169.25 -364.04,-221.44 -2.66,6.85 -5.2,13.71 -7.61,20.44 16.63,57.52 37.96,113.39 64.63,167.1z"/>
  </g>
  <path class="fil0" d="M6652.15 1619.12c-36.07,-67.17 -51.56,-142.72 -38.61,-218.65 19.56,-58.66 65.9,-104.37 127.23,-117.45 23.24,0.13 46.6,0.51 70.09,1.02 28.82,9.27 57.77,18.28 85.96,29.33 125.83,61.46 233.76,156.05 317.69,267.91 25.14,38.6 75.8,72.25 58.28,124.56 -17.14,-10.66 -33.4,-21.96 -49.26,-34.15 -42.41,-75.3 -110.85,-131.17 -185.51,-172.43 -25.91,-11.05 -51.81,-22.22 -77.33,-33.78 -97.52,-29.07 -232.49,-48.5 -300.17,47.11 5.59,54.73 55.36,82.4 99.17,105.01 44.31,20.57 90.66,37.2 138.27,48.25 52.06,22.6 108.69,29.84 163.55,43.04 116.18,26.79 239.59,41.01 356.03,7.49 48,-14.98 90.15,-43.8 120.37,-84.44 8.51,-25.39 13.84,-51.54 12.44,-78.72 -27.42,-84.69 -99.29,-144.37 -174.21,-187.03 -73.13,-40.38 -149.57,-74.91 -228.55,-102.34 -24.38,-9.14 -55.36,-16.12 -59.8,-47.23 91.42,9.77 174.84,52.56 258.52,87.86 130.9,59.17 252.17,166.46 281.5,312.74 4.06,53.96 8.88,113.64 -22.73,160.87 -48,77.71 -137.77,119.74 -226.27,129.51 -159.86,22.1 -321.62,-15.99 -471.07,-71.35 -46.47,-25.27 -91.55,-52.82 -135.35,-82.28 -47.62,-37.71 -87.49,-83.93 -120.24,-134.85z"/>
  <path class="fil0" d="M7933.18 2479.62c-8.89,-208.11 -12.19,-416.47 -8.89,-624.71 3.3,-5.59 9.9,-16.63 13.33,-22.22 22.48,12.83 27.17,38.98 32.38,61.96 56,235.29 99.55,473.36 137.13,712.32 5.46,42.67 19.05,84.32 17.91,127.74 -27.94,-16.51 -47.24,-43.17 -71.36,-63.99 -32.89,-18.54 -72.38,-7.5 -107.8,-5.85 -16.64,-60.31 -8.13,-123.41 -12.7,-185.25z"/>
  <path class="fil0" d="M8087.2 3698.82c-63.62,-276.93 -113.9,-556.91 -156.18,-837.9 38.6,12.06 56,55.49 96.12,64.89 28.06,15.61 66.41,-13.97 89.51,11.04 10.54,101.45 1.78,204.05 13.08,305.63 4.7,171.16 8,342.44 1.65,513.6 -36.06,12.19 -36.44,-33.64 -44.18,-57.26z"/>
  <path class="fil0" d="M7979.27 2848.22c-26.16,-23.23 -30.6,-59.29 -35.3,-91.92 35.93,-70.09 137.39,-38.73 159.61,25.9 13.2,27.68 4.19,58.03 -11.3,82.4 -37.46,10.67 -83.68,13.84 -113.01,-16.38z"/>
 </g>
</svg>
