<?xml version="1.0" encoding="UTF-8"?>
<!DOCTYPE svg PUBLIC "-//W3C//DTD SVG 1.1//EN" "http://www.w3.org/Graphics/SVG/1.1/DTD/svg11.dtd">
<!-- Creator: CorelDRAW 2020 (64 Bit) -->
<svg xmlns="http://www.w3.org/2000/svg" xml:space="preserve" width="85mm" height="54mm" version="1.1" style="shape-rendering:geometricPrecision; text-rendering:geometricPrecision; image-rendering:optimizeQuality; fill-rule:evenodd; clip-rule:evenodd"
viewBox="0 0 8500 5400"
 xmlns:xlink="http://www.w3.org/1999/xlink"
 xmlns:xodm="http://www.corel.com/coreldraw/odm/2003">
 <defs>
  <style type="text/css">
   <![CDATA[
    .fil0 {fill:#FEFEFE;fill-rule:nonzero}
   ]]>
  </style>
 </defs>
 <g id="Camada_x0020_1">
  <metadata id="CorelCorpID_0Corel-Layer"/>
  <g id="_1798044056560">
   <g>
    <path class="fil0" d="M-269.91 -31.04c269.01,-2.36 538.11,1.28 807.13,0.37 17.53,1.45 37.34,-3.73 52.78,6.99 975.02,585.18 1950.14,1170 2924.98,1755.35 -0.09,-587.99 -0.09,-1175.89 0,-1763.89 101.39,0.82 202.78,-1.63 304.17,1.36 -2.72,725.55 0.46,1451.09 -1.63,2176.64 -1363.05,0.54 -2726.2,0.36 -4089.25,0l0 -360.59c727.27,0.18 1454.45,0.36 2181.72,-0.09 -241.39,-148.09 -485.51,-291.82 -728,-438.18 -399.66,-239.94 -799.5,-479.61 -1199.15,-719.55 -85.13,-49.97 -168.63,-102.84 -254.57,-151.27l0 -205.6c266.29,163.63 536.12,321.62 803.58,483.61 563.56,338.15 1127.75,676.57 1691.49,1014.91 11.99,7.08 24.44,15.53 39.25,13.81 163.17,-1 326.25,2.81 489.32,-1.1 -731.9,-441.54 -1465.8,-879.9 -2198.34,-1320.53 -274.92,-163.35 -547.48,-330.79 -823.48,-492.24z"/>
    <path class="fil0" d="M4723.04 -31.58c101.57,-1.36 203.24,-0.36 304.81,-0.64 0.73,588 0.45,1175.99 0.18,1764.08 976.12,-586.36 1952.68,-1171.72 2928.89,-1757.81 11.17,-8.99 25.89,-5.81 39.34,-6.45 102.66,1.64 205.5,-2.45 308.08,2.27 -597.63,354.96 -1192.26,715.19 -1788.97,1071.79 -338.06,203.23 -676.39,406.01 -1014.64,608.98 -72.13,44.24 -146,85.58 -216.95,131.64 159.08,2.18 318.25,-1.09 477.43,0.55 15.35,-0.28 32.52,2.17 45.79,-7.73 628.42,-377.3 1256.48,-755.34 1884.9,-1132.56 369.41,-223.68 741.26,-443.45 1109.85,-668.49 2.91,-2 8.81,-5.9 11.72,-7.81l0 533.48 -7.27 -20.62c-587.54,353.96 -1176.26,706.1 -1764.34,1059.15 -135.65,82.95 -273.92,161.9 -408.29,246.85 714.73,0.45 1429.46,0.09 2144.11,0.27 11.81,-0.46 23.8,-1.45 35.79,-2.82l0 365.23c-12.17,-1 -24.17,-1.64 -36.16,-1.82 -1350.15,0.27 -2700.39,0 -4050.55,0.18 -1.08,-693.29 -0.09,-1386.58 -0.45,-2079.87 -0.27,-32.62 1.91,-65.42 -3.27,-97.85z"/>
    <path class="fil0" d="M-271.73 3235.73c27.07,4.54 54.51,2.91 81.77,2.91 1336.06,0.54 2671.95,-0.82 4008.02,0.54 0.64,726.82 -0.91,1453.55 0.73,2180.36 -101.39,-4.09 -203.05,-0.18 -304.54,-2 2.46,-586.45 -1.36,-1172.9 1.82,-1759.26 -12.9,1.73 -23.44,10.18 -34.43,16.36 -946.5,567.91 -1892.9,1135.92 -2839.49,1703.74 -20.17,11.82 -40.88,23.08 -58.96,38.07 -114.12,-1.54 -228.32,2.27 -342.33,-1 961.48,-574.18 1920.79,-1152.27 2881.55,-1727.73 40.88,-27.35 86.95,-47.43 124.74,-78.95 -165.08,-1.82 -330.16,0.09 -495.24,-1 -284,165.8 -564.91,337.7 -847.92,505.59 -674.03,404.29 -1348.33,808.22 -2022.82,1211.78 -47.61,29.8 -97.57,55.97 -143.82,88.04l-9.08 5.45 0 -509.31c101.03,-54.79 197.42,-117.84 296.72,-175.62 628.24,-377.49 1257.3,-753.53 1885,-1131.84 -560.56,-3.63 -1121.3,-0.54 -1681.85,-1.54 -166.63,1.45 -333.43,-3.09 -499.87,2.27l0 -366.86z"/>
    <path class="fil0" d="M4726.67 3238.91c1341.16,-0.27 2682.32,-0.18 4023.48,-0.18 20.89,-1.09 43.42,3.72 63.32,-5.27l0 370.04c-99.85,-7.36 -200.33,-1.18 -300.45,-3.18 -438.81,0 -877.54,0 -1316.35,0 -188.16,1.18 -376.4,-2.36 -564.38,1.73 727.19,435.72 1453.46,873.08 2181.18,1307.99l0 202.97c-782.96,-468.98 -1565.2,-939.14 -2347.89,-1408.48 -59.32,-34.35 -116.47,-72.68 -177.34,-104.03 -121.38,-2 -242.94,-0.18 -364.41,-0.82 -45.7,0.64 -91.58,-2.9 -136.91,3.28 940.22,564.91 1881.36,1128.38 2821.77,1693.11 67.69,38.43 132.1,82.68 201.6,117.84 -13.9,4.54 -28.53,3.91 -42.79,4 -266.47,-0.46 -533.03,0.18 -799.5,-0.82 -429,-253.93 -855.46,-512.86 -1283.55,-768.61 -552.11,-331.16 -1103.86,-662.95 -1656.33,-993.47 0.46,587.45 -0.27,1174.99 0.37,1762.44 -101.94,-0.09 -203.97,2.09 -305.81,-1.09 5.36,-32.34 3.36,-65.14 3.63,-97.66 0.27,-693.3 -0.54,-1386.59 0.36,-2079.79z"/>
   </g>
  </g>
 </g>
</svg>
