<?xml version="1.0" encoding="UTF-8"?>
<!DOCTYPE svg PUBLIC "-//W3C//DTD SVG 1.1//EN" "http://www.w3.org/Graphics/SVG/1.1/DTD/svg11.dtd">
<!-- Creator: CorelDRAW 2020 (64 Bit) -->
<svg xmlns="http://www.w3.org/2000/svg" xml:space="preserve" width="84.6666mm" height="53.34mm" version="1.1" style="shape-rendering:geometricPrecision; text-rendering:geometricPrecision; image-rendering:optimizeQuality; fill-rule:evenodd; clip-rule:evenodd"
viewBox="0 0 8466.66 5334"
 xmlns:xlink="http://www.w3.org/1999/xlink"
 xmlns:xodm="http://www.corel.com/coreldraw/odm/2003">
 <defs>
  <style type="text/css">
   <![CDATA[
    .fil0 {fill:#FEFEFE;fill-rule:nonzero}
   ]]>
  </style>
 </defs>
 <g id="Camada_x0020_1">
  <metadata id="CorelCorpID_0Corel-Layer"/>
  <g id="_2718612342784">
   <g id="__x0023_ffffffff">
   </g>
   <g id="__x0023_000000ff">
   </g>
   <g id="__x0023_828287ff">
    <path class="fil0" d="M8046.77 307.08c15.15,-18.74 51.29,-15.6 61.06,7.41 118.86,205.51 118.75,474.67 -2.92,678.94 -14.93,26.83 -62.18,23.8 -69.59,-6.96 -8.87,-24.58 10.78,-45.9 19.31,-67.45 86.31,-168.59 83.84,-378.59 -5.05,-545.6 -10.33,-20.43 -26.72,-48.38 -2.81,-66.34z"/>
    <path class="fil0" d="M7767.51 454.79c20.99,-14.26 53.66,-17.85 67.57,7.97 73.64,116.28 69.26,274.65 -6.06,389.14 -16.61,19.08 -49.49,18.52 -62.96,-3.71 -16.05,-19.41 -1.46,-42.76 8.19,-61.05 38.5,-68.7 46.13,-154.11 18.97,-228.3 -10.89,-34.35 -40.86,-66 -25.71,-104.05z"/>
    <g>
     <path class="fil0" d="M1350.48 555.69c63.76,2.7 128.86,-6.51 191.71,5.73 74.3,20.2 81.15,137.6 12.12,169.48 80.81,27.16 71.05,160.51 -9.99,179.48 -63.19,14.36 -129.07,3.92 -193.39,7.07 -1.68,-120.55 -0.67,-241.21 -0.45,-361.76l0 0zm83.85 66.56c-0.79,25.93 -0.79,51.75 -0.23,77.56 27.16,-2.81 62.18,4.15 81.26,-20.76 5.05,-14.48 0.12,-29.75 -1.12,-44.45 -25.81,-8.76 -52.86,-11.79 -79.91,-12.35l0 0zm-0.79 142.88c0,27.84 0,55.79 0.23,83.74 25.25,-1.24 52.97,4.94 76.09,-7.97 26.61,-15.72 22.56,-63.76 -7.96,-72.4 -22.34,-5.27 -45.57,-3.03 -68.36,-3.37z"/>
    </g>
    <path class="fil0" d="M2925.45 717.77c29.52,-75.43 133.34,-97.43 198.21,-55.11 2.14,21.21 -13.8,39.62 -20.09,59.26 -29.18,-7.85 -64.31,-16.84 -88.89,6.74 -25.93,32.1 -26.38,87.09 9.09,112.57 23.12,18.86 54.1,12.12 80.25,4.49 8.42,18.97 18.19,37.38 29.74,54.67 -59.37,38.94 -153.88,32.43 -195.74,-29.75 -29.41,-44.34 -30.42,-103.82 -12.57,-152.87z"/>
   </g>
   <g id="__x0023_8b8b8dff">
    <g>
     <path class="fil0" d="M347.27 952.47c1.02,-210.79 -1.79,-421.58 1.58,-632.26 222.12,1.57 444.47,0.11 666.71,0.68 55.44,0 115.94,23.34 143.66,74.07 21.44,36.14 19.53,79.58 19.53,120.1 -1.23,212.81 1.69,425.62 -1.46,638.32 -222.12,-1.58 -444.24,-0.12 -666.26,-0.68 -56.79,0.68 -119.65,-23.46 -145.91,-76.88 -21.44,-37.49 -17.29,-81.94 -17.85,-123.35l0 0zm18.64 -614.41c0.11,185.98 -2.25,371.85 0,557.72 1.79,52.64 -8.65,107.31 8.53,158.26 20.31,54.89 80.81,83.17 136.59,81.71 216.52,-0.67 432.92,0.45 649.32,-0.56 -0.56,-225.38 1.23,-450.87 -0.79,-676.13 -0.11,-69.6 -66.22,-119.88 -132.22,-120.1 -220.44,-1.69 -440.99,0.22 -661.43,-0.9z"/>
    </g>
    <path class="fil0" d="M4281.09 1839.84c45.68,-17.06 66.67,-72.96 114.71,-82.05 -36.59,36.48 -74.42,74.19 -121.67,96.42 -43.21,22 -96.98,0.22 -136.93,30.08 -30.42,21.66 -60.28,44.89 -85.53,72.39 -31.54,31.65 -7.41,85.19 -40.74,115.84 -43.33,46.24 -108.2,58.36 -165.89,77.33 -47.82,12.01 -93.61,33.56 -143.34,36.37 27.17,-26.61 69.26,-23.69 102.7,-38.05 68.02,-25.26 152.2,-31.43 198,-94.74 22.78,-27.04 7.4,-67.23 28.51,-95.4 25.7,-33.78 60.61,-59.04 94.05,-84.63 44.56,-38.27 109.1,-0.79 156.13,-33.56z"/>
    <g>
     <path class="fil0" d="M4183.78 3224.11c51.07,-7.41 126.83,-17.96 151.97,40.4 20.09,41.76 -8.31,83.4 -43.21,105.28 43.32,32.33 43.66,92.94 54.1,141.65 -38.16,-15.26 -24.8,-68.69 -42.2,-99.89 -15.83,-41.64 -66.22,-37.27 -102.37,-36.81 -5.5,46.01 12.01,98.09 -11,139.85 -5.95,-15.38 -8.53,-31.32 -7.74,-47.82 0.67,-80.92 -0.11,-161.85 0.45,-242.66l0 0zm21.88 11.89c-6.39,40.52 -2.69,81.6 -4.04,122.46 33.12,-1.24 72.18,7.97 98.89,-17.17 26.93,-20.54 28.17,-64.88 4.49,-88.23 -27.95,-23.01 -66,-16.83 -99.34,-17.06z"/>
    </g>
    <path class="fil0" d="M4632.4 3218.38c5.5,2.25 16.5,6.62 22,8.76 53.99,81.26 106.97,163.42 160.28,245.13 -3.25,-83.39 -1.12,-166.79 -2.13,-250.18 4.38,-0.45 13.25,-1.24 17.62,-1.57 6.74,55.89 -1.91,112.12 1.46,168.13 2.58,40.97 0.23,82.16 -3.93,123.02 -30.86,-16.28 -41.64,-52.42 -61.84,-78.57 -40.29,-57.8 -74.87,-119.31 -116.17,-176.22 -1.35,82.95 3.59,166.23 -1.46,249.06 -3.82,1.01 -11.34,3.03 -15.15,4.04 -2.25,-97.2 -1.35,-194.4 -0.68,-291.6z"/>
    <path class="fil0" d="M5601.27 3222.87c6.06,-0.33 18.29,-1.01 24.35,-1.35 29.86,82.28 63.42,163.43 89.12,247.16 12.13,-7.18 13.92,-22.22 18.86,-34.24 23.79,-71.49 53.99,-140.52 79.24,-211.46 6.4,-0.56 19.31,-1.68 25.7,-2.35 7.97,95.29 11.79,190.92 19.54,286.32 -4.95,-0.11 -14.71,-0.44 -19.54,-0.56 -5.38,-84.52 -12.46,-169.03 -14.48,-253.78 -39.39,84.3 -65.1,174.99 -104.04,259.73 -3.71,-5.05 -11,-15.04 -14.71,-20.09 -27.5,-73.18 -54.55,-146.59 -80.47,-220.33l-9.54 -7.07c-1.68,81.49 -9.99,162.64 -14.26,244.12 -11.89,0.23 -18.07,-5.05 -18.74,-15.94 6.62,-90.01 13.02,-180.03 18.97,-270.16z"/>
   </g>
   <g id="__x0023_818387ff">
    <path class="fil0" d="M7897.26 413.48c-5.16,-37.71 49.5,-57.46 70.6,-27.27 97.21,160.05 97.77,375.44 -2.69,534.15 -23.23,31.99 -66.67,9.32 -73.85,-23.57 58.47,-101.01 87.21,-221.67 60.94,-337.17 -8.3,-52.19 -37.37,-97.2 -55,-146.14z"/>
   </g>
   <g id="__x0023_828387ff">
    <path class="fil0" d="M577.93 549.07c75.09,-112.35 253.33,-110.56 343.35,-17.17 0.78,6.17 2.46,18.4 3.36,24.58 -73.85,-66.33 -191.48,-68.13 -270.83,-10.44 96.75,0 199.22,5.84 283.74,58.36 38.27,24.47 76.99,62.64 73.63,111.91 -4.15,65.1 -65.44,111.12 -124.48,126.05 18.08,-37.38 66.11,-57.25 68.58,-103.38 7.07,-41.98 -26.6,-73.18 -57.24,-95.29 -81.82,-53.99 -183.85,-64.65 -279.37,-55.79 -46.8,77.56 -29.18,173.64 11.56,249.63 -32.1,-7.63 -46.02,-41.75 -61.95,-67.12 -27.73,-52.3 -30.76,-113.93 -18.19,-170.94 -24.13,8.64 -49.04,17.17 -75.09,14.59 29.97,-29.07 80.71,-27.28 102.93,-64.99z"/>
    <path class="fil0" d="M7634.51 548.28c-0.9,-37.03 51.29,-53.53 71.83,-22.89 50.96,72.95 51.86,176.78 1.91,250.41 -8.19,13.47 -24.02,18.52 -36.59,26.26 -21.1,-8.3 -47.48,-24.92 -38.05,-51.85 14.48,-32.22 35.58,-63.76 32.78,-100.79 2.91,-37.27 -23.12,-66.9 -31.88,-101.14z"/>
    <g>
     <path class="fil0" d="M2290.05 554.57c26.38,0 52.64,-0.34 78.9,-1.12 3.71,121.33 0.79,242.66 1.58,363.88 -24.47,0.23 -48.83,0.12 -73.18,-0.11 0.11,-7.86 0.33,-23.68 0.56,-31.54 -36.14,39.17 -101.13,54.77 -143.33,16.28 -48.04,-49.39 -54.22,-128.97 -32.22,-191.71 15.72,-37.49 50.74,-75.43 95.3,-68.58 30.19,-1.12 53.98,18.41 72.84,39.62 0.22,-42.2 0.11,-84.52 -0.45,-126.72l0 0zm-70.37 165.56c-39.4,28.73 -36.71,108.42 8.64,129.52 89.9,20.65 78.68,-171.16 -8.64,-129.52z"/>
    </g>
    <g>
     <path class="fil0" d="M1866.45 658.51c44,-14.71 92.83,-24.81 138.17,-10.11 34.23,11.57 58.59,44.11 62.07,79.69 5.5,62.86 -2.35,126.16 5.95,188.91 -25.37,0.22 -50.62,0.45 -75.88,1.12 -0.78,-7.3 -2.35,-21.89 -3.14,-29.19 -26.37,32.44 -72.28,46.25 -110.89,27.39 -58.37,-24.13 -61.85,-116.84 -10.1,-149.84 35.91,-23.79 80.92,-19.53 121.78,-18.74 -7.52,-63.76 -88,-45.68 -128.07,-25.26 0.11,-21.32 0.23,-42.65 0.11,-63.97l0 0zm40.86 170.6c7.97,15.94 18.41,35.92 40.18,30.87 34.23,2.47 53.88,-31.99 47.82,-62.74 -32.33,-4.83 -75.66,-6.18 -88,31.87z"/>
    </g>
    <g>
     <path class="fil0" d="M2487.48 650.2c45.57,-16.72 105.17,-10.66 136.04,30.42 28.17,36.92 30.3,84.96 30.64,129.41 -55.22,2.7 -111,-4.71 -165.78,4.04 22,60.05 95.85,55.11 142.21,28.85 2.36,22.45 2.58,45.01 0.34,67.57 -45.46,12.46 -95.74,23.23 -140.76,3.14 -103.82,-42.76 -106.4,-219.54 -2.69,-263.43l0 0zm3.82 106.74c30.3,0.22 60.72,0.22 91.14,0.22 -3.93,-15.15 -7.75,-30.3 -11.45,-45.45 -16.16,-5.73 -33.56,-15.49 -50.73,-7.41 -21.44,8.42 -23.8,33.56 -28.96,52.64z"/>
    </g>
    <path class="fil0" d="M762 1028.68c1.91,-94.06 -2.58,-188.34 2.7,-282.18 21.1,0.56 42.42,0.9 63.64,1.13 -0.79,93.94 1.35,188 -0.9,281.95 -21.78,-0.46 -43.66,-0.68 -65.44,-0.9z"/>
   </g>
   <g id="__x0023_000102ff">
   </g>
   <g id="__x0023_838386ff">
    <path class="fil0" d="M1728.62 693.3c16.95,-35.47 50.29,-60.16 91.37,-51.41 0.56,25.48 0.78,50.85 1.01,76.33 -31.54,-4.38 -68.58,3.59 -78.57,38.27 -12.35,52.08 -4.27,106.41 -5.73,159.49 -27.72,1.91 -55.45,1.91 -83.06,-0.33 1.91,-89.68 0.45,-179.36 0.9,-269.04 24.47,0.34 49.05,0.56 73.63,0.56 0.12,15.38 0.34,30.75 0.45,46.13z"/>
    <path class="fil0" d="M3269.8 3222.54c67.57,-4.83 135.59,-0.68 203.38,-1.46 -0.56,4.37 -1.46,13.01 -1.91,17.28 -29.97,-0.56 -59.93,-0.67 -89.79,-0.22 -3.48,91.25 5.39,183.29 -4.6,273.98l-15.6 -9.77c-2.92,-87.88 -0.45,-176.1 -0.9,-264.1 -32.89,-0.11 -65.77,0.22 -98.55,-2.58l7.97 -13.13z"/>
   </g>
   <g id="__x0023_828286ff">
    <path class="fil0" d="M2721.84 661.2c41.98,-29.97 96.53,-19.87 142.55,-6.06 0.33,20.99 0.67,41.98 1.01,62.97 -31.77,-7.97 -64.43,-20.1 -97.21,-9.77 0.23,7.41 0.68,22.11 0.91,29.41 33.89,13.02 75.08,16.27 100,45.34 27.05,40.3 17.85,105.62 -28.06,128.41 -45.79,22.22 -98.32,11.78 -145.01,-1.58 -0.34,-21.55 -0.68,-43.21 -0.9,-64.76 32.88,7.19 89.45,37.04 110.22,-3.25 -8.53,-31.43 -48.94,-30.31 -73.18,-43.66 -56.01,-19.65 -55.67,-105.96 -10.33,-137.05z"/>
   </g>
   <g id="__x0023_818286ff">
    <g>
     <path class="fil0" d="M3242.64 645.15c44,-9.54 93.16,-1.35 128.07,28.28 67,63.87 57.13,196.09 -29.3,238.4 -47.59,19.98 -107.08,17.4 -148.61,-15.26 -82.49,-65.55 -59.82,-228.63 49.84,-251.42l0 0zm11.45 67.68c-33.9,27.61 -30.76,80.81 -17.96,118.42 14.93,38.16 78.34,36.02 87.21,-5.39 22.9,-47.14 -0.9,-142.88 -69.25,-113.03z"/>
    </g>
   </g>
   <g id="__x0023_010303ff">
   </g>
   <g id="__x0023_000002ff">
   </g>
   <g id="__x0023_7f8386ff">
    <path class="fil0" d="M686.02 823.84c10.1,0.11 30.42,0.33 40.63,0.44 0.45,68.02 0,136.15 0.11,204.17 -10.32,0.11 -30.87,0.45 -41.19,0.56 0.67,-68.46 0.67,-136.82 0.45,-205.17z"/>
   </g>
   <g id="__x0023_8d8d8fff">
    <path class="fil0" d="M3717.87 1758.35c15.71,-0.45 31.42,-0.67 47.25,-0.67 -15.15,19.64 -38.5,35.24 -64.2,34.01 5.5,-11.22 11.22,-22.34 16.95,-33.34z"/>
    <g>
     <path class="fil0" d="M4464.49 1756c27.5,-4.05 36.82,23.45 57.36,34.01 50.39,28.5 103.15,63.08 163.65,58.92 40.29,-2.02 85.07,-11.34 112.23,-44 12.91,-13.91 8.76,-44.22 32.22,-45.34 -5.95,21.66 -20.21,43.44 -10.78,66.33 -62.85,61.29 -161.62,93.72 -245.24,56.91 -45.8,-13.25 -85.98,-50.28 -134.8,-48.04 -56.35,25.48 -106.41,62.63 -161.86,90.02 -54.43,26.26 -105.73,58.14 -157.36,89.34 -40.4,24.69 -63.52,68.24 -101.69,95.74 -8.08,5.5 -16.05,11.11 -23.9,16.84 -93.84,41.3 -194.07,66.56 -291.83,96.86 2.69,-4.49 8.08,-13.35 10.77,-17.85 73.75,-26.59 149.96,-46.24 224.26,-71.38 43.44,-14.93 84.29,-40.29 112.02,-77.67 17.96,-22.22 29.52,-52.64 58.59,-62.97 50.06,-20.31 90.91,-58.36 142.88,-74.19 65.21,-23.46 119.31,-68.8 181.83,-97.76 44.11,-6.4 80.93,25.14 120.43,39.17 58.37,28.4 132.34,39.62 189.69,2.92 -39.96,-1.8 -80.92,5.05 -119.65,-6.96 -39.95,-12.12 -75.2,-35.13 -111.45,-55 -18.86,-11.44 -42.21,-21.99 -47.37,-45.9l0 0zm284.98 98.88c5.05,3.93 5.05,3.93 0,0z"/>
    </g>
    <path class="fil0" d="M4784.83 1983.96c27.38,-28.29 52.3,-63.64 90.8,-77.34 19.87,12.69 -7.41,29.52 -15.15,40.19 -57.02,47.7 -90.24,125.37 -163.65,151.52 -70.04,18.63 -131.1,-28.73 -189.35,-59.49 -48.94,-27.38 -107.19,-15.37 -158.37,-1.57 -115.95,33.11 -197.88,127.4 -300.36,185.54 -83.62,58.47 -187.78,96.41 -241.09,188.9 -39.17,51.63 -55.78,117.85 -100.91,164.66 -0.78,-19.09 2.47,-37.83 12.24,-54.44 38.72,-76.89 73.18,-161.63 141.76,-217.3 103.93,-64.43 210.11,-125.37 311.24,-194.29 78.12,-55.89 169.26,-101.58 267.58,-100.45 82.39,-2.36 140.53,78.11 223.48,72.84 58.81,-3.26 86.98,-60.05 121.78,-98.77z"/>
    <g>
     <path class="fil0" d="M4120.36 2334.37c20.54,-33.56 37.6,-83.73 83.62,-86.2 31.54,15.6 66.11,11 100.01,8.08 9.76,37.83 -21.44,72.96 -10.22,111.24 0,20.54 14.48,49.27 -9.65,61.73 -50.4,1.57 -95.85,-25.48 -137.27,-51.07 -16.84,-8.42 -19.42,-28.29 -26.49,-43.78l0 0zm115.16 -51.4c-18.97,1.9 -35.47,-15.16 -54.44,-8.87 -26.82,8.08 -29.4,39.51 -39.28,61.28 27.27,44.79 83.84,63.42 133.12,71.28 -5.05,-48.83 10.77,-94.62 17.73,-141.99 -19.42,5.16 -38.05,12.57 -57.13,18.3z"/>
    </g>
    <path class="fil0" d="M4820.41 2399.92c18.07,-15.71 42.65,-4.6 61.06,4.27 -0.23,5.95 -0.9,17.84 -1.24,23.91 -16.38,-8.76 -35.35,-22.34 -53.76,-10.33 -16.73,13.47 -28.85,32.1 -36.03,52.19 -21.44,62.41 -63.53,115.27 -111.68,159.27 -58.25,61.96 -140.41,102.92 -226.17,104.16 -66.56,-20.88 -137.15,-6.62 -204.16,4.49 -91.36,16.16 -163.2,81.6 -215.95,154.22 -14.15,17.28 -25.59,42.09 -51.75,42.54 24.58,-42.88 58.48,-79.02 90.47,-116.4 48.15,-64.08 128.85,-94.39 205.74,-105.5 61.62,-4.72 124.36,-9.43 185.31,4.37 115.27,-2.24 194.4,-94.28 268.36,-170.26 31.66,-47.71 44.68,-108.54 89.8,-146.93z"/>
    <path class="fil0" d="M4814.57 2485.56c17.18,-18.07 60.95,-16.5 62.52,13.25 -19.87,-5.17 -48.38,-15.38 -60.5,8.3 -23.12,48.49 -12.01,117.74 -66.56,147.71 -135.13,107.42 -314.72,112.47 -478.37,133.79 -81.15,22.67 -155.12,70.6 -202.82,140.64 -8.3,1.23 -24.91,3.59 -33.22,4.83 43.21,-81.27 122.79,-138.51 207.76,-169.37 120.21,-17.52 246.81,-5.73 361.52,-52.31 51.75,-19.19 96.53,-52.3 141.54,-83.28 48.38,-33 28.62,-104.61 68.13,-143.56z"/>
    <g>
     <path class="fil0" d="M2877.41 3220.96c45.45,0.9 90.91,0 136.37,0.68 -0.45,4.15 -1.46,12.45 -1.91,16.61 -38.5,-1.12 -77,-1.01 -115.49,-0.9 -0.23,36.7 -0.34,73.41 -0.12,110.11 37.83,0 75.77,-0.11 113.59,-0.11 0.34,3.92 0.79,12.01 1.01,15.93 -38.16,0.79 -76.32,0.57 -114.37,-0.33 -0.34,41.64 -0.79,83.39 0.56,125.15 40.74,3.14 83.39,-4.83 123.24,3.81 0.9,3.71 2.69,11.11 3.59,14.82 -49.27,-1.24 -98.55,-0.11 -147.82,-0.79 -0.11,-33.33 -0.22,-66.55 0.22,-99.67 -25.36,-0.11 -50.73,-0.33 -75.98,-0.22 -18.63,35.92 -36.26,72.28 -56.46,107.3 -19.42,-12.23 -1.79,-29.74 3.25,-43.32 44.34,-82.5 84.75,-167.13 130.32,-249.07l0 0zm-66.45 167.35c21.77,1.8 43.66,1.8 65.44,-0.67 -0.68,-41.53 0.22,-83.17 -0.45,-124.7 -24.25,40.41 -45.12,82.61 -64.99,125.37z"/>
    </g>
    <path class="fil0" d="M5114.93 3218.94c4.15,1.35 12.23,4.04 16.39,5.5 3.25,62.18 -2.03,124.59 1.79,186.88 2.25,34.01 19.87,72.85 56.68,80.14 42.99,12.46 91.37,-18.63 95.86,-63.64 7.85,-67.9 -0.68,-136.48 4.15,-204.5l17.28 -4.6c2.58,60.05 1.8,120.1 1.24,180.14 0.45,43.78 -20.65,93.28 -65.66,106.75 -34.35,8.53 -77.67,7.52 -102.37,-21.55 -24.13,-25.59 -26.48,-62.75 -26.37,-95.86 0.22,-56.45 -0.9,-112.91 1.01,-169.26z"/>
   </g>
   <g id="__x0023_919296ff">
    <path class="fil0" d="M3897.11 1769.35c13.92,-9.31 30.53,-12.12 46.92,-14.14 -4.04,8.31 -10.1,14.71 -17.96,19.31 -53.99,33.67 -109.77,64.09 -166.9,91.81 -18.74,8.42 -36.81,22.11 -58.48,19.98 8.08,-14.59 21.33,-24.13 36.37,-30.42 54.88,-25.81 107.64,-55.9 160.05,-86.54z"/>
    <path class="fil0" d="M3784.76 1913.7c78.79,-42.43 141.87,-108.09 218.42,-153.78 6.74,-0.11 20.43,-0.44 27.16,-0.56 -106.63,71.39 -203.04,169.6 -330.88,200.69 25.7,-20.09 56.9,-30.87 85.3,-46.35z"/>
    <path class="fil0" d="M4837.13 2810.05c1.57,-15.83 21.55,-35.13 37.94,-34.12 3.14,18.07 -22.22,32.89 -37.94,34.12z"/>
    <path class="fil0" d="M4728.71 2890.75c52.08,-24.02 100.9,-54.32 152.08,-80.14 5.39,26.83 -26.26,31.21 -42.31,43.1 -60.72,28.06 -116.4,74.08 -184.64,80.48 13.14,-29.18 51.18,-27.05 74.87,-43.44z"/>
    <path class="fil0" d="M4738.14 2930.15c36.81,-30.65 84.51,-45.24 127.95,-64.54 5.39,0.9 16.16,2.69 21.55,3.48 -13.13,20.54 -37.26,26.26 -57.8,36.14 -29.41,12.12 -58.26,33 -91.7,24.92z"/>
   </g>
   <g id="__x0023_cccdcfff">
    <path class="fil0" d="M3707.65 1994.17c139.63,-51.86 243.68,-165.44 373.88,-234.81 -9.1,14.48 -23.46,24.02 -37.04,33.9 -36.59,10.66 -65.44,37.94 -93.72,62.3 -13.02,12.57 -30.76,20.98 -39.74,37.37 -15.71,-2.24 -29.96,9.2 -37.49,22 -0.89,2.58 -2.69,7.63 -3.59,10.21 -17.4,-7.4 -39.51,9.55 -32.66,28.4l-13.02 -10.21c-32.66,27.61 -73.63,47.59 -116.62,50.84z"/>
   </g>
   <g id="__x0023_5a5b5dff">
    <path class="fil0" d="M4062.67 1796.29c25.82,-16.84 50.62,-36.7 81.38,-43.77 -7.86,26.15 -39.06,32.55 -55.23,52.64 45.46,-21.55 85.53,-62.63 140.64,-46.36 -8.53,17.74 -29.75,20.32 -45.23,28.96l1.34 5.5c35.36,-13.13 68.81,-32.89 106.97,-37.6l-8.64 13.58c-56.12,29.63 -120.55,42.2 -173.19,78.68 -47.37,30.53 -82.61,76.66 -106.29,127.28 -18.75,36.37 -31.43,78.35 -63.19,106.07 -39.51,26.83 -88.23,33 -132.79,47.25 -36.36,8.42 -70.93,27.84 -109.09,25.15 62.29,-47.03 151.63,-42.21 213.37,-92.38 30.08,-25.81 45.46,-63.41 66.11,-96.3 19.75,-33.67 46.91,-62.07 69.25,-94.06 -56.12,42.43 -95.85,101.47 -144.01,151.75 -52.75,55.67 -129.63,74.42 -199,100.46 -4.83,-21.67 20.54,-23.57 33.56,-31.09 51.29,-19.87 105.17,-39.51 144.46,-79.69 31.42,-33.45 61.73,-68.02 93.6,-101.13 1.35,-1.57 3.93,-4.61 5.28,-6.06 1.68,-2.02 4.94,-6.06 6.62,-8.09 5.95,-7.18 5.95,-7.18 0,0 -1.68,2.03 -4.94,6.07 -6.62,8.09 -1.35,1.45 -3.93,4.49 -5.28,6.06 -8.08,2.13 -24.13,6.51 -32.21,8.64l-7.86 -9.09c16.5,-11.11 31.88,-23.69 46.92,-36.82 -10.55,3.82 -31.65,11.23 -42.2,15.04l9.43 -33.44c28.28,-24.36 57.13,-51.64 93.72,-62.3l18.18 3.03z"/>
   </g>
   <g id="__x0023_8a8b8dff">
    <g>
     <path class="fil0" d="M4839.94 1802.13c12.46,-16.84 21.88,-38.84 43.21,-46.36 -5.72,29.63 -35.24,50.51 -34.01,81.15l-4.6 -2.47 -4.6 4.72c0.11,1.79 0.45,5.39 0.67,7.18l-0.67 -7.18c2.24,-0.56 6.96,-1.69 9.2,-2.25 7.41,-5.05 22.23,-15.37 29.63,-20.43l3.48 13.36c-41.75,44.45 -99.67,68.24 -150.62,100.01 -29.19,18.07 -53.66,47.48 -89.24,52.19 -65.66,6.96 -126.27,-30.42 -191.82,-26.49 -96.97,3.7 -182.95,52.98 -263.43,102.14 -46.46,36.14 -83.73,83.73 -135.36,113.25 -63.75,37.38 -124.58,79.58 -191.37,111.68 -61.73,31.2 -108.98,83.4 -151.97,136.37 -13.81,-49.49 30.86,-83.5 61.06,-115.05 70.71,-58.7 162.07,-83.61 238.28,-133.9 70.15,-34.12 120.21,-95.06 181.83,-141.08 -61.95,15.6 -105.73,65.32 -156.23,100.9 -52.87,38.95 -115.05,62.97 -178.47,78.12 -52.53,12.68 -101.01,36.7 -151.63,54.55 -2.14,-23.01 22.1,-26.49 36.81,-34.68 70.71,-31.09 147.71,-43.78 218.42,-74.53 14.7,-4.72 25.14,-16.16 35.81,-26.6 7.85,-5.73 15.82,-11.34 23.9,-16.84 36.71,-9.31 58.59,-42.87 91.14,-59.71 103.49,-57.92 210.9,-109.1 323.14,-147.71 82.05,-25.93 160.62,51.07 242.44,16.28 60.84,-26.38 141.76,-46.14 165,-116.62l0 0zm-500.15 151.52c-14.81,6.4 -34.9,6.63 -43.55,22.34 55.23,-10.33 107.98,-36.37 165.33,-33.68 57.36,-2.35 110.11,27.51 167.24,25.94 36.59,-1.13 65.22,-26.94 93.05,-47.71 -29.52,0.11 -51.97,24.58 -80.81,27.61 -62.07,7.07 -118.3,-30.53 -180.04,-26.71 -42.2,2.69 -81.6,19.19 -121.22,32.21l0 0zm-64.2 31.43c33.79,15.82 0.34,-37.82 0,0l0 0zm-75.65 33.67c27.72,-4.26 55,-14.03 75.65,-33.67 -27.5,5.16 -53.76,16.16 -75.65,33.67z"/>
    </g>
   </g>
   <g id="__x0023_a6a8acff">
   </g>
   <g id="__x0023_b1b2b6ff">
   </g>
   <g id="__x0023_d7d8daff">
   </g>
   <g id="__x0023_bebfc2ff">
   </g>
   <g id="__x0023_fafafaff">
   </g>
   <g id="__x0023_929497ff">
   </g>
   <g id="__x0023_9c9ea1ff">
   </g>
   <g id="__x0023_1f1f21ff">
   </g>
   <g id="__x0023_c9caccff">
   </g>
   <g id="__x0023_eaebecff">
   </g>
   <g id="__x0023_070709ff">
    <path class="fil0" d="M4844.54 1834.45l4.6 2.47c-2.24,0.56 -6.96,1.69 -9.2,2.25l4.6 -4.72z"/>
   </g>
   <g id="__x0023_d8d9dbff">
   </g>
   <g id="__x0023_19191bff">
    <path class="fil0" d="M4840.61 1846.35c-0.22,-1.79 -0.56,-5.39 -0.67,-7.18l0.67 7.18z"/>
   </g>
   <g id="__x0023_252628ff">
    <path class="fil0" d="M4749.47 1854.88c5.05,3.93 5.05,3.93 0,0z"/>
   </g>
   <g id="__x0023_e2e3e7ff">
    <path class="fil0" d="M3930.67 1893.38c9.43,-5.16 9.43,-5.16 0,0z"/>
   </g>
   <g id="__x0023_1a1b1dff">
    <path class="fil0" d="M3988.59 1897.08c5.95,-7.18 5.95,-7.18 0,0z"/>
   </g>
   <g id="__x0023_8e8f93ff">
    <path class="fil0" d="M3911.03 1892.93c4.94,0.11 14.71,0.34 19.64,0.45 6.4,15.26 -19.41,27.95 -31.31,21.77 2.92,-5.61 8.76,-16.72 11.67,-22.22z"/>
    <path class="fil0" d="M4817.49 2722.5c23.12,-23.01 37.71,-54.1 64.99,-72.73 -2.92,32.77 -27.28,55.9 -46.58,80.03 -63.64,76.55 -160.73,125.48 -260.96,124.59 -52.76,-1.13 -104.72,10.32 -151.64,34.23 -46.8,17.28 -91.7,52.64 -144.23,41.19 14.37,-14.93 35.02,-19.75 53.54,-27.5 74.64,-28.95 147.26,-73.4 230.54,-68.24 96.3,4.15 191.37,-39.29 254.34,-111.57z"/>
   </g>
   <g id="__x0023_121315ff">
    <path class="fil0" d="M3981.97 1905.17c1.68,-2.02 4.94,-6.06 6.62,-8.09 -1.68,2.03 -4.94,6.07 -6.62,8.09z"/>
   </g>
   <g id="__x0023_0c0d0fff">
    <path class="fil0" d="M3976.69 1911.23c1.35,-1.57 3.93,-4.61 5.28,-6.06 -1.35,1.45 -3.93,4.49 -5.28,6.06z"/>
   </g>
   <g id="__x0023_111214ff">
    <path class="fil0" d="M3869.95 1925.14c0.9,-2.58 2.7,-7.63 3.59,-10.21l1.24 5.61 -4.83 4.6z"/>
   </g>
   <g id="__x0023_7e7f83ff">
    <path class="fil0" d="M3873.54 1914.93c6.51,0.11 19.31,0.11 25.82,0.22l10.78 8.42c-64.54,45.57 -131.21,89.23 -204.62,118.98 7.07,-20.88 29.63,-26.27 46.58,-36.37 30.19,-14.48 57.92,-33.22 85.19,-52.64 13.58,-5.95 25.25,-15.38 32.66,-28.4l4.83 -4.6 -1.24 -5.61z"/>
    <path class="fil0" d="M3753.9 3221.64c47.14,-1.12 94.84,-6.06 141.76,1.23 0.56,3.71 1.79,11.34 2.35,15.04 -40.85,0.23 -81.6,0 -122.34,0.34 -0.9,36.03 -0.9,72.17 -0.23,108.2 36.49,0.78 72.96,-1.35 109.44,1.01 1.23,4.27 3.7,12.57 4.94,16.72 -38.05,0.68 -76.21,0.34 -114.26,0.34 -0.56,41.19 -0.9,82.5 0.11,123.69 43.88,0.56 87.77,-1.91 131.55,2.8 -2.81,3.71 -8.31,11.34 -11,15.05 -46.47,2.47 -93.05,-0.79 -139.63,1.23 -6.96,-94.95 -1.91,-190.47 -2.69,-285.65z"/>
   </g>
   <g id="__x0023_808183ff">
    <path class="fil0" d="M3937.86 1923.91c1.68,-1.01 4.94,-3.03 6.62,-4.04 -1.68,1.01 -4.94,3.03 -6.62,4.04z"/>
   </g>
   <g id="__x0023_010103ff">
   </g>
   <g id="__x0023_848587ff">
    <path class="fil0" d="M3849.41 1991.03c30.98,-19.98 52.64,-57.92 88.45,-67.12l-0.45 10.32c-66,64.77 -143.45,124.48 -235.03,144.91 43.32,-37.83 103.37,-49.72 147.03,-88.11z"/>
    <path class="fil0" d="M4732.97 2156.47c45.12,-33.67 89.68,-69.93 143.45,-89.01 2.13,7.53 4.37,15.04 6.62,22.68 -52.64,18.18 -100.35,47.81 -143.33,82.72 -22.9,20.88 -25.03,55.33 -46.13,77.67 -44.45,49.27 -87.21,100.79 -140.19,141.31 -38.28,32.21 -84.18,59.27 -106.63,105.96 -15.04,24.91 -25.93,59.48 -57.92,66.67 -53.87,8.86 -108.87,9.2 -163.31,10.1 -50.73,1.12 -93.38,-48.71 -144.9,-30.2 -58.26,21.22 -84.74,83.96 -135.81,115.39 -29.52,17.51 -66.11,11.22 -96.98,25.03 -42.88,17.85 -83.51,44.9 -130.87,48.04 -3.59,-2.92 -10.78,-8.87 -14.37,-11.79 76.77,-9.54 135.48,-67.68 211.58,-80.25 58.81,-36.14 84.74,-114.26 153.54,-137.04 71.72,-5.28 131.77,49.94 203.49,46.13 48.38,-0.34 109.44,3.59 140.42,-41.87 26.15,-37.38 55.22,-73.18 93.94,-98.43 68.24,-46.47 125.26,-106.41 179.59,-168.03 21.32,-25.25 20.2,-64.42 47.81,-85.08z"/>
   </g>
   <g id="__x0023_e0e2e2ff">
   </g>
   <g id="__x0023_313133ff">
   </g>
   <g id="__x0023_ebecedff">
   </g>
   <g id="__x0023_6b6c6eff">
    <g>
     <path class="fil0" d="M4215.09 2132.68c61.96,-88.67 191.93,-101.58 287.56,-63.98 44.45,15.38 79.02,47.93 113.37,78.79 19.19,-6.06 41.08,-18.18 59.82,-3.25 -57.35,109.32 -145.35,197.88 -234.69,281.27 -35.14,33.34 -43.22,102.03 -103.15,100.91 -97.88,15.82 -176.45,-55.23 -267.59,-72.51 15.49,-18.86 41.08,-10.44 60.39,-3.93 54.32,19.98 105.17,57.69 166.01,51.18 -40.97,-17.06 -82.62,-32.1 -124.37,-46.91 -39.84,-14.6 -84.51,-22 -114.93,-54.33 8.86,-0.78 26.6,-2.47 35.46,-3.25 75.32,6.84 142.89,66.22 220.22,46.69 36.26,-28.06 33.22,-80.25 45.35,-120.66 4.94,-38.5 41.53,-58.37 68.58,-80.59 -28.96,-23.23 -42.54,-76.32 -87.89,-67.91 -51.74,7.75 -107.64,9.88 -151.52,41.87 -70.15,36.37 -103.71,112.24 -166.01,158.26 10.55,4.94 21.1,9.99 31.76,15.04 -4.15,4.49 -12.34,13.47 -16.49,17.96 -17.29,-8.08 -32.44,-19.53 -46.7,-31.76 -5.5,4.15 -16.5,12.46 -21.99,16.61 -1.91,16.05 -3.82,32.32 -5.62,48.49 20.21,-7.19 40.63,-13.92 61.17,-20.1 5.84,1.24 17.29,3.6 23.13,4.72 -28.29,7.97 -56.13,17.29 -82.72,29.41 -9.1,1.23 -27.17,3.7 -36.15,4.94 8.53,-23.69 14.71,-48.83 27.5,-70.72 42.99,-46.02 93.05,-87.1 124.48,-142.54 -52.19,39.73 -97.54,87.66 -148.39,129.19 -16.83,16.5 -43.55,31.09 -40.74,58.36 1.91,39.4 -19.87,73.52 -28.73,110.78 44,-23.34 80.81,-57.24 122.23,-84.4 26.6,-6.85 57.91,-28.62 83.06,-6.29 -101.7,2.02 -132.9,131.55 -232.34,136.49 -11.68,-35.47 -2.36,-71.95 17.84,-102.14 22.12,-28.62 -4.04,-72.06 27.84,-95.97 40.74,-34.34 84.29,-65.32 121.78,-103.6 63.53,-57.91 135.25,-106.18 201.92,-160.5 2.7,1.12 7.86,3.25 10.55,4.38 -1.46,3.81 -4.26,11.56 -5.72,15.37 20.76,-2.02 36.59,17.74 57.13,12.35 40.29,-8.75 86.65,-32.66 124.48,-3.37 24.24,23.12 45.23,53.88 52.08,86.88 -11.79,30.75 -52.2,41.86 -60.95,74.86 -15.04,47.48 -9.32,106.4 -48.83,142.77 -21.32,7.63 -44.22,9.54 -66.33,13.92 26.26,0.56 61.06,15.49 79.24,-11.11 44.34,-58.7 69.48,-129.53 113.93,-188.12 25.36,-29.74 58.47,-51.52 84.4,-80.81 -20.2,1.35 -40.18,3.14 -60.16,4.83 8.3,-29.52 -15.94,-50.29 -37.72,-64.99 -56.11,-13.14 -115.49,5.05 -171.39,-7.63l0 -3.49c53.99,-5.16 108.2,-22.1 162.98,-14.14 50.96,9.77 69.14,76.66 126.61,70.15 1.79,44.56 -47.15,62.52 -67.46,96.53 -32.1,50.06 -60.39,102.48 -91.93,152.99 89.91,-81.49 183.52,-164.21 242.67,-271.85 -10.1,2.36 -30.2,6.85 -40.3,9.09 -29.85,-35.47 -67.57,-64.99 -111.9,-79.69 -54.88,-20.54 -114.49,-15.15 -171.62,-11.56 -32.66,25.25 -70.04,44.44 -109.21,57.02l0 0zm-165.78 180.71c5.62,5.83 5.62,5.83 0,0z"/>
    </g>
   </g>
   <g id="__x0023_adaeb2ff">
   </g>
   <g id="__x0023_bcbdc0ff">
   </g>
   <g id="__x0023_fbfbfcff">
   </g>
   <g id="__x0023_e5e6e8ff">
   </g>
   <g id="__x0023_cacbcdff">
   </g>
   <g id="__x0023_b3b3b6ff">
   </g>
   <g id="__x0023_2e2e30ff">
   </g>
   <g id="__x0023_c7c9caff">
   </g>
   <g id="__x0023_737476ff">
    <path class="fil0" d="M4726.69 2248.4c29.18,-51.52 86.2,-85.64 144.9,-89.57 3.14,3.25 9.54,9.88 12.8,13.13 -58.82,8.08 -127.96,29.07 -149.06,91.7 26.6,-15.26 36.81,-54.77 69.81,-57.92 -28.73,35.58 -59.37,70.27 -78.57,112.25 -40.63,87.99 -144.79,115.94 -201.02,190.24 -27.95,35.36 -15.04,97.54 -63.98,115.95 -71.83,14.14 -151.63,-25.26 -217.29,22.11 34.79,-6.29 69.25,-20.76 105.17,-13.8 51.18,4.04 110.67,27.83 156.01,-8.31 26.6,-30.31 23.8,-75.65 48.38,-107.64 37.15,-60.83 100.68,-96.08 154.44,-139.63 48.71,-55.33 90.47,-133.45 170.6,-144.68 -1.45,3.93 -4.6,11.68 -6.17,15.49 -71.83,25.15 -115.16,92.6 -150.51,155.79 -83.51,50.62 -155.23,125.94 -180.71,222.35 40.85,-61.84 86.42,-123.58 149.39,-164.43 39.29,-27.95 68.69,-66.45 94.17,-106.85 20.09,-34.35 60.27,-45.91 95.63,-58.03 8.87,22.56 -18.18,24.47 -31.2,31.76 -43.66,12.46 -62.18,57.24 -88,90.13 -29.41,42.2 -77.33,65.55 -110.44,104.16 -33.68,41.08 -65.1,84.07 -98.33,125.49 -39.62,44.11 -104.94,37.82 -158.14,32.77 -114.04,-17.51 -224.93,34.12 -315.29,99.11 -54.21,44.78 -94.06,103.6 -145.13,151.53 -23.12,0.67 -46.35,1.23 -69.47,1.45 12.34,-23.12 43.55,-20.2 63.08,-34.68 36.92,-25.48 63.98,-62.29 95.29,-93.94 -35.92,18.29 -70.82,40.96 -111.79,45.9 -48.49,11.79 -105.06,9.77 -143.11,46.69 -18.07,15.72 -43.1,18.3 -64.99,25.37 3.82,-18.86 24.58,-20.31 37.83,-28.96 20.54,-9.65 32.32,-33.33 56.12,-37.04 62.07,-15.93 127.28,-22 186.54,-47.81 45.69,-27.16 71.72,-78.01 118.08,-104.61 41.98,-27.05 91.25,-37.04 137.49,-54.32 -42.76,6.17 -88.33,9.65 -125.37,34 -33.33,21.67 -61.28,50.74 -96.19,70.04 -52.86,29.75 -113.47,44 -173.97,45.68 -48.83,1.58 -93.39,24.14 -140.98,32.44 0,-22.22 25.03,-24.58 39.85,-33 31.99,-13.69 66.67,-19.86 101.24,-22.11 65.32,-4.49 131.44,-21.21 186.54,-57.58 23.69,-20.31 38.73,-49.83 66.79,-65.32 27.95,-20.54 63.41,-20.09 96.41,-23.01 53.77,-2.36 100.46,-41.08 155.57,-32.55 37.04,0.78 79.8,18.97 112.58,-6.51 19.64,-31.2 20.54,-71.27 44.33,-100.34 48.94,-57.36 126.5,-81.27 173.97,-139.86 0.79,-0.89 2.25,-2.8 3.03,-3.7l-3.03 3.7c-45,25.37 -85.41,57.92 -127.17,88 -29.4,21.44 -56.56,48.6 -68.01,84.07 -10.1,24.02 -13.02,53.31 -35.24,70.15 -35.36,15.26 -74.09,2.47 -110.79,1.91 -53.65,-3.82 -104.16,29.41 -157.92,16.16 -24.13,-3.03 -49.84,-12.12 -73.52,-2.92 -51.52,24.36 -75.42,83.73 -128.4,106.07 -38.73,16.16 -81.49,16.5 -122.79,18.18 -52.19,0.79 -100.35,26.83 -152.76,25.26 17.51,-26.6 58.48,-17.06 85.41,-31.43 59.94,-28.73 133.68,-7.07 189.02,-47.14 43.55,-27.84 53.98,-88.9 104.04,-109.1 32.1,-19.19 67.35,-2.13 99.11,7.97 47.59,17.96 97.2,-5.5 146.03,-2.58 35.13,-3.59 75.42,9.2 106.29,-12.69 20.09,-35.58 30.08,-78.23 62.29,-105.84 52.64,-46.02 113.03,-81.71 169.15,-123.24 30.08,-20.65 42.65,-56.57 61.96,-85.86z"/>
   </g>
   <g id="__x0023_000001ff">
   </g>
   <g id="__x0023_6c6c6dff">
    <path class="fil0" d="M4870.91 2192.84c18.75,6.06 -6.5,21.55 -15.71,18.97 -11.22,0 -39.28,9.43 -41.53,-6.51 17.96,-6.96 38.16,-9.43 57.24,-12.46z"/>
   </g>
   <g id="__x0023_000103ff">
   </g>
   <g id="__x0023_080808ff">
    <path class="fil0" d="M4049.31 2313.39c5.62,5.83 5.62,5.83 0,0z"/>
   </g>
   <g id="__x0023_babbbfff">
   </g>
   <g id="__x0023_dedfe1ff">
   </g>
   <g id="__x0023_c5c6c8ff">
   </g>
   <g id="__x0023_a6a7abff">
   </g>
   <g id="__x0023_1d1e20ff">
    <path class="fil0" d="M4683.02 2347.73c-0.78,0.9 -2.24,2.81 -3.03,3.7l3.03 -3.7z"/>
   </g>
   <g id="__x0023_08080aff">
   </g>
   <g id="__x0023_444547ff">
   </g>
   <g id="__x0023_ebeceeff">
   </g>
   <g id="__x0023_8f8f91ff">
    <path class="fil0" d="M4775.51 2691.52c39.4,-35.69 67.57,-81.37 102.48,-121.1 10.1,25.81 -11,46.35 -23.35,66.22 -45.79,66.22 -106.29,126.16 -184.41,151.97 -79.02,29.07 -167.8,9.54 -245.02,46.13 -84.52,37.15 -178.69,46.02 -260.74,89.12 -15.49,6.85 -31.76,9.54 -48.93,8.31 45.68,-46.47 111.67,-62.74 173.18,-76.55 54.78,-12.23 106.74,-33.9 159.5,-52.53 66.78,-24.13 139.96,-16.5 206.97,-39.62 44,-16.5 85.64,-40.07 120.32,-71.95z"/>
   </g>
   <g id="__x0023_636466ff">
    <path class="fil0" d="M4753.18 2824.75c50.84,-26.37 85.41,-72.95 128.29,-109.1 7.74,37.49 -30.08,54.33 -48.72,79.47 -2.46,17.51 -6.84,54.89 -34.34,31.32 0.11,4.37 0.34,13.13 0.45,17.62 -10.89,29.41 -36.03,-3.48 -55.56,6.73 -12.69,6.85 -18.97,21.55 -34.46,24.59 -17.85,3.59 -45.57,-8.76 -52.64,14.81 8.87,5.27 17.62,10.89 26.15,16.84 -35.8,8.41 -70.15,29.29 -107.97,25.47 -33.23,-3.25 -66.67,-0.33 -99.9,1.35 9.32,-24.58 38.95,-27.83 60.05,-36.93 74.08,-20.2 152.42,-30.53 218.65,-72.17z"/>
   </g>
   <g id="__x0023_767677ff">
    <path class="fil0" d="M4831.52 2927.23c2.36,-14.48 40.07,-26.15 47.36,-8.87 -6.62,17.63 -33.56,16.95 -47.36,8.87z"/>
   </g>
   <g id="__x0023_dddee0ff">
   </g>
   <g id="__x0023_c1c2c5ff">
   </g>
   <g id="__x0023_d2d3d6ff">
   </g>
   <g id="__x0023_b5b6baff">
   </g>
   <g id="__x0023_7c7d82ff">
   </g>
   <g id="__x0023_797a7eff">
   </g>
   <g id="__x0023_f4f6f5ff">
   </g>
   <g id="__x0023_98999dff">
   </g>
   <g id="__x0023_999a9eff">
   </g>
   <g id="__x0023_8b8c90ff">
   </g>
   <g id="__x0023_9fa0a4ff">
   </g>
   <g id="__x0023_a5a6aaff">
   </g>
   <g id="__x0023_c4c5c7ff">
   </g>
   <g id="__x0023_c5c6c9ff">
   </g>
   <g id="__x0023_c8c9cdff">
   </g>
   <g id="__x0023_dfe0e2ff">
   </g>
   <g id="__x0023_f5f7f6ff">
   </g>
   <g id="__x0023_f6f8f7ff">
   </g>
   <g id="__x0023_f6f7f7ff">
   </g>
   <g id="__x0023_e2e3e5ff">
   </g>
   <g id="__x0023_bdbec2ff">
   </g>
   <g id="__x0023_e0e1e3ff">
   </g>
   <g id="__x0023_97989cff">
   </g>
   <g id="__x0023_818181ff">
   </g>
   <g id="__x0023_010101ff">
   </g>
   <g id="__x0023_000201ff">
   </g>
   <g id="__x0023_a0a1a5ff">
   </g>
   <g id="__x0023_7e8184ff">
   </g>
   <g id="__x0023_818085ff">
   </g>
   <g id="__x0023_76777bff">
   </g>
   <g id="__x0023_575757ff">
   </g>
  </g>
  <g>
   <g>
    <path class="fil0" d="M7430.38 4616.21l-102.3 478.17 -123.58 0 102.31 -478.17 123.57 0zm520.72 308.76l65.27 -179.69 37.4 179.69 -102.67 0zm137.88 169.41l114.41 0 -99.74 -478.17 -105.61 0c-23.84,0 -43.64,13.93 -52.81,35.2l-185.55 443.34 129.81 0 25.67 -71.51 158.78 0 15.04 71.14zm-322.7 -156.21c0.37,-126.15 -174.55,-133.11 -173.45,-189.59 0.37,-17.23 16.87,-35.2 52.44,-39.97 17.6,-2.2 66.37,-4.03 122.11,21.27l21.64 -101.57c-29.71,-11 -68.21,-21.27 -115.88,-21.27 -122.11,0 -208.29,64.9 -209.02,158.05 -0.73,68.94 61.61,107.07 108.54,130.17 48.04,23.47 64.18,38.51 64.18,59.41 -0.37,31.9 -38.51,46.2 -74.08,46.94 -62.34,1.1 -98.27,-16.87 -127.24,-30.07l-22.37 104.87c28.97,13.21 82.14,24.94 137.51,25.31 130.18,0.36 214.89,-64.18 215.62,-163.55l0 0zm-512.64 -321.96l-200.59 478.17 -130.91 0 -98.64 -381.73c-5.87,-23.47 -11.01,-32.27 -29.34,-42.17 -29.7,-16.14 -78.84,-31.17 -122.11,-40.71l2.93 -13.93 210.49 0c26.77,0 50.97,17.97 57.2,48.77l52.08 276.86 128.71 -325.63 130.18 0 0 0.37z"/>
   </g>
  </g>
 </g>
</svg>
